0
SECTION
2
HEADER
9
$INSUNITS
70
1
9
$ACADVER
1
AC1014
9
$HANDSEED
5
FFFF
0
ENDSEC
0
SECTION
2
TABLES
0
TABLE
2
VPORT
5
8
100
AcDbSymbolTable
0
ENDTAB
0
TABLE
2
LTYPE
5
5
100
AcDbSymbolTable
0
LTYPE
5
14
100
AcDbSymbolTableRecord
100
AcDbLinetypeTableRecord
2
BYBLOCK
70
0
0
LTYPE
5
15
100
AcDbSymbolTableRecord
100
AcDbLinetypeTableRecord
2
BYLAYER
70
0
0
ENDTAB
0
TABLE
2
LAYER
5
2
100
AcDbSymbolTable
70
2
0
LAYER
5
50
100
AcDbSymbolTableRecord
100
AcDbLayerTableRecord
2
0
70
0
6
CONTINUOUS
0
ENDTAB
0
TABLE
2
STYLE
5
3
100
AcDbSymbolTable
70
1
0
STYLE
5
11
100
AcDbSymbolTableRecord
100
AcDbTextStyleTableRecord
2
STANDARD
70
0
0
ENDTAB
0
TABLE
2
VIEW
5
6
100
AcDbSymbolTable
70
0
0
ENDTAB
0
TABLE
2
UCS
5
7
100
AcDbSymbolTable
70
0
0
ENDTAB
0
TABLE
2
APPID
5
9
100
AcDbSymbolTable
70
2
0
APPID
5
12
100
AcDbSymbolTableRecord
100
AcDbRegAppTableRecord
2
ACAD
70
0
0
ENDTAB
0
TABLE
2
DIMSTYLE
5
A
100
AcDbSymbolTable
70
1
0
ENDTAB
0
TABLE
2
BLOCK_RECORD
5
1
100
AcDbSymbolTable
70
1
0
BLOCK_RECORD
5
1F
100
AcDbSymbolTableRecord
100
AcDbBlockTableRecord
2
*MODEL_SPACE
0
BLOCK_RECORD
5
1B
100
AcDbSymbolTableRecord
100
AcDbBlockTableRecord
2
*PAPER_SPACE
0
ENDTAB
0
ENDSEC
0
SECTION
2
BLOCKS
0
BLOCK
5
20
100
AcDbEntity
100
AcDbBlockBegin
2
*MODEL_SPACE
0
ENDBLK
5
21
100
AcDbEntity
100
AcDbBlockEnd
0
BLOCK
5
1C
100
AcDbEntity
100
AcDbBlockBegin
2
*PAPER_SPACE
0
ENDBLK
5
1D
100
AcDbEntity
100
AcDbBlockEnd
0
ENDSEC
0
SECTION
2
ENTITIES
0
LWPOLYLINE
5
100
100
AcDbEntity
8
0
100
AcDbPolyline
90
12
70
1
43
0.0
10
14.249999887361298
20
-4.9499999999999993
10
14.249999887361298
20
-0.049999999999999989
42
0.41421356237306034
10
14.199999887361297
20
6.4471612650476604e-16
10
12.799999932979974
20
0
10
12.799999932979974
20
0.70000002234000858
42
0.99999999999999989
10
12.499999923405683
20
0.70000002234000858
10
12.499999923405683
20
0
10
10.9999998873613
20
1.049029629567077e-15
42
0.4142135623731053
10
10.949999887361301
20
-0.05000000000000026
10
10.949999887361303
20
-4.9499999999999993
42
0.41421356237308682
10
10.9999998873613
20
-4.9999999999999991
10
14.199999887361297
20
-5
42
0.41421356237306223
0
CIRCLE
5
101
100
AcDbEntity
8
0
100
AcDbCircle
10
9.5000000079785742
20
-4.7500001515929151
30
0
40
0.25000000797857447
0
LWPOLYLINE
5
102
100
AcDbEntity
8
0
100
AcDbPolyline
90
8
70
1
43
0.0
10
16.447819542352061
20
10.013494842589122
10
0.047819542352061109
20
10.013494842589122
42
0.41421356237310325
10
-0.0021804576479398496
20
9.9634948425891228
10
-0.002180457647938451
20
-6.4365051574108785
42
0.41421356237314422
10
0.047819542352061109
20
-6.4865051574108783
10
16.447819542352061
20
-6.4865051574108765
42
0.414213562373136
10
16.497819542352062
20
-6.4365051574108785
10
16.497819542352062
20
9.9634948425891228
42
0.41421356237315238
0
LWPOLYLINE
5
103
100
AcDbEntity
8
0
100
AcDbPolyline
90
4
70
1
43
0.0
10
2.2499999999999982
20
-4.9950000000000001
10
8.7999999999999972
20
-4.9950000000000001
10
8.7999999999999972
20
-1.0500000000000003
10
2.2499999999999991
20
-1.0500000000000005
0
LINE
5
104
100
AcDbEntity
8
0
100
AcDbLine
10
14.249999887361298
20
6.9999998948705473
30
0
11
14.249999887361298
21
4.5499999324167808
31
0
0
LINE
5
105
100
AcDbEntity
8
0
100
AcDbLine
10
14.199999887361297
20
4.4999999324167801
30
0
11
2.2999998873613001
21
4.4999999324167801
31
0
0
LINE
5
106
100
AcDbEntity
8
0
100
AcDbLine
10
2.2499998873613007
20
4.5499999324167808
30
0
11
2.2499998873613007
21
6.9999998948705473
31
0
0
LINE
5
107
100
AcDbEntity
8
0
100
AcDbLine
10
14.249999887361298
20
8.8499994408414864
30
0
11
14.249999887361298
21
6.9999998948705473
31
0
0
LINE
5
108
100
AcDbEntity
8
0
100
AcDbLine
10
2.2500000750924651
20
6.9999998948705473
30
0
11
2.2500000750924651
21
8.8499994408421738
31
0
0
LINE
5
109
100
AcDbEntity
8
0
100
AcDbLine
10
14.200000237761516
20
8.9002781439853695
30
0
11
14.200000237761516
21
7.0500002249958005
31
0
0
LINE
5
110
100
AcDbEntity
8
0
100
AcDbLine
10
14.200000237761516
20
7.0500002249958005
30
0
11
2.2999998420242243
21
7.0500002249958005
31
0
0
LINE
5
111
100
AcDbEntity
8
0
100
AcDbLine
10
2.2999998420242243
20
7.0500002249958005
30
0
11
2.2999998420242243
21
8.9002561968216778
31
0
0
ARC
5
112
100
AcDbEntity
8
0
100
AcDbCircle
10
2.2500000750924651
20
8.8999998648335605
30
0
40
0.050000423991385927
100
AcDbArc
50
0.00075293348628480605
51
270
0
ARC
5
113
100
AcDbEntity
8
0
100
AcDbCircle
10
14.249999887361298
20
8.8999998648335605
30
0
40
0.050000423992074605
100
AcDbArc
50
-90
51
179.99911261246257
0
LWPOLYLINE
5
114
100
AcDbEntity
8
0
100
AcDbPolyline
90
3
70
1
43
0.0
10
4.2999998969355904
20
3.5000001117000425
10
3.9999998873613007
20
4.0000001276571915
10
3.6999998777870111
20
3.5000001117000425
0
LWPOLYLINE
5
115
100
AcDbEntity
8
0
100
AcDbPolyline
90
8
70
1
43
0.0
10
11.900000379780145
20
2.950000092551464
10
4.6000001436143405
20
2.950000092551464
42
0.41421356237308482
10
4.5500001436143398
20
2.9000000925514637
10
4.5500001436143398
20
1.6000000478714467
42
0.41421356237308893
10
4.6000001436143414
20
1.5500000478714469
10
11.900000379780145
20
1.5500000478714469
42
0.41421356237311352
10
11.950000379780144
20
1.6000000478714467
10
11.950000379780144
20
2.9000000925514637
42
0.41421356237311352
0
ARC
5
116
100
AcDbEntity
8
0
100
AcDbCircle
10
14.199999887361294
20
4.5499999324167835
30
0
40
0.050000000000003757
100
AcDbArc
50
270.00000000000409
51
360
0
ARC
5
117
100
AcDbEntity
8
0
100
AcDbCircle
10
2.2999998873613015
20
4.5499999324167817
30
0
40
0.05000000000000096
100
AcDbArc
50
180
51
269.99999999999847
0
LWPOLYLINE
5
118
100
AcDbEntity
8
0
100
AcDbPolyline
90
4
70
1
43
0.0
10
3.0000000957428936
20
8.850000284037252
10
2.5000000797857447
20
8.850000284037252
42
-0.99999999999999989
10
2.5000000797857447
20
8.9500002840372517
10
3.0000000957428936
20
8.9500002840372517
42
-0.99999999999999989
0
LWPOLYLINE
5
119
100
AcDbEntity
8
0
100
AcDbPolyline
90
4
70
1
43
0.0
10
3.8461539418967399
20
8.850000284037252
10
3.3461539259395909
20
8.850000284037252
42
-0.99999999999999989
10
3.3461539259395909
20
8.9500002840372517
10
3.8461539418967399
20
8.9500002840372517
42
-0.99999999999999989
0
LWPOLYLINE
5
120
100
AcDbEntity
8
0
100
AcDbPolyline
90
4
70
1
43
0.0
10
4.6923077880505861
20
8.850000284037252
10
4.1923077720934367
20
8.850000284037252
42
-0.99999999999999989
10
4.1923077720934367
20
8.9500002840372517
10
4.6923077880505861
20
8.9500002840372517
42
-0.99999999999999989
0
LWPOLYLINE
5
121
100
AcDbEntity
8
0
100
AcDbPolyline
90
4
70
1
43
0.0
10
5.5384616342044319
20
8.850000284037252
10
5.0384616182472826
20
8.850000284037252
42
-0.99999999999999989
10
5.0384616182472826
20
8.9500002840372517
10
5.5384616342044319
20
8.9500002840372517
42
-0.99999999999999989
0
LWPOLYLINE
5
122
100
AcDbEntity
8
0
100
AcDbPolyline
90
4
70
1
43
0.0
10
6.3846154803582778
20
8.850000284037252
10
5.8846154644011293
20
8.850000284037252
42
-0.99999999999999989
10
5.8846154644011293
20
8.9500002840372517
10
6.3846154803582778
20
8.9500002840372517
42
-0.99999999999999989
0
LWPOLYLINE
5
123
100
AcDbEntity
8
0
100
AcDbPolyline
90
4
70
1
43
0.0
10
7.2307693265121236
20
8.850000284037252
10
6.7307693105549751
20
8.850000284037252
42
-0.99999999999999989
10
6.7307693105549751
20
8.9500002840372517
10
7.2307693265121236
20
8.9500002840372517
42
-0.99999999999999989
0
LWPOLYLINE
5
124
100
AcDbEntity
8
0
100
AcDbPolyline
90
4
70
1
43
0.0
10
8.0769231726659694
20
8.850000284037252
10
7.5769231567088209
20
8.850000284037252
42
-0.99999999999999989
10
7.5769231567088209
20
8.9500002840372517
10
8.0769231726659694
20
8.9500002840372517
42
-0.99999999999999989
0
LWPOLYLINE
5
125
100
AcDbEntity
8
0
100
AcDbPolyline
90
4
70
1
43
0.0
10
8.9230770188198161
20
8.850000284037252
10
8.4230770028626676
20
8.850000284037252
42
-0.99999999999999989
10
8.4230770028626676
20
8.9500002840372517
10
8.9230770188198161
20
8.9500002840372517
42
-0.99999999999999989
0
LWPOLYLINE
5
126
100
AcDbEntity
8
0
100
AcDbPolyline
90
4
70
1
43
0.0
10
9.769230864973661
20
8.850000284037252
10
9.2692308490165125
20
8.850000284037252
42
-0.99999999999999989
10
9.2692308490165125
20
8.9500002840372517
10
9.769230864973661
20
8.9500002840372517
42
-0.99999999999999989
0
LWPOLYLINE
5
127
100
AcDbEntity
8
0
100
AcDbPolyline
90
4
70
1
43
0.0
10
10.615384711127508
20
8.850000284037252
10
10.115384695170359
20
8.850000284037252
42
-0.99999999999999989
10
10.115384695170359
20
8.9500002840372517
10
10.615384711127508
20
8.9500002840372517
42
-0.99999999999999989
0
LWPOLYLINE
5
128
100
AcDbEntity
8
0
100
AcDbPolyline
90
4
70
1
43
0.0
10
11.461538557281354
20
8.850000284037252
10
10.961538541324204
20
8.850000284037252
42
-0.99999999999999989
10
10.961538541324204
20
8.9500002840372517
10
11.461538557281354
20
8.9500002840372517
42
-0.99999999999999989
0
LWPOLYLINE
5
129
100
AcDbEntity
8
0
100
AcDbPolyline
90
4
70
1
43
0.0
10
12.307692403435199
20
8.850000284037252
10
11.807692387478051
20
8.850000284037252
42
-0.99999999999999989
10
11.807692387478051
20
8.9500002840372517
10
12.307692403435199
20
8.9500002840372517
42
-0.99999999999999989
0
LWPOLYLINE
5
130
100
AcDbEntity
8
0
100
AcDbPolyline
90
4
70
1
43
0.0
10
13.153846249589046
20
8.850000284037252
10
12.653846233631898
20
8.850000284037252
42
-0.99999999999999989
10
12.653846233631898
20
8.9500002840372517
10
13.153846249589046
20
8.9500002840372517
42
-0.99999999999999989
0
LWPOLYLINE
5
131
100
AcDbEntity
8
0
100
AcDbPolyline
90
4
70
1
43
0.0
10
14.000000095742893
20
8.850000284037252
10
13.500000079785742
20
8.850000284037252
42
-0.99999999999999989
10
13.500000079785742
20
8.9500002840372517
10
14.000000095742893
20
8.9500002840372517
42
-0.99999999999999989
0
ENDSEC
0
SECTION
2
OBJECTS
0
DICTIONARY
5
C
100
AcDbDictionary
3
ACAD_GROUP
350
D
3
ACAD_MLINESTYLE
350
17
0
DICTIONARY
5
D
100
AcDbDictionary
0
DICTIONARY
5
1A
330
C
100
AcDbDictionary
0
DICTIONARY
5
17
100
AcDbDictionary
0
ENDSEC
0
EOF
