0
SECTION
2
HEADER
9
$INSUNITS
70
1
9
$ACADVER
1
AC1014
9
$HANDSEED
5
FFFF
0
ENDSEC
0
SECTION
2
TABLES
0
TABLE
2
VPORT
5
8
100
AcDbSymbolTable
0
ENDTAB
0
TABLE
2
LTYPE
5
5
100
AcDbSymbolTable
0
LTYPE
5
14
100
AcDbSymbolTableRecord
100
AcDbLinetypeTableRecord
2
BYBLOCK
70
0
0
LTYPE
5
15
100
AcDbSymbolTableRecord
100
AcDbLinetypeTableRecord
2
BYLAYER
70
0
0
ENDTAB
0
TABLE
2
LAYER
5
2
100
AcDbSymbolTable
70
2
0
LAYER
5
50
100
AcDbSymbolTableRecord
100
AcDbLayerTableRecord
2
0
70
0
6
CONTINUOUS
0
ENDTAB
0
TABLE
2
STYLE
5
3
100
AcDbSymbolTable
70
1
0
STYLE
5
11
100
AcDbSymbolTableRecord
100
AcDbTextStyleTableRecord
2
STANDARD
70
0
0
ENDTAB
0
TABLE
2
VIEW
5
6
100
AcDbSymbolTable
70
0
0
ENDTAB
0
TABLE
2
UCS
5
7
100
AcDbSymbolTable
70
0
0
ENDTAB
0
TABLE
2
APPID
5
9
100
AcDbSymbolTable
70
2
0
APPID
5
12
100
AcDbSymbolTableRecord
100
AcDbRegAppTableRecord
2
ACAD
70
0
0
ENDTAB
0
TABLE
2
DIMSTYLE
5
A
100
AcDbSymbolTable
70
1
0
ENDTAB
0
TABLE
2
BLOCK_RECORD
5
1
100
AcDbSymbolTable
70
1
0
BLOCK_RECORD
5
1F
100
AcDbSymbolTableRecord
100
AcDbBlockTableRecord
2
*MODEL_SPACE
0
BLOCK_RECORD
5
1B
100
AcDbSymbolTableRecord
100
AcDbBlockTableRecord
2
*PAPER_SPACE
0
ENDTAB
0
ENDSEC
0
SECTION
2
BLOCKS
0
BLOCK
5
20
100
AcDbEntity
100
AcDbBlockBegin
2
*MODEL_SPACE
0
ENDBLK
5
21
100
AcDbEntity
100
AcDbBlockEnd
0
BLOCK
5
1C
100
AcDbEntity
100
AcDbBlockBegin
2
*PAPER_SPACE
0
ENDBLK
5
1D
100
AcDbEntity
100
AcDbBlockEnd
0
ENDSEC
0
SECTION
2
ENTITIES
0
LINE
5
100
100
AcDbEntity
8
0
100
AcDbLine
10
7.0004888535805962
20
-7.9999999999999991
30
0
11
0
21
-7.9999999999999991
31
0
0
LINE
5
101
100
AcDbEntity
8
0
100
AcDbLine
10
7.9999999999999991
20
0
30
0
11
9.9614018507106703
21
0
31
0
0
LINE
5
102
100
AcDbEntity
8
0
100
AcDbLine
10
0
20
0
30
0
11
-1.9999999699630135
21
0
31
0
0
LINE
5
103
100
AcDbEntity
8
0
100
AcDbLine
10
7.9999999999999991
20
0
30
0
11
7.9999999999999991
21
1.0964466256716556
31
0
0
LINE
5
104
100
AcDbEntity
8
0
100
AcDbLine
10
7.9999999999999991
20
1.9999999699630135
30
0
11
0
21
1.9999999699630135
31
0
0
LINE
5
105
100
AcDbEntity
8
0
100
AcDbLine
10
6.556435184794231e-17
20
1.0964466477038839
30
0
11
0
21
0
31
0
0
LWPOLYLINE
5
106
100
AcDbEntity
8
0
100
AcDbPolyline
90
4
70
1
43
0.0
10
0.90000002872286811
20
-0.049999999999999996
10
0.20000000638285959
20
-0.049999999999999996
42
-0.99999999999999989
10
0.20000000638285959
20
0.049999999999999996
10
0.90000002872286811
20
0.049999999999999996
42
-0.99999999999999989
0
LWPOLYLINE
5
107
100
AcDbEntity
8
0
100
AcDbPolyline
90
4
70
1
43
0.0
10
1.1857142920971451
20
0.049999999999999996
10
1.8857143144371538
20
0.049999999999999996
42
-0.99999999999999989
10
1.8857143144371538
20
-0.049999999999999996
10
1.1857142920971451
20
-0.049999999999999996
42
-0.99999999999999989
0
LWPOLYLINE
5
108
100
AcDbEntity
8
0
100
AcDbPolyline
90
4
70
1
43
0.0
10
2.1714285778114308
20
0.049999999999999996
10
2.8714286001514391
20
0.049999999999999996
42
-0.99999999999999989
10
2.8714286001514391
20
-0.049999999999999996
10
2.1714285778114308
20
-0.049999999999999996
42
-0.99999999999999989
0
LWPOLYLINE
5
109
100
AcDbEntity
8
0
100
AcDbPolyline
90
4
70
1
43
0.0
10
3.1571428635257166
20
0.049999999999999996
10
3.8571428858657253
20
0.049999999999999996
42
-0.99999999999999989
10
3.8571428858657253
20
-0.049999999999999996
10
3.1571428635257166
20
-0.049999999999999996
42
-0.99999999999999989
0
LWPOLYLINE
5
110
100
AcDbEntity
8
0
100
AcDbPolyline
90
4
70
1
43
0.0
10
4.1428571492400019
20
0.049999999999999996
10
4.8428571715800102
20
0.049999999999999996
42
-0.99999999999999989
10
4.8428571715800102
20
-0.049999999999999996
10
4.1428571492400019
20
-0.049999999999999996
42
-0.99999999999999989
0
LWPOLYLINE
5
111
100
AcDbEntity
8
0
100
AcDbPolyline
90
4
70
1
43
0.0
10
5.1285714349542868
20
0.049999999999999996
10
5.8285714572942959
20
0.049999999999999996
42
-0.99999999999999989
10
5.8285714572942959
20
-0.049999999999999996
10
5.1285714349542868
20
-0.049999999999999996
42
-0.99999999999999989
0
LWPOLYLINE
5
112
100
AcDbEntity
8
0
100
AcDbPolyline
90
4
70
1
43
0.0
10
6.1142857206685726
20
0.049999999999999996
10
6.8142857430085826
20
0.049999999999999996
42
-0.99999999999999989
10
6.8142857430085826
20
-0.049999999999999996
10
6.1142857206685726
20
-0.049999999999999996
42
-0.99999999999999989
0
LWPOLYLINE
5
113
100
AcDbEntity
8
0
100
AcDbPolyline
90
4
70
1
43
0.0
10
7.1000000063828592
20
0.049999999999999996
10
7.8000000287228675
20
0.049999999999999996
42
-0.99999999999999989
10
7.8000000287228675
20
-0.049999999999999996
10
7.1000000063828592
20
-0.049999999999999996
42
-0.99999999999999989
0
LWPOLYLINE
5
114
100
AcDbEntity
8
0
100
AcDbPolyline
90
4
70
1
43
0.0
10
-0.049999999999999996
20
-0.90000002872286811
10
-0.049999999999999996
20
-0.20000000638285959
42
-0.99999999999999989
10
0.049999999999999996
20
-0.20000000638285959
10
0.049999999999999996
20
-0.90000002872286811
42
-0.99999999999999989
0
LWPOLYLINE
5
115
100
AcDbEntity
8
0
100
AcDbPolyline
90
4
70
1
43
0.0
10
7.9500000000000011
20
-0.90000002872286811
10
7.9500000000000011
20
-0.20000000638285959
42
-0.99999999999999989
10
8.0500000000000007
20
-0.20000000638285959
10
8.0500000000000007
20
-0.90000002872286811
42
-0.99999999999999989
0
LWPOLYLINE
5
116
100
AcDbEntity
8
0
100
AcDbPolyline
90
4
70
1
43
0.0
10
7.9500000000000011
20
-1.8857143144371538
10
7.9500000000000011
20
-1.1857142920971451
42
-0.99999999999999989
10
8.0500000000000007
20
-1.1857142920971451
10
8.0500000000000007
20
-1.8857143144371538
42
-0.99999999999999989
0
LWPOLYLINE
5
117
100
AcDbEntity
8
0
100
AcDbPolyline
90
4
70
1
43
0.0
10
-0.049999999999999996
20
-1.8857143144371538
10
-0.049999999999999996
20
-1.1857142920971451
42
-0.99999999999999989
10
0.049999999999999996
20
-1.1857142920971451
10
0.049999999999999996
20
-1.8857143144371538
42
-0.99999999999999989
0
LWPOLYLINE
5
118
100
AcDbEntity
8
0
100
AcDbPolyline
90
4
70
1
43
0.0
10
-0.049999999999999996
20
-2.8714286001514391
10
-0.049999999999999996
20
-2.1714285778114308
42
-0.99999999999999989
10
0.049999999999999996
20
-2.1714285778114308
10
0.049999999999999996
20
-2.8714286001514391
42
-0.99999999999999989
0
LWPOLYLINE
5
119
100
AcDbEntity
8
0
100
AcDbPolyline
90
4
70
1
43
0.0
10
-0.049999999999999996
20
-3.8571428858657253
10
-0.049999999999999996
20
-3.1571428635257166
42
-0.99999999999999989
10
0.049999999999999996
20
-3.1571428635257166
10
0.049999999999999996
20
-3.8571428858657253
42
-0.99999999999999989
0
LWPOLYLINE
5
120
100
AcDbEntity
8
0
100
AcDbPolyline
90
4
70
1
43
0.0
10
-0.049999999999999996
20
-4.8428571715800102
10
-0.049999999999999996
20
-4.1428571492400019
42
-0.99999999999999989
10
0.049999999999999996
20
-4.1428571492400019
10
0.049999999999999996
20
-4.8428571715800102
42
-0.99999999999999989
0
LWPOLYLINE
5
121
100
AcDbEntity
8
0
100
AcDbPolyline
90
4
70
1
43
0.0
10
-0.049999999999999996
20
-5.8285714572942959
10
-0.049999999999999996
20
-5.1285714349542868
42
-0.99999999999999989
10
0.049999999999999996
20
-5.1285714349542868
10
0.049999999999999996
20
-5.8285714572942959
42
-0.99999999999999989
0
LWPOLYLINE
5
122
100
AcDbEntity
8
0
100
AcDbPolyline
90
4
70
1
43
0.0
10
-0.049999999999999996
20
-6.8142857430085826
10
-0.049999999999999996
20
-6.1142857206685726
42
-0.99999999999999989
10
0.049999999999999996
20
-6.1142857206685726
10
0.049999999999999996
20
-6.8142857430085826
42
-0.99999999999999989
0
LWPOLYLINE
5
123
100
AcDbEntity
8
0
100
AcDbPolyline
90
4
70
1
43
0.0
10
-0.049999999999999996
20
-7.8000000287228675
10
-0.049999999999999996
20
-7.1000000063828592
42
-0.99999999999999989
10
0.049999999999999996
20
-7.1000000063828592
10
0.049999999999999996
20
-7.8000000287228675
42
-0.99999999999999989
0
LINE
5
124
100
AcDbEntity
8
0
100
AcDbLine
10
0
20
-7.9999999999999991
30
0
11
-0.40096762359755528
21
-7.9999999999999991
31
0
0
LINE
5
125
100
AcDbEntity
8
0
100
AcDbLine
10
-0.50096289675885286
20
-7.9009722887418556
30
0
11
-0.52023366614201072
21
-5.9190653041794539
31
0
0
LINE
5
126
100
AcDbEntity
8
0
100
AcDbLine
10
-1.9999999699630135
20
0
30
0
11
-0.52023366614201072
21
-5.9190653041794539
31
0
0
LWPOLYLINE
5
127
100
AcDbEntity
8
0
100
AcDbPolyline
90
6
70
1
43
0.0
10
-0.50000001595714894
20
-0.6000000159571488
10
-0.50000001595714894
20
-3.8000001212743322
10
-0.55142858902702718
20
-3.8000001212743322
10
-1.3678818465134583
20
-0.62490411993821082
42
-0.49000734318298533
10
-1.2710325532537732
20
-0.50000001595714894
10
-0.60000001595714891
20
-0.50000001595714882
42
-0.41421356237309426
0
ARC
5
128
100
AcDbEntity
8
0
100
AcDbCircle
10
-0.40096762359755511
20
-7.8999999999999986
30
0
40
0.10000000000000045
100
AcDbArc
50
180.55708919136168
51
269.99999999999989
0
LINE
5
129
100
AcDbEntity
8
0
100
AcDbLine
10
8.0028117722033176
20
-2.2496385944194359
30
0
11
8.0004887340332562
21
-7.0004889730694924
31
0
0
ARC
5
130
100
AcDbEntity
8
0
100
AcDbCircle
10
7.0004888535805998
20
-7.0000000000000044
30
0
40
0.99999999999999534
100
AcDbArc
50
269.99999999999983
51
359.9719839057081
0
LINE
5
131
100
AcDbEntity
8
0
100
AcDbLine
10
0
20
1.9999999699630135
30
0
11
-0.25000000957428936
21
1.9999999699630135
31
0
0
LINE
5
132
100
AcDbEntity
8
0
100
AcDbLine
10
-0.30000000957428963
20
1.9499999699630135
30
0
11
-0.30000000957428935
21
1.5000000478714468
31
0
0
LINE
5
133
100
AcDbEntity
8
0
100
AcDbLine
10
-0.30000000957428935
20
1.5000000478714468
30
0
11
-0.07322330470336319
21
1.2732233430005206
31
0
0
ARC
5
134
100
AcDbEntity
8
0
100
AcDbCircle
10
-0.24999999999999989
20
1.0964466477038837
30
0
40
0.24999999999999997
100
AcDbArc
50
0
51
45.00000000000005
0
ARC
5
135
100
AcDbEntity
8
0
100
AcDbCircle
10
-0.25000000957428975
20
1.9499999699630135
30
0
40
0.049999999999999906
100
AcDbArc
50
89.999999999999545
51
180
0
LINE
5
136
100
AcDbEntity
8
0
100
AcDbLine
10
7.9999999999999991
20
1.9999999699630135
30
0
11
8.2500002648886728
21
1.9999999699630135
31
0
0
LINE
5
137
100
AcDbEntity
8
0
100
AcDbLine
10
8.3000002648886735
20
1.9499999699630135
30
0
11
8.3000002648886735
21
1.5000000478714468
31
0
0
LINE
5
138
100
AcDbEntity
8
0
100
AcDbLine
10
8.3000002648886735
20
1.5000000478714468
30
0
11
8.0732235379855233
21
1.273223320968297
31
0
0
ARC
5
139
100
AcDbEntity
8
0
100
AcDbCircle
10
8.2500002332821687
20
1.0964466256716556
30
0
40
0.25000000000000888
100
AcDbArc
50
135.00000000000065
51
180
0
ARC
5
140
100
AcDbEntity
8
0
100
AcDbCircle
10
8.2500002648886763
20
1.9499999699630157
30
0
40
0.049999999999998164
100
AcDbArc
50
0
51
90.000000000004079
0
LWPOLYLINE
5
141
100
AcDbEntity
8
0
100
AcDbPolyline
90
4
70
1
43
0.0
10
0.40000001276571917
20
0.50000001595714894
10
0.40000001276571917
20
1.0000000319142979
42
-0.99999999999999989
10
0.6000000191485787
20
1.0000000319142979
10
0.6000000191485787
20
0.50000001595714894
42
-0.99999999999999989
0
ARC
5
142
100
AcDbEntity
8
0
100
AcDbCircle
10
0.50000001595714894
20
1.5000000478714468
30
0
40
0.10000000319142979
100
AcDbArc
50
0
51
180
0
LWPOLYLINE
5
143
100
AcDbEntity
8
0
100
AcDbPolyline
90
4
70
1
43
0.0
10
0.81176471864807209
20
0.50000001595714894
10
0.81176471864807209
20
1.5000000478714468
42
-0.99999999999999989
10
1.0117647250309316
20
1.5000000478714468
10
1.0117647250309316
20
0.50000001595714894
42
-0.99999999999999989
0
LWPOLYLINE
5
144
100
AcDbEntity
8
0
100
AcDbPolyline
90
4
70
1
43
0.0
10
1.2235294245304249
20
0.50000001595714894
10
1.2235294245304249
20
1.5000000478714468
42
-0.99999999999999989
10
1.4235294309132847
20
1.5000000478714468
10
1.4235294309132847
20
0.50000001595714894
42
-0.99999999999999989
0
LWPOLYLINE
5
145
100
AcDbEntity
8
0
100
AcDbPolyline
90
4
70
1
43
0.0
10
1.6352941304127779
20
0.50000001595714894
10
1.6352941304127779
20
1.5000000478714468
42
-0.99999999999999989
10
1.8352941367956375
20
1.5000000478714468
10
1.8352941367956375
20
0.50000001595714894
42
-0.99999999999999989
0
LWPOLYLINE
5
146
100
AcDbEntity
8
0
100
AcDbPolyline
90
4
70
1
43
0.0
10
2.0470588362951307
20
0.50000001595714894
10
2.0470588362951307
20
1.5000000478714468
42
-0.99999999999999989
10
2.2470588426779905
20
1.5000000478714468
10
2.2470588426779905
20
0.50000001595714894
42
-0.99999999999999989
0
LWPOLYLINE
5
147
100
AcDbEntity
8
0
100
AcDbPolyline
90
4
70
1
43
0.0
10
2.4588235421774836
20
0.50000001595714894
10
2.4588235421774836
20
1.5000000478714468
42
-0.99999999999999989
10
2.6588235485603433
20
1.5000000478714468
10
2.6588235485603433
20
0.50000001595714894
42
-0.99999999999999989
0
LWPOLYLINE
5
148
100
AcDbEntity
8
0
100
AcDbPolyline
90
4
70
1
43
0.0
10
2.8705882480598368
20
0.50000001595714894
10
2.8705882480598368
20
1.5000000478714468
42
-0.99999999999999989
10
3.0705882544426961
20
1.5000000478714468
10
3.0705882544426961
20
0.50000001595714894
42
-0.99999999999999989
0
LWPOLYLINE
5
149
100
AcDbEntity
8
0
100
AcDbPolyline
90
4
70
1
43
0.0
10
3.2823529539421892
20
0.50000001595714894
10
3.2823529539421892
20
1.5000000478714468
42
-0.99999999999999989
10
3.4823529603250489
20
1.5000000478714468
10
3.4823529603250489
20
0.50000001595714894
42
-0.99999999999999989
0
LWPOLYLINE
5
150
100
AcDbEntity
8
0
100
AcDbPolyline
90
4
70
1
43
0.0
10
3.6941176598245424
20
0.50000001595714894
10
3.6941176598245424
20
1.5000000478714468
42
-0.99999999999999989
10
3.8941176662074022
20
1.5000000478714468
10
3.8941176662074022
20
0.50000001595714894
42
-0.99999999999999989
0
LWPOLYLINE
5
151
100
AcDbEntity
8
0
100
AcDbPolyline
90
4
70
1
43
0.0
10
4.1058823657068961
20
0.50000001595714894
10
4.1058823657068961
20
1.5000000478714468
42
-0.99999999999999989
10
4.305882372089755
20
1.5000000478714468
10
4.305882372089755
20
0.50000001595714894
42
-0.99999999999999989
0
LWPOLYLINE
5
152
100
AcDbEntity
8
0
100
AcDbPolyline
90
4
70
1
43
0.0
10
4.5176470715892485
20
0.50000001595714894
10
4.5176470715892485
20
1.5000000478714468
42
-0.99999999999999989
10
4.7176470779721082
20
1.5000000478714468
10
4.7176470779721082
20
0.50000001595714894
42
-0.99999999999999989
0
LWPOLYLINE
5
153
100
AcDbEntity
8
0
100
AcDbPolyline
90
4
70
1
43
0.0
10
4.9294117774716009
20
0.50000001595714894
10
4.9294117774716009
20
1.5000000478714468
42
-0.99999999999999989
10
5.1294117838544606
20
1.5000000478714468
10
5.1294117838544606
20
0.50000001595714894
42
-0.99999999999999989
0
LWPOLYLINE
5
154
100
AcDbEntity
8
0
100
AcDbPolyline
90
4
70
1
43
0.0
10
5.3411764833539541
20
0.50000001595714894
10
5.3411764833539541
20
1.5000000478714468
42
-0.99999999999999989
10
5.5411764897368139
20
1.5000000478714468
10
5.5411764897368139
20
0.50000001595714894
42
-0.99999999999999989
0
LWPOLYLINE
5
155
100
AcDbEntity
8
0
100
AcDbPolyline
90
4
70
1
43
0.0
10
5.7529411892363074
20
0.50000001595714894
10
5.7529411892363074
20
1.5000000478714468
42
-0.99999999999999989
10
5.9529411956191671
20
1.5000000478714468
10
5.9529411956191671
20
0.50000001595714894
42
-0.99999999999999989
0
LWPOLYLINE
5
156
100
AcDbEntity
8
0
100
AcDbPolyline
90
4
70
1
43
0.0
10
6.1647058951186597
20
0.50000001595714894
10
6.1647058951186606
20
1.5000000478714468
42
-0.99999999999999989
10
6.3647059015015186
20
1.5000000478714468
10
6.3647059015015186
20
0.50000001595714894
42
-0.99999999999999989
0
LWPOLYLINE
5
157
100
AcDbEntity
8
0
100
AcDbPolyline
90
4
70
1
43
0.0
10
6.5764706010010121
20
0.50000001595714894
10
6.5764706010010121
20
1.5000000478714468
42
-0.99999999999999989
10
6.7764706073838719
20
1.5000000478714468
10
6.7764706073838719
20
0.50000001595714894
42
-0.99999999999999989
0
LWPOLYLINE
5
158
100
AcDbEntity
8
0
100
AcDbPolyline
90
4
70
1
43
0.0
10
6.9882353068833654
20
0.50000001595714894
10
6.9882353068833654
20
1.5000000478714468
42
-0.99999999999999989
10
7.1882353132662251
20
1.5000000478714468
10
7.1882353132662251
20
0.50000001595714894
42
-0.99999999999999989
0
LINE
5
159
100
AcDbEntity
8
0
100
AcDbLine
10
7.4000000127657186
20
1.5000000478714468
30
0
11
7.4000002361658046
21
1.0000000319142979
31
0
0
ARC
5
160
100
AcDbEntity
8
0
100
AcDbCircle
10
7.5000000159571485
20
0.50000001595714894
30
0
40
0.10000000319142979
100
AcDbArc
50
-180
51
0
0
LINE
5
161
100
AcDbEntity
8
0
100
AcDbLine
10
7.6000000191485784
20
0.99978865554709129
30
0
11
7.6000000191485784
21
1.5000000478714468
31
0
0
ARC
5
162
100
AcDbEntity
8
0
100
AcDbCircle
10
7.5000000159571485
20
1.5000000478714468
30
0
40
0.10000000319142979
100
AcDbArc
50
0
51
180
0
CIRCLE
5
163
100
AcDbEntity
8
0
100
AcDbCircle
10
0.50000001595714894
20
1.5000000478714468
30
0
40
0.10000000319142979
0
CIRCLE
5
164
100
AcDbEntity
8
0
100
AcDbCircle
10
7.5000000159571485
20
0.50000001595714894
30
0
40
0.10000000319142979
0
ARC
5
165
100
AcDbEntity
8
0
100
AcDbCircle
10
7.5000002393572345
20
1.0000000319142979
30
0
40
0.10000000319142979
100
AcDbArc
50
-180
51
0.12110982361921141
0
LWPOLYLINE
5
166
100
AcDbEntity
8
0
100
AcDbPolyline
90
4
70
1
43
0.0
10
9.6000003063772592
20
-0.40000001276571917
10
8.3000002648886735
20
-0.40000001276571917
42
-0.99999999999999989
10
8.3000002648886735
20
-0.20000000638285959
10
9.6000003063772592
20
-0.20000000638285959
42
-0.99999999999999989
0
LWPOLYLINE
5
167
100
AcDbEntity
8
0
100
AcDbPolyline
90
4
70
1
43
0.0
10
9.5000003031858302
20
-0.80000002553143834
10
8.3000002648886735
20
-0.80000002553143834
42
-0.99999999999999989
10
8.3000002648886735
20
-0.6000000191485787
10
9.5000003031858302
20
-0.6000000191485787
42
-0.99999999999999989
0
LWPOLYLINE
5
168
100
AcDbEntity
8
0
100
AcDbPolyline
90
4
70
1
43
0.0
10
9.4000002999943995
20
-1.2000000382971574
10
8.3000002648886735
20
-1.2000000382971574
42
-0.99999999999999989
10
8.3000002648886735
20
-1.0000000319142979
10
9.4000002999943995
20
-1.0000000319142979
42
-0.99999999999999989
0
LWPOLYLINE
5
169
100
AcDbEntity
8
0
100
AcDbPolyline
90
4
70
1
43
0.0
10
9.3000002968029705
20
-1.6000000510628767
10
8.3000002648886735
20
-1.6000000510628767
42
-0.99999999999999989
10
8.3000002648886735
20
-1.4000000446800172
10
9.3000002968029705
20
-1.4000000446800172
42
-0.99999999999999989
0
LWPOLYLINE
5
170
100
AcDbEntity
8
0
100
AcDbPolyline
90
4
70
1
43
0.0
10
9.2000002936115415
20
-2.0000000638285957
10
8.3000002648886735
20
-2.0000000638285957
42
-0.99999999999999989
10
8.3000002648886735
20
-1.8000000574457362
10
9.2000002936115415
20
-1.8000000574457362
42
-0.99999999999999989
0
LINE
5
171
100
AcDbEntity
8
0
100
AcDbLine
10
9.4666793305623038
20
-2.0102715183427011
30
0
11
9.9614018507106703
21
0
31
0
0
LINE
5
172
100
AcDbEntity
8
0
100
AcDbLine
10
9.2237399783944678
20
-2.2005296183315557
30
0
11
8.0528362075415263
21
-2.1996750904842473
31
0
0
ARC
5
173
100
AcDbEntity
8
0
100
AcDbCircle
10
9.2239224288316883
20
-1.9505296849078875
30
0
40
0.25000000000000133
100
AcDbArc
50
269.95818543619595
51
346.17440041163115
0
ARC
5
174
100
AcDbEntity
8
0
100
AcDbCircle
10
8.0028362208567927
20
-2.1996386003968031
30
0
40
0.050000000000000204
100
AcDbArc
50
-0.0418145638033358
51
269.9719839057056
0
ENDSEC
0
SECTION
2
OBJECTS
0
DICTIONARY
5
C
100
AcDbDictionary
3
ACAD_GROUP
350
D
3
ACAD_MLINESTYLE
350
17
0
DICTIONARY
5
D
100
AcDbDictionary
0
DICTIONARY
5
1A
330
C
100
AcDbDictionary
0
DICTIONARY
5
17
100
AcDbDictionary
0
ENDSEC
0
EOF
