0
SECTION
2
HEADER
9
$INSUNITS
70
1
9
$ACADVER
1
AC1014
9
$HANDSEED
5
FFFF
0
ENDSEC
0
SECTION
2
TABLES
0
TABLE
2
VPORT
5
8
100
AcDbSymbolTable
0
ENDTAB
0
TABLE
2
LTYPE
5
5
100
AcDbSymbolTable
0
LTYPE
5
14
100
AcDbSymbolTableRecord
100
AcDbLinetypeTableRecord
2
BYBLOCK
70
0
0
LTYPE
5
15
100
AcDbSymbolTableRecord
100
AcDbLinetypeTableRecord
2
BYLAYER
70
0
0
ENDTAB
0
TABLE
2
LAYER
5
2
100
AcDbSymbolTable
70
2
0
LAYER
5
50
100
AcDbSymbolTableRecord
100
AcDbLayerTableRecord
2
0
70
0
6
CONTINUOUS
0
ENDTAB
0
TABLE
2
STYLE
5
3
100
AcDbSymbolTable
70
1
0
STYLE
5
11
100
AcDbSymbolTableRecord
100
AcDbTextStyleTableRecord
2
STANDARD
70
0
0
ENDTAB
0
TABLE
2
VIEW
5
6
100
AcDbSymbolTable
70
0
0
ENDTAB
0
TABLE
2
UCS
5
7
100
AcDbSymbolTable
70
0
0
ENDTAB
0
TABLE
2
APPID
5
9
100
AcDbSymbolTable
70
2
0
APPID
5
12
100
AcDbSymbolTableRecord
100
AcDbRegAppTableRecord
2
ACAD
70
0
0
ENDTAB
0
TABLE
2
DIMSTYLE
5
A
100
AcDbSymbolTable
70
1
0
ENDTAB
0
TABLE
2
BLOCK_RECORD
5
1
100
AcDbSymbolTable
70
1
0
BLOCK_RECORD
5
1F
100
AcDbSymbolTableRecord
100
AcDbBlockTableRecord
2
*MODEL_SPACE
0
BLOCK_RECORD
5
1B
100
AcDbSymbolTableRecord
100
AcDbBlockTableRecord
2
*PAPER_SPACE
0
ENDTAB
0
ENDSEC
0
SECTION
2
BLOCKS
0
BLOCK
5
20
100
AcDbEntity
100
AcDbBlockBegin
2
*MODEL_SPACE
0
ENDBLK
5
21
100
AcDbEntity
100
AcDbBlockEnd
0
BLOCK
5
1C
100
AcDbEntity
100
AcDbBlockBegin
2
*PAPER_SPACE
0
ENDBLK
5
1D
100
AcDbEntity
100
AcDbBlockEnd
0
ENDSEC
0
SECTION
2
ENTITIES
0
LWPOLYLINE
5
100
100
AcDbEntity
8
0
100
AcDbPolyline
90
20
70
1
43
0.0
10
15.449999999999998
20
-7.5399004625133657e-16
10
1.0499999999999998
20
-6.556435184794231e-17
42
0.4142135623730947
10
0.99999999999999989
20
-0.049999999999999906
10
0.99999999999999989
20
-0.99999999999999989
10
0.049999999999999954
20
-1
42
0.41421356237310869
10
-1.0927391974657052e-17
20
-1.0500000000000005
10
-6.4471612650476604e-16
20
-15.449999999999999
42
0.41421356237306034
10
0.049999999999999906
20
-15.5
10
0.99999999999999989
20
-15.5
10
0.99999999999999989
20
-16.449999999999999
42
0.41421356237305917
10
1.0500000000000005
20
-16.5
10
15.449999999999998
20
-16.5
42
0.41421356237302948
10
15.499999999999998
20
-16.449999999999999
10
15.499999999999998
20
-15.5
10
16.449999999999996
20
-15.5
42
0.41421356237302948
10
16.499999999999996
20
-15.449999999999999
10
16.499999999999996
20
-1.0499999999999998
42
0.41421356237306128
10
16.449999999999996
20
-0.99999999999999989
10
15.499999999999998
20
-0.99999999999999989
10
15.499999999999998
20
-0.049999999999999989
42
0.41421356237305218
0
CIRCLE
5
101
100
AcDbEntity
8
0
100
AcDbCircle
10
0.49999999999999994
20
-8.25
30
0
40
0.13000000000000028
0
CIRCLE
5
102
100
AcDbEntity
8
0
100
AcDbCircle
10
15.999999999999998
20
-8.25
30
0
40
0.13000000000000028
0
CIRCLE
5
103
100
AcDbEntity
8
0
100
AcDbCircle
10
8.25
20
-0.49999999999999928
30
0
40
0.13000000000000028
0
CIRCLE
5
104
100
AcDbEntity
8
0
100
AcDbCircle
10
8.2499998723428067
20
-8.2499998798520551
30
0
40
2.9999999549445202
0
LWPOLYLINE
5
105
100
AcDbEntity
8
0
100
AcDbPolyline
90
8
70
1
43
0.0
10
4.6080678397507846
20
-3.2499998798520546
10
11.901198182114259
20
-3.2499998798520546
42
-0.66817863791929621
10
12.077974877410895
20
-3.6767765751486929
10
11.011567597855668
20
-4.7431838547039167
42
-0.36425431444354078
10
10.691191400880355
20
-4.77105119943199
42
0.3154439618174481
10
5.8139544557613698
20
-4.7674458273853073
42
-0.36383571812418714
10
5.4938809712540602
20
-4.7393664019486055
10
4.4312911444541463
20
-3.6767765751486938
42
-0.66817863791929466
0
LWPOLYLINE
5
106
100
AcDbEntity
8
0
100
AcDbPolyline
90
8
70
1
43
0.0
10
3.2499998723428076
20
-11.901198189623505
10
3.2499998723428076
20
-4.5996879691398043
42
-0.66817863791929855
10
3.6767765676394446
20
-4.4229112738431686
10
4.7428183695911876
20
-5.4889530757949112
42
-0.36421427194160488
10
4.7707060186305643
20
-5.8093003326893555
42
0.31581152072305474
10
4.7710511919227416
20
-10.691191408389601
42
-0.36425431444354145
10
4.7431838471946701
20
-11.011567605364917
10
3.6767765676394433
20
-12.077974884920144
42
-0.66817863791929744
0
LWPOLYLINE
5
107
100
AcDbEntity
8
0
100
AcDbPolyline
90
8
70
1
43
0.0
10
11.900311783055063
20
-13.249999879852052
10
4.6080678397507775
20
-13.249999879852057
42
-0.66817863791931076
10
4.4312911444541419
20
-12.823223184555422
10
5.4938809712540602
20
-11.760633357755504
42
-0.36383571812419679
10
5.8139544557613698
20
-11.732553932318806
42
0.31540509209615597
10
10.690699419505506
20
-11.729293733564297
42
-0.36421427194161288
10
11.011046676399951
20
-11.757181382603674
10
12.077088478351698
20
-12.823223184555422
42
-0.66817863791930787
0
LWPOLYLINE
5
108
100
AcDbEntity
8
0
100
AcDbPolyline
90
8
70
1
43
0.0
10
13.249999872342809
20
-4.6080678472600338
10
13.249999872342807
20
-11.891931912444077
42
-0.66817863791929344
10
12.823223177046167
20
-12.068708607740712
10
11.760633350246255
20
-11.006118780940803
42
-0.3638357181241853
10
11.732553924809555
20
-10.686045296433495
42
0.31503761888406323
10
11.732553924809555
20
-5.8139544632706182
42
-0.36383571812418708
10
11.760633350246255
20
-5.4938809787633085
10
12.823223177046163
20
-4.4312911519633991
42
-0.66817863791929177
0
ENDSEC
0
SECTION
2
OBJECTS
0
DICTIONARY
5
C
100
AcDbDictionary
3
ACAD_GROUP
350
D
3
ACAD_MLINESTYLE
350
17
0
DICTIONARY
5
D
100
AcDbDictionary
0
DICTIONARY
5
1A
330
C
100
AcDbDictionary
0
DICTIONARY
5
17
100
AcDbDictionary
0
ENDSEC
0
EOF
