0
SECTION
2
HEADER
9
$INSUNITS
70
1
9
$ACADVER
1
AC1014
9
$HANDSEED
5
FFFF
0
ENDSEC
0
SECTION
2
TABLES
0
TABLE
2
VPORT
5
8
100
AcDbSymbolTable
0
ENDTAB
0
TABLE
2
LTYPE
5
5
100
AcDbSymbolTable
0
LTYPE
5
14
100
AcDbSymbolTableRecord
100
AcDbLinetypeTableRecord
2
BYBLOCK
70
0
0
LTYPE
5
15
100
AcDbSymbolTableRecord
100
AcDbLinetypeTableRecord
2
BYLAYER
70
0
0
ENDTAB
0
TABLE
2
LAYER
5
2
100
AcDbSymbolTable
70
2
0
LAYER
5
50
100
AcDbSymbolTableRecord
100
AcDbLayerTableRecord
2
0
70
0
6
CONTINUOUS
0
ENDTAB
0
TABLE
2
STYLE
5
3
100
AcDbSymbolTable
70
1
0
STYLE
5
11
100
AcDbSymbolTableRecord
100
AcDbTextStyleTableRecord
2
STANDARD
70
0
0
ENDTAB
0
TABLE
2
VIEW
5
6
100
AcDbSymbolTable
70
0
0
ENDTAB
0
TABLE
2
UCS
5
7
100
AcDbSymbolTable
70
0
0
ENDTAB
0
TABLE
2
APPID
5
9
100
AcDbSymbolTable
70
2
0
APPID
5
12
100
AcDbSymbolTableRecord
100
AcDbRegAppTableRecord
2
ACAD
70
0
0
ENDTAB
0
TABLE
2
DIMSTYLE
5
A
100
AcDbSymbolTable
70
1
0
ENDTAB
0
TABLE
2
BLOCK_RECORD
5
1
100
AcDbSymbolTable
70
1
0
BLOCK_RECORD
5
1F
100
AcDbSymbolTableRecord
100
AcDbBlockTableRecord
2
*MODEL_SPACE
0
BLOCK_RECORD
5
1B
100
AcDbSymbolTableRecord
100
AcDbBlockTableRecord
2
*PAPER_SPACE
0
ENDTAB
0
ENDSEC
0
SECTION
2
BLOCKS
0
BLOCK
5
20
100
AcDbEntity
100
AcDbBlockBegin
2
*MODEL_SPACE
0
ENDBLK
5
21
100
AcDbEntity
100
AcDbBlockEnd
0
BLOCK
5
1C
100
AcDbEntity
100
AcDbBlockBegin
2
*PAPER_SPACE
0
ENDBLK
5
1D
100
AcDbEntity
100
AcDbBlockEnd
0
ENDSEC
0
SECTION
2
ENTITIES
0
LINE
5
100
100
AcDbEntity
8
0
100
AcDbLine
10
0.70624996503194182
20
-0.71791666696469014
30
0
11
1.0720833269755046
21
-1.7649999777475995
31
0
0
LINE
5
101
100
AcDbEntity
8
0
100
AcDbLine
10
1.0720833269755046
20
-1.7649999777475995
30
0
11
0.94041666666666679
21
-1.7649999777475995
31
0
0
LWPOLYLINE
5
102
100
AcDbEntity
8
0
100
AcDbPolyline
90
8
70
1
43
0.0
10
0.3074999976158142
20
-1.7649999777475995
10
0.41249999682108562
20
-1.4558333079020183
10
0.77412931894661818
20
-1.4558333079020185
10
0.73992709522929101
20
-1.3449999809265138
10
0.442500007947286
20
-1.3449999809265138
10
0.59720996046667696
20
-0.89943523469946085
10
0.53985518886889272
20
-0.7350272013751179
10
0.17999999999999999
20
-1.7649999777475995
0
LINE
5
103
100
AcDbEntity
8
0
100
AcDbLine
10
0.94041666666666679
20
-1.7649999777475995
30
0
11
0.85023989938012579
21
-1.4994795417950335
31
0
0
LINE
5
104
100
AcDbEntity
8
0
100
AcDbLine
10
0.58623806046564597
20
-0.71791666696469014
30
0
11
0.70624996503194182
21
-0.71791666696469014
31
0
0
LINE
5
105
100
AcDbEntity
8
0
100
AcDbLine
10
0.62708331425984709
20
-0.83500000039736444
30
0
11
0.6195833015441895
21
-0.83500000039736444
31
0
0
LINE
5
106
100
AcDbEntity
8
0
100
AcDbLine
10
0.78393609410629683
20
-1.2846200814754529
30
0
11
0.62708331425984709
21
-0.83500000039736444
31
0
0
LINE
5
107
100
AcDbEntity
8
0
100
AcDbLine
10
0.78393609410629683
20
-1.2846200814754529
30
0
11
0.85023989938012579
21
-1.4994795417950335
31
0
0
LINE
5
108
100
AcDbEntity
8
0
100
AcDbLine
10
0.6422906702191209
20
-0.87859204018196768
30
0
11
0.58623806046564597
21
-0.71791666696469014
31
0
0
LWPOLYLINE
5
109
100
AcDbEntity
8
0
100
AcDbPolyline
90
24
70
1
43
0.0
10
12.499999999999998
20
0
10
0
20
0
10
0
20
-2.4999999999999996
10
0.49865585252186512
20
-2.4999999999999996
42
-0.99999999999999989
10
0.74865585252186506
20
-2.4999999999999996
10
1.7482193566674988
20
-2.4999999999999996
42
-0.99999999999999989
10
1.9982193566674986
20
-2.4999999999999996
10
3.0015449944861268
20
-2.4999999999999996
42
-0.99999999999999989
10
3.2515449944861268
20
-2.4999999999999996
10
4.2509355439599545
20
-2.4999999999999996
42
-0.99999999999999989
10
4.5009355439599554
20
-2.4999999999999996
10
5.4983585492613845
20
-2.4999999999999996
42
-0.99999999999999989
10
5.7483585492613853
20
-2.4999999999999996
10
6.7516841870800119
20
-2.4999999999999996
42
-0.99999999999999989
10
7.0016841870800111
20
-2.4999999999999996
10
8.0030422807262411
20
-2.4999999999999996
42
-0.99999999999999989
10
8.2530422807262411
20
-2.4999999999999996
10
9.250465286027671
20
-2.4999999999999996
42
-0.99999999999999989
10
9.5004652860276693
20
-2.4999999999999996
10
10.501823379673899
20
-2.4999999999999996
42
-0.99999999999999989
10
10.751823379673899
20
-2.4999999999999996
10
11.751213929147729
20
-2.4999999999999996
42
-0.99999999999999989
10
12.001213929147728
20
-2.4999999999999996
10
12.499999999999998
20
-2.4999999999999996
0
LINE
5
110
100
AcDbEntity
8
0
100
AcDbLine
10
1.2499999999999998
20
0
30
0
11
1.2499999999999996
21
-2.4999999999999996
31
0
0
LINE
5
111
100
AcDbEntity
8
0
100
AcDbLine
10
2.4999999999999996
20
0
30
0
11
2.4999999999999996
21
-2.4999999999999996
31
0
0
LINE
5
112
100
AcDbEntity
8
0
100
AcDbLine
10
3.7499999999999991
20
0
30
0
11
3.7499999999999991
21
-2.5000000797857447
31
0
0
LINE
5
113
100
AcDbEntity
8
0
100
AcDbLine
10
4.9999999999999991
20
0
30
0
11
4.9999999999999991
21
-2.4999999999999996
31
0
0
LINE
5
114
100
AcDbEntity
8
0
100
AcDbLine
10
6.2499999999999991
20
0
30
0
11
6.2499999999999991
21
-2.4999999999999996
31
0
0
LINE
5
115
100
AcDbEntity
8
0
100
AcDbLine
10
7.5000000000000009
20
0
30
0
11
7.5
21
-2.4999999999999996
31
0
0
LINE
5
116
100
AcDbEntity
8
0
100
AcDbLine
10
8.75
20
0
30
0
11
8.75
21
-2.4999999999999996
31
0
0
LINE
5
117
100
AcDbEntity
8
0
100
AcDbLine
10
10.000000319142979
20
0
30
0
11
10.000000319142979
21
-2.4999999999999996
31
0
0
LINE
5
118
100
AcDbEntity
8
0
100
AcDbLine
10
11.250000319142979
20
0
30
0
11
11.250000319142979
21
-2.4999999999999996
31
0
0
LINE
5
119
100
AcDbEntity
8
0
100
AcDbLine
10
5.0000000000000009
20
-2.6000000000000001
30
0
11
5.0000000000000009
21
-5.0999999999999996
31
0
0
LINE
5
120
100
AcDbEntity
8
0
100
AcDbLine
10
11.250000319142984
20
-2.6000000000000001
30
0
11
11.250000319142984
21
-5.0999999999999996
31
0
0
LINE
5
121
100
AcDbEntity
8
0
100
AcDbLine
10
10.000000319142982
20
-2.6000000000000001
30
0
11
10.000000319142982
21
-5.0999999999999996
31
0
0
LINE
5
122
100
AcDbEntity
8
0
100
AcDbLine
10
7.5000000000000036
20
-2.6000000000000001
30
0
11
7.5000000000000036
21
-5.0999999999999996
31
0
0
LINE
5
123
100
AcDbEntity
8
0
100
AcDbLine
10
8.7500000000000018
20
-2.6000000000000001
30
0
11
8.7500000000000018
21
-5.0999999999999996
31
0
0
LINE
5
124
100
AcDbEntity
8
0
100
AcDbLine
10
6.2500000000000027
20
-2.6000000000000001
30
0
11
6.2500000000000027
21
-5.0999999999999996
31
0
0
LWPOLYLINE
5
125
100
AcDbEntity
8
0
100
AcDbPolyline
90
24
70
1
43
0.0
10
2.7974123455122052e-15
20
-2.6000000000000001
10
2.7974123455122052e-15
20
-5.0999999999999996
10
0.50381116408265758
20
-5.0999999999999996
42
-0.99999999999999989
10
0.75381116408265747
20
-5.0999999999999996
10
1.7544498354996374
20
-5.0999999999999996
42
-0.99999999999999989
10
2.0044498354996372
20
-5.0999999999999996
10
2.9995547074855682
20
-5.0999999999999996
42
-0.99999999999999989
10
3.2495547074855691
20
-5.0999999999999996
10
4.2474264791870251
20
-5.0999999999999996
42
-0.99999999999999989
10
4.4974264791870251
20
-5.0999999999999996
10
5.5008320503195316
20
-5.0999999999999996
42
-0.99999999999999989
10
5.7508320503195325
20
-5.0999999999999996
10
6.7487038220209863
20
-5.0999999999999996
42
-0.99999999999999989
10
6.9987038220209881
20
-5.0999999999999996
10
8.0021093931534892
20
-5.0999999999999996
42
-0.99999999999999989
10
8.2521093931534892
20
-5.0999999999999996
10
9.2499811648549439
20
-5.0999999999999996
42
-0.99999999999999989
10
9.4999811648549439
20
-5.0999999999999996
10
10.500619836271925
20
-5.0999999999999996
42
-0.99999999999999989
10
10.750619836271925
20
-5.0999999999999996
10
11.745724708257857
20
-5.0999999999999996
42
-0.99999999999999989
10
11.995724708257855
20
-5.0999999999999996
10
12.499999999999998
20
-5.0999999999999996
10
12.499999999999998
20
-2.6000000000000001
0
LINE
5
126
100
AcDbEntity
8
0
100
AcDbLine
10
3.7500000000000018
20
-2.6000000000000001
30
0
11
3.7500000000000018
21
-5.1000000797857448
31
0
0
LINE
5
127
100
AcDbEntity
8
0
100
AcDbLine
10
1.2500000000000016
20
-2.6000000000000001
30
0
11
1.2500000000000016
21
-5.0999999999999996
31
0
0
LINE
5
128
100
AcDbEntity
8
0
100
AcDbLine
10
2.5000000000000031
20
-2.6000000000000001
30
0
11
2.5000000000000031
21
-5.0999999999999996
31
0
0
LWPOLYLINE
5
129
100
AcDbEntity
8
0
100
AcDbPolyline
90
34
70
1
43
0.0
10
2.0900000254313156
20
-0.97458333969116195
10
2.0900000254313156
20
-1.0254166841506955
42
-0.22130055627785433
10
2.0483333587646491
20
-1.1333333571751911
42
-0.18762150384172291
10
1.9312499682108564
20
-1.1708333412806191
10
1.7014266536931408
20
-1.1708333412806191
10
1.7014266536931408
20
-1.2783333778381347
10
1.9529166539510094
20
-1.2783333778381345
42
-0.1871946433688613
10
2.0804167111714693
20
-1.3200000445048012
42
-0.22222657209011276
10
2.1270833333333345
20
-1.4408333619435625
10
2.1270833333333345
20
-1.4916666666666665
42
-0.22206534708769476
10
2.0795833587646486
20
-1.612083307902018
42
-0.18764697643736639
10
1.9520833015441905
20
-1.6537499745686846
10
1.7014266536931408
20
-1.6537499745686846
10
1.7014266536931408
20
-1.7649999777475991
10
1.992083263397217
20
-1.7649999777475991
42
0.11179018214240714
10
2.099999936421713
20
-1.7416666666666667
42
0.10257638803626702
10
2.1854167302449552
20
-1.6779166380564368
42
0.095021380947505882
10
2.2416666666666676
20
-1.5820833365122473
42
0.088412574919558187
10
2.26333335240682
20
-1.4620833714803059
42
0.11150549136703189
10
2.241666666666668
20
-1.351666680971781
42
0.096370932783179153
10
2.1870829582214366
20
-1.2762499968210859
42
0.095194655524363028
10
2.1204163551330568
20
-1.2345833301544187
42
0.077975234335343951
10
2.0566664059956881
20
-1.2195833444595334
10
2.0566664059956876
20
-1.2104166666666665
42
0.056665263724417832
10
2.1120831489562994
20
-1.1933333396911614
42
0.10055742827074937
10
2.1674998919169113
20
-1.1541666905085251
42
0.09519473862116036
10
2.2091665585835774
20
-1.0875000079472854
42
0.096507820908273548
10
2.2258332888285319
20
-0.98833333651224764
42
0.20747756745958504
10
2.1516666730244958
20
-0.79166666865348834
42
0.2034151792903949
10
1.9470833460489918
20
-0.71791666696468981
10
1.7003476306603293
20
-0.71791666696468981
10
1.7003476306603293
20
-0.82916666269302353
10
1.9312499682108564
20
-0.82916666269302353
42
-0.18762151376510475
10
2.0483333587646491
20
-0.86666666666666659
42
-0.22056123967885563
0
LINE
5
130
100
AcDbEntity
8
0
100
AcDbLine
10
1.6417410569665456
20
-1.6202450780860462
30
0
11
1.6417410569665456
21
-1.7649999777475991
31
0
0
LINE
5
131
100
AcDbEntity
8
0
100
AcDbLine
10
1.5166666825612396
20
-1.7649999777475991
30
0
11
1.5166666825612396
21
-0.71791666696468981
31
0
0
LINE
5
132
100
AcDbEntity
8
0
100
AcDbLine
10
1.6425000349680583
20
-0.82916666269302353
30
0
11
1.6416666825612392
21
-1.1708333412806191
31
0
0
LINE
5
133
100
AcDbEntity
8
0
100
AcDbLine
10
1.6425000349680583
20
-1.2783333778381347
30
0
11
1.6416666825612392
21
-1.6537499745686846
31
0
0
LINE
5
134
100
AcDbEntity
8
0
100
AcDbLine
10
1.6416666825612392
20
-1.6537499745686846
30
0
11
1.6417410569665456
21
-1.6537499745686846
31
0
0
LINE
5
135
100
AcDbEntity
8
0
100
AcDbLine
10
1.6416666825612392
20
-1.1708333412806191
30
0
11
1.6421549708094647
21
-1.1708333412806191
31
0
0
LINE
5
136
100
AcDbEntity
8
0
100
AcDbLine
10
1.6420833587646488
20
-1.1454266509452544
30
0
11
1.6425000349680583
21
-1.2932560181604966
31
0
0
LINE
5
137
100
AcDbEntity
8
0
100
AcDbLine
10
1.6417410569665456
20
-1.7649999777475991
30
0
11
1.5166666825612396
21
-1.7649999777475991
31
0
0
LINE
5
138
100
AcDbEntity
8
0
100
AcDbLine
10
1.5166666825612396
20
-0.71791666696468981
30
0
11
1.6425000349680583
21
-0.71791666696468981
31
0
0
LINE
5
139
100
AcDbEntity
8
0
100
AcDbLine
10
1.6425000349680583
20
-0.71791666696468981
30
0
11
1.6425000349680583
21
-0.82916666269302353
31
0
0
ARC
5
140
100
AcDbEntity
8
0
100
AcDbCircle
10
3.1645020849830217
20
-1.0715489654641484
30
0
40
0.26083334287007676
100
AcDbArc
50
54.198678880245559
51
91.721420822314656
0
ARC
5
141
100
AcDbEntity
8
0
100
AcDbCircle
10
3.1705290392320169
20
-1.0914212563899535
30
0
40
0.39166665077209456
100
AcDbArc
50
58.028288640268116
51
92.028309939976964
0
ARC
5
142
100
AcDbEntity
8
0
100
AcDbCircle
10
3.139624073873561
20
-1.0914683999451484
30
0
40
0.2916666666666673
100
AcDbArc
50
20.445744555702618
51
52.523782171756686
0
ARC
5
143
100
AcDbEntity
8
0
100
AcDbCircle
10
3.151499072074762
20
-1.0862015255375885
30
0
40
0.27541667222976707
100
AcDbArc
50
88.924906277595099
51
114.83247857430428
0
ARC
5
144
100
AcDbEntity
8
0
100
AcDbCircle
10
3.3820478058334094
20
-1.1618686426135796
30
0
40
0.51374999682108524
100
AcDbArc
50
164.1148316628545
51
180.67451711220312
0
ARC
5
145
100
AcDbEntity
8
0
100
AcDbCircle
10
3.1371412249161668
20
-1.0715706844349557
30
0
40
0.37208334604899151
100
AcDbArc
50
86.991965646592845
51
141.83828803482527
0
ARC
5
146
100
AcDbEntity
8
0
100
AcDbCircle
10
3.1600467907231078
20
-1.0816312235761649
30
0
40
0.38916667302449565
100
AcDbArc
50
23.599258699132989
51
55.955468635003733
0
ARC
5
147
100
AcDbEntity
8
0
100
AcDbCircle
10
3.1414003013804899
20
-1.4150362830844676
30
0
40
0.25749999284744279
100
AcDbArc
50
219.71861731082205
51
273.39887981878655
0
SPLINE
5
148
100
AcDbEntity
8
0
100
AcDbSpline
70
1064
71
2
72
6
73
3
74
0
42
0.000000001
43
0.0000000001
44
0.0000000001
40
0
40
0
40
0
40
1
40
1
40
1
10
2.846249968210854
20
-1.6474999904632572
30
0
10
2.73541664123535
20
-1.5116666475931808
30
0
10
2.73541664123535
20
-1.2479166507720951
30
0
0
SPLINE
5
149
100
AcDbEntity
8
0
100
AcDbSpline
70
1064
71
2
72
6
73
3
74
0
42
0.000000001
43
0.0000000001
44
0.0000000001
40
0
40
0
40
0
40
1
40
1
40
1
10
2.73541664123535
20
-1.2479166507720951
30
0
10
2.73541664123535
20
-0.98416665395100955
30
0
10
2.8445832633972143
20
-0.84166667064030998
30
0
0
ARC
5
150
100
AcDbEntity
8
0
100
AcDbCircle
10
3.164863834381149
20
-1.4038752290486709
30
0
40
0.26833333571751966
100
AcDbArc
50
268.24943035004475
51
306.19743605011683
0
ARC
5
151
100
AcDbEntity
8
0
100
AcDbCircle
10
3.1372561842948734
20
-1.4050810359309918
30
0
40
0.37875000635782896
100
AcDbArc
50
219.79555052678646
51
272.93762667533571
0
LINE
5
152
100
AcDbEntity
8
0
100
AcDbLine
10
2.8683334096272763
20
-1.1679166475931808
30
0
11
2.8683334096272763
21
-1.3250000000000006
31
0
0
ARC
5
153
100
AcDbEntity
8
0
100
AcDbCircle
10
3.2588901176824208
20
-1.3482815696825128
30
0
40
0.39125001430511475
100
AcDbArc
50
176.58856455601051
51
216.24126246883296
0
LINE
5
154
100
AcDbEntity
8
0
100
AcDbLine
10
3.51666664123535
20
-0.92583333651224797
30
0
11
3.4129167302449526
21
-0.98958332538604776
31
0
0
LINE
5
155
100
AcDbEntity
8
0
100
AcDbLine
10
3.42249988555908
20
-1.4833333015441901
30
0
11
3.5229167048136372
21
-1.5462499777476
31
0
0
ARC
5
156
100
AcDbEntity
8
0
100
AcDbCircle
10
3.2158475582056436
20
-1.1141412474123233
30
0
40
0.34083334604899074
100
AcDbArc
50
142.85477317676509
51
164.18444043341185
0
ARC
5
157
100
AcDbEntity
8
0
100
AcDbCircle
10
3.1402726916090655
20
-1.0633896196214327
30
0
40
0.25000000000000011
100
AcDbArc
50
114.69310165297827
51
141.66742237019082
0
ARC
5
158
100
AcDbEntity
8
0
100
AcDbCircle
10
3.1672946889067353
20
-1.3918109068105424
30
0
40
0.391666650772095
100
AcDbArc
50
268.44506655698643
51
302.96601857979891
0
ARC
5
159
100
AcDbEntity
8
0
100
AcDbCircle
10
3.1525682909335795
20
-1.3886165510308219
30
0
40
0.40249999364217198
100
AcDbArc
50
304.47754550315273
51
336.94367494059458
0
ARC
5
160
100
AcDbEntity
8
0
100
AcDbCircle
10
3.1407690316548522
20
-1.3839386821838033
30
0
40
0.2987500031789147
100
AcDbArc
50
307.66864045269426
51
340.56716299823182
0
LWPOLYLINE
5
161
100
AcDbEntity
8
0
100
AcDbPolyline
90
23
70
1
43
0.0
10
4.6612499745686833
20
-1.6337499936421715
42
0.1046099378231867
10
4.7474999618530251
20
-1.470416657129924
42
0.073795933994696722
10
4.7775000127156559
20
-1.2416666666666676
42
0.07388992665860257
10
4.747499961853026
20
-1.0125000000000004
42
0.10460993782318626
10
4.6612499745686833
20
-0.84916666348775383
42
0.11878229911176828
10
4.5254165522257468
20
-0.75083333452542678
42
0.09921249681194437
10
4.3483332188924146
20
-0.71791666696469081
10
4.1729165903727194
20
-0.71791666696469081
10
4.172821250084489
20
-0.82916667262713195
10
4.3504166793823238
20
-0.82916667262713195
42
-0.096493115606675117
10
4.4687498601277662
20
-0.85083333849907006
42
-0.11129699456793347
10
4.5616666666666665
20
-0.91458333730697705
42
-0.099924892864648854
10
4.620833574930824
20
-1.0154166539510099
42
-0.086088593366754049
10
4.6425001017252594
20
-1.1541666507720956
10
4.6425001017252594
20
-1.3250000000000008
42
-0.086961355406998717
10
4.6224999618530269
20
-1.4654167016347259
42
-0.10222912493934477
10
4.5616666666666665
20
-1.568333339691163
42
-0.11346874627902866
10
4.4666663996378571
20
-1.6324999650319425
42
-0.096493118530833907
10
4.3483332188924146
20
-1.6541666507720956
10
4.172821250084489
20
-1.6541666507720956
10
4.1729165903727194
20
-1.7650000572204596
10
4.3483332188924146
20
-1.7650000572204594
42
0.099212500636532891
10
4.5254165522257468
20
-1.7320833524068218
42
0.11878231184506134
0
LINE
5
162
100
AcDbEntity
8
0
100
AcDbLine
10
4.125416615804034
20
-0.82916667262713195
30
0
11
4.125416615804034
21
-1.6541666507720956
31
0
0
LINE
5
163
100
AcDbEntity
8
0
100
AcDbLine
10
3.9974999618530251
20
-1.7650000572204596
30
0
11
3.9974999618530251
21
-0.71791666696469081
31
0
0
LINE
5
164
100
AcDbEntity
8
0
100
AcDbLine
10
3.9974999618530251
20
-0.71791666696469081
30
0
11
4.125416615804034
21
-0.71791666696469081
31
0
0
LINE
5
165
100
AcDbEntity
8
0
100
AcDbLine
10
4.125416615804034
20
-1.7650000572204596
30
0
11
3.9974999618530251
21
-1.7650000572204596
31
0
0
LINE
5
166
100
AcDbEntity
8
0
100
AcDbLine
10
4.125416615804034
20
-1.6541666507720956
30
0
11
4.125416615804034
21
-1.7650000572204596
31
0
0
LINE
5
167
100
AcDbEntity
8
0
100
AcDbLine
10
4.125416615804034
20
-0.89888668437397234
30
0
11
4.125416615804034
21
-0.71791666696469081
31
0
0
LWPOLYLINE
5
168
100
AcDbEntity
8
0
100
AcDbPolyline
90
12
70
1
43
0.0
10
5.4299999745686858
20
-1.2670833190282189
10
5.9129164886474621
20
-1.2670833190282187
10
5.9129164886474621
20
-1.1562499920527143
10
5.4299999745686858
20
-1.1562499920527143
10
5.4299999745686858
20
-0.82916666269302386
10
5.9450000000000012
20
-0.82916666269302386
10
5.9450000000000012
20
-0.71791666696469014
10
5.3037497075398772
20
-0.71791666696469014
10
5.3037497075398772
20
-1.7649999777475995
10
5.9450000000000012
20
-1.7649999777475995
10
5.9450000000000012
20
-1.6541666507720949
10
5.4299999745686858
20
-1.6541666507720949
0
LWPOLYLINE
5
169
100
AcDbEntity
8
0
100
AcDbPolyline
90
10
70
1
43
0.0
10
6.5683332697550458
20
-1.7649999777476
10
6.6945832188924141
20
-1.7649999777476
10
6.6945832188924159
20
-1.2758333206176762
10
7.147917073567708
20
-1.2758333206176762
10
7.147917073567708
20
-1.1649999936421718
10
6.6933335876464852
20
-1.1649999936421718
10
6.6933335876464852
20
-0.82916666269302419
10
7.1933335876464835
20
-0.82916666269302419
10
7.1933335876464835
20
-0.71791666696469048
10
6.5683332697550458
20
-0.71791666696469048
0
LWPOLYLINE
5
170
100
AcDbEntity
8
0
100
AcDbPolyline
90
36
70
1
43
0.0
10
8.525416768391926
20
-0.92874999046325679
42
0.1361244248403998
10
8.3799998728434257
20
-0.76208333373069737
42
0.14825188313015339
10
8.1445834604899083
20
-0.70000000000000062
42
0.10386213890529071
10
7.9620838928222657
20
-0.73583331902821891
42
0.11449486293530456
10
7.8212503560384086
20
-0.83999998569488521
42
0.10265012335427265
10
7.7312502034505188
20
-1.0095833261807761
42
0.075409040689864065
10
7.6995837656656896
20
-1.2412499904632579
42
0.077049433590955146
10
7.7316672770182286
20
-1.4745833396911625
42
0.097605586073187922
10
7.8208339182535793
20
-1.6441666603088383
42
0.11732353345300606
10
7.9579169718424465
20
-1.7474999745686854
42
0.10475256295584817
10
8.1341667938232423
20
-1.7829166571299246
42
0.14363079155241917
10
8.3300000000000001
20
-1.7345833301544202
42
0.19162876223385047
10
8.4249999491373693
20
-1.6133333365122482
10
8.4295833079020177
20
-1.6133333365122482
10
8.4295833079020177
20
-1.7649999777476
10
8.54666653951009
20
-1.7649999777476
10
8.54666653951009
20
-1.2266666809717819
10
8.192499872843424
20
-1.2266666809717819
10
8.1924998728434222
20
-1.3375000079472865
10
8.4233335622151682
20
-1.3375000079472865
10
8.4233335622151682
20
-1.4433333396911625
42
-0.11448960731058239
10
8.402500228881836
20
-1.5450000286102301
42
-0.11575825554708934
10
8.3445835876464844
20
-1.6166666666666674
42
-0.094468684544467468
10
8.2591667938232423
20
-1.6583333333333339
42
-0.071117847643313942
10
8.1575000254313146
20
-1.6712499777475998
42
-0.099029989490900083
10
8.0224997965494786
20
-1.646249961853028
42
-0.1116041248764252
10
7.921250101725259
20
-1.5762499491373705
42
-0.10177452432659689
10
7.8575001525878898
20
-1.467083326975505
42
-0.08506539142706239
10
7.8350004323323548
20
-1.3250000000000006
10
7.8350004323323548
20
-1.1566666285196945
42
-0.086100674767608951
10
7.8575001525878898
20
-1.0149999777475998
42
-0.10077399498878127
10
7.921250101725259
20
-0.90666664838790945
42
-0.10661661729235074
10
8.0195834604899083
20
-0.83666665554046671
42
-0.10320420248519553
10
8.1445834604899083
20
-0.81166665951410966
42
-0.15198373326685563
10
8.3149999745686838
20
-0.85958333015441946
42
-0.14700647120807528
10
8.422083613077799
20
-0.99166666666666725
0
LWPOLYLINE
5
171
100
AcDbEntity
8
0
100
AcDbPolyline
90
12
70
1
43
0.0
10
9.6395837656656909
20
-0.71791666696469048
10
9.6395837656656891
20
-1.1558333158493046
10
9.1100001525878902
20
-1.1558333158493046
10
9.1100001525878902
20
-0.71791666696469048
10
8.9850001525878902
20
-0.71791666696469048
10
8.9850001525878902
20
-1.7670833587646486
10
9.1100001525878902
20
-1.7670833587646491
10
9.1100001525878902
20
-1.2670833190282191
10
9.6395831298828121
20
-1.2670833190282191
10
9.6395837656656909
20
-1.7649999777476
10
9.7645837656656909
20
-1.7649999777475995
10
9.7645837656656909
20
-0.71791666696469048
0
LWPOLYLINE
5
172
100
AcDbEntity
8
0
100
AcDbPolyline
90
15
70
1
43
0.0
10
10.585208060741424
20
-0.88562499284744456
10
10.589791379769641
20
-0.88562499284744456
10
10.580624741713205
20
-1.0297919392585775
10
10.580624741713205
20
-1.768958199024202
10
10.682708067099252
20
-1.768958199024202
10
10.682708067099252
20
-1.0293748656908701
10
10.673541389306385
20
-0.8839579701423671
10
10.678124708334604
20
-0.8839579701423671
10
10.741041384538013
20
-0.9589580972989411
10
10.870208047231039
20
-1.0893749674161308
10
10.9422913813591
20
-1.0160418629646326
10
10.631458046436309
20
-0.70562532345454099
10
10.321041427453359
20
-1.0177088856697101
10
10.393124741713205
20
-1.0910419901212067
10
10.522291384538013
20
-0.96062512000401989
0
ARC
5
173
100
AcDbEntity
8
0
100
AcDbCircle
10
11.896993918628434
20
-1.2966024619235863
30
0
40
0.33749999999999925
100
AcDbArc
50
291.14678052581547
51
313.07694916087968
0
ARC
5
174
100
AcDbEntity
8
0
100
AcDbCircle
10
11.867291531616001
20
-1.3375221501744623
30
0
40
0.45937499999999981
100
AcDbArc
50
20.836015914598327
51
36.329580549033039
0
SPLINE
5
175
100
AcDbEntity
8
0
100
AcDbSpline
70
1064
71
2
72
6
73
3
74
0
42
0.000000001
43
0.0000000001
44
0.0000000001
40
0
40
0
40
0
40
1
40
1
40
1
10
12.073499565124516
20
-0.90937499999999993
30
0
10
12.113999633789064
20
-0.94162500500679058
30
0
10
12.157874565124514
20
-0.97949999570846547
30
0
0
ARC
5
176
100
AcDbEntity
8
0
100
AcDbCircle
10
11.917888780610291
20
-1.3166172234486622
30
0
40
0.30825001001357888
100
AcDbArc
50
-23.823353492220704
51
0.55618162715485731
0
ARC
5
177
100
AcDbEntity
8
0
100
AcDbCircle
10
11.883591471205632
20
-1.251385525853604
30
0
40
0.47362500429153509
100
AcDbArc
50
248.85613598259619
51
270.38206592148708
0
ARC
5
178
100
AcDbEntity
8
0
100
AcDbCircle
10
11.914775343025278
20
-1.3259457419338767
30
0
40
0.47887501716613712
100
AcDbArc
50
133.85393296393849
51
148.15074023761096
0
ARC
5
179
100
AcDbEntity
8
0
100
AcDbCircle
10
11.84997706042402
20
-1.3093398369287965
30
0
40
0.40874998569488319
100
AcDbArc
50
179.39165587820281
51
203.7174506608481
0
ARC
5
180
100
AcDbEntity
8
0
100
AcDbCircle
10
11.875185462746911
20
-1.3070716887621163
30
0
40
0.35099998712539693
100
AcDbArc
50
-1.0698016602676679
51
17.055347517388345
0
ARC
5
181
100
AcDbEntity
8
0
100
AcDbCircle
10
11.805078560999299
20
-1.3858416136780751
30
0
40
0.53812501430511572
100
AcDbArc
50
36.550030136012239
51
49.034663683847704
0
ARC
5
182
100
AcDbEntity
8
0
100
AcDbCircle
10
11.865334284239491
20
-1.308322230531602
30
0
40
0.33300000429153476
100
AcDbArc
50
179.10573134732562
51
203.5740085954821
0
ARC
5
183
100
AcDbEntity
8
0
100
AcDbCircle
10
11.881919727398637
20
-1.2431334470022204
30
0
40
0.39337499141693144
100
AcDbArc
50
250.03835603121914
51
270.37579739947984
0
ARC
5
184
100
AcDbEntity
8
0
100
AcDbCircle
10
11.906752576113556
20
-1.3029682749053595
30
0
40
0.41699999570846319
100
AcDbArc
50
313.51484959020843
51
335.59740712282343
0
ARC
5
185
100
AcDbEntity
8
0
100
AcDbCircle
10
11.873778155764276
20
-1.2908202177904322
30
0
40
0.3416249871253989
100
AcDbArc
50
148.33824231233285
51
182.0641482394735
0
ARC
5
186
100
AcDbEntity
8
0
100
AcDbCircle
10
11.929952447224931
20
-1.3080812341647285
30
0
40
0.39037499427795436
100
AcDbArc
50
-1.1439714237347482
51
20.068761175408312
0
ARC
5
187
100
AcDbEntity
8
0
100
AcDbCircle
10
11.88715813207572
20
-1.3099948976065443
30
0
40
0.44700000286102165
100
AcDbArc
50
148.01949188767045
51
163.36091138125732
0
ARC
5
188
100
AcDbEntity
8
0
100
AcDbCircle
10
11.863118779644232
20
-1.3026880577721576
30
0
40
0.42187499999999828
100
AcDbArc
50
163.37685645861495
51
180.3139876880706
0
ARC
5
189
100
AcDbEntity
8
0
100
AcDbCircle
10
11.939633947070767
20
-1.3185355637260578
30
0
40
0.38062498569488784
100
AcDbArc
50
-24.31351031173492
51
0.40050454120188855
0
ARC
5
190
100
AcDbEntity
8
0
100
AcDbCircle
10
11.875007450237492
20
-1.2697795783113788
30
0
40
0.45337500572204559
100
AcDbArc
50
227.89097491823131
51
249.02942174871677
0
ARC
5
191
100
AcDbEntity
8
0
100
AcDbCircle
10
11.972553153308715
20
-1.3775760434463991
30
0
40
0.47174999713897497
100
AcDbArc
50
121.4201683490771
51
145.66579324286153
0
ARC
5
192
100
AcDbEntity
8
0
100
AcDbCircle
10
11.963243175454908
20
-1.379738635932372
30
0
40
0.55124999284744358
100
AcDbArc
50
121.130881066047
51
133.61296733752161
0
ARC
5
193
100
AcDbEntity
8
0
100
AcDbCircle
10
11.837301576819788
20
-1.3140532219884773
30
0
40
0.39524999856948934
100
AcDbArc
50
203.83097307041595
51
227.64243317759954
0
ARC
5
194
100
AcDbEntity
8
0
100
AcDbCircle
10
11.901601226299025
20
-1.304792003416561
30
0
40
0.32512500286102353
100
AcDbArc
50
18.036660791302801
51
35.093194487938483
0
ARC
5
195
100
AcDbEntity
8
0
100
AcDbCircle
10
11.84076192639389
20
-1.3195207687777175
30
0
40
0.30599999427795443
100
AcDbArc
50
203.49224941098535
51
227.77715094415376
0
ARC
5
196
100
AcDbEntity
8
0
100
AcDbCircle
10
11.898840921717618
20
-1.294449906792525
30
0
40
0.42862501144409154
100
AcDbArc
50
291.5456040132043
51
313.49777157282278
0
ARC
5
197
100
AcDbEntity
8
0
100
AcDbCircle
10
11.88987509075999
20
-1.2750108533631033
30
0
40
0.45000000000000095
100
AcDbArc
50
269.60206291654964
51
291.69845891288412
0
LINE
5
198
100
AcDbEntity
8
0
100
AcDbLine
10
12.007499771118166
20
-0.85125000178813981
30
0
11
12.007499771118166
21
-0.85537499785423299
31
0
0
LINE
5
199
100
AcDbEntity
8
0
100
AcDbLine
10
11.948249702453616
20
-0.91237503290176392
30
0
11
11.944124679565432
21
-0.91237503290176392
31
0
0
LINE
5
200
100
AcDbEntity
8
0
100
AcDbLine
10
12.255000000000004
20
-0.85800000429153511
30
0
11
12.101249771118168
21
-0.85800000429153445
31
0
0
LINE
5
201
100
AcDbEntity
8
0
100
AcDbLine
10
11.944124679565432
20
-0.91237503290176392
30
0
11
11.950874404907228
21
-1.0027500271797183
31
0
0
LINE
5
202
100
AcDbEntity
8
0
100
AcDbLine
10
11.858999519348147
20
-1.1625000000000001
30
0
11
11.858999519348147
21
-0.75000000000000022
31
0
0
LINE
5
203
100
AcDbEntity
8
0
100
AcDbLine
10
11.858999519348147
20
-0.75000000000000022
30
0
11
12.255000000000004
21
-0.76612500026822106
31
0
0
LINE
5
204
100
AcDbEntity
8
0
100
AcDbLine
10
11.950874404907228
20
-1.1625000000000001
30
0
11
11.858999519348147
21
-1.1625000000000001
31
0
0
LINE
5
205
100
AcDbEntity
8
0
100
AcDbLine
10
12.018374519348145
20
-0.97050002217292808
30
0
11
11.948249702453616
21
-0.91237503290176392
31
0
0
LINE
5
206
100
AcDbEntity
8
0
100
AcDbLine
10
12.255000000000004
20
-0.76612500026822106
30
0
11
12.255000000000004
21
-0.85800000429153511
31
0
0
LINE
5
207
100
AcDbEntity
8
0
100
AcDbLine
10
12.101249771118168
20
-0.85800000429153445
30
0
11
12.007499771118166
21
-0.85125000178813981
31
0
0
SPLINE
5
208
100
AcDbEntity
8
0
100
AcDbSpline
70
1064
71
2
72
6
73
3
74
0
42
0.000000001
43
0.0000000001
44
0.0000000001
40
0
40
0
40
0
40
1
40
1
40
1
10
12.101999359130861
20
-1.0428750157356264
30
0
10
12.06449935913086
20
-1.0083750128746038
30
0
10
12.018374519348145
20
-0.97050002217292808
30
0
0
ARC
5
209
100
AcDbEntity
8
0
100
AcDbCircle
10
11.88667306749231
20
-1.2768815380372596
30
0
40
0.35962500572204564
100
AcDbArc
50
269.65375365175078
51
291.54689406466849
0
LINE
5
210
100
AcDbEntity
8
0
100
AcDbLine
10
12.007499771118166
20
-0.85537499785423299
30
0
11
12.073499565124516
21
-0.90937499999999993
31
0
0
ARC
5
211
100
AcDbEntity
8
0
100
AcDbCircle
10
11.866370234384112
20
-1.2845643983449697
30
0
40
0.34912501573562627
100
AcDbArc
50
228.52016617616468
51
250.11567715137681
0
ARC
5
212
100
AcDbEntity
8
0
100
AcDbCircle
10
11.792840196623274
20
-1.3796002204297666
30
0
40
0.4571249842643732
100
AcDbArc
50
34.927976458856598
51
47.443873872562961
0
ARC
5
213
100
AcDbEntity
8
0
100
AcDbCircle
10
11.911276700830687
20
-1.3130256643753477
30
0
40
0.31575000286102417
100
AcDbArc
50
313.21922141500795
51
336.06508500750448
0
LINE
5
214
100
AcDbEntity
8
0
100
AcDbLine
10
11.950874404907228
20
-1.0027500271797183
30
0
11
11.950874404907228
21
-1.1625000000000001
31
0
0
LINE
5
215
100
AcDbEntity
8
0
100
AcDbLine
10
11.678249816894532
20
-0.90787494778633149
30
0
11
11.726625137329103
21
-0.97499999999999998
31
0
0
LWPOLYLINE
5
216
100
AcDbEntity
8
0
100
AcDbPolyline
90
11
70
1
43
0.0
10
0.57916667302449543
20
-4.2541666030883771
10
0.28749999642372126
20
-4.2541666030883771
10
0.28749999642372126
20
-4.3650000890096008
10
0.97624995549519844
20
-4.3650000890096008
10
0.97624995549519844
20
-4.2541666030883771
10
0.70624997456868488
20
-4.2541666030883771
10
0.70624997456868499
20
-3.3183334668477351
10
0.56833333015441889
20
-3.3183334668477351
10
0.23499999682108563
20
-3.5116667747497545
10
0.28458333253860479
20
-3.6075000762939435
10
0.57916667302449543
20
-3.4320832888285295
0
ARC
5
217
100
AcDbEntity
8
0
100
AcDbCircle
10
1.8671624756969745
20
-3.5956994774259785
30
0
40
0.18458332618077508
100
AcDbArc
50
44.713625553973472
51
94.426410650583563
0
ARC
5
218
100
AcDbEntity
8
0
100
AcDbCircle
10
1.8347514444954449
20
-3.6030307893419233
30
0
40
0.18958334128062101
100
AcDbArc
50
110.10516024415718
51
132.161074949469
0
ARC
5
219
100
AcDbEntity
8
0
100
AcDbCircle
10
1.8466986552881761
20
-3.5995501734127182
30
0
40
0.33333333333333337
100
AcDbArc
50
-0.79354210815011805
51
20.787353465276158
0
ARC
5
220
100
AcDbEntity
8
0
100
AcDbCircle
10
1.8171017726236556
20
-3.6078232800949914
30
0
40
0.36291666825612401
100
AcDbArc
50
-17.659353606485144
51
0.57730074164552669
0
ARC
5
221
100
AcDbEntity
8
0
100
AcDbCircle
10
1.8684814301731523
20
-3.6895305144517638
30
0
40
0.38750000794728651
100
AcDbArc
50
70.355913522520439
51
90.946093321805094
0
ARC
5
222
100
AcDbEntity
8
0
100
AcDbCircle
10
1.7397667002476203
20
-3.5829051424280798
30
0
40
0.44416666030883772
100
AcDbArc
50
328.05488004985915
51
342.30404103024034
0
ARC
5
223
100
AcDbEntity
8
0
100
AcDbCircle
10
1.6068313544422719
20
-3.4891121794699513
30
0
40
0.60666668415069547
100
AcDbArc
50
316.07062767211119
51
327.18109863546533
0
SPLINE
5
224
100
AcDbEntity
8
0
100
AcDbSpline
70
1064
71
2
72
6
73
3
74
0
42
0.000000001
43
0.0000000001
44
0.0000000001
40
0
40
0
40
0
40
1
40
1
40
1
10
2.0437499999999988
20
-3.91000000635783
30
0
10
2.0000000317891433
20
-3.9549999237060551
30
0
10
1.9499999999999988
20
-4.0000000000000009
30
0
0
ARC
5
225
100
AcDbEntity
8
0
100
AcDbCircle
10
1.9474049879684543
20
-3.6852660195669427
30
0
40
0.44416666030883722
100
AcDbArc
50
148.89911721550754
51
161.81756486467589
0
ARC
5
226
100
AcDbEntity
8
0
100
AcDbCircle
10
1.8410367164168318
20
-3.5979461021049044
30
0
40
0.20541665951410931
100
AcDbArc
50
-2.5494370936972905
51
40.026757338911004
0
ARC
5
227
100
AcDbEntity
8
0
100
AcDbCircle
10
1.7687509014064406
20
-3.6243180953785403
30
0
40
0.27749999364217093
100
AcDbArc
50
326.59829358669333
51
359.85920613673699
0
ARC
5
228
100
AcDbEntity
8
0
100
AcDbCircle
10
1.9066950838956911
20
-3.5779627404680303
30
0
40
0.26958332459131901
100
AcDbArc
50
21.023393191992785
51
70.033526010361996
0
ARC
5
229
100
AcDbEntity
8
0
100
AcDbCircle
10
1.8483763148095498
20
-3.6503735371679062
30
0
40
0.23875000079472852
100
AcDbArc
50
88.910348445035069
51
109.27018834777469
0
ARC
5
230
100
AcDbEntity
8
0
100
AcDbCircle
10
1.8291865275891654
20
-3.6101680686308217
30
0
40
0.30416667461395275
100
AcDbArc
50
109.19794826959735
51
149.50906436128116
0
ARC
5
231
100
AcDbEntity
8
0
100
AcDbCircle
10
1.9682260741501649
20
-3.6804607891925705
30
0
40
0.34291664759318008
100
AcDbArc
50
151.86344859625368
51
164.41553973457059
0
ARC
5
232
100
AcDbEntity
8
0
100
AcDbCircle
10
1.8516947544247295
20
-3.6128683380349997
30
0
40
0.20833333333333359
100
AcDbArc
50
133.79939266234754
51
153.14283465400251
0
ARC
5
233
100
AcDbEntity
8
0
100
AcDbCircle
10
1.3695720026898761
20
-3.3547458039844096
30
0
40
0.75916663805643758
100
AcDbArc
50
311.78333920996812
51
326.19849953463597
0
LINE
5
234
100
AcDbEntity
8
0
100
AcDbLine
10
2.2191666285196932
20
-4.2541666030883798
30
0
11
2.2191666285196932
21
-4.3650000890096043
31
0
0
LINE
5
235
100
AcDbEntity
8
0
100
AcDbLine
10
1.5333333333333321
20
-4.2358334859212246
30
0
11
1.8754166285196932
21
-3.9208334287007651
31
0
0
LINE
5
236
100
AcDbEntity
8
0
100
AcDbLine
10
1.6379165967305493
20
-3.5883332888285331
30
0
11
1.5254165649414051
21
-3.5466666221618666
31
0
0
LINE
5
237
100
AcDbEntity
8
0
100
AcDbLine
10
1.9499999999999988
20
-4.0000000000000009
30
0
11
1.6679166475931797
21
-4.2541666030883798
31
0
0
ARC
5
238
100
AcDbEntity
8
0
100
AcDbCircle
10
1.8541281411667667
20
-3.6857508737520885
30
0
40
0.38375000158945621
100
AcDbArc
50
88.812192781138236
51
109.00391961782084
0
LINE
5
239
100
AcDbEntity
8
0
100
AcDbLine
10
1.5333333333333321
20
-4.3650000890096043
30
0
11
1.5333333333333321
21
-4.2358334859212246
31
0
0
LINE
5
240
100
AcDbEntity
8
0
100
AcDbLine
10
1.6679166475931797
20
-4.2541666030883798
30
0
11
2.2191666285196932
21
-4.2541666030883798
31
0
0
LINE
5
241
100
AcDbEntity
8
0
100
AcDbLine
10
2.0462500572204578
20
-3.6250000000000009
30
0
11
2.0462500572204578
21
-3.6070833206176767
31
0
0
LINE
5
242
100
AcDbEntity
8
0
100
AcDbLine
10
2.2191666285196932
20
-4.3650000890096043
30
0
11
1.5333333333333321
21
-4.3650000890096043
31
0
0
LWPOLYLINE
5
243
100
AcDbEntity
8
0
100
AcDbPolyline
90
45
70
1
43
0.0
10
3.2462502034505212
20
-3.4500001271565779
42
0.17246326642775092
10
3.1104167811075851
20
-3.4083334604899105
42
0.1538297784418256
10
2.9783335240681965
20
-3.4437500635782903
42
0.11746821069439373
10
2.895000190734863
20
-3.5391667683919299
10
2.8033333333333332
20
-3.4695833524068229
42
-0.045975997303902325
10
2.850416711171468
20
-3.4074999491373732
42
-0.067624868550468467
10
2.915833524068197
20
-3.3533333142598494
42
-0.068525892500214153
10
3.0029167048136385
20
-3.3150000572204621
42
-0.072749939217813031
10
3.1154165776570646
20
-3.3000000317891471
42
-0.071986227081427323
10
3.2404165776570641
20
-3.3170833587646511
42
-0.096084247113703516
10
3.3416665903727218
20
-3.3679167429606149
42
-0.11174667727306367
10
3.4091667048136398
20
-3.451250076293948
42
-0.11832621328834983
10
3.4337498855590822
20
-3.5633333524068216
42
-0.093000440484549834
10
3.4179166666666658
20
-3.6541666984558137
42
-0.090925263329630523
10
3.3762500000000006
20
-3.7241667111714714
42
-0.080321544752452637
10
3.3125000508626301
20
-3.7750000953674352
42
-0.068554609842582465
10
3.2337500762939451
20
-3.8062500953674347
10
3.2337500762939451
20
-3.8120834032694524
42
-0.066615755585463496
10
3.3170834096272781
20
-3.8416666984558137
42
-0.085066660143723327
10
3.3875001780192053
20
-3.8941666285196965
42
-0.093518037660106967
10
3.4370836130777991
20
-3.9725000063578322
42
-0.09735963392252725
10
3.4558334859212239
20
-4.0770832697550485
42
-0.10798774751108042
10
3.4304167938232419
20
-4.2020832697550485
42
-0.11082889054565967
10
3.3583333206176746
20
-4.2983331680297887
42
-0.095730715839247721
10
3.2458334477742516
20
-4.3608331680297878
42
-0.13904194113342708
10
2.9804166666666663
20
-4.3687499364217164
42
-0.070742670756259049
10
2.8874998601277664
20
-4.3270832697550476
42
-0.059844553013879274
10
2.8162498982747404
20
-4.2704165776570671
42
-0.042837629514695365
10
2.7616665077209479
20
-4.2045831680297887
10
2.8562498601277668
20
-4.132499853769942
42
0.046038378428941734
10
2.8979165267944338
20
-4.1895831425984733
42
0.066669310125012704
10
2.9495831044514982
20
-4.2312498092651394
42
0.075273889501646818
10
3.014166564941406
20
-4.2591663996378601
42
0.065302553791260293
10
3.097499898274739
20
-4.2687498728434274
42
0.18300713545495856
10
3.2641665649414073
20
-4.2183332443237331
42
0.22240493227711022
10
3.3212500127156575
20
-4.0741666158040388
10
3.3212500127156583
20
-4.062083244323734
42
0.22023861631895808
10
3.2616666666666667
20
-3.9204166730244987
42
0.18300713545495706
10
3.0950000000000006
20
-3.8700000445048048
10
2.9700000000000006
20
-3.8700000445048035
10
2.9700000000000006
20
-3.7591667175292995
10
3.0850000890096032
20
-3.7591667175293004
42
0.18776799142276232
10
3.2445834986368807
20
-3.7104167938232453
42
0.2209913210437234
10
3.2979167811075851
20
-3.5854167938232444
10
3.2979167811075851
20
-3.5750001271565788
42
0.24199007634319863
0
LWPOLYLINE
5
244
100
AcDbEntity
8
0
100
AcDbPolyline
90
9
70
1
43
0.0
10
4.6099999533466116
20
-3.4166687818556691
10
4.4916666666579639
20
-3.4166685278709137
10
4.4841661165808766
20
-3.4166685241724086
10
4.1045835325096878
20
-4.0545837661476565
10
4.1045835295348319
20
-4.1595834398110032
10
3.9845834096272781
20
-4.1595834364111708
10
3.9845834096272781
20
-4.0483333269755084
10
4.4225001653035481
20
-3.3179165522257521
10
4.6100001653035481
20
-3.3179165522257521
0
LWPOLYLINE
5
245
100
AcDbEntity
8
0
100
AcDbPolyline
90
13
70
1
43
0.0
10
4.4916666666610192
20
-3.4914737247525469
10
4.4916666666640079
20
-4.0545833905537965
10
4.1545103395175698
20
-4.0545833905537965
10
4.1545103395175698
20
-4.1595834412255348
10
4.4916666666666663
20
-4.1595834507778351
10
4.4916666666666663
20
-4.365000089009607
10
4.6100001653035481
20
-4.365000089009607
10
4.6100001653035481
20
-4.1595834096272819
10
4.7616668065388996
20
-4.1595834096272819
10
4.7616668065388996
20
-4.0545833905537965
10
4.6099985841580207
20
-4.0545833905537965
10
4.6099998615901443
20
-3.4594187664297786
10
4.5098919789415959
20
-3.4594185515631346
0
LWPOLYLINE
5
246
100
AcDbEntity
8
0
100
AcDbPolyline
90
33
70
1
43
0.0
10
5.928333155314129
20
-3.4291666348775256
10
5.9287502288818379
20
-3.3154164950052918
10
5.3679169336954757
20
-3.3154164950052918
10
5.3304168701171886
20
-3.8912498156229676
10
5.4370834350585957
20
-3.9062498410542834
42
-0.065559376193071492
10
5.5112500508626328
20
-3.8441664377848324
42
-0.14243246816632563
10
5.6245834350585957
20
-3.8179163932800315
42
-0.20699967606921402
10
5.7879166920979825
20
-3.8749996821085637
42
-0.19999232317486459
10
5.8433334350585948
20
-4.0362496376037615
10
5.8433334350585948
20
-4.0512496630350761
42
-0.19999232317486626
10
5.7879166920979825
20
-4.2124996185302752
42
-0.20699974442439389
10
5.6245834350585957
20
-4.2695830663045262
42
-0.06898921312619434
10
5.5412501017252627
20
-4.2599995930989598
42
-0.08234647560014316
10
5.4804168065389014
20
-4.2320830027262399
42
-0.065181046186830502
10
5.4325000762939464
20
-4.1904163360595712
42
-0.038291902572242735
10
5.3908334096272812
20
-4.1333330472310408
10
5.2962502161661806
20
-4.2054163614908875
42
0.036359099433995859
10
5.3495834986368838
20
-4.2712497711181676
42
0.061811558919360139
10
5.4179168065388987
20
-4.3279164632161482
42
0.07230408023590848
10
5.5070834477742521
20
-4.3695831298828143
42
0.071223090954250209
10
5.6233334859212256
20
-4.3841663996378601
42
0.093650035594144337
10
5.771250279744466
20
-4.3587497075398778
42
0.10446877484415816
10
5.8820837656656924
20
-4.2874997456868531
42
0.10778395780961406
10
5.9516670227050792
20
-4.1779165267944363
42
0.090826005585242314
10
5.9758337656656897
20
-4.037499904632571
42
0.093232871884492571
10
5.9525005340576174
20
-3.900833288828534
42
0.1072710987741822
10
5.88708356221517
20
-3.7995832761128767
42
0.10210225431805894
10
5.7879166920979834
20
-3.7358333269755062
42
0.095408176826272811
10
5.6629166920979852
20
-3.713333288828534
42
0.14706653234718201
10
5.5333333333333341
20
-3.7449998855590843
42
0.090236001902589652
10
5.4500000000000011
20
-3.8283332188924173
10
5.439999771118166
20
-3.8283332188924173
10
5.4699998219807959
20
-3.4291666348775256
0
ARC
5
247
100
AcDbEntity
8
0
100
AcDbCircle
10
7.3732484730284442
20
-4.0120718358457088
30
0
40
0.73541665077209439
100
AcDbArc
50
142.31529346362771
51
154.7830676484156
0
ARC
5
248
100
AcDbEntity
8
0
100
AcDbCircle
10
7.430377304176309
20
-4.0344995176844112
30
0
40
0.79666670163472608
100
AcDbArc
50
155.07428473912742
51
167.5317293026151
0
ARC
5
249
100
AcDbEntity
8
0
100
AcDbCircle
10
7.2062347124880191
20
-3.9791826925509937
30
0
40
0.6854166984558111
100
AcDbArc
50
161.71757765143599
51
180.38179816007781
0
LWPOLYLINE
5
250
100
AcDbEntity
8
0
100
AcDbPolyline
90
14
70
1
43
0.0
10
7.1266656494140612
20
-4.289166768391925
42
0.10507629730024386
10
7.1970824178059898
20
-4.1795835494995099
42
0.093168379699066745
10
7.2216655985514322
20
-4.0391667683919241
42
0.092947702733461354
10
7.198332366943359
20
-3.9054168065388981
42
0.10018847046426033
10
7.134582417805988
20
-3.8033334414164193
42
0.10855769389790035
10
7.0370825703938822
20
-3.7387501398722307
42
0.095408176826274727
10
6.9120825703938813
20
-3.7162501017252567
42
0.016470307431679022
10
6.8950166637526751
20
-3.7158956262838272
10
6.8950166637526751
20
-3.804665625196864
42
-0.40542112405215636
10
7.0908329264322916
20
-4.0395832061767551
10
7.0908329264322916
20
-4.0516665776570617
42
-0.44298416439146182
10
6.8950166637526751
20
-4.2731526768999561
10
6.8950166637526751
20
-4.3830763508423933
42
0.080783235779280607
10
7.0162492370605474
20
-4.3604167302449515
42
0.10363093109201822
0
ARC
5
251
100
AcDbEntity
8
0
100
AcDbCircle
10
7.3467069384992749
20
-4.0255172228620939
30
0
40
0.8333333333333327
100
AcDbArc
50
147.41020953879203
51
161.72243564422047
0
ARC
5
252
100
AcDbEntity
8
0
100
AcDbCircle
10
6.8664970076558891
20
-4.0129528782690205
30
0
40
0.37000000476837164
100
AcDbArc
50
247.58588829544968
51
266.58597045195398
0
ARC
5
253
100
AcDbEntity
8
0
100
AcDbCircle
10
6.8780317127196904
20
-4.0468965464345326
30
0
40
0.34874999523162797
100
AcDbArc
50
197.26742245408099
51
220.93898117337983
0
ARC
5
254
100
AcDbEntity
8
0
100
AcDbCircle
10
6.9579057853115565
20
-4.036090011063159
30
0
40
0.34333332379658899
100
AcDbArc
50
125.88321840692868
51
150.19122956791918
0
ARC
5
255
100
AcDbEntity
8
0
100
AcDbCircle
10
6.8981705541143299
20
-3.9750430930964904
30
0
40
0.25916665792465227
100
AcDbArc
50
101.96012596736277
51
123.09288867877915
0
ARC
5
256
100
AcDbEntity
8
0
100
AcDbCircle
10
7.3382380261099014
20
-3.9940417701327156
30
0
40
0.80625001589457168
100
AcDbArc
50
123.38549954746766
51
135.27369540782655
0
ARC
5
257
100
AcDbEntity
8
0
100
AcDbCircle
10
6.8512925348329929
20
-4.0735857612591388
30
0
40
0.19958333174387727
100
AcDbArc
50
173.69478843016657
51
268.03907540006583
0
LWPOLYLINE
5
258
100
AcDbEntity
8
0
100
AcDbPolyline
90
3
70
1
43
0.0
10
6.871666488647481
20
-4.2720832824707013
42
0.00026222934302913727
10
6.871874707539968
20
-4.2721049806728946
42
0.00026222934287037537
10
6.8720829264322925
20
-4.2720832824707005
0
ARC
5
259
100
AcDbEntity
8
0
100
AcDbCircle
10
7.3907573479379591
20
-4.0540815611086867
30
0
40
0.88583334287007842
100
AcDbArc
50
134.90515146001709
51
147.38819395426344
0
ARC
5
260
100
AcDbEntity
8
0
100
AcDbCircle
10
7.5049703532057608
20
-4.1216484535643749
30
0
40
0.90666667620340979
100
AcDbArc
50
131.29179901500927
51
141.92387944903675
0
SPLINE
5
261
100
AcDbEntity
8
0
100
AcDbSpline
70
1064
71
2
72
6
73
3
74
0
42
0.000000001
43
0.0000000001
44
0.0000000001
40
0
40
0
40
0
40
1
40
1
40
1
10
7.0566665903727221
20
-3.3208333651224744
30
0
10
6.9733332570393873
20
-3.3820834159851048
30
0
10
6.9066663360595699
20
-3.440416653951007
30
0
0
ARC
5
262
100
AcDbEntity
8
0
100
AcDbCircle
10
6.8718747075398756
20
-4.0230260835939928
30
0
40
0.21958333253860429
100
AcDbArc
50
97.171177852264179
51
184.32434681824671
0
ARC
5
263
100
AcDbEntity
8
0
100
AcDbCircle
10
7.0708073101203803
20
-3.9890889600181811
30
0
40
0.54999999205271277
100
AcDbArc
50
179.44381231341256
51
197.05701352007443
0
LINE
5
264
100
AcDbEntity
8
0
100
AcDbLine
10
6.84446321040895
20
-3.8051604145366578
30
0
11
6.84446321040895
21
-3.7215024103413441
31
0
0
LINE
5
265
100
AcDbEntity
8
0
100
AcDbLine
10
6.8444632104089482
20
-4.2731526768999561
30
0
11
6.8444632104089482
21
-4.2730522161779998
31
0
0
LINE
5
266
100
AcDbEntity
8
0
100
AcDbLine
10
6.8945832824707027
20
-3.3208333651224744
30
0
11
7.0566665903727221
21
-3.3208333651224744
31
0
0
LINE
5
267
100
AcDbEntity
8
0
100
AcDbLine
10
6.6529164886474605
20
-4.0395832061767551
30
0
11
6.6529164886474605
21
-4.0516665776570617
31
0
0
LINE
5
268
100
AcDbEntity
8
0
100
AcDbLine
10
6.6524994150797516
20
-3.8625000317891405
30
0
11
6.6599991099039713
21
-3.8654166857401502
31
0
0
ARC
5
269
100
AcDbEntity
8
0
100
AcDbCircle
10
6.8438850554354032
20
-4.0730440030905184
30
0
40
0.30583333969116294
100
AcDbArc
50
221.43034535273333
51
247.20952024203541
0
LINE
5
270
100
AcDbEntity
8
0
100
AcDbLine
10
6.8444632104089482
20
-4.2731526768999561
30
0
11
6.8444632104089482
21
-4.3822962351978756
31
0
0
LWPOLYLINE
5
271
100
AcDbEntity
8
0
100
AcDbPolyline
90
9
70
1
43
0.0
10
8.0770836893717455
20
-4.3649997711181658
10
8.4700000508626321
20
-3.4291666348775252
10
8.4700000508626321
20
-3.3179167111714705
10
7.7829164886474622
20
-3.3179167111714709
10
7.7829164886474622
20
-3.6208333969116233
10
7.895416361490887
20
-3.6208333969116229
10
7.895416361490887
20
-3.4258333841959652
10
8.3404166920979836
20
-3.4258333841959652
10
7.9400000000000004
20
-4.3650000890096043
0
LINE
5
272
100
AcDbEntity
8
0
100
AcDbLine
10
9.4102027169510851
20
-4.3828958240741729
30
0
11
9.4102027169510851
21
-4.2721355602927966
31
0
0
LWPOLYLINE
5
273
100
AcDbEntity
8
0
100
AcDbPolyline
90
24
70
1
43
0.0
10
9.2087503051757835
20
-4.2216666539510088
42
0.1549814694001159
10
9.3596037957797353
20
-4.2724305800192202
10
9.3596037957797353
20
-4.3828958240741729
42
-0.07310960036628282
10
9.2208333587646525
20
-4.3595835367838527
42
-0.099229033608401199
10
9.107499974568686
20
-4.2958335876464835
42
-0.11439490260266592
10
9.0383331553141293
20
-4.2000001271565743
42
-0.10052885015176326
10
9.0149999237060552
20
-4.0800000826517735
42
-0.19375314530015258
10
9.0733330027262387
20
-3.9091668128967276
42
-0.14310906658857117
10
9.2266666666666683
20
-3.8204166094462071
10
9.2266666666666683
20
-3.8083333969116193
42
-0.15066126722010609
10
9.0954169209798206
20
-3.7162501017252589
42
-0.16899844955460389
10
9.0466669972737659
20
-3.5625001589457179
42
-0.23647716722628129
10
9.1337501780192056
20
-3.3712501525878893
42
-0.13235181128634305
10
9.3596037957797353
20
-3.3003074709940523
10
9.3596037957797353
20
-3.4119910067956849
42
0.11954299543676972
10
9.2283336893717447
20
-3.4529167811075818
42
0.23450607119600267
10
9.17750030517578
20
-3.5754167238871246
10
9.1775003051757817
20
-3.5979167620340968
42
0.23250209591257606
10
9.2266666666666683
20
-3.7199999491373683
42
0.15427880930526669
10
9.3596037957797353
20
-3.762748171180859
10
9.3596037957797353
20
-3.8685849400785091
42
0.12564876838886813
10
9.2087503051757835
20
-3.9166666666666647
42
0.23910876538810488
10
9.1487502034505201
20
-4.0549999872843419
10
9.1487502034505219
20
-4.083333333333333
42
0.23910876538810488
0
LINE
5
274
100
AcDbEntity
8
0
100
AcDbLine
10
9.4102027169510851
20
-3.8696272251072927
30
0
11
9.4102027169510851
21
-3.7621752275993567
31
0
0
ARC
5
275
100
AcDbEntity
8
0
100
AcDbCircle
10
9.4414063914102435
20
-4.0448590199923613
30
0
40
0.16666666666666727
100
AcDbArc
50
-2.4843143491214552
51
50.277990214416917
0
ARC
5
276
100
AcDbEntity
8
0
100
AcDbCircle
10
9.4416540751267615
20
-4.0949356174909823
30
0
40
0.16666666666666938
100
AcDbArc
50
-50.388604205382364
51
3.9918000165716512
0
ARC
5
277
100
AcDbEntity
8
0
100
AcDbCircle
10
9.4303384265287296
20
-3.6079549474120016
30
0
40
0.14916666348775232
100
AcDbArc
50
-48.93227584966948
51
3.8586412901442082
0
LINE
5
278
100
AcDbEntity
8
0
100
AcDbLine
10
9.5300005849202485
20
-3.8083333969116202
30
0
11
9.5300005849202485
21
-3.8204167683919259
31
0
0
LINE
5
279
100
AcDbEntity
8
0
100
AcDbLine
10
9.5791669464111333
20
-3.5979167620340968
30
0
11
9.5791669464111333
21
-3.5754167238871246
31
0
0
LINE
5
280
100
AcDbEntity
8
0
100
AcDbLine
10
9.6079164123535179
20
-4.0833333333333321
30
0
11
9.6079164123535179
21
-4.0520833333333321
31
0
0
LINE
5
281
100
AcDbEntity
8
0
100
AcDbLine
10
9.4102027169510851
20
-3.4131353262392157
30
0
11
9.4102027169510851
21
-3.30103926485253
31
0
0
ARC
5
282
100
AcDbEntity
8
0
100
AcDbCircle
10
9.4755786831275657
20
-3.5537898502359524
30
0
40
0.23458333810170331
100
AcDbArc
50
-2.1279374738856305
51
51.090985850161452
0
ARC
5
283
100
AcDbEntity
8
0
100
AcDbCircle
10
9.4999321385073703
20
-4.0666084048981732
30
0
40
0.24166667461395225
100
AcDbArc
50
-3.0776518566849593
51
40.783829652187755
0
ARC
5
284
100
AcDbEntity
8
0
100
AcDbCircle
10
9.4303384265287296
20
-3.5653785385092194
30
0
40
0.14916666348775412
100
AcDbArc
50
-3.8586412901444058
51
48.932275849669281
0
ARC
5
285
100
AcDbEntity
8
0
100
AcDbCircle
10
9.3855388017796493
20
-3.8992204488713194
30
0
40
0.48374998569488514
100
AcDbArc
50
272.92248317506125
51
288.04870669139831
0
ARC
5
286
100
AcDbEntity
8
0
100
AcDbCircle
10
9.3783336257934575
20
-3.7549218090438652
30
0
40
0.4550000031789147
100
AcDbArc
50
57.48325743107398
51
85.983602844818975
0
ARC
5
287
100
AcDbEntity
8
0
100
AcDbCircle
10
9.3783336257934575
20
-3.7030556695634305
30
0
40
0.29166666666666541
100
AcDbArc
50
59.05029148412109
51
83.727025964995988
0
ARC
5
288
100
AcDbEntity
8
0
100
AcDbCircle
10
9.3783336257934575
20
-4.1880363274444425
30
0
40
0.31999999284744207
100
AcDbArc
50
57.998066049829546
51
84.284386128594051
0
ARC
5
289
100
AcDbEntity
8
0
100
AcDbCircle
10
9.4460448521355467
20
-3.5490889484342625
30
0
40
0.27249999841054334
100
AcDbArc
50
287.94442970136544
51
322.16167649898478
0
ARC
5
290
100
AcDbEntity
8
0
100
AcDbCircle
10
9.4337602429272724
20
-4.0820624055259076
30
0
40
0.30750000476837047
100
AcDbArc
50
-22.468906235481629
51
0.46192609611395158
0
ARC
5
291
100
AcDbEntity
8
0
100
AcDbCircle
10
9.4642578373334771
20
-3.5691855331666531
30
0
40
0.24583333730697959
100
AcDbArc
50
-36.743145812656451
51
1.5583360695831516
0
ARC
5
292
100
AcDbEntity
8
0
100
AcDbCircle
10
9.454778846750802
20
-4.127161585044461
30
0
40
0.31583333015441856
100
AcDbArc
50
43.752174014248347
51
76.221496018972644
0
ARC
5
293
100
AcDbEntity
8
0
100
AcDbCircle
10
9.4318019875613679
20
-4.0423465201325275
30
0
40
0.3333333333333332
100
AcDbArc
50
288.11013104665079
51
310.60531499762726
0
ARC
5
294
100
AcDbEntity
8
0
100
AcDbCircle
10
9.4762919305947317
20
-4.0980698864616274
30
0
40
0.2620833317438766
100
AcDbArc
50
311.14967939629543
51
337.21135670703165
0
ARC
5
295
100
AcDbEntity
8
0
100
AcDbCircle
10
9.394698501265335
20
-4.0096764365165471
30
0
40
0.262916664282482
100
AcDbArc
50
273.38069778795506
51
305.64520439873326
0
ARC
5
296
100
AcDbEntity
8
0
100
AcDbCircle
10
9.3949341532267443
20
-3.5310122671113762
30
0
40
0.23166666428248164
100
AcDbArc
50
273.7789590805819
51
305.15741343058784
0
ARC
5
297
100
AcDbEntity
8
0
100
AcDbCircle
10
10.125382816399711
20
-3.6758655688753761
30
0
40
0.73458329836527481
100
AcDbArc
50
322.30819330634245
51
334.79016780570078
0
ARC
5
298
100
AcDbEntity
8
0
100
AcDbCircle
10
10.157668693250788
20
-3.6898474982199216
30
0
40
0.80874999364217004
100
AcDbArc
50
303.40393961657503
51
315.25525533871905
0
ARC
5
299
100
AcDbEntity
8
0
100
AcDbCircle
10
9.9978031784573833
20
-3.5590381644032774
30
0
40
0.90708335240682036
100
AcDbArc
50
310.82697615551183
51
321.39587471364598
0
ARC
5
300
100
AcDbEntity
8
0
100
AcDbCircle
10
10.540943369458979
20
-3.6494582944058993
30
0
40
0.34374999999999756
100
AcDbArc
50
305.89817548037053
51
330.17627249447736
0
ARC
5
301
100
AcDbEntity
8
0
100
AcDbCircle
10
10.068422058771354
20
-3.6491450326842694
30
0
40
0.79749997456868227
100
AcDbArc
50
334.79634955654143
51
347.38387723852156
0
ARC
5
302
100
AcDbEntity
8
0
100
AcDbCircle
10
10.64834269779854
20
-3.6657187553879842
30
0
40
0.19958333174387316
100
AcDbArc
50
-88.045064550846732
51
6.439906607654609
0
LWPOLYLINE
5
303
100
AcDbEntity
8
0
100
AcDbPolyline
90
14
70
1
43
0.0
10
10.364583663940438
20
-3.8824998537699384
42
0.10855769389790214
10
10.462083511352548
20
-3.947083155314127
42
0.095408176826272478
10
10.587083511352546
20
-3.9695831934611023
42
0.01736271372125759
10
10.605074190557634
20
-3.9699247638306248
10
10.605074190557634
20
-3.8648252415744819
42
-0.44374517388828111
10
10.408750228881841
20
-3.6433332761128732
10
10.408750228881848
20
-3.6312499046325679
42
-0.40609800334000157
10
10.605074190557634
20
-3.3962791141418402
10
10.605074190557634
20
-3.2997923856050226
42
0.082799735873435074
10
10.48208396911622
20
-3.3249999682108586
42
0.10265871692891913
10
10.372500432332368
20
-3.3962499300638829
42
0.10507640757678154
10
10.302083663940438
20
-3.5058333079020163
42
0.093168275580842619
10
10.277500483194997
20
-3.6462499300638829
42
0.094061101483061987
10
10.300833714803069
20
-3.7808332443237305
42
0.099748667119497147
0
ARC
5
304
100
AcDbEntity
8
0
100
AcDbCircle
10
10.290430841323769
20
-3.706521115902933
30
0
40
0.68624997138976862
100
AcDbArc
50
-18.27082376308698
51
0.37052333301274915
0
ARC
5
305
100
AcDbEntity
8
0
100
AcDbCircle
10
10.106742066188778
20
-3.6317521727931994
30
0
40
0.88583334287007565
100
AcDbArc
50
314.90517709343305
51
327.38822764150154
0
ARC
5
306
100
AcDbEntity
8
0
100
AcDbCircle
10
10.150794071703721
20
-3.6603140147227622
30
0
40
0.83333333333332837
100
AcDbArc
50
327.41004163105742
51
341.72228665726448
0
ARC
5
307
100
AcDbEntity
8
0
100
AcDbCircle
10
10.630586885166384
20
-3.6695471662357781
30
0
40
0.3700000047683708
100
AcDbArc
50
67.585888295449664
51
86.193335411852331
0
ARC
5
308
100
AcDbEntity
8
0
100
AcDbCircle
10
10.426296812478588
20
-3.6948890886910855
30
0
40
0.55041666825612512
100
AcDbArc
50
-0.74890164674035986
51
17.20471355376927
0
ARC
5
309
100
AcDbEntity
8
0
100
AcDbCircle
10
10.653199060343271
20
-3.6094561350928256
30
0
40
0.30583333969116078
100
AcDbArc
50
41.430408476135668
51
67.209565548575
0
SPLINE
5
310
100
AcDbEntity
8
0
100
AcDbSpline
70
1064
71
2
72
6
73
3
74
0
42
0.000000001
43
0.0000000001
44
0.0000000001
40
0
40
0
40
0
40
1
40
1
40
1
10
10.440833104451508
20
-4.3650000890096017
30
0
10
10.524166437784839
20
-4.3037500381469718
30
0
10
10.590833358764655
20
-4.2454166412353507
30
0
0
LINE
5
311
100
AcDbEntity
8
0
100
AcDbLine
10
10.655151171876884
20
-3.2997923856050226
30
0
11
10.655151171876884
21
-3.3968310441916243
31
0
0
ARC
5
312
100
AcDbEntity
8
0
100
AcDbCircle
10
10.600995527632097
20
-3.7107902020898669
30
0
40
0.2591666579246546
100
AcDbArc
50
282.06145311553871
51
303.09288867877979
0
ARC
5
313
100
AcDbEntity
8
0
100
AcDbCircle
10
10.627708447774264
20
-3.6146927820498065
30
0
40
0.2195833325386054
100
AcDbArc
50
-4.3243468182466671
51
82.820609794536992
0
LINE
5
314
100
AcDbEntity
8
0
100
AcDbLine
10
10.655151171876888
20
-3.8651859230891108
30
0
11
10.655151171876888
21
-3.9642355073852431
31
0
0
LINE
5
315
100
AcDbEntity
8
0
100
AcDbLine
10
10.627916666666678
20
-3.8637499809265132
30
0
11
10.627083155314136
21
-3.8641665776570635
31
0
0
LINE
5
316
100
AcDbEntity
8
0
100
AcDbLine
10
10.602916412353528
20
-4.3650000890096017
30
0
11
10.440833104451508
21
-4.3650000890096017
31
0
0
ARC
5
317
100
AcDbEntity
8
0
100
AcDbCircle
10
10.618309257059394
20
-3.6360185968324776
30
0
40
0.34958334763844867
100
AcDbArc
50
17.296240508254922
51
40.910608078164302
0
LINE
5
318
100
AcDbEntity
8
0
100
AcDbLine
10
10.846666666666675
20
-3.8233332633972159
30
0
11
10.839166971842454
21
-3.8204166094462071
31
0
0
LINE
5
319
100
AcDbEntity
8
0
100
AcDbLine
10
10.846666666666675
20
-3.6433332761128732
30
0
11
10.846666666666675
21
-3.6312499046325679
31
0
0
LINE
5
320
100
AcDbEntity
8
0
100
AcDbLine
10
11.850073864943147
20
-3.2999682154825347
30
0
11
11.850073864943147
21
-3.4126615598296053
31
0
0
ARC
5
321
100
AcDbEntity
8
0
100
AcDbCircle
10
11.870173458708374
20
-4.0675902016060954
30
0
40
0.20458332697550449
100
AcDbArc
50
241.08335025227046
51
264.36179550568608
0
LINE
5
322
100
AcDbEntity
8
0
100
AcDbLine
10
11.899846502995782
20
-3.4125620318250793
30
0
11
11.899846502995782
21
-3.2997751662732382
31
0
0
ARC
5
323
100
AcDbEntity
8
0
100
AcDbCircle
10
12.349548676755127
20
-3.9336808891592381
30
0
40
0.70291670163472386
100
AcDbArc
50
179.42825656703201
51
190.83643638872095
0
ARC
5
324
100
AcDbEntity
8
0
100
AcDbCircle
10
11.875416564941405
20
-3.6408418808044813
30
0
40
0.22958334287007659
100
AcDbArc
50
63.017361560339339
51
83.891597617206926
0
ARC
5
325
100
AcDbEntity
8
0
100
AcDbCircle
10
12.007929582563371
20
-3.6876641709627713
30
0
40
0.3558333317438761
100
AcDbArc
50
149.65902655370101
51
168.5593083580529
0
ARC
5
326
100
AcDbEntity
8
0
100
AcDbCircle
10
11.879855689790714
20
-4.0805880698119976
30
0
40
0.1945833365122486
100
AcDbArc
50
301.40465742909453
51
330.97443402946243
0
ARC
5
327
100
AcDbEntity
8
0
100
AcDbCircle
10
11.876249440511067
20
-3.6322724266084085
30
0
40
0.3333335408990542
100
AcDbArc
50
94.503884151691892
51
145.21025336395437
0
ARC
5
328
100
AcDbEntity
8
0
100
AcDbCircle
10
11.876249440511067
20
-3.6322724266084085
30
0
40
0.33333354089905437
100
AcDbArc
50
34.789788057002866
51
85.94057087012753
0
ARC
5
329
100
AcDbEntity
8
0
100
AcDbCircle
10
11.875416564941405
20
-3.6408418808044813
30
0
40
0.22958334287007684
100
AcDbArc
50
96.337545431065237
51
116.98263843966028
0
ARC
5
330
100
AcDbEntity
8
0
100
AcDbCircle
10
11.869824751111665
20
-3.6035333147107118
30
0
40
0.19416666030883917
100
AcDbArc
50
120.50952943627811
51
150.49853933779644
0
ARC
5
331
100
AcDbEntity
8
0
100
AcDbCircle
10
11.856141777092098
20
-4.0873499440222671
30
0
40
0.29625000556310049
100
AcDbArc
50
211.10991592964879
51
268.82636265331593
0
ARC
5
332
100
AcDbEntity
8
0
100
AcDbCircle
10
12.007534984959973
20
-3.9954035005432051
30
0
40
0.35541665554046609
100
AcDbArc
50
191.429470999518
51
210.35213850510303
0
ARC
5
333
100
AcDbEntity
8
0
100
AcDbCircle
10
11.869824751111665
20
-4.0793836444160823
30
0
40
0.19416666030883847
100
AcDbArc
50
209.50146066220347
51
239.49047056372183
0
ARC
5
334
100
AcDbEntity
8
0
100
AcDbCircle
10
11.881008378771147
20
-3.6035333147107118
30
0
40
0.19416666030883847
100
AcDbArc
50
29.501460662203577
51
59.490470563721885
0
SPLINE
5
335
100
AcDbEntity
8
0
100
AcDbSpline
70
1064
71
2
72
6
73
3
74
0
42
0.000000001
43
0.0000000001
44
0.0000000001
40
0
40
0
40
0
40
1
40
1
40
1
10
11.602499135335286
20
-4.2404168446858739
30
0
10
11.516248830159507
20
-4.0979169209798192
30
0
10
11.516248830159507
20
-3.841250101725262
30
0
0
ARC
5
336
100
AcDbEntity
8
0
100
AcDbCircle
10
11.882223245871558
20
-4.0671703376554245
30
0
40
0.20500000317891415
100
AcDbArc
50
274.93163957084914
51
298.88494744746964
0
SPLINE
5
337
100
AcDbEntity
8
0
100
AcDbSpline
70
1064
71
2
72
6
73
3
74
0
42
0.000000001
43
0.0000000001
44
0.0000000001
40
0
40
0
40
0
40
1
40
1
40
1
10
12.149999745686848
20
-3.4420833587646502
30
0
10
12.23625005086263
20
-3.5845832824707045
30
0
10
12.23625005086263
20
-3.841250101725262
30
0
0
ARC
5
338
100
AcDbEntity
8
0
100
AcDbCircle
10
12.349965666742417
20
-3.7492733636865854
30
0
40
0.70333329836527614
100
AcDbArc
50
169.16695344099421
51
180.56835360325255
0
ARC
5
339
100
AcDbEntity
8
0
100
AcDbCircle
10
11.404602689646378
20
-3.7510350496561027
30
0
40
0.69999996821085442
100
AcDbArc
50
-0.42685866500784525
51
11.032134965451325
0
LINE
5
340
100
AcDbEntity
8
0
100
AcDbLine
10
11.899846502995782
20
-4.383579621440469
30
0
11
11.899846502995782
21
-4.2714114258617117
31
0
0
SPLINE
5
341
100
AcDbEntity
8
0
100
AcDbSpline
70
1064
71
2
72
6
73
3
74
0
42
0.000000001
43
0.0000000001
44
0.0000000001
40
0
40
0
40
0
40
1
40
1
40
1
10
12.23625005086263
20
-3.841250101725262
30
0
10
12.23625005086263
20
-4.0979169209798192
30
0
10
12.150000053644179
20
-4.2404167652130136
30
0
0
ARC
5
342
100
AcDbEntity
8
0
100
AcDbCircle
10
11.896357103930036
20
-4.0873499440222671
30
0
40
0.29625022816722307
100
AcDbArc
50
270.67487699111086
51
328.89012800360854
0
ARC
5
343
100
AcDbEntity
8
0
100
AcDbCircle
10
11.743298194001651
20
-3.9954030988386515
30
0
40
0.35541665554046753
100
AcDbArc
50
329.64784583754749
51
348.57048907420625
0
LINE
5
344
100
AcDbEntity
8
0
100
AcDbLine
10
12.104583231608071
20
-3.9266665776570653
30
0
11
12.104583231608071
21
-3.7562500635782894
31
0
0
LINE
5
345
100
AcDbEntity
8
0
100
AcDbLine
10
11.646666971842448
20
-3.7562500635782894
30
0
11
11.646666971842448
21
-3.926666736602785
31
0
0
SPLINE
5
346
100
AcDbEntity
8
0
100
AcDbSpline
70
1064
71
2
72
6
73
3
74
0
42
0.000000001
43
0.0000000001
44
0.0000000001
40
0
40
0
40
0
40
1
40
1
40
1
10
11.516248830159507
20
-3.841250101725262
30
0
10
11.516248830159507
20
-3.5845832824707045
30
0
10
11.602498827377955
20
-3.4420834382375096
30
0
0
ARC
5
347
100
AcDbEntity
8
0
100
AcDbCircle
10
11.405019587464885
20
-3.9319202853816528
30
0
40
0.69958337148030536
100
AcDbArc
50
-11.035558267011147
51
0.43028196656687057
0
LINE
5
348
100
AcDbEntity
8
0
100
AcDbLine
10
11.850073864943147
20
-4.2711837771600383
30
0
11
11.850073864943147
21
-4.3835378003538352
31
0
0
ARC
5
349
100
AcDbEntity
8
0
100
AcDbCircle
10
11.742903547319441
20
-3.6876641709627713
30
0
40
0.35583333174387627
100
AcDbArc
50
11.440691641947105
51
30.340973446298992
0
LWPOLYLINE
5
350
100
AcDbEntity
8
0
100
AcDbPolyline
90
4
70
1
43
0.0
10
3.9000000287228684
20
-6.6000002010600758
10
2.9000000000000004
20
-6.6000002010600758
10
2.9000000000000004
20
-8.1000002489315222
10
3.9000000287228684
20
-8.1000002489315222
0
LWPOLYLINE
5
351
100
AcDbEntity
8
0
100
AcDbPolyline
90
4
70
1
43
0.0
10
1.5
20
-8.1000002489315222
10
2.5000000287228681
20
-8.1000002489315222
10
2.5000000287228681
20
-6.6000002010600758
10
1.5
20
-6.6000002010600758
0
LWPOLYLINE
5
352
100
AcDbEntity
8
0
100
AcDbPolyline
90
8
70
1
43
0.0
10
5.4096370014766926
20
-9.6000003989287226
10
5.4096370014766926
20
-5.2000002585058125
10
2.8250000382971576
20
-5.2000002585058125
42
-0.99999999999999989
10
2.5750000382971576
20
-5.2000002585058125
10
-4.7871446789140531e-08
20
-5.2000002585058125
10
-4.7871446789140531e-08
20
-9.6000003989287226
10
2.5750000382971572
20
-9.6000003989287226
42
-0.99999999999999989
10
2.8250000382971581
20
-9.6000003989287226
0
LWPOLYLINE
5
353
100
AcDbEntity
8
0
100
AcDbPolyline
90
4
70
1
43
0.0
10
6.9100000000000001
20
-6.6000002010600758
10
6.9100000000000001
20
-8.1000002489315222
10
7.9100000287228669
20
-8.1000002489315222
10
7.9100000287228669
20
-6.6000002010600758
0
LWPOLYLINE
5
354
100
AcDbEntity
8
0
100
AcDbPolyline
90
4
70
1
43
0.0
10
8.3100000000000005
20
-6.6000002010600758
10
8.3100000000000005
20
-8.1000002489315222
10
9.2100000287228685
20
-8.1000002489315222
10
9.2100000287228685
20
-6.6000002010600758
0
LWPOLYLINE
5
355
100
AcDbEntity
8
0
100
AcDbPolyline
90
8
70
1
43
0.0
10
8.2350000382971587
20
-9.6000003989287226
10
12.119637001476692
20
-9.6000003989287226
10
12.119637001476692
20
-5.2000002585058125
10
8.2350000382971569
20
-5.2000002585058125
42
-0.99999999999999989
10
7.9850000382971578
20
-5.2000002585058125
10
5.4099999521285529
20
-5.2000002585058125
10
5.4099999521285529
20
-9.6000003989287226
10
7.985000038297156
20
-9.6000003989287226
42
-0.99999999999999989
0
LWPOLYLINE
5
356
100
AcDbEntity
8
0
100
AcDbPolyline
90
4
70
1
43
0.0
10
9.6099999999999994
20
-8.1000002489315222
10
10.610000028722867
20
-8.1000002489315222
10
10.610000028722867
20
-6.6000002010600758
10
9.6099999999999994
20
-6.6000002010600758
0
ENDSEC
0
SECTION
2
OBJECTS
0
DICTIONARY
5
C
100
AcDbDictionary
3
ACAD_GROUP
350
D
3
ACAD_MLINESTYLE
350
17
0
DICTIONARY
5
D
100
AcDbDictionary
0
DICTIONARY
5
1A
330
C
100
AcDbDictionary
0
DICTIONARY
5
17
100
AcDbDictionary
0
ENDSEC
0
EOF
