M48
;DRILL file {KiCad 4.0.5} date 07/13/18 00:02:16
;FORMAT={-:-/ absolute / inch / decimal}
FMAT,2
INCH,TZ
T1C0.031
T2C0.035
T3C0.039
T4C0.040
T5C0.045
%
G90
G05
M72
T1
X6.6216Y-3.32
X6.72Y-3.32
T2
X6.6516Y-3.84
X6.75Y-3.84
X7.1016Y-3.84
X7.2Y-3.84
X7.4831Y-3.84
X7.5816Y-3.84
X7.68Y-3.84
T3
X7.1Y-3.57
X7.2Y-3.57
X7.3Y-3.57
T4
X6.58Y-2.13
X6.58Y-2.83
X6.68Y-2.13
X6.68Y-2.83
X6.78Y-2.13
X6.78Y-2.83
X6.88Y-2.13
X6.88Y-2.83
X6.98Y-2.13
X6.98Y-2.83
X7.08Y-2.13
X7.08Y-2.83
X7.18Y-2.13
X7.18Y-2.83
X7.28Y-2.13
X7.28Y-2.83
X7.38Y-2.13
X7.38Y-2.83
X7.48Y-2.13
X7.48Y-2.83
X7.58Y-2.13
X7.58Y-2.83
X7.68Y-2.13
X7.68Y-2.83
T5
X7.57Y-3.58
X7.67Y-3.58
X7.77Y-3.58
T0
M30
