G04 #@! TF.FileFunction,Profile,NP*
%FSLAX46Y46*%
G04 Gerber Fmt 4.6, Leading zero omitted, Abs format (unit mm)*
G04 Created by KiCad (PCBNEW 4.0.5) date 07/13/18 00:02:14*
%MOMM*%
%LPD*%
G01*
G04 APERTURE LIST*
%ADD10C,0.100000*%
G04 APERTURE END LIST*
D10*
X160960002Y-121332000D02*
X157480000Y-121332000D01*
X200160000Y-121332000D02*
X203200002Y-121332000D01*
X200160000Y-121332000D02*
X203200002Y-121332000D01*
X200160002Y-122856000D02*
X200160000Y-121332000D01*
X160960002Y-122856000D02*
X200160002Y-122856000D01*
X160960002Y-121332000D02*
X160960002Y-122856000D01*
X157480000Y-121332000D02*
X160960002Y-121332000D01*
X152400000Y-126412000D02*
G75*
G02X157480000Y-121332000I5080000J0D01*
G01*
X152400000Y-130222000D02*
X152400000Y-126412000D01*
X154940001Y-130222000D02*
X152400000Y-130222000D01*
X154940000Y-130221999D02*
G75*
G02X166310228Y-133162781I5080000J-3810001D01*
G01*
X168934983Y-134032000D02*
X166310228Y-133162781D01*
X173990001Y-134032000D02*
X168934983Y-134032000D01*
X175260001Y-132762000D02*
G75*
G02X173990001Y-134032000I-1270000J0D01*
G01*
X175260001Y-130222000D02*
X175260001Y-132762000D01*
X175260001Y-130222000D02*
G75*
G02X176530001Y-128952000I1270000J0D01*
G01*
X184150001Y-128952000D02*
X176530001Y-128952000D01*
X184150001Y-128952000D02*
G75*
G02X185420001Y-130222000I0J-1270000D01*
G01*
X185420001Y-132762000D02*
X185420001Y-130222000D01*
X186690001Y-134032000D02*
G75*
G02X185420001Y-132762000I0J1270000D01*
G01*
X191769999Y-134032000D02*
X186690001Y-134032000D01*
X194369393Y-133165535D02*
X191769999Y-134032000D01*
X194369393Y-133165534D02*
G75*
G02X205740000Y-130222000I6290607J-866466D01*
G01*
X208280002Y-130222000D02*
X205740000Y-130222000D01*
X208280002Y-126412000D02*
X208280002Y-130222000D01*
X203200002Y-121332000D02*
G75*
G02X208280002Y-126412000I0J-5080000D01*
G01*
X160960002Y-106854000D02*
X157480000Y-106854000D01*
X200160000Y-106854000D02*
X203200002Y-106854000D01*
X200160000Y-106854000D02*
X203200002Y-106854000D01*
X200160002Y-108378000D02*
X200160000Y-106854000D01*
X160960002Y-108378000D02*
X200160002Y-108378000D01*
X160960002Y-106854000D02*
X160960002Y-108378000D01*
X157480000Y-106854000D02*
X160960002Y-106854000D01*
X152400000Y-111934000D02*
G75*
G02X157480000Y-106854000I5080000J0D01*
G01*
X152400000Y-115744000D02*
X152400000Y-111934000D01*
X154940001Y-115744000D02*
X152400000Y-115744000D01*
X154940000Y-115743999D02*
G75*
G02X166310228Y-118684781I5080000J-3810001D01*
G01*
X168934983Y-119554000D02*
X166310228Y-118684781D01*
X173990001Y-119554000D02*
X168934983Y-119554000D01*
X175260001Y-118284000D02*
G75*
G02X173990001Y-119554000I-1270000J0D01*
G01*
X175260001Y-115744000D02*
X175260001Y-118284000D01*
X175260001Y-115744000D02*
G75*
G02X176530001Y-114474000I1270000J0D01*
G01*
X184150001Y-114474000D02*
X176530001Y-114474000D01*
X184150001Y-114474000D02*
G75*
G02X185420001Y-115744000I0J-1270000D01*
G01*
X185420001Y-118284000D02*
X185420001Y-115744000D01*
X186690001Y-119554000D02*
G75*
G02X185420001Y-118284000I0J1270000D01*
G01*
X191769999Y-119554000D02*
X186690001Y-119554000D01*
X194369393Y-118687535D02*
X191769999Y-119554000D01*
X194369393Y-118687534D02*
G75*
G02X205740000Y-115744000I6290607J-866466D01*
G01*
X208280002Y-115744000D02*
X205740000Y-115744000D01*
X208280002Y-111934000D02*
X208280002Y-115744000D01*
X203200002Y-106854000D02*
G75*
G02X208280002Y-111934000I0J-5080000D01*
G01*
X201153788Y-54803625D02*
X201154962Y-54803625D01*
X201153788Y-53203576D02*
X201153788Y-54803625D01*
X201153788Y-53203576D02*
X201841100Y-53203576D01*
X161201100Y-54803603D02*
X161201100Y-54803603D01*
X161942870Y-53203599D02*
X161944138Y-53203599D01*
X158501100Y-52003600D02*
G75*
G02X160501100Y-50003600I2000000J0D01*
G01*
X158501100Y-53203601D02*
X158501100Y-52003600D01*
X161944138Y-53203599D02*
X158501100Y-53203601D01*
X161944138Y-54803603D02*
X161944138Y-53203599D01*
X161944139Y-54803603D02*
X161944138Y-54803603D01*
X161944138Y-54803603D02*
X161944139Y-54803603D01*
X161944138Y-75003600D02*
X161944138Y-54803603D01*
X163501100Y-75003600D02*
X161944138Y-75003600D01*
X163501100Y-80003600D02*
X163501100Y-75003600D01*
X161944138Y-80003600D02*
X163501100Y-80003600D01*
X161944138Y-98203599D02*
X161944138Y-80003600D01*
X161944138Y-99803599D02*
X161944138Y-98203599D01*
X161944138Y-100003600D02*
X161944138Y-99803599D01*
X158501100Y-100003600D02*
X161944138Y-100003600D01*
X158501100Y-104003600D02*
X158501100Y-100003600D01*
X163501100Y-105003600D02*
X158501100Y-104003600D01*
X199501101Y-105003600D02*
X163501100Y-105003600D01*
X204501101Y-104003600D02*
X199501101Y-105003600D01*
X204501101Y-100003600D02*
X204501101Y-104003600D01*
X201153788Y-100003600D02*
X204501101Y-100003600D01*
X201153788Y-99803599D02*
X201153788Y-100003600D01*
X201153788Y-98203599D02*
X201153788Y-99803599D01*
X201153788Y-80003600D02*
X201153788Y-98203599D01*
X199501101Y-80003600D02*
X201153788Y-80003600D01*
X199501101Y-75003600D02*
X199501101Y-80003600D01*
X201153788Y-75003600D02*
X199501101Y-75003600D01*
X201153788Y-54803625D02*
X201153788Y-75003600D01*
X201153788Y-53203576D02*
X201153788Y-54803625D01*
X204501101Y-53203574D02*
X201153788Y-53203576D01*
X204501101Y-52003600D02*
X204501101Y-53203574D01*
X202501101Y-50003600D02*
G75*
G02X204501101Y-52003600I0J-2000000D01*
G01*
X160501100Y-50003600D02*
X202501101Y-50003600D01*
X161201100Y-50003599D02*
X201841100Y-50003599D01*
M02*
