G04 #@! TF.FileFunction,Soldermask,Bot*
%FSLAX46Y46*%
G04 Gerber Fmt 4.6, Leading zero omitted, Abs format (unit mm)*
G04 Created by KiCad (PCBNEW 4.0.5) date 07/13/18 00:02:14*
%MOMM*%
%LPD*%
G01*
G04 APERTURE LIST*
%ADD10C,0.100000*%
%ADD11O,2.432000X2.940000*%
%ADD12R,2.250000X2.250000*%
%ADD13C,2.250000*%
%ADD14R,2.200000X2.200000*%
%ADD15O,2.200000X2.200000*%
%ADD16C,2.300000*%
%ADD17R,2.000000X2.000000*%
%ADD18C,2.000000*%
%ADD19C,0.254000*%
G04 APERTURE END LIST*
D10*
D11*
X194818000Y-90932000D03*
X197358000Y-90932000D03*
X192278000Y-90932000D03*
D12*
X182880000Y-97536000D03*
D13*
X180380000Y-97536000D03*
D12*
X195072000Y-97536000D03*
D13*
X192572000Y-97536000D03*
X190072000Y-97536000D03*
D14*
X180340000Y-90678000D03*
D15*
X182880000Y-90678000D03*
X185420000Y-90678000D03*
D16*
X195072000Y-54102000D03*
X192532000Y-54102000D03*
X189992000Y-54102000D03*
X187452000Y-54102000D03*
X184912000Y-54102000D03*
X182372000Y-54102000D03*
X179832000Y-54102000D03*
X177292000Y-54102000D03*
X174752000Y-54102000D03*
X172212000Y-54102000D03*
X169672000Y-54102000D03*
X167132000Y-54102000D03*
X195072000Y-71882000D03*
X192532000Y-71882000D03*
X189992000Y-71882000D03*
X187452000Y-71882000D03*
X184912000Y-71882000D03*
X182372000Y-71882000D03*
X179832000Y-71882000D03*
X177292000Y-71882000D03*
X174752000Y-71882000D03*
X172212000Y-71882000D03*
X169672000Y-71882000D03*
X167132000Y-71882000D03*
D17*
X170688000Y-84328000D03*
D18*
X168188000Y-84328000D03*
D12*
X171450000Y-97536000D03*
D13*
X168950000Y-97536000D03*
D19*
G36*
X160401000Y-123444000D02*
X160411006Y-123493410D01*
X160439447Y-123535035D01*
X160481841Y-123562315D01*
X160528000Y-123571000D01*
X200660000Y-123571000D01*
X200709410Y-123560994D01*
X200751035Y-123532553D01*
X200778315Y-123490159D01*
X200787000Y-123444000D01*
X200787000Y-121793000D01*
X203581000Y-121793000D01*
X203581000Y-124587000D01*
X157353000Y-124587000D01*
X157353000Y-121793000D01*
X160401000Y-121793000D01*
X160401000Y-123444000D01*
X160401000Y-123444000D01*
G37*
X160401000Y-123444000D02*
X160411006Y-123493410D01*
X160439447Y-123535035D01*
X160481841Y-123562315D01*
X160528000Y-123571000D01*
X200660000Y-123571000D01*
X200709410Y-123560994D01*
X200751035Y-123532553D01*
X200778315Y-123490159D01*
X200787000Y-123444000D01*
X200787000Y-121793000D01*
X203581000Y-121793000D01*
X203581000Y-124587000D01*
X157353000Y-124587000D01*
X157353000Y-121793000D01*
X160401000Y-121793000D01*
X160401000Y-123444000D01*
G36*
X160401000Y-108966000D02*
X160411006Y-109015410D01*
X160439447Y-109057035D01*
X160481841Y-109084315D01*
X160528000Y-109093000D01*
X200660000Y-109093000D01*
X200709410Y-109082994D01*
X200751035Y-109054553D01*
X200778315Y-109012159D01*
X200787000Y-108966000D01*
X200787000Y-107569000D01*
X204089000Y-107569000D01*
X204089000Y-110109000D01*
X157099000Y-110109000D01*
X157099000Y-107569000D01*
X160401000Y-107569000D01*
X160401000Y-108966000D01*
X160401000Y-108966000D01*
G37*
X160401000Y-108966000D02*
X160411006Y-109015410D01*
X160439447Y-109057035D01*
X160481841Y-109084315D01*
X160528000Y-109093000D01*
X200660000Y-109093000D01*
X200709410Y-109082994D01*
X200751035Y-109054553D01*
X200778315Y-109012159D01*
X200787000Y-108966000D01*
X200787000Y-107569000D01*
X204089000Y-107569000D01*
X204089000Y-110109000D01*
X157099000Y-110109000D01*
X157099000Y-107569000D01*
X160401000Y-107569000D01*
X160401000Y-108966000D01*
G36*
X163449000Y-101473000D02*
X159639000Y-101473000D01*
X159639000Y-100203000D01*
X163449000Y-100203000D01*
X163449000Y-101473000D01*
X163449000Y-101473000D01*
G37*
X163449000Y-101473000D02*
X159639000Y-101473000D01*
X159639000Y-100203000D01*
X163449000Y-100203000D01*
X163449000Y-101473000D01*
G36*
X203073000Y-101473000D02*
X199263000Y-101473000D01*
X199263000Y-100203000D01*
X203073000Y-100203000D01*
X203073000Y-101473000D01*
X203073000Y-101473000D01*
G37*
X203073000Y-101473000D02*
X199263000Y-101473000D01*
X199263000Y-100203000D01*
X203073000Y-100203000D01*
X203073000Y-101473000D01*
G36*
X203073000Y-52959000D02*
X199263000Y-52959000D01*
X199263000Y-51689000D01*
X203073000Y-51689000D01*
X203073000Y-52959000D01*
X203073000Y-52959000D01*
G37*
X203073000Y-52959000D02*
X199263000Y-52959000D01*
X199263000Y-51689000D01*
X203073000Y-51689000D01*
X203073000Y-52959000D01*
G36*
X163449000Y-52959000D02*
X159639000Y-52959000D01*
X159639000Y-51943000D01*
X163449000Y-51943000D01*
X163449000Y-52959000D01*
X163449000Y-52959000D01*
G37*
X163449000Y-52959000D02*
X159639000Y-52959000D01*
X159639000Y-51943000D01*
X163449000Y-51943000D01*
X163449000Y-52959000D01*
M02*
