G04 #@! TF.FileFunction,Legend,Top*
%FSLAX46Y46*%
G04 Gerber Fmt 4.6, Leading zero omitted, Abs format (unit mm)*
G04 Created by KiCad (PCBNEW 4.0.5) date 07/13/18 00:02:14*
%MOMM*%
%LPD*%
G01*
G04 APERTURE LIST*
%ADD10C,0.100000*%
%ADD11C,0.150000*%
%ADD12C,0.120000*%
G04 APERTURE END LIST*
D10*
D11*
X199644000Y-89281000D02*
X199644000Y-92710000D01*
X189992000Y-89281000D02*
X189992000Y-92710000D01*
X200152000Y-88138000D02*
X189484000Y-88138000D01*
X196596000Y-89154000D02*
X196596000Y-87884000D01*
X193040000Y-89154000D02*
X193040000Y-87884000D01*
X189484000Y-89281000D02*
X200152000Y-89281000D01*
X200152000Y-92710000D02*
X189484000Y-92710000D01*
X189484000Y-87884000D02*
X189484000Y-92710000D01*
X200152000Y-87884000D02*
X200152000Y-92710000D01*
X200152000Y-87884000D02*
X189484000Y-87884000D01*
D12*
X184030000Y-98086000D02*
X184030000Y-95886000D01*
X184030000Y-95886000D02*
X185530000Y-95886000D01*
X185530000Y-95886000D02*
X185530000Y-104386000D01*
X185530000Y-104386000D02*
X177730000Y-104386000D01*
X177730000Y-104386000D02*
X177730000Y-95886000D01*
X177730000Y-95886000D02*
X179230000Y-95886000D01*
X179230000Y-95886000D02*
X179230000Y-98086000D01*
X185530000Y-102886000D02*
X184030000Y-102886000D01*
X184030000Y-102886000D02*
X184030000Y-98086000D01*
X184030000Y-98086000D02*
X185530000Y-98086000D01*
X177730000Y-102886000D02*
X179230000Y-102886000D01*
X179230000Y-102886000D02*
X179230000Y-98086000D01*
X179230000Y-98086000D02*
X177730000Y-98086000D01*
X184030000Y-100036000D02*
X179230000Y-100036000D01*
X184030000Y-99036000D02*
X179230000Y-99036000D01*
X182880000Y-100036000D02*
X183200000Y-100036000D01*
X183200000Y-100036000D02*
X183200000Y-103456000D01*
X183200000Y-103456000D02*
X182880000Y-103536000D01*
X182880000Y-103536000D02*
X182560000Y-103456000D01*
X182560000Y-103456000D02*
X182560000Y-100036000D01*
X182560000Y-100036000D02*
X182880000Y-100036000D01*
X180380000Y-100036000D02*
X180700000Y-100036000D01*
X180700000Y-100036000D02*
X180700000Y-103456000D01*
X180700000Y-103456000D02*
X180380000Y-103536000D01*
X180380000Y-103536000D02*
X180060000Y-103456000D01*
X180060000Y-103456000D02*
X180060000Y-100036000D01*
X180060000Y-100036000D02*
X180380000Y-100036000D01*
X182880000Y-96036000D02*
X183180000Y-95436000D01*
X183180000Y-95436000D02*
X182580000Y-95436000D01*
X182580000Y-95436000D02*
X182880000Y-96036000D01*
X196222000Y-98086000D02*
X196222000Y-95886000D01*
X196222000Y-95886000D02*
X197722000Y-95886000D01*
X197722000Y-95886000D02*
X197722000Y-104386000D01*
X197722000Y-104386000D02*
X187422000Y-104386000D01*
X187422000Y-104386000D02*
X187422000Y-95886000D01*
X187422000Y-95886000D02*
X188922000Y-95886000D01*
X188922000Y-95886000D02*
X188922000Y-98086000D01*
X197722000Y-102886000D02*
X196222000Y-102886000D01*
X196222000Y-102886000D02*
X196222000Y-98086000D01*
X196222000Y-98086000D02*
X197722000Y-98086000D01*
X187422000Y-102886000D02*
X188922000Y-102886000D01*
X188922000Y-102886000D02*
X188922000Y-98086000D01*
X188922000Y-98086000D02*
X187422000Y-98086000D01*
X196222000Y-100036000D02*
X188922000Y-100036000D01*
X196222000Y-99036000D02*
X188922000Y-99036000D01*
X195072000Y-100036000D02*
X195392000Y-100036000D01*
X195392000Y-100036000D02*
X195392000Y-103456000D01*
X195392000Y-103456000D02*
X195072000Y-103536000D01*
X195072000Y-103536000D02*
X194752000Y-103456000D01*
X194752000Y-103456000D02*
X194752000Y-100036000D01*
X194752000Y-100036000D02*
X195072000Y-100036000D01*
X192572000Y-100036000D02*
X192892000Y-100036000D01*
X192892000Y-100036000D02*
X192892000Y-103456000D01*
X192892000Y-103456000D02*
X192572000Y-103536000D01*
X192572000Y-103536000D02*
X192252000Y-103456000D01*
X192252000Y-103456000D02*
X192252000Y-100036000D01*
X192252000Y-100036000D02*
X192572000Y-100036000D01*
X190072000Y-100036000D02*
X190392000Y-100036000D01*
X190392000Y-100036000D02*
X190392000Y-103456000D01*
X190392000Y-103456000D02*
X190072000Y-103536000D01*
X190072000Y-103536000D02*
X189752000Y-103456000D01*
X189752000Y-103456000D02*
X189752000Y-100036000D01*
X189752000Y-100036000D02*
X190072000Y-100036000D01*
X195072000Y-96036000D02*
X195372000Y-95436000D01*
X195372000Y-95436000D02*
X194772000Y-95436000D01*
X194772000Y-95436000D02*
X195072000Y-96036000D01*
X177760000Y-88058000D02*
X188000000Y-88058000D01*
X177760000Y-92699000D02*
X188000000Y-92699000D01*
X177760000Y-88058000D02*
X177760000Y-92699000D01*
X188000000Y-88058000D02*
X188000000Y-92699000D01*
X177760000Y-89568000D02*
X188000000Y-89568000D01*
X181030000Y-88058000D02*
X181030000Y-89568000D01*
X184731000Y-88058000D02*
X184731000Y-89568000D01*
D11*
X165862000Y-73152000D02*
X162814000Y-71628000D01*
X165862000Y-52832000D02*
X162814000Y-54356000D01*
X162814000Y-54356000D02*
X162814000Y-71628000D01*
X199390000Y-73152000D02*
X165862000Y-73152000D01*
X199390000Y-52832000D02*
X165862000Y-52832000D01*
X199390000Y-67005200D02*
X199390000Y-73152000D01*
X199390000Y-58978800D02*
X199390000Y-52832000D01*
X201295000Y-58978800D02*
X199390000Y-58978800D01*
X201295000Y-67005200D02*
X199390000Y-67005200D01*
X201295000Y-58978800D02*
X201295000Y-67005200D01*
D12*
X176110000Y-84320000D02*
X176110000Y-83320000D01*
X174410000Y-83320000D02*
X174410000Y-84320000D01*
X166420180Y-85507136D02*
G75*
G03X172455482Y-85508000I3017820J1179136D01*
G01*
X166420180Y-83148864D02*
G75*
G02X172455482Y-83148000I3017820J-1179136D01*
G01*
X166420180Y-83148864D02*
G75*
G03X166420518Y-85508000I3017820J-1179136D01*
G01*
X169438000Y-87528000D02*
X169438000Y-81128000D01*
X169398000Y-87528000D02*
X169398000Y-81128000D01*
X169358000Y-87528000D02*
X169358000Y-81128000D01*
X169318000Y-87526000D02*
X169318000Y-81130000D01*
X169278000Y-87525000D02*
X169278000Y-81131000D01*
X169238000Y-87522000D02*
X169238000Y-81134000D01*
X169198000Y-87520000D02*
X169198000Y-81136000D01*
X169158000Y-87516000D02*
X169158000Y-85308000D01*
X169158000Y-83348000D02*
X169158000Y-81140000D01*
X169118000Y-87513000D02*
X169118000Y-85308000D01*
X169118000Y-83348000D02*
X169118000Y-81143000D01*
X169078000Y-87508000D02*
X169078000Y-85308000D01*
X169078000Y-83348000D02*
X169078000Y-81148000D01*
X169038000Y-87504000D02*
X169038000Y-85308000D01*
X169038000Y-83348000D02*
X169038000Y-81152000D01*
X168998000Y-87498000D02*
X168998000Y-85308000D01*
X168998000Y-83348000D02*
X168998000Y-81158000D01*
X168958000Y-87493000D02*
X168958000Y-85308000D01*
X168958000Y-83348000D02*
X168958000Y-81163000D01*
X168918000Y-87486000D02*
X168918000Y-85308000D01*
X168918000Y-83348000D02*
X168918000Y-81170000D01*
X168878000Y-87480000D02*
X168878000Y-85308000D01*
X168878000Y-83348000D02*
X168878000Y-81176000D01*
X168838000Y-87472000D02*
X168838000Y-85308000D01*
X168838000Y-83348000D02*
X168838000Y-81184000D01*
X168798000Y-87465000D02*
X168798000Y-85308000D01*
X168798000Y-83348000D02*
X168798000Y-81191000D01*
X168758000Y-87456000D02*
X168758000Y-85308000D01*
X168758000Y-83348000D02*
X168758000Y-81200000D01*
X168717000Y-87447000D02*
X168717000Y-85308000D01*
X168717000Y-83348000D02*
X168717000Y-81209000D01*
X168677000Y-87438000D02*
X168677000Y-85308000D01*
X168677000Y-83348000D02*
X168677000Y-81218000D01*
X168637000Y-87428000D02*
X168637000Y-85308000D01*
X168637000Y-83348000D02*
X168637000Y-81228000D01*
X168597000Y-87418000D02*
X168597000Y-85308000D01*
X168597000Y-83348000D02*
X168597000Y-81238000D01*
X168557000Y-87407000D02*
X168557000Y-85308000D01*
X168557000Y-83348000D02*
X168557000Y-81249000D01*
X168517000Y-87395000D02*
X168517000Y-85308000D01*
X168517000Y-83348000D02*
X168517000Y-81261000D01*
X168477000Y-87383000D02*
X168477000Y-85308000D01*
X168477000Y-83348000D02*
X168477000Y-81273000D01*
X168437000Y-87370000D02*
X168437000Y-85308000D01*
X168437000Y-83348000D02*
X168437000Y-81286000D01*
X168397000Y-87357000D02*
X168397000Y-85308000D01*
X168397000Y-83348000D02*
X168397000Y-81299000D01*
X168357000Y-87343000D02*
X168357000Y-85308000D01*
X168357000Y-83348000D02*
X168357000Y-81313000D01*
X168317000Y-87329000D02*
X168317000Y-85308000D01*
X168317000Y-83348000D02*
X168317000Y-81327000D01*
X168277000Y-87314000D02*
X168277000Y-85308000D01*
X168277000Y-83348000D02*
X168277000Y-81342000D01*
X168237000Y-87298000D02*
X168237000Y-85308000D01*
X168237000Y-83348000D02*
X168237000Y-81358000D01*
X168197000Y-87282000D02*
X168197000Y-85308000D01*
X168197000Y-83348000D02*
X168197000Y-81374000D01*
X168157000Y-87265000D02*
X168157000Y-85308000D01*
X168157000Y-83348000D02*
X168157000Y-81391000D01*
X168117000Y-87247000D02*
X168117000Y-85308000D01*
X168117000Y-83348000D02*
X168117000Y-81409000D01*
X168077000Y-87229000D02*
X168077000Y-85308000D01*
X168077000Y-83348000D02*
X168077000Y-81427000D01*
X168037000Y-87210000D02*
X168037000Y-85308000D01*
X168037000Y-83348000D02*
X168037000Y-81446000D01*
X167997000Y-87191000D02*
X167997000Y-85308000D01*
X167997000Y-83348000D02*
X167997000Y-81465000D01*
X167957000Y-87171000D02*
X167957000Y-85308000D01*
X167957000Y-83348000D02*
X167957000Y-81485000D01*
X167917000Y-87150000D02*
X167917000Y-85308000D01*
X167917000Y-83348000D02*
X167917000Y-81506000D01*
X167877000Y-87128000D02*
X167877000Y-85308000D01*
X167877000Y-83348000D02*
X167877000Y-81528000D01*
X167837000Y-87106000D02*
X167837000Y-85308000D01*
X167837000Y-83348000D02*
X167837000Y-81550000D01*
X167797000Y-87083000D02*
X167797000Y-85308000D01*
X167797000Y-83348000D02*
X167797000Y-81573000D01*
X167757000Y-87059000D02*
X167757000Y-85308000D01*
X167757000Y-83348000D02*
X167757000Y-81597000D01*
X167717000Y-87034000D02*
X167717000Y-85308000D01*
X167717000Y-83348000D02*
X167717000Y-81622000D01*
X167677000Y-87009000D02*
X167677000Y-85308000D01*
X167677000Y-83348000D02*
X167677000Y-81647000D01*
X167637000Y-86982000D02*
X167637000Y-85308000D01*
X167637000Y-83348000D02*
X167637000Y-81674000D01*
X167597000Y-86955000D02*
X167597000Y-85308000D01*
X167597000Y-83348000D02*
X167597000Y-81701000D01*
X167557000Y-86927000D02*
X167557000Y-85308000D01*
X167557000Y-83348000D02*
X167557000Y-81729000D01*
X167517000Y-86898000D02*
X167517000Y-85308000D01*
X167517000Y-83348000D02*
X167517000Y-81758000D01*
X167477000Y-86868000D02*
X167477000Y-85308000D01*
X167477000Y-83348000D02*
X167477000Y-81788000D01*
X167437000Y-86838000D02*
X167437000Y-85308000D01*
X167437000Y-83348000D02*
X167437000Y-81818000D01*
X167397000Y-86806000D02*
X167397000Y-85308000D01*
X167397000Y-83348000D02*
X167397000Y-81850000D01*
X167357000Y-86773000D02*
X167357000Y-85308000D01*
X167357000Y-83348000D02*
X167357000Y-81883000D01*
X167317000Y-86739000D02*
X167317000Y-85308000D01*
X167317000Y-83348000D02*
X167317000Y-81917000D01*
X167277000Y-86703000D02*
X167277000Y-85308000D01*
X167277000Y-83348000D02*
X167277000Y-81953000D01*
X167237000Y-86667000D02*
X167237000Y-85308000D01*
X167237000Y-83348000D02*
X167237000Y-81989000D01*
X167197000Y-86629000D02*
X167197000Y-82027000D01*
X167157000Y-86590000D02*
X167157000Y-82066000D01*
X167117000Y-86550000D02*
X167117000Y-82106000D01*
X167077000Y-86508000D02*
X167077000Y-82148000D01*
X167037000Y-86465000D02*
X167037000Y-82191000D01*
X166997000Y-86420000D02*
X166997000Y-82236000D01*
X166957000Y-86373000D02*
X166957000Y-82283000D01*
X166917000Y-86325000D02*
X166917000Y-82331000D01*
X166877000Y-86274000D02*
X166877000Y-82382000D01*
X166837000Y-86222000D02*
X166837000Y-82434000D01*
X166797000Y-86167000D02*
X166797000Y-82489000D01*
X166757000Y-86109000D02*
X166757000Y-82547000D01*
X166717000Y-86049000D02*
X166717000Y-82607000D01*
X166677000Y-85986000D02*
X166677000Y-82670000D01*
X166637000Y-85919000D02*
X166637000Y-82737000D01*
X166597000Y-85848000D02*
X166597000Y-82808000D01*
X166557000Y-85773000D02*
X166557000Y-82883000D01*
X166517000Y-85692000D02*
X166517000Y-82964000D01*
X166477000Y-85606000D02*
X166477000Y-83050000D01*
X166437000Y-85512000D02*
X166437000Y-83144000D01*
X166397000Y-85409000D02*
X166397000Y-83247000D01*
X166357000Y-85294000D02*
X166357000Y-83362000D01*
X166317000Y-85162000D02*
X166317000Y-83494000D01*
X166277000Y-85004000D02*
X166277000Y-83652000D01*
X166237000Y-84796000D02*
X166237000Y-83860000D01*
X172888000Y-84328000D02*
X171688000Y-84328000D01*
X172288000Y-84978000D02*
X172288000Y-83678000D01*
X172600000Y-98086000D02*
X172600000Y-95886000D01*
X172600000Y-95886000D02*
X174100000Y-95886000D01*
X174100000Y-95886000D02*
X174100000Y-104386000D01*
X174100000Y-104386000D02*
X166300000Y-104386000D01*
X166300000Y-104386000D02*
X166300000Y-95886000D01*
X166300000Y-95886000D02*
X167800000Y-95886000D01*
X167800000Y-95886000D02*
X167800000Y-98086000D01*
X174100000Y-102886000D02*
X172600000Y-102886000D01*
X172600000Y-102886000D02*
X172600000Y-98086000D01*
X172600000Y-98086000D02*
X174100000Y-98086000D01*
X166300000Y-102886000D02*
X167800000Y-102886000D01*
X167800000Y-102886000D02*
X167800000Y-98086000D01*
X167800000Y-98086000D02*
X166300000Y-98086000D01*
X172600000Y-100036000D02*
X167800000Y-100036000D01*
X172600000Y-99036000D02*
X167800000Y-99036000D01*
X171450000Y-100036000D02*
X171770000Y-100036000D01*
X171770000Y-100036000D02*
X171770000Y-103456000D01*
X171770000Y-103456000D02*
X171450000Y-103536000D01*
X171450000Y-103536000D02*
X171130000Y-103456000D01*
X171130000Y-103456000D02*
X171130000Y-100036000D01*
X171130000Y-100036000D02*
X171450000Y-100036000D01*
X168950000Y-100036000D02*
X169270000Y-100036000D01*
X169270000Y-100036000D02*
X169270000Y-103456000D01*
X169270000Y-103456000D02*
X168950000Y-103536000D01*
X168950000Y-103536000D02*
X168630000Y-103456000D01*
X168630000Y-103456000D02*
X168630000Y-100036000D01*
X168630000Y-100036000D02*
X168950000Y-100036000D01*
X171450000Y-96036000D02*
X171750000Y-95436000D01*
X171750000Y-95436000D02*
X171150000Y-95436000D01*
X171150000Y-95436000D02*
X171450000Y-96036000D01*
D11*
X194722762Y-87415619D02*
X194627524Y-87368000D01*
X194532286Y-87272762D01*
X194389429Y-87129905D01*
X194294190Y-87082286D01*
X194198952Y-87082286D01*
X194246571Y-87320381D02*
X194151333Y-87272762D01*
X194056095Y-87177524D01*
X194008476Y-86987048D01*
X194008476Y-86653714D01*
X194056095Y-86463238D01*
X194151333Y-86368000D01*
X194246571Y-86320381D01*
X194437048Y-86320381D01*
X194532286Y-86368000D01*
X194627524Y-86463238D01*
X194675143Y-86653714D01*
X194675143Y-86987048D01*
X194627524Y-87177524D01*
X194532286Y-87272762D01*
X194437048Y-87320381D01*
X194246571Y-87320381D01*
X195627524Y-87320381D02*
X195056095Y-87320381D01*
X195341809Y-87320381D02*
X195341809Y-86320381D01*
X195246571Y-86463238D01*
X195151333Y-86558476D01*
X195056095Y-86606095D01*
X183761143Y-94940381D02*
X183284952Y-94940381D01*
X183284952Y-93940381D01*
X184094476Y-94416571D02*
X184427810Y-94416571D01*
X184570667Y-94940381D02*
X184094476Y-94940381D01*
X184094476Y-93940381D01*
X184570667Y-93940381D01*
X184999238Y-94940381D02*
X184999238Y-93940381D01*
X185237333Y-93940381D01*
X185380191Y-93988000D01*
X185475429Y-94083238D01*
X185523048Y-94178476D01*
X185570667Y-94368952D01*
X185570667Y-94511810D01*
X185523048Y-94702286D01*
X185475429Y-94797524D01*
X185380191Y-94892762D01*
X185237333Y-94940381D01*
X184999238Y-94940381D01*
X194540381Y-94940381D02*
X194540381Y-93940381D01*
X194873715Y-94654667D01*
X195207048Y-93940381D01*
X195207048Y-94940381D01*
X195683238Y-94940381D02*
X195683238Y-93940381D01*
X196111809Y-94892762D02*
X196254666Y-94940381D01*
X196492762Y-94940381D01*
X196588000Y-94892762D01*
X196635619Y-94845143D01*
X196683238Y-94749905D01*
X196683238Y-94654667D01*
X196635619Y-94559429D01*
X196588000Y-94511810D01*
X196492762Y-94464190D01*
X196302285Y-94416571D01*
X196207047Y-94368952D01*
X196159428Y-94321333D01*
X196111809Y-94226095D01*
X196111809Y-94130857D01*
X196159428Y-94035619D01*
X196207047Y-93988000D01*
X196302285Y-93940381D01*
X196540381Y-93940381D01*
X196683238Y-93988000D01*
X197683238Y-94845143D02*
X197635619Y-94892762D01*
X197492762Y-94940381D01*
X197397524Y-94940381D01*
X197254666Y-94892762D01*
X197159428Y-94797524D01*
X197111809Y-94702286D01*
X197064190Y-94511810D01*
X197064190Y-94368952D01*
X197111809Y-94178476D01*
X197159428Y-94083238D01*
X197254666Y-93988000D01*
X197397524Y-93940381D01*
X197492762Y-93940381D01*
X197635619Y-93988000D01*
X197683238Y-94035619D01*
X182118095Y-86510381D02*
X182118095Y-87319905D01*
X182165714Y-87415143D01*
X182213333Y-87462762D01*
X182308571Y-87510381D01*
X182499048Y-87510381D01*
X182594286Y-87462762D01*
X182641905Y-87415143D01*
X182689524Y-87319905D01*
X182689524Y-86510381D01*
X183689524Y-87510381D02*
X183118095Y-87510381D01*
X183403809Y-87510381D02*
X183403809Y-86510381D01*
X183308571Y-86653238D01*
X183213333Y-86748476D01*
X183118095Y-86796095D01*
X195794381Y-63753905D02*
X196603905Y-63753905D01*
X196699143Y-63706286D01*
X196746762Y-63658667D01*
X196794381Y-63563429D01*
X196794381Y-63372952D01*
X196746762Y-63277714D01*
X196699143Y-63230095D01*
X196603905Y-63182476D01*
X195794381Y-63182476D01*
X195889619Y-62753905D02*
X195842000Y-62706286D01*
X195794381Y-62611048D01*
X195794381Y-62372952D01*
X195842000Y-62277714D01*
X195889619Y-62230095D01*
X195984857Y-62182476D01*
X196080095Y-62182476D01*
X196222952Y-62230095D01*
X196794381Y-62801524D01*
X196794381Y-62182476D01*
X194254381Y-65730095D02*
X193254381Y-65730095D01*
X193254381Y-65349142D01*
X193302000Y-65253904D01*
X193349619Y-65206285D01*
X193444857Y-65158666D01*
X193587714Y-65158666D01*
X193682952Y-65206285D01*
X193730571Y-65253904D01*
X193778190Y-65349142D01*
X193778190Y-65730095D01*
X194254381Y-64730095D02*
X193254381Y-64730095D01*
X193730571Y-64730095D02*
X193730571Y-64158666D01*
X194254381Y-64158666D02*
X193254381Y-64158666D01*
X193254381Y-63492000D02*
X193254381Y-63301523D01*
X193302000Y-63206285D01*
X193397238Y-63111047D01*
X193587714Y-63063428D01*
X193921048Y-63063428D01*
X194111524Y-63111047D01*
X194206762Y-63206285D01*
X194254381Y-63301523D01*
X194254381Y-63492000D01*
X194206762Y-63587238D01*
X194111524Y-63682476D01*
X193921048Y-63730095D01*
X193587714Y-63730095D01*
X193397238Y-63682476D01*
X193302000Y-63587238D01*
X193254381Y-63492000D01*
X193254381Y-62777714D02*
X193254381Y-62206285D01*
X194254381Y-62492000D02*
X193254381Y-62492000D01*
X193254381Y-61682476D02*
X193254381Y-61491999D01*
X193302000Y-61396761D01*
X193397238Y-61301523D01*
X193587714Y-61253904D01*
X193921048Y-61253904D01*
X194111524Y-61301523D01*
X194206762Y-61396761D01*
X194254381Y-61491999D01*
X194254381Y-61682476D01*
X194206762Y-61777714D01*
X194111524Y-61872952D01*
X193921048Y-61920571D01*
X193587714Y-61920571D01*
X193397238Y-61872952D01*
X193302000Y-61777714D01*
X193254381Y-61682476D01*
X194254381Y-60825333D02*
X193254381Y-60825333D01*
X194254381Y-60253904D01*
X193254381Y-60253904D01*
X177367143Y-83986666D02*
X177414762Y-84034285D01*
X177462381Y-84177142D01*
X177462381Y-84272380D01*
X177414762Y-84415238D01*
X177319524Y-84510476D01*
X177224286Y-84558095D01*
X177033810Y-84605714D01*
X176890952Y-84605714D01*
X176700476Y-84558095D01*
X176605238Y-84510476D01*
X176510000Y-84415238D01*
X176462381Y-84272380D01*
X176462381Y-84177142D01*
X176510000Y-84034285D01*
X176557619Y-83986666D01*
X176557619Y-83605714D02*
X176510000Y-83558095D01*
X176462381Y-83462857D01*
X176462381Y-83224761D01*
X176510000Y-83129523D01*
X176557619Y-83081904D01*
X176652857Y-83034285D01*
X176748095Y-83034285D01*
X176890952Y-83081904D01*
X177462381Y-83653333D01*
X177462381Y-83034285D01*
X169271334Y-89145143D02*
X169223715Y-89192762D01*
X169080858Y-89240381D01*
X168985620Y-89240381D01*
X168842762Y-89192762D01*
X168747524Y-89097524D01*
X168699905Y-89002286D01*
X168652286Y-88811810D01*
X168652286Y-88668952D01*
X168699905Y-88478476D01*
X168747524Y-88383238D01*
X168842762Y-88288000D01*
X168985620Y-88240381D01*
X169080858Y-88240381D01*
X169223715Y-88288000D01*
X169271334Y-88335619D01*
X170223715Y-89240381D02*
X169652286Y-89240381D01*
X169938000Y-89240381D02*
X169938000Y-88240381D01*
X169842762Y-88383238D01*
X169747524Y-88478476D01*
X169652286Y-88526095D01*
X172402572Y-94940381D02*
X171831143Y-94940381D01*
X172116857Y-94940381D02*
X172116857Y-93940381D01*
X172021619Y-94083238D01*
X171926381Y-94178476D01*
X171831143Y-94226095D01*
X172783524Y-94035619D02*
X172831143Y-93988000D01*
X172926381Y-93940381D01*
X173164477Y-93940381D01*
X173259715Y-93988000D01*
X173307334Y-94035619D01*
X173354953Y-94130857D01*
X173354953Y-94226095D01*
X173307334Y-94368952D01*
X172735905Y-94940381D01*
X173354953Y-94940381D01*
X173688286Y-94273714D02*
X173926381Y-94940381D01*
X174164477Y-94273714D01*
M02*
