G04 #@! TF.FileFunction,Copper,L1,Top,Signal*
%FSLAX46Y46*%
G04 Gerber Fmt 4.6, Leading zero omitted, Abs format (unit mm)*
G04 Created by KiCad (PCBNEW 4.0.5) date 07/13/18 00:02:14*
%MOMM*%
%LPD*%
G01*
G04 APERTURE LIST*
%ADD10C,0.100000*%
%ADD11O,2.032000X2.540000*%
%ADD12R,1.850000X1.850000*%
%ADD13C,1.850000*%
%ADD14R,1.800000X1.800000*%
%ADD15O,1.800000X1.800000*%
%ADD16C,1.900000*%
%ADD17R,1.250000X1.500000*%
%ADD18R,1.600000X1.600000*%
%ADD19C,1.600000*%
%ADD20C,0.250000*%
%ADD21C,1.000000*%
%ADD22C,0.254000*%
G04 APERTURE END LIST*
D10*
D11*
X194818000Y-90932000D03*
X197358000Y-90932000D03*
X192278000Y-90932000D03*
D12*
X182880000Y-97536000D03*
D13*
X180380000Y-97536000D03*
D12*
X195072000Y-97536000D03*
D13*
X192572000Y-97536000D03*
X190072000Y-97536000D03*
D14*
X180340000Y-90678000D03*
D15*
X182880000Y-90678000D03*
X185420000Y-90678000D03*
D16*
X195072000Y-54102000D03*
X192532000Y-54102000D03*
X189992000Y-54102000D03*
X187452000Y-54102000D03*
X184912000Y-54102000D03*
X182372000Y-54102000D03*
X179832000Y-54102000D03*
X177292000Y-54102000D03*
X174752000Y-54102000D03*
X172212000Y-54102000D03*
X169672000Y-54102000D03*
X167132000Y-54102000D03*
X195072000Y-71882000D03*
X192532000Y-71882000D03*
X189992000Y-71882000D03*
X187452000Y-71882000D03*
X184912000Y-71882000D03*
X182372000Y-71882000D03*
X179832000Y-71882000D03*
X177292000Y-71882000D03*
X174752000Y-71882000D03*
X172212000Y-71882000D03*
X169672000Y-71882000D03*
X167132000Y-71882000D03*
D17*
X175260000Y-82570000D03*
X175260000Y-85070000D03*
D18*
X170688000Y-84328000D03*
D19*
X168188000Y-84328000D03*
D12*
X171450000Y-97536000D03*
D13*
X168950000Y-97536000D03*
D20*
X182372000Y-71882000D02*
X183134000Y-72644000D01*
X183134000Y-83566000D02*
X185674000Y-83566000D01*
X185674000Y-83566000D02*
X186182000Y-83566000D01*
X186182000Y-83566000D02*
X189992000Y-87376000D01*
X189992000Y-87376000D02*
X189992000Y-92710000D01*
X189992000Y-92710000D02*
X191516000Y-94234000D01*
X191516000Y-94234000D02*
X194564000Y-94234000D01*
X194564000Y-94234000D02*
X194564000Y-97028000D01*
X183134000Y-72644000D02*
X183134000Y-83566000D01*
X194564000Y-97028000D02*
X195072000Y-97536000D01*
D21*
X192532000Y-95250000D02*
X192572000Y-95290000D01*
X189992000Y-95250000D02*
X192532000Y-95250000D01*
X185420000Y-90678000D02*
X189992000Y-95250000D01*
X192572000Y-95290000D02*
X192572000Y-97536000D01*
X175260000Y-82570000D02*
X175280000Y-82550000D01*
X175280000Y-82550000D02*
X181356000Y-82550000D01*
X181356000Y-82550000D02*
X181356000Y-82804000D01*
X181356000Y-82804000D02*
X181356000Y-84836000D01*
X181356000Y-84836000D02*
X185420000Y-84836000D01*
X185420000Y-84836000D02*
X185420000Y-90678000D01*
D20*
X175220000Y-85110000D02*
X175260000Y-85070000D01*
D22*
G36*
X202999195Y-50801097D02*
X203421458Y-51083243D01*
X203703604Y-51505506D01*
X203816101Y-52071066D01*
X203816101Y-52518574D01*
X201153788Y-52518576D01*
X200891650Y-52570719D01*
X200669420Y-52719208D01*
X200520931Y-52941438D01*
X200468788Y-53203576D01*
X200468788Y-74318600D01*
X199501101Y-74318600D01*
X199238963Y-74370743D01*
X199016733Y-74519232D01*
X198868244Y-74741462D01*
X198816101Y-75003600D01*
X198816101Y-80003600D01*
X198868244Y-80265738D01*
X199016733Y-80487968D01*
X199238963Y-80636457D01*
X199501101Y-80688600D01*
X200468788Y-80688600D01*
X200468788Y-100003600D01*
X200520931Y-100265738D01*
X200669420Y-100487968D01*
X200891650Y-100636457D01*
X201153788Y-100688600D01*
X203602362Y-100688600D01*
X203589698Y-103487315D01*
X199433271Y-104318600D01*
X163568930Y-104318600D01*
X159186100Y-103442034D01*
X159186100Y-100688600D01*
X161944138Y-100688600D01*
X162206276Y-100636457D01*
X162428506Y-100487968D01*
X162576995Y-100265738D01*
X162629138Y-100003600D01*
X162629138Y-97844942D01*
X167389730Y-97844942D01*
X167626725Y-98418514D01*
X168065177Y-98857732D01*
X168638336Y-99095728D01*
X169258942Y-99096270D01*
X169832514Y-98859275D01*
X169952881Y-98739118D01*
X169986673Y-98820699D01*
X170165302Y-98999327D01*
X170398691Y-99096000D01*
X171164250Y-99096000D01*
X171323000Y-98937250D01*
X171323000Y-97663000D01*
X171577000Y-97663000D01*
X171577000Y-98937250D01*
X171735750Y-99096000D01*
X172501309Y-99096000D01*
X172734698Y-98999327D01*
X172913327Y-98820699D01*
X173010000Y-98587310D01*
X173010000Y-97844942D01*
X178819730Y-97844942D01*
X179056725Y-98418514D01*
X179495177Y-98857732D01*
X180068336Y-99095728D01*
X180688942Y-99096270D01*
X181262514Y-98859275D01*
X181380749Y-98741246D01*
X181490910Y-98912441D01*
X181703110Y-99057431D01*
X181955000Y-99108440D01*
X183805000Y-99108440D01*
X184040317Y-99064162D01*
X184256441Y-98925090D01*
X184401431Y-98712890D01*
X184417354Y-98634256D01*
X189153349Y-98634256D01*
X189242821Y-98893332D01*
X189825368Y-99107325D01*
X190445461Y-99082097D01*
X190901179Y-98893332D01*
X190990651Y-98634256D01*
X190072000Y-97715605D01*
X189153349Y-98634256D01*
X184417354Y-98634256D01*
X184452440Y-98461000D01*
X184452440Y-97289368D01*
X188500675Y-97289368D01*
X188525903Y-97909461D01*
X188714668Y-98365179D01*
X188973744Y-98454651D01*
X189892395Y-97536000D01*
X188973744Y-96617349D01*
X188714668Y-96706821D01*
X188500675Y-97289368D01*
X184452440Y-97289368D01*
X184452440Y-96611000D01*
X184408162Y-96375683D01*
X184269090Y-96159559D01*
X184056890Y-96014569D01*
X183805000Y-95963560D01*
X181955000Y-95963560D01*
X181719683Y-96007838D01*
X181503559Y-96146910D01*
X181379229Y-96328874D01*
X181264823Y-96214268D01*
X180691664Y-95976272D01*
X180071058Y-95975730D01*
X179497486Y-96212725D01*
X179058268Y-96651177D01*
X178820272Y-97224336D01*
X178819730Y-97844942D01*
X173010000Y-97844942D01*
X173010000Y-97821750D01*
X172851250Y-97663000D01*
X171577000Y-97663000D01*
X171323000Y-97663000D01*
X171303000Y-97663000D01*
X171303000Y-97409000D01*
X171323000Y-97409000D01*
X171323000Y-96134750D01*
X171577000Y-96134750D01*
X171577000Y-97409000D01*
X172851250Y-97409000D01*
X173010000Y-97250250D01*
X173010000Y-96484690D01*
X172913327Y-96251301D01*
X172734698Y-96072673D01*
X172501309Y-95976000D01*
X171735750Y-95976000D01*
X171577000Y-96134750D01*
X171323000Y-96134750D01*
X171164250Y-95976000D01*
X170398691Y-95976000D01*
X170165302Y-96072673D01*
X169986673Y-96251301D01*
X169952983Y-96332635D01*
X169834823Y-96214268D01*
X169261664Y-95976272D01*
X168641058Y-95975730D01*
X168067486Y-96212725D01*
X167628268Y-96651177D01*
X167390272Y-97224336D01*
X167389730Y-97844942D01*
X162629138Y-97844942D01*
X162629138Y-89778000D01*
X178792560Y-89778000D01*
X178792560Y-91578000D01*
X178836838Y-91813317D01*
X178975910Y-92029441D01*
X179188110Y-92174431D01*
X179440000Y-92225440D01*
X181240000Y-92225440D01*
X181475317Y-92181162D01*
X181691441Y-92042090D01*
X181836431Y-91829890D01*
X181846766Y-91778854D01*
X181972424Y-91915966D01*
X182515258Y-92169046D01*
X182753000Y-92048997D01*
X182753000Y-90805000D01*
X182733000Y-90805000D01*
X182733000Y-90551000D01*
X182753000Y-90551000D01*
X182753000Y-89307003D01*
X182515258Y-89186954D01*
X181972424Y-89440034D01*
X181849156Y-89574538D01*
X181843162Y-89542683D01*
X181704090Y-89326559D01*
X181491890Y-89181569D01*
X181240000Y-89130560D01*
X179440000Y-89130560D01*
X179204683Y-89174838D01*
X178988559Y-89313910D01*
X178843569Y-89526110D01*
X178792560Y-89778000D01*
X162629138Y-89778000D01*
X162629138Y-85335745D01*
X167359861Y-85335745D01*
X167433995Y-85581864D01*
X167971223Y-85774965D01*
X168541454Y-85747778D01*
X168942005Y-85581864D01*
X169016139Y-85335745D01*
X168188000Y-84507605D01*
X167359861Y-85335745D01*
X162629138Y-85335745D01*
X162629138Y-84111223D01*
X166741035Y-84111223D01*
X166768222Y-84681454D01*
X166934136Y-85082005D01*
X167180255Y-85156139D01*
X168008395Y-84328000D01*
X168367605Y-84328000D01*
X169195745Y-85156139D01*
X169243167Y-85141855D01*
X169284838Y-85363317D01*
X169423910Y-85579441D01*
X169636110Y-85724431D01*
X169888000Y-85775440D01*
X171488000Y-85775440D01*
X171723317Y-85731162D01*
X171939441Y-85592090D01*
X172084431Y-85379890D01*
X172089319Y-85355750D01*
X174000000Y-85355750D01*
X174000000Y-85946309D01*
X174096673Y-86179698D01*
X174275301Y-86358327D01*
X174508690Y-86455000D01*
X174974250Y-86455000D01*
X175133000Y-86296250D01*
X175133000Y-85197000D01*
X175387000Y-85197000D01*
X175387000Y-86296250D01*
X175545750Y-86455000D01*
X176011310Y-86455000D01*
X176244699Y-86358327D01*
X176423327Y-86179698D01*
X176520000Y-85946309D01*
X176520000Y-85355750D01*
X176361250Y-85197000D01*
X175387000Y-85197000D01*
X175133000Y-85197000D01*
X174158750Y-85197000D01*
X174000000Y-85355750D01*
X172089319Y-85355750D01*
X172135440Y-85128000D01*
X172135440Y-83528000D01*
X172091162Y-83292683D01*
X171952090Y-83076559D01*
X171739890Y-82931569D01*
X171488000Y-82880560D01*
X169888000Y-82880560D01*
X169652683Y-82924838D01*
X169436559Y-83063910D01*
X169291569Y-83276110D01*
X169243354Y-83514201D01*
X169195745Y-83499861D01*
X168367605Y-84328000D01*
X168008395Y-84328000D01*
X167180255Y-83499861D01*
X166934136Y-83573995D01*
X166741035Y-84111223D01*
X162629138Y-84111223D01*
X162629138Y-83320255D01*
X167359861Y-83320255D01*
X168188000Y-84148395D01*
X169016139Y-83320255D01*
X168942005Y-83074136D01*
X168404777Y-82881035D01*
X167834546Y-82908222D01*
X167433995Y-83074136D01*
X167359861Y-83320255D01*
X162629138Y-83320255D01*
X162629138Y-80688600D01*
X163501100Y-80688600D01*
X163763238Y-80636457D01*
X163985468Y-80487968D01*
X164133957Y-80265738D01*
X164186100Y-80003600D01*
X164186100Y-75003600D01*
X164133957Y-74741462D01*
X163985468Y-74519232D01*
X163763238Y-74370743D01*
X163501100Y-74318600D01*
X162629138Y-74318600D01*
X162629138Y-72195893D01*
X165546725Y-72195893D01*
X165787519Y-72778657D01*
X166232997Y-73224914D01*
X166815341Y-73466724D01*
X167445893Y-73467275D01*
X168028657Y-73226481D01*
X168402261Y-72853529D01*
X168772997Y-73224914D01*
X169355341Y-73466724D01*
X169985893Y-73467275D01*
X170568657Y-73226481D01*
X170942261Y-72853529D01*
X171312997Y-73224914D01*
X171895341Y-73466724D01*
X172525893Y-73467275D01*
X173108657Y-73226481D01*
X173482261Y-72853529D01*
X173852997Y-73224914D01*
X174435341Y-73466724D01*
X175065893Y-73467275D01*
X175648657Y-73226481D01*
X176022261Y-72853529D01*
X176392997Y-73224914D01*
X176975341Y-73466724D01*
X177605893Y-73467275D01*
X178188657Y-73226481D01*
X178562261Y-72853529D01*
X178932997Y-73224914D01*
X179515341Y-73466724D01*
X180145893Y-73467275D01*
X180728657Y-73226481D01*
X181102261Y-72853529D01*
X181472997Y-73224914D01*
X182055341Y-73466724D01*
X182374000Y-73467002D01*
X182374000Y-82069853D01*
X182158566Y-81747434D01*
X181790346Y-81501397D01*
X181356000Y-81415000D01*
X176378974Y-81415000D01*
X176349090Y-81368559D01*
X176136890Y-81223569D01*
X175885000Y-81172560D01*
X174635000Y-81172560D01*
X174399683Y-81216838D01*
X174183559Y-81355910D01*
X174038569Y-81568110D01*
X173987560Y-81820000D01*
X173987560Y-83320000D01*
X174031838Y-83555317D01*
X174170910Y-83771441D01*
X174239006Y-83817969D01*
X174096673Y-83960302D01*
X174000000Y-84193691D01*
X174000000Y-84784250D01*
X174158750Y-84943000D01*
X175133000Y-84943000D01*
X175133000Y-84923000D01*
X175387000Y-84923000D01*
X175387000Y-84943000D01*
X176361250Y-84943000D01*
X176520000Y-84784250D01*
X176520000Y-84193691D01*
X176423327Y-83960302D01*
X176282090Y-83819064D01*
X176336441Y-83784090D01*
X176404146Y-83685000D01*
X180221000Y-83685000D01*
X180221000Y-84836000D01*
X180307397Y-85270346D01*
X180553434Y-85638566D01*
X180921654Y-85884603D01*
X181356000Y-85971000D01*
X184285000Y-85971000D01*
X184285000Y-89621803D01*
X184145499Y-89830582D01*
X183787576Y-89440034D01*
X183244742Y-89186954D01*
X183007000Y-89307003D01*
X183007000Y-90551000D01*
X183027000Y-90551000D01*
X183027000Y-90805000D01*
X183007000Y-90805000D01*
X183007000Y-92048997D01*
X183244742Y-92169046D01*
X183787576Y-91915966D01*
X184145499Y-91525418D01*
X184304519Y-91763409D01*
X184802509Y-92096155D01*
X185339921Y-92203053D01*
X189189434Y-96052566D01*
X189326367Y-96144062D01*
X189242821Y-96178668D01*
X189153349Y-96437744D01*
X190072000Y-97356395D01*
X190990651Y-96437744D01*
X190972436Y-96385000D01*
X191437000Y-96385000D01*
X191437000Y-96464771D01*
X191254879Y-96646574D01*
X191170256Y-96617349D01*
X190251605Y-97536000D01*
X191170256Y-98454651D01*
X191255434Y-98425235D01*
X191687177Y-98857732D01*
X192260336Y-99095728D01*
X192880942Y-99096270D01*
X193454514Y-98859275D01*
X193572749Y-98741246D01*
X193682910Y-98912441D01*
X193895110Y-99057431D01*
X194147000Y-99108440D01*
X195997000Y-99108440D01*
X196232317Y-99064162D01*
X196448441Y-98925090D01*
X196593431Y-98712890D01*
X196644440Y-98461000D01*
X196644440Y-96611000D01*
X196600162Y-96375683D01*
X196461090Y-96159559D01*
X196248890Y-96014569D01*
X195997000Y-95963560D01*
X195324000Y-95963560D01*
X195324000Y-94234000D01*
X195266148Y-93943161D01*
X195101401Y-93696599D01*
X194854839Y-93531852D01*
X194564000Y-93474000D01*
X191830802Y-93474000D01*
X190752000Y-92395198D01*
X190752000Y-91851738D01*
X190752675Y-91855131D01*
X191110567Y-92390754D01*
X191646190Y-92748646D01*
X192278000Y-92874321D01*
X192909810Y-92748646D01*
X193445433Y-92390754D01*
X193548000Y-92237252D01*
X193650567Y-92390754D01*
X194186190Y-92748646D01*
X194818000Y-92874321D01*
X195449810Y-92748646D01*
X195985433Y-92390754D01*
X196102054Y-92216219D01*
X196280370Y-92443236D01*
X196843523Y-92759926D01*
X196975056Y-92791975D01*
X197231000Y-92672836D01*
X197231000Y-91059000D01*
X197485000Y-91059000D01*
X197485000Y-92672836D01*
X197740944Y-92791975D01*
X197872477Y-92759926D01*
X198435630Y-92443236D01*
X198834724Y-91935143D01*
X199009000Y-91313000D01*
X199009000Y-91059000D01*
X197485000Y-91059000D01*
X197231000Y-91059000D01*
X197211000Y-91059000D01*
X197211000Y-90805000D01*
X197231000Y-90805000D01*
X197231000Y-89191164D01*
X197485000Y-89191164D01*
X197485000Y-90805000D01*
X199009000Y-90805000D01*
X199009000Y-90551000D01*
X198834724Y-89928857D01*
X198435630Y-89420764D01*
X197872477Y-89104074D01*
X197740944Y-89072025D01*
X197485000Y-89191164D01*
X197231000Y-89191164D01*
X196975056Y-89072025D01*
X196843523Y-89104074D01*
X196280370Y-89420764D01*
X196102054Y-89647781D01*
X195985433Y-89473246D01*
X195449810Y-89115354D01*
X194818000Y-88989679D01*
X194186190Y-89115354D01*
X193650567Y-89473246D01*
X193548000Y-89626748D01*
X193445433Y-89473246D01*
X192909810Y-89115354D01*
X192278000Y-88989679D01*
X191646190Y-89115354D01*
X191110567Y-89473246D01*
X190752675Y-90008869D01*
X190752000Y-90012262D01*
X190752000Y-87376000D01*
X190694148Y-87085161D01*
X190529401Y-86838599D01*
X186719401Y-83028599D01*
X186472839Y-82863852D01*
X186182000Y-82806000D01*
X183894000Y-82806000D01*
X183894000Y-73105709D01*
X184012997Y-73224914D01*
X184595341Y-73466724D01*
X185225893Y-73467275D01*
X185808657Y-73226481D01*
X186182261Y-72853529D01*
X186552997Y-73224914D01*
X187135341Y-73466724D01*
X187765893Y-73467275D01*
X188348657Y-73226481D01*
X188722261Y-72853529D01*
X189092997Y-73224914D01*
X189675341Y-73466724D01*
X190305893Y-73467275D01*
X190888657Y-73226481D01*
X191262261Y-72853529D01*
X191632997Y-73224914D01*
X192215341Y-73466724D01*
X192845893Y-73467275D01*
X193428657Y-73226481D01*
X193802261Y-72853529D01*
X194172997Y-73224914D01*
X194755341Y-73466724D01*
X195385893Y-73467275D01*
X195968657Y-73226481D01*
X196414914Y-72781003D01*
X196656724Y-72198659D01*
X196657275Y-71568107D01*
X196416481Y-70985343D01*
X195971003Y-70539086D01*
X195388659Y-70297276D01*
X194758107Y-70296725D01*
X194175343Y-70537519D01*
X193801739Y-70910471D01*
X193431003Y-70539086D01*
X192848659Y-70297276D01*
X192218107Y-70296725D01*
X191635343Y-70537519D01*
X191261739Y-70910471D01*
X190891003Y-70539086D01*
X190308659Y-70297276D01*
X189678107Y-70296725D01*
X189095343Y-70537519D01*
X188721739Y-70910471D01*
X188351003Y-70539086D01*
X187768659Y-70297276D01*
X187138107Y-70296725D01*
X186555343Y-70537519D01*
X186181739Y-70910471D01*
X185811003Y-70539086D01*
X185228659Y-70297276D01*
X184598107Y-70296725D01*
X184015343Y-70537519D01*
X183641739Y-70910471D01*
X183271003Y-70539086D01*
X182688659Y-70297276D01*
X182058107Y-70296725D01*
X181475343Y-70537519D01*
X181101739Y-70910471D01*
X180731003Y-70539086D01*
X180148659Y-70297276D01*
X179518107Y-70296725D01*
X178935343Y-70537519D01*
X178561739Y-70910471D01*
X178191003Y-70539086D01*
X177608659Y-70297276D01*
X176978107Y-70296725D01*
X176395343Y-70537519D01*
X176021739Y-70910471D01*
X175651003Y-70539086D01*
X175068659Y-70297276D01*
X174438107Y-70296725D01*
X173855343Y-70537519D01*
X173481739Y-70910471D01*
X173111003Y-70539086D01*
X172528659Y-70297276D01*
X171898107Y-70296725D01*
X171315343Y-70537519D01*
X170941739Y-70910471D01*
X170571003Y-70539086D01*
X169988659Y-70297276D01*
X169358107Y-70296725D01*
X168775343Y-70537519D01*
X168401739Y-70910471D01*
X168031003Y-70539086D01*
X167448659Y-70297276D01*
X166818107Y-70296725D01*
X166235343Y-70537519D01*
X165789086Y-70982997D01*
X165547276Y-71565341D01*
X165546725Y-72195893D01*
X162629138Y-72195893D01*
X162629138Y-54803608D01*
X162629139Y-54803603D01*
X162629138Y-54803598D01*
X162629138Y-54415893D01*
X165546725Y-54415893D01*
X165787519Y-54998657D01*
X166232997Y-55444914D01*
X166815341Y-55686724D01*
X167445893Y-55687275D01*
X168028657Y-55446481D01*
X168402261Y-55073529D01*
X168772997Y-55444914D01*
X169355341Y-55686724D01*
X169985893Y-55687275D01*
X170568657Y-55446481D01*
X170942261Y-55073529D01*
X171312997Y-55444914D01*
X171895341Y-55686724D01*
X172525893Y-55687275D01*
X173108657Y-55446481D01*
X173482261Y-55073529D01*
X173852997Y-55444914D01*
X174435341Y-55686724D01*
X175065893Y-55687275D01*
X175648657Y-55446481D01*
X176022261Y-55073529D01*
X176392997Y-55444914D01*
X176975341Y-55686724D01*
X177605893Y-55687275D01*
X178188657Y-55446481D01*
X178562261Y-55073529D01*
X178932997Y-55444914D01*
X179515341Y-55686724D01*
X180145893Y-55687275D01*
X180728657Y-55446481D01*
X181102261Y-55073529D01*
X181472997Y-55444914D01*
X182055341Y-55686724D01*
X182685893Y-55687275D01*
X183268657Y-55446481D01*
X183642261Y-55073529D01*
X184012997Y-55444914D01*
X184595341Y-55686724D01*
X185225893Y-55687275D01*
X185808657Y-55446481D01*
X186182261Y-55073529D01*
X186552997Y-55444914D01*
X187135341Y-55686724D01*
X187765893Y-55687275D01*
X188348657Y-55446481D01*
X188722261Y-55073529D01*
X189092997Y-55444914D01*
X189675341Y-55686724D01*
X190305893Y-55687275D01*
X190888657Y-55446481D01*
X191117186Y-55218350D01*
X191595255Y-55218350D01*
X191687792Y-55480019D01*
X192279398Y-55698188D01*
X192909461Y-55673352D01*
X193376208Y-55480019D01*
X193468745Y-55218350D01*
X192532000Y-54281605D01*
X191595255Y-55218350D01*
X191117186Y-55218350D01*
X191328116Y-55007789D01*
X191415650Y-55038745D01*
X192352395Y-54102000D01*
X192711605Y-54102000D01*
X193648350Y-55038745D01*
X193736439Y-55007593D01*
X194172997Y-55444914D01*
X194755341Y-55686724D01*
X195385893Y-55687275D01*
X195968657Y-55446481D01*
X196414914Y-55001003D01*
X196656724Y-54418659D01*
X196657275Y-53788107D01*
X196416481Y-53205343D01*
X195971003Y-52759086D01*
X195388659Y-52517276D01*
X194758107Y-52516725D01*
X194175343Y-52757519D01*
X193735884Y-53196211D01*
X193648350Y-53165255D01*
X192711605Y-54102000D01*
X192352395Y-54102000D01*
X191415650Y-53165255D01*
X191327561Y-53196407D01*
X191117172Y-52985650D01*
X191595255Y-52985650D01*
X192532000Y-53922395D01*
X193468745Y-52985650D01*
X193376208Y-52723981D01*
X192784602Y-52505812D01*
X192154539Y-52530648D01*
X191687792Y-52723981D01*
X191595255Y-52985650D01*
X191117172Y-52985650D01*
X190891003Y-52759086D01*
X190308659Y-52517276D01*
X189678107Y-52516725D01*
X189095343Y-52757519D01*
X188721739Y-53130471D01*
X188351003Y-52759086D01*
X187768659Y-52517276D01*
X187138107Y-52516725D01*
X186555343Y-52757519D01*
X186181739Y-53130471D01*
X185811003Y-52759086D01*
X185228659Y-52517276D01*
X184598107Y-52516725D01*
X184015343Y-52757519D01*
X183641739Y-53130471D01*
X183271003Y-52759086D01*
X182688659Y-52517276D01*
X182058107Y-52516725D01*
X181475343Y-52757519D01*
X181101739Y-53130471D01*
X180731003Y-52759086D01*
X180148659Y-52517276D01*
X179518107Y-52516725D01*
X178935343Y-52757519D01*
X178561739Y-53130471D01*
X178191003Y-52759086D01*
X177608659Y-52517276D01*
X176978107Y-52516725D01*
X176395343Y-52757519D01*
X176021739Y-53130471D01*
X175651003Y-52759086D01*
X175068659Y-52517276D01*
X174438107Y-52516725D01*
X173855343Y-52757519D01*
X173481739Y-53130471D01*
X173111003Y-52759086D01*
X172528659Y-52517276D01*
X171898107Y-52516725D01*
X171315343Y-52757519D01*
X170941739Y-53130471D01*
X170571003Y-52759086D01*
X169988659Y-52517276D01*
X169358107Y-52516725D01*
X168775343Y-52757519D01*
X168401739Y-53130471D01*
X168031003Y-52759086D01*
X167448659Y-52517276D01*
X166818107Y-52516725D01*
X166235343Y-52757519D01*
X165789086Y-53202997D01*
X165547276Y-53785341D01*
X165546725Y-54415893D01*
X162629138Y-54415893D01*
X162629138Y-53203599D01*
X162576995Y-52941461D01*
X162428506Y-52719231D01*
X162206276Y-52570742D01*
X161944138Y-52518599D01*
X161942870Y-52518599D01*
X159186100Y-52518601D01*
X159186100Y-52071067D01*
X159298597Y-51505506D01*
X159580743Y-51083243D01*
X160003006Y-50801097D01*
X160568566Y-50688600D01*
X202433634Y-50688600D01*
X202999195Y-50801097D01*
X202999195Y-50801097D01*
G37*
X202999195Y-50801097D02*
X203421458Y-51083243D01*
X203703604Y-51505506D01*
X203816101Y-52071066D01*
X203816101Y-52518574D01*
X201153788Y-52518576D01*
X200891650Y-52570719D01*
X200669420Y-52719208D01*
X200520931Y-52941438D01*
X200468788Y-53203576D01*
X200468788Y-74318600D01*
X199501101Y-74318600D01*
X199238963Y-74370743D01*
X199016733Y-74519232D01*
X198868244Y-74741462D01*
X198816101Y-75003600D01*
X198816101Y-80003600D01*
X198868244Y-80265738D01*
X199016733Y-80487968D01*
X199238963Y-80636457D01*
X199501101Y-80688600D01*
X200468788Y-80688600D01*
X200468788Y-100003600D01*
X200520931Y-100265738D01*
X200669420Y-100487968D01*
X200891650Y-100636457D01*
X201153788Y-100688600D01*
X203602362Y-100688600D01*
X203589698Y-103487315D01*
X199433271Y-104318600D01*
X163568930Y-104318600D01*
X159186100Y-103442034D01*
X159186100Y-100688600D01*
X161944138Y-100688600D01*
X162206276Y-100636457D01*
X162428506Y-100487968D01*
X162576995Y-100265738D01*
X162629138Y-100003600D01*
X162629138Y-97844942D01*
X167389730Y-97844942D01*
X167626725Y-98418514D01*
X168065177Y-98857732D01*
X168638336Y-99095728D01*
X169258942Y-99096270D01*
X169832514Y-98859275D01*
X169952881Y-98739118D01*
X169986673Y-98820699D01*
X170165302Y-98999327D01*
X170398691Y-99096000D01*
X171164250Y-99096000D01*
X171323000Y-98937250D01*
X171323000Y-97663000D01*
X171577000Y-97663000D01*
X171577000Y-98937250D01*
X171735750Y-99096000D01*
X172501309Y-99096000D01*
X172734698Y-98999327D01*
X172913327Y-98820699D01*
X173010000Y-98587310D01*
X173010000Y-97844942D01*
X178819730Y-97844942D01*
X179056725Y-98418514D01*
X179495177Y-98857732D01*
X180068336Y-99095728D01*
X180688942Y-99096270D01*
X181262514Y-98859275D01*
X181380749Y-98741246D01*
X181490910Y-98912441D01*
X181703110Y-99057431D01*
X181955000Y-99108440D01*
X183805000Y-99108440D01*
X184040317Y-99064162D01*
X184256441Y-98925090D01*
X184401431Y-98712890D01*
X184417354Y-98634256D01*
X189153349Y-98634256D01*
X189242821Y-98893332D01*
X189825368Y-99107325D01*
X190445461Y-99082097D01*
X190901179Y-98893332D01*
X190990651Y-98634256D01*
X190072000Y-97715605D01*
X189153349Y-98634256D01*
X184417354Y-98634256D01*
X184452440Y-98461000D01*
X184452440Y-97289368D01*
X188500675Y-97289368D01*
X188525903Y-97909461D01*
X188714668Y-98365179D01*
X188973744Y-98454651D01*
X189892395Y-97536000D01*
X188973744Y-96617349D01*
X188714668Y-96706821D01*
X188500675Y-97289368D01*
X184452440Y-97289368D01*
X184452440Y-96611000D01*
X184408162Y-96375683D01*
X184269090Y-96159559D01*
X184056890Y-96014569D01*
X183805000Y-95963560D01*
X181955000Y-95963560D01*
X181719683Y-96007838D01*
X181503559Y-96146910D01*
X181379229Y-96328874D01*
X181264823Y-96214268D01*
X180691664Y-95976272D01*
X180071058Y-95975730D01*
X179497486Y-96212725D01*
X179058268Y-96651177D01*
X178820272Y-97224336D01*
X178819730Y-97844942D01*
X173010000Y-97844942D01*
X173010000Y-97821750D01*
X172851250Y-97663000D01*
X171577000Y-97663000D01*
X171323000Y-97663000D01*
X171303000Y-97663000D01*
X171303000Y-97409000D01*
X171323000Y-97409000D01*
X171323000Y-96134750D01*
X171577000Y-96134750D01*
X171577000Y-97409000D01*
X172851250Y-97409000D01*
X173010000Y-97250250D01*
X173010000Y-96484690D01*
X172913327Y-96251301D01*
X172734698Y-96072673D01*
X172501309Y-95976000D01*
X171735750Y-95976000D01*
X171577000Y-96134750D01*
X171323000Y-96134750D01*
X171164250Y-95976000D01*
X170398691Y-95976000D01*
X170165302Y-96072673D01*
X169986673Y-96251301D01*
X169952983Y-96332635D01*
X169834823Y-96214268D01*
X169261664Y-95976272D01*
X168641058Y-95975730D01*
X168067486Y-96212725D01*
X167628268Y-96651177D01*
X167390272Y-97224336D01*
X167389730Y-97844942D01*
X162629138Y-97844942D01*
X162629138Y-89778000D01*
X178792560Y-89778000D01*
X178792560Y-91578000D01*
X178836838Y-91813317D01*
X178975910Y-92029441D01*
X179188110Y-92174431D01*
X179440000Y-92225440D01*
X181240000Y-92225440D01*
X181475317Y-92181162D01*
X181691441Y-92042090D01*
X181836431Y-91829890D01*
X181846766Y-91778854D01*
X181972424Y-91915966D01*
X182515258Y-92169046D01*
X182753000Y-92048997D01*
X182753000Y-90805000D01*
X182733000Y-90805000D01*
X182733000Y-90551000D01*
X182753000Y-90551000D01*
X182753000Y-89307003D01*
X182515258Y-89186954D01*
X181972424Y-89440034D01*
X181849156Y-89574538D01*
X181843162Y-89542683D01*
X181704090Y-89326559D01*
X181491890Y-89181569D01*
X181240000Y-89130560D01*
X179440000Y-89130560D01*
X179204683Y-89174838D01*
X178988559Y-89313910D01*
X178843569Y-89526110D01*
X178792560Y-89778000D01*
X162629138Y-89778000D01*
X162629138Y-85335745D01*
X167359861Y-85335745D01*
X167433995Y-85581864D01*
X167971223Y-85774965D01*
X168541454Y-85747778D01*
X168942005Y-85581864D01*
X169016139Y-85335745D01*
X168188000Y-84507605D01*
X167359861Y-85335745D01*
X162629138Y-85335745D01*
X162629138Y-84111223D01*
X166741035Y-84111223D01*
X166768222Y-84681454D01*
X166934136Y-85082005D01*
X167180255Y-85156139D01*
X168008395Y-84328000D01*
X168367605Y-84328000D01*
X169195745Y-85156139D01*
X169243167Y-85141855D01*
X169284838Y-85363317D01*
X169423910Y-85579441D01*
X169636110Y-85724431D01*
X169888000Y-85775440D01*
X171488000Y-85775440D01*
X171723317Y-85731162D01*
X171939441Y-85592090D01*
X172084431Y-85379890D01*
X172089319Y-85355750D01*
X174000000Y-85355750D01*
X174000000Y-85946309D01*
X174096673Y-86179698D01*
X174275301Y-86358327D01*
X174508690Y-86455000D01*
X174974250Y-86455000D01*
X175133000Y-86296250D01*
X175133000Y-85197000D01*
X175387000Y-85197000D01*
X175387000Y-86296250D01*
X175545750Y-86455000D01*
X176011310Y-86455000D01*
X176244699Y-86358327D01*
X176423327Y-86179698D01*
X176520000Y-85946309D01*
X176520000Y-85355750D01*
X176361250Y-85197000D01*
X175387000Y-85197000D01*
X175133000Y-85197000D01*
X174158750Y-85197000D01*
X174000000Y-85355750D01*
X172089319Y-85355750D01*
X172135440Y-85128000D01*
X172135440Y-83528000D01*
X172091162Y-83292683D01*
X171952090Y-83076559D01*
X171739890Y-82931569D01*
X171488000Y-82880560D01*
X169888000Y-82880560D01*
X169652683Y-82924838D01*
X169436559Y-83063910D01*
X169291569Y-83276110D01*
X169243354Y-83514201D01*
X169195745Y-83499861D01*
X168367605Y-84328000D01*
X168008395Y-84328000D01*
X167180255Y-83499861D01*
X166934136Y-83573995D01*
X166741035Y-84111223D01*
X162629138Y-84111223D01*
X162629138Y-83320255D01*
X167359861Y-83320255D01*
X168188000Y-84148395D01*
X169016139Y-83320255D01*
X168942005Y-83074136D01*
X168404777Y-82881035D01*
X167834546Y-82908222D01*
X167433995Y-83074136D01*
X167359861Y-83320255D01*
X162629138Y-83320255D01*
X162629138Y-80688600D01*
X163501100Y-80688600D01*
X163763238Y-80636457D01*
X163985468Y-80487968D01*
X164133957Y-80265738D01*
X164186100Y-80003600D01*
X164186100Y-75003600D01*
X164133957Y-74741462D01*
X163985468Y-74519232D01*
X163763238Y-74370743D01*
X163501100Y-74318600D01*
X162629138Y-74318600D01*
X162629138Y-72195893D01*
X165546725Y-72195893D01*
X165787519Y-72778657D01*
X166232997Y-73224914D01*
X166815341Y-73466724D01*
X167445893Y-73467275D01*
X168028657Y-73226481D01*
X168402261Y-72853529D01*
X168772997Y-73224914D01*
X169355341Y-73466724D01*
X169985893Y-73467275D01*
X170568657Y-73226481D01*
X170942261Y-72853529D01*
X171312997Y-73224914D01*
X171895341Y-73466724D01*
X172525893Y-73467275D01*
X173108657Y-73226481D01*
X173482261Y-72853529D01*
X173852997Y-73224914D01*
X174435341Y-73466724D01*
X175065893Y-73467275D01*
X175648657Y-73226481D01*
X176022261Y-72853529D01*
X176392997Y-73224914D01*
X176975341Y-73466724D01*
X177605893Y-73467275D01*
X178188657Y-73226481D01*
X178562261Y-72853529D01*
X178932997Y-73224914D01*
X179515341Y-73466724D01*
X180145893Y-73467275D01*
X180728657Y-73226481D01*
X181102261Y-72853529D01*
X181472997Y-73224914D01*
X182055341Y-73466724D01*
X182374000Y-73467002D01*
X182374000Y-82069853D01*
X182158566Y-81747434D01*
X181790346Y-81501397D01*
X181356000Y-81415000D01*
X176378974Y-81415000D01*
X176349090Y-81368559D01*
X176136890Y-81223569D01*
X175885000Y-81172560D01*
X174635000Y-81172560D01*
X174399683Y-81216838D01*
X174183559Y-81355910D01*
X174038569Y-81568110D01*
X173987560Y-81820000D01*
X173987560Y-83320000D01*
X174031838Y-83555317D01*
X174170910Y-83771441D01*
X174239006Y-83817969D01*
X174096673Y-83960302D01*
X174000000Y-84193691D01*
X174000000Y-84784250D01*
X174158750Y-84943000D01*
X175133000Y-84943000D01*
X175133000Y-84923000D01*
X175387000Y-84923000D01*
X175387000Y-84943000D01*
X176361250Y-84943000D01*
X176520000Y-84784250D01*
X176520000Y-84193691D01*
X176423327Y-83960302D01*
X176282090Y-83819064D01*
X176336441Y-83784090D01*
X176404146Y-83685000D01*
X180221000Y-83685000D01*
X180221000Y-84836000D01*
X180307397Y-85270346D01*
X180553434Y-85638566D01*
X180921654Y-85884603D01*
X181356000Y-85971000D01*
X184285000Y-85971000D01*
X184285000Y-89621803D01*
X184145499Y-89830582D01*
X183787576Y-89440034D01*
X183244742Y-89186954D01*
X183007000Y-89307003D01*
X183007000Y-90551000D01*
X183027000Y-90551000D01*
X183027000Y-90805000D01*
X183007000Y-90805000D01*
X183007000Y-92048997D01*
X183244742Y-92169046D01*
X183787576Y-91915966D01*
X184145499Y-91525418D01*
X184304519Y-91763409D01*
X184802509Y-92096155D01*
X185339921Y-92203053D01*
X189189434Y-96052566D01*
X189326367Y-96144062D01*
X189242821Y-96178668D01*
X189153349Y-96437744D01*
X190072000Y-97356395D01*
X190990651Y-96437744D01*
X190972436Y-96385000D01*
X191437000Y-96385000D01*
X191437000Y-96464771D01*
X191254879Y-96646574D01*
X191170256Y-96617349D01*
X190251605Y-97536000D01*
X191170256Y-98454651D01*
X191255434Y-98425235D01*
X191687177Y-98857732D01*
X192260336Y-99095728D01*
X192880942Y-99096270D01*
X193454514Y-98859275D01*
X193572749Y-98741246D01*
X193682910Y-98912441D01*
X193895110Y-99057431D01*
X194147000Y-99108440D01*
X195997000Y-99108440D01*
X196232317Y-99064162D01*
X196448441Y-98925090D01*
X196593431Y-98712890D01*
X196644440Y-98461000D01*
X196644440Y-96611000D01*
X196600162Y-96375683D01*
X196461090Y-96159559D01*
X196248890Y-96014569D01*
X195997000Y-95963560D01*
X195324000Y-95963560D01*
X195324000Y-94234000D01*
X195266148Y-93943161D01*
X195101401Y-93696599D01*
X194854839Y-93531852D01*
X194564000Y-93474000D01*
X191830802Y-93474000D01*
X190752000Y-92395198D01*
X190752000Y-91851738D01*
X190752675Y-91855131D01*
X191110567Y-92390754D01*
X191646190Y-92748646D01*
X192278000Y-92874321D01*
X192909810Y-92748646D01*
X193445433Y-92390754D01*
X193548000Y-92237252D01*
X193650567Y-92390754D01*
X194186190Y-92748646D01*
X194818000Y-92874321D01*
X195449810Y-92748646D01*
X195985433Y-92390754D01*
X196102054Y-92216219D01*
X196280370Y-92443236D01*
X196843523Y-92759926D01*
X196975056Y-92791975D01*
X197231000Y-92672836D01*
X197231000Y-91059000D01*
X197485000Y-91059000D01*
X197485000Y-92672836D01*
X197740944Y-92791975D01*
X197872477Y-92759926D01*
X198435630Y-92443236D01*
X198834724Y-91935143D01*
X199009000Y-91313000D01*
X199009000Y-91059000D01*
X197485000Y-91059000D01*
X197231000Y-91059000D01*
X197211000Y-91059000D01*
X197211000Y-90805000D01*
X197231000Y-90805000D01*
X197231000Y-89191164D01*
X197485000Y-89191164D01*
X197485000Y-90805000D01*
X199009000Y-90805000D01*
X199009000Y-90551000D01*
X198834724Y-89928857D01*
X198435630Y-89420764D01*
X197872477Y-89104074D01*
X197740944Y-89072025D01*
X197485000Y-89191164D01*
X197231000Y-89191164D01*
X196975056Y-89072025D01*
X196843523Y-89104074D01*
X196280370Y-89420764D01*
X196102054Y-89647781D01*
X195985433Y-89473246D01*
X195449810Y-89115354D01*
X194818000Y-88989679D01*
X194186190Y-89115354D01*
X193650567Y-89473246D01*
X193548000Y-89626748D01*
X193445433Y-89473246D01*
X192909810Y-89115354D01*
X192278000Y-88989679D01*
X191646190Y-89115354D01*
X191110567Y-89473246D01*
X190752675Y-90008869D01*
X190752000Y-90012262D01*
X190752000Y-87376000D01*
X190694148Y-87085161D01*
X190529401Y-86838599D01*
X186719401Y-83028599D01*
X186472839Y-82863852D01*
X186182000Y-82806000D01*
X183894000Y-82806000D01*
X183894000Y-73105709D01*
X184012997Y-73224914D01*
X184595341Y-73466724D01*
X185225893Y-73467275D01*
X185808657Y-73226481D01*
X186182261Y-72853529D01*
X186552997Y-73224914D01*
X187135341Y-73466724D01*
X187765893Y-73467275D01*
X188348657Y-73226481D01*
X188722261Y-72853529D01*
X189092997Y-73224914D01*
X189675341Y-73466724D01*
X190305893Y-73467275D01*
X190888657Y-73226481D01*
X191262261Y-72853529D01*
X191632997Y-73224914D01*
X192215341Y-73466724D01*
X192845893Y-73467275D01*
X193428657Y-73226481D01*
X193802261Y-72853529D01*
X194172997Y-73224914D01*
X194755341Y-73466724D01*
X195385893Y-73467275D01*
X195968657Y-73226481D01*
X196414914Y-72781003D01*
X196656724Y-72198659D01*
X196657275Y-71568107D01*
X196416481Y-70985343D01*
X195971003Y-70539086D01*
X195388659Y-70297276D01*
X194758107Y-70296725D01*
X194175343Y-70537519D01*
X193801739Y-70910471D01*
X193431003Y-70539086D01*
X192848659Y-70297276D01*
X192218107Y-70296725D01*
X191635343Y-70537519D01*
X191261739Y-70910471D01*
X190891003Y-70539086D01*
X190308659Y-70297276D01*
X189678107Y-70296725D01*
X189095343Y-70537519D01*
X188721739Y-70910471D01*
X188351003Y-70539086D01*
X187768659Y-70297276D01*
X187138107Y-70296725D01*
X186555343Y-70537519D01*
X186181739Y-70910471D01*
X185811003Y-70539086D01*
X185228659Y-70297276D01*
X184598107Y-70296725D01*
X184015343Y-70537519D01*
X183641739Y-70910471D01*
X183271003Y-70539086D01*
X182688659Y-70297276D01*
X182058107Y-70296725D01*
X181475343Y-70537519D01*
X181101739Y-70910471D01*
X180731003Y-70539086D01*
X180148659Y-70297276D01*
X179518107Y-70296725D01*
X178935343Y-70537519D01*
X178561739Y-70910471D01*
X178191003Y-70539086D01*
X177608659Y-70297276D01*
X176978107Y-70296725D01*
X176395343Y-70537519D01*
X176021739Y-70910471D01*
X175651003Y-70539086D01*
X175068659Y-70297276D01*
X174438107Y-70296725D01*
X173855343Y-70537519D01*
X173481739Y-70910471D01*
X173111003Y-70539086D01*
X172528659Y-70297276D01*
X171898107Y-70296725D01*
X171315343Y-70537519D01*
X170941739Y-70910471D01*
X170571003Y-70539086D01*
X169988659Y-70297276D01*
X169358107Y-70296725D01*
X168775343Y-70537519D01*
X168401739Y-70910471D01*
X168031003Y-70539086D01*
X167448659Y-70297276D01*
X166818107Y-70296725D01*
X166235343Y-70537519D01*
X165789086Y-70982997D01*
X165547276Y-71565341D01*
X165546725Y-72195893D01*
X162629138Y-72195893D01*
X162629138Y-54803608D01*
X162629139Y-54803603D01*
X162629138Y-54803598D01*
X162629138Y-54415893D01*
X165546725Y-54415893D01*
X165787519Y-54998657D01*
X166232997Y-55444914D01*
X166815341Y-55686724D01*
X167445893Y-55687275D01*
X168028657Y-55446481D01*
X168402261Y-55073529D01*
X168772997Y-55444914D01*
X169355341Y-55686724D01*
X169985893Y-55687275D01*
X170568657Y-55446481D01*
X170942261Y-55073529D01*
X171312997Y-55444914D01*
X171895341Y-55686724D01*
X172525893Y-55687275D01*
X173108657Y-55446481D01*
X173482261Y-55073529D01*
X173852997Y-55444914D01*
X174435341Y-55686724D01*
X175065893Y-55687275D01*
X175648657Y-55446481D01*
X176022261Y-55073529D01*
X176392997Y-55444914D01*
X176975341Y-55686724D01*
X177605893Y-55687275D01*
X178188657Y-55446481D01*
X178562261Y-55073529D01*
X178932997Y-55444914D01*
X179515341Y-55686724D01*
X180145893Y-55687275D01*
X180728657Y-55446481D01*
X181102261Y-55073529D01*
X181472997Y-55444914D01*
X182055341Y-55686724D01*
X182685893Y-55687275D01*
X183268657Y-55446481D01*
X183642261Y-55073529D01*
X184012997Y-55444914D01*
X184595341Y-55686724D01*
X185225893Y-55687275D01*
X185808657Y-55446481D01*
X186182261Y-55073529D01*
X186552997Y-55444914D01*
X187135341Y-55686724D01*
X187765893Y-55687275D01*
X188348657Y-55446481D01*
X188722261Y-55073529D01*
X189092997Y-55444914D01*
X189675341Y-55686724D01*
X190305893Y-55687275D01*
X190888657Y-55446481D01*
X191117186Y-55218350D01*
X191595255Y-55218350D01*
X191687792Y-55480019D01*
X192279398Y-55698188D01*
X192909461Y-55673352D01*
X193376208Y-55480019D01*
X193468745Y-55218350D01*
X192532000Y-54281605D01*
X191595255Y-55218350D01*
X191117186Y-55218350D01*
X191328116Y-55007789D01*
X191415650Y-55038745D01*
X192352395Y-54102000D01*
X192711605Y-54102000D01*
X193648350Y-55038745D01*
X193736439Y-55007593D01*
X194172997Y-55444914D01*
X194755341Y-55686724D01*
X195385893Y-55687275D01*
X195968657Y-55446481D01*
X196414914Y-55001003D01*
X196656724Y-54418659D01*
X196657275Y-53788107D01*
X196416481Y-53205343D01*
X195971003Y-52759086D01*
X195388659Y-52517276D01*
X194758107Y-52516725D01*
X194175343Y-52757519D01*
X193735884Y-53196211D01*
X193648350Y-53165255D01*
X192711605Y-54102000D01*
X192352395Y-54102000D01*
X191415650Y-53165255D01*
X191327561Y-53196407D01*
X191117172Y-52985650D01*
X191595255Y-52985650D01*
X192532000Y-53922395D01*
X193468745Y-52985650D01*
X193376208Y-52723981D01*
X192784602Y-52505812D01*
X192154539Y-52530648D01*
X191687792Y-52723981D01*
X191595255Y-52985650D01*
X191117172Y-52985650D01*
X190891003Y-52759086D01*
X190308659Y-52517276D01*
X189678107Y-52516725D01*
X189095343Y-52757519D01*
X188721739Y-53130471D01*
X188351003Y-52759086D01*
X187768659Y-52517276D01*
X187138107Y-52516725D01*
X186555343Y-52757519D01*
X186181739Y-53130471D01*
X185811003Y-52759086D01*
X185228659Y-52517276D01*
X184598107Y-52516725D01*
X184015343Y-52757519D01*
X183641739Y-53130471D01*
X183271003Y-52759086D01*
X182688659Y-52517276D01*
X182058107Y-52516725D01*
X181475343Y-52757519D01*
X181101739Y-53130471D01*
X180731003Y-52759086D01*
X180148659Y-52517276D01*
X179518107Y-52516725D01*
X178935343Y-52757519D01*
X178561739Y-53130471D01*
X178191003Y-52759086D01*
X177608659Y-52517276D01*
X176978107Y-52516725D01*
X176395343Y-52757519D01*
X176021739Y-53130471D01*
X175651003Y-52759086D01*
X175068659Y-52517276D01*
X174438107Y-52516725D01*
X173855343Y-52757519D01*
X173481739Y-53130471D01*
X173111003Y-52759086D01*
X172528659Y-52517276D01*
X171898107Y-52516725D01*
X171315343Y-52757519D01*
X170941739Y-53130471D01*
X170571003Y-52759086D01*
X169988659Y-52517276D01*
X169358107Y-52516725D01*
X168775343Y-52757519D01*
X168401739Y-53130471D01*
X168031003Y-52759086D01*
X167448659Y-52517276D01*
X166818107Y-52516725D01*
X166235343Y-52757519D01*
X165789086Y-53202997D01*
X165547276Y-53785341D01*
X165546725Y-54415893D01*
X162629138Y-54415893D01*
X162629138Y-53203599D01*
X162576995Y-52941461D01*
X162428506Y-52719231D01*
X162206276Y-52570742D01*
X161944138Y-52518599D01*
X161942870Y-52518599D01*
X159186100Y-52518601D01*
X159186100Y-52071067D01*
X159298597Y-51505506D01*
X159580743Y-51083243D01*
X160003006Y-50801097D01*
X160568566Y-50688600D01*
X202433634Y-50688600D01*
X202999195Y-50801097D01*
M02*
