G04 #@! TF.FileFunction,Copper,L2,Bot,Signal*
%FSLAX46Y46*%
G04 Gerber Fmt 4.6, Leading zero omitted, Abs format (unit mm)*
G04 Created by KiCad (PCBNEW 4.0.5) date 07/13/18 00:02:14*
%MOMM*%
%LPD*%
G01*
G04 APERTURE LIST*
%ADD10C,0.100000*%
%ADD11O,2.032000X2.540000*%
%ADD12R,1.850000X1.850000*%
%ADD13C,1.850000*%
%ADD14R,1.800000X1.800000*%
%ADD15O,1.800000X1.800000*%
%ADD16C,1.900000*%
%ADD17R,1.600000X1.600000*%
%ADD18C,1.600000*%
%ADD19C,1.000000*%
%ADD20C,0.254000*%
G04 APERTURE END LIST*
D10*
D11*
X194818000Y-90932000D03*
X197358000Y-90932000D03*
X192278000Y-90932000D03*
D12*
X182880000Y-97536000D03*
D13*
X180380000Y-97536000D03*
D12*
X195072000Y-97536000D03*
D13*
X192572000Y-97536000D03*
X190072000Y-97536000D03*
D14*
X180340000Y-90678000D03*
D15*
X182880000Y-90678000D03*
X185420000Y-90678000D03*
D16*
X195072000Y-54102000D03*
X192532000Y-54102000D03*
X189992000Y-54102000D03*
X187452000Y-54102000D03*
X184912000Y-54102000D03*
X182372000Y-54102000D03*
X179832000Y-54102000D03*
X177292000Y-54102000D03*
X174752000Y-54102000D03*
X172212000Y-54102000D03*
X169672000Y-54102000D03*
X167132000Y-54102000D03*
X195072000Y-71882000D03*
X192532000Y-71882000D03*
X189992000Y-71882000D03*
X187452000Y-71882000D03*
X184912000Y-71882000D03*
X182372000Y-71882000D03*
X179832000Y-71882000D03*
X177292000Y-71882000D03*
X174752000Y-71882000D03*
X172212000Y-71882000D03*
X169672000Y-71882000D03*
X167132000Y-71882000D03*
D17*
X170688000Y-84328000D03*
D18*
X168188000Y-84328000D03*
D12*
X171450000Y-97536000D03*
D13*
X168950000Y-97536000D03*
D19*
X180380000Y-97536000D02*
X180340000Y-97496000D01*
X180340000Y-97496000D02*
X180340000Y-93726000D01*
X180340000Y-93726000D02*
X194818000Y-93726000D01*
X194818000Y-93726000D02*
X194818000Y-90932000D01*
X174752000Y-71882000D02*
X174752000Y-74422000D01*
X175514000Y-74422000D02*
X175768000Y-74422000D01*
X175768000Y-74422000D02*
X179070000Y-74422000D01*
X179070000Y-74422000D02*
X192278000Y-87630000D01*
X192278000Y-87630000D02*
X192278000Y-90932000D01*
X174752000Y-74422000D02*
X175514000Y-74422000D01*
X199898000Y-89662000D02*
X199898000Y-94742000D01*
X197866000Y-57150000D02*
X197866000Y-87630000D01*
X197866000Y-87630000D02*
X197866000Y-87884000D01*
X197866000Y-87884000D02*
X198120000Y-87884000D01*
X198120000Y-87884000D02*
X198628000Y-88392000D01*
X198628000Y-88392000D02*
X199898000Y-89662000D01*
X195834000Y-53848000D02*
X197866000Y-57150000D01*
X192532000Y-99822000D02*
X192532000Y-97576000D01*
X197358000Y-99822000D02*
X192532000Y-99822000D01*
X197358000Y-96520000D02*
X197358000Y-99822000D01*
X199136000Y-94742000D02*
X197358000Y-96520000D01*
X199898000Y-94742000D02*
X199136000Y-94742000D01*
X192532000Y-97576000D02*
X192572000Y-97536000D01*
X169038000Y-94186000D02*
X172418000Y-94186000D01*
X168950000Y-94274000D02*
X169038000Y-94186000D01*
X168950000Y-97536000D02*
X168950000Y-94274000D01*
X172418000Y-94186000D02*
X174118000Y-94186000D01*
X174118000Y-87758000D02*
X177038000Y-90678000D01*
X177038000Y-90678000D02*
X180340000Y-90678000D01*
X174118000Y-94186000D02*
X177546000Y-97614000D01*
X182880000Y-100330000D02*
X182880000Y-97536000D01*
X177546000Y-100330000D02*
X182880000Y-100330000D01*
X177546000Y-97614000D02*
X177546000Y-100330000D01*
X182880000Y-97536000D02*
X183134000Y-97282000D01*
X170688000Y-84328000D02*
X174118000Y-87758000D01*
X174118000Y-87758000D02*
X174118000Y-94186000D01*
X168188000Y-84328000D02*
X168148000Y-84288000D01*
D20*
G36*
X200520931Y-100265738D02*
X200669420Y-100487968D01*
X200891650Y-100636457D01*
X201153788Y-100688600D01*
X203073000Y-100688600D01*
X203073000Y-101473000D01*
X199263000Y-101473000D01*
X199263000Y-100203000D01*
X200508452Y-100203000D01*
X200520931Y-100265738D01*
X200520931Y-100265738D01*
G37*
X200520931Y-100265738D02*
X200669420Y-100487968D01*
X200891650Y-100636457D01*
X201153788Y-100688600D01*
X203073000Y-100688600D01*
X203073000Y-101473000D01*
X199263000Y-101473000D01*
X199263000Y-100203000D01*
X200508452Y-100203000D01*
X200520931Y-100265738D01*
G36*
X163449000Y-101473000D02*
X159639000Y-101473000D01*
X159639000Y-100688600D01*
X161944138Y-100688600D01*
X162206276Y-100636457D01*
X162428506Y-100487968D01*
X162576995Y-100265738D01*
X162589474Y-100203000D01*
X163449000Y-100203000D01*
X163449000Y-101473000D01*
X163449000Y-101473000D01*
G37*
X163449000Y-101473000D02*
X159639000Y-101473000D01*
X159639000Y-100688600D01*
X161944138Y-100688600D01*
X162206276Y-100636457D01*
X162428506Y-100487968D01*
X162576995Y-100265738D01*
X162589474Y-100203000D01*
X163449000Y-100203000D01*
X163449000Y-101473000D01*
G36*
X163449000Y-52959000D02*
X162580484Y-52959000D01*
X162576995Y-52941461D01*
X162428506Y-52719231D01*
X162206276Y-52570742D01*
X161944138Y-52518599D01*
X161942870Y-52518599D01*
X159639000Y-52518601D01*
X159639000Y-51943000D01*
X163449000Y-51943000D01*
X163449000Y-52959000D01*
X163449000Y-52959000D01*
G37*
X163449000Y-52959000D02*
X162580484Y-52959000D01*
X162576995Y-52941461D01*
X162428506Y-52719231D01*
X162206276Y-52570742D01*
X161944138Y-52518599D01*
X161942870Y-52518599D01*
X159639000Y-52518601D01*
X159639000Y-51943000D01*
X163449000Y-51943000D01*
X163449000Y-52959000D01*
G36*
X203073000Y-52518575D02*
X201153788Y-52518576D01*
X200891650Y-52570719D01*
X200669420Y-52719208D01*
X200520931Y-52941438D01*
X200517438Y-52959000D01*
X199263000Y-52959000D01*
X199263000Y-51689000D01*
X203073000Y-51689000D01*
X203073000Y-52518575D01*
X203073000Y-52518575D01*
G37*
X203073000Y-52518575D02*
X201153788Y-52518576D01*
X200891650Y-52570719D01*
X200669420Y-52719208D01*
X200520931Y-52941438D01*
X200517438Y-52959000D01*
X199263000Y-52959000D01*
X199263000Y-51689000D01*
X203073000Y-51689000D01*
X203073000Y-52518575D01*
G36*
X160275002Y-108378000D02*
X160327145Y-108640138D01*
X160475634Y-108862368D01*
X160697864Y-109010857D01*
X160960002Y-109063000D01*
X200160003Y-109063000D01*
X200422141Y-109010857D01*
X200570907Y-108911454D01*
X200644370Y-108862368D01*
X200792859Y-108640138D01*
X200845002Y-108378000D01*
X200845002Y-108377999D01*
X200845001Y-107539000D01*
X203132535Y-107539000D01*
X204089000Y-107729253D01*
X204089000Y-110109000D01*
X157099000Y-110109000D01*
X157099000Y-107628206D01*
X157547467Y-107539000D01*
X160275002Y-107539000D01*
X160275002Y-108378000D01*
X160275002Y-108378000D01*
G37*
X160275002Y-108378000D02*
X160327145Y-108640138D01*
X160475634Y-108862368D01*
X160697864Y-109010857D01*
X160960002Y-109063000D01*
X200160003Y-109063000D01*
X200422141Y-109010857D01*
X200570907Y-108911454D01*
X200644370Y-108862368D01*
X200792859Y-108640138D01*
X200845002Y-108378000D01*
X200845002Y-108377999D01*
X200845001Y-107539000D01*
X203132535Y-107539000D01*
X204089000Y-107729253D01*
X204089000Y-110109000D01*
X157099000Y-110109000D01*
X157099000Y-107628206D01*
X157547467Y-107539000D01*
X160275002Y-107539000D01*
X160275002Y-108378000D01*
G36*
X199475000Y-106853999D02*
X199475000Y-106854001D01*
X199475001Y-107693000D01*
X161645002Y-107693000D01*
X161645002Y-106854000D01*
X161635653Y-106807000D01*
X199484349Y-106807000D01*
X199475000Y-106853999D01*
X199475000Y-106853999D01*
G37*
X199475000Y-106853999D02*
X199475000Y-106854001D01*
X199475001Y-107693000D01*
X161645002Y-107693000D01*
X161645002Y-106854000D01*
X161635653Y-106807000D01*
X199484349Y-106807000D01*
X199475000Y-106853999D01*
G36*
X160275002Y-122856000D02*
X160327145Y-123118138D01*
X160475634Y-123340368D01*
X160697864Y-123488857D01*
X160960002Y-123541000D01*
X200160003Y-123541000D01*
X200422141Y-123488857D01*
X200570907Y-123389454D01*
X200644370Y-123340368D01*
X200792859Y-123118138D01*
X200845002Y-122856000D01*
X200845002Y-122855999D01*
X200845001Y-122017000D01*
X203132535Y-122017000D01*
X203581000Y-122106205D01*
X203581000Y-124587000D01*
X157353000Y-124587000D01*
X157353000Y-122055682D01*
X157547467Y-122017000D01*
X160275002Y-122017000D01*
X160275002Y-122856000D01*
X160275002Y-122856000D01*
G37*
X160275002Y-122856000D02*
X160327145Y-123118138D01*
X160475634Y-123340368D01*
X160697864Y-123488857D01*
X160960002Y-123541000D01*
X200160003Y-123541000D01*
X200422141Y-123488857D01*
X200570907Y-123389454D01*
X200644370Y-123340368D01*
X200792859Y-123118138D01*
X200845002Y-122856000D01*
X200845002Y-122855999D01*
X200845001Y-122017000D01*
X203132535Y-122017000D01*
X203581000Y-122106205D01*
X203581000Y-124587000D01*
X157353000Y-124587000D01*
X157353000Y-122055682D01*
X157547467Y-122017000D01*
X160275002Y-122017000D01*
X160275002Y-122856000D01*
G36*
X199475000Y-121331999D02*
X199475000Y-121332001D01*
X199475001Y-122171000D01*
X161645002Y-122171000D01*
X161645002Y-121332000D01*
X161635653Y-121285000D01*
X199484349Y-121285000D01*
X199475000Y-121331999D01*
X199475000Y-121331999D01*
G37*
X199475000Y-121331999D02*
X199475000Y-121332001D01*
X199475001Y-122171000D01*
X161645002Y-122171000D01*
X161645002Y-121332000D01*
X161635653Y-121285000D01*
X199484349Y-121285000D01*
X199475000Y-121331999D01*
M02*
