G04 MADE WITH FRITZING*
G04 WWW.FRITZING.ORG*
G04 DOUBLE SIDED*
G04 HOLES PLATED*
G04 CONTOUR ON CENTER OF CONTOUR VECTOR*
%ASAXBY*%
%FSLAX23Y23*%
%MOIN*%
%OFA0B0*%
%SFA1.0B1.0*%
%ADD10C,0.019307X0.00330709*%
%ADD11C,0.008000*%
%ADD12R,0.001000X0.001000*%
%LNSILK0*%
G90*
G70*
G54D10*
X908Y1222D03*
G54D11*
X848Y461D02*
X832Y461D01*
D02*
X832Y461D02*
X777Y461D01*
D02*
X848Y410D02*
X832Y410D01*
D02*
X832Y410D02*
X777Y410D01*
D02*
X832Y461D02*
X832Y410D01*
G54D12*
X438Y1521D02*
X589Y1521D01*
X438Y1520D02*
X589Y1520D01*
X438Y1519D02*
X441Y1519D01*
X506Y1519D02*
X521Y1519D01*
X587Y1519D02*
X589Y1519D01*
X438Y1518D02*
X440Y1518D01*
X506Y1518D02*
X521Y1518D01*
X587Y1518D02*
X589Y1518D01*
X605Y1518D02*
X755Y1518D01*
X438Y1517D02*
X440Y1517D01*
X587Y1517D02*
X589Y1517D01*
X604Y1517D02*
X755Y1517D01*
X438Y1516D02*
X440Y1516D01*
X587Y1516D02*
X589Y1516D01*
X604Y1516D02*
X755Y1516D01*
X438Y1515D02*
X440Y1515D01*
X587Y1515D02*
X589Y1515D01*
X604Y1515D02*
X606Y1515D01*
X672Y1515D02*
X687Y1515D01*
X753Y1515D02*
X755Y1515D01*
X438Y1514D02*
X440Y1514D01*
X587Y1514D02*
X589Y1514D01*
X604Y1514D02*
X606Y1514D01*
X753Y1514D02*
X755Y1514D01*
X438Y1513D02*
X440Y1513D01*
X587Y1513D02*
X589Y1513D01*
X604Y1513D02*
X606Y1513D01*
X753Y1513D02*
X755Y1513D01*
X438Y1512D02*
X440Y1512D01*
X587Y1512D02*
X589Y1512D01*
X604Y1512D02*
X606Y1512D01*
X753Y1512D02*
X755Y1512D01*
X438Y1511D02*
X440Y1511D01*
X587Y1511D02*
X589Y1511D01*
X604Y1511D02*
X606Y1511D01*
X753Y1511D02*
X755Y1511D01*
X438Y1510D02*
X440Y1510D01*
X587Y1510D02*
X589Y1510D01*
X604Y1510D02*
X606Y1510D01*
X753Y1510D02*
X755Y1510D01*
X438Y1509D02*
X440Y1509D01*
X587Y1509D02*
X589Y1509D01*
X604Y1509D02*
X606Y1509D01*
X753Y1509D02*
X755Y1509D01*
X438Y1508D02*
X440Y1508D01*
X587Y1508D02*
X589Y1508D01*
X604Y1508D02*
X606Y1508D01*
X753Y1508D02*
X755Y1508D01*
X438Y1507D02*
X440Y1507D01*
X587Y1507D02*
X589Y1507D01*
X604Y1507D02*
X606Y1507D01*
X753Y1507D02*
X755Y1507D01*
X438Y1506D02*
X440Y1506D01*
X587Y1506D02*
X589Y1506D01*
X604Y1506D02*
X606Y1506D01*
X753Y1506D02*
X755Y1506D01*
X438Y1505D02*
X440Y1505D01*
X587Y1505D02*
X589Y1505D01*
X604Y1505D02*
X606Y1505D01*
X753Y1505D02*
X755Y1505D01*
X438Y1504D02*
X440Y1504D01*
X587Y1504D02*
X589Y1504D01*
X604Y1504D02*
X606Y1504D01*
X753Y1504D02*
X755Y1504D01*
X438Y1503D02*
X440Y1503D01*
X587Y1503D02*
X589Y1503D01*
X604Y1503D02*
X606Y1503D01*
X753Y1503D02*
X755Y1503D01*
X438Y1502D02*
X440Y1502D01*
X587Y1502D02*
X589Y1502D01*
X604Y1502D02*
X606Y1502D01*
X753Y1502D02*
X755Y1502D01*
X438Y1501D02*
X440Y1501D01*
X587Y1501D02*
X589Y1501D01*
X604Y1501D02*
X606Y1501D01*
X753Y1501D02*
X755Y1501D01*
X438Y1500D02*
X440Y1500D01*
X587Y1500D02*
X589Y1500D01*
X604Y1500D02*
X606Y1500D01*
X753Y1500D02*
X755Y1500D01*
X438Y1499D02*
X440Y1499D01*
X587Y1499D02*
X589Y1499D01*
X604Y1499D02*
X606Y1499D01*
X753Y1499D02*
X755Y1499D01*
X438Y1498D02*
X440Y1498D01*
X587Y1498D02*
X589Y1498D01*
X604Y1498D02*
X606Y1498D01*
X753Y1498D02*
X755Y1498D01*
X438Y1497D02*
X440Y1497D01*
X587Y1497D02*
X589Y1497D01*
X604Y1497D02*
X606Y1497D01*
X753Y1497D02*
X755Y1497D01*
X438Y1496D02*
X440Y1496D01*
X587Y1496D02*
X589Y1496D01*
X604Y1496D02*
X606Y1496D01*
X753Y1496D02*
X755Y1496D01*
X438Y1495D02*
X440Y1495D01*
X587Y1495D02*
X589Y1495D01*
X604Y1495D02*
X606Y1495D01*
X753Y1495D02*
X755Y1495D01*
X438Y1494D02*
X440Y1494D01*
X587Y1494D02*
X589Y1494D01*
X604Y1494D02*
X606Y1494D01*
X753Y1494D02*
X755Y1494D01*
X438Y1493D02*
X440Y1493D01*
X587Y1493D02*
X589Y1493D01*
X604Y1493D02*
X606Y1493D01*
X753Y1493D02*
X755Y1493D01*
X438Y1492D02*
X440Y1492D01*
X587Y1492D02*
X589Y1492D01*
X604Y1492D02*
X606Y1492D01*
X753Y1492D02*
X755Y1492D01*
X438Y1491D02*
X440Y1491D01*
X587Y1491D02*
X589Y1491D01*
X604Y1491D02*
X606Y1491D01*
X753Y1491D02*
X755Y1491D01*
X438Y1490D02*
X440Y1490D01*
X587Y1490D02*
X589Y1490D01*
X604Y1490D02*
X606Y1490D01*
X753Y1490D02*
X755Y1490D01*
X438Y1489D02*
X440Y1489D01*
X587Y1489D02*
X589Y1489D01*
X604Y1489D02*
X606Y1489D01*
X753Y1489D02*
X755Y1489D01*
X438Y1488D02*
X440Y1488D01*
X587Y1488D02*
X589Y1488D01*
X604Y1488D02*
X606Y1488D01*
X753Y1488D02*
X755Y1488D01*
X438Y1487D02*
X440Y1487D01*
X587Y1487D02*
X589Y1487D01*
X604Y1487D02*
X606Y1487D01*
X753Y1487D02*
X755Y1487D01*
X438Y1486D02*
X440Y1486D01*
X587Y1486D02*
X589Y1486D01*
X604Y1486D02*
X606Y1486D01*
X753Y1486D02*
X755Y1486D01*
X438Y1485D02*
X440Y1485D01*
X587Y1485D02*
X589Y1485D01*
X604Y1485D02*
X606Y1485D01*
X753Y1485D02*
X755Y1485D01*
X438Y1484D02*
X440Y1484D01*
X587Y1484D02*
X589Y1484D01*
X604Y1484D02*
X606Y1484D01*
X753Y1484D02*
X755Y1484D01*
X438Y1483D02*
X440Y1483D01*
X587Y1483D02*
X589Y1483D01*
X604Y1483D02*
X606Y1483D01*
X753Y1483D02*
X755Y1483D01*
X438Y1482D02*
X440Y1482D01*
X587Y1482D02*
X589Y1482D01*
X604Y1482D02*
X606Y1482D01*
X753Y1482D02*
X755Y1482D01*
X438Y1481D02*
X440Y1481D01*
X587Y1481D02*
X589Y1481D01*
X604Y1481D02*
X606Y1481D01*
X753Y1481D02*
X755Y1481D01*
X438Y1480D02*
X440Y1480D01*
X587Y1480D02*
X589Y1480D01*
X604Y1480D02*
X606Y1480D01*
X753Y1480D02*
X755Y1480D01*
X438Y1479D02*
X440Y1479D01*
X587Y1479D02*
X589Y1479D01*
X604Y1479D02*
X606Y1479D01*
X753Y1479D02*
X755Y1479D01*
X438Y1478D02*
X440Y1478D01*
X587Y1478D02*
X589Y1478D01*
X604Y1478D02*
X606Y1478D01*
X753Y1478D02*
X755Y1478D01*
X438Y1477D02*
X440Y1477D01*
X587Y1477D02*
X589Y1477D01*
X604Y1477D02*
X606Y1477D01*
X753Y1477D02*
X755Y1477D01*
X438Y1476D02*
X440Y1476D01*
X587Y1476D02*
X589Y1476D01*
X604Y1476D02*
X606Y1476D01*
X753Y1476D02*
X755Y1476D01*
X438Y1475D02*
X440Y1475D01*
X587Y1475D02*
X589Y1475D01*
X604Y1475D02*
X606Y1475D01*
X753Y1475D02*
X755Y1475D01*
X438Y1474D02*
X440Y1474D01*
X587Y1474D02*
X589Y1474D01*
X604Y1474D02*
X606Y1474D01*
X753Y1474D02*
X755Y1474D01*
X438Y1473D02*
X440Y1473D01*
X587Y1473D02*
X589Y1473D01*
X604Y1473D02*
X606Y1473D01*
X753Y1473D02*
X755Y1473D01*
X438Y1472D02*
X440Y1472D01*
X587Y1472D02*
X589Y1472D01*
X604Y1472D02*
X606Y1472D01*
X753Y1472D02*
X755Y1472D01*
X438Y1471D02*
X440Y1471D01*
X587Y1471D02*
X589Y1471D01*
X604Y1471D02*
X606Y1471D01*
X753Y1471D02*
X755Y1471D01*
X438Y1470D02*
X440Y1470D01*
X587Y1470D02*
X589Y1470D01*
X604Y1470D02*
X606Y1470D01*
X753Y1470D02*
X755Y1470D01*
X438Y1469D02*
X440Y1469D01*
X587Y1469D02*
X589Y1469D01*
X604Y1469D02*
X606Y1469D01*
X753Y1469D02*
X755Y1469D01*
X438Y1468D02*
X440Y1468D01*
X587Y1468D02*
X589Y1468D01*
X604Y1468D02*
X606Y1468D01*
X753Y1468D02*
X755Y1468D01*
X438Y1467D02*
X440Y1467D01*
X587Y1467D02*
X589Y1467D01*
X604Y1467D02*
X606Y1467D01*
X753Y1467D02*
X755Y1467D01*
X438Y1466D02*
X440Y1466D01*
X587Y1466D02*
X589Y1466D01*
X604Y1466D02*
X606Y1466D01*
X753Y1466D02*
X755Y1466D01*
X438Y1465D02*
X440Y1465D01*
X587Y1465D02*
X589Y1465D01*
X604Y1465D02*
X606Y1465D01*
X753Y1465D02*
X755Y1465D01*
X438Y1464D02*
X440Y1464D01*
X587Y1464D02*
X589Y1464D01*
X604Y1464D02*
X606Y1464D01*
X753Y1464D02*
X755Y1464D01*
X438Y1463D02*
X440Y1463D01*
X587Y1463D02*
X589Y1463D01*
X604Y1463D02*
X606Y1463D01*
X753Y1463D02*
X755Y1463D01*
X438Y1462D02*
X440Y1462D01*
X587Y1462D02*
X589Y1462D01*
X604Y1462D02*
X606Y1462D01*
X753Y1462D02*
X755Y1462D01*
X438Y1461D02*
X440Y1461D01*
X587Y1461D02*
X589Y1461D01*
X604Y1461D02*
X606Y1461D01*
X753Y1461D02*
X755Y1461D01*
X438Y1460D02*
X440Y1460D01*
X587Y1460D02*
X589Y1460D01*
X604Y1460D02*
X606Y1460D01*
X753Y1460D02*
X755Y1460D01*
X438Y1459D02*
X440Y1459D01*
X587Y1459D02*
X589Y1459D01*
X604Y1459D02*
X606Y1459D01*
X753Y1459D02*
X755Y1459D01*
X438Y1458D02*
X440Y1458D01*
X587Y1458D02*
X589Y1458D01*
X604Y1458D02*
X606Y1458D01*
X753Y1458D02*
X755Y1458D01*
X438Y1457D02*
X440Y1457D01*
X587Y1457D02*
X589Y1457D01*
X604Y1457D02*
X606Y1457D01*
X753Y1457D02*
X755Y1457D01*
X438Y1456D02*
X440Y1456D01*
X587Y1456D02*
X589Y1456D01*
X604Y1456D02*
X606Y1456D01*
X753Y1456D02*
X755Y1456D01*
X438Y1455D02*
X440Y1455D01*
X587Y1455D02*
X589Y1455D01*
X604Y1455D02*
X606Y1455D01*
X753Y1455D02*
X755Y1455D01*
X438Y1454D02*
X440Y1454D01*
X587Y1454D02*
X589Y1454D01*
X604Y1454D02*
X606Y1454D01*
X753Y1454D02*
X755Y1454D01*
X438Y1453D02*
X440Y1453D01*
X587Y1453D02*
X589Y1453D01*
X604Y1453D02*
X606Y1453D01*
X753Y1453D02*
X755Y1453D01*
X438Y1452D02*
X440Y1452D01*
X587Y1452D02*
X589Y1452D01*
X604Y1452D02*
X606Y1452D01*
X753Y1452D02*
X755Y1452D01*
X438Y1451D02*
X440Y1451D01*
X506Y1451D02*
X521Y1451D01*
X587Y1451D02*
X589Y1451D01*
X604Y1451D02*
X606Y1451D01*
X753Y1451D02*
X755Y1451D01*
X438Y1450D02*
X589Y1450D01*
X604Y1450D02*
X606Y1450D01*
X753Y1450D02*
X755Y1450D01*
X438Y1449D02*
X589Y1449D01*
X604Y1449D02*
X606Y1449D01*
X753Y1449D02*
X755Y1449D01*
X438Y1448D02*
X589Y1448D01*
X604Y1448D02*
X606Y1448D01*
X753Y1448D02*
X755Y1448D01*
X604Y1447D02*
X606Y1447D01*
X672Y1447D02*
X687Y1447D01*
X753Y1447D02*
X755Y1447D01*
X604Y1446D02*
X755Y1446D01*
X604Y1445D02*
X755Y1445D01*
X604Y1444D02*
X755Y1444D01*
X493Y1439D02*
X507Y1439D01*
X527Y1439D02*
X541Y1439D01*
X492Y1438D02*
X507Y1438D01*
X525Y1438D02*
X541Y1438D01*
X492Y1437D02*
X507Y1437D01*
X523Y1437D02*
X541Y1437D01*
X492Y1436D02*
X507Y1436D01*
X523Y1436D02*
X541Y1436D01*
X494Y1435D02*
X507Y1435D01*
X522Y1435D02*
X541Y1435D01*
X504Y1434D02*
X507Y1434D01*
X522Y1434D02*
X525Y1434D01*
X538Y1434D02*
X541Y1434D01*
X504Y1433D02*
X507Y1433D01*
X522Y1433D02*
X525Y1433D01*
X538Y1433D02*
X541Y1433D01*
X645Y1433D02*
X656Y1433D01*
X675Y1433D02*
X686Y1433D01*
X697Y1433D02*
X709Y1433D01*
X504Y1432D02*
X507Y1432D01*
X522Y1432D02*
X525Y1432D01*
X538Y1432D02*
X541Y1432D01*
X645Y1432D02*
X656Y1432D01*
X675Y1432D02*
X686Y1432D01*
X697Y1432D02*
X710Y1432D01*
X504Y1431D02*
X507Y1431D01*
X522Y1431D02*
X525Y1431D01*
X538Y1431D02*
X541Y1431D01*
X645Y1431D02*
X656Y1431D01*
X675Y1431D02*
X686Y1431D01*
X697Y1431D02*
X711Y1431D01*
X504Y1430D02*
X507Y1430D01*
X522Y1430D02*
X525Y1430D01*
X538Y1430D02*
X541Y1430D01*
X645Y1430D02*
X655Y1430D01*
X675Y1430D02*
X685Y1430D01*
X698Y1430D02*
X711Y1430D01*
X504Y1429D02*
X507Y1429D01*
X522Y1429D02*
X526Y1429D01*
X538Y1429D02*
X541Y1429D01*
X645Y1429D02*
X648Y1429D01*
X675Y1429D02*
X678Y1429D01*
X708Y1429D02*
X712Y1429D01*
X504Y1428D02*
X507Y1428D01*
X522Y1428D02*
X541Y1428D01*
X645Y1428D02*
X648Y1428D01*
X675Y1428D02*
X678Y1428D01*
X709Y1428D02*
X712Y1428D01*
X504Y1427D02*
X507Y1427D01*
X523Y1427D02*
X541Y1427D01*
X645Y1427D02*
X648Y1427D01*
X675Y1427D02*
X678Y1427D01*
X709Y1427D02*
X713Y1427D01*
X504Y1426D02*
X507Y1426D01*
X524Y1426D02*
X541Y1426D01*
X645Y1426D02*
X648Y1426D01*
X675Y1426D02*
X678Y1426D01*
X710Y1426D02*
X713Y1426D01*
X496Y1425D02*
X507Y1425D01*
X525Y1425D02*
X541Y1425D01*
X645Y1425D02*
X648Y1425D01*
X675Y1425D02*
X678Y1425D01*
X710Y1425D02*
X714Y1425D01*
X493Y1424D02*
X507Y1424D01*
X530Y1424D02*
X534Y1424D01*
X538Y1424D02*
X541Y1424D01*
X645Y1424D02*
X648Y1424D01*
X675Y1424D02*
X678Y1424D01*
X711Y1424D02*
X714Y1424D01*
X492Y1423D02*
X507Y1423D01*
X530Y1423D02*
X533Y1423D01*
X538Y1423D02*
X541Y1423D01*
X645Y1423D02*
X648Y1423D01*
X675Y1423D02*
X678Y1423D01*
X711Y1423D02*
X715Y1423D01*
X492Y1422D02*
X507Y1422D01*
X529Y1422D02*
X533Y1422D01*
X538Y1422D02*
X541Y1422D01*
X645Y1422D02*
X648Y1422D01*
X675Y1422D02*
X678Y1422D01*
X712Y1422D02*
X715Y1422D01*
X492Y1421D02*
X507Y1421D01*
X528Y1421D02*
X532Y1421D01*
X538Y1421D02*
X541Y1421D01*
X645Y1421D02*
X648Y1421D01*
X675Y1421D02*
X678Y1421D01*
X712Y1421D02*
X716Y1421D01*
X492Y1420D02*
X495Y1420D01*
X528Y1420D02*
X532Y1420D01*
X538Y1420D02*
X541Y1420D01*
X645Y1420D02*
X648Y1420D01*
X675Y1420D02*
X678Y1420D01*
X713Y1420D02*
X716Y1420D01*
X492Y1419D02*
X495Y1419D01*
X527Y1419D02*
X531Y1419D01*
X538Y1419D02*
X541Y1419D01*
X645Y1419D02*
X648Y1419D01*
X675Y1419D02*
X678Y1419D01*
X713Y1419D02*
X716Y1419D01*
X492Y1418D02*
X495Y1418D01*
X527Y1418D02*
X531Y1418D01*
X538Y1418D02*
X541Y1418D01*
X645Y1418D02*
X648Y1418D01*
X675Y1418D02*
X678Y1418D01*
X713Y1418D02*
X716Y1418D01*
X492Y1417D02*
X495Y1417D01*
X526Y1417D02*
X530Y1417D01*
X538Y1417D02*
X541Y1417D01*
X645Y1417D02*
X648Y1417D01*
X675Y1417D02*
X678Y1417D01*
X713Y1417D02*
X716Y1417D01*
X492Y1416D02*
X495Y1416D01*
X526Y1416D02*
X529Y1416D01*
X538Y1416D02*
X541Y1416D01*
X638Y1416D02*
X639Y1416D01*
X645Y1416D02*
X648Y1416D01*
X668Y1416D02*
X669Y1416D01*
X675Y1416D02*
X678Y1416D01*
X713Y1416D02*
X716Y1416D01*
X492Y1415D02*
X495Y1415D01*
X525Y1415D02*
X529Y1415D01*
X538Y1415D02*
X541Y1415D01*
X637Y1415D02*
X640Y1415D01*
X645Y1415D02*
X648Y1415D01*
X667Y1415D02*
X670Y1415D01*
X675Y1415D02*
X678Y1415D01*
X712Y1415D02*
X716Y1415D01*
X492Y1414D02*
X495Y1414D01*
X524Y1414D02*
X528Y1414D01*
X538Y1414D02*
X541Y1414D01*
X637Y1414D02*
X640Y1414D01*
X645Y1414D02*
X648Y1414D01*
X667Y1414D02*
X670Y1414D01*
X675Y1414D02*
X678Y1414D01*
X712Y1414D02*
X716Y1414D01*
X492Y1413D02*
X495Y1413D01*
X524Y1413D02*
X528Y1413D01*
X538Y1413D02*
X541Y1413D01*
X637Y1413D02*
X640Y1413D01*
X645Y1413D02*
X648Y1413D01*
X667Y1413D02*
X670Y1413D01*
X675Y1413D02*
X678Y1413D01*
X711Y1413D02*
X715Y1413D01*
X492Y1412D02*
X495Y1412D01*
X508Y1412D02*
X511Y1412D01*
X523Y1412D02*
X527Y1412D01*
X538Y1412D02*
X541Y1412D01*
X637Y1412D02*
X640Y1412D01*
X645Y1412D02*
X648Y1412D01*
X667Y1412D02*
X670Y1412D01*
X675Y1412D02*
X678Y1412D01*
X711Y1412D02*
X715Y1412D01*
X492Y1411D02*
X495Y1411D01*
X506Y1411D02*
X511Y1411D01*
X523Y1411D02*
X526Y1411D01*
X538Y1411D02*
X541Y1411D01*
X637Y1411D02*
X640Y1411D01*
X645Y1411D02*
X648Y1411D01*
X667Y1411D02*
X670Y1411D01*
X675Y1411D02*
X678Y1411D01*
X710Y1411D02*
X714Y1411D01*
X492Y1410D02*
X511Y1410D01*
X522Y1410D02*
X526Y1410D01*
X538Y1410D02*
X541Y1410D01*
X637Y1410D02*
X640Y1410D01*
X645Y1410D02*
X648Y1410D01*
X667Y1410D02*
X670Y1410D01*
X675Y1410D02*
X678Y1410D01*
X710Y1410D02*
X714Y1410D01*
X492Y1409D02*
X511Y1409D01*
X522Y1409D02*
X525Y1409D01*
X538Y1409D02*
X541Y1409D01*
X637Y1409D02*
X640Y1409D01*
X645Y1409D02*
X648Y1409D01*
X667Y1409D02*
X670Y1409D01*
X675Y1409D02*
X678Y1409D01*
X709Y1409D02*
X713Y1409D01*
X493Y1408D02*
X509Y1408D01*
X522Y1408D02*
X525Y1408D01*
X538Y1408D02*
X541Y1408D01*
X637Y1408D02*
X640Y1408D01*
X645Y1408D02*
X648Y1408D01*
X667Y1408D02*
X670Y1408D01*
X675Y1408D02*
X678Y1408D01*
X709Y1408D02*
X713Y1408D01*
X494Y1407D02*
X506Y1407D01*
X523Y1407D02*
X524Y1407D01*
X539Y1407D02*
X540Y1407D01*
X637Y1407D02*
X640Y1407D01*
X645Y1407D02*
X648Y1407D01*
X667Y1407D02*
X670Y1407D01*
X675Y1407D02*
X678Y1407D01*
X708Y1407D02*
X712Y1407D01*
X637Y1406D02*
X640Y1406D01*
X645Y1406D02*
X648Y1406D01*
X667Y1406D02*
X670Y1406D01*
X675Y1406D02*
X678Y1406D01*
X707Y1406D02*
X712Y1406D01*
X637Y1405D02*
X656Y1405D01*
X667Y1405D02*
X686Y1405D01*
X697Y1405D02*
X711Y1405D01*
X637Y1404D02*
X656Y1404D01*
X667Y1404D02*
X686Y1404D01*
X697Y1404D02*
X710Y1404D01*
X637Y1403D02*
X656Y1403D01*
X667Y1403D02*
X686Y1403D01*
X697Y1403D02*
X709Y1403D01*
X637Y1402D02*
X656Y1402D01*
X667Y1402D02*
X686Y1402D01*
X697Y1402D02*
X708Y1402D01*
X873Y1389D02*
X1018Y1389D01*
X872Y1388D02*
X1019Y1388D01*
X872Y1387D02*
X1019Y1387D01*
X872Y1386D02*
X1019Y1386D01*
X892Y1385D02*
X1000Y1385D01*
X892Y1384D02*
X1000Y1384D01*
X83Y1315D02*
X95Y1315D01*
X147Y1315D02*
X225Y1315D01*
X277Y1315D02*
X282Y1315D01*
X83Y1314D02*
X95Y1314D01*
X147Y1314D02*
X225Y1314D01*
X277Y1314D02*
X283Y1314D01*
X83Y1313D02*
X95Y1313D01*
X147Y1313D02*
X225Y1313D01*
X277Y1313D02*
X283Y1313D01*
X83Y1312D02*
X95Y1312D01*
X147Y1312D02*
X225Y1312D01*
X277Y1312D02*
X283Y1312D01*
X83Y1311D02*
X95Y1311D01*
X147Y1311D02*
X225Y1311D01*
X277Y1311D02*
X283Y1311D01*
X83Y1310D02*
X95Y1310D01*
X147Y1310D02*
X225Y1310D01*
X277Y1310D02*
X283Y1310D01*
X83Y1309D02*
X95Y1309D01*
X147Y1309D02*
X225Y1309D01*
X277Y1309D02*
X283Y1309D01*
X83Y1308D02*
X95Y1308D01*
X277Y1308D02*
X283Y1308D01*
X83Y1307D02*
X89Y1307D01*
X277Y1307D02*
X283Y1307D01*
X83Y1306D02*
X89Y1306D01*
X277Y1306D02*
X283Y1306D01*
X83Y1305D02*
X89Y1305D01*
X277Y1305D02*
X283Y1305D01*
X83Y1304D02*
X89Y1304D01*
X277Y1304D02*
X283Y1304D01*
X83Y1303D02*
X89Y1303D01*
X277Y1303D02*
X283Y1303D01*
X83Y1302D02*
X89Y1302D01*
X277Y1302D02*
X283Y1302D01*
X83Y1301D02*
X89Y1301D01*
X277Y1301D02*
X283Y1301D01*
X83Y1300D02*
X89Y1300D01*
X277Y1300D02*
X283Y1300D01*
X83Y1299D02*
X89Y1299D01*
X277Y1299D02*
X283Y1299D01*
X83Y1298D02*
X89Y1298D01*
X277Y1298D02*
X283Y1298D01*
X83Y1297D02*
X89Y1297D01*
X277Y1297D02*
X283Y1297D01*
X83Y1296D02*
X89Y1296D01*
X277Y1296D02*
X283Y1296D01*
X83Y1295D02*
X89Y1295D01*
X277Y1295D02*
X283Y1295D01*
X83Y1294D02*
X89Y1294D01*
X277Y1294D02*
X283Y1294D01*
X83Y1293D02*
X89Y1293D01*
X277Y1293D02*
X283Y1293D01*
X83Y1292D02*
X89Y1292D01*
X277Y1292D02*
X283Y1292D01*
X83Y1291D02*
X89Y1291D01*
X277Y1291D02*
X283Y1291D01*
X83Y1290D02*
X89Y1290D01*
X277Y1290D02*
X283Y1290D01*
X83Y1289D02*
X89Y1289D01*
X277Y1289D02*
X283Y1289D01*
X83Y1288D02*
X89Y1288D01*
X277Y1288D02*
X283Y1288D01*
X83Y1287D02*
X89Y1287D01*
X277Y1287D02*
X283Y1287D01*
X83Y1286D02*
X89Y1286D01*
X277Y1286D02*
X283Y1286D01*
X83Y1285D02*
X89Y1285D01*
X277Y1285D02*
X283Y1285D01*
X83Y1284D02*
X89Y1284D01*
X277Y1284D02*
X283Y1284D01*
X83Y1283D02*
X89Y1283D01*
X277Y1283D02*
X283Y1283D01*
X83Y1282D02*
X89Y1282D01*
X277Y1282D02*
X283Y1282D01*
X83Y1281D02*
X89Y1281D01*
X277Y1281D02*
X283Y1281D01*
X83Y1280D02*
X89Y1280D01*
X277Y1280D02*
X283Y1280D01*
X83Y1279D02*
X89Y1279D01*
X277Y1279D02*
X283Y1279D01*
X83Y1278D02*
X89Y1278D01*
X277Y1278D02*
X283Y1278D01*
X83Y1277D02*
X89Y1277D01*
X277Y1277D02*
X283Y1277D01*
X83Y1276D02*
X89Y1276D01*
X277Y1276D02*
X283Y1276D01*
X83Y1275D02*
X89Y1275D01*
X277Y1275D02*
X283Y1275D01*
X83Y1274D02*
X89Y1274D01*
X277Y1274D02*
X283Y1274D01*
X83Y1273D02*
X89Y1273D01*
X153Y1273D02*
X155Y1273D01*
X277Y1273D02*
X283Y1273D01*
X83Y1272D02*
X89Y1272D01*
X153Y1272D02*
X155Y1272D01*
X277Y1272D02*
X283Y1272D01*
X83Y1271D02*
X89Y1271D01*
X105Y1271D02*
X109Y1271D01*
X116Y1271D02*
X118Y1271D01*
X124Y1271D02*
X128Y1271D01*
X135Y1271D02*
X137Y1271D01*
X141Y1271D02*
X142Y1271D01*
X153Y1271D02*
X154Y1271D01*
X232Y1271D02*
X234Y1271D01*
X255Y1271D02*
X257Y1271D01*
X265Y1271D02*
X267Y1271D01*
X277Y1271D02*
X283Y1271D01*
X83Y1270D02*
X89Y1270D01*
X105Y1270D02*
X107Y1270D01*
X116Y1270D02*
X118Y1270D01*
X123Y1270D02*
X126Y1270D01*
X135Y1270D02*
X137Y1270D01*
X141Y1270D02*
X143Y1270D01*
X152Y1270D02*
X154Y1270D01*
X232Y1270D02*
X234Y1270D01*
X254Y1270D02*
X256Y1270D01*
X266Y1270D02*
X268Y1270D01*
X277Y1270D02*
X283Y1270D01*
X83Y1269D02*
X89Y1269D01*
X104Y1269D02*
X106Y1269D01*
X116Y1269D02*
X118Y1269D01*
X123Y1269D02*
X125Y1269D01*
X135Y1269D02*
X137Y1269D01*
X141Y1269D02*
X143Y1269D01*
X152Y1269D02*
X154Y1269D01*
X232Y1269D02*
X234Y1269D01*
X254Y1269D02*
X256Y1269D01*
X267Y1269D02*
X269Y1269D01*
X277Y1269D02*
X283Y1269D01*
X83Y1268D02*
X89Y1268D01*
X104Y1268D02*
X105Y1268D01*
X116Y1268D02*
X118Y1268D01*
X122Y1268D02*
X124Y1268D01*
X135Y1268D02*
X137Y1268D01*
X142Y1268D02*
X143Y1268D01*
X152Y1268D02*
X153Y1268D01*
X228Y1268D02*
X236Y1268D01*
X239Y1268D02*
X240Y1268D01*
X248Y1268D02*
X249Y1268D01*
X253Y1268D02*
X255Y1268D01*
X267Y1268D02*
X269Y1268D01*
X277Y1268D02*
X283Y1268D01*
X83Y1267D02*
X89Y1267D01*
X103Y1267D02*
X105Y1267D01*
X116Y1267D02*
X118Y1267D01*
X122Y1267D02*
X124Y1267D01*
X135Y1267D02*
X137Y1267D01*
X142Y1267D02*
X144Y1267D01*
X151Y1267D02*
X153Y1267D01*
X228Y1267D02*
X236Y1267D01*
X239Y1267D02*
X240Y1267D01*
X248Y1267D02*
X249Y1267D01*
X253Y1267D02*
X255Y1267D01*
X267Y1267D02*
X269Y1267D01*
X277Y1267D02*
X283Y1267D01*
X83Y1266D02*
X89Y1266D01*
X103Y1266D02*
X105Y1266D01*
X116Y1266D02*
X118Y1266D01*
X122Y1266D02*
X124Y1266D01*
X135Y1266D02*
X137Y1266D01*
X142Y1266D02*
X144Y1266D01*
X151Y1266D02*
X153Y1266D01*
X232Y1266D02*
X234Y1266D01*
X239Y1266D02*
X240Y1266D01*
X248Y1266D02*
X249Y1266D01*
X253Y1266D02*
X255Y1266D01*
X268Y1266D02*
X269Y1266D01*
X277Y1266D02*
X283Y1266D01*
X83Y1265D02*
X89Y1265D01*
X103Y1265D02*
X105Y1265D01*
X116Y1265D02*
X118Y1265D01*
X122Y1265D02*
X124Y1265D01*
X135Y1265D02*
X137Y1265D01*
X143Y1265D02*
X144Y1265D01*
X151Y1265D02*
X152Y1265D01*
X232Y1265D02*
X234Y1265D01*
X239Y1265D02*
X240Y1265D01*
X248Y1265D02*
X249Y1265D01*
X253Y1265D02*
X255Y1265D01*
X268Y1265D02*
X269Y1265D01*
X277Y1265D02*
X283Y1265D01*
X83Y1264D02*
X89Y1264D01*
X103Y1264D02*
X105Y1264D01*
X116Y1264D02*
X118Y1264D01*
X122Y1264D02*
X123Y1264D01*
X135Y1264D02*
X137Y1264D01*
X143Y1264D02*
X145Y1264D01*
X150Y1264D02*
X152Y1264D01*
X232Y1264D02*
X234Y1264D01*
X239Y1264D02*
X240Y1264D01*
X248Y1264D02*
X249Y1264D01*
X253Y1264D02*
X254Y1264D01*
X268Y1264D02*
X270Y1264D01*
X277Y1264D02*
X283Y1264D01*
X83Y1263D02*
X89Y1263D01*
X103Y1263D02*
X105Y1263D01*
X116Y1263D02*
X118Y1263D01*
X122Y1263D02*
X123Y1263D01*
X135Y1263D02*
X137Y1263D01*
X143Y1263D02*
X145Y1263D01*
X150Y1263D02*
X152Y1263D01*
X232Y1263D02*
X234Y1263D01*
X239Y1263D02*
X240Y1263D01*
X248Y1263D02*
X249Y1263D01*
X253Y1263D02*
X255Y1263D01*
X268Y1263D02*
X269Y1263D01*
X277Y1263D02*
X283Y1263D01*
X83Y1262D02*
X89Y1262D01*
X103Y1262D02*
X105Y1262D01*
X116Y1262D02*
X118Y1262D01*
X122Y1262D02*
X124Y1262D01*
X135Y1262D02*
X137Y1262D01*
X144Y1262D02*
X145Y1262D01*
X150Y1262D02*
X151Y1262D01*
X232Y1262D02*
X234Y1262D01*
X239Y1262D02*
X240Y1262D01*
X248Y1262D02*
X249Y1262D01*
X253Y1262D02*
X255Y1262D01*
X268Y1262D02*
X269Y1262D01*
X277Y1262D02*
X283Y1262D01*
X83Y1261D02*
X89Y1261D01*
X103Y1261D02*
X105Y1261D01*
X116Y1261D02*
X118Y1261D01*
X122Y1261D02*
X124Y1261D01*
X135Y1261D02*
X137Y1261D01*
X144Y1261D02*
X146Y1261D01*
X149Y1261D02*
X151Y1261D01*
X232Y1261D02*
X234Y1261D01*
X239Y1261D02*
X240Y1261D01*
X248Y1261D02*
X249Y1261D01*
X253Y1261D02*
X255Y1261D01*
X267Y1261D02*
X269Y1261D01*
X277Y1261D02*
X283Y1261D01*
X83Y1260D02*
X89Y1260D01*
X103Y1260D02*
X105Y1260D01*
X116Y1260D02*
X118Y1260D01*
X122Y1260D02*
X124Y1260D01*
X135Y1260D02*
X137Y1260D01*
X144Y1260D02*
X146Y1260D01*
X149Y1260D02*
X151Y1260D01*
X232Y1260D02*
X234Y1260D01*
X239Y1260D02*
X240Y1260D01*
X248Y1260D02*
X249Y1260D01*
X253Y1260D02*
X255Y1260D01*
X267Y1260D02*
X269Y1260D01*
X277Y1260D02*
X283Y1260D01*
X83Y1259D02*
X89Y1259D01*
X104Y1259D02*
X106Y1259D01*
X116Y1259D02*
X118Y1259D01*
X123Y1259D02*
X125Y1259D01*
X135Y1259D02*
X137Y1259D01*
X145Y1259D02*
X146Y1259D01*
X149Y1259D02*
X150Y1259D01*
X232Y1259D02*
X234Y1259D01*
X239Y1259D02*
X240Y1259D01*
X248Y1259D02*
X249Y1259D01*
X253Y1259D02*
X255Y1259D01*
X267Y1259D02*
X269Y1259D01*
X277Y1259D02*
X283Y1259D01*
X83Y1258D02*
X89Y1258D01*
X104Y1258D02*
X107Y1258D01*
X116Y1258D02*
X118Y1258D01*
X123Y1258D02*
X125Y1258D01*
X135Y1258D02*
X137Y1258D01*
X145Y1258D02*
X150Y1258D01*
X232Y1258D02*
X234Y1258D01*
X239Y1258D02*
X240Y1258D01*
X248Y1258D02*
X249Y1258D01*
X254Y1258D02*
X256Y1258D01*
X266Y1258D02*
X268Y1258D01*
X277Y1258D02*
X283Y1258D01*
X83Y1257D02*
X89Y1257D01*
X105Y1257D02*
X108Y1257D01*
X116Y1257D02*
X118Y1257D01*
X124Y1257D02*
X127Y1257D01*
X135Y1257D02*
X137Y1257D01*
X145Y1257D02*
X150Y1257D01*
X232Y1257D02*
X234Y1257D01*
X239Y1257D02*
X241Y1257D01*
X247Y1257D02*
X249Y1257D01*
X254Y1257D02*
X257Y1257D01*
X265Y1257D02*
X268Y1257D01*
X277Y1257D02*
X283Y1257D01*
X83Y1256D02*
X89Y1256D01*
X106Y1256D02*
X112Y1256D01*
X116Y1256D02*
X118Y1256D01*
X125Y1256D02*
X131Y1256D01*
X134Y1256D02*
X137Y1256D01*
X146Y1256D02*
X149Y1256D01*
X231Y1256D02*
X234Y1256D01*
X239Y1256D02*
X243Y1256D01*
X247Y1256D02*
X249Y1256D01*
X255Y1256D02*
X258Y1256D01*
X264Y1256D02*
X267Y1256D01*
X277Y1256D02*
X283Y1256D01*
X83Y1255D02*
X89Y1255D01*
X107Y1255D02*
X118Y1255D01*
X126Y1255D02*
X137Y1255D01*
X146Y1255D02*
X149Y1255D01*
X228Y1255D02*
X233Y1255D01*
X239Y1255D02*
X248Y1255D01*
X256Y1255D02*
X266Y1255D01*
X277Y1255D02*
X283Y1255D01*
X83Y1254D02*
X89Y1254D01*
X110Y1254D02*
X118Y1254D01*
X129Y1254D02*
X136Y1254D01*
X146Y1254D02*
X148Y1254D01*
X228Y1254D02*
X232Y1254D01*
X239Y1254D02*
X240Y1254D01*
X243Y1254D02*
X247Y1254D01*
X258Y1254D02*
X264Y1254D01*
X277Y1254D02*
X283Y1254D01*
X83Y1253D02*
X89Y1253D01*
X277Y1253D02*
X283Y1253D01*
X83Y1252D02*
X89Y1252D01*
X277Y1252D02*
X283Y1252D01*
X83Y1251D02*
X89Y1251D01*
X277Y1251D02*
X283Y1251D01*
X83Y1250D02*
X89Y1250D01*
X277Y1250D02*
X283Y1250D01*
X83Y1249D02*
X89Y1249D01*
X277Y1249D02*
X283Y1249D01*
X83Y1248D02*
X89Y1248D01*
X277Y1248D02*
X283Y1248D01*
X83Y1247D02*
X89Y1247D01*
X277Y1247D02*
X283Y1247D01*
X83Y1246D02*
X89Y1246D01*
X277Y1246D02*
X283Y1246D01*
X83Y1245D02*
X89Y1245D01*
X277Y1245D02*
X283Y1245D01*
X83Y1244D02*
X89Y1244D01*
X277Y1244D02*
X283Y1244D01*
X83Y1243D02*
X89Y1243D01*
X277Y1243D02*
X283Y1243D01*
X83Y1242D02*
X89Y1242D01*
X277Y1242D02*
X283Y1242D01*
X83Y1241D02*
X89Y1241D01*
X277Y1241D02*
X283Y1241D01*
X83Y1240D02*
X89Y1240D01*
X277Y1240D02*
X283Y1240D01*
X83Y1239D02*
X89Y1239D01*
X277Y1239D02*
X283Y1239D01*
X83Y1238D02*
X89Y1238D01*
X277Y1238D02*
X283Y1238D01*
X83Y1237D02*
X89Y1237D01*
X277Y1237D02*
X283Y1237D01*
X83Y1236D02*
X89Y1236D01*
X277Y1236D02*
X283Y1236D01*
X83Y1235D02*
X89Y1235D01*
X277Y1235D02*
X283Y1235D01*
X83Y1234D02*
X89Y1234D01*
X277Y1234D02*
X283Y1234D01*
X83Y1233D02*
X89Y1233D01*
X277Y1233D02*
X283Y1233D01*
X83Y1232D02*
X89Y1232D01*
X277Y1232D02*
X283Y1232D01*
X83Y1231D02*
X89Y1231D01*
X277Y1231D02*
X283Y1231D01*
X83Y1230D02*
X89Y1230D01*
X279Y1230D02*
X283Y1230D01*
X83Y1229D02*
X89Y1229D01*
X280Y1229D02*
X283Y1229D01*
X83Y1228D02*
X89Y1228D01*
X130Y1228D02*
X140Y1228D01*
X150Y1228D02*
X157Y1228D01*
X171Y1228D02*
X172Y1228D01*
X188Y1228D02*
X195Y1228D01*
X208Y1228D02*
X215Y1228D01*
X223Y1228D02*
X231Y1228D01*
X237Y1228D02*
X238Y1228D01*
X250Y1228D02*
X250Y1228D01*
X282Y1228D02*
X283Y1228D01*
X83Y1227D02*
X89Y1227D01*
X128Y1227D02*
X140Y1227D01*
X149Y1227D02*
X159Y1227D01*
X171Y1227D02*
X172Y1227D01*
X187Y1227D02*
X196Y1227D01*
X207Y1227D02*
X217Y1227D01*
X221Y1227D02*
X232Y1227D01*
X237Y1227D02*
X239Y1227D01*
X283Y1227D02*
X283Y1227D01*
X83Y1226D02*
X89Y1226D01*
X126Y1226D02*
X140Y1226D01*
X148Y1226D02*
X160Y1226D01*
X171Y1226D02*
X173Y1226D01*
X186Y1226D02*
X189Y1226D01*
X194Y1226D02*
X197Y1226D01*
X206Y1226D02*
X217Y1226D01*
X220Y1226D02*
X234Y1226D01*
X237Y1226D02*
X239Y1226D01*
X83Y1225D02*
X89Y1225D01*
X126Y1225D02*
X130Y1225D01*
X138Y1225D02*
X140Y1225D01*
X147Y1225D02*
X151Y1225D01*
X158Y1225D02*
X160Y1225D01*
X171Y1225D02*
X175Y1225D01*
X185Y1225D02*
X188Y1225D01*
X195Y1225D02*
X198Y1225D01*
X205Y1225D02*
X209Y1225D01*
X216Y1225D02*
X217Y1225D01*
X220Y1225D02*
X223Y1225D01*
X231Y1225D02*
X234Y1225D01*
X237Y1225D02*
X239Y1225D01*
X83Y1224D02*
X89Y1224D01*
X125Y1224D02*
X128Y1224D01*
X138Y1224D02*
X140Y1224D01*
X147Y1224D02*
X150Y1224D01*
X171Y1224D02*
X177Y1224D01*
X185Y1224D02*
X187Y1224D01*
X196Y1224D02*
X198Y1224D01*
X205Y1224D02*
X208Y1224D01*
X220Y1224D02*
X221Y1224D01*
X232Y1224D02*
X235Y1224D01*
X237Y1224D02*
X240Y1224D01*
X83Y1223D02*
X89Y1223D01*
X125Y1223D02*
X128Y1223D01*
X138Y1223D02*
X140Y1223D01*
X147Y1223D02*
X149Y1223D01*
X171Y1223D02*
X177Y1223D01*
X184Y1223D02*
X187Y1223D01*
X196Y1223D02*
X199Y1223D01*
X204Y1223D02*
X207Y1223D01*
X233Y1223D02*
X235Y1223D01*
X238Y1223D02*
X240Y1223D01*
X83Y1222D02*
X89Y1222D01*
X125Y1222D02*
X128Y1222D01*
X138Y1222D02*
X140Y1222D01*
X147Y1222D02*
X149Y1222D01*
X171Y1222D02*
X173Y1222D01*
X184Y1222D02*
X187Y1222D01*
X196Y1222D02*
X199Y1222D01*
X204Y1222D02*
X207Y1222D01*
X233Y1222D02*
X235Y1222D01*
X238Y1222D02*
X240Y1222D01*
X83Y1221D02*
X89Y1221D01*
X125Y1221D02*
X128Y1221D01*
X138Y1221D02*
X140Y1221D01*
X147Y1221D02*
X149Y1221D01*
X171Y1221D02*
X173Y1221D01*
X185Y1221D02*
X187Y1221D01*
X196Y1221D02*
X198Y1221D01*
X204Y1221D02*
X207Y1221D01*
X233Y1221D02*
X235Y1221D01*
X238Y1221D02*
X240Y1221D01*
X83Y1220D02*
X89Y1220D01*
X126Y1220D02*
X128Y1220D01*
X138Y1220D02*
X140Y1220D01*
X147Y1220D02*
X149Y1220D01*
X171Y1220D02*
X173Y1220D01*
X185Y1220D02*
X187Y1220D01*
X195Y1220D02*
X198Y1220D01*
X205Y1220D02*
X207Y1220D01*
X232Y1220D02*
X235Y1220D01*
X238Y1220D02*
X241Y1220D01*
X83Y1219D02*
X89Y1219D01*
X126Y1219D02*
X129Y1219D01*
X138Y1219D02*
X140Y1219D01*
X147Y1219D02*
X149Y1219D01*
X171Y1219D02*
X173Y1219D01*
X185Y1219D02*
X188Y1219D01*
X194Y1219D02*
X198Y1219D01*
X205Y1219D02*
X207Y1219D01*
X232Y1219D02*
X235Y1219D01*
X239Y1219D02*
X241Y1219D01*
X83Y1218D02*
X89Y1218D01*
X127Y1218D02*
X132Y1218D01*
X137Y1218D02*
X140Y1218D01*
X147Y1218D02*
X150Y1218D01*
X171Y1218D02*
X173Y1218D01*
X186Y1218D02*
X188Y1218D01*
X192Y1218D02*
X197Y1218D01*
X205Y1218D02*
X208Y1218D01*
X230Y1218D02*
X234Y1218D01*
X239Y1218D02*
X241Y1218D01*
X83Y1217D02*
X89Y1217D01*
X128Y1217D02*
X140Y1217D01*
X148Y1217D02*
X150Y1217D01*
X171Y1217D02*
X173Y1217D01*
X187Y1217D02*
X196Y1217D01*
X206Y1217D02*
X208Y1217D01*
X226Y1217D02*
X234Y1217D01*
X239Y1217D02*
X241Y1217D01*
X83Y1216D02*
X89Y1216D01*
X127Y1216D02*
X140Y1216D01*
X148Y1216D02*
X151Y1216D01*
X171Y1216D02*
X173Y1216D01*
X188Y1216D02*
X196Y1216D01*
X206Y1216D02*
X209Y1216D01*
X223Y1216D02*
X233Y1216D01*
X239Y1216D02*
X242Y1216D01*
X83Y1215D02*
X89Y1215D01*
X125Y1215D02*
X130Y1215D01*
X137Y1215D02*
X140Y1215D01*
X149Y1215D02*
X152Y1215D01*
X171Y1215D02*
X173Y1215D01*
X186Y1215D02*
X192Y1215D01*
X195Y1215D02*
X197Y1215D01*
X207Y1215D02*
X210Y1215D01*
X222Y1215D02*
X231Y1215D01*
X240Y1215D02*
X242Y1215D01*
X83Y1214D02*
X89Y1214D01*
X125Y1214D02*
X128Y1214D01*
X138Y1214D02*
X140Y1214D01*
X150Y1214D02*
X153Y1214D01*
X171Y1214D02*
X173Y1214D01*
X185Y1214D02*
X189Y1214D01*
X196Y1214D02*
X198Y1214D01*
X208Y1214D02*
X211Y1214D01*
X221Y1214D02*
X227Y1214D01*
X240Y1214D02*
X241Y1214D01*
X83Y1213D02*
X89Y1213D01*
X124Y1213D02*
X127Y1213D01*
X138Y1213D02*
X140Y1213D01*
X151Y1213D02*
X154Y1213D01*
X171Y1213D02*
X173Y1213D01*
X185Y1213D02*
X188Y1213D01*
X196Y1213D02*
X198Y1213D01*
X209Y1213D02*
X211Y1213D01*
X220Y1213D02*
X224Y1213D01*
X240Y1213D02*
X241Y1213D01*
X83Y1212D02*
X89Y1212D01*
X124Y1212D02*
X127Y1212D01*
X138Y1212D02*
X140Y1212D01*
X152Y1212D02*
X155Y1212D01*
X171Y1212D02*
X173Y1212D01*
X184Y1212D02*
X187Y1212D01*
X197Y1212D02*
X199Y1212D01*
X209Y1212D02*
X212Y1212D01*
X220Y1212D02*
X223Y1212D01*
X240Y1212D02*
X241Y1212D01*
X83Y1211D02*
X89Y1211D01*
X124Y1211D02*
X126Y1211D01*
X138Y1211D02*
X140Y1211D01*
X153Y1211D02*
X155Y1211D01*
X171Y1211D02*
X173Y1211D01*
X184Y1211D02*
X186Y1211D01*
X197Y1211D02*
X199Y1211D01*
X210Y1211D02*
X213Y1211D01*
X220Y1211D02*
X222Y1211D01*
X241Y1211D02*
X241Y1211D01*
X83Y1210D02*
X89Y1210D01*
X124Y1210D02*
X126Y1210D01*
X138Y1210D02*
X140Y1210D01*
X154Y1210D02*
X156Y1210D01*
X171Y1210D02*
X173Y1210D01*
X184Y1210D02*
X186Y1210D01*
X197Y1210D02*
X199Y1210D01*
X211Y1210D02*
X214Y1210D01*
X219Y1210D02*
X222Y1210D01*
X241Y1210D02*
X241Y1210D01*
X83Y1209D02*
X89Y1209D01*
X124Y1209D02*
X127Y1209D01*
X138Y1209D02*
X140Y1209D01*
X155Y1209D02*
X157Y1209D01*
X171Y1209D02*
X173Y1209D01*
X184Y1209D02*
X186Y1209D01*
X197Y1209D02*
X199Y1209D01*
X212Y1209D02*
X215Y1209D01*
X220Y1209D02*
X222Y1209D01*
X241Y1209D02*
X241Y1209D01*
X83Y1208D02*
X89Y1208D01*
X124Y1208D02*
X127Y1208D01*
X138Y1208D02*
X140Y1208D01*
X156Y1208D02*
X158Y1208D01*
X171Y1208D02*
X173Y1208D01*
X184Y1208D02*
X187Y1208D01*
X196Y1208D02*
X199Y1208D01*
X213Y1208D02*
X216Y1208D01*
X220Y1208D02*
X222Y1208D01*
X235Y1208D02*
X236Y1208D01*
X241Y1208D02*
X241Y1208D01*
X83Y1207D02*
X89Y1207D01*
X125Y1207D02*
X128Y1207D01*
X138Y1207D02*
X140Y1207D01*
X157Y1207D02*
X160Y1207D01*
X171Y1207D02*
X173Y1207D01*
X184Y1207D02*
X187Y1207D01*
X196Y1207D02*
X199Y1207D01*
X215Y1207D02*
X217Y1207D01*
X220Y1207D02*
X223Y1207D01*
X234Y1207D02*
X236Y1207D01*
X83Y1206D02*
X89Y1206D01*
X126Y1206D02*
X131Y1206D01*
X137Y1206D02*
X140Y1206D01*
X157Y1206D02*
X160Y1206D01*
X171Y1206D02*
X173Y1206D01*
X185Y1206D02*
X188Y1206D01*
X195Y1206D02*
X198Y1206D01*
X215Y1206D02*
X218Y1206D01*
X221Y1206D02*
X224Y1206D01*
X232Y1206D02*
X236Y1206D01*
X83Y1205D02*
X89Y1205D01*
X127Y1205D02*
X140Y1205D01*
X145Y1205D02*
X160Y1205D01*
X166Y1205D02*
X177Y1205D01*
X186Y1205D02*
X190Y1205D01*
X193Y1205D02*
X197Y1205D01*
X203Y1205D02*
X218Y1205D01*
X222Y1205D02*
X236Y1205D01*
X83Y1204D02*
X89Y1204D01*
X128Y1204D02*
X140Y1204D01*
X145Y1204D02*
X160Y1204D01*
X166Y1204D02*
X177Y1204D01*
X187Y1204D02*
X196Y1204D01*
X203Y1204D02*
X218Y1204D01*
X223Y1204D02*
X234Y1204D01*
X83Y1203D02*
X89Y1203D01*
X133Y1203D02*
X140Y1203D01*
X146Y1203D02*
X160Y1203D01*
X166Y1203D02*
X177Y1203D01*
X189Y1203D02*
X195Y1203D01*
X204Y1203D02*
X218Y1203D01*
X225Y1203D02*
X232Y1203D01*
X892Y1203D02*
X1000Y1203D01*
X83Y1202D02*
X89Y1202D01*
X891Y1202D02*
X1000Y1202D01*
X83Y1201D02*
X89Y1201D01*
X872Y1201D02*
X1019Y1201D01*
X83Y1200D02*
X89Y1200D01*
X872Y1200D02*
X1019Y1200D01*
X83Y1199D02*
X89Y1199D01*
X873Y1199D02*
X1018Y1199D01*
X83Y1198D02*
X89Y1198D01*
X874Y1198D02*
X1017Y1198D01*
X83Y1197D02*
X89Y1197D01*
X83Y1196D02*
X89Y1196D01*
X83Y1195D02*
X89Y1195D01*
X83Y1194D02*
X89Y1194D01*
X83Y1193D02*
X89Y1193D01*
X83Y1192D02*
X89Y1192D01*
X83Y1191D02*
X89Y1191D01*
X283Y1191D02*
X283Y1191D01*
X83Y1190D02*
X89Y1190D01*
X282Y1190D02*
X283Y1190D01*
X83Y1189D02*
X89Y1189D01*
X281Y1189D02*
X283Y1189D01*
X83Y1188D02*
X89Y1188D01*
X279Y1188D02*
X283Y1188D01*
X83Y1187D02*
X89Y1187D01*
X277Y1187D02*
X283Y1187D01*
X792Y1187D02*
X821Y1187D01*
X852Y1187D02*
X870Y1187D01*
X888Y1187D02*
X920Y1187D01*
X944Y1187D02*
X967Y1187D01*
X989Y1187D02*
X1008Y1187D01*
X1053Y1187D02*
X1057Y1187D01*
X83Y1186D02*
X89Y1186D01*
X277Y1186D02*
X283Y1186D01*
X791Y1186D02*
X821Y1186D01*
X852Y1186D02*
X871Y1186D01*
X888Y1186D02*
X921Y1186D01*
X942Y1186D02*
X969Y1186D01*
X989Y1186D02*
X1010Y1186D01*
X1052Y1186D02*
X1057Y1186D01*
X83Y1185D02*
X89Y1185D01*
X277Y1185D02*
X283Y1185D01*
X790Y1185D02*
X822Y1185D01*
X852Y1185D02*
X872Y1185D01*
X888Y1185D02*
X922Y1185D01*
X941Y1185D02*
X970Y1185D01*
X988Y1185D02*
X1011Y1185D01*
X1052Y1185D02*
X1058Y1185D01*
X83Y1184D02*
X89Y1184D01*
X277Y1184D02*
X283Y1184D01*
X789Y1184D02*
X822Y1184D01*
X852Y1184D02*
X872Y1184D01*
X888Y1184D02*
X922Y1184D01*
X940Y1184D02*
X971Y1184D01*
X988Y1184D02*
X1012Y1184D01*
X1052Y1184D02*
X1058Y1184D01*
X83Y1183D02*
X89Y1183D01*
X277Y1183D02*
X283Y1183D01*
X789Y1183D02*
X821Y1183D01*
X852Y1183D02*
X871Y1183D01*
X888Y1183D02*
X922Y1183D01*
X939Y1183D02*
X971Y1183D01*
X988Y1183D02*
X1012Y1183D01*
X1051Y1183D02*
X1058Y1183D01*
X83Y1182D02*
X89Y1182D01*
X277Y1182D02*
X283Y1182D01*
X788Y1182D02*
X821Y1182D01*
X852Y1182D02*
X871Y1182D01*
X888Y1182D02*
X922Y1182D01*
X939Y1182D02*
X971Y1182D01*
X989Y1182D02*
X1013Y1182D01*
X1051Y1182D02*
X1059Y1182D01*
X83Y1181D02*
X89Y1181D01*
X277Y1181D02*
X283Y1181D01*
X788Y1181D02*
X819Y1181D01*
X852Y1181D02*
X869Y1181D01*
X888Y1181D02*
X922Y1181D01*
X938Y1181D02*
X972Y1181D01*
X991Y1181D02*
X1014Y1181D01*
X1051Y1181D02*
X1059Y1181D01*
X83Y1180D02*
X89Y1180D01*
X277Y1180D02*
X283Y1180D01*
X788Y1180D02*
X794Y1180D01*
X852Y1180D02*
X858Y1180D01*
X888Y1180D02*
X894Y1180D01*
X916Y1180D02*
X921Y1180D01*
X938Y1180D02*
X945Y1180D01*
X966Y1180D02*
X972Y1180D01*
X1007Y1180D02*
X1014Y1180D01*
X1050Y1180D02*
X1059Y1180D01*
X83Y1179D02*
X89Y1179D01*
X277Y1179D02*
X283Y1179D01*
X788Y1179D02*
X794Y1179D01*
X852Y1179D02*
X858Y1179D01*
X888Y1179D02*
X894Y1179D01*
X917Y1179D02*
X921Y1179D01*
X938Y1179D02*
X944Y1179D01*
X965Y1179D02*
X971Y1179D01*
X1008Y1179D02*
X1015Y1179D01*
X1050Y1179D02*
X1060Y1179D01*
X83Y1178D02*
X89Y1178D01*
X123Y1178D02*
X130Y1178D01*
X277Y1178D02*
X283Y1178D01*
X788Y1178D02*
X794Y1178D01*
X852Y1178D02*
X858Y1178D01*
X888Y1178D02*
X894Y1178D01*
X938Y1178D02*
X944Y1178D01*
X964Y1178D02*
X971Y1178D01*
X1008Y1178D02*
X1015Y1178D01*
X1050Y1178D02*
X1060Y1178D01*
X83Y1177D02*
X89Y1177D01*
X123Y1177D02*
X130Y1177D01*
X223Y1177D02*
X224Y1177D01*
X277Y1177D02*
X283Y1177D01*
X788Y1177D02*
X794Y1177D01*
X852Y1177D02*
X858Y1177D01*
X888Y1177D02*
X894Y1177D01*
X939Y1177D02*
X944Y1177D01*
X964Y1177D02*
X971Y1177D01*
X1009Y1177D02*
X1015Y1177D01*
X1050Y1177D02*
X1060Y1177D01*
X83Y1176D02*
X89Y1176D01*
X125Y1176D02*
X127Y1176D01*
X223Y1176D02*
X224Y1176D01*
X256Y1176D02*
X262Y1176D01*
X277Y1176D02*
X283Y1176D01*
X788Y1176D02*
X794Y1176D01*
X852Y1176D02*
X858Y1176D01*
X888Y1176D02*
X894Y1176D01*
X939Y1176D02*
X943Y1176D01*
X963Y1176D02*
X971Y1176D01*
X1009Y1176D02*
X1016Y1176D01*
X1049Y1176D02*
X1060Y1176D01*
X83Y1175D02*
X89Y1175D01*
X125Y1175D02*
X127Y1175D01*
X223Y1175D02*
X224Y1175D01*
X254Y1175D02*
X264Y1175D01*
X277Y1175D02*
X283Y1175D01*
X788Y1175D02*
X794Y1175D01*
X852Y1175D02*
X858Y1175D01*
X888Y1175D02*
X894Y1175D01*
X962Y1175D02*
X970Y1175D01*
X1010Y1175D02*
X1016Y1175D01*
X1049Y1175D02*
X1061Y1175D01*
X83Y1174D02*
X89Y1174D01*
X116Y1174D02*
X116Y1174D01*
X125Y1174D02*
X127Y1174D01*
X223Y1174D02*
X224Y1174D01*
X253Y1174D02*
X258Y1174D01*
X262Y1174D02*
X266Y1174D01*
X277Y1174D02*
X283Y1174D01*
X788Y1174D02*
X794Y1174D01*
X852Y1174D02*
X858Y1174D01*
X888Y1174D02*
X894Y1174D01*
X961Y1174D02*
X969Y1174D01*
X1010Y1174D02*
X1017Y1174D01*
X1049Y1174D02*
X1061Y1174D01*
X83Y1173D02*
X89Y1173D01*
X113Y1173D02*
X118Y1173D01*
X121Y1173D02*
X122Y1173D01*
X125Y1173D02*
X127Y1173D01*
X223Y1173D02*
X224Y1173D01*
X253Y1173D02*
X255Y1173D01*
X264Y1173D02*
X266Y1173D01*
X277Y1173D02*
X283Y1173D01*
X788Y1173D02*
X794Y1173D01*
X852Y1173D02*
X858Y1173D01*
X888Y1173D02*
X894Y1173D01*
X960Y1173D02*
X968Y1173D01*
X1011Y1173D02*
X1017Y1173D01*
X1048Y1173D02*
X1061Y1173D01*
X83Y1172D02*
X89Y1172D01*
X112Y1172D02*
X122Y1172D01*
X125Y1172D02*
X127Y1172D01*
X223Y1172D02*
X224Y1172D01*
X253Y1172D02*
X253Y1172D01*
X265Y1172D02*
X267Y1172D01*
X277Y1172D02*
X283Y1172D01*
X788Y1172D02*
X794Y1172D01*
X852Y1172D02*
X858Y1172D01*
X888Y1172D02*
X894Y1172D01*
X960Y1172D02*
X968Y1172D01*
X1011Y1172D02*
X1018Y1172D01*
X1048Y1172D02*
X1062Y1172D01*
X83Y1171D02*
X89Y1171D01*
X112Y1171D02*
X114Y1171D01*
X119Y1171D02*
X122Y1171D01*
X125Y1171D02*
X127Y1171D01*
X223Y1171D02*
X224Y1171D01*
X227Y1171D02*
X230Y1171D01*
X241Y1171D02*
X244Y1171D01*
X248Y1171D02*
X249Y1171D01*
X266Y1171D02*
X268Y1171D01*
X277Y1171D02*
X283Y1171D01*
X788Y1171D02*
X794Y1171D01*
X852Y1171D02*
X858Y1171D01*
X888Y1171D02*
X894Y1171D01*
X959Y1171D02*
X967Y1171D01*
X1012Y1171D02*
X1018Y1171D01*
X1048Y1171D02*
X1054Y1171D01*
X1056Y1171D02*
X1062Y1171D01*
X83Y1170D02*
X89Y1170D01*
X111Y1170D02*
X113Y1170D01*
X120Y1170D02*
X122Y1170D01*
X125Y1170D02*
X127Y1170D01*
X223Y1170D02*
X232Y1170D01*
X239Y1170D02*
X249Y1170D01*
X266Y1170D02*
X268Y1170D01*
X277Y1170D02*
X283Y1170D01*
X788Y1170D02*
X794Y1170D01*
X852Y1170D02*
X858Y1170D01*
X888Y1170D02*
X894Y1170D01*
X1012Y1170D02*
X1019Y1170D01*
X1047Y1170D02*
X1054Y1170D01*
X1056Y1170D02*
X1062Y1170D01*
X83Y1169D02*
X89Y1169D01*
X111Y1169D02*
X113Y1169D01*
X121Y1169D02*
X122Y1169D01*
X125Y1169D02*
X127Y1169D01*
X223Y1169D02*
X226Y1169D01*
X229Y1169D02*
X233Y1169D01*
X239Y1169D02*
X242Y1169D01*
X244Y1169D02*
X249Y1169D01*
X266Y1169D02*
X268Y1169D01*
X277Y1169D02*
X283Y1169D01*
X788Y1169D02*
X794Y1169D01*
X852Y1169D02*
X858Y1169D01*
X888Y1169D02*
X894Y1169D01*
X1013Y1169D02*
X1019Y1169D01*
X1047Y1169D02*
X1054Y1169D01*
X1056Y1169D02*
X1063Y1169D01*
X83Y1168D02*
X89Y1168D01*
X111Y1168D02*
X113Y1168D01*
X121Y1168D02*
X122Y1168D01*
X125Y1168D02*
X127Y1168D01*
X223Y1168D02*
X224Y1168D01*
X231Y1168D02*
X233Y1168D01*
X238Y1168D02*
X240Y1168D01*
X246Y1168D02*
X249Y1168D01*
X267Y1168D02*
X268Y1168D01*
X277Y1168D02*
X283Y1168D01*
X788Y1168D02*
X794Y1168D01*
X852Y1168D02*
X858Y1168D01*
X888Y1168D02*
X895Y1168D01*
X1013Y1168D02*
X1020Y1168D01*
X1047Y1168D02*
X1053Y1168D01*
X1057Y1168D02*
X1063Y1168D01*
X83Y1167D02*
X89Y1167D01*
X111Y1167D02*
X113Y1167D01*
X121Y1167D02*
X122Y1167D01*
X125Y1167D02*
X127Y1167D01*
X223Y1167D02*
X224Y1167D01*
X232Y1167D02*
X234Y1167D01*
X238Y1167D02*
X240Y1167D01*
X247Y1167D02*
X249Y1167D01*
X267Y1167D02*
X268Y1167D01*
X277Y1167D02*
X283Y1167D01*
X788Y1167D02*
X794Y1167D01*
X852Y1167D02*
X858Y1167D01*
X888Y1167D02*
X896Y1167D01*
X1014Y1167D02*
X1020Y1167D01*
X1047Y1167D02*
X1053Y1167D01*
X1057Y1167D02*
X1063Y1167D01*
X83Y1166D02*
X89Y1166D01*
X111Y1166D02*
X113Y1166D01*
X121Y1166D02*
X122Y1166D01*
X125Y1166D02*
X127Y1166D01*
X223Y1166D02*
X224Y1166D01*
X232Y1166D02*
X234Y1166D01*
X238Y1166D02*
X240Y1166D01*
X247Y1166D02*
X249Y1166D01*
X254Y1166D02*
X259Y1166D01*
X267Y1166D02*
X268Y1166D01*
X277Y1166D02*
X283Y1166D01*
X788Y1166D02*
X794Y1166D01*
X852Y1166D02*
X858Y1166D01*
X888Y1166D02*
X897Y1166D01*
X1014Y1166D02*
X1021Y1166D01*
X1046Y1166D02*
X1053Y1166D01*
X1057Y1166D02*
X1063Y1166D01*
X83Y1165D02*
X89Y1165D01*
X111Y1165D02*
X113Y1165D01*
X121Y1165D02*
X122Y1165D01*
X125Y1165D02*
X127Y1165D01*
X223Y1165D02*
X224Y1165D01*
X233Y1165D02*
X234Y1165D01*
X238Y1165D02*
X240Y1165D01*
X247Y1165D02*
X249Y1165D01*
X253Y1165D02*
X260Y1165D01*
X267Y1165D02*
X268Y1165D01*
X277Y1165D02*
X283Y1165D01*
X788Y1165D02*
X794Y1165D01*
X852Y1165D02*
X858Y1165D01*
X889Y1165D02*
X898Y1165D01*
X1015Y1165D02*
X1021Y1165D01*
X1046Y1165D02*
X1052Y1165D01*
X1057Y1165D02*
X1064Y1165D01*
X83Y1164D02*
X89Y1164D01*
X111Y1164D02*
X113Y1164D01*
X121Y1164D02*
X122Y1164D01*
X125Y1164D02*
X127Y1164D01*
X223Y1164D02*
X224Y1164D01*
X233Y1164D02*
X234Y1164D01*
X238Y1164D02*
X240Y1164D01*
X247Y1164D02*
X249Y1164D01*
X253Y1164D02*
X259Y1164D01*
X267Y1164D02*
X268Y1164D01*
X277Y1164D02*
X283Y1164D01*
X788Y1164D02*
X817Y1164D01*
X852Y1164D02*
X858Y1164D01*
X889Y1164D02*
X899Y1164D01*
X1015Y1164D02*
X1021Y1164D01*
X1046Y1164D02*
X1052Y1164D01*
X1058Y1164D02*
X1064Y1164D01*
X83Y1163D02*
X89Y1163D01*
X111Y1163D02*
X113Y1163D01*
X121Y1163D02*
X122Y1163D01*
X125Y1163D02*
X127Y1163D01*
X223Y1163D02*
X224Y1163D01*
X233Y1163D02*
X234Y1163D01*
X238Y1163D02*
X240Y1163D01*
X247Y1163D02*
X249Y1163D01*
X253Y1163D02*
X255Y1163D01*
X266Y1163D02*
X268Y1163D01*
X277Y1163D02*
X283Y1163D01*
X788Y1163D02*
X819Y1163D01*
X852Y1163D02*
X858Y1163D01*
X891Y1163D02*
X900Y1163D01*
X1015Y1163D02*
X1021Y1163D01*
X1045Y1163D02*
X1052Y1163D01*
X1058Y1163D02*
X1062Y1163D01*
X83Y1162D02*
X89Y1162D01*
X111Y1162D02*
X113Y1162D01*
X121Y1162D02*
X122Y1162D01*
X125Y1162D02*
X127Y1162D01*
X223Y1162D02*
X224Y1162D01*
X233Y1162D02*
X234Y1162D01*
X238Y1162D02*
X240Y1162D01*
X247Y1162D02*
X249Y1162D01*
X253Y1162D02*
X255Y1162D01*
X266Y1162D02*
X268Y1162D01*
X276Y1162D02*
X283Y1162D01*
X789Y1162D02*
X820Y1162D01*
X852Y1162D02*
X858Y1162D01*
X892Y1162D02*
X902Y1162D01*
X1015Y1162D02*
X1022Y1162D01*
X1045Y1162D02*
X1051Y1162D01*
X1058Y1162D02*
X1060Y1162D01*
X83Y1161D02*
X89Y1161D01*
X111Y1161D02*
X113Y1161D01*
X121Y1161D02*
X122Y1161D01*
X125Y1161D02*
X127Y1161D01*
X223Y1161D02*
X224Y1161D01*
X233Y1161D02*
X234Y1161D01*
X238Y1161D02*
X240Y1161D01*
X247Y1161D02*
X249Y1161D01*
X253Y1161D02*
X255Y1161D01*
X266Y1161D02*
X268Y1161D01*
X275Y1161D02*
X283Y1161D01*
X789Y1161D02*
X821Y1161D01*
X852Y1161D02*
X858Y1161D01*
X893Y1161D02*
X903Y1161D01*
X1016Y1161D02*
X1022Y1161D01*
X1045Y1161D02*
X1051Y1161D01*
X1059Y1161D02*
X1059Y1161D01*
X83Y1160D02*
X89Y1160D01*
X111Y1160D02*
X113Y1160D01*
X121Y1160D02*
X130Y1160D01*
X223Y1160D02*
X224Y1160D01*
X232Y1160D02*
X234Y1160D01*
X238Y1160D02*
X240Y1160D01*
X247Y1160D02*
X249Y1160D01*
X253Y1160D02*
X255Y1160D01*
X265Y1160D02*
X267Y1160D01*
X274Y1160D02*
X283Y1160D01*
X790Y1160D02*
X821Y1160D01*
X852Y1160D02*
X858Y1160D01*
X894Y1160D02*
X904Y1160D01*
X1016Y1160D02*
X1022Y1160D01*
X1045Y1160D02*
X1051Y1160D01*
X83Y1159D02*
X89Y1159D01*
X111Y1159D02*
X113Y1159D01*
X121Y1159D02*
X130Y1159D01*
X223Y1159D02*
X225Y1159D01*
X232Y1159D02*
X234Y1159D01*
X238Y1159D02*
X240Y1159D01*
X247Y1159D02*
X249Y1159D01*
X253Y1159D02*
X255Y1159D01*
X264Y1159D02*
X266Y1159D01*
X273Y1159D02*
X283Y1159D01*
X791Y1159D02*
X822Y1159D01*
X852Y1159D02*
X858Y1159D01*
X895Y1159D02*
X905Y1159D01*
X1015Y1159D02*
X1021Y1159D01*
X1044Y1159D02*
X1051Y1159D01*
X83Y1158D02*
X89Y1158D01*
X223Y1158D02*
X233Y1158D01*
X238Y1158D02*
X240Y1158D01*
X247Y1158D02*
X249Y1158D01*
X253Y1158D02*
X257Y1158D01*
X261Y1158D02*
X266Y1158D01*
X272Y1158D02*
X283Y1158D01*
X792Y1158D02*
X822Y1158D01*
X840Y1158D02*
X842Y1158D01*
X852Y1158D02*
X858Y1158D01*
X896Y1158D02*
X906Y1158D01*
X1015Y1158D02*
X1021Y1158D01*
X1044Y1158D02*
X1050Y1158D01*
X83Y1157D02*
X89Y1157D01*
X223Y1157D02*
X232Y1157D01*
X238Y1157D02*
X240Y1157D01*
X247Y1157D02*
X249Y1157D01*
X254Y1157D02*
X264Y1157D01*
X271Y1157D02*
X275Y1157D01*
X277Y1157D02*
X283Y1157D01*
X816Y1157D02*
X822Y1157D01*
X839Y1157D02*
X843Y1157D01*
X852Y1157D02*
X858Y1157D01*
X898Y1157D02*
X907Y1157D01*
X1015Y1157D02*
X1021Y1157D01*
X1044Y1157D02*
X1050Y1157D01*
X83Y1156D02*
X89Y1156D01*
X223Y1156D02*
X224Y1156D01*
X277Y1156D02*
X283Y1156D01*
X816Y1156D02*
X822Y1156D01*
X838Y1156D02*
X844Y1156D01*
X852Y1156D02*
X858Y1156D01*
X899Y1156D02*
X908Y1156D01*
X1014Y1156D02*
X1021Y1156D01*
X1043Y1156D02*
X1050Y1156D01*
X83Y1155D02*
X89Y1155D01*
X277Y1155D02*
X283Y1155D01*
X816Y1155D02*
X822Y1155D01*
X838Y1155D02*
X844Y1155D01*
X852Y1155D02*
X858Y1155D01*
X900Y1155D02*
X908Y1155D01*
X1014Y1155D02*
X1020Y1155D01*
X1043Y1155D02*
X1049Y1155D01*
X83Y1154D02*
X89Y1154D01*
X277Y1154D02*
X283Y1154D01*
X816Y1154D02*
X822Y1154D01*
X838Y1154D02*
X844Y1154D01*
X852Y1154D02*
X858Y1154D01*
X901Y1154D02*
X908Y1154D01*
X1013Y1154D02*
X1020Y1154D01*
X1043Y1154D02*
X1049Y1154D01*
X83Y1153D02*
X89Y1153D01*
X277Y1153D02*
X283Y1153D01*
X816Y1153D02*
X822Y1153D01*
X838Y1153D02*
X844Y1153D01*
X852Y1153D02*
X858Y1153D01*
X902Y1153D02*
X908Y1153D01*
X1013Y1153D02*
X1020Y1153D01*
X1043Y1153D02*
X1049Y1153D01*
X83Y1152D02*
X89Y1152D01*
X277Y1152D02*
X283Y1152D01*
X816Y1152D02*
X822Y1152D01*
X838Y1152D02*
X844Y1152D01*
X852Y1152D02*
X858Y1152D01*
X902Y1152D02*
X908Y1152D01*
X1012Y1152D02*
X1019Y1152D01*
X1042Y1152D02*
X1052Y1152D01*
X83Y1151D02*
X89Y1151D01*
X277Y1151D02*
X283Y1151D01*
X816Y1151D02*
X822Y1151D01*
X838Y1151D02*
X844Y1151D01*
X852Y1151D02*
X858Y1151D01*
X902Y1151D02*
X908Y1151D01*
X1012Y1151D02*
X1019Y1151D01*
X1042Y1151D02*
X1051Y1151D01*
X83Y1150D02*
X89Y1150D01*
X277Y1150D02*
X283Y1150D01*
X816Y1150D02*
X822Y1150D01*
X838Y1150D02*
X844Y1150D01*
X852Y1150D02*
X858Y1150D01*
X902Y1150D02*
X908Y1150D01*
X1011Y1150D02*
X1018Y1150D01*
X1042Y1150D02*
X1051Y1150D01*
X83Y1149D02*
X89Y1149D01*
X277Y1149D02*
X283Y1149D01*
X816Y1149D02*
X822Y1149D01*
X838Y1149D02*
X844Y1149D01*
X852Y1149D02*
X858Y1149D01*
X902Y1149D02*
X908Y1149D01*
X1011Y1149D02*
X1018Y1149D01*
X1041Y1149D02*
X1051Y1149D01*
X83Y1148D02*
X89Y1148D01*
X277Y1148D02*
X283Y1148D01*
X816Y1148D02*
X822Y1148D01*
X838Y1148D02*
X844Y1148D01*
X852Y1148D02*
X858Y1148D01*
X902Y1148D02*
X908Y1148D01*
X1010Y1148D02*
X1017Y1148D01*
X1041Y1148D02*
X1050Y1148D01*
X83Y1147D02*
X89Y1147D01*
X277Y1147D02*
X283Y1147D01*
X816Y1147D02*
X822Y1147D01*
X838Y1147D02*
X844Y1147D01*
X852Y1147D02*
X858Y1147D01*
X902Y1147D02*
X908Y1147D01*
X1010Y1147D02*
X1017Y1147D01*
X1041Y1147D02*
X1050Y1147D01*
X83Y1146D02*
X89Y1146D01*
X277Y1146D02*
X283Y1146D01*
X816Y1146D02*
X822Y1146D01*
X838Y1146D02*
X844Y1146D01*
X852Y1146D02*
X858Y1146D01*
X902Y1146D02*
X908Y1146D01*
X1009Y1146D02*
X1016Y1146D01*
X1040Y1146D02*
X1050Y1146D01*
X83Y1145D02*
X89Y1145D01*
X277Y1145D02*
X283Y1145D01*
X816Y1145D02*
X822Y1145D01*
X838Y1145D02*
X844Y1145D01*
X852Y1145D02*
X858Y1145D01*
X902Y1145D02*
X908Y1145D01*
X1009Y1145D02*
X1016Y1145D01*
X1040Y1145D02*
X1046Y1145D01*
X83Y1144D02*
X89Y1144D01*
X277Y1144D02*
X283Y1144D01*
X816Y1144D02*
X822Y1144D01*
X838Y1144D02*
X844Y1144D01*
X852Y1144D02*
X858Y1144D01*
X902Y1144D02*
X908Y1144D01*
X1008Y1144D02*
X1015Y1144D01*
X1040Y1144D02*
X1046Y1144D01*
X83Y1143D02*
X89Y1143D01*
X277Y1143D02*
X283Y1143D01*
X816Y1143D02*
X822Y1143D01*
X838Y1143D02*
X844Y1143D01*
X852Y1143D02*
X858Y1143D01*
X902Y1143D02*
X908Y1143D01*
X1008Y1143D02*
X1015Y1143D01*
X1040Y1143D02*
X1046Y1143D01*
X83Y1142D02*
X89Y1142D01*
X277Y1142D02*
X283Y1142D01*
X816Y1142D02*
X822Y1142D01*
X838Y1142D02*
X844Y1142D01*
X852Y1142D02*
X858Y1142D01*
X902Y1142D02*
X908Y1142D01*
X1007Y1142D02*
X1014Y1142D01*
X1039Y1142D02*
X1046Y1142D01*
X83Y1141D02*
X89Y1141D01*
X277Y1141D02*
X283Y1141D01*
X816Y1141D02*
X822Y1141D01*
X838Y1141D02*
X844Y1141D01*
X852Y1141D02*
X858Y1141D01*
X902Y1141D02*
X908Y1141D01*
X1006Y1141D02*
X1014Y1141D01*
X1039Y1141D02*
X1045Y1141D01*
X83Y1140D02*
X89Y1140D01*
X277Y1140D02*
X283Y1140D01*
X790Y1140D02*
X822Y1140D01*
X838Y1140D02*
X870Y1140D01*
X902Y1140D02*
X908Y1140D01*
X998Y1140D02*
X1013Y1140D01*
X1039Y1140D02*
X1045Y1140D01*
X83Y1139D02*
X89Y1139D01*
X277Y1139D02*
X283Y1139D01*
X789Y1139D02*
X822Y1139D01*
X838Y1139D02*
X871Y1139D01*
X902Y1139D02*
X908Y1139D01*
X998Y1139D02*
X1012Y1139D01*
X1038Y1139D02*
X1045Y1139D01*
X83Y1138D02*
X89Y1138D01*
X277Y1138D02*
X283Y1138D01*
X788Y1138D02*
X822Y1138D01*
X838Y1138D02*
X872Y1138D01*
X902Y1138D02*
X908Y1138D01*
X998Y1138D02*
X1012Y1138D01*
X1038Y1138D02*
X1044Y1138D01*
X83Y1137D02*
X89Y1137D01*
X277Y1137D02*
X283Y1137D01*
X788Y1137D02*
X822Y1137D01*
X838Y1137D02*
X872Y1137D01*
X902Y1137D02*
X908Y1137D01*
X998Y1137D02*
X1011Y1137D01*
X1038Y1137D02*
X1044Y1137D01*
X83Y1136D02*
X89Y1136D01*
X277Y1136D02*
X283Y1136D01*
X788Y1136D02*
X822Y1136D01*
X838Y1136D02*
X871Y1136D01*
X902Y1136D02*
X908Y1136D01*
X998Y1136D02*
X1010Y1136D01*
X1038Y1136D02*
X1044Y1136D01*
X83Y1135D02*
X89Y1135D01*
X277Y1135D02*
X283Y1135D01*
X789Y1135D02*
X822Y1135D01*
X839Y1135D02*
X871Y1135D01*
X903Y1135D02*
X907Y1135D01*
X998Y1135D02*
X1008Y1135D01*
X1039Y1135D02*
X1043Y1135D01*
X83Y1134D02*
X89Y1134D01*
X277Y1134D02*
X283Y1134D01*
X791Y1134D02*
X822Y1134D01*
X841Y1134D02*
X869Y1134D01*
X904Y1134D02*
X906Y1134D01*
X999Y1134D02*
X1006Y1134D01*
X1040Y1134D02*
X1042Y1134D01*
X83Y1133D02*
X89Y1133D01*
X277Y1133D02*
X283Y1133D01*
X83Y1132D02*
X89Y1132D01*
X277Y1132D02*
X283Y1132D01*
X83Y1131D02*
X89Y1131D01*
X277Y1131D02*
X283Y1131D01*
X83Y1130D02*
X89Y1130D01*
X277Y1130D02*
X283Y1130D01*
X83Y1129D02*
X89Y1129D01*
X277Y1129D02*
X283Y1129D01*
X83Y1128D02*
X89Y1128D01*
X277Y1128D02*
X283Y1128D01*
X83Y1127D02*
X89Y1127D01*
X277Y1127D02*
X283Y1127D01*
X83Y1126D02*
X89Y1126D01*
X277Y1126D02*
X283Y1126D01*
X83Y1125D02*
X89Y1125D01*
X277Y1125D02*
X283Y1125D01*
X83Y1124D02*
X89Y1124D01*
X277Y1124D02*
X283Y1124D01*
X83Y1123D02*
X89Y1123D01*
X277Y1123D02*
X283Y1123D01*
X83Y1122D02*
X89Y1122D01*
X277Y1122D02*
X283Y1122D01*
X83Y1121D02*
X95Y1121D01*
X147Y1121D02*
X225Y1121D01*
X277Y1121D02*
X283Y1121D01*
X83Y1120D02*
X95Y1120D01*
X147Y1120D02*
X225Y1120D01*
X277Y1120D02*
X283Y1120D01*
X83Y1119D02*
X95Y1119D01*
X147Y1119D02*
X225Y1119D01*
X277Y1119D02*
X283Y1119D01*
X83Y1118D02*
X95Y1118D01*
X147Y1118D02*
X225Y1118D01*
X277Y1118D02*
X283Y1118D01*
X83Y1117D02*
X95Y1117D01*
X147Y1117D02*
X225Y1117D01*
X277Y1117D02*
X283Y1117D01*
X83Y1116D02*
X95Y1116D01*
X147Y1116D02*
X225Y1116D01*
X277Y1116D02*
X283Y1116D01*
X83Y1115D02*
X95Y1115D01*
X147Y1115D02*
X225Y1115D01*
X277Y1115D02*
X283Y1115D01*
X709Y882D02*
X715Y882D01*
X766Y882D02*
X845Y882D01*
X896Y882D02*
X909Y882D01*
X709Y881D02*
X715Y881D01*
X766Y881D02*
X845Y881D01*
X896Y881D02*
X909Y881D01*
X709Y880D02*
X715Y880D01*
X766Y880D02*
X845Y880D01*
X896Y880D02*
X909Y880D01*
X709Y879D02*
X715Y879D01*
X766Y879D02*
X845Y879D01*
X896Y879D02*
X909Y879D01*
X709Y878D02*
X715Y878D01*
X766Y878D02*
X845Y878D01*
X896Y878D02*
X909Y878D01*
X709Y877D02*
X715Y877D01*
X766Y877D02*
X845Y877D01*
X896Y877D02*
X909Y877D01*
X709Y876D02*
X715Y876D01*
X766Y876D02*
X845Y876D01*
X896Y876D02*
X909Y876D01*
X709Y875D02*
X715Y875D01*
X903Y875D02*
X909Y875D01*
X709Y874D02*
X715Y874D01*
X903Y874D02*
X909Y874D01*
X709Y873D02*
X715Y873D01*
X903Y873D02*
X909Y873D01*
X709Y872D02*
X715Y872D01*
X903Y872D02*
X909Y872D01*
X709Y871D02*
X715Y871D01*
X903Y871D02*
X909Y871D01*
X709Y870D02*
X715Y870D01*
X903Y870D02*
X909Y870D01*
X709Y869D02*
X715Y869D01*
X903Y869D02*
X909Y869D01*
X709Y868D02*
X715Y868D01*
X903Y868D02*
X909Y868D01*
X709Y867D02*
X715Y867D01*
X903Y867D02*
X909Y867D01*
X709Y866D02*
X715Y866D01*
X903Y866D02*
X909Y866D01*
X709Y865D02*
X715Y865D01*
X903Y865D02*
X909Y865D01*
X709Y864D02*
X715Y864D01*
X903Y864D02*
X909Y864D01*
X709Y863D02*
X715Y863D01*
X903Y863D02*
X909Y863D01*
X709Y862D02*
X715Y862D01*
X903Y862D02*
X909Y862D01*
X709Y861D02*
X715Y861D01*
X903Y861D02*
X909Y861D01*
X709Y860D02*
X715Y860D01*
X903Y860D02*
X909Y860D01*
X709Y859D02*
X715Y859D01*
X903Y859D02*
X909Y859D01*
X709Y858D02*
X715Y858D01*
X903Y858D02*
X909Y858D01*
X709Y857D02*
X715Y857D01*
X903Y857D02*
X909Y857D01*
X709Y856D02*
X715Y856D01*
X903Y856D02*
X909Y856D01*
X709Y855D02*
X715Y855D01*
X903Y855D02*
X909Y855D01*
X709Y854D02*
X715Y854D01*
X903Y854D02*
X909Y854D01*
X709Y853D02*
X715Y853D01*
X903Y853D02*
X909Y853D01*
X709Y852D02*
X715Y852D01*
X903Y852D02*
X909Y852D01*
X709Y851D02*
X715Y851D01*
X903Y851D02*
X909Y851D01*
X709Y850D02*
X715Y850D01*
X903Y850D02*
X909Y850D01*
X709Y849D02*
X715Y849D01*
X903Y849D02*
X909Y849D01*
X709Y848D02*
X715Y848D01*
X903Y848D02*
X909Y848D01*
X709Y847D02*
X715Y847D01*
X903Y847D02*
X909Y847D01*
X709Y846D02*
X715Y846D01*
X903Y846D02*
X909Y846D01*
X709Y845D02*
X715Y845D01*
X903Y845D02*
X909Y845D01*
X709Y844D02*
X715Y844D01*
X903Y844D02*
X909Y844D01*
X709Y843D02*
X715Y843D01*
X903Y843D02*
X909Y843D01*
X709Y842D02*
X715Y842D01*
X903Y842D02*
X909Y842D01*
X709Y841D02*
X715Y841D01*
X768Y841D02*
X769Y841D01*
X903Y841D02*
X909Y841D01*
X709Y840D02*
X721Y840D01*
X727Y840D02*
X738Y840D01*
X743Y840D02*
X744Y840D01*
X752Y840D02*
X754Y840D01*
X759Y840D02*
X769Y840D01*
X903Y840D02*
X909Y840D01*
X709Y839D02*
X720Y839D01*
X726Y839D02*
X731Y839D01*
X734Y839D02*
X739Y839D01*
X743Y839D02*
X744Y839D01*
X752Y839D02*
X754Y839D01*
X759Y839D02*
X769Y839D01*
X903Y839D02*
X909Y839D01*
X709Y838D02*
X719Y838D01*
X725Y838D02*
X728Y838D01*
X737Y838D02*
X739Y838D01*
X743Y838D02*
X744Y838D01*
X752Y838D02*
X754Y838D01*
X758Y838D02*
X760Y838D01*
X766Y838D02*
X769Y838D01*
X862Y838D02*
X871Y838D01*
X879Y838D02*
X880Y838D01*
X903Y838D02*
X909Y838D01*
X709Y837D02*
X718Y837D01*
X725Y837D02*
X727Y837D01*
X737Y837D02*
X739Y837D01*
X743Y837D02*
X744Y837D01*
X752Y837D02*
X754Y837D01*
X758Y837D02*
X760Y837D01*
X767Y837D02*
X769Y837D01*
X862Y837D02*
X871Y837D01*
X879Y837D02*
X881Y837D01*
X903Y837D02*
X909Y837D01*
X709Y836D02*
X717Y836D01*
X724Y836D02*
X726Y836D01*
X737Y836D02*
X739Y836D01*
X743Y836D02*
X744Y836D01*
X752Y836D02*
X754Y836D01*
X758Y836D02*
X759Y836D01*
X767Y836D02*
X769Y836D01*
X865Y836D02*
X866Y836D01*
X870Y836D02*
X871Y836D01*
X879Y836D02*
X881Y836D01*
X903Y836D02*
X909Y836D01*
X709Y835D02*
X716Y835D01*
X724Y835D02*
X726Y835D01*
X737Y835D02*
X739Y835D01*
X743Y835D02*
X744Y835D01*
X752Y835D02*
X754Y835D01*
X757Y835D02*
X759Y835D01*
X767Y835D02*
X769Y835D01*
X865Y835D02*
X866Y835D01*
X870Y835D02*
X871Y835D01*
X879Y835D02*
X881Y835D01*
X903Y835D02*
X909Y835D01*
X709Y834D02*
X715Y834D01*
X724Y834D02*
X725Y834D01*
X737Y834D02*
X739Y834D01*
X743Y834D02*
X744Y834D01*
X752Y834D02*
X754Y834D01*
X757Y834D02*
X759Y834D01*
X767Y834D02*
X769Y834D01*
X865Y834D02*
X866Y834D01*
X870Y834D02*
X871Y834D01*
X879Y834D02*
X881Y834D01*
X903Y834D02*
X909Y834D01*
X709Y833D02*
X715Y833D01*
X723Y833D02*
X725Y833D01*
X732Y833D02*
X739Y833D01*
X743Y833D02*
X744Y833D01*
X752Y833D02*
X754Y833D01*
X757Y833D02*
X759Y833D01*
X767Y833D02*
X769Y833D01*
X865Y833D02*
X866Y833D01*
X870Y833D02*
X871Y833D01*
X879Y833D02*
X881Y833D01*
X903Y833D02*
X909Y833D01*
X709Y832D02*
X715Y832D01*
X723Y832D02*
X725Y832D01*
X732Y832D02*
X739Y832D01*
X743Y832D02*
X744Y832D01*
X752Y832D02*
X754Y832D01*
X757Y832D02*
X759Y832D01*
X767Y832D02*
X769Y832D01*
X865Y832D02*
X866Y832D01*
X870Y832D02*
X871Y832D01*
X879Y832D02*
X881Y832D01*
X903Y832D02*
X909Y832D01*
X709Y831D02*
X715Y831D01*
X723Y831D02*
X725Y831D01*
X733Y831D02*
X738Y831D01*
X743Y831D02*
X744Y831D01*
X752Y831D02*
X754Y831D01*
X758Y831D02*
X759Y831D01*
X767Y831D02*
X769Y831D01*
X865Y831D02*
X866Y831D01*
X870Y831D02*
X871Y831D01*
X879Y831D02*
X881Y831D01*
X903Y831D02*
X909Y831D01*
X709Y830D02*
X715Y830D01*
X723Y830D02*
X725Y830D01*
X743Y830D02*
X744Y830D01*
X752Y830D02*
X754Y830D01*
X758Y830D02*
X760Y830D01*
X767Y830D02*
X769Y830D01*
X865Y830D02*
X866Y830D01*
X870Y830D02*
X871Y830D01*
X879Y830D02*
X881Y830D01*
X903Y830D02*
X909Y830D01*
X709Y829D02*
X715Y829D01*
X723Y829D02*
X725Y829D01*
X743Y829D02*
X745Y829D01*
X752Y829D02*
X753Y829D01*
X758Y829D02*
X760Y829D01*
X767Y829D02*
X769Y829D01*
X865Y829D02*
X866Y829D01*
X870Y829D02*
X871Y829D01*
X879Y829D02*
X881Y829D01*
X903Y829D02*
X909Y829D01*
X709Y828D02*
X715Y828D01*
X724Y828D02*
X725Y828D01*
X743Y828D02*
X748Y828D01*
X750Y828D02*
X753Y828D01*
X759Y828D02*
X762Y828D01*
X766Y828D02*
X769Y828D01*
X865Y828D02*
X866Y828D01*
X870Y828D02*
X871Y828D01*
X879Y828D02*
X880Y828D01*
X903Y828D02*
X909Y828D01*
X709Y827D02*
X715Y827D01*
X724Y827D02*
X726Y827D01*
X743Y827D02*
X744Y827D01*
X746Y827D02*
X752Y827D01*
X760Y827D02*
X769Y827D01*
X865Y827D02*
X866Y827D01*
X870Y827D02*
X871Y827D01*
X879Y827D02*
X880Y827D01*
X903Y827D02*
X909Y827D01*
X709Y826D02*
X715Y826D01*
X724Y826D02*
X726Y826D01*
X743Y826D02*
X744Y826D01*
X748Y826D02*
X751Y826D01*
X761Y826D02*
X765Y826D01*
X767Y826D02*
X769Y826D01*
X865Y826D02*
X866Y826D01*
X870Y826D02*
X873Y826D01*
X878Y826D02*
X880Y826D01*
X903Y826D02*
X909Y826D01*
X709Y825D02*
X715Y825D01*
X725Y825D02*
X727Y825D01*
X767Y825D02*
X769Y825D01*
X865Y825D02*
X866Y825D01*
X870Y825D02*
X880Y825D01*
X903Y825D02*
X909Y825D01*
X709Y824D02*
X715Y824D01*
X725Y824D02*
X728Y824D01*
X737Y824D02*
X739Y824D01*
X767Y824D02*
X769Y824D01*
X865Y824D02*
X866Y824D01*
X870Y824D02*
X871Y824D01*
X874Y824D02*
X879Y824D01*
X903Y824D02*
X909Y824D01*
X709Y823D02*
X715Y823D01*
X726Y823D02*
X730Y823D01*
X734Y823D02*
X739Y823D01*
X767Y823D02*
X769Y823D01*
X865Y823D02*
X866Y823D01*
X876Y823D02*
X877Y823D01*
X903Y823D02*
X909Y823D01*
X709Y822D02*
X715Y822D01*
X727Y822D02*
X738Y822D01*
X767Y822D02*
X769Y822D01*
X865Y822D02*
X866Y822D01*
X903Y822D02*
X909Y822D01*
X709Y821D02*
X715Y821D01*
X730Y821D02*
X735Y821D01*
X767Y821D02*
X769Y821D01*
X865Y821D02*
X866Y821D01*
X903Y821D02*
X909Y821D01*
X709Y820D02*
X715Y820D01*
X768Y820D02*
X769Y820D01*
X862Y820D02*
X869Y820D01*
X903Y820D02*
X909Y820D01*
X709Y819D02*
X715Y819D01*
X862Y819D02*
X869Y819D01*
X903Y819D02*
X909Y819D01*
X709Y818D02*
X715Y818D01*
X903Y818D02*
X909Y818D01*
X709Y817D02*
X715Y817D01*
X903Y817D02*
X909Y817D01*
X709Y816D02*
X715Y816D01*
X903Y816D02*
X909Y816D01*
X709Y815D02*
X715Y815D01*
X903Y815D02*
X909Y815D01*
X709Y814D02*
X715Y814D01*
X903Y814D02*
X909Y814D01*
X709Y813D02*
X715Y813D01*
X903Y813D02*
X909Y813D01*
X709Y812D02*
X715Y812D01*
X903Y812D02*
X909Y812D01*
X709Y811D02*
X715Y811D01*
X903Y811D02*
X909Y811D01*
X709Y810D02*
X715Y810D01*
X903Y810D02*
X909Y810D01*
X709Y809D02*
X715Y809D01*
X903Y809D02*
X909Y809D01*
X709Y808D02*
X715Y808D01*
X903Y808D02*
X909Y808D01*
X709Y807D02*
X715Y807D01*
X903Y807D02*
X909Y807D01*
X709Y806D02*
X715Y806D01*
X903Y806D02*
X909Y806D01*
X709Y805D02*
X715Y805D01*
X903Y805D02*
X909Y805D01*
X709Y804D02*
X715Y804D01*
X903Y804D02*
X909Y804D01*
X709Y803D02*
X715Y803D01*
X903Y803D02*
X909Y803D01*
X709Y802D02*
X715Y802D01*
X903Y802D02*
X909Y802D01*
X709Y801D02*
X715Y801D01*
X903Y801D02*
X909Y801D01*
X709Y800D02*
X715Y800D01*
X903Y800D02*
X909Y800D01*
X709Y799D02*
X715Y799D01*
X903Y799D02*
X909Y799D01*
X709Y798D02*
X715Y798D01*
X903Y798D02*
X909Y798D01*
X709Y797D02*
X715Y797D01*
X903Y797D02*
X909Y797D01*
X709Y796D02*
X715Y796D01*
X903Y796D02*
X909Y796D01*
X709Y795D02*
X715Y795D01*
X903Y795D02*
X909Y795D01*
X709Y794D02*
X715Y794D01*
X733Y794D02*
X735Y794D01*
X747Y794D02*
X749Y794D01*
X760Y794D02*
X767Y794D01*
X774Y794D02*
X788Y794D01*
X797Y794D02*
X803Y794D01*
X815Y794D02*
X825Y794D01*
X832Y794D02*
X846Y794D01*
X852Y794D02*
X858Y794D01*
X903Y794D02*
X909Y794D01*
X709Y793D02*
X715Y793D01*
X732Y793D02*
X735Y793D01*
X746Y793D02*
X749Y793D01*
X757Y793D02*
X769Y793D01*
X774Y793D02*
X788Y793D01*
X795Y793D02*
X805Y793D01*
X814Y793D02*
X826Y793D01*
X832Y793D02*
X846Y793D01*
X852Y793D02*
X863Y793D01*
X903Y793D02*
X909Y793D01*
X709Y792D02*
X715Y792D01*
X732Y792D02*
X736Y792D01*
X746Y792D02*
X750Y792D01*
X756Y792D02*
X770Y792D01*
X774Y792D02*
X788Y792D01*
X794Y792D02*
X806Y792D01*
X814Y792D02*
X826Y792D01*
X832Y792D02*
X846Y792D01*
X852Y792D02*
X865Y792D01*
X903Y792D02*
X909Y792D01*
X709Y791D02*
X715Y791D01*
X732Y791D02*
X736Y791D01*
X746Y791D02*
X750Y791D01*
X756Y791D02*
X760Y791D01*
X767Y791D02*
X771Y791D01*
X774Y791D02*
X777Y791D01*
X794Y791D02*
X797Y791D01*
X804Y791D02*
X807Y791D01*
X819Y791D02*
X821Y791D01*
X832Y791D02*
X835Y791D01*
X852Y791D02*
X854Y791D01*
X860Y791D02*
X866Y791D01*
X903Y791D02*
X909Y791D01*
X709Y790D02*
X715Y790D01*
X731Y790D02*
X736Y790D01*
X745Y790D02*
X750Y790D01*
X756Y790D02*
X758Y790D01*
X769Y790D02*
X772Y790D01*
X774Y790D02*
X777Y790D01*
X793Y790D02*
X796Y790D01*
X805Y790D02*
X807Y790D01*
X819Y790D02*
X821Y790D01*
X832Y790D02*
X835Y790D01*
X852Y790D02*
X854Y790D01*
X864Y790D02*
X867Y790D01*
X903Y790D02*
X909Y790D01*
X709Y789D02*
X715Y789D01*
X731Y789D02*
X736Y789D01*
X745Y789D02*
X750Y789D01*
X756Y789D02*
X756Y789D01*
X769Y789D02*
X772Y789D01*
X775Y789D02*
X778Y789D01*
X793Y789D02*
X795Y789D01*
X805Y789D02*
X808Y789D01*
X819Y789D02*
X821Y789D01*
X833Y789D02*
X836Y789D01*
X852Y789D02*
X854Y789D01*
X865Y789D02*
X867Y789D01*
X903Y789D02*
X909Y789D01*
X709Y788D02*
X715Y788D01*
X731Y788D02*
X733Y788D01*
X735Y788D02*
X737Y788D01*
X745Y788D02*
X747Y788D01*
X749Y788D02*
X751Y788D01*
X770Y788D02*
X772Y788D01*
X776Y788D02*
X779Y788D01*
X793Y788D02*
X795Y788D01*
X805Y788D02*
X808Y788D01*
X819Y788D02*
X821Y788D01*
X834Y788D02*
X837Y788D01*
X852Y788D02*
X854Y788D01*
X865Y788D02*
X868Y788D01*
X903Y788D02*
X909Y788D01*
X709Y787D02*
X715Y787D01*
X731Y787D02*
X733Y787D01*
X735Y787D02*
X737Y787D01*
X745Y787D02*
X746Y787D01*
X749Y787D02*
X751Y787D01*
X770Y787D02*
X772Y787D01*
X777Y787D02*
X780Y787D01*
X793Y787D02*
X795Y787D01*
X805Y787D02*
X808Y787D01*
X819Y787D02*
X821Y787D01*
X835Y787D02*
X838Y787D01*
X852Y787D02*
X854Y787D01*
X865Y787D02*
X868Y787D01*
X903Y787D02*
X909Y787D01*
X709Y786D02*
X715Y786D01*
X730Y786D02*
X733Y786D01*
X735Y786D02*
X737Y786D01*
X744Y786D02*
X746Y786D01*
X749Y786D02*
X751Y786D01*
X770Y786D02*
X772Y786D01*
X778Y786D02*
X781Y786D01*
X793Y786D02*
X795Y786D01*
X805Y786D02*
X808Y786D01*
X819Y786D02*
X821Y786D01*
X836Y786D02*
X839Y786D01*
X852Y786D02*
X854Y786D01*
X865Y786D02*
X868Y786D01*
X903Y786D02*
X909Y786D01*
X709Y785D02*
X715Y785D01*
X730Y785D02*
X732Y785D01*
X736Y785D02*
X737Y785D01*
X744Y785D02*
X746Y785D01*
X749Y785D02*
X751Y785D01*
X769Y785D02*
X772Y785D01*
X779Y785D02*
X782Y785D01*
X793Y785D02*
X795Y785D01*
X805Y785D02*
X808Y785D01*
X819Y785D02*
X821Y785D01*
X837Y785D02*
X840Y785D01*
X852Y785D02*
X854Y785D01*
X865Y785D02*
X868Y785D01*
X903Y785D02*
X909Y785D01*
X709Y784D02*
X715Y784D01*
X730Y784D02*
X732Y784D01*
X736Y784D02*
X738Y784D01*
X744Y784D02*
X746Y784D01*
X749Y784D02*
X752Y784D01*
X768Y784D02*
X772Y784D01*
X780Y784D02*
X783Y784D01*
X793Y784D02*
X796Y784D01*
X804Y784D02*
X807Y784D01*
X819Y784D02*
X821Y784D01*
X838Y784D02*
X841Y784D01*
X852Y784D02*
X854Y784D01*
X865Y784D02*
X867Y784D01*
X903Y784D02*
X909Y784D01*
X709Y783D02*
X715Y783D01*
X730Y783D02*
X732Y783D01*
X736Y783D02*
X738Y783D01*
X744Y783D02*
X745Y783D01*
X750Y783D02*
X752Y783D01*
X765Y783D02*
X771Y783D01*
X781Y783D02*
X784Y783D01*
X794Y783D02*
X796Y783D01*
X803Y783D02*
X807Y783D01*
X819Y783D02*
X821Y783D01*
X839Y783D02*
X842Y783D01*
X852Y783D02*
X854Y783D01*
X864Y783D02*
X867Y783D01*
X903Y783D02*
X909Y783D01*
X709Y782D02*
X715Y782D01*
X729Y782D02*
X732Y782D01*
X736Y782D02*
X738Y782D01*
X743Y782D02*
X745Y782D01*
X750Y782D02*
X752Y782D01*
X761Y782D02*
X770Y782D01*
X782Y782D02*
X785Y782D01*
X795Y782D02*
X797Y782D01*
X800Y782D02*
X806Y782D01*
X819Y782D02*
X821Y782D01*
X840Y782D02*
X843Y782D01*
X852Y782D02*
X854Y782D01*
X862Y782D02*
X866Y782D01*
X903Y782D02*
X909Y782D01*
X709Y781D02*
X715Y781D01*
X729Y781D02*
X731Y781D01*
X737Y781D02*
X738Y781D01*
X743Y781D02*
X745Y781D01*
X750Y781D02*
X752Y781D01*
X759Y781D02*
X769Y781D01*
X783Y781D02*
X786Y781D01*
X796Y781D02*
X804Y781D01*
X819Y781D02*
X821Y781D01*
X841Y781D02*
X843Y781D01*
X852Y781D02*
X865Y781D01*
X903Y781D02*
X909Y781D01*
X709Y780D02*
X715Y780D01*
X729Y780D02*
X731Y780D01*
X737Y780D02*
X738Y780D01*
X743Y780D02*
X745Y780D01*
X750Y780D02*
X753Y780D01*
X758Y780D02*
X766Y780D01*
X783Y780D02*
X786Y780D01*
X796Y780D02*
X804Y780D01*
X819Y780D02*
X821Y780D01*
X841Y780D02*
X844Y780D01*
X852Y780D02*
X863Y780D01*
X903Y780D02*
X909Y780D01*
X709Y779D02*
X715Y779D01*
X729Y779D02*
X731Y779D01*
X737Y779D02*
X739Y779D01*
X743Y779D02*
X744Y779D01*
X751Y779D02*
X753Y779D01*
X757Y779D02*
X762Y779D01*
X784Y779D02*
X787Y779D01*
X795Y779D02*
X800Y779D01*
X803Y779D02*
X806Y779D01*
X819Y779D02*
X821Y779D01*
X842Y779D02*
X844Y779D01*
X852Y779D02*
X855Y779D01*
X859Y779D02*
X864Y779D01*
X903Y779D02*
X909Y779D01*
X709Y778D02*
X715Y778D01*
X728Y778D02*
X731Y778D01*
X737Y778D02*
X739Y778D01*
X742Y778D02*
X744Y778D01*
X751Y778D02*
X753Y778D01*
X757Y778D02*
X760Y778D01*
X784Y778D02*
X787Y778D01*
X794Y778D02*
X798Y778D01*
X804Y778D02*
X806Y778D01*
X819Y778D02*
X821Y778D01*
X842Y778D02*
X845Y778D01*
X852Y778D02*
X854Y778D01*
X863Y778D02*
X865Y778D01*
X903Y778D02*
X909Y778D01*
X709Y777D02*
X715Y777D01*
X728Y777D02*
X730Y777D01*
X738Y777D02*
X739Y777D01*
X742Y777D02*
X744Y777D01*
X751Y777D02*
X753Y777D01*
X757Y777D02*
X759Y777D01*
X785Y777D02*
X787Y777D01*
X794Y777D02*
X797Y777D01*
X805Y777D02*
X807Y777D01*
X819Y777D02*
X821Y777D01*
X843Y777D02*
X845Y777D01*
X852Y777D02*
X854Y777D01*
X864Y777D02*
X866Y777D01*
X903Y777D02*
X909Y777D01*
X709Y776D02*
X715Y776D01*
X728Y776D02*
X730Y776D01*
X738Y776D02*
X739Y776D01*
X742Y776D02*
X744Y776D01*
X751Y776D02*
X754Y776D01*
X756Y776D02*
X759Y776D01*
X785Y776D02*
X787Y776D01*
X793Y776D02*
X796Y776D01*
X805Y776D02*
X807Y776D01*
X819Y776D02*
X821Y776D01*
X843Y776D02*
X845Y776D01*
X852Y776D02*
X854Y776D01*
X864Y776D02*
X866Y776D01*
X903Y776D02*
X909Y776D01*
X709Y775D02*
X715Y775D01*
X728Y775D02*
X730Y775D01*
X738Y775D02*
X740Y775D01*
X742Y775D02*
X743Y775D01*
X752Y775D02*
X754Y775D01*
X756Y775D02*
X759Y775D01*
X785Y775D02*
X787Y775D01*
X793Y775D02*
X796Y775D01*
X805Y775D02*
X807Y775D01*
X819Y775D02*
X821Y775D01*
X843Y775D02*
X845Y775D01*
X852Y775D02*
X854Y775D01*
X864Y775D02*
X867Y775D01*
X903Y775D02*
X909Y775D01*
X709Y774D02*
X715Y774D01*
X727Y774D02*
X730Y774D01*
X738Y774D02*
X743Y774D01*
X752Y774D02*
X754Y774D01*
X757Y774D02*
X759Y774D01*
X785Y774D02*
X787Y774D01*
X793Y774D02*
X796Y774D01*
X805Y774D02*
X807Y774D01*
X814Y774D02*
X821Y774D01*
X843Y774D02*
X845Y774D01*
X852Y774D02*
X854Y774D01*
X864Y774D02*
X867Y774D01*
X903Y774D02*
X909Y774D01*
X709Y773D02*
X715Y773D01*
X727Y773D02*
X729Y773D01*
X739Y773D02*
X743Y773D01*
X752Y773D02*
X754Y773D01*
X757Y773D02*
X760Y773D01*
X771Y773D02*
X771Y773D01*
X784Y773D02*
X787Y773D01*
X793Y773D02*
X796Y773D01*
X805Y773D02*
X807Y773D01*
X814Y773D02*
X821Y773D01*
X832Y773D02*
X832Y773D01*
X842Y773D02*
X845Y773D01*
X852Y773D02*
X854Y773D01*
X864Y773D02*
X866Y773D01*
X903Y773D02*
X909Y773D01*
X709Y772D02*
X715Y772D01*
X727Y772D02*
X729Y772D01*
X739Y772D02*
X743Y772D01*
X752Y772D02*
X755Y772D01*
X757Y772D02*
X761Y772D01*
X769Y772D02*
X771Y772D01*
X774Y772D02*
X776Y772D01*
X783Y772D02*
X787Y772D01*
X794Y772D02*
X797Y772D01*
X804Y772D02*
X807Y772D01*
X817Y772D02*
X821Y772D01*
X832Y772D02*
X834Y772D01*
X841Y772D02*
X845Y772D01*
X852Y772D02*
X854Y772D01*
X862Y772D02*
X866Y772D01*
X903Y772D02*
X909Y772D01*
X709Y771D02*
X715Y771D01*
X727Y771D02*
X729Y771D01*
X739Y771D02*
X742Y771D01*
X753Y771D02*
X755Y771D01*
X758Y771D02*
X771Y771D01*
X774Y771D02*
X786Y771D01*
X794Y771D02*
X798Y771D01*
X802Y771D02*
X806Y771D01*
X819Y771D02*
X821Y771D01*
X832Y771D02*
X844Y771D01*
X852Y771D02*
X866Y771D01*
X903Y771D02*
X909Y771D01*
X709Y770D02*
X715Y770D01*
X726Y770D02*
X729Y770D01*
X739Y770D02*
X742Y770D01*
X753Y770D02*
X755Y770D01*
X759Y770D02*
X771Y770D01*
X774Y770D02*
X785Y770D01*
X795Y770D02*
X805Y770D01*
X819Y770D02*
X821Y770D01*
X832Y770D02*
X843Y770D01*
X852Y770D02*
X864Y770D01*
X903Y770D02*
X909Y770D01*
X709Y769D02*
X715Y769D01*
X726Y769D02*
X728Y769D01*
X740Y769D02*
X742Y769D01*
X753Y769D02*
X755Y769D01*
X761Y769D02*
X769Y769D01*
X777Y769D02*
X784Y769D01*
X797Y769D02*
X804Y769D01*
X820Y769D02*
X821Y769D01*
X834Y769D02*
X842Y769D01*
X852Y769D02*
X862Y769D01*
X903Y769D02*
X909Y769D01*
X709Y768D02*
X715Y768D01*
X903Y768D02*
X909Y768D01*
X709Y767D02*
X715Y767D01*
X903Y767D02*
X909Y767D01*
X709Y766D02*
X715Y766D01*
X903Y766D02*
X909Y766D01*
X709Y765D02*
X715Y765D01*
X903Y765D02*
X909Y765D01*
X709Y764D02*
X715Y764D01*
X903Y764D02*
X909Y764D01*
X709Y763D02*
X715Y763D01*
X903Y763D02*
X909Y763D01*
X709Y762D02*
X715Y762D01*
X903Y762D02*
X909Y762D01*
X709Y761D02*
X715Y761D01*
X903Y761D02*
X909Y761D01*
X709Y760D02*
X715Y760D01*
X903Y760D02*
X909Y760D01*
X709Y759D02*
X715Y759D01*
X903Y759D02*
X909Y759D01*
X709Y758D02*
X715Y758D01*
X903Y758D02*
X909Y758D01*
X709Y757D02*
X715Y757D01*
X903Y757D02*
X909Y757D01*
X709Y756D02*
X715Y756D01*
X903Y756D02*
X909Y756D01*
X709Y755D02*
X715Y755D01*
X903Y755D02*
X909Y755D01*
X709Y754D02*
X715Y754D01*
X903Y754D02*
X909Y754D01*
X709Y753D02*
X715Y753D01*
X903Y753D02*
X909Y753D01*
X709Y752D02*
X715Y752D01*
X903Y752D02*
X909Y752D01*
X709Y751D02*
X715Y751D01*
X903Y751D02*
X909Y751D01*
X709Y750D02*
X715Y750D01*
X903Y750D02*
X909Y750D01*
X709Y749D02*
X715Y749D01*
X903Y749D02*
X909Y749D01*
X709Y748D02*
X715Y748D01*
X903Y748D02*
X909Y748D01*
X709Y747D02*
X715Y747D01*
X903Y747D02*
X909Y747D01*
X709Y746D02*
X715Y746D01*
X903Y746D02*
X909Y746D01*
X709Y745D02*
X715Y745D01*
X903Y745D02*
X909Y745D01*
X709Y744D02*
X715Y744D01*
X903Y744D02*
X909Y744D01*
X709Y743D02*
X715Y743D01*
X728Y743D02*
X734Y743D01*
X745Y743D02*
X749Y743D01*
X752Y743D02*
X753Y743D01*
X760Y743D02*
X764Y743D01*
X843Y743D02*
X845Y743D01*
X855Y743D02*
X863Y743D01*
X874Y743D02*
X881Y743D01*
X903Y743D02*
X909Y743D01*
X709Y742D02*
X715Y742D01*
X726Y742D02*
X736Y742D01*
X743Y742D02*
X753Y742D01*
X759Y742D02*
X764Y742D01*
X843Y742D02*
X846Y742D01*
X855Y742D02*
X865Y742D01*
X874Y742D02*
X884Y742D01*
X903Y742D02*
X909Y742D01*
X709Y741D02*
X715Y741D01*
X725Y741D02*
X728Y741D01*
X733Y741D02*
X737Y741D01*
X743Y741D02*
X745Y741D01*
X749Y741D02*
X753Y741D01*
X758Y741D02*
X760Y741D01*
X843Y741D02*
X846Y741D01*
X855Y741D02*
X867Y741D01*
X874Y741D02*
X886Y741D01*
X903Y741D02*
X909Y741D01*
X709Y740D02*
X715Y740D01*
X724Y740D02*
X726Y740D01*
X735Y740D02*
X737Y740D01*
X743Y740D02*
X744Y740D01*
X751Y740D02*
X753Y740D01*
X758Y740D02*
X760Y740D01*
X842Y740D02*
X846Y740D01*
X855Y740D02*
X857Y740D01*
X865Y740D02*
X868Y740D01*
X874Y740D02*
X876Y740D01*
X884Y740D02*
X887Y740D01*
X903Y740D02*
X909Y740D01*
X709Y739D02*
X715Y739D01*
X723Y739D02*
X726Y739D01*
X736Y739D02*
X738Y739D01*
X742Y739D02*
X744Y739D01*
X752Y739D02*
X753Y739D01*
X758Y739D02*
X759Y739D01*
X842Y739D02*
X847Y739D01*
X855Y739D02*
X857Y739D01*
X866Y739D02*
X869Y739D01*
X874Y739D02*
X876Y739D01*
X885Y739D02*
X887Y739D01*
X903Y739D02*
X909Y739D01*
X709Y738D02*
X715Y738D01*
X723Y738D02*
X725Y738D01*
X736Y738D02*
X738Y738D01*
X742Y738D02*
X744Y738D01*
X752Y738D02*
X753Y738D01*
X758Y738D02*
X759Y738D01*
X842Y738D02*
X843Y738D01*
X846Y738D02*
X847Y738D01*
X855Y738D02*
X857Y738D01*
X867Y738D02*
X869Y738D01*
X874Y738D02*
X876Y738D01*
X886Y738D02*
X888Y738D01*
X903Y738D02*
X909Y738D01*
X709Y737D02*
X715Y737D01*
X723Y737D02*
X725Y737D01*
X737Y737D02*
X739Y737D01*
X742Y737D02*
X744Y737D01*
X752Y737D02*
X753Y737D01*
X758Y737D02*
X759Y737D01*
X841Y737D02*
X843Y737D01*
X846Y737D02*
X847Y737D01*
X855Y737D02*
X857Y737D01*
X868Y737D02*
X869Y737D01*
X874Y737D02*
X876Y737D01*
X887Y737D02*
X888Y737D01*
X903Y737D02*
X909Y737D01*
X709Y736D02*
X715Y736D01*
X722Y736D02*
X724Y736D01*
X737Y736D02*
X739Y736D01*
X742Y736D02*
X744Y736D01*
X752Y736D02*
X753Y736D01*
X758Y736D02*
X759Y736D01*
X841Y736D02*
X843Y736D01*
X846Y736D02*
X848Y736D01*
X855Y736D02*
X857Y736D01*
X868Y736D02*
X870Y736D01*
X874Y736D02*
X876Y736D01*
X887Y736D02*
X889Y736D01*
X903Y736D02*
X909Y736D01*
X709Y735D02*
X715Y735D01*
X722Y735D02*
X724Y735D01*
X737Y735D02*
X739Y735D01*
X742Y735D02*
X744Y735D01*
X752Y735D02*
X753Y735D01*
X758Y735D02*
X759Y735D01*
X841Y735D02*
X842Y735D01*
X847Y735D02*
X848Y735D01*
X855Y735D02*
X857Y735D01*
X868Y735D02*
X870Y735D01*
X874Y735D02*
X876Y735D01*
X887Y735D02*
X889Y735D01*
X903Y735D02*
X909Y735D01*
X709Y734D02*
X715Y734D01*
X722Y734D02*
X724Y734D01*
X737Y734D02*
X739Y734D01*
X742Y734D02*
X744Y734D01*
X752Y734D02*
X753Y734D01*
X758Y734D02*
X759Y734D01*
X840Y734D02*
X842Y734D01*
X847Y734D02*
X848Y734D01*
X855Y734D02*
X857Y734D01*
X868Y734D02*
X870Y734D01*
X874Y734D02*
X876Y734D01*
X887Y734D02*
X889Y734D01*
X903Y734D02*
X909Y734D01*
X709Y733D02*
X715Y733D01*
X722Y733D02*
X724Y733D01*
X737Y733D02*
X739Y733D01*
X742Y733D02*
X744Y733D01*
X752Y733D02*
X753Y733D01*
X758Y733D02*
X759Y733D01*
X840Y733D02*
X842Y733D01*
X847Y733D02*
X849Y733D01*
X855Y733D02*
X857Y733D01*
X868Y733D02*
X870Y733D01*
X874Y733D02*
X876Y733D01*
X887Y733D02*
X889Y733D01*
X903Y733D02*
X909Y733D01*
X709Y732D02*
X715Y732D01*
X722Y732D02*
X724Y732D01*
X737Y732D02*
X739Y732D01*
X742Y732D02*
X744Y732D01*
X752Y732D02*
X753Y732D01*
X758Y732D02*
X759Y732D01*
X839Y732D02*
X841Y732D01*
X848Y732D02*
X849Y732D01*
X855Y732D02*
X857Y732D01*
X868Y732D02*
X870Y732D01*
X874Y732D02*
X876Y732D01*
X887Y732D02*
X889Y732D01*
X903Y732D02*
X909Y732D01*
X709Y731D02*
X715Y731D01*
X722Y731D02*
X724Y731D01*
X737Y731D02*
X739Y731D01*
X742Y731D02*
X744Y731D01*
X752Y731D02*
X753Y731D01*
X758Y731D02*
X759Y731D01*
X839Y731D02*
X841Y731D01*
X848Y731D02*
X850Y731D01*
X855Y731D02*
X857Y731D01*
X868Y731D02*
X870Y731D01*
X874Y731D02*
X876Y731D01*
X887Y731D02*
X889Y731D01*
X903Y731D02*
X909Y731D01*
X709Y730D02*
X715Y730D01*
X723Y730D02*
X724Y730D01*
X737Y730D02*
X739Y730D01*
X742Y730D02*
X744Y730D01*
X752Y730D02*
X753Y730D01*
X756Y730D02*
X764Y730D01*
X839Y730D02*
X841Y730D01*
X848Y730D02*
X850Y730D01*
X855Y730D02*
X857Y730D01*
X868Y730D02*
X870Y730D01*
X874Y730D02*
X876Y730D01*
X887Y730D02*
X889Y730D01*
X903Y730D02*
X909Y730D01*
X709Y729D02*
X715Y729D01*
X723Y729D02*
X725Y729D01*
X737Y729D02*
X739Y729D01*
X742Y729D02*
X744Y729D01*
X752Y729D02*
X753Y729D01*
X756Y729D02*
X764Y729D01*
X838Y729D02*
X840Y729D01*
X849Y729D02*
X850Y729D01*
X855Y729D02*
X857Y729D01*
X867Y729D02*
X869Y729D01*
X874Y729D02*
X876Y729D01*
X886Y729D02*
X888Y729D01*
X903Y729D02*
X909Y729D01*
X709Y728D02*
X715Y728D01*
X723Y728D02*
X725Y728D01*
X736Y728D02*
X738Y728D01*
X758Y728D02*
X760Y728D01*
X838Y728D02*
X840Y728D01*
X849Y728D02*
X851Y728D01*
X855Y728D02*
X857Y728D01*
X867Y728D02*
X869Y728D01*
X874Y728D02*
X876Y728D01*
X886Y728D02*
X888Y728D01*
X903Y728D02*
X909Y728D01*
X709Y727D02*
X715Y727D01*
X724Y727D02*
X726Y727D01*
X736Y727D02*
X738Y727D01*
X758Y727D02*
X759Y727D01*
X838Y727D02*
X840Y727D01*
X849Y727D02*
X851Y727D01*
X855Y727D02*
X857Y727D01*
X866Y727D02*
X868Y727D01*
X874Y727D02*
X876Y727D01*
X885Y727D02*
X887Y727D01*
X903Y727D02*
X909Y727D01*
X709Y726D02*
X715Y726D01*
X724Y726D02*
X727Y726D01*
X734Y726D02*
X737Y726D01*
X758Y726D02*
X759Y726D01*
X837Y726D02*
X839Y726D01*
X850Y726D02*
X851Y726D01*
X855Y726D02*
X857Y726D01*
X864Y726D02*
X868Y726D01*
X874Y726D02*
X876Y726D01*
X883Y726D02*
X886Y726D01*
X903Y726D02*
X909Y726D01*
X709Y725D02*
X715Y725D01*
X837Y725D02*
X839Y725D01*
X903Y725D02*
X909Y725D01*
X709Y724D02*
X715Y724D01*
X837Y724D02*
X839Y724D01*
X903Y724D02*
X909Y724D01*
X709Y723D02*
X715Y723D01*
X903Y723D02*
X909Y723D01*
X709Y722D02*
X715Y722D01*
X903Y722D02*
X909Y722D01*
X709Y721D02*
X715Y721D01*
X903Y721D02*
X909Y721D01*
X709Y720D02*
X715Y720D01*
X903Y720D02*
X909Y720D01*
X709Y719D02*
X715Y719D01*
X903Y719D02*
X909Y719D01*
X709Y718D02*
X715Y718D01*
X903Y718D02*
X909Y718D01*
X709Y717D02*
X715Y717D01*
X903Y717D02*
X909Y717D01*
X709Y716D02*
X715Y716D01*
X903Y716D02*
X909Y716D01*
X709Y715D02*
X715Y715D01*
X903Y715D02*
X909Y715D01*
X709Y714D02*
X715Y714D01*
X903Y714D02*
X909Y714D01*
X709Y713D02*
X715Y713D01*
X903Y713D02*
X909Y713D01*
X709Y712D02*
X715Y712D01*
X903Y712D02*
X909Y712D01*
X709Y711D02*
X715Y711D01*
X903Y711D02*
X909Y711D01*
X709Y710D02*
X715Y710D01*
X903Y710D02*
X909Y710D01*
X709Y709D02*
X715Y709D01*
X903Y709D02*
X909Y709D01*
X709Y708D02*
X715Y708D01*
X903Y708D02*
X909Y708D01*
X709Y707D02*
X715Y707D01*
X903Y707D02*
X909Y707D01*
X709Y706D02*
X715Y706D01*
X903Y706D02*
X909Y706D01*
X709Y705D02*
X715Y705D01*
X903Y705D02*
X909Y705D01*
X709Y704D02*
X715Y704D01*
X903Y704D02*
X909Y704D01*
X709Y703D02*
X715Y703D01*
X903Y703D02*
X909Y703D01*
X709Y702D02*
X715Y702D01*
X903Y702D02*
X909Y702D01*
X709Y701D02*
X715Y701D01*
X903Y701D02*
X909Y701D01*
X709Y700D02*
X715Y700D01*
X903Y700D02*
X909Y700D01*
X709Y699D02*
X715Y699D01*
X903Y699D02*
X909Y699D01*
X709Y698D02*
X715Y698D01*
X903Y698D02*
X909Y698D01*
X709Y697D02*
X715Y697D01*
X903Y697D02*
X909Y697D01*
X709Y696D02*
X715Y696D01*
X903Y696D02*
X909Y696D01*
X709Y695D02*
X715Y695D01*
X903Y695D02*
X909Y695D01*
X709Y694D02*
X715Y694D01*
X903Y694D02*
X909Y694D01*
X709Y693D02*
X715Y693D01*
X903Y693D02*
X909Y693D01*
X709Y692D02*
X715Y692D01*
X903Y692D02*
X909Y692D01*
X709Y691D02*
X715Y691D01*
X903Y691D02*
X909Y691D01*
X709Y690D02*
X715Y690D01*
X903Y690D02*
X909Y690D01*
X709Y689D02*
X715Y689D01*
X897Y689D02*
X909Y689D01*
X709Y688D02*
X715Y688D01*
X766Y688D02*
X845Y688D01*
X896Y688D02*
X909Y688D01*
X709Y687D02*
X715Y687D01*
X766Y687D02*
X845Y687D01*
X896Y687D02*
X909Y687D01*
X709Y686D02*
X715Y686D01*
X766Y686D02*
X845Y686D01*
X896Y686D02*
X909Y686D01*
X709Y685D02*
X715Y685D01*
X766Y685D02*
X845Y685D01*
X896Y685D02*
X909Y685D01*
X709Y684D02*
X715Y684D01*
X766Y684D02*
X845Y684D01*
X896Y684D02*
X909Y684D01*
X709Y683D02*
X715Y683D01*
X766Y683D02*
X845Y683D01*
X896Y683D02*
X909Y683D01*
X709Y682D02*
X715Y682D01*
X766Y682D02*
X845Y682D01*
X896Y682D02*
X909Y682D01*
X676Y545D02*
X694Y545D01*
X726Y545D02*
X744Y545D01*
X676Y544D02*
X695Y544D01*
X724Y544D02*
X745Y544D01*
X676Y543D02*
X695Y543D01*
X723Y543D02*
X745Y543D01*
X676Y542D02*
X695Y542D01*
X722Y542D02*
X745Y542D01*
X676Y541D02*
X695Y541D01*
X721Y541D02*
X745Y541D01*
X676Y540D02*
X695Y540D01*
X721Y540D02*
X745Y540D01*
X676Y539D02*
X693Y539D01*
X720Y539D02*
X743Y539D01*
X676Y538D02*
X682Y538D01*
X720Y538D02*
X727Y538D01*
X733Y538D02*
X739Y538D01*
X676Y537D02*
X682Y537D01*
X719Y537D02*
X726Y537D01*
X733Y537D02*
X739Y537D01*
X676Y536D02*
X682Y536D01*
X719Y536D02*
X726Y536D01*
X733Y536D02*
X739Y536D01*
X676Y535D02*
X682Y535D01*
X718Y535D02*
X725Y535D01*
X733Y535D02*
X739Y535D01*
X676Y534D02*
X682Y534D01*
X718Y534D02*
X725Y534D01*
X733Y534D02*
X739Y534D01*
X676Y533D02*
X682Y533D01*
X717Y533D02*
X724Y533D01*
X733Y533D02*
X739Y533D01*
X676Y532D02*
X682Y532D01*
X717Y532D02*
X724Y532D01*
X733Y532D02*
X739Y532D01*
X676Y531D02*
X682Y531D01*
X716Y531D02*
X723Y531D01*
X733Y531D02*
X739Y531D01*
X676Y530D02*
X682Y530D01*
X716Y530D02*
X723Y530D01*
X733Y530D02*
X739Y530D01*
X676Y529D02*
X682Y529D01*
X715Y529D02*
X722Y529D01*
X733Y529D02*
X739Y529D01*
X676Y528D02*
X682Y528D01*
X715Y528D02*
X722Y528D01*
X733Y528D02*
X739Y528D01*
X676Y527D02*
X682Y527D01*
X714Y527D02*
X721Y527D01*
X733Y527D02*
X739Y527D01*
X676Y526D02*
X682Y526D01*
X714Y526D02*
X721Y526D01*
X733Y526D02*
X739Y526D01*
X676Y525D02*
X682Y525D01*
X713Y525D02*
X720Y525D01*
X733Y525D02*
X739Y525D01*
X676Y524D02*
X682Y524D01*
X713Y524D02*
X720Y524D01*
X733Y524D02*
X739Y524D01*
X676Y523D02*
X682Y523D01*
X713Y523D02*
X719Y523D01*
X733Y523D02*
X739Y523D01*
X676Y522D02*
X682Y522D01*
X712Y522D02*
X719Y522D01*
X733Y522D02*
X739Y522D01*
X676Y521D02*
X682Y521D01*
X712Y521D02*
X718Y521D01*
X733Y521D02*
X739Y521D01*
X676Y520D02*
X682Y520D01*
X712Y520D02*
X718Y520D01*
X733Y520D02*
X739Y520D01*
X676Y519D02*
X682Y519D01*
X712Y519D02*
X718Y519D01*
X733Y519D02*
X739Y519D01*
X676Y518D02*
X682Y518D01*
X712Y518D02*
X718Y518D01*
X733Y518D02*
X739Y518D01*
X676Y517D02*
X682Y517D01*
X712Y517D02*
X718Y517D01*
X733Y517D02*
X739Y517D01*
X664Y516D02*
X666Y516D01*
X676Y516D02*
X682Y516D01*
X712Y516D02*
X719Y516D01*
X733Y516D02*
X739Y516D01*
X663Y515D02*
X667Y515D01*
X676Y515D02*
X682Y515D01*
X713Y515D02*
X719Y515D01*
X733Y515D02*
X739Y515D01*
X662Y514D02*
X668Y514D01*
X676Y514D02*
X682Y514D01*
X713Y514D02*
X719Y514D01*
X733Y514D02*
X739Y514D01*
X662Y513D02*
X668Y513D01*
X676Y513D02*
X682Y513D01*
X713Y513D02*
X720Y513D01*
X733Y513D02*
X739Y513D01*
X662Y512D02*
X668Y512D01*
X676Y512D02*
X682Y512D01*
X714Y512D02*
X720Y512D01*
X733Y512D02*
X739Y512D01*
X662Y511D02*
X668Y511D01*
X676Y511D02*
X682Y511D01*
X714Y511D02*
X721Y511D01*
X733Y511D02*
X739Y511D01*
X662Y510D02*
X668Y510D01*
X676Y510D02*
X682Y510D01*
X715Y510D02*
X721Y510D01*
X733Y510D02*
X739Y510D01*
X662Y509D02*
X668Y509D01*
X676Y509D02*
X682Y509D01*
X715Y509D02*
X722Y509D01*
X733Y509D02*
X739Y509D01*
X662Y508D02*
X668Y508D01*
X676Y508D02*
X682Y508D01*
X716Y508D02*
X722Y508D01*
X733Y508D02*
X739Y508D01*
X662Y507D02*
X668Y507D01*
X676Y507D02*
X682Y507D01*
X716Y507D02*
X723Y507D01*
X733Y507D02*
X739Y507D01*
X662Y506D02*
X668Y506D01*
X676Y506D02*
X682Y506D01*
X717Y506D02*
X723Y506D01*
X733Y506D02*
X739Y506D01*
X662Y505D02*
X668Y505D01*
X676Y505D02*
X682Y505D01*
X717Y505D02*
X724Y505D01*
X733Y505D02*
X739Y505D01*
X662Y504D02*
X668Y504D01*
X676Y504D02*
X682Y504D01*
X718Y504D02*
X724Y504D01*
X733Y504D02*
X739Y504D01*
X662Y503D02*
X668Y503D01*
X676Y503D02*
X682Y503D01*
X718Y503D02*
X725Y503D01*
X733Y503D02*
X739Y503D01*
X662Y502D02*
X668Y502D01*
X676Y502D02*
X682Y502D01*
X718Y502D02*
X725Y502D01*
X733Y502D02*
X739Y502D01*
X662Y501D02*
X668Y501D01*
X676Y501D02*
X682Y501D01*
X719Y501D02*
X726Y501D01*
X733Y501D02*
X739Y501D01*
X662Y500D02*
X668Y500D01*
X676Y500D02*
X682Y500D01*
X719Y500D02*
X727Y500D01*
X733Y500D02*
X739Y500D01*
X662Y499D02*
X668Y499D01*
X676Y499D02*
X682Y499D01*
X720Y499D02*
X728Y499D01*
X732Y499D02*
X739Y499D01*
X662Y498D02*
X694Y498D01*
X720Y498D02*
X744Y498D01*
X662Y497D02*
X695Y497D01*
X721Y497D02*
X745Y497D01*
X662Y496D02*
X695Y496D01*
X722Y496D02*
X745Y496D01*
X662Y495D02*
X696Y495D01*
X722Y495D02*
X745Y495D01*
X662Y494D02*
X695Y494D01*
X724Y494D02*
X745Y494D01*
X663Y493D02*
X695Y493D01*
X725Y493D02*
X745Y493D01*
X664Y492D02*
X693Y492D01*
X728Y492D02*
X743Y492D01*
X85Y480D02*
X97Y480D01*
X149Y480D02*
X227Y480D01*
X278Y480D02*
X285Y480D01*
X85Y479D02*
X97Y479D01*
X149Y479D02*
X227Y479D01*
X278Y479D02*
X285Y479D01*
X85Y478D02*
X97Y478D01*
X149Y478D02*
X227Y478D01*
X278Y478D02*
X285Y478D01*
X85Y477D02*
X97Y477D01*
X149Y477D02*
X227Y477D01*
X278Y477D02*
X285Y477D01*
X85Y476D02*
X97Y476D01*
X149Y476D02*
X227Y476D01*
X278Y476D02*
X285Y476D01*
X85Y475D02*
X97Y475D01*
X149Y475D02*
X227Y475D01*
X278Y475D02*
X285Y475D01*
X85Y474D02*
X97Y474D01*
X149Y474D02*
X227Y474D01*
X278Y474D02*
X285Y474D01*
X85Y473D02*
X97Y473D01*
X278Y473D02*
X285Y473D01*
X85Y472D02*
X91Y472D01*
X279Y472D02*
X285Y472D01*
X85Y471D02*
X91Y471D01*
X279Y471D02*
X285Y471D01*
X85Y470D02*
X91Y470D01*
X279Y470D02*
X285Y470D01*
X85Y469D02*
X91Y469D01*
X279Y469D02*
X285Y469D01*
X85Y468D02*
X91Y468D01*
X279Y468D02*
X285Y468D01*
X85Y467D02*
X91Y467D01*
X279Y467D02*
X285Y467D01*
X85Y466D02*
X91Y466D01*
X279Y466D02*
X285Y466D01*
X85Y465D02*
X91Y465D01*
X279Y465D02*
X285Y465D01*
X85Y464D02*
X91Y464D01*
X279Y464D02*
X285Y464D01*
X85Y463D02*
X91Y463D01*
X279Y463D02*
X285Y463D01*
X85Y462D02*
X91Y462D01*
X279Y462D02*
X285Y462D01*
X85Y461D02*
X91Y461D01*
X279Y461D02*
X285Y461D01*
X85Y460D02*
X91Y460D01*
X279Y460D02*
X285Y460D01*
X85Y459D02*
X91Y459D01*
X279Y459D02*
X285Y459D01*
X85Y458D02*
X91Y458D01*
X279Y458D02*
X285Y458D01*
X85Y457D02*
X91Y457D01*
X279Y457D02*
X285Y457D01*
X85Y456D02*
X91Y456D01*
X279Y456D02*
X285Y456D01*
X85Y455D02*
X91Y455D01*
X279Y455D02*
X285Y455D01*
X85Y454D02*
X91Y454D01*
X279Y454D02*
X285Y454D01*
X85Y453D02*
X91Y453D01*
X279Y453D02*
X285Y453D01*
X85Y452D02*
X91Y452D01*
X279Y452D02*
X285Y452D01*
X85Y451D02*
X91Y451D01*
X279Y451D02*
X285Y451D01*
X85Y450D02*
X91Y450D01*
X279Y450D02*
X285Y450D01*
X85Y449D02*
X91Y449D01*
X279Y449D02*
X285Y449D01*
X85Y448D02*
X91Y448D01*
X279Y448D02*
X285Y448D01*
X85Y447D02*
X91Y447D01*
X279Y447D02*
X285Y447D01*
X85Y446D02*
X91Y446D01*
X279Y446D02*
X285Y446D01*
X85Y445D02*
X91Y445D01*
X279Y445D02*
X285Y445D01*
X85Y444D02*
X91Y444D01*
X279Y444D02*
X285Y444D01*
X85Y443D02*
X91Y443D01*
X279Y443D02*
X285Y443D01*
X85Y442D02*
X91Y442D01*
X279Y442D02*
X285Y442D01*
X85Y441D02*
X91Y441D01*
X279Y441D02*
X285Y441D01*
X85Y440D02*
X91Y440D01*
X279Y440D02*
X285Y440D01*
X85Y439D02*
X91Y439D01*
X155Y439D02*
X157Y439D01*
X279Y439D02*
X285Y439D01*
X85Y438D02*
X91Y438D01*
X155Y438D02*
X157Y438D01*
X279Y438D02*
X285Y438D01*
X85Y437D02*
X91Y437D01*
X108Y437D02*
X120Y437D01*
X127Y437D02*
X138Y437D01*
X142Y437D02*
X144Y437D01*
X155Y437D02*
X156Y437D01*
X234Y437D02*
X236Y437D01*
X257Y437D02*
X261Y437D01*
X265Y437D02*
X269Y437D01*
X279Y437D02*
X285Y437D01*
X85Y436D02*
X91Y436D01*
X107Y436D02*
X110Y436D01*
X118Y436D02*
X120Y436D01*
X126Y436D02*
X129Y436D01*
X137Y436D02*
X138Y436D01*
X143Y436D02*
X144Y436D01*
X154Y436D02*
X156Y436D01*
X234Y436D02*
X236Y436D01*
X256Y436D02*
X259Y436D01*
X267Y436D02*
X270Y436D01*
X279Y436D02*
X285Y436D01*
X85Y435D02*
X91Y435D01*
X106Y435D02*
X109Y435D01*
X118Y435D02*
X120Y435D01*
X125Y435D02*
X127Y435D01*
X137Y435D02*
X138Y435D01*
X143Y435D02*
X145Y435D01*
X154Y435D02*
X156Y435D01*
X234Y435D02*
X236Y435D01*
X256Y435D02*
X258Y435D01*
X268Y435D02*
X270Y435D01*
X279Y435D02*
X285Y435D01*
X85Y434D02*
X91Y434D01*
X106Y434D02*
X108Y434D01*
X118Y434D02*
X120Y434D01*
X124Y434D02*
X127Y434D01*
X137Y434D02*
X138Y434D01*
X143Y434D02*
X145Y434D01*
X154Y434D02*
X155Y434D01*
X230Y434D02*
X237Y434D01*
X241Y434D02*
X242Y434D01*
X250Y434D02*
X251Y434D01*
X255Y434D02*
X257Y434D01*
X269Y434D02*
X271Y434D01*
X279Y434D02*
X285Y434D01*
X85Y433D02*
X91Y433D01*
X105Y433D02*
X107Y433D01*
X118Y433D02*
X120Y433D01*
X124Y433D02*
X126Y433D01*
X137Y433D02*
X138Y433D01*
X144Y433D02*
X145Y433D01*
X153Y433D02*
X155Y433D01*
X230Y433D02*
X237Y433D01*
X240Y433D02*
X242Y433D01*
X250Y433D02*
X251Y433D01*
X255Y433D02*
X257Y433D01*
X269Y433D02*
X271Y433D01*
X279Y433D02*
X285Y433D01*
X85Y432D02*
X91Y432D01*
X105Y432D02*
X107Y432D01*
X118Y432D02*
X120Y432D01*
X124Y432D02*
X126Y432D01*
X137Y432D02*
X138Y432D01*
X144Y432D02*
X146Y432D01*
X153Y432D02*
X155Y432D01*
X234Y432D02*
X236Y432D01*
X240Y432D02*
X242Y432D01*
X250Y432D02*
X251Y432D01*
X255Y432D02*
X257Y432D01*
X269Y432D02*
X271Y432D01*
X279Y432D02*
X285Y432D01*
X85Y431D02*
X91Y431D01*
X105Y431D02*
X107Y431D01*
X118Y431D02*
X120Y431D01*
X124Y431D02*
X125Y431D01*
X137Y431D02*
X138Y431D01*
X144Y431D02*
X146Y431D01*
X153Y431D02*
X154Y431D01*
X234Y431D02*
X236Y431D01*
X240Y431D02*
X242Y431D01*
X250Y431D02*
X251Y431D01*
X255Y431D02*
X256Y431D01*
X269Y431D02*
X271Y431D01*
X279Y431D02*
X285Y431D01*
X85Y430D02*
X91Y430D01*
X105Y430D02*
X106Y430D01*
X118Y430D02*
X120Y430D01*
X124Y430D02*
X125Y430D01*
X137Y430D02*
X138Y430D01*
X145Y430D02*
X146Y430D01*
X152Y430D02*
X154Y430D01*
X234Y430D02*
X236Y430D01*
X240Y430D02*
X242Y430D01*
X250Y430D02*
X251Y430D01*
X255Y430D02*
X256Y430D01*
X270Y430D02*
X271Y430D01*
X279Y430D02*
X285Y430D01*
X85Y429D02*
X91Y429D01*
X105Y429D02*
X106Y429D01*
X118Y429D02*
X120Y429D01*
X123Y429D02*
X125Y429D01*
X137Y429D02*
X138Y429D01*
X145Y429D02*
X147Y429D01*
X152Y429D02*
X154Y429D01*
X234Y429D02*
X236Y429D01*
X240Y429D02*
X242Y429D01*
X250Y429D02*
X251Y429D01*
X255Y429D02*
X256Y429D01*
X270Y429D02*
X271Y429D01*
X279Y429D02*
X285Y429D01*
X85Y428D02*
X91Y428D01*
X105Y428D02*
X106Y428D01*
X118Y428D02*
X120Y428D01*
X124Y428D02*
X125Y428D01*
X137Y428D02*
X138Y428D01*
X145Y428D02*
X147Y428D01*
X152Y428D02*
X153Y428D01*
X234Y428D02*
X236Y428D01*
X240Y428D02*
X242Y428D01*
X250Y428D02*
X251Y428D01*
X255Y428D02*
X256Y428D01*
X270Y428D02*
X271Y428D01*
X279Y428D02*
X285Y428D01*
X85Y427D02*
X91Y427D01*
X105Y427D02*
X107Y427D01*
X118Y427D02*
X120Y427D01*
X124Y427D02*
X125Y427D01*
X137Y427D02*
X138Y427D01*
X146Y427D02*
X147Y427D01*
X151Y427D02*
X153Y427D01*
X234Y427D02*
X236Y427D01*
X240Y427D02*
X242Y427D01*
X250Y427D02*
X251Y427D01*
X255Y427D02*
X256Y427D01*
X269Y427D02*
X271Y427D01*
X279Y427D02*
X285Y427D01*
X85Y426D02*
X91Y426D01*
X105Y426D02*
X107Y426D01*
X118Y426D02*
X120Y426D01*
X124Y426D02*
X126Y426D01*
X137Y426D02*
X138Y426D01*
X146Y426D02*
X148Y426D01*
X151Y426D02*
X153Y426D01*
X234Y426D02*
X236Y426D01*
X240Y426D02*
X242Y426D01*
X250Y426D02*
X251Y426D01*
X255Y426D02*
X257Y426D01*
X269Y426D02*
X271Y426D01*
X279Y426D02*
X285Y426D01*
X85Y425D02*
X91Y425D01*
X105Y425D02*
X107Y425D01*
X118Y425D02*
X120Y425D01*
X124Y425D02*
X126Y425D01*
X137Y425D02*
X138Y425D01*
X146Y425D02*
X148Y425D01*
X151Y425D02*
X152Y425D01*
X234Y425D02*
X236Y425D01*
X240Y425D02*
X242Y425D01*
X250Y425D02*
X251Y425D01*
X255Y425D02*
X257Y425D01*
X269Y425D02*
X271Y425D01*
X279Y425D02*
X285Y425D01*
X85Y424D02*
X91Y424D01*
X106Y424D02*
X108Y424D01*
X118Y424D02*
X120Y424D01*
X125Y424D02*
X127Y424D01*
X137Y424D02*
X138Y424D01*
X147Y424D02*
X148Y424D01*
X150Y424D02*
X152Y424D01*
X234Y424D02*
X236Y424D01*
X240Y424D02*
X242Y424D01*
X250Y424D02*
X251Y424D01*
X255Y424D02*
X257Y424D01*
X269Y424D02*
X270Y424D01*
X279Y424D02*
X285Y424D01*
X85Y423D02*
X91Y423D01*
X106Y423D02*
X109Y423D01*
X118Y423D02*
X120Y423D01*
X125Y423D02*
X128Y423D01*
X137Y423D02*
X138Y423D01*
X147Y423D02*
X152Y423D01*
X234Y423D02*
X236Y423D01*
X240Y423D02*
X242Y423D01*
X250Y423D02*
X251Y423D01*
X256Y423D02*
X258Y423D01*
X268Y423D02*
X270Y423D01*
X279Y423D02*
X285Y423D01*
X85Y422D02*
X91Y422D01*
X107Y422D02*
X110Y422D01*
X118Y422D02*
X120Y422D01*
X126Y422D02*
X129Y422D01*
X137Y422D02*
X138Y422D01*
X147Y422D02*
X151Y422D01*
X234Y422D02*
X236Y422D01*
X240Y422D02*
X243Y422D01*
X249Y422D02*
X251Y422D01*
X257Y422D02*
X259Y422D01*
X267Y422D02*
X269Y422D01*
X279Y422D02*
X285Y422D01*
X85Y421D02*
X91Y421D01*
X108Y421D02*
X120Y421D01*
X127Y421D02*
X138Y421D01*
X148Y421D02*
X151Y421D01*
X230Y421D02*
X235Y421D01*
X240Y421D02*
X251Y421D01*
X257Y421D02*
X262Y421D01*
X264Y421D02*
X269Y421D01*
X279Y421D02*
X285Y421D01*
X85Y420D02*
X91Y420D01*
X110Y420D02*
X120Y420D01*
X129Y420D02*
X138Y420D01*
X148Y420D02*
X151Y420D01*
X230Y420D02*
X235Y420D01*
X240Y420D02*
X242Y420D01*
X244Y420D02*
X250Y420D01*
X259Y420D02*
X267Y420D01*
X279Y420D02*
X285Y420D01*
X85Y419D02*
X91Y419D01*
X230Y419D02*
X233Y419D01*
X246Y419D02*
X248Y419D01*
X261Y419D02*
X265Y419D01*
X279Y419D02*
X285Y419D01*
X85Y418D02*
X91Y418D01*
X279Y418D02*
X285Y418D01*
X85Y417D02*
X91Y417D01*
X279Y417D02*
X285Y417D01*
X85Y416D02*
X91Y416D01*
X279Y416D02*
X285Y416D01*
X85Y415D02*
X91Y415D01*
X279Y415D02*
X285Y415D01*
X85Y414D02*
X91Y414D01*
X279Y414D02*
X285Y414D01*
X85Y413D02*
X91Y413D01*
X279Y413D02*
X285Y413D01*
X85Y412D02*
X91Y412D01*
X279Y412D02*
X285Y412D01*
X85Y411D02*
X91Y411D01*
X279Y411D02*
X285Y411D01*
X85Y410D02*
X91Y410D01*
X279Y410D02*
X285Y410D01*
X85Y409D02*
X91Y409D01*
X279Y409D02*
X285Y409D01*
X85Y408D02*
X91Y408D01*
X279Y408D02*
X285Y408D01*
X85Y407D02*
X91Y407D01*
X279Y407D02*
X285Y407D01*
X85Y406D02*
X91Y406D01*
X279Y406D02*
X285Y406D01*
X85Y405D02*
X91Y405D01*
X279Y405D02*
X285Y405D01*
X85Y404D02*
X91Y404D01*
X279Y404D02*
X285Y404D01*
X85Y403D02*
X91Y403D01*
X279Y403D02*
X285Y403D01*
X85Y402D02*
X91Y402D01*
X279Y402D02*
X285Y402D01*
X85Y401D02*
X91Y401D01*
X279Y401D02*
X285Y401D01*
X85Y400D02*
X91Y400D01*
X279Y400D02*
X285Y400D01*
X85Y399D02*
X91Y399D01*
X279Y399D02*
X285Y399D01*
X85Y398D02*
X91Y398D01*
X279Y398D02*
X285Y398D01*
X85Y397D02*
X91Y397D01*
X279Y397D02*
X285Y397D01*
X85Y396D02*
X91Y396D01*
X279Y396D02*
X285Y396D01*
X85Y395D02*
X91Y395D01*
X279Y395D02*
X285Y395D01*
X85Y394D02*
X91Y394D01*
X155Y394D02*
X156Y394D01*
X192Y394D02*
X194Y394D01*
X213Y394D02*
X214Y394D01*
X279Y394D02*
X285Y394D01*
X85Y393D02*
X91Y393D01*
X131Y393D02*
X142Y393D01*
X152Y393D02*
X160Y393D01*
X172Y393D02*
X174Y393D01*
X189Y393D02*
X197Y393D01*
X209Y393D02*
X218Y393D01*
X224Y393D02*
X233Y393D01*
X238Y393D02*
X241Y393D01*
X252Y393D02*
X254Y393D01*
X265Y393D02*
X268Y393D01*
X279Y393D02*
X285Y393D01*
X85Y392D02*
X91Y392D01*
X129Y392D02*
X142Y392D01*
X150Y392D02*
X161Y392D01*
X172Y392D02*
X174Y392D01*
X188Y392D02*
X198Y392D01*
X208Y392D02*
X219Y392D01*
X222Y392D02*
X235Y392D01*
X239Y392D02*
X241Y392D01*
X251Y392D02*
X254Y392D01*
X265Y392D02*
X267Y392D01*
X279Y392D02*
X285Y392D01*
X85Y391D02*
X91Y391D01*
X128Y391D02*
X142Y391D01*
X149Y391D02*
X154Y391D01*
X157Y391D02*
X161Y391D01*
X172Y391D02*
X175Y391D01*
X187Y391D02*
X191Y391D01*
X196Y391D02*
X199Y391D01*
X207Y391D02*
X212Y391D01*
X215Y391D02*
X219Y391D01*
X222Y391D02*
X228Y391D01*
X230Y391D02*
X236Y391D01*
X239Y391D02*
X241Y391D01*
X251Y391D02*
X255Y391D01*
X265Y391D02*
X267Y391D01*
X279Y391D02*
X285Y391D01*
X85Y390D02*
X91Y390D01*
X127Y390D02*
X131Y390D01*
X140Y390D02*
X142Y390D01*
X149Y390D02*
X152Y390D01*
X160Y390D02*
X161Y390D01*
X172Y390D02*
X179Y390D01*
X187Y390D02*
X189Y390D01*
X197Y390D02*
X200Y390D01*
X207Y390D02*
X210Y390D01*
X218Y390D02*
X219Y390D01*
X222Y390D02*
X224Y390D01*
X233Y390D02*
X236Y390D01*
X239Y390D02*
X241Y390D01*
X251Y390D02*
X255Y390D01*
X264Y390D02*
X267Y390D01*
X279Y390D02*
X285Y390D01*
X85Y389D02*
X91Y389D01*
X127Y389D02*
X130Y389D01*
X140Y389D02*
X142Y389D01*
X149Y389D02*
X151Y389D01*
X172Y389D02*
X179Y389D01*
X186Y389D02*
X189Y389D01*
X198Y389D02*
X200Y389D01*
X206Y389D02*
X209Y389D01*
X222Y389D02*
X222Y389D01*
X234Y389D02*
X237Y389D01*
X239Y389D02*
X242Y389D01*
X251Y389D02*
X255Y389D01*
X264Y389D02*
X266Y389D01*
X279Y389D02*
X285Y389D01*
X85Y388D02*
X91Y388D01*
X127Y388D02*
X130Y388D01*
X140Y388D02*
X142Y388D01*
X148Y388D02*
X151Y388D01*
X172Y388D02*
X179Y388D01*
X186Y388D02*
X189Y388D01*
X198Y388D02*
X200Y388D01*
X206Y388D02*
X209Y388D01*
X235Y388D02*
X237Y388D01*
X240Y388D02*
X242Y388D01*
X250Y388D02*
X252Y388D01*
X254Y388D02*
X255Y388D01*
X264Y388D02*
X266Y388D01*
X279Y388D02*
X285Y388D01*
X85Y387D02*
X91Y387D01*
X127Y387D02*
X130Y387D01*
X140Y387D02*
X142Y387D01*
X148Y387D02*
X151Y387D01*
X172Y387D02*
X175Y387D01*
X186Y387D02*
X189Y387D01*
X198Y387D02*
X200Y387D01*
X206Y387D02*
X209Y387D01*
X235Y387D02*
X237Y387D01*
X240Y387D02*
X242Y387D01*
X250Y387D02*
X252Y387D01*
X254Y387D02*
X256Y387D01*
X264Y387D02*
X266Y387D01*
X279Y387D02*
X285Y387D01*
X85Y386D02*
X91Y386D01*
X127Y386D02*
X130Y386D01*
X140Y386D02*
X142Y386D01*
X149Y386D02*
X151Y386D01*
X172Y386D02*
X175Y386D01*
X187Y386D02*
X189Y386D01*
X198Y386D02*
X200Y386D01*
X206Y386D02*
X209Y386D01*
X235Y386D02*
X237Y386D01*
X240Y386D02*
X242Y386D01*
X250Y386D02*
X252Y386D01*
X254Y386D02*
X256Y386D01*
X263Y386D02*
X266Y386D01*
X279Y386D02*
X285Y386D01*
X85Y385D02*
X91Y385D01*
X128Y385D02*
X130Y385D01*
X140Y385D02*
X142Y385D01*
X149Y385D02*
X151Y385D01*
X172Y385D02*
X175Y385D01*
X187Y385D02*
X189Y385D01*
X197Y385D02*
X200Y385D01*
X207Y385D02*
X209Y385D01*
X234Y385D02*
X237Y385D01*
X240Y385D02*
X243Y385D01*
X250Y385D02*
X251Y385D01*
X254Y385D02*
X256Y385D01*
X263Y385D02*
X265Y385D01*
X279Y385D02*
X285Y385D01*
X85Y384D02*
X91Y384D01*
X128Y384D02*
X131Y384D01*
X140Y384D02*
X142Y384D01*
X149Y384D02*
X151Y384D01*
X172Y384D02*
X175Y384D01*
X188Y384D02*
X190Y384D01*
X195Y384D02*
X199Y384D01*
X207Y384D02*
X209Y384D01*
X233Y384D02*
X237Y384D01*
X241Y384D02*
X243Y384D01*
X249Y384D02*
X251Y384D01*
X255Y384D02*
X256Y384D01*
X263Y384D02*
X265Y384D01*
X279Y384D02*
X285Y384D01*
X85Y383D02*
X91Y383D01*
X130Y383D02*
X142Y383D01*
X149Y383D02*
X152Y383D01*
X172Y383D02*
X175Y383D01*
X188Y383D02*
X191Y383D01*
X193Y383D02*
X198Y383D01*
X207Y383D02*
X210Y383D01*
X231Y383D02*
X236Y383D01*
X241Y383D02*
X243Y383D01*
X249Y383D02*
X251Y383D01*
X255Y383D02*
X257Y383D01*
X263Y383D02*
X265Y383D01*
X279Y383D02*
X285Y383D01*
X85Y382D02*
X91Y382D01*
X130Y382D02*
X142Y382D01*
X150Y382D02*
X153Y382D01*
X172Y382D02*
X175Y382D01*
X190Y382D02*
X197Y382D01*
X208Y382D02*
X210Y382D01*
X227Y382D02*
X235Y382D01*
X241Y382D02*
X243Y382D01*
X249Y382D02*
X251Y382D01*
X255Y382D02*
X257Y382D01*
X262Y382D02*
X265Y382D01*
X279Y382D02*
X285Y382D01*
X85Y381D02*
X91Y381D01*
X128Y381D02*
X142Y381D01*
X150Y381D02*
X153Y381D01*
X172Y381D02*
X175Y381D01*
X189Y381D02*
X198Y381D01*
X208Y381D02*
X211Y381D01*
X224Y381D02*
X234Y381D01*
X241Y381D02*
X244Y381D01*
X249Y381D02*
X250Y381D01*
X255Y381D02*
X257Y381D01*
X262Y381D02*
X264Y381D01*
X279Y381D02*
X285Y381D01*
X85Y380D02*
X91Y380D01*
X127Y380D02*
X131Y380D01*
X140Y380D02*
X142Y380D01*
X151Y380D02*
X154Y380D01*
X172Y380D02*
X175Y380D01*
X188Y380D02*
X193Y380D01*
X197Y380D02*
X199Y380D01*
X209Y380D02*
X212Y380D01*
X223Y380D02*
X231Y380D01*
X242Y380D02*
X244Y380D01*
X248Y380D02*
X250Y380D01*
X256Y380D02*
X257Y380D01*
X262Y380D02*
X264Y380D01*
X279Y380D02*
X285Y380D01*
X85Y379D02*
X91Y379D01*
X126Y379D02*
X129Y379D01*
X140Y379D02*
X142Y379D01*
X152Y379D02*
X155Y379D01*
X172Y379D02*
X175Y379D01*
X187Y379D02*
X191Y379D01*
X198Y379D02*
X200Y379D01*
X210Y379D02*
X213Y379D01*
X222Y379D02*
X228Y379D01*
X242Y379D02*
X244Y379D01*
X248Y379D02*
X250Y379D01*
X256Y379D02*
X258Y379D01*
X262Y379D02*
X264Y379D01*
X279Y379D02*
X285Y379D01*
X85Y378D02*
X91Y378D01*
X126Y378D02*
X129Y378D01*
X140Y378D02*
X142Y378D01*
X153Y378D02*
X156Y378D01*
X172Y378D02*
X175Y378D01*
X186Y378D02*
X189Y378D01*
X198Y378D02*
X200Y378D01*
X211Y378D02*
X214Y378D01*
X222Y378D02*
X225Y378D01*
X242Y378D02*
X244Y378D01*
X248Y378D02*
X250Y378D01*
X256Y378D02*
X258Y378D01*
X261Y378D02*
X264Y378D01*
X279Y378D02*
X285Y378D01*
X85Y377D02*
X91Y377D01*
X126Y377D02*
X128Y377D01*
X140Y377D02*
X142Y377D01*
X154Y377D02*
X157Y377D01*
X172Y377D02*
X175Y377D01*
X186Y377D02*
X189Y377D01*
X198Y377D02*
X201Y377D01*
X212Y377D02*
X215Y377D01*
X221Y377D02*
X224Y377D01*
X242Y377D02*
X244Y377D01*
X248Y377D02*
X249Y377D01*
X256Y377D02*
X258Y377D01*
X261Y377D02*
X263Y377D01*
X279Y377D02*
X285Y377D01*
X85Y376D02*
X91Y376D01*
X126Y376D02*
X128Y376D01*
X140Y376D02*
X142Y376D01*
X155Y376D02*
X158Y376D01*
X172Y376D02*
X175Y376D01*
X186Y376D02*
X188Y376D01*
X199Y376D02*
X201Y376D01*
X213Y376D02*
X216Y376D01*
X221Y376D02*
X224Y376D01*
X243Y376D02*
X245Y376D01*
X247Y376D02*
X249Y376D01*
X257Y376D02*
X258Y376D01*
X261Y376D02*
X263Y376D01*
X279Y376D02*
X285Y376D01*
X85Y375D02*
X91Y375D01*
X126Y375D02*
X128Y375D01*
X140Y375D02*
X142Y375D01*
X156Y375D02*
X159Y375D01*
X172Y375D02*
X175Y375D01*
X186Y375D02*
X188Y375D01*
X199Y375D02*
X201Y375D01*
X214Y375D02*
X216Y375D01*
X221Y375D02*
X224Y375D01*
X243Y375D02*
X245Y375D01*
X247Y375D02*
X249Y375D01*
X257Y375D02*
X259Y375D01*
X261Y375D02*
X263Y375D01*
X279Y375D02*
X285Y375D01*
X85Y374D02*
X91Y374D01*
X126Y374D02*
X129Y374D01*
X140Y374D02*
X142Y374D01*
X157Y374D02*
X160Y374D01*
X172Y374D02*
X175Y374D01*
X186Y374D02*
X188Y374D01*
X198Y374D02*
X201Y374D01*
X215Y374D02*
X218Y374D01*
X221Y374D02*
X224Y374D01*
X243Y374D02*
X245Y374D01*
X247Y374D02*
X249Y374D01*
X257Y374D02*
X263Y374D01*
X279Y374D02*
X285Y374D01*
X85Y373D02*
X91Y373D01*
X126Y373D02*
X129Y373D01*
X140Y373D02*
X142Y373D01*
X158Y373D02*
X161Y373D01*
X172Y373D02*
X175Y373D01*
X186Y373D02*
X189Y373D01*
X198Y373D02*
X201Y373D01*
X216Y373D02*
X219Y373D01*
X222Y373D02*
X224Y373D01*
X237Y373D02*
X237Y373D01*
X243Y373D02*
X248Y373D01*
X257Y373D02*
X262Y373D01*
X279Y373D02*
X285Y373D01*
X85Y372D02*
X91Y372D01*
X127Y372D02*
X131Y372D01*
X140Y372D02*
X142Y372D01*
X159Y372D02*
X162Y372D01*
X172Y372D02*
X175Y372D01*
X186Y372D02*
X189Y372D01*
X197Y372D02*
X200Y372D01*
X217Y372D02*
X220Y372D01*
X222Y372D02*
X225Y372D01*
X235Y372D02*
X237Y372D01*
X244Y372D02*
X248Y372D01*
X258Y372D02*
X262Y372D01*
X279Y372D02*
X285Y372D01*
X85Y371D02*
X91Y371D01*
X128Y371D02*
X142Y371D01*
X148Y371D02*
X162Y371D01*
X172Y371D02*
X175Y371D01*
X187Y371D02*
X190Y371D01*
X196Y371D02*
X200Y371D01*
X205Y371D02*
X220Y371D01*
X223Y371D02*
X227Y371D01*
X232Y371D02*
X237Y371D01*
X244Y371D02*
X248Y371D01*
X258Y371D02*
X262Y371D01*
X279Y371D02*
X285Y371D01*
X85Y370D02*
X91Y370D01*
X129Y370D02*
X142Y370D01*
X147Y370D02*
X162Y370D01*
X168Y370D02*
X179Y370D01*
X188Y370D02*
X199Y370D01*
X205Y370D02*
X220Y370D01*
X224Y370D02*
X237Y370D01*
X244Y370D02*
X248Y370D01*
X258Y370D02*
X262Y370D01*
X279Y370D02*
X285Y370D01*
X85Y369D02*
X91Y369D01*
X131Y369D02*
X142Y369D01*
X147Y369D02*
X162Y369D01*
X168Y369D02*
X179Y369D01*
X189Y369D02*
X198Y369D01*
X205Y369D02*
X220Y369D01*
X225Y369D02*
X235Y369D01*
X244Y369D02*
X248Y369D01*
X258Y369D02*
X261Y369D01*
X279Y369D02*
X285Y369D01*
X85Y368D02*
X91Y368D01*
X192Y368D02*
X195Y368D01*
X228Y368D02*
X232Y368D01*
X279Y368D02*
X285Y368D01*
X85Y367D02*
X91Y367D01*
X279Y367D02*
X285Y367D01*
X85Y366D02*
X91Y366D01*
X279Y366D02*
X285Y366D01*
X85Y365D02*
X91Y365D01*
X279Y365D02*
X285Y365D01*
X85Y364D02*
X91Y364D01*
X279Y364D02*
X285Y364D01*
X85Y363D02*
X91Y363D01*
X279Y363D02*
X285Y363D01*
X85Y362D02*
X91Y362D01*
X279Y362D02*
X285Y362D01*
X85Y361D02*
X91Y361D01*
X279Y361D02*
X285Y361D01*
X85Y360D02*
X91Y360D01*
X279Y360D02*
X285Y360D01*
X85Y359D02*
X91Y359D01*
X279Y359D02*
X285Y359D01*
X85Y358D02*
X91Y358D01*
X279Y358D02*
X285Y358D01*
X85Y357D02*
X91Y357D01*
X279Y357D02*
X285Y357D01*
X85Y356D02*
X91Y356D01*
X279Y356D02*
X285Y356D01*
X85Y355D02*
X91Y355D01*
X279Y355D02*
X285Y355D01*
X85Y354D02*
X91Y354D01*
X279Y354D02*
X285Y354D01*
X85Y353D02*
X91Y353D01*
X279Y353D02*
X285Y353D01*
X85Y352D02*
X91Y352D01*
X279Y352D02*
X285Y352D01*
X85Y351D02*
X91Y351D01*
X279Y351D02*
X285Y351D01*
X85Y350D02*
X91Y350D01*
X279Y350D02*
X285Y350D01*
X85Y349D02*
X91Y349D01*
X279Y349D02*
X285Y349D01*
X85Y348D02*
X91Y348D01*
X279Y348D02*
X285Y348D01*
X85Y347D02*
X91Y347D01*
X279Y347D02*
X285Y347D01*
X85Y346D02*
X91Y346D01*
X279Y346D02*
X285Y346D01*
X85Y345D02*
X91Y345D01*
X279Y345D02*
X285Y345D01*
X85Y344D02*
X91Y344D01*
X125Y344D02*
X131Y344D01*
X279Y344D02*
X285Y344D01*
X85Y343D02*
X91Y343D01*
X125Y343D02*
X132Y343D01*
X279Y343D02*
X285Y343D01*
X85Y342D02*
X91Y342D01*
X127Y342D02*
X129Y342D01*
X225Y342D02*
X226Y342D01*
X279Y342D02*
X285Y342D01*
X85Y341D02*
X91Y341D01*
X127Y341D02*
X129Y341D01*
X225Y341D02*
X226Y341D01*
X257Y341D02*
X265Y341D01*
X279Y341D02*
X285Y341D01*
X85Y340D02*
X91Y340D01*
X127Y340D02*
X129Y340D01*
X225Y340D02*
X226Y340D01*
X255Y340D02*
X267Y340D01*
X279Y340D02*
X285Y340D01*
X85Y339D02*
X91Y339D01*
X116Y339D02*
X119Y339D01*
X123Y339D02*
X124Y339D01*
X127Y339D02*
X129Y339D01*
X225Y339D02*
X226Y339D01*
X255Y339D02*
X258Y339D01*
X265Y339D02*
X268Y339D01*
X279Y339D02*
X285Y339D01*
X85Y338D02*
X91Y338D01*
X114Y338D02*
X124Y338D01*
X127Y338D02*
X129Y338D01*
X225Y338D02*
X226Y338D01*
X255Y338D02*
X256Y338D01*
X266Y338D02*
X269Y338D01*
X279Y338D02*
X285Y338D01*
X85Y337D02*
X91Y337D01*
X114Y337D02*
X124Y337D01*
X127Y337D02*
X129Y337D01*
X225Y337D02*
X226Y337D01*
X267Y337D02*
X269Y337D01*
X279Y337D02*
X285Y337D01*
X85Y336D02*
X91Y336D01*
X113Y336D02*
X115Y336D01*
X121Y336D02*
X124Y336D01*
X127Y336D02*
X129Y336D01*
X225Y336D02*
X233Y336D01*
X242Y336D02*
X246Y336D01*
X249Y336D02*
X251Y336D01*
X268Y336D02*
X270Y336D01*
X279Y336D02*
X285Y336D01*
X85Y335D02*
X91Y335D01*
X113Y335D02*
X115Y335D01*
X122Y335D02*
X124Y335D01*
X127Y335D02*
X129Y335D01*
X225Y335D02*
X234Y335D01*
X241Y335D02*
X251Y335D01*
X268Y335D02*
X270Y335D01*
X279Y335D02*
X285Y335D01*
X85Y334D02*
X91Y334D01*
X113Y334D02*
X115Y334D01*
X122Y334D02*
X124Y334D01*
X127Y334D02*
X129Y334D01*
X225Y334D02*
X227Y334D01*
X232Y334D02*
X235Y334D01*
X240Y334D02*
X243Y334D01*
X247Y334D02*
X251Y334D01*
X268Y334D02*
X270Y334D01*
X279Y334D02*
X285Y334D01*
X85Y333D02*
X91Y333D01*
X113Y333D02*
X115Y333D01*
X122Y333D02*
X124Y333D01*
X127Y333D02*
X129Y333D01*
X225Y333D02*
X226Y333D01*
X233Y333D02*
X235Y333D01*
X240Y333D02*
X242Y333D01*
X249Y333D02*
X251Y333D01*
X268Y333D02*
X270Y333D01*
X279Y333D02*
X285Y333D01*
X85Y332D02*
X91Y332D01*
X113Y332D02*
X115Y332D01*
X122Y332D02*
X124Y332D01*
X127Y332D02*
X129Y332D01*
X225Y332D02*
X226Y332D01*
X234Y332D02*
X236Y332D01*
X240Y332D02*
X242Y332D01*
X249Y332D02*
X251Y332D01*
X269Y332D02*
X270Y332D01*
X279Y332D02*
X285Y332D01*
X85Y331D02*
X91Y331D01*
X113Y331D02*
X115Y331D01*
X122Y331D02*
X124Y331D01*
X127Y331D02*
X129Y331D01*
X225Y331D02*
X226Y331D01*
X234Y331D02*
X236Y331D01*
X240Y331D02*
X241Y331D01*
X249Y331D02*
X251Y331D01*
X255Y331D02*
X261Y331D01*
X269Y331D02*
X270Y331D01*
X279Y331D02*
X285Y331D01*
X85Y330D02*
X91Y330D01*
X113Y330D02*
X115Y330D01*
X122Y330D02*
X124Y330D01*
X127Y330D02*
X129Y330D01*
X225Y330D02*
X226Y330D01*
X235Y330D02*
X236Y330D01*
X240Y330D02*
X241Y330D01*
X249Y330D02*
X251Y330D01*
X255Y330D02*
X261Y330D01*
X268Y330D02*
X270Y330D01*
X279Y330D02*
X285Y330D01*
X85Y329D02*
X91Y329D01*
X113Y329D02*
X115Y329D01*
X122Y329D02*
X124Y329D01*
X127Y329D02*
X129Y329D01*
X225Y329D02*
X226Y329D01*
X235Y329D02*
X236Y329D01*
X240Y329D02*
X241Y329D01*
X249Y329D02*
X251Y329D01*
X255Y329D02*
X257Y329D01*
X268Y329D02*
X270Y329D01*
X279Y329D02*
X285Y329D01*
X85Y328D02*
X91Y328D01*
X113Y328D02*
X115Y328D01*
X122Y328D02*
X124Y328D01*
X127Y328D02*
X129Y328D01*
X225Y328D02*
X226Y328D01*
X235Y328D02*
X236Y328D01*
X240Y328D02*
X241Y328D01*
X249Y328D02*
X251Y328D01*
X255Y328D02*
X257Y328D01*
X268Y328D02*
X270Y328D01*
X278Y328D02*
X285Y328D01*
X85Y327D02*
X91Y327D01*
X113Y327D02*
X115Y327D01*
X122Y327D02*
X124Y327D01*
X127Y327D02*
X129Y327D01*
X225Y327D02*
X226Y327D01*
X235Y327D02*
X236Y327D01*
X240Y327D02*
X241Y327D01*
X249Y327D02*
X251Y327D01*
X255Y327D02*
X257Y327D01*
X268Y327D02*
X270Y327D01*
X277Y327D02*
X285Y327D01*
X85Y326D02*
X91Y326D01*
X113Y326D02*
X115Y326D01*
X122Y326D02*
X124Y326D01*
X127Y326D02*
X129Y326D01*
X225Y326D02*
X226Y326D01*
X234Y326D02*
X236Y326D01*
X240Y326D02*
X241Y326D01*
X249Y326D02*
X251Y326D01*
X255Y326D02*
X257Y326D01*
X267Y326D02*
X269Y326D01*
X276Y326D02*
X285Y326D01*
X85Y325D02*
X91Y325D01*
X113Y325D02*
X115Y325D01*
X122Y325D02*
X132Y325D01*
X225Y325D02*
X226Y325D01*
X234Y325D02*
X236Y325D01*
X240Y325D02*
X241Y325D01*
X249Y325D02*
X251Y325D01*
X255Y325D02*
X257Y325D01*
X266Y325D02*
X269Y325D01*
X275Y325D02*
X285Y325D01*
X85Y324D02*
X91Y324D01*
X113Y324D02*
X114Y324D01*
X123Y324D02*
X131Y324D01*
X225Y324D02*
X228Y324D01*
X233Y324D02*
X235Y324D01*
X240Y324D02*
X241Y324D01*
X249Y324D02*
X251Y324D01*
X255Y324D02*
X257Y324D01*
X265Y324D02*
X268Y324D01*
X274Y324D02*
X285Y324D01*
X85Y323D02*
X91Y323D01*
X225Y323D02*
X235Y323D01*
X240Y323D02*
X241Y323D01*
X249Y323D02*
X251Y323D01*
X255Y323D02*
X267Y323D01*
X273Y323D02*
X285Y323D01*
X85Y322D02*
X91Y322D01*
X225Y322D02*
X226Y322D01*
X228Y322D02*
X234Y322D01*
X240Y322D02*
X241Y322D01*
X249Y322D02*
X251Y322D01*
X257Y322D02*
X266Y322D01*
X272Y322D02*
X277Y322D01*
X279Y322D02*
X285Y322D01*
X85Y321D02*
X91Y321D01*
X279Y321D02*
X285Y321D01*
X85Y320D02*
X91Y320D01*
X279Y320D02*
X285Y320D01*
X85Y319D02*
X91Y319D01*
X279Y319D02*
X285Y319D01*
X85Y318D02*
X91Y318D01*
X279Y318D02*
X285Y318D01*
X85Y317D02*
X91Y317D01*
X279Y317D02*
X285Y317D01*
X85Y316D02*
X91Y316D01*
X279Y316D02*
X285Y316D01*
X85Y315D02*
X91Y315D01*
X279Y315D02*
X285Y315D01*
X85Y314D02*
X91Y314D01*
X279Y314D02*
X285Y314D01*
X85Y313D02*
X91Y313D01*
X279Y313D02*
X285Y313D01*
X85Y312D02*
X91Y312D01*
X279Y312D02*
X285Y312D01*
X85Y311D02*
X91Y311D01*
X279Y311D02*
X285Y311D01*
X85Y310D02*
X91Y310D01*
X279Y310D02*
X285Y310D01*
X85Y309D02*
X91Y309D01*
X279Y309D02*
X285Y309D01*
X85Y308D02*
X91Y308D01*
X279Y308D02*
X285Y308D01*
X85Y307D02*
X91Y307D01*
X279Y307D02*
X285Y307D01*
X85Y306D02*
X91Y306D01*
X279Y306D02*
X285Y306D01*
X85Y305D02*
X91Y305D01*
X279Y305D02*
X285Y305D01*
X85Y304D02*
X91Y304D01*
X279Y304D02*
X285Y304D01*
X85Y303D02*
X91Y303D01*
X279Y303D02*
X285Y303D01*
X85Y302D02*
X91Y302D01*
X279Y302D02*
X285Y302D01*
X85Y301D02*
X91Y301D01*
X279Y301D02*
X285Y301D01*
X85Y300D02*
X91Y300D01*
X279Y300D02*
X285Y300D01*
X85Y299D02*
X91Y299D01*
X279Y299D02*
X285Y299D01*
X85Y298D02*
X91Y298D01*
X279Y298D02*
X285Y298D01*
X85Y297D02*
X91Y297D01*
X279Y297D02*
X285Y297D01*
X85Y296D02*
X91Y296D01*
X279Y296D02*
X285Y296D01*
X85Y295D02*
X91Y295D01*
X279Y295D02*
X285Y295D01*
X85Y294D02*
X91Y294D01*
X279Y294D02*
X285Y294D01*
X85Y293D02*
X91Y293D01*
X279Y293D02*
X285Y293D01*
X85Y292D02*
X91Y292D01*
X279Y292D02*
X285Y292D01*
X85Y291D02*
X91Y291D01*
X279Y291D02*
X285Y291D01*
X85Y290D02*
X91Y290D01*
X279Y290D02*
X285Y290D01*
X85Y289D02*
X91Y289D01*
X279Y289D02*
X285Y289D01*
X85Y288D02*
X91Y288D01*
X279Y288D02*
X285Y288D01*
X85Y287D02*
X91Y287D01*
X279Y287D02*
X285Y287D01*
X85Y286D02*
X97Y286D01*
X149Y286D02*
X227Y286D01*
X278Y286D02*
X285Y286D01*
X85Y285D02*
X97Y285D01*
X149Y285D02*
X227Y285D01*
X278Y285D02*
X285Y285D01*
X85Y284D02*
X97Y284D01*
X149Y284D02*
X227Y284D01*
X278Y284D02*
X285Y284D01*
X85Y283D02*
X97Y283D01*
X149Y283D02*
X227Y283D01*
X278Y283D02*
X285Y283D01*
X85Y282D02*
X97Y282D01*
X149Y282D02*
X227Y282D01*
X278Y282D02*
X285Y282D01*
X85Y281D02*
X97Y281D01*
X149Y281D02*
X227Y281D01*
X278Y281D02*
X285Y281D01*
X85Y280D02*
X97Y280D01*
X149Y280D02*
X227Y280D01*
X278Y280D02*
X285Y280D01*
D02*
G04 End of Silk0*
M02*