; NON-PLATED HOLES START AT T1
; THROUGH (PLATED) HOLES START AT T100
M48
INCH
T1C0.125984
T2C0.165354
T100C0.038000
T101C0.028279
T102C0.027559
T103C0.015748
T104C0.039370
%
T1
X001727Y014404
X001736Y006030
X001727Y009904
X001736Y001530
T2
X012906Y014637
X012909Y001245
X001670Y007991
T100
X012943Y007979
X012943Y002979
X012943Y008979
X012946Y011996
X012943Y005979
X012946Y012996
X012943Y003979
X012943Y004979
X012943Y006979
T101
X009626Y004344
X006596Y004344
X006596Y009335
X006596Y011334
X009626Y009335
X009626Y007342
X006596Y007342
X009626Y011334
T102
X007032Y002654
X007820Y002654
T103
X010282Y005998
X010026Y008467
X011339Y014803
X002665Y012077
X007394Y012673
X010754Y011403
X009931Y003457
X002863Y014036
X009320Y001855
X008549Y005731
T104
X004227Y012904
X004236Y002530
X005236Y005030
X005236Y004030
X005236Y002030
X005227Y013404
X004227Y011904
X004227Y013904
X004227Y010904
X004236Y004530
X005227Y012404
X005236Y003030
X004236Y005530
X005227Y011404
X005227Y010404
X004236Y003530
T00
M30
