G04 MADE WITH FRITZING*
G04 WWW.FRITZING.ORG*
G04 DOUBLE SIDED*
G04 HOLES PLATED*
G04 CONTOUR ON CENTER OF CONTOUR VECTOR*
%ASAXBY*%
%FSLAX23Y23*%
%MOIN*%
%OFA0B0*%
%SFA1.0B1.0*%
%ADD10C,0.008000*%
%ADD11C,0.014878*%
%ADD12C,0.010520*%
%ADD13R,0.001000X0.001000*%
%LNSILK1*%
G90*
G70*
G54D10*
X56Y678D02*
X567Y678D01*
D02*
X56Y678D02*
X56Y78D01*
D02*
X567Y78D02*
X56Y78D01*
D02*
X55Y1515D02*
X566Y1515D01*
D02*
X55Y1515D02*
X55Y915D01*
D02*
X566Y915D02*
X55Y915D01*
D02*
X821Y265D02*
X821Y336D01*
D02*
X821Y336D02*
X861Y336D01*
D02*
X861Y336D02*
X861Y29D01*
D02*
X861Y29D02*
X625Y29D01*
D02*
X625Y29D02*
X625Y336D01*
D02*
X625Y336D02*
X664Y336D01*
D02*
X664Y336D02*
X664Y265D01*
D02*
X735Y1497D02*
X865Y1497D01*
D02*
X865Y1497D02*
X865Y1239D01*
G54D11*
D02*
X609Y1184D02*
X609Y384D01*
G54D12*
D02*
X609Y384D02*
X1013Y384D01*
D02*
X609Y1185D02*
X761Y1185D01*
D02*
X862Y1185D02*
X1013Y1185D01*
G54D13*
X565Y1520D02*
X567Y1520D01*
X563Y1519D02*
X568Y1519D01*
X563Y1518D02*
X569Y1518D01*
X562Y1517D02*
X569Y1517D01*
X562Y1516D02*
X569Y1516D01*
X562Y1515D02*
X569Y1515D01*
X562Y1514D02*
X569Y1514D01*
X562Y1513D02*
X569Y1513D01*
X562Y1512D02*
X569Y1512D01*
X562Y1511D02*
X569Y1511D01*
X562Y1510D02*
X569Y1510D01*
X562Y1509D02*
X569Y1509D01*
X562Y1508D02*
X569Y1508D01*
X562Y1507D02*
X569Y1507D01*
X562Y1506D02*
X569Y1506D01*
X562Y1505D02*
X569Y1505D01*
X562Y1504D02*
X569Y1504D01*
X562Y1503D02*
X569Y1503D01*
X562Y1502D02*
X569Y1502D01*
X734Y1502D02*
X734Y1502D01*
X562Y1501D02*
X569Y1501D01*
X732Y1501D02*
X736Y1501D01*
X562Y1500D02*
X569Y1500D01*
X731Y1500D02*
X737Y1500D01*
X562Y1499D02*
X569Y1499D01*
X731Y1499D02*
X737Y1499D01*
X562Y1498D02*
X569Y1498D01*
X730Y1498D02*
X737Y1498D01*
X562Y1497D02*
X569Y1497D01*
X730Y1497D02*
X737Y1497D01*
X562Y1496D02*
X569Y1496D01*
X730Y1496D02*
X737Y1496D01*
X562Y1495D02*
X569Y1495D01*
X730Y1495D02*
X737Y1495D01*
X562Y1494D02*
X569Y1494D01*
X730Y1494D02*
X737Y1494D01*
X562Y1493D02*
X569Y1493D01*
X730Y1493D02*
X737Y1493D01*
X562Y1492D02*
X569Y1492D01*
X730Y1492D02*
X737Y1492D01*
X562Y1491D02*
X569Y1491D01*
X730Y1491D02*
X737Y1491D01*
X562Y1490D02*
X569Y1490D01*
X730Y1490D02*
X737Y1490D01*
X562Y1489D02*
X569Y1489D01*
X730Y1489D02*
X737Y1489D01*
X562Y1488D02*
X569Y1488D01*
X730Y1488D02*
X737Y1488D01*
X562Y1487D02*
X569Y1487D01*
X730Y1487D02*
X737Y1487D01*
X562Y1486D02*
X569Y1486D01*
X730Y1486D02*
X737Y1486D01*
X562Y1485D02*
X569Y1485D01*
X730Y1485D02*
X737Y1485D01*
X562Y1484D02*
X569Y1484D01*
X730Y1484D02*
X737Y1484D01*
X562Y1483D02*
X569Y1483D01*
X730Y1483D02*
X737Y1483D01*
X562Y1482D02*
X569Y1482D01*
X730Y1482D02*
X737Y1482D01*
X562Y1481D02*
X569Y1481D01*
X730Y1481D02*
X737Y1481D01*
X822Y1481D02*
X823Y1481D01*
X850Y1481D02*
X852Y1481D01*
X562Y1480D02*
X569Y1480D01*
X730Y1480D02*
X737Y1480D01*
X821Y1480D02*
X824Y1480D01*
X849Y1480D02*
X852Y1480D01*
X562Y1479D02*
X569Y1479D01*
X730Y1479D02*
X737Y1479D01*
X821Y1479D02*
X824Y1479D01*
X849Y1479D02*
X853Y1479D01*
X562Y1478D02*
X569Y1478D01*
X730Y1478D02*
X737Y1478D01*
X821Y1478D02*
X824Y1478D01*
X849Y1478D02*
X853Y1478D01*
X562Y1477D02*
X569Y1477D01*
X730Y1477D02*
X737Y1477D01*
X821Y1477D02*
X824Y1477D01*
X849Y1477D02*
X853Y1477D01*
X562Y1476D02*
X569Y1476D01*
X730Y1476D02*
X737Y1476D01*
X821Y1476D02*
X824Y1476D01*
X849Y1476D02*
X853Y1476D01*
X562Y1475D02*
X569Y1475D01*
X730Y1475D02*
X737Y1475D01*
X821Y1475D02*
X824Y1475D01*
X849Y1475D02*
X853Y1475D01*
X562Y1474D02*
X569Y1474D01*
X730Y1474D02*
X737Y1474D01*
X821Y1474D02*
X824Y1474D01*
X849Y1474D02*
X853Y1474D01*
X562Y1473D02*
X569Y1473D01*
X730Y1473D02*
X737Y1473D01*
X821Y1473D02*
X853Y1473D01*
X562Y1472D02*
X569Y1472D01*
X730Y1472D02*
X737Y1472D01*
X821Y1472D02*
X853Y1472D01*
X562Y1471D02*
X569Y1471D01*
X730Y1471D02*
X737Y1471D01*
X821Y1471D02*
X853Y1471D01*
X562Y1470D02*
X569Y1470D01*
X730Y1470D02*
X737Y1470D01*
X821Y1470D02*
X853Y1470D01*
X562Y1469D02*
X569Y1469D01*
X730Y1469D02*
X737Y1469D01*
X821Y1469D02*
X852Y1469D01*
X562Y1468D02*
X569Y1468D01*
X730Y1468D02*
X737Y1468D01*
X821Y1468D02*
X824Y1468D01*
X562Y1467D02*
X569Y1467D01*
X730Y1467D02*
X737Y1467D01*
X821Y1467D02*
X824Y1467D01*
X562Y1466D02*
X569Y1466D01*
X730Y1466D02*
X737Y1466D01*
X821Y1466D02*
X824Y1466D01*
X562Y1465D02*
X569Y1465D01*
X730Y1465D02*
X737Y1465D01*
X821Y1465D02*
X825Y1465D01*
X562Y1464D02*
X569Y1464D01*
X730Y1464D02*
X737Y1464D01*
X821Y1464D02*
X834Y1464D01*
X562Y1463D02*
X569Y1463D01*
X730Y1463D02*
X737Y1463D01*
X821Y1463D02*
X835Y1463D01*
X562Y1462D02*
X569Y1462D01*
X730Y1462D02*
X737Y1462D01*
X821Y1462D02*
X835Y1462D01*
X562Y1461D02*
X569Y1461D01*
X730Y1461D02*
X737Y1461D01*
X822Y1461D02*
X834Y1461D01*
X562Y1460D02*
X569Y1460D01*
X730Y1460D02*
X737Y1460D01*
X562Y1459D02*
X569Y1459D01*
X730Y1459D02*
X737Y1459D01*
X562Y1458D02*
X569Y1458D01*
X730Y1458D02*
X737Y1458D01*
X562Y1457D02*
X569Y1457D01*
X730Y1457D02*
X737Y1457D01*
X562Y1456D02*
X569Y1456D01*
X730Y1456D02*
X737Y1456D01*
X562Y1455D02*
X569Y1455D01*
X730Y1455D02*
X737Y1455D01*
X562Y1454D02*
X569Y1454D01*
X730Y1454D02*
X737Y1454D01*
X562Y1453D02*
X569Y1453D01*
X730Y1453D02*
X737Y1453D01*
X562Y1452D02*
X569Y1452D01*
X730Y1452D02*
X737Y1452D01*
X562Y1451D02*
X569Y1451D01*
X730Y1451D02*
X737Y1451D01*
X822Y1451D02*
X823Y1451D01*
X850Y1451D02*
X852Y1451D01*
X562Y1450D02*
X569Y1450D01*
X730Y1450D02*
X737Y1450D01*
X821Y1450D02*
X824Y1450D01*
X849Y1450D02*
X852Y1450D01*
X562Y1449D02*
X569Y1449D01*
X730Y1449D02*
X737Y1449D01*
X821Y1449D02*
X824Y1449D01*
X849Y1449D02*
X853Y1449D01*
X562Y1448D02*
X569Y1448D01*
X730Y1448D02*
X737Y1448D01*
X821Y1448D02*
X824Y1448D01*
X849Y1448D02*
X853Y1448D01*
X562Y1447D02*
X569Y1447D01*
X730Y1447D02*
X737Y1447D01*
X821Y1447D02*
X824Y1447D01*
X849Y1447D02*
X853Y1447D01*
X562Y1446D02*
X569Y1446D01*
X730Y1446D02*
X737Y1446D01*
X821Y1446D02*
X824Y1446D01*
X849Y1446D02*
X853Y1446D01*
X562Y1445D02*
X569Y1445D01*
X730Y1445D02*
X737Y1445D01*
X821Y1445D02*
X824Y1445D01*
X849Y1445D02*
X853Y1445D01*
X562Y1444D02*
X569Y1444D01*
X730Y1444D02*
X737Y1444D01*
X821Y1444D02*
X824Y1444D01*
X849Y1444D02*
X853Y1444D01*
X562Y1443D02*
X569Y1443D01*
X730Y1443D02*
X737Y1443D01*
X821Y1443D02*
X853Y1443D01*
X562Y1442D02*
X569Y1442D01*
X730Y1442D02*
X737Y1442D01*
X821Y1442D02*
X853Y1442D01*
X562Y1441D02*
X569Y1441D01*
X730Y1441D02*
X737Y1441D01*
X821Y1441D02*
X853Y1441D01*
X562Y1440D02*
X569Y1440D01*
X730Y1440D02*
X737Y1440D01*
X821Y1440D02*
X853Y1440D01*
X562Y1439D02*
X569Y1439D01*
X730Y1439D02*
X737Y1439D01*
X821Y1439D02*
X852Y1439D01*
X562Y1438D02*
X569Y1438D01*
X730Y1438D02*
X737Y1438D01*
X821Y1438D02*
X824Y1438D01*
X562Y1437D02*
X569Y1437D01*
X730Y1437D02*
X737Y1437D01*
X821Y1437D02*
X824Y1437D01*
X562Y1436D02*
X569Y1436D01*
X730Y1436D02*
X737Y1436D01*
X821Y1436D02*
X824Y1436D01*
X562Y1435D02*
X569Y1435D01*
X730Y1435D02*
X737Y1435D01*
X821Y1435D02*
X825Y1435D01*
X562Y1434D02*
X569Y1434D01*
X730Y1434D02*
X737Y1434D01*
X821Y1434D02*
X834Y1434D01*
X562Y1433D02*
X569Y1433D01*
X730Y1433D02*
X737Y1433D01*
X821Y1433D02*
X835Y1433D01*
X562Y1432D02*
X569Y1432D01*
X730Y1432D02*
X737Y1432D01*
X821Y1432D02*
X835Y1432D01*
X562Y1431D02*
X569Y1431D01*
X730Y1431D02*
X737Y1431D01*
X822Y1431D02*
X834Y1431D01*
X562Y1430D02*
X569Y1430D01*
X730Y1430D02*
X737Y1430D01*
X562Y1429D02*
X569Y1429D01*
X730Y1429D02*
X737Y1429D01*
X562Y1428D02*
X569Y1428D01*
X730Y1428D02*
X737Y1428D01*
X562Y1427D02*
X569Y1427D01*
X730Y1427D02*
X737Y1427D01*
X562Y1426D02*
X569Y1426D01*
X730Y1426D02*
X737Y1426D01*
X562Y1425D02*
X569Y1425D01*
X730Y1425D02*
X737Y1425D01*
X562Y1424D02*
X569Y1424D01*
X730Y1424D02*
X737Y1424D01*
X562Y1423D02*
X569Y1423D01*
X730Y1423D02*
X737Y1423D01*
X562Y1422D02*
X569Y1422D01*
X730Y1422D02*
X737Y1422D01*
X562Y1421D02*
X569Y1421D01*
X730Y1421D02*
X737Y1421D01*
X822Y1421D02*
X823Y1421D01*
X850Y1421D02*
X852Y1421D01*
X562Y1420D02*
X569Y1420D01*
X730Y1420D02*
X737Y1420D01*
X821Y1420D02*
X824Y1420D01*
X849Y1420D02*
X852Y1420D01*
X562Y1419D02*
X569Y1419D01*
X730Y1419D02*
X737Y1419D01*
X821Y1419D02*
X824Y1419D01*
X849Y1419D02*
X853Y1419D01*
X562Y1418D02*
X569Y1418D01*
X730Y1418D02*
X737Y1418D01*
X821Y1418D02*
X824Y1418D01*
X849Y1418D02*
X853Y1418D01*
X562Y1417D02*
X569Y1417D01*
X730Y1417D02*
X737Y1417D01*
X821Y1417D02*
X824Y1417D01*
X849Y1417D02*
X853Y1417D01*
X562Y1416D02*
X569Y1416D01*
X730Y1416D02*
X737Y1416D01*
X821Y1416D02*
X824Y1416D01*
X849Y1416D02*
X853Y1416D01*
X562Y1415D02*
X569Y1415D01*
X730Y1415D02*
X737Y1415D01*
X821Y1415D02*
X824Y1415D01*
X849Y1415D02*
X853Y1415D01*
X562Y1414D02*
X569Y1414D01*
X730Y1414D02*
X737Y1414D01*
X821Y1414D02*
X824Y1414D01*
X849Y1414D02*
X853Y1414D01*
X562Y1413D02*
X569Y1413D01*
X730Y1413D02*
X737Y1413D01*
X821Y1413D02*
X853Y1413D01*
X562Y1412D02*
X569Y1412D01*
X730Y1412D02*
X737Y1412D01*
X821Y1412D02*
X853Y1412D01*
X562Y1411D02*
X569Y1411D01*
X730Y1411D02*
X737Y1411D01*
X821Y1411D02*
X853Y1411D01*
X562Y1410D02*
X569Y1410D01*
X730Y1410D02*
X737Y1410D01*
X821Y1410D02*
X853Y1410D01*
X562Y1409D02*
X569Y1409D01*
X730Y1409D02*
X737Y1409D01*
X821Y1409D02*
X852Y1409D01*
X562Y1408D02*
X569Y1408D01*
X730Y1408D02*
X737Y1408D01*
X821Y1408D02*
X824Y1408D01*
X562Y1407D02*
X569Y1407D01*
X730Y1407D02*
X737Y1407D01*
X821Y1407D02*
X824Y1407D01*
X562Y1406D02*
X569Y1406D01*
X730Y1406D02*
X737Y1406D01*
X821Y1406D02*
X824Y1406D01*
X562Y1405D02*
X569Y1405D01*
X730Y1405D02*
X737Y1405D01*
X821Y1405D02*
X825Y1405D01*
X562Y1404D02*
X569Y1404D01*
X730Y1404D02*
X737Y1404D01*
X821Y1404D02*
X834Y1404D01*
X562Y1403D02*
X569Y1403D01*
X730Y1403D02*
X737Y1403D01*
X821Y1403D02*
X835Y1403D01*
X562Y1402D02*
X569Y1402D01*
X730Y1402D02*
X737Y1402D01*
X821Y1402D02*
X835Y1402D01*
X562Y1401D02*
X569Y1401D01*
X730Y1401D02*
X737Y1401D01*
X822Y1401D02*
X834Y1401D01*
X562Y1400D02*
X569Y1400D01*
X730Y1400D02*
X737Y1400D01*
X562Y1399D02*
X569Y1399D01*
X730Y1399D02*
X737Y1399D01*
X562Y1398D02*
X569Y1398D01*
X730Y1398D02*
X737Y1398D01*
X562Y1397D02*
X569Y1397D01*
X730Y1397D02*
X737Y1397D01*
X562Y1396D02*
X569Y1396D01*
X730Y1396D02*
X737Y1396D01*
X562Y1395D02*
X569Y1395D01*
X730Y1395D02*
X737Y1395D01*
X562Y1394D02*
X569Y1394D01*
X730Y1394D02*
X737Y1394D01*
X562Y1393D02*
X569Y1393D01*
X730Y1393D02*
X737Y1393D01*
X562Y1392D02*
X569Y1392D01*
X730Y1392D02*
X737Y1392D01*
X562Y1391D02*
X569Y1391D01*
X730Y1391D02*
X737Y1391D01*
X848Y1391D02*
X852Y1391D01*
X562Y1390D02*
X569Y1390D01*
X730Y1390D02*
X737Y1390D01*
X848Y1390D02*
X852Y1390D01*
X562Y1389D02*
X569Y1389D01*
X730Y1389D02*
X737Y1389D01*
X848Y1389D02*
X853Y1389D01*
X562Y1388D02*
X569Y1388D01*
X730Y1388D02*
X737Y1388D01*
X848Y1388D02*
X853Y1388D01*
X562Y1387D02*
X569Y1387D01*
X730Y1387D02*
X737Y1387D01*
X849Y1387D02*
X853Y1387D01*
X562Y1386D02*
X569Y1386D01*
X730Y1386D02*
X737Y1386D01*
X849Y1386D02*
X853Y1386D01*
X562Y1385D02*
X569Y1385D01*
X730Y1385D02*
X737Y1385D01*
X849Y1385D02*
X853Y1385D01*
X562Y1384D02*
X569Y1384D01*
X730Y1384D02*
X737Y1384D01*
X849Y1384D02*
X853Y1384D01*
X562Y1383D02*
X569Y1383D01*
X730Y1383D02*
X737Y1383D01*
X822Y1383D02*
X833Y1383D01*
X849Y1383D02*
X853Y1383D01*
X562Y1382D02*
X569Y1382D01*
X730Y1382D02*
X737Y1382D01*
X821Y1382D02*
X835Y1382D01*
X849Y1382D02*
X853Y1382D01*
X562Y1381D02*
X569Y1381D01*
X730Y1381D02*
X737Y1381D01*
X821Y1381D02*
X836Y1381D01*
X849Y1381D02*
X853Y1381D01*
X562Y1380D02*
X569Y1380D01*
X730Y1380D02*
X737Y1380D01*
X821Y1380D02*
X836Y1380D01*
X849Y1380D02*
X853Y1380D01*
X562Y1379D02*
X569Y1379D01*
X730Y1379D02*
X737Y1379D01*
X823Y1379D02*
X837Y1379D01*
X849Y1379D02*
X853Y1379D01*
X562Y1378D02*
X569Y1378D01*
X730Y1378D02*
X737Y1378D01*
X834Y1378D02*
X838Y1378D01*
X849Y1378D02*
X853Y1378D01*
X562Y1377D02*
X569Y1377D01*
X730Y1377D02*
X737Y1377D01*
X834Y1377D02*
X839Y1377D01*
X849Y1377D02*
X853Y1377D01*
X562Y1376D02*
X569Y1376D01*
X730Y1376D02*
X737Y1376D01*
X835Y1376D02*
X840Y1376D01*
X849Y1376D02*
X853Y1376D01*
X562Y1375D02*
X569Y1375D01*
X730Y1375D02*
X737Y1375D01*
X836Y1375D02*
X841Y1375D01*
X849Y1375D02*
X853Y1375D01*
X562Y1374D02*
X569Y1374D01*
X730Y1374D02*
X737Y1374D01*
X837Y1374D02*
X853Y1374D01*
X562Y1373D02*
X569Y1373D01*
X730Y1373D02*
X737Y1373D01*
X838Y1373D02*
X853Y1373D01*
X562Y1372D02*
X569Y1372D01*
X730Y1372D02*
X737Y1372D01*
X839Y1372D02*
X853Y1372D01*
X562Y1371D02*
X569Y1371D01*
X730Y1371D02*
X737Y1371D01*
X840Y1371D02*
X852Y1371D01*
X562Y1370D02*
X569Y1370D01*
X730Y1370D02*
X737Y1370D01*
X562Y1369D02*
X569Y1369D01*
X730Y1369D02*
X737Y1369D01*
X562Y1368D02*
X569Y1368D01*
X730Y1368D02*
X737Y1368D01*
X562Y1367D02*
X569Y1367D01*
X730Y1367D02*
X737Y1367D01*
X562Y1366D02*
X569Y1366D01*
X730Y1366D02*
X737Y1366D01*
X562Y1365D02*
X569Y1365D01*
X730Y1365D02*
X737Y1365D01*
X562Y1364D02*
X569Y1364D01*
X730Y1364D02*
X737Y1364D01*
X562Y1363D02*
X569Y1363D01*
X730Y1363D02*
X737Y1363D01*
X562Y1362D02*
X569Y1362D01*
X730Y1362D02*
X737Y1362D01*
X562Y1361D02*
X569Y1361D01*
X730Y1361D02*
X737Y1361D01*
X562Y1360D02*
X569Y1360D01*
X730Y1360D02*
X737Y1360D01*
X562Y1359D02*
X569Y1359D01*
X730Y1359D02*
X737Y1359D01*
X562Y1358D02*
X569Y1358D01*
X730Y1358D02*
X737Y1358D01*
X562Y1357D02*
X569Y1357D01*
X730Y1357D02*
X737Y1357D01*
X562Y1356D02*
X569Y1356D01*
X730Y1356D02*
X737Y1356D01*
X562Y1355D02*
X569Y1355D01*
X730Y1355D02*
X737Y1355D01*
X562Y1354D02*
X569Y1354D01*
X730Y1354D02*
X737Y1354D01*
X563Y1353D02*
X569Y1353D01*
X730Y1353D02*
X737Y1353D01*
X563Y1352D02*
X569Y1352D01*
X730Y1352D02*
X737Y1352D01*
X563Y1351D02*
X569Y1351D01*
X730Y1351D02*
X737Y1351D01*
X563Y1350D02*
X569Y1350D01*
X730Y1350D02*
X737Y1350D01*
X564Y1349D02*
X569Y1349D01*
X730Y1349D02*
X737Y1349D01*
X564Y1348D02*
X569Y1348D01*
X730Y1348D02*
X737Y1348D01*
X564Y1347D02*
X569Y1347D01*
X730Y1347D02*
X737Y1347D01*
X564Y1346D02*
X569Y1346D01*
X730Y1346D02*
X737Y1346D01*
X564Y1345D02*
X569Y1345D01*
X730Y1345D02*
X737Y1345D01*
X564Y1344D02*
X569Y1344D01*
X730Y1344D02*
X737Y1344D01*
X564Y1343D02*
X569Y1343D01*
X730Y1343D02*
X737Y1343D01*
X564Y1342D02*
X569Y1342D01*
X730Y1342D02*
X737Y1342D01*
X564Y1341D02*
X569Y1341D01*
X730Y1341D02*
X737Y1341D01*
X564Y1340D02*
X569Y1340D01*
X730Y1340D02*
X737Y1340D01*
X564Y1339D02*
X569Y1339D01*
X730Y1339D02*
X737Y1339D01*
X564Y1338D02*
X569Y1338D01*
X730Y1338D02*
X737Y1338D01*
X1347Y1338D02*
X1349Y1338D01*
X1369Y1338D02*
X1371Y1338D01*
X564Y1337D02*
X569Y1337D01*
X730Y1337D02*
X737Y1337D01*
X1347Y1337D02*
X1349Y1337D01*
X1369Y1337D02*
X1371Y1337D01*
X564Y1336D02*
X569Y1336D01*
X730Y1336D02*
X737Y1336D01*
X1347Y1336D02*
X1349Y1336D01*
X1369Y1336D02*
X1371Y1336D01*
X564Y1335D02*
X569Y1335D01*
X730Y1335D02*
X737Y1335D01*
X1347Y1335D02*
X1349Y1335D01*
X1369Y1335D02*
X1371Y1335D01*
X564Y1334D02*
X569Y1334D01*
X730Y1334D02*
X737Y1334D01*
X1347Y1334D02*
X1371Y1334D01*
X563Y1333D02*
X569Y1333D01*
X730Y1333D02*
X737Y1333D01*
X1347Y1333D02*
X1371Y1333D01*
X563Y1332D02*
X569Y1332D01*
X730Y1332D02*
X737Y1332D01*
X1347Y1332D02*
X1371Y1332D01*
X563Y1331D02*
X569Y1331D01*
X730Y1331D02*
X737Y1331D01*
X1347Y1331D02*
X1369Y1331D01*
X563Y1330D02*
X569Y1330D01*
X730Y1330D02*
X737Y1330D01*
X1347Y1330D02*
X1349Y1330D01*
X562Y1329D02*
X569Y1329D01*
X730Y1329D02*
X737Y1329D01*
X1347Y1329D02*
X1349Y1329D01*
X562Y1328D02*
X569Y1328D01*
X730Y1328D02*
X737Y1328D01*
X1347Y1328D02*
X1349Y1328D01*
X562Y1327D02*
X569Y1327D01*
X730Y1327D02*
X737Y1327D01*
X1347Y1327D02*
X1349Y1327D01*
X562Y1326D02*
X569Y1326D01*
X730Y1326D02*
X737Y1326D01*
X562Y1325D02*
X569Y1325D01*
X730Y1325D02*
X737Y1325D01*
X562Y1324D02*
X569Y1324D01*
X730Y1324D02*
X737Y1324D01*
X562Y1323D02*
X569Y1323D01*
X730Y1323D02*
X737Y1323D01*
X562Y1322D02*
X569Y1322D01*
X730Y1322D02*
X737Y1322D01*
X562Y1321D02*
X569Y1321D01*
X730Y1321D02*
X737Y1321D01*
X562Y1320D02*
X569Y1320D01*
X730Y1320D02*
X737Y1320D01*
X562Y1319D02*
X569Y1319D01*
X730Y1319D02*
X737Y1319D01*
X562Y1318D02*
X569Y1318D01*
X730Y1318D02*
X737Y1318D01*
X562Y1317D02*
X569Y1317D01*
X730Y1317D02*
X737Y1317D01*
X1349Y1317D02*
X1350Y1317D01*
X562Y1316D02*
X569Y1316D01*
X730Y1316D02*
X737Y1316D01*
X1348Y1316D02*
X1350Y1316D01*
X1358Y1316D02*
X1362Y1316D01*
X562Y1315D02*
X569Y1315D01*
X730Y1315D02*
X737Y1315D01*
X1347Y1315D02*
X1350Y1315D01*
X1357Y1315D02*
X1363Y1315D01*
X562Y1314D02*
X569Y1314D01*
X730Y1314D02*
X737Y1314D01*
X1347Y1314D02*
X1349Y1314D01*
X1357Y1314D02*
X1364Y1314D01*
X562Y1313D02*
X569Y1313D01*
X730Y1313D02*
X737Y1313D01*
X1347Y1313D02*
X1349Y1313D01*
X1356Y1313D02*
X1359Y1313D01*
X1362Y1313D02*
X1364Y1313D01*
X562Y1312D02*
X569Y1312D01*
X730Y1312D02*
X737Y1312D01*
X1347Y1312D02*
X1349Y1312D01*
X1356Y1312D02*
X1358Y1312D01*
X1362Y1312D02*
X1364Y1312D01*
X562Y1311D02*
X569Y1311D01*
X730Y1311D02*
X737Y1311D01*
X1347Y1311D02*
X1349Y1311D01*
X1355Y1311D02*
X1358Y1311D01*
X1362Y1311D02*
X1364Y1311D01*
X562Y1310D02*
X569Y1310D01*
X730Y1310D02*
X737Y1310D01*
X1347Y1310D02*
X1349Y1310D01*
X1355Y1310D02*
X1358Y1310D01*
X1362Y1310D02*
X1364Y1310D01*
X562Y1309D02*
X569Y1309D01*
X730Y1309D02*
X737Y1309D01*
X1347Y1309D02*
X1349Y1309D01*
X1355Y1309D02*
X1357Y1309D01*
X1362Y1309D02*
X1364Y1309D01*
X562Y1308D02*
X569Y1308D01*
X730Y1308D02*
X737Y1308D01*
X1347Y1308D02*
X1349Y1308D01*
X1354Y1308D02*
X1357Y1308D01*
X1362Y1308D02*
X1364Y1308D01*
X562Y1307D02*
X569Y1307D01*
X730Y1307D02*
X737Y1307D01*
X1347Y1307D02*
X1349Y1307D01*
X1354Y1307D02*
X1356Y1307D01*
X1362Y1307D02*
X1364Y1307D01*
X562Y1306D02*
X569Y1306D01*
X730Y1306D02*
X737Y1306D01*
X1347Y1306D02*
X1349Y1306D01*
X1353Y1306D02*
X1356Y1306D01*
X1362Y1306D02*
X1364Y1306D01*
X562Y1305D02*
X569Y1305D01*
X730Y1305D02*
X737Y1305D01*
X1347Y1305D02*
X1350Y1305D01*
X1352Y1305D02*
X1355Y1305D01*
X1361Y1305D02*
X1364Y1305D01*
X562Y1304D02*
X569Y1304D01*
X730Y1304D02*
X737Y1304D01*
X1347Y1304D02*
X1355Y1304D01*
X1361Y1304D02*
X1364Y1304D01*
X562Y1303D02*
X569Y1303D01*
X730Y1303D02*
X737Y1303D01*
X1348Y1303D02*
X1354Y1303D01*
X1360Y1303D02*
X1363Y1303D01*
X562Y1302D02*
X569Y1302D01*
X730Y1302D02*
X737Y1302D01*
X1349Y1302D02*
X1353Y1302D01*
X1361Y1302D02*
X1362Y1302D01*
X562Y1301D02*
X569Y1301D01*
X730Y1301D02*
X737Y1301D01*
X562Y1300D02*
X569Y1300D01*
X730Y1300D02*
X737Y1300D01*
X562Y1299D02*
X569Y1299D01*
X730Y1299D02*
X737Y1299D01*
X562Y1298D02*
X569Y1298D01*
X730Y1298D02*
X737Y1298D01*
X562Y1297D02*
X569Y1297D01*
X730Y1297D02*
X737Y1297D01*
X562Y1296D02*
X569Y1296D01*
X730Y1296D02*
X737Y1296D01*
X562Y1295D02*
X569Y1295D01*
X730Y1295D02*
X737Y1295D01*
X562Y1294D02*
X569Y1294D01*
X730Y1294D02*
X737Y1294D01*
X1349Y1294D02*
X1349Y1294D01*
X562Y1293D02*
X569Y1293D01*
X730Y1293D02*
X737Y1293D01*
X1348Y1293D02*
X1350Y1293D01*
X1359Y1293D02*
X1362Y1293D01*
X562Y1292D02*
X569Y1292D01*
X730Y1292D02*
X732Y1292D01*
X1347Y1292D02*
X1350Y1292D01*
X1357Y1292D02*
X1363Y1292D01*
X562Y1291D02*
X569Y1291D01*
X1347Y1291D02*
X1350Y1291D01*
X1357Y1291D02*
X1364Y1291D01*
X562Y1290D02*
X569Y1290D01*
X1347Y1290D02*
X1349Y1290D01*
X1356Y1290D02*
X1359Y1290D01*
X1361Y1290D02*
X1364Y1290D01*
X562Y1289D02*
X569Y1289D01*
X1347Y1289D02*
X1349Y1289D01*
X1356Y1289D02*
X1359Y1289D01*
X1362Y1289D02*
X1364Y1289D01*
X562Y1288D02*
X569Y1288D01*
X1347Y1288D02*
X1349Y1288D01*
X1356Y1288D02*
X1358Y1288D01*
X1362Y1288D02*
X1364Y1288D01*
X562Y1287D02*
X569Y1287D01*
X1347Y1287D02*
X1349Y1287D01*
X1355Y1287D02*
X1358Y1287D01*
X1362Y1287D02*
X1364Y1287D01*
X562Y1286D02*
X569Y1286D01*
X1347Y1286D02*
X1349Y1286D01*
X1355Y1286D02*
X1357Y1286D01*
X1362Y1286D02*
X1364Y1286D01*
X562Y1285D02*
X569Y1285D01*
X1347Y1285D02*
X1349Y1285D01*
X1354Y1285D02*
X1357Y1285D01*
X1362Y1285D02*
X1364Y1285D01*
X562Y1284D02*
X569Y1284D01*
X1347Y1284D02*
X1349Y1284D01*
X1354Y1284D02*
X1356Y1284D01*
X1362Y1284D02*
X1364Y1284D01*
X562Y1283D02*
X569Y1283D01*
X1347Y1283D02*
X1349Y1283D01*
X1353Y1283D02*
X1356Y1283D01*
X1362Y1283D02*
X1364Y1283D01*
X562Y1282D02*
X569Y1282D01*
X1347Y1282D02*
X1349Y1282D01*
X1353Y1282D02*
X1356Y1282D01*
X1361Y1282D02*
X1364Y1282D01*
X562Y1281D02*
X569Y1281D01*
X1347Y1281D02*
X1355Y1281D01*
X1361Y1281D02*
X1364Y1281D01*
X562Y1280D02*
X569Y1280D01*
X1348Y1280D02*
X1354Y1280D01*
X1360Y1280D02*
X1363Y1280D01*
X562Y1279D02*
X569Y1279D01*
X1349Y1279D02*
X1353Y1279D01*
X1361Y1279D02*
X1362Y1279D01*
X562Y1278D02*
X569Y1278D01*
X294Y1277D02*
X343Y1277D01*
X562Y1277D02*
X569Y1277D01*
X292Y1276D02*
X344Y1276D01*
X562Y1276D02*
X569Y1276D01*
X292Y1275D02*
X344Y1275D01*
X562Y1275D02*
X569Y1275D01*
X292Y1274D02*
X345Y1274D01*
X562Y1274D02*
X569Y1274D01*
X292Y1273D02*
X345Y1273D01*
X562Y1273D02*
X569Y1273D01*
X292Y1272D02*
X344Y1272D01*
X562Y1272D02*
X569Y1272D01*
X293Y1271D02*
X343Y1271D01*
X562Y1271D02*
X569Y1271D01*
X296Y1270D02*
X305Y1270D01*
X317Y1270D02*
X326Y1270D01*
X562Y1270D02*
X569Y1270D01*
X295Y1269D02*
X303Y1269D01*
X318Y1269D02*
X327Y1269D01*
X562Y1269D02*
X569Y1269D01*
X294Y1268D02*
X303Y1268D01*
X319Y1268D02*
X327Y1268D01*
X562Y1268D02*
X569Y1268D01*
X293Y1267D02*
X302Y1267D01*
X320Y1267D02*
X328Y1267D01*
X562Y1267D02*
X569Y1267D01*
X293Y1266D02*
X301Y1266D01*
X321Y1266D02*
X329Y1266D01*
X562Y1266D02*
X569Y1266D01*
X292Y1265D02*
X300Y1265D01*
X322Y1265D02*
X329Y1265D01*
X562Y1265D02*
X569Y1265D01*
X292Y1264D02*
X299Y1264D01*
X322Y1264D02*
X329Y1264D01*
X562Y1264D02*
X569Y1264D01*
X292Y1263D02*
X298Y1263D01*
X323Y1263D02*
X330Y1263D01*
X562Y1263D02*
X569Y1263D01*
X292Y1262D02*
X298Y1262D01*
X324Y1262D02*
X330Y1262D01*
X562Y1262D02*
X569Y1262D01*
X292Y1261D02*
X298Y1261D01*
X324Y1261D02*
X330Y1261D01*
X562Y1261D02*
X569Y1261D01*
X292Y1260D02*
X298Y1260D01*
X324Y1260D02*
X330Y1260D01*
X562Y1260D02*
X569Y1260D01*
X292Y1259D02*
X298Y1259D01*
X324Y1259D02*
X330Y1259D01*
X562Y1259D02*
X569Y1259D01*
X292Y1258D02*
X298Y1258D01*
X324Y1258D02*
X330Y1258D01*
X562Y1258D02*
X569Y1258D01*
X292Y1257D02*
X298Y1257D01*
X324Y1257D02*
X330Y1257D01*
X562Y1257D02*
X569Y1257D01*
X292Y1256D02*
X298Y1256D01*
X324Y1256D02*
X330Y1256D01*
X562Y1256D02*
X569Y1256D01*
X292Y1255D02*
X298Y1255D01*
X324Y1255D02*
X330Y1255D01*
X562Y1255D02*
X569Y1255D01*
X292Y1254D02*
X298Y1254D01*
X323Y1254D02*
X330Y1254D01*
X562Y1254D02*
X569Y1254D01*
X292Y1253D02*
X299Y1253D01*
X323Y1253D02*
X330Y1253D01*
X563Y1253D02*
X569Y1253D01*
X292Y1252D02*
X300Y1252D01*
X322Y1252D02*
X329Y1252D01*
X563Y1252D02*
X569Y1252D01*
X293Y1251D02*
X301Y1251D01*
X321Y1251D02*
X329Y1251D01*
X563Y1251D02*
X569Y1251D01*
X293Y1250D02*
X302Y1250D01*
X320Y1250D02*
X328Y1250D01*
X563Y1250D02*
X569Y1250D01*
X294Y1249D02*
X327Y1249D01*
X564Y1249D02*
X569Y1249D01*
X295Y1248D02*
X327Y1248D01*
X564Y1248D02*
X569Y1248D01*
X296Y1247D02*
X326Y1247D01*
X564Y1247D02*
X569Y1247D01*
X297Y1246D02*
X325Y1246D01*
X564Y1246D02*
X569Y1246D01*
X298Y1245D02*
X324Y1245D01*
X564Y1245D02*
X569Y1245D01*
X730Y1245D02*
X731Y1245D01*
X299Y1244D02*
X322Y1244D01*
X564Y1244D02*
X569Y1244D01*
X730Y1244D02*
X735Y1244D01*
X742Y1244D02*
X864Y1244D01*
X302Y1243D02*
X320Y1243D01*
X564Y1243D02*
X569Y1243D01*
X730Y1243D02*
X866Y1243D01*
X564Y1242D02*
X569Y1242D01*
X730Y1242D02*
X867Y1242D01*
X564Y1241D02*
X569Y1241D01*
X730Y1241D02*
X867Y1241D01*
X564Y1240D02*
X569Y1240D01*
X730Y1240D02*
X867Y1240D01*
X564Y1239D02*
X569Y1239D01*
X731Y1239D02*
X867Y1239D01*
X564Y1238D02*
X569Y1238D01*
X731Y1238D02*
X867Y1238D01*
X564Y1237D02*
X569Y1237D01*
X732Y1237D02*
X866Y1237D01*
X564Y1236D02*
X569Y1236D01*
X564Y1235D02*
X569Y1235D01*
X564Y1234D02*
X569Y1234D01*
X563Y1233D02*
X569Y1233D01*
X563Y1232D02*
X569Y1232D01*
X563Y1231D02*
X569Y1231D01*
X563Y1230D02*
X569Y1230D01*
X562Y1229D02*
X569Y1229D01*
X562Y1228D02*
X569Y1228D01*
X317Y1227D02*
X328Y1227D01*
X562Y1227D02*
X569Y1227D01*
X1349Y1227D02*
X1360Y1227D01*
X299Y1226D02*
X329Y1226D01*
X562Y1226D02*
X569Y1226D01*
X1348Y1226D02*
X1361Y1226D01*
X297Y1225D02*
X330Y1225D01*
X562Y1225D02*
X569Y1225D01*
X1347Y1225D02*
X1362Y1225D01*
X295Y1224D02*
X330Y1224D01*
X562Y1224D02*
X569Y1224D01*
X1346Y1224D02*
X1350Y1224D01*
X1360Y1224D02*
X1363Y1224D01*
X294Y1223D02*
X330Y1223D01*
X562Y1223D02*
X569Y1223D01*
X1346Y1223D02*
X1349Y1223D01*
X1361Y1223D02*
X1363Y1223D01*
X293Y1222D02*
X329Y1222D01*
X562Y1222D02*
X569Y1222D01*
X1346Y1222D02*
X1348Y1222D01*
X1361Y1222D02*
X1363Y1222D01*
X293Y1221D02*
X328Y1221D01*
X562Y1221D02*
X569Y1221D01*
X1346Y1221D02*
X1348Y1221D01*
X1361Y1221D02*
X1363Y1221D01*
X292Y1220D02*
X315Y1220D01*
X562Y1220D02*
X569Y1220D01*
X1346Y1220D02*
X1348Y1220D01*
X1361Y1220D02*
X1363Y1220D01*
X292Y1219D02*
X299Y1219D01*
X562Y1219D02*
X569Y1219D01*
X1346Y1219D02*
X1348Y1219D01*
X1361Y1219D02*
X1363Y1219D01*
X292Y1218D02*
X298Y1218D01*
X562Y1218D02*
X569Y1218D01*
X1346Y1218D02*
X1348Y1218D01*
X1361Y1218D02*
X1363Y1218D01*
X292Y1217D02*
X298Y1217D01*
X562Y1217D02*
X569Y1217D01*
X1346Y1217D02*
X1349Y1217D01*
X1361Y1217D02*
X1363Y1217D01*
X292Y1216D02*
X298Y1216D01*
X562Y1216D02*
X569Y1216D01*
X1346Y1216D02*
X1349Y1216D01*
X1360Y1216D02*
X1363Y1216D01*
X292Y1215D02*
X298Y1215D01*
X562Y1215D02*
X569Y1215D01*
X1347Y1215D02*
X1362Y1215D01*
X292Y1214D02*
X298Y1214D01*
X562Y1214D02*
X569Y1214D01*
X1348Y1214D02*
X1362Y1214D01*
X292Y1213D02*
X298Y1213D01*
X562Y1213D02*
X569Y1213D01*
X1349Y1213D02*
X1361Y1213D01*
X292Y1212D02*
X298Y1212D01*
X562Y1212D02*
X569Y1212D01*
X1350Y1212D02*
X1359Y1212D01*
X292Y1211D02*
X298Y1211D01*
X562Y1211D02*
X569Y1211D01*
X292Y1210D02*
X298Y1210D01*
X562Y1210D02*
X569Y1210D01*
X292Y1209D02*
X299Y1209D01*
X562Y1209D02*
X569Y1209D01*
X293Y1208D02*
X300Y1208D01*
X562Y1208D02*
X569Y1208D01*
X293Y1207D02*
X300Y1207D01*
X562Y1207D02*
X569Y1207D01*
X294Y1206D02*
X301Y1206D01*
X562Y1206D02*
X569Y1206D01*
X294Y1205D02*
X301Y1205D01*
X562Y1205D02*
X569Y1205D01*
X295Y1204D02*
X302Y1204D01*
X562Y1204D02*
X569Y1204D01*
X1351Y1204D02*
X1358Y1204D01*
X295Y1203D02*
X303Y1203D01*
X562Y1203D02*
X569Y1203D01*
X1350Y1203D02*
X1360Y1203D01*
X296Y1202D02*
X303Y1202D01*
X562Y1202D02*
X569Y1202D01*
X1349Y1202D02*
X1361Y1202D01*
X297Y1201D02*
X304Y1201D01*
X562Y1201D02*
X569Y1201D01*
X1348Y1201D02*
X1351Y1201D01*
X1358Y1201D02*
X1362Y1201D01*
X297Y1200D02*
X305Y1200D01*
X562Y1200D02*
X569Y1200D01*
X1347Y1200D02*
X1350Y1200D01*
X1359Y1200D02*
X1362Y1200D01*
X293Y1199D02*
X329Y1199D01*
X562Y1199D02*
X569Y1199D01*
X1346Y1199D02*
X1349Y1199D01*
X1360Y1199D02*
X1363Y1199D01*
X292Y1198D02*
X329Y1198D01*
X562Y1198D02*
X569Y1198D01*
X1346Y1198D02*
X1349Y1198D01*
X1361Y1198D02*
X1363Y1198D01*
X292Y1197D02*
X330Y1197D01*
X562Y1197D02*
X569Y1197D01*
X1346Y1197D02*
X1348Y1197D01*
X1361Y1197D02*
X1363Y1197D01*
X292Y1196D02*
X330Y1196D01*
X562Y1196D02*
X569Y1196D01*
X1346Y1196D02*
X1348Y1196D01*
X1361Y1196D02*
X1363Y1196D01*
X292Y1195D02*
X330Y1195D01*
X562Y1195D02*
X569Y1195D01*
X1346Y1195D02*
X1348Y1195D01*
X1361Y1195D02*
X1363Y1195D01*
X292Y1194D02*
X329Y1194D01*
X562Y1194D02*
X569Y1194D01*
X1346Y1194D02*
X1348Y1194D01*
X1361Y1194D02*
X1363Y1194D01*
X294Y1193D02*
X328Y1193D01*
X562Y1193D02*
X569Y1193D01*
X1346Y1193D02*
X1348Y1193D01*
X1361Y1193D02*
X1363Y1193D01*
X562Y1192D02*
X569Y1192D01*
X1346Y1192D02*
X1348Y1192D01*
X1361Y1192D02*
X1363Y1192D01*
X562Y1191D02*
X569Y1191D01*
X1346Y1191D02*
X1348Y1191D01*
X1361Y1191D02*
X1363Y1191D01*
X562Y1190D02*
X569Y1190D01*
X1346Y1190D02*
X1348Y1190D01*
X1361Y1190D02*
X1363Y1190D01*
X562Y1189D02*
X569Y1189D01*
X1347Y1189D02*
X1348Y1189D01*
X1362Y1189D02*
X1363Y1189D01*
X562Y1188D02*
X569Y1188D01*
X562Y1187D02*
X569Y1187D01*
X562Y1186D02*
X569Y1186D01*
X562Y1185D02*
X569Y1185D01*
X1005Y1185D02*
X1019Y1185D01*
X562Y1184D02*
X569Y1184D01*
X1005Y1184D02*
X1019Y1184D01*
X562Y1183D02*
X569Y1183D01*
X1005Y1183D02*
X1019Y1183D01*
X562Y1182D02*
X569Y1182D01*
X1005Y1182D02*
X1019Y1182D01*
X562Y1181D02*
X569Y1181D01*
X1005Y1181D02*
X1019Y1181D01*
X562Y1180D02*
X569Y1180D01*
X1005Y1180D02*
X1019Y1180D01*
X1362Y1180D02*
X1363Y1180D01*
X562Y1179D02*
X569Y1179D01*
X1005Y1179D02*
X1019Y1179D01*
X1361Y1179D02*
X1363Y1179D01*
X562Y1178D02*
X569Y1178D01*
X1005Y1178D02*
X1019Y1178D01*
X1361Y1178D02*
X1363Y1178D01*
X297Y1177D02*
X298Y1177D01*
X562Y1177D02*
X569Y1177D01*
X1005Y1177D02*
X1019Y1177D01*
X1347Y1177D02*
X1366Y1177D01*
X295Y1176D02*
X300Y1176D01*
X319Y1176D02*
X324Y1176D01*
X562Y1176D02*
X569Y1176D01*
X1005Y1176D02*
X1019Y1176D01*
X1346Y1176D02*
X1368Y1176D01*
X294Y1175D02*
X300Y1175D01*
X317Y1175D02*
X326Y1175D01*
X562Y1175D02*
X569Y1175D01*
X1005Y1175D02*
X1019Y1175D01*
X1346Y1175D02*
X1369Y1175D01*
X294Y1174D02*
X300Y1174D01*
X316Y1174D02*
X327Y1174D01*
X562Y1174D02*
X569Y1174D01*
X1005Y1174D02*
X1019Y1174D01*
X1361Y1174D02*
X1364Y1174D01*
X1366Y1174D02*
X1370Y1174D01*
X293Y1173D02*
X300Y1173D01*
X315Y1173D02*
X328Y1173D01*
X562Y1173D02*
X569Y1173D01*
X1005Y1173D02*
X1019Y1173D01*
X1361Y1173D02*
X1363Y1173D01*
X1367Y1173D02*
X1370Y1173D01*
X293Y1172D02*
X300Y1172D01*
X314Y1172D02*
X329Y1172D01*
X562Y1172D02*
X569Y1172D01*
X1005Y1172D02*
X1019Y1172D01*
X1361Y1172D02*
X1363Y1172D01*
X1368Y1172D02*
X1370Y1172D01*
X292Y1171D02*
X299Y1171D01*
X314Y1171D02*
X329Y1171D01*
X562Y1171D02*
X569Y1171D01*
X1005Y1171D02*
X1019Y1171D01*
X1361Y1171D02*
X1363Y1171D01*
X1368Y1171D02*
X1370Y1171D01*
X292Y1170D02*
X299Y1170D01*
X313Y1170D02*
X330Y1170D01*
X562Y1170D02*
X569Y1170D01*
X1005Y1170D02*
X1019Y1170D01*
X1361Y1170D02*
X1363Y1170D01*
X1368Y1170D02*
X1370Y1170D01*
X292Y1169D02*
X298Y1169D01*
X313Y1169D02*
X320Y1169D01*
X323Y1169D02*
X330Y1169D01*
X562Y1169D02*
X569Y1169D01*
X1005Y1169D02*
X1019Y1169D01*
X1368Y1169D02*
X1370Y1169D01*
X292Y1168D02*
X298Y1168D01*
X312Y1168D02*
X319Y1168D01*
X324Y1168D02*
X330Y1168D01*
X562Y1168D02*
X569Y1168D01*
X1005Y1168D02*
X1019Y1168D01*
X1368Y1168D02*
X1370Y1168D01*
X292Y1167D02*
X298Y1167D01*
X312Y1167D02*
X319Y1167D01*
X324Y1167D02*
X330Y1167D01*
X562Y1167D02*
X569Y1167D01*
X1005Y1167D02*
X1019Y1167D01*
X1368Y1167D02*
X1370Y1167D01*
X292Y1166D02*
X298Y1166D01*
X312Y1166D02*
X318Y1166D01*
X324Y1166D02*
X330Y1166D01*
X562Y1166D02*
X569Y1166D01*
X1005Y1166D02*
X1019Y1166D01*
X292Y1165D02*
X298Y1165D01*
X311Y1165D02*
X318Y1165D01*
X324Y1165D02*
X330Y1165D01*
X562Y1165D02*
X569Y1165D01*
X1005Y1165D02*
X1019Y1165D01*
X292Y1164D02*
X298Y1164D01*
X311Y1164D02*
X317Y1164D01*
X324Y1164D02*
X330Y1164D01*
X562Y1164D02*
X569Y1164D01*
X1005Y1164D02*
X1019Y1164D01*
X1178Y1164D02*
X1195Y1164D01*
X1208Y1164D02*
X1226Y1164D01*
X292Y1163D02*
X298Y1163D01*
X310Y1163D02*
X317Y1163D01*
X324Y1163D02*
X330Y1163D01*
X562Y1163D02*
X569Y1163D01*
X1005Y1163D02*
X1019Y1163D01*
X1178Y1163D02*
X1196Y1163D01*
X1208Y1163D02*
X1227Y1163D01*
X292Y1162D02*
X298Y1162D01*
X310Y1162D02*
X316Y1162D01*
X324Y1162D02*
X330Y1162D01*
X562Y1162D02*
X569Y1162D01*
X1005Y1162D02*
X1019Y1162D01*
X1178Y1162D02*
X1197Y1162D01*
X1208Y1162D02*
X1228Y1162D01*
X292Y1161D02*
X298Y1161D01*
X309Y1161D02*
X316Y1161D01*
X324Y1161D02*
X330Y1161D01*
X562Y1161D02*
X569Y1161D01*
X1005Y1161D02*
X1019Y1161D01*
X1178Y1161D02*
X1197Y1161D01*
X1209Y1161D02*
X1228Y1161D01*
X292Y1160D02*
X298Y1160D01*
X309Y1160D02*
X316Y1160D01*
X324Y1160D02*
X330Y1160D01*
X562Y1160D02*
X569Y1160D01*
X1005Y1160D02*
X1019Y1160D01*
X1178Y1160D02*
X1181Y1160D01*
X1194Y1160D02*
X1198Y1160D01*
X1225Y1160D02*
X1228Y1160D01*
X292Y1159D02*
X298Y1159D01*
X309Y1159D02*
X315Y1159D01*
X324Y1159D02*
X330Y1159D01*
X562Y1159D02*
X569Y1159D01*
X1005Y1159D02*
X1019Y1159D01*
X1178Y1159D02*
X1181Y1159D01*
X1195Y1159D02*
X1198Y1159D01*
X1225Y1159D02*
X1228Y1159D01*
X292Y1158D02*
X298Y1158D01*
X308Y1158D02*
X315Y1158D01*
X324Y1158D02*
X330Y1158D01*
X562Y1158D02*
X569Y1158D01*
X1005Y1158D02*
X1019Y1158D01*
X1178Y1158D02*
X1181Y1158D01*
X1195Y1158D02*
X1198Y1158D01*
X1225Y1158D02*
X1228Y1158D01*
X292Y1157D02*
X298Y1157D01*
X308Y1157D02*
X314Y1157D01*
X324Y1157D02*
X330Y1157D01*
X562Y1157D02*
X569Y1157D01*
X1005Y1157D02*
X1019Y1157D01*
X1178Y1157D02*
X1181Y1157D01*
X1195Y1157D02*
X1198Y1157D01*
X1225Y1157D02*
X1228Y1157D01*
X292Y1156D02*
X298Y1156D01*
X307Y1156D02*
X314Y1156D01*
X324Y1156D02*
X330Y1156D01*
X562Y1156D02*
X569Y1156D01*
X1005Y1156D02*
X1019Y1156D01*
X1178Y1156D02*
X1181Y1156D01*
X1195Y1156D02*
X1198Y1156D01*
X1225Y1156D02*
X1228Y1156D01*
X292Y1155D02*
X298Y1155D01*
X307Y1155D02*
X313Y1155D01*
X324Y1155D02*
X330Y1155D01*
X562Y1155D02*
X569Y1155D01*
X1005Y1155D02*
X1019Y1155D01*
X1178Y1155D02*
X1181Y1155D01*
X1194Y1155D02*
X1198Y1155D01*
X1225Y1155D02*
X1228Y1155D01*
X292Y1154D02*
X298Y1154D01*
X306Y1154D02*
X313Y1154D01*
X324Y1154D02*
X330Y1154D01*
X562Y1154D02*
X569Y1154D01*
X1005Y1154D02*
X1019Y1154D01*
X1178Y1154D02*
X1197Y1154D01*
X1225Y1154D02*
X1228Y1154D01*
X292Y1153D02*
X298Y1153D01*
X306Y1153D02*
X313Y1153D01*
X324Y1153D02*
X330Y1153D01*
X563Y1153D02*
X569Y1153D01*
X1005Y1153D02*
X1019Y1153D01*
X1178Y1153D02*
X1197Y1153D01*
X1225Y1153D02*
X1228Y1153D01*
X292Y1152D02*
X298Y1152D01*
X306Y1152D02*
X312Y1152D01*
X324Y1152D02*
X330Y1152D01*
X563Y1152D02*
X569Y1152D01*
X1005Y1152D02*
X1019Y1152D01*
X1178Y1152D02*
X1196Y1152D01*
X1224Y1152D02*
X1228Y1152D01*
X292Y1151D02*
X299Y1151D01*
X305Y1151D02*
X312Y1151D01*
X323Y1151D02*
X330Y1151D01*
X563Y1151D02*
X569Y1151D01*
X1005Y1151D02*
X1019Y1151D01*
X1178Y1151D02*
X1194Y1151D01*
X1223Y1151D02*
X1227Y1151D01*
X292Y1150D02*
X311Y1150D01*
X323Y1150D02*
X330Y1150D01*
X563Y1150D02*
X569Y1150D01*
X1005Y1150D02*
X1019Y1150D01*
X1178Y1150D02*
X1182Y1150D01*
X1185Y1150D02*
X1190Y1150D01*
X1213Y1150D02*
X1227Y1150D01*
X293Y1149D02*
X311Y1149D01*
X322Y1149D02*
X329Y1149D01*
X564Y1149D02*
X569Y1149D01*
X1005Y1149D02*
X1019Y1149D01*
X1178Y1149D02*
X1181Y1149D01*
X1186Y1149D02*
X1190Y1149D01*
X1212Y1149D02*
X1226Y1149D01*
X293Y1148D02*
X310Y1148D01*
X321Y1148D02*
X329Y1148D01*
X564Y1148D02*
X569Y1148D01*
X1005Y1148D02*
X1019Y1148D01*
X1178Y1148D02*
X1181Y1148D01*
X1186Y1148D02*
X1190Y1148D01*
X1212Y1148D02*
X1227Y1148D01*
X294Y1147D02*
X310Y1147D01*
X321Y1147D02*
X328Y1147D01*
X564Y1147D02*
X569Y1147D01*
X1005Y1147D02*
X1019Y1147D01*
X1178Y1147D02*
X1181Y1147D01*
X1187Y1147D02*
X1191Y1147D01*
X1213Y1147D02*
X1227Y1147D01*
X295Y1146D02*
X309Y1146D01*
X321Y1146D02*
X327Y1146D01*
X564Y1146D02*
X569Y1146D01*
X1005Y1146D02*
X1019Y1146D01*
X1178Y1146D02*
X1181Y1146D01*
X1188Y1146D02*
X1191Y1146D01*
X1224Y1146D02*
X1228Y1146D01*
X296Y1145D02*
X307Y1145D01*
X322Y1145D02*
X326Y1145D01*
X564Y1145D02*
X569Y1145D01*
X1005Y1145D02*
X1019Y1145D01*
X1178Y1145D02*
X1181Y1145D01*
X1188Y1145D02*
X1192Y1145D01*
X1224Y1145D02*
X1228Y1145D01*
X297Y1144D02*
X306Y1144D01*
X323Y1144D02*
X325Y1144D01*
X564Y1144D02*
X569Y1144D01*
X1005Y1144D02*
X1019Y1144D01*
X1178Y1144D02*
X1181Y1144D01*
X1189Y1144D02*
X1193Y1144D01*
X1225Y1144D02*
X1228Y1144D01*
X301Y1143D02*
X303Y1143D01*
X564Y1143D02*
X569Y1143D01*
X1005Y1143D02*
X1019Y1143D01*
X1178Y1143D02*
X1181Y1143D01*
X1189Y1143D02*
X1193Y1143D01*
X1225Y1143D02*
X1228Y1143D01*
X564Y1142D02*
X569Y1142D01*
X1005Y1142D02*
X1019Y1142D01*
X1178Y1142D02*
X1181Y1142D01*
X1190Y1142D02*
X1194Y1142D01*
X1225Y1142D02*
X1228Y1142D01*
X564Y1141D02*
X569Y1141D01*
X1005Y1141D02*
X1019Y1141D01*
X1178Y1141D02*
X1181Y1141D01*
X1190Y1141D02*
X1194Y1141D01*
X1225Y1141D02*
X1228Y1141D01*
X564Y1140D02*
X569Y1140D01*
X1005Y1140D02*
X1019Y1140D01*
X1178Y1140D02*
X1181Y1140D01*
X1191Y1140D02*
X1195Y1140D01*
X1225Y1140D02*
X1228Y1140D01*
X564Y1139D02*
X569Y1139D01*
X1005Y1139D02*
X1019Y1139D01*
X1178Y1139D02*
X1181Y1139D01*
X1192Y1139D02*
X1196Y1139D01*
X1225Y1139D02*
X1228Y1139D01*
X564Y1138D02*
X569Y1138D01*
X1005Y1138D02*
X1019Y1138D01*
X1178Y1138D02*
X1181Y1138D01*
X1192Y1138D02*
X1196Y1138D01*
X1225Y1138D02*
X1228Y1138D01*
X564Y1137D02*
X569Y1137D01*
X1005Y1137D02*
X1019Y1137D01*
X1178Y1137D02*
X1181Y1137D01*
X1193Y1137D02*
X1197Y1137D01*
X1224Y1137D02*
X1228Y1137D01*
X564Y1136D02*
X569Y1136D01*
X1005Y1136D02*
X1019Y1136D01*
X1178Y1136D02*
X1181Y1136D01*
X1193Y1136D02*
X1197Y1136D01*
X1209Y1136D02*
X1228Y1136D01*
X564Y1135D02*
X569Y1135D01*
X1005Y1135D02*
X1019Y1135D01*
X1178Y1135D02*
X1181Y1135D01*
X1194Y1135D02*
X1198Y1135D01*
X1208Y1135D02*
X1227Y1135D01*
X564Y1134D02*
X569Y1134D01*
X1005Y1134D02*
X1019Y1134D01*
X1178Y1134D02*
X1181Y1134D01*
X1195Y1134D02*
X1198Y1134D01*
X1208Y1134D02*
X1227Y1134D01*
X563Y1133D02*
X569Y1133D01*
X1005Y1133D02*
X1019Y1133D01*
X1179Y1133D02*
X1180Y1133D01*
X1195Y1133D02*
X1197Y1133D01*
X1209Y1133D02*
X1225Y1133D01*
X563Y1132D02*
X569Y1132D01*
X1005Y1132D02*
X1019Y1132D01*
X563Y1131D02*
X569Y1131D01*
X1005Y1131D02*
X1019Y1131D01*
X563Y1130D02*
X569Y1130D01*
X1005Y1130D02*
X1019Y1130D01*
X562Y1129D02*
X569Y1129D01*
X1005Y1129D02*
X1019Y1129D01*
X562Y1128D02*
X569Y1128D01*
X1005Y1128D02*
X1019Y1128D01*
X562Y1127D02*
X569Y1127D01*
X1005Y1127D02*
X1019Y1127D01*
X562Y1126D02*
X569Y1126D01*
X1005Y1126D02*
X1019Y1126D01*
X1194Y1126D02*
X1344Y1126D01*
X562Y1125D02*
X569Y1125D01*
X1005Y1125D02*
X1019Y1125D01*
X1194Y1125D02*
X1344Y1125D01*
X562Y1124D02*
X569Y1124D01*
X1005Y1124D02*
X1019Y1124D01*
X1194Y1124D02*
X1196Y1124D01*
X1261Y1124D02*
X1277Y1124D01*
X1342Y1124D02*
X1344Y1124D01*
X562Y1123D02*
X569Y1123D01*
X1005Y1123D02*
X1019Y1123D01*
X1194Y1123D02*
X1195Y1123D01*
X1261Y1123D02*
X1276Y1123D01*
X1342Y1123D02*
X1344Y1123D01*
X562Y1122D02*
X569Y1122D01*
X1005Y1122D02*
X1019Y1122D01*
X1194Y1122D02*
X1195Y1122D01*
X1342Y1122D02*
X1344Y1122D01*
X562Y1121D02*
X569Y1121D01*
X1005Y1121D02*
X1019Y1121D01*
X1194Y1121D02*
X1195Y1121D01*
X1342Y1121D02*
X1344Y1121D01*
X562Y1120D02*
X569Y1120D01*
X1005Y1120D02*
X1019Y1120D01*
X1194Y1120D02*
X1195Y1120D01*
X1342Y1120D02*
X1344Y1120D01*
X562Y1119D02*
X569Y1119D01*
X1005Y1119D02*
X1019Y1119D01*
X1194Y1119D02*
X1195Y1119D01*
X1342Y1119D02*
X1344Y1119D01*
X562Y1118D02*
X569Y1118D01*
X1005Y1118D02*
X1019Y1118D01*
X1194Y1118D02*
X1195Y1118D01*
X1342Y1118D02*
X1344Y1118D01*
X562Y1117D02*
X569Y1117D01*
X1005Y1117D02*
X1019Y1117D01*
X1194Y1117D02*
X1195Y1117D01*
X1342Y1117D02*
X1344Y1117D01*
X562Y1116D02*
X569Y1116D01*
X1005Y1116D02*
X1019Y1116D01*
X1194Y1116D02*
X1195Y1116D01*
X1342Y1116D02*
X1344Y1116D01*
X562Y1115D02*
X569Y1115D01*
X1005Y1115D02*
X1019Y1115D01*
X1194Y1115D02*
X1195Y1115D01*
X1342Y1115D02*
X1344Y1115D01*
X562Y1114D02*
X569Y1114D01*
X1005Y1114D02*
X1019Y1114D01*
X1194Y1114D02*
X1195Y1114D01*
X1342Y1114D02*
X1344Y1114D01*
X562Y1113D02*
X569Y1113D01*
X1005Y1113D02*
X1019Y1113D01*
X1194Y1113D02*
X1195Y1113D01*
X1342Y1113D02*
X1344Y1113D01*
X562Y1112D02*
X569Y1112D01*
X1005Y1112D02*
X1019Y1112D01*
X1194Y1112D02*
X1195Y1112D01*
X1342Y1112D02*
X1344Y1112D01*
X562Y1111D02*
X569Y1111D01*
X1005Y1111D02*
X1019Y1111D01*
X1194Y1111D02*
X1195Y1111D01*
X1342Y1111D02*
X1344Y1111D01*
X562Y1110D02*
X569Y1110D01*
X1005Y1110D02*
X1019Y1110D01*
X1194Y1110D02*
X1195Y1110D01*
X1342Y1110D02*
X1344Y1110D01*
X562Y1109D02*
X569Y1109D01*
X1005Y1109D02*
X1019Y1109D01*
X1194Y1109D02*
X1195Y1109D01*
X1342Y1109D02*
X1344Y1109D01*
X562Y1108D02*
X569Y1108D01*
X1005Y1108D02*
X1019Y1108D01*
X1194Y1108D02*
X1195Y1108D01*
X1342Y1108D02*
X1344Y1108D01*
X562Y1107D02*
X569Y1107D01*
X1005Y1107D02*
X1019Y1107D01*
X1194Y1107D02*
X1195Y1107D01*
X1342Y1107D02*
X1344Y1107D01*
X562Y1106D02*
X569Y1106D01*
X1005Y1106D02*
X1019Y1106D01*
X1194Y1106D02*
X1195Y1106D01*
X1342Y1106D02*
X1344Y1106D01*
X562Y1105D02*
X569Y1105D01*
X1005Y1105D02*
X1019Y1105D01*
X1194Y1105D02*
X1195Y1105D01*
X1342Y1105D02*
X1344Y1105D01*
X562Y1104D02*
X569Y1104D01*
X1005Y1104D02*
X1019Y1104D01*
X1194Y1104D02*
X1195Y1104D01*
X1342Y1104D02*
X1344Y1104D01*
X562Y1103D02*
X569Y1103D01*
X1005Y1103D02*
X1019Y1103D01*
X1194Y1103D02*
X1195Y1103D01*
X1342Y1103D02*
X1344Y1103D01*
X562Y1102D02*
X569Y1102D01*
X1005Y1102D02*
X1019Y1102D01*
X1194Y1102D02*
X1195Y1102D01*
X1342Y1102D02*
X1344Y1102D01*
X562Y1101D02*
X569Y1101D01*
X1005Y1101D02*
X1019Y1101D01*
X1194Y1101D02*
X1195Y1101D01*
X1342Y1101D02*
X1344Y1101D01*
X562Y1100D02*
X569Y1100D01*
X1005Y1100D02*
X1019Y1100D01*
X1194Y1100D02*
X1195Y1100D01*
X1342Y1100D02*
X1344Y1100D01*
X562Y1099D02*
X569Y1099D01*
X1005Y1099D02*
X1019Y1099D01*
X1194Y1099D02*
X1195Y1099D01*
X1342Y1099D02*
X1344Y1099D01*
X562Y1098D02*
X569Y1098D01*
X1005Y1098D02*
X1019Y1098D01*
X1194Y1098D02*
X1195Y1098D01*
X1342Y1098D02*
X1344Y1098D01*
X562Y1097D02*
X569Y1097D01*
X1005Y1097D02*
X1019Y1097D01*
X1194Y1097D02*
X1195Y1097D01*
X1342Y1097D02*
X1344Y1097D01*
X562Y1096D02*
X569Y1096D01*
X1005Y1096D02*
X1019Y1096D01*
X1032Y1096D02*
X1048Y1096D01*
X1194Y1096D02*
X1195Y1096D01*
X1342Y1096D02*
X1344Y1096D01*
X562Y1095D02*
X569Y1095D01*
X1005Y1095D02*
X1019Y1095D01*
X1031Y1095D02*
X1050Y1095D01*
X1194Y1095D02*
X1195Y1095D01*
X1342Y1095D02*
X1344Y1095D01*
X562Y1094D02*
X569Y1094D01*
X1005Y1094D02*
X1019Y1094D01*
X1030Y1094D02*
X1051Y1094D01*
X1194Y1094D02*
X1195Y1094D01*
X1342Y1094D02*
X1344Y1094D01*
X562Y1093D02*
X569Y1093D01*
X1005Y1093D02*
X1019Y1093D01*
X1029Y1093D02*
X1052Y1093D01*
X1194Y1093D02*
X1195Y1093D01*
X1342Y1093D02*
X1344Y1093D01*
X562Y1092D02*
X569Y1092D01*
X1005Y1092D02*
X1019Y1092D01*
X1029Y1092D02*
X1033Y1092D01*
X1047Y1092D02*
X1053Y1092D01*
X1194Y1092D02*
X1195Y1092D01*
X1342Y1092D02*
X1344Y1092D01*
X562Y1091D02*
X569Y1091D01*
X1005Y1091D02*
X1019Y1091D01*
X1029Y1091D02*
X1032Y1091D01*
X1049Y1091D02*
X1053Y1091D01*
X1194Y1091D02*
X1195Y1091D01*
X1342Y1091D02*
X1344Y1091D01*
X562Y1090D02*
X569Y1090D01*
X1005Y1090D02*
X1019Y1090D01*
X1029Y1090D02*
X1033Y1090D01*
X1050Y1090D02*
X1054Y1090D01*
X1194Y1090D02*
X1195Y1090D01*
X1342Y1090D02*
X1344Y1090D01*
X562Y1089D02*
X569Y1089D01*
X1005Y1089D02*
X1019Y1089D01*
X1030Y1089D02*
X1034Y1089D01*
X1051Y1089D02*
X1055Y1089D01*
X1194Y1089D02*
X1195Y1089D01*
X1342Y1089D02*
X1344Y1089D01*
X562Y1088D02*
X569Y1088D01*
X784Y1088D02*
X787Y1088D01*
X831Y1088D02*
X835Y1088D01*
X1005Y1088D02*
X1019Y1088D01*
X1030Y1088D02*
X1035Y1088D01*
X1041Y1088D02*
X1042Y1088D01*
X1051Y1088D02*
X1056Y1088D01*
X1194Y1088D02*
X1195Y1088D01*
X1342Y1088D02*
X1344Y1088D01*
X562Y1087D02*
X569Y1087D01*
X783Y1087D02*
X788Y1087D01*
X830Y1087D02*
X835Y1087D01*
X1005Y1087D02*
X1019Y1087D01*
X1031Y1087D02*
X1036Y1087D01*
X1038Y1087D02*
X1043Y1087D01*
X1052Y1087D02*
X1057Y1087D01*
X1194Y1087D02*
X1195Y1087D01*
X1342Y1087D02*
X1344Y1087D01*
X562Y1086D02*
X569Y1086D01*
X783Y1086D02*
X789Y1086D01*
X830Y1086D02*
X836Y1086D01*
X1005Y1086D02*
X1019Y1086D01*
X1032Y1086D02*
X1043Y1086D01*
X1053Y1086D02*
X1058Y1086D01*
X1194Y1086D02*
X1195Y1086D01*
X1342Y1086D02*
X1344Y1086D01*
X562Y1085D02*
X569Y1085D01*
X783Y1085D02*
X789Y1085D01*
X830Y1085D02*
X836Y1085D01*
X1005Y1085D02*
X1019Y1085D01*
X1032Y1085D02*
X1042Y1085D01*
X1054Y1085D02*
X1059Y1085D01*
X1194Y1085D02*
X1195Y1085D01*
X1342Y1085D02*
X1344Y1085D01*
X562Y1084D02*
X569Y1084D01*
X783Y1084D02*
X789Y1084D01*
X830Y1084D02*
X836Y1084D01*
X1005Y1084D02*
X1019Y1084D01*
X1030Y1084D02*
X1041Y1084D01*
X1055Y1084D02*
X1059Y1084D01*
X1194Y1084D02*
X1195Y1084D01*
X1342Y1084D02*
X1344Y1084D01*
X562Y1083D02*
X569Y1083D01*
X783Y1083D02*
X789Y1083D01*
X830Y1083D02*
X836Y1083D01*
X1005Y1083D02*
X1019Y1083D01*
X1029Y1083D02*
X1039Y1083D01*
X1056Y1083D02*
X1060Y1083D01*
X1194Y1083D02*
X1195Y1083D01*
X1342Y1083D02*
X1344Y1083D01*
X562Y1082D02*
X569Y1082D01*
X783Y1082D02*
X836Y1082D01*
X1005Y1082D02*
X1019Y1082D01*
X1029Y1082D02*
X1040Y1082D01*
X1057Y1082D02*
X1060Y1082D01*
X1194Y1082D02*
X1195Y1082D01*
X1342Y1082D02*
X1344Y1082D01*
X562Y1081D02*
X569Y1081D01*
X783Y1081D02*
X836Y1081D01*
X1005Y1081D02*
X1019Y1081D01*
X1029Y1081D02*
X1033Y1081D01*
X1036Y1081D02*
X1041Y1081D01*
X1057Y1081D02*
X1060Y1081D01*
X1194Y1081D02*
X1195Y1081D01*
X1342Y1081D02*
X1344Y1081D01*
X562Y1080D02*
X569Y1080D01*
X783Y1080D02*
X836Y1080D01*
X1005Y1080D02*
X1019Y1080D01*
X1029Y1080D02*
X1032Y1080D01*
X1037Y1080D02*
X1043Y1080D01*
X1056Y1080D02*
X1060Y1080D01*
X1194Y1080D02*
X1195Y1080D01*
X1342Y1080D02*
X1344Y1080D01*
X562Y1079D02*
X569Y1079D01*
X783Y1079D02*
X836Y1079D01*
X1005Y1079D02*
X1019Y1079D01*
X1029Y1079D02*
X1032Y1079D01*
X1038Y1079D02*
X1060Y1079D01*
X1194Y1079D02*
X1195Y1079D01*
X1342Y1079D02*
X1344Y1079D01*
X562Y1078D02*
X569Y1078D01*
X783Y1078D02*
X836Y1078D01*
X1005Y1078D02*
X1019Y1078D01*
X1029Y1078D02*
X1032Y1078D01*
X1039Y1078D02*
X1059Y1078D01*
X1194Y1078D02*
X1195Y1078D01*
X1342Y1078D02*
X1344Y1078D01*
X562Y1077D02*
X569Y1077D01*
X783Y1077D02*
X836Y1077D01*
X1005Y1077D02*
X1019Y1077D01*
X1029Y1077D02*
X1032Y1077D01*
X1040Y1077D02*
X1059Y1077D01*
X1194Y1077D02*
X1195Y1077D01*
X1342Y1077D02*
X1344Y1077D01*
X562Y1076D02*
X569Y1076D01*
X783Y1076D02*
X836Y1076D01*
X1005Y1076D02*
X1019Y1076D01*
X1030Y1076D02*
X1031Y1076D01*
X1043Y1076D02*
X1057Y1076D01*
X1194Y1076D02*
X1195Y1076D01*
X1342Y1076D02*
X1344Y1076D01*
X562Y1075D02*
X569Y1075D01*
X783Y1075D02*
X789Y1075D01*
X829Y1075D02*
X836Y1075D01*
X1005Y1075D02*
X1019Y1075D01*
X1194Y1075D02*
X1195Y1075D01*
X1342Y1075D02*
X1344Y1075D01*
X562Y1074D02*
X569Y1074D01*
X783Y1074D02*
X789Y1074D01*
X830Y1074D02*
X836Y1074D01*
X1005Y1074D02*
X1019Y1074D01*
X1194Y1074D02*
X1195Y1074D01*
X1342Y1074D02*
X1344Y1074D01*
X562Y1073D02*
X569Y1073D01*
X783Y1073D02*
X789Y1073D01*
X830Y1073D02*
X836Y1073D01*
X1005Y1073D02*
X1019Y1073D01*
X1194Y1073D02*
X1195Y1073D01*
X1342Y1073D02*
X1344Y1073D01*
X562Y1072D02*
X569Y1072D01*
X783Y1072D02*
X789Y1072D01*
X830Y1072D02*
X836Y1072D01*
X1005Y1072D02*
X1019Y1072D01*
X1194Y1072D02*
X1195Y1072D01*
X1342Y1072D02*
X1344Y1072D01*
X562Y1071D02*
X569Y1071D01*
X783Y1071D02*
X789Y1071D01*
X829Y1071D02*
X836Y1071D01*
X1005Y1071D02*
X1019Y1071D01*
X1076Y1071D02*
X1114Y1071D01*
X1194Y1071D02*
X1195Y1071D01*
X1342Y1071D02*
X1344Y1071D01*
X562Y1070D02*
X569Y1070D01*
X783Y1070D02*
X790Y1070D01*
X829Y1070D02*
X836Y1070D01*
X1005Y1070D02*
X1019Y1070D01*
X1076Y1070D02*
X1111Y1070D01*
X1194Y1070D02*
X1195Y1070D01*
X1342Y1070D02*
X1344Y1070D01*
X562Y1069D02*
X569Y1069D01*
X783Y1069D02*
X792Y1069D01*
X827Y1069D02*
X835Y1069D01*
X1005Y1069D02*
X1019Y1069D01*
X1076Y1069D02*
X1111Y1069D01*
X1194Y1069D02*
X1195Y1069D01*
X1342Y1069D02*
X1344Y1069D01*
X562Y1068D02*
X569Y1068D01*
X784Y1068D02*
X794Y1068D01*
X825Y1068D02*
X835Y1068D01*
X1005Y1068D02*
X1019Y1068D01*
X1076Y1068D02*
X1111Y1068D01*
X1194Y1068D02*
X1195Y1068D01*
X1342Y1068D02*
X1344Y1068D01*
X562Y1067D02*
X569Y1067D01*
X784Y1067D02*
X795Y1067D01*
X823Y1067D02*
X834Y1067D01*
X1005Y1067D02*
X1019Y1067D01*
X1076Y1067D02*
X1079Y1067D01*
X1111Y1067D02*
X1111Y1067D01*
X1194Y1067D02*
X1195Y1067D01*
X1342Y1067D02*
X1344Y1067D01*
X562Y1066D02*
X569Y1066D01*
X785Y1066D02*
X797Y1066D01*
X821Y1066D02*
X833Y1066D01*
X1005Y1066D02*
X1019Y1066D01*
X1030Y1066D02*
X1031Y1066D01*
X1058Y1066D02*
X1060Y1066D01*
X1076Y1066D02*
X1079Y1066D01*
X1111Y1066D02*
X1111Y1066D01*
X1194Y1066D02*
X1195Y1066D01*
X1342Y1066D02*
X1344Y1066D01*
X562Y1065D02*
X569Y1065D01*
X786Y1065D02*
X799Y1065D01*
X819Y1065D02*
X833Y1065D01*
X1005Y1065D02*
X1019Y1065D01*
X1029Y1065D02*
X1032Y1065D01*
X1057Y1065D02*
X1060Y1065D01*
X1076Y1065D02*
X1079Y1065D01*
X1111Y1065D02*
X1111Y1065D01*
X1194Y1065D02*
X1195Y1065D01*
X1342Y1065D02*
X1344Y1065D01*
X562Y1064D02*
X569Y1064D01*
X787Y1064D02*
X801Y1064D01*
X817Y1064D02*
X831Y1064D01*
X1005Y1064D02*
X1019Y1064D01*
X1029Y1064D02*
X1032Y1064D01*
X1057Y1064D02*
X1060Y1064D01*
X1076Y1064D02*
X1079Y1064D01*
X1111Y1064D02*
X1111Y1064D01*
X1194Y1064D02*
X1195Y1064D01*
X1342Y1064D02*
X1344Y1064D01*
X562Y1063D02*
X569Y1063D01*
X789Y1063D02*
X803Y1063D01*
X815Y1063D02*
X830Y1063D01*
X1005Y1063D02*
X1019Y1063D01*
X1029Y1063D02*
X1032Y1063D01*
X1057Y1063D02*
X1060Y1063D01*
X1076Y1063D02*
X1079Y1063D01*
X1111Y1063D02*
X1111Y1063D01*
X1194Y1063D02*
X1195Y1063D01*
X1342Y1063D02*
X1344Y1063D01*
X562Y1062D02*
X569Y1062D01*
X791Y1062D02*
X806Y1062D01*
X813Y1062D02*
X828Y1062D01*
X1005Y1062D02*
X1019Y1062D01*
X1029Y1062D02*
X1032Y1062D01*
X1057Y1062D02*
X1060Y1062D01*
X1076Y1062D02*
X1079Y1062D01*
X1111Y1062D02*
X1111Y1062D01*
X1194Y1062D02*
X1195Y1062D01*
X1342Y1062D02*
X1344Y1062D01*
X562Y1061D02*
X569Y1061D01*
X793Y1061D02*
X826Y1061D01*
X1005Y1061D02*
X1019Y1061D01*
X1029Y1061D02*
X1032Y1061D01*
X1057Y1061D02*
X1060Y1061D01*
X1076Y1061D02*
X1079Y1061D01*
X1111Y1061D02*
X1111Y1061D01*
X1194Y1061D02*
X1195Y1061D01*
X1342Y1061D02*
X1344Y1061D01*
X562Y1060D02*
X569Y1060D01*
X795Y1060D02*
X824Y1060D01*
X1005Y1060D02*
X1019Y1060D01*
X1029Y1060D02*
X1032Y1060D01*
X1057Y1060D02*
X1060Y1060D01*
X1076Y1060D02*
X1079Y1060D01*
X1111Y1060D02*
X1111Y1060D01*
X1194Y1060D02*
X1195Y1060D01*
X1342Y1060D02*
X1344Y1060D01*
X562Y1059D02*
X569Y1059D01*
X797Y1059D02*
X822Y1059D01*
X1005Y1059D02*
X1019Y1059D01*
X1029Y1059D02*
X1032Y1059D01*
X1057Y1059D02*
X1060Y1059D01*
X1076Y1059D02*
X1079Y1059D01*
X1111Y1059D02*
X1111Y1059D01*
X1194Y1059D02*
X1195Y1059D01*
X1342Y1059D02*
X1344Y1059D01*
X562Y1058D02*
X569Y1058D01*
X799Y1058D02*
X820Y1058D01*
X1005Y1058D02*
X1019Y1058D01*
X1029Y1058D02*
X1060Y1058D01*
X1076Y1058D02*
X1079Y1058D01*
X1111Y1058D02*
X1111Y1058D01*
X1194Y1058D02*
X1195Y1058D01*
X1342Y1058D02*
X1344Y1058D01*
X562Y1057D02*
X569Y1057D01*
X801Y1057D02*
X818Y1057D01*
X1005Y1057D02*
X1019Y1057D01*
X1029Y1057D02*
X1060Y1057D01*
X1076Y1057D02*
X1079Y1057D01*
X1111Y1057D02*
X1111Y1057D01*
X1194Y1057D02*
X1195Y1057D01*
X1342Y1057D02*
X1344Y1057D01*
X562Y1056D02*
X569Y1056D01*
X803Y1056D02*
X816Y1056D01*
X1005Y1056D02*
X1019Y1056D01*
X1029Y1056D02*
X1060Y1056D01*
X1076Y1056D02*
X1079Y1056D01*
X1111Y1056D02*
X1111Y1056D01*
X1194Y1056D02*
X1195Y1056D01*
X1261Y1056D02*
X1276Y1056D01*
X1342Y1056D02*
X1344Y1056D01*
X562Y1055D02*
X569Y1055D01*
X806Y1055D02*
X813Y1055D01*
X1005Y1055D02*
X1019Y1055D01*
X1029Y1055D02*
X1060Y1055D01*
X1076Y1055D02*
X1079Y1055D01*
X1111Y1055D02*
X1111Y1055D01*
X1194Y1055D02*
X1196Y1055D01*
X1261Y1055D02*
X1277Y1055D01*
X1342Y1055D02*
X1344Y1055D01*
X562Y1054D02*
X569Y1054D01*
X1005Y1054D02*
X1019Y1054D01*
X1029Y1054D02*
X1033Y1054D01*
X1076Y1054D02*
X1079Y1054D01*
X1111Y1054D02*
X1111Y1054D01*
X1194Y1054D02*
X1344Y1054D01*
X563Y1053D02*
X569Y1053D01*
X1005Y1053D02*
X1019Y1053D01*
X1029Y1053D02*
X1032Y1053D01*
X1076Y1053D02*
X1079Y1053D01*
X1111Y1053D02*
X1111Y1053D01*
X1194Y1053D02*
X1344Y1053D01*
X563Y1052D02*
X569Y1052D01*
X1005Y1052D02*
X1019Y1052D01*
X1029Y1052D02*
X1032Y1052D01*
X1076Y1052D02*
X1079Y1052D01*
X1111Y1052D02*
X1111Y1052D01*
X563Y1051D02*
X569Y1051D01*
X1005Y1051D02*
X1019Y1051D01*
X1029Y1051D02*
X1032Y1051D01*
X1076Y1051D02*
X1079Y1051D01*
X1111Y1051D02*
X1111Y1051D01*
X563Y1050D02*
X569Y1050D01*
X1005Y1050D02*
X1019Y1050D01*
X1029Y1050D02*
X1033Y1050D01*
X1076Y1050D02*
X1079Y1050D01*
X1111Y1050D02*
X1111Y1050D01*
X564Y1049D02*
X569Y1049D01*
X1005Y1049D02*
X1019Y1049D01*
X1029Y1049D02*
X1042Y1049D01*
X1076Y1049D02*
X1079Y1049D01*
X1111Y1049D02*
X1111Y1049D01*
X564Y1048D02*
X569Y1048D01*
X1005Y1048D02*
X1019Y1048D01*
X1029Y1048D02*
X1043Y1048D01*
X1076Y1048D02*
X1079Y1048D01*
X1111Y1048D02*
X1111Y1048D01*
X564Y1047D02*
X569Y1047D01*
X1005Y1047D02*
X1019Y1047D01*
X1029Y1047D02*
X1043Y1047D01*
X1076Y1047D02*
X1079Y1047D01*
X1111Y1047D02*
X1111Y1047D01*
X564Y1046D02*
X569Y1046D01*
X1005Y1046D02*
X1019Y1046D01*
X1030Y1046D02*
X1042Y1046D01*
X1076Y1046D02*
X1079Y1046D01*
X1111Y1046D02*
X1111Y1046D01*
X1193Y1046D02*
X1343Y1046D01*
X564Y1045D02*
X569Y1045D01*
X1005Y1045D02*
X1019Y1045D01*
X1076Y1045D02*
X1079Y1045D01*
X1111Y1045D02*
X1111Y1045D01*
X1193Y1045D02*
X1344Y1045D01*
X564Y1044D02*
X569Y1044D01*
X1005Y1044D02*
X1019Y1044D01*
X1076Y1044D02*
X1079Y1044D01*
X1111Y1044D02*
X1111Y1044D01*
X1193Y1044D02*
X1344Y1044D01*
X564Y1043D02*
X569Y1043D01*
X1005Y1043D02*
X1019Y1043D01*
X1076Y1043D02*
X1079Y1043D01*
X1111Y1043D02*
X1111Y1043D01*
X1193Y1043D02*
X1195Y1043D01*
X1261Y1043D02*
X1276Y1043D01*
X1342Y1043D02*
X1344Y1043D01*
X564Y1042D02*
X569Y1042D01*
X1005Y1042D02*
X1019Y1042D01*
X1076Y1042D02*
X1079Y1042D01*
X1111Y1042D02*
X1111Y1042D01*
X1193Y1042D02*
X1195Y1042D01*
X1342Y1042D02*
X1344Y1042D01*
X564Y1041D02*
X569Y1041D01*
X1005Y1041D02*
X1019Y1041D01*
X1076Y1041D02*
X1079Y1041D01*
X1111Y1041D02*
X1111Y1041D01*
X1193Y1041D02*
X1195Y1041D01*
X1342Y1041D02*
X1344Y1041D01*
X564Y1040D02*
X569Y1040D01*
X1005Y1040D02*
X1019Y1040D01*
X1076Y1040D02*
X1079Y1040D01*
X1111Y1040D02*
X1111Y1040D01*
X1193Y1040D02*
X1195Y1040D01*
X1342Y1040D02*
X1344Y1040D01*
X564Y1039D02*
X569Y1039D01*
X1005Y1039D02*
X1019Y1039D01*
X1076Y1039D02*
X1079Y1039D01*
X1111Y1039D02*
X1111Y1039D01*
X1193Y1039D02*
X1195Y1039D01*
X1342Y1039D02*
X1344Y1039D01*
X564Y1038D02*
X569Y1038D01*
X788Y1038D02*
X793Y1038D01*
X825Y1038D02*
X832Y1038D01*
X1005Y1038D02*
X1019Y1038D01*
X1076Y1038D02*
X1079Y1038D01*
X1111Y1038D02*
X1111Y1038D01*
X1193Y1038D02*
X1195Y1038D01*
X1342Y1038D02*
X1344Y1038D01*
X564Y1037D02*
X569Y1037D01*
X787Y1037D02*
X794Y1037D01*
X824Y1037D02*
X833Y1037D01*
X1005Y1037D02*
X1019Y1037D01*
X1076Y1037D02*
X1079Y1037D01*
X1111Y1037D02*
X1111Y1037D01*
X1193Y1037D02*
X1195Y1037D01*
X1342Y1037D02*
X1344Y1037D01*
X564Y1036D02*
X569Y1036D01*
X785Y1036D02*
X794Y1036D01*
X822Y1036D02*
X834Y1036D01*
X1005Y1036D02*
X1019Y1036D01*
X1076Y1036D02*
X1079Y1036D01*
X1111Y1036D02*
X1111Y1036D01*
X1193Y1036D02*
X1195Y1036D01*
X1342Y1036D02*
X1344Y1036D01*
X564Y1035D02*
X569Y1035D01*
X785Y1035D02*
X795Y1035D01*
X821Y1035D02*
X835Y1035D01*
X1005Y1035D02*
X1019Y1035D01*
X1076Y1035D02*
X1079Y1035D01*
X1111Y1035D02*
X1111Y1035D01*
X1193Y1035D02*
X1195Y1035D01*
X1342Y1035D02*
X1344Y1035D01*
X564Y1034D02*
X569Y1034D01*
X784Y1034D02*
X794Y1034D01*
X820Y1034D02*
X835Y1034D01*
X1005Y1034D02*
X1019Y1034D01*
X1076Y1034D02*
X1079Y1034D01*
X1111Y1034D02*
X1111Y1034D01*
X1193Y1034D02*
X1195Y1034D01*
X1342Y1034D02*
X1344Y1034D01*
X563Y1033D02*
X569Y1033D01*
X783Y1033D02*
X794Y1033D01*
X818Y1033D02*
X836Y1033D01*
X1005Y1033D02*
X1019Y1033D01*
X1079Y1033D02*
X1079Y1033D01*
X1111Y1033D02*
X1111Y1033D01*
X1193Y1033D02*
X1195Y1033D01*
X1342Y1033D02*
X1344Y1033D01*
X563Y1032D02*
X569Y1032D01*
X783Y1032D02*
X792Y1032D01*
X817Y1032D02*
X836Y1032D01*
X1005Y1032D02*
X1019Y1032D01*
X1079Y1032D02*
X1079Y1032D01*
X1111Y1032D02*
X1111Y1032D01*
X1193Y1032D02*
X1195Y1032D01*
X1342Y1032D02*
X1344Y1032D01*
X563Y1031D02*
X569Y1031D01*
X783Y1031D02*
X789Y1031D01*
X816Y1031D02*
X826Y1031D01*
X830Y1031D02*
X836Y1031D01*
X1005Y1031D02*
X1019Y1031D01*
X1079Y1031D02*
X1079Y1031D01*
X1111Y1031D02*
X1111Y1031D01*
X1193Y1031D02*
X1195Y1031D01*
X1342Y1031D02*
X1344Y1031D01*
X563Y1030D02*
X569Y1030D01*
X783Y1030D02*
X789Y1030D01*
X815Y1030D02*
X825Y1030D01*
X830Y1030D02*
X836Y1030D01*
X1005Y1030D02*
X1019Y1030D01*
X1079Y1030D02*
X1079Y1030D01*
X1111Y1030D02*
X1111Y1030D01*
X1193Y1030D02*
X1195Y1030D01*
X1342Y1030D02*
X1344Y1030D01*
X562Y1029D02*
X569Y1029D01*
X783Y1029D02*
X789Y1029D01*
X813Y1029D02*
X824Y1029D01*
X830Y1029D02*
X836Y1029D01*
X1005Y1029D02*
X1019Y1029D01*
X1079Y1029D02*
X1079Y1029D01*
X1111Y1029D02*
X1114Y1029D01*
X1193Y1029D02*
X1195Y1029D01*
X1342Y1029D02*
X1344Y1029D01*
X562Y1028D02*
X569Y1028D01*
X783Y1028D02*
X789Y1028D01*
X812Y1028D02*
X823Y1028D01*
X830Y1028D02*
X836Y1028D01*
X1005Y1028D02*
X1019Y1028D01*
X1079Y1028D02*
X1079Y1028D01*
X1111Y1028D02*
X1114Y1028D01*
X1193Y1028D02*
X1195Y1028D01*
X1342Y1028D02*
X1344Y1028D01*
X562Y1027D02*
X569Y1027D01*
X783Y1027D02*
X789Y1027D01*
X811Y1027D02*
X821Y1027D01*
X830Y1027D02*
X836Y1027D01*
X1005Y1027D02*
X1019Y1027D01*
X1079Y1027D02*
X1079Y1027D01*
X1111Y1027D02*
X1114Y1027D01*
X1193Y1027D02*
X1195Y1027D01*
X1342Y1027D02*
X1344Y1027D01*
X562Y1026D02*
X569Y1026D01*
X783Y1026D02*
X789Y1026D01*
X809Y1026D02*
X820Y1026D01*
X830Y1026D02*
X836Y1026D01*
X1005Y1026D02*
X1019Y1026D01*
X1079Y1026D02*
X1079Y1026D01*
X1111Y1026D02*
X1114Y1026D01*
X1193Y1026D02*
X1195Y1026D01*
X1342Y1026D02*
X1344Y1026D01*
X562Y1025D02*
X569Y1025D01*
X783Y1025D02*
X789Y1025D01*
X808Y1025D02*
X819Y1025D01*
X830Y1025D02*
X836Y1025D01*
X1005Y1025D02*
X1019Y1025D01*
X1079Y1025D02*
X1079Y1025D01*
X1111Y1025D02*
X1114Y1025D01*
X1193Y1025D02*
X1195Y1025D01*
X1342Y1025D02*
X1344Y1025D01*
X562Y1024D02*
X569Y1024D01*
X783Y1024D02*
X789Y1024D01*
X807Y1024D02*
X817Y1024D01*
X830Y1024D02*
X836Y1024D01*
X1005Y1024D02*
X1019Y1024D01*
X1079Y1024D02*
X1079Y1024D01*
X1111Y1024D02*
X1114Y1024D01*
X1193Y1024D02*
X1195Y1024D01*
X1342Y1024D02*
X1344Y1024D01*
X562Y1023D02*
X569Y1023D01*
X783Y1023D02*
X789Y1023D01*
X806Y1023D02*
X816Y1023D01*
X830Y1023D02*
X836Y1023D01*
X1005Y1023D02*
X1019Y1023D01*
X1079Y1023D02*
X1079Y1023D01*
X1111Y1023D02*
X1114Y1023D01*
X1193Y1023D02*
X1195Y1023D01*
X1342Y1023D02*
X1344Y1023D01*
X562Y1022D02*
X569Y1022D01*
X783Y1022D02*
X789Y1022D01*
X804Y1022D02*
X815Y1022D01*
X830Y1022D02*
X836Y1022D01*
X1005Y1022D02*
X1019Y1022D01*
X1079Y1022D02*
X1079Y1022D01*
X1111Y1022D02*
X1114Y1022D01*
X1193Y1022D02*
X1195Y1022D01*
X1342Y1022D02*
X1344Y1022D01*
X562Y1021D02*
X569Y1021D01*
X783Y1021D02*
X789Y1021D01*
X803Y1021D02*
X814Y1021D01*
X830Y1021D02*
X836Y1021D01*
X1005Y1021D02*
X1019Y1021D01*
X1079Y1021D02*
X1079Y1021D01*
X1111Y1021D02*
X1114Y1021D01*
X1193Y1021D02*
X1195Y1021D01*
X1342Y1021D02*
X1344Y1021D01*
X562Y1020D02*
X569Y1020D01*
X783Y1020D02*
X789Y1020D01*
X802Y1020D02*
X812Y1020D01*
X830Y1020D02*
X836Y1020D01*
X1005Y1020D02*
X1019Y1020D01*
X1079Y1020D02*
X1079Y1020D01*
X1111Y1020D02*
X1114Y1020D01*
X1193Y1020D02*
X1195Y1020D01*
X1342Y1020D02*
X1344Y1020D01*
X562Y1019D02*
X569Y1019D01*
X783Y1019D02*
X789Y1019D01*
X800Y1019D02*
X811Y1019D01*
X830Y1019D02*
X836Y1019D01*
X1005Y1019D02*
X1019Y1019D01*
X1079Y1019D02*
X1079Y1019D01*
X1111Y1019D02*
X1114Y1019D01*
X1193Y1019D02*
X1195Y1019D01*
X1342Y1019D02*
X1344Y1019D01*
X562Y1018D02*
X569Y1018D01*
X783Y1018D02*
X789Y1018D01*
X799Y1018D02*
X810Y1018D01*
X830Y1018D02*
X836Y1018D01*
X1005Y1018D02*
X1019Y1018D01*
X1079Y1018D02*
X1079Y1018D01*
X1111Y1018D02*
X1114Y1018D01*
X1193Y1018D02*
X1195Y1018D01*
X1342Y1018D02*
X1344Y1018D01*
X562Y1017D02*
X569Y1017D01*
X783Y1017D02*
X789Y1017D01*
X798Y1017D02*
X808Y1017D01*
X830Y1017D02*
X836Y1017D01*
X1005Y1017D02*
X1019Y1017D01*
X1079Y1017D02*
X1079Y1017D01*
X1111Y1017D02*
X1114Y1017D01*
X1193Y1017D02*
X1195Y1017D01*
X1342Y1017D02*
X1344Y1017D01*
X562Y1016D02*
X569Y1016D01*
X783Y1016D02*
X789Y1016D01*
X797Y1016D02*
X807Y1016D01*
X830Y1016D02*
X836Y1016D01*
X1005Y1016D02*
X1019Y1016D01*
X1079Y1016D02*
X1079Y1016D01*
X1111Y1016D02*
X1114Y1016D01*
X1193Y1016D02*
X1195Y1016D01*
X1342Y1016D02*
X1344Y1016D01*
X562Y1015D02*
X569Y1015D01*
X783Y1015D02*
X789Y1015D01*
X795Y1015D02*
X806Y1015D01*
X830Y1015D02*
X836Y1015D01*
X1005Y1015D02*
X1019Y1015D01*
X1079Y1015D02*
X1079Y1015D01*
X1111Y1015D02*
X1114Y1015D01*
X1193Y1015D02*
X1195Y1015D01*
X1342Y1015D02*
X1344Y1015D01*
X562Y1014D02*
X569Y1014D01*
X783Y1014D02*
X789Y1014D01*
X794Y1014D02*
X805Y1014D01*
X830Y1014D02*
X836Y1014D01*
X1005Y1014D02*
X1019Y1014D01*
X1079Y1014D02*
X1079Y1014D01*
X1111Y1014D02*
X1114Y1014D01*
X1193Y1014D02*
X1195Y1014D01*
X1342Y1014D02*
X1344Y1014D01*
X562Y1013D02*
X569Y1013D01*
X783Y1013D02*
X789Y1013D01*
X793Y1013D02*
X803Y1013D01*
X830Y1013D02*
X836Y1013D01*
X1005Y1013D02*
X1019Y1013D01*
X1079Y1013D02*
X1079Y1013D01*
X1111Y1013D02*
X1114Y1013D01*
X1193Y1013D02*
X1195Y1013D01*
X1342Y1013D02*
X1344Y1013D01*
X562Y1012D02*
X569Y1012D01*
X783Y1012D02*
X789Y1012D01*
X791Y1012D02*
X802Y1012D01*
X829Y1012D02*
X836Y1012D01*
X1005Y1012D02*
X1019Y1012D01*
X1079Y1012D02*
X1079Y1012D01*
X1111Y1012D02*
X1114Y1012D01*
X1193Y1012D02*
X1195Y1012D01*
X1342Y1012D02*
X1344Y1012D01*
X562Y1011D02*
X569Y1011D01*
X783Y1011D02*
X801Y1011D01*
X826Y1011D02*
X835Y1011D01*
X1005Y1011D02*
X1019Y1011D01*
X1079Y1011D02*
X1079Y1011D01*
X1111Y1011D02*
X1114Y1011D01*
X1193Y1011D02*
X1195Y1011D01*
X1342Y1011D02*
X1344Y1011D01*
X562Y1010D02*
X569Y1010D01*
X783Y1010D02*
X800Y1010D01*
X825Y1010D02*
X835Y1010D01*
X1005Y1010D02*
X1019Y1010D01*
X1079Y1010D02*
X1079Y1010D01*
X1111Y1010D02*
X1114Y1010D01*
X1193Y1010D02*
X1195Y1010D01*
X1342Y1010D02*
X1344Y1010D01*
X562Y1009D02*
X569Y1009D01*
X783Y1009D02*
X798Y1009D01*
X824Y1009D02*
X834Y1009D01*
X1005Y1009D02*
X1019Y1009D01*
X1079Y1009D02*
X1079Y1009D01*
X1111Y1009D02*
X1114Y1009D01*
X1193Y1009D02*
X1195Y1009D01*
X1342Y1009D02*
X1344Y1009D01*
X562Y1008D02*
X569Y1008D01*
X784Y1008D02*
X797Y1008D01*
X824Y1008D02*
X834Y1008D01*
X1005Y1008D02*
X1019Y1008D01*
X1079Y1008D02*
X1079Y1008D01*
X1111Y1008D02*
X1114Y1008D01*
X1193Y1008D02*
X1195Y1008D01*
X1342Y1008D02*
X1344Y1008D01*
X562Y1007D02*
X569Y1007D01*
X785Y1007D02*
X796Y1007D01*
X824Y1007D02*
X833Y1007D01*
X1005Y1007D02*
X1019Y1007D01*
X1079Y1007D02*
X1079Y1007D01*
X1111Y1007D02*
X1114Y1007D01*
X1193Y1007D02*
X1195Y1007D01*
X1342Y1007D02*
X1344Y1007D01*
X562Y1006D02*
X569Y1006D01*
X786Y1006D02*
X794Y1006D01*
X825Y1006D02*
X832Y1006D01*
X1005Y1006D02*
X1019Y1006D01*
X1079Y1006D02*
X1079Y1006D01*
X1111Y1006D02*
X1114Y1006D01*
X1193Y1006D02*
X1195Y1006D01*
X1342Y1006D02*
X1344Y1006D01*
X562Y1005D02*
X569Y1005D01*
X788Y1005D02*
X793Y1005D01*
X826Y1005D02*
X830Y1005D01*
X1005Y1005D02*
X1019Y1005D01*
X1079Y1005D02*
X1079Y1005D01*
X1111Y1005D02*
X1114Y1005D01*
X1193Y1005D02*
X1195Y1005D01*
X1342Y1005D02*
X1344Y1005D01*
X562Y1004D02*
X569Y1004D01*
X1005Y1004D02*
X1019Y1004D01*
X1079Y1004D02*
X1079Y1004D01*
X1111Y1004D02*
X1114Y1004D01*
X1193Y1004D02*
X1195Y1004D01*
X1342Y1004D02*
X1344Y1004D01*
X562Y1003D02*
X569Y1003D01*
X1005Y1003D02*
X1019Y1003D01*
X1079Y1003D02*
X1079Y1003D01*
X1111Y1003D02*
X1114Y1003D01*
X1193Y1003D02*
X1195Y1003D01*
X1342Y1003D02*
X1344Y1003D01*
X562Y1002D02*
X569Y1002D01*
X1005Y1002D02*
X1019Y1002D01*
X1079Y1002D02*
X1079Y1002D01*
X1111Y1002D02*
X1114Y1002D01*
X1193Y1002D02*
X1195Y1002D01*
X1342Y1002D02*
X1344Y1002D01*
X562Y1001D02*
X569Y1001D01*
X1005Y1001D02*
X1019Y1001D01*
X1079Y1001D02*
X1079Y1001D01*
X1111Y1001D02*
X1114Y1001D01*
X1193Y1001D02*
X1195Y1001D01*
X1342Y1001D02*
X1344Y1001D01*
X562Y1000D02*
X569Y1000D01*
X1005Y1000D02*
X1019Y1000D01*
X1079Y1000D02*
X1079Y1000D01*
X1111Y1000D02*
X1114Y1000D01*
X1193Y1000D02*
X1195Y1000D01*
X1342Y1000D02*
X1344Y1000D01*
X562Y999D02*
X569Y999D01*
X1005Y999D02*
X1019Y999D01*
X1079Y999D02*
X1079Y999D01*
X1111Y999D02*
X1114Y999D01*
X1193Y999D02*
X1195Y999D01*
X1342Y999D02*
X1344Y999D01*
X562Y998D02*
X569Y998D01*
X1005Y998D02*
X1019Y998D01*
X1079Y998D02*
X1079Y998D01*
X1111Y998D02*
X1114Y998D01*
X1193Y998D02*
X1195Y998D01*
X1342Y998D02*
X1344Y998D01*
X562Y997D02*
X569Y997D01*
X1005Y997D02*
X1019Y997D01*
X1079Y997D02*
X1079Y997D01*
X1111Y997D02*
X1114Y997D01*
X1193Y997D02*
X1195Y997D01*
X1342Y997D02*
X1344Y997D01*
X562Y996D02*
X569Y996D01*
X1005Y996D02*
X1019Y996D01*
X1079Y996D02*
X1079Y996D01*
X1111Y996D02*
X1114Y996D01*
X1193Y996D02*
X1195Y996D01*
X1342Y996D02*
X1344Y996D01*
X562Y995D02*
X569Y995D01*
X1005Y995D02*
X1019Y995D01*
X1079Y995D02*
X1079Y995D01*
X1111Y995D02*
X1111Y995D01*
X1193Y995D02*
X1195Y995D01*
X1342Y995D02*
X1344Y995D01*
X562Y994D02*
X569Y994D01*
X1005Y994D02*
X1019Y994D01*
X1079Y994D02*
X1079Y994D01*
X1111Y994D02*
X1111Y994D01*
X1193Y994D02*
X1195Y994D01*
X1342Y994D02*
X1344Y994D01*
X562Y993D02*
X569Y993D01*
X1005Y993D02*
X1019Y993D01*
X1079Y993D02*
X1079Y993D01*
X1111Y993D02*
X1111Y993D01*
X1193Y993D02*
X1195Y993D01*
X1342Y993D02*
X1344Y993D01*
X562Y992D02*
X569Y992D01*
X1005Y992D02*
X1019Y992D01*
X1079Y992D02*
X1079Y992D01*
X1111Y992D02*
X1111Y992D01*
X1193Y992D02*
X1195Y992D01*
X1342Y992D02*
X1344Y992D01*
X562Y991D02*
X569Y991D01*
X1005Y991D02*
X1019Y991D01*
X1076Y991D02*
X1079Y991D01*
X1111Y991D02*
X1111Y991D01*
X1193Y991D02*
X1195Y991D01*
X1342Y991D02*
X1344Y991D01*
X562Y990D02*
X569Y990D01*
X1005Y990D02*
X1019Y990D01*
X1076Y990D02*
X1079Y990D01*
X1111Y990D02*
X1111Y990D01*
X1193Y990D02*
X1195Y990D01*
X1342Y990D02*
X1344Y990D01*
X562Y989D02*
X569Y989D01*
X1005Y989D02*
X1019Y989D01*
X1076Y989D02*
X1079Y989D01*
X1111Y989D02*
X1111Y989D01*
X1193Y989D02*
X1195Y989D01*
X1342Y989D02*
X1344Y989D01*
X562Y988D02*
X569Y988D01*
X783Y988D02*
X809Y988D01*
X831Y988D02*
X835Y988D01*
X1005Y988D02*
X1019Y988D01*
X1076Y988D02*
X1079Y988D01*
X1111Y988D02*
X1111Y988D01*
X1193Y988D02*
X1195Y988D01*
X1342Y988D02*
X1344Y988D01*
X562Y987D02*
X569Y987D01*
X783Y987D02*
X810Y987D01*
X830Y987D02*
X835Y987D01*
X1005Y987D02*
X1019Y987D01*
X1076Y987D02*
X1079Y987D01*
X1111Y987D02*
X1111Y987D01*
X1193Y987D02*
X1195Y987D01*
X1342Y987D02*
X1344Y987D01*
X562Y986D02*
X569Y986D01*
X783Y986D02*
X811Y986D01*
X830Y986D02*
X836Y986D01*
X1005Y986D02*
X1019Y986D01*
X1076Y986D02*
X1079Y986D01*
X1111Y986D02*
X1111Y986D01*
X1193Y986D02*
X1195Y986D01*
X1342Y986D02*
X1344Y986D01*
X562Y985D02*
X569Y985D01*
X783Y985D02*
X811Y985D01*
X830Y985D02*
X836Y985D01*
X1005Y985D02*
X1019Y985D01*
X1076Y985D02*
X1079Y985D01*
X1111Y985D02*
X1111Y985D01*
X1193Y985D02*
X1195Y985D01*
X1342Y985D02*
X1344Y985D01*
X562Y984D02*
X569Y984D01*
X783Y984D02*
X812Y984D01*
X830Y984D02*
X836Y984D01*
X1005Y984D02*
X1019Y984D01*
X1076Y984D02*
X1079Y984D01*
X1111Y984D02*
X1111Y984D01*
X1193Y984D02*
X1195Y984D01*
X1342Y984D02*
X1344Y984D01*
X562Y983D02*
X569Y983D01*
X783Y983D02*
X812Y983D01*
X830Y983D02*
X836Y983D01*
X1005Y983D02*
X1019Y983D01*
X1076Y983D02*
X1079Y983D01*
X1111Y983D02*
X1111Y983D01*
X1193Y983D02*
X1195Y983D01*
X1342Y983D02*
X1344Y983D01*
X562Y982D02*
X569Y982D01*
X783Y982D02*
X812Y982D01*
X830Y982D02*
X836Y982D01*
X1005Y982D02*
X1019Y982D01*
X1076Y982D02*
X1079Y982D01*
X1111Y982D02*
X1111Y982D01*
X1193Y982D02*
X1195Y982D01*
X1342Y982D02*
X1344Y982D01*
X562Y981D02*
X569Y981D01*
X783Y981D02*
X789Y981D01*
X806Y981D02*
X812Y981D01*
X830Y981D02*
X836Y981D01*
X1005Y981D02*
X1019Y981D01*
X1076Y981D02*
X1079Y981D01*
X1111Y981D02*
X1111Y981D01*
X1193Y981D02*
X1195Y981D01*
X1342Y981D02*
X1344Y981D01*
X562Y980D02*
X569Y980D01*
X783Y980D02*
X789Y980D01*
X806Y980D02*
X812Y980D01*
X830Y980D02*
X836Y980D01*
X1005Y980D02*
X1019Y980D01*
X1076Y980D02*
X1079Y980D01*
X1111Y980D02*
X1111Y980D01*
X1193Y980D02*
X1195Y980D01*
X1342Y980D02*
X1344Y980D01*
X562Y979D02*
X569Y979D01*
X783Y979D02*
X789Y979D01*
X806Y979D02*
X812Y979D01*
X830Y979D02*
X836Y979D01*
X1005Y979D02*
X1019Y979D01*
X1076Y979D02*
X1079Y979D01*
X1111Y979D02*
X1111Y979D01*
X1193Y979D02*
X1195Y979D01*
X1342Y979D02*
X1344Y979D01*
X562Y978D02*
X569Y978D01*
X783Y978D02*
X789Y978D01*
X806Y978D02*
X812Y978D01*
X830Y978D02*
X836Y978D01*
X1005Y978D02*
X1019Y978D01*
X1076Y978D02*
X1079Y978D01*
X1111Y978D02*
X1111Y978D01*
X1193Y978D02*
X1195Y978D01*
X1342Y978D02*
X1344Y978D01*
X562Y977D02*
X569Y977D01*
X783Y977D02*
X789Y977D01*
X806Y977D02*
X812Y977D01*
X830Y977D02*
X836Y977D01*
X1005Y977D02*
X1019Y977D01*
X1076Y977D02*
X1079Y977D01*
X1111Y977D02*
X1111Y977D01*
X1193Y977D02*
X1195Y977D01*
X1342Y977D02*
X1344Y977D01*
X562Y976D02*
X569Y976D01*
X783Y976D02*
X789Y976D01*
X806Y976D02*
X812Y976D01*
X830Y976D02*
X836Y976D01*
X1005Y976D02*
X1019Y976D01*
X1076Y976D02*
X1079Y976D01*
X1111Y976D02*
X1111Y976D01*
X1193Y976D02*
X1195Y976D01*
X1342Y976D02*
X1344Y976D01*
X562Y975D02*
X569Y975D01*
X783Y975D02*
X789Y975D01*
X806Y975D02*
X812Y975D01*
X830Y975D02*
X836Y975D01*
X1005Y975D02*
X1019Y975D01*
X1076Y975D02*
X1079Y975D01*
X1111Y975D02*
X1111Y975D01*
X1193Y975D02*
X1195Y975D01*
X1261Y975D02*
X1276Y975D01*
X1342Y975D02*
X1344Y975D01*
X562Y974D02*
X569Y974D01*
X783Y974D02*
X789Y974D01*
X806Y974D02*
X812Y974D01*
X830Y974D02*
X836Y974D01*
X1005Y974D02*
X1019Y974D01*
X1076Y974D02*
X1079Y974D01*
X1111Y974D02*
X1111Y974D01*
X1193Y974D02*
X1344Y974D01*
X562Y973D02*
X569Y973D01*
X783Y973D02*
X789Y973D01*
X806Y973D02*
X812Y973D01*
X830Y973D02*
X836Y973D01*
X1005Y973D02*
X1019Y973D01*
X1076Y973D02*
X1079Y973D01*
X1111Y973D02*
X1111Y973D01*
X1193Y973D02*
X1344Y973D01*
X562Y972D02*
X569Y972D01*
X783Y972D02*
X789Y972D01*
X806Y972D02*
X812Y972D01*
X830Y972D02*
X836Y972D01*
X1005Y972D02*
X1019Y972D01*
X1076Y972D02*
X1079Y972D01*
X1111Y972D02*
X1111Y972D01*
X1193Y972D02*
X1344Y972D01*
X562Y971D02*
X569Y971D01*
X783Y971D02*
X789Y971D01*
X806Y971D02*
X812Y971D01*
X830Y971D02*
X836Y971D01*
X1005Y971D02*
X1019Y971D01*
X1076Y971D02*
X1079Y971D01*
X1111Y971D02*
X1111Y971D01*
X562Y970D02*
X569Y970D01*
X783Y970D02*
X789Y970D01*
X806Y970D02*
X812Y970D01*
X830Y970D02*
X836Y970D01*
X1005Y970D02*
X1019Y970D01*
X1076Y970D02*
X1079Y970D01*
X1111Y970D02*
X1111Y970D01*
X562Y969D02*
X569Y969D01*
X783Y969D02*
X789Y969D01*
X806Y969D02*
X812Y969D01*
X830Y969D02*
X836Y969D01*
X1005Y969D02*
X1019Y969D01*
X1076Y969D02*
X1079Y969D01*
X1111Y969D02*
X1111Y969D01*
X562Y968D02*
X569Y968D01*
X783Y968D02*
X789Y968D01*
X806Y968D02*
X812Y968D01*
X830Y968D02*
X836Y968D01*
X1005Y968D02*
X1019Y968D01*
X1076Y968D02*
X1079Y968D01*
X1111Y968D02*
X1111Y968D01*
X562Y967D02*
X569Y967D01*
X783Y967D02*
X789Y967D01*
X806Y967D02*
X812Y967D01*
X830Y967D02*
X836Y967D01*
X1005Y967D02*
X1019Y967D01*
X1076Y967D02*
X1079Y967D01*
X1111Y967D02*
X1111Y967D01*
X562Y966D02*
X569Y966D01*
X783Y966D02*
X789Y966D01*
X806Y966D02*
X812Y966D01*
X830Y966D02*
X836Y966D01*
X1005Y966D02*
X1019Y966D01*
X1076Y966D02*
X1079Y966D01*
X1111Y966D02*
X1111Y966D01*
X562Y965D02*
X569Y965D01*
X783Y965D02*
X789Y965D01*
X806Y965D02*
X812Y965D01*
X830Y965D02*
X836Y965D01*
X1005Y965D02*
X1019Y965D01*
X1076Y965D02*
X1079Y965D01*
X1111Y965D02*
X1111Y965D01*
X1180Y965D02*
X1197Y965D01*
X1212Y965D02*
X1214Y965D01*
X562Y964D02*
X569Y964D01*
X783Y964D02*
X789Y964D01*
X806Y964D02*
X812Y964D01*
X830Y964D02*
X836Y964D01*
X1005Y964D02*
X1019Y964D01*
X1076Y964D02*
X1079Y964D01*
X1111Y964D02*
X1111Y964D01*
X1180Y964D02*
X1198Y964D01*
X1211Y964D02*
X1215Y964D01*
X562Y963D02*
X569Y963D01*
X783Y963D02*
X789Y963D01*
X806Y963D02*
X812Y963D01*
X830Y963D02*
X836Y963D01*
X1005Y963D02*
X1019Y963D01*
X1076Y963D02*
X1079Y963D01*
X1111Y963D02*
X1111Y963D01*
X1180Y963D02*
X1199Y963D01*
X1211Y963D02*
X1215Y963D01*
X562Y962D02*
X569Y962D01*
X783Y962D02*
X789Y962D01*
X806Y962D02*
X812Y962D01*
X830Y962D02*
X836Y962D01*
X1005Y962D02*
X1019Y962D01*
X1076Y962D02*
X1079Y962D01*
X1111Y962D02*
X1111Y962D01*
X1180Y962D02*
X1200Y962D01*
X1211Y962D02*
X1215Y962D01*
X1225Y962D02*
X1226Y962D01*
X562Y961D02*
X569Y961D01*
X783Y961D02*
X789Y961D01*
X806Y961D02*
X836Y961D01*
X1005Y961D02*
X1019Y961D01*
X1076Y961D02*
X1079Y961D01*
X1111Y961D02*
X1111Y961D01*
X1180Y961D02*
X1184Y961D01*
X1196Y961D02*
X1200Y961D01*
X1211Y961D02*
X1215Y961D01*
X1224Y961D02*
X1227Y961D01*
X562Y960D02*
X569Y960D01*
X783Y960D02*
X789Y960D01*
X806Y960D02*
X836Y960D01*
X1005Y960D02*
X1019Y960D01*
X1076Y960D02*
X1079Y960D01*
X1111Y960D02*
X1111Y960D01*
X1180Y960D02*
X1184Y960D01*
X1197Y960D02*
X1200Y960D01*
X1211Y960D02*
X1215Y960D01*
X1224Y960D02*
X1227Y960D01*
X562Y959D02*
X569Y959D01*
X783Y959D02*
X789Y959D01*
X807Y959D02*
X835Y959D01*
X1005Y959D02*
X1019Y959D01*
X1076Y959D02*
X1079Y959D01*
X1111Y959D02*
X1111Y959D01*
X1180Y959D02*
X1184Y959D01*
X1197Y959D02*
X1200Y959D01*
X1211Y959D02*
X1215Y959D01*
X1224Y959D02*
X1227Y959D01*
X562Y958D02*
X569Y958D01*
X783Y958D02*
X789Y958D01*
X807Y958D02*
X835Y958D01*
X1005Y958D02*
X1019Y958D01*
X1076Y958D02*
X1079Y958D01*
X1111Y958D02*
X1111Y958D01*
X1180Y958D02*
X1184Y958D01*
X1197Y958D02*
X1200Y958D01*
X1211Y958D02*
X1215Y958D01*
X1224Y958D02*
X1227Y958D01*
X562Y957D02*
X569Y957D01*
X783Y957D02*
X789Y957D01*
X808Y957D02*
X834Y957D01*
X1005Y957D02*
X1019Y957D01*
X1076Y957D02*
X1111Y957D01*
X1180Y957D02*
X1184Y957D01*
X1197Y957D02*
X1200Y957D01*
X1211Y957D02*
X1215Y957D01*
X1224Y957D02*
X1227Y957D01*
X562Y956D02*
X569Y956D01*
X783Y956D02*
X788Y956D01*
X809Y956D02*
X833Y956D01*
X1005Y956D02*
X1019Y956D01*
X1076Y956D02*
X1111Y956D01*
X1180Y956D02*
X1184Y956D01*
X1196Y956D02*
X1200Y956D01*
X1211Y956D02*
X1215Y956D01*
X1224Y956D02*
X1227Y956D01*
X562Y955D02*
X569Y955D01*
X784Y955D02*
X787Y955D01*
X810Y955D02*
X832Y955D01*
X1005Y955D02*
X1019Y955D01*
X1076Y955D02*
X1111Y955D01*
X1180Y955D02*
X1200Y955D01*
X1211Y955D02*
X1215Y955D01*
X1224Y955D02*
X1227Y955D01*
X562Y954D02*
X569Y954D01*
X1005Y954D02*
X1019Y954D01*
X1076Y954D02*
X1114Y954D01*
X1180Y954D02*
X1199Y954D01*
X1211Y954D02*
X1215Y954D01*
X1224Y954D02*
X1227Y954D01*
X562Y953D02*
X569Y953D01*
X1005Y953D02*
X1019Y953D01*
X1180Y953D02*
X1198Y953D01*
X1211Y953D02*
X1215Y953D01*
X1224Y953D02*
X1227Y953D01*
X562Y952D02*
X569Y952D01*
X1005Y952D02*
X1019Y952D01*
X1180Y952D02*
X1197Y952D01*
X1211Y952D02*
X1215Y952D01*
X1224Y952D02*
X1227Y952D01*
X562Y951D02*
X569Y951D01*
X1005Y951D02*
X1019Y951D01*
X1180Y951D02*
X1184Y951D01*
X1187Y951D02*
X1192Y951D01*
X1211Y951D02*
X1215Y951D01*
X1224Y951D02*
X1227Y951D01*
X562Y950D02*
X569Y950D01*
X1005Y950D02*
X1019Y950D01*
X1180Y950D02*
X1184Y950D01*
X1188Y950D02*
X1192Y950D01*
X1211Y950D02*
X1215Y950D01*
X1224Y950D02*
X1227Y950D01*
X562Y949D02*
X569Y949D01*
X1005Y949D02*
X1019Y949D01*
X1180Y949D02*
X1184Y949D01*
X1189Y949D02*
X1193Y949D01*
X1211Y949D02*
X1215Y949D01*
X1224Y949D02*
X1227Y949D01*
X562Y948D02*
X569Y948D01*
X1005Y948D02*
X1019Y948D01*
X1180Y948D02*
X1184Y948D01*
X1189Y948D02*
X1193Y948D01*
X1211Y948D02*
X1228Y948D01*
X562Y947D02*
X569Y947D01*
X1005Y947D02*
X1019Y947D01*
X1180Y947D02*
X1184Y947D01*
X1190Y947D02*
X1194Y947D01*
X1211Y947D02*
X1229Y947D01*
X562Y946D02*
X569Y946D01*
X1005Y946D02*
X1019Y946D01*
X1180Y946D02*
X1184Y946D01*
X1190Y946D02*
X1194Y946D01*
X1211Y946D02*
X1229Y946D01*
X562Y945D02*
X569Y945D01*
X1005Y945D02*
X1019Y945D01*
X1180Y945D02*
X1184Y945D01*
X1191Y945D02*
X1195Y945D01*
X1211Y945D02*
X1229Y945D01*
X562Y944D02*
X569Y944D01*
X1005Y944D02*
X1019Y944D01*
X1180Y944D02*
X1184Y944D01*
X1192Y944D02*
X1196Y944D01*
X1212Y944D02*
X1227Y944D01*
X562Y943D02*
X569Y943D01*
X1005Y943D02*
X1019Y943D01*
X1180Y943D02*
X1184Y943D01*
X1192Y943D02*
X1196Y943D01*
X1224Y943D02*
X1227Y943D01*
X562Y942D02*
X569Y942D01*
X1005Y942D02*
X1019Y942D01*
X1180Y942D02*
X1184Y942D01*
X1193Y942D02*
X1197Y942D01*
X1224Y942D02*
X1227Y942D01*
X562Y941D02*
X569Y941D01*
X1005Y941D02*
X1019Y941D01*
X1180Y941D02*
X1184Y941D01*
X1193Y941D02*
X1197Y941D01*
X1224Y941D02*
X1227Y941D01*
X562Y940D02*
X569Y940D01*
X1005Y940D02*
X1019Y940D01*
X1180Y940D02*
X1184Y940D01*
X1194Y940D02*
X1198Y940D01*
X1224Y940D02*
X1227Y940D01*
X562Y939D02*
X569Y939D01*
X1005Y939D02*
X1019Y939D01*
X1180Y939D02*
X1184Y939D01*
X1195Y939D02*
X1198Y939D01*
X1224Y939D02*
X1227Y939D01*
X562Y938D02*
X569Y938D01*
X825Y938D02*
X835Y938D01*
X1005Y938D02*
X1019Y938D01*
X1180Y938D02*
X1184Y938D01*
X1195Y938D02*
X1199Y938D01*
X1224Y938D02*
X1227Y938D01*
X562Y937D02*
X569Y937D01*
X824Y937D02*
X835Y937D01*
X1005Y937D02*
X1019Y937D01*
X1180Y937D02*
X1184Y937D01*
X1196Y937D02*
X1200Y937D01*
X1224Y937D02*
X1227Y937D01*
X562Y936D02*
X569Y936D01*
X822Y936D02*
X836Y936D01*
X1005Y936D02*
X1019Y936D01*
X1180Y936D02*
X1184Y936D01*
X1196Y936D02*
X1200Y936D01*
X1224Y936D02*
X1227Y936D01*
X562Y935D02*
X569Y935D01*
X821Y935D02*
X836Y935D01*
X1005Y935D02*
X1019Y935D01*
X1181Y935D02*
X1184Y935D01*
X1197Y935D02*
X1200Y935D01*
X1224Y935D02*
X1227Y935D01*
X562Y934D02*
X569Y934D01*
X820Y934D02*
X835Y934D01*
X1005Y934D02*
X1019Y934D01*
X1181Y934D02*
X1183Y934D01*
X1198Y934D02*
X1199Y934D01*
X1225Y934D02*
X1226Y934D01*
X562Y933D02*
X569Y933D01*
X819Y933D02*
X835Y933D01*
X1005Y933D02*
X1019Y933D01*
X562Y932D02*
X569Y932D01*
X817Y932D02*
X833Y932D01*
X1005Y932D02*
X1019Y932D01*
X562Y931D02*
X569Y931D01*
X816Y931D02*
X826Y931D01*
X1005Y931D02*
X1019Y931D01*
X562Y930D02*
X569Y930D01*
X815Y930D02*
X825Y930D01*
X1005Y930D02*
X1019Y930D01*
X1357Y930D02*
X1371Y930D01*
X562Y929D02*
X569Y929D01*
X813Y929D02*
X824Y929D01*
X1005Y929D02*
X1019Y929D01*
X1356Y929D02*
X1373Y929D01*
X562Y928D02*
X569Y928D01*
X812Y928D02*
X823Y928D01*
X1005Y928D02*
X1019Y928D01*
X1355Y928D02*
X1374Y928D01*
X562Y927D02*
X569Y927D01*
X811Y927D02*
X821Y927D01*
X1005Y927D02*
X1019Y927D01*
X1028Y927D02*
X1058Y927D01*
X1354Y927D02*
X1375Y927D01*
X562Y926D02*
X569Y926D01*
X810Y926D02*
X820Y926D01*
X1005Y926D02*
X1019Y926D01*
X1027Y926D02*
X1059Y926D01*
X1353Y926D02*
X1375Y926D01*
X562Y925D02*
X569Y925D01*
X785Y925D02*
X819Y925D01*
X1005Y925D02*
X1019Y925D01*
X1027Y925D02*
X1059Y925D01*
X1352Y925D02*
X1357Y925D01*
X1371Y925D02*
X1376Y925D01*
X562Y924D02*
X569Y924D01*
X784Y924D02*
X817Y924D01*
X1005Y924D02*
X1019Y924D01*
X1028Y924D02*
X1059Y924D01*
X1352Y924D02*
X1356Y924D01*
X1372Y924D02*
X1377Y924D01*
X562Y923D02*
X569Y923D01*
X783Y923D02*
X816Y923D01*
X1005Y923D02*
X1019Y923D01*
X1044Y923D02*
X1048Y923D01*
X1055Y923D02*
X1059Y923D01*
X1352Y923D02*
X1356Y923D01*
X1373Y923D02*
X1377Y923D01*
X562Y922D02*
X569Y922D01*
X783Y922D02*
X815Y922D01*
X1005Y922D02*
X1019Y922D01*
X1045Y922D02*
X1048Y922D01*
X1055Y922D02*
X1059Y922D01*
X1352Y922D02*
X1355Y922D01*
X1373Y922D02*
X1377Y922D01*
X562Y921D02*
X569Y921D01*
X783Y921D02*
X815Y921D01*
X1005Y921D02*
X1019Y921D01*
X1045Y921D02*
X1048Y921D01*
X1055Y921D02*
X1059Y921D01*
X1352Y921D02*
X1355Y921D01*
X1373Y921D02*
X1377Y921D01*
X562Y920D02*
X569Y920D01*
X783Y920D02*
X817Y920D01*
X1005Y920D02*
X1019Y920D01*
X1044Y920D02*
X1048Y920D01*
X1055Y920D02*
X1059Y920D01*
X1352Y920D02*
X1355Y920D01*
X1373Y920D02*
X1377Y920D01*
X562Y919D02*
X569Y919D01*
X784Y919D02*
X818Y919D01*
X1005Y919D02*
X1019Y919D01*
X1043Y919D02*
X1048Y919D01*
X1055Y919D02*
X1059Y919D01*
X1352Y919D02*
X1355Y919D01*
X1373Y919D02*
X1377Y919D01*
X562Y918D02*
X569Y918D01*
X809Y918D02*
X819Y918D01*
X1005Y918D02*
X1019Y918D01*
X1041Y918D02*
X1048Y918D01*
X1055Y918D02*
X1059Y918D01*
X1352Y918D02*
X1355Y918D01*
X1373Y918D02*
X1377Y918D01*
X562Y917D02*
X569Y917D01*
X810Y917D02*
X820Y917D01*
X1005Y917D02*
X1019Y917D01*
X1039Y917D02*
X1048Y917D01*
X1055Y917D02*
X1059Y917D01*
X1352Y917D02*
X1355Y917D01*
X1373Y917D02*
X1377Y917D01*
X562Y916D02*
X569Y916D01*
X811Y916D02*
X822Y916D01*
X1005Y916D02*
X1019Y916D01*
X1037Y916D02*
X1048Y916D01*
X1055Y916D02*
X1059Y916D01*
X1352Y916D02*
X1355Y916D01*
X1373Y916D02*
X1377Y916D01*
X562Y915D02*
X569Y915D01*
X813Y915D02*
X823Y915D01*
X1005Y915D02*
X1019Y915D01*
X1036Y915D02*
X1048Y915D01*
X1055Y915D02*
X1059Y915D01*
X1352Y915D02*
X1356Y915D01*
X1373Y915D02*
X1377Y915D01*
X563Y914D02*
X568Y914D01*
X814Y914D02*
X824Y914D01*
X1005Y914D02*
X1019Y914D01*
X1034Y914D02*
X1041Y914D01*
X1045Y914D02*
X1048Y914D01*
X1055Y914D02*
X1059Y914D01*
X1352Y914D02*
X1357Y914D01*
X1372Y914D02*
X1376Y914D01*
X564Y913D02*
X567Y913D01*
X815Y913D02*
X826Y913D01*
X1005Y913D02*
X1019Y913D01*
X1032Y913D02*
X1040Y913D01*
X1045Y913D02*
X1048Y913D01*
X1055Y913D02*
X1059Y913D01*
X1353Y913D02*
X1357Y913D01*
X1371Y913D02*
X1376Y913D01*
X816Y912D02*
X827Y912D01*
X1005Y912D02*
X1019Y912D01*
X1031Y912D02*
X1038Y912D01*
X1045Y912D02*
X1048Y912D01*
X1055Y912D02*
X1058Y912D01*
X1353Y912D02*
X1375Y912D01*
X818Y911D02*
X834Y911D01*
X1005Y911D02*
X1019Y911D01*
X1029Y911D02*
X1036Y911D01*
X1045Y911D02*
X1049Y911D01*
X1054Y911D02*
X1058Y911D01*
X1354Y911D02*
X1375Y911D01*
X819Y910D02*
X835Y910D01*
X1005Y910D02*
X1019Y910D01*
X1028Y910D02*
X1035Y910D01*
X1046Y910D02*
X1058Y910D01*
X1355Y910D02*
X1374Y910D01*
X820Y909D02*
X836Y909D01*
X1005Y909D02*
X1019Y909D01*
X1027Y909D02*
X1033Y909D01*
X1046Y909D02*
X1057Y909D01*
X1356Y909D02*
X1373Y909D01*
X822Y908D02*
X836Y908D01*
X1005Y908D02*
X1019Y908D01*
X1027Y908D02*
X1031Y908D01*
X1047Y908D02*
X1056Y908D01*
X1358Y908D02*
X1371Y908D01*
X823Y907D02*
X836Y907D01*
X1005Y907D02*
X1019Y907D01*
X1028Y907D02*
X1029Y907D01*
X1049Y907D02*
X1054Y907D01*
X824Y906D02*
X835Y906D01*
X1005Y906D02*
X1019Y906D01*
X825Y905D02*
X834Y905D01*
X1005Y905D02*
X1019Y905D01*
X1005Y904D02*
X1019Y904D01*
X1005Y903D02*
X1019Y903D01*
X1005Y902D02*
X1019Y902D01*
X1005Y901D02*
X1019Y901D01*
X1005Y900D02*
X1019Y900D01*
X1005Y899D02*
X1019Y899D01*
X1005Y898D02*
X1019Y898D01*
X1005Y897D02*
X1019Y897D01*
X1028Y897D02*
X1029Y897D01*
X1056Y897D02*
X1058Y897D01*
X1353Y897D02*
X1376Y897D01*
X1005Y896D02*
X1019Y896D01*
X1027Y896D02*
X1030Y896D01*
X1056Y896D02*
X1058Y896D01*
X1352Y896D02*
X1377Y896D01*
X1005Y895D02*
X1019Y895D01*
X1027Y895D02*
X1030Y895D01*
X1055Y895D02*
X1059Y895D01*
X1352Y895D02*
X1377Y895D01*
X1005Y894D02*
X1019Y894D01*
X1027Y894D02*
X1030Y894D01*
X1055Y894D02*
X1059Y894D01*
X1352Y894D02*
X1377Y894D01*
X1005Y893D02*
X1019Y893D01*
X1027Y893D02*
X1030Y893D01*
X1055Y893D02*
X1059Y893D01*
X1353Y893D02*
X1375Y893D01*
X1005Y892D02*
X1019Y892D01*
X1027Y892D02*
X1030Y892D01*
X1055Y892D02*
X1059Y892D01*
X1369Y892D02*
X1373Y892D01*
X1005Y891D02*
X1019Y891D01*
X1027Y891D02*
X1030Y891D01*
X1055Y891D02*
X1059Y891D01*
X1369Y891D02*
X1374Y891D01*
X1005Y890D02*
X1019Y890D01*
X1027Y890D02*
X1030Y890D01*
X1055Y890D02*
X1059Y890D01*
X1370Y890D02*
X1375Y890D01*
X1005Y889D02*
X1019Y889D01*
X1027Y889D02*
X1059Y889D01*
X1371Y889D02*
X1375Y889D01*
X804Y888D02*
X811Y888D01*
X1005Y888D02*
X1019Y888D01*
X1027Y888D02*
X1059Y888D01*
X1371Y888D02*
X1376Y888D01*
X804Y887D02*
X812Y887D01*
X1005Y887D02*
X1019Y887D01*
X1027Y887D02*
X1059Y887D01*
X1372Y887D02*
X1376Y887D01*
X803Y886D02*
X812Y886D01*
X1005Y886D02*
X1019Y886D01*
X1027Y886D02*
X1059Y886D01*
X1373Y886D02*
X1377Y886D01*
X803Y885D02*
X812Y885D01*
X1005Y885D02*
X1019Y885D01*
X1027Y885D02*
X1058Y885D01*
X1373Y885D02*
X1377Y885D01*
X803Y884D02*
X812Y884D01*
X1005Y884D02*
X1019Y884D01*
X1027Y884D02*
X1030Y884D01*
X1373Y884D02*
X1377Y884D01*
X803Y883D02*
X812Y883D01*
X1005Y883D02*
X1019Y883D01*
X1027Y883D02*
X1030Y883D01*
X1373Y883D02*
X1377Y883D01*
X803Y882D02*
X812Y882D01*
X1005Y882D02*
X1019Y882D01*
X1027Y882D02*
X1030Y882D01*
X1373Y882D02*
X1377Y882D01*
X803Y881D02*
X812Y881D01*
X1005Y881D02*
X1019Y881D01*
X1027Y881D02*
X1030Y881D01*
X1373Y881D02*
X1377Y881D01*
X803Y880D02*
X812Y880D01*
X1005Y880D02*
X1019Y880D01*
X1027Y880D02*
X1040Y880D01*
X1372Y880D02*
X1377Y880D01*
X803Y879D02*
X812Y879D01*
X1005Y879D02*
X1019Y879D01*
X1027Y879D02*
X1041Y879D01*
X1121Y879D02*
X1195Y879D01*
X1353Y879D02*
X1376Y879D01*
X803Y878D02*
X812Y878D01*
X1005Y878D02*
X1019Y878D01*
X1027Y878D02*
X1110Y878D01*
X1121Y878D02*
X1195Y878D01*
X1352Y878D02*
X1375Y878D01*
X803Y877D02*
X812Y877D01*
X1005Y877D02*
X1019Y877D01*
X1028Y877D02*
X1110Y877D01*
X1121Y877D02*
X1195Y877D01*
X1352Y877D02*
X1375Y877D01*
X803Y876D02*
X812Y876D01*
X1005Y876D02*
X1019Y876D01*
X1036Y876D02*
X1110Y876D01*
X1121Y876D02*
X1123Y876D01*
X1193Y876D02*
X1195Y876D01*
X1352Y876D02*
X1373Y876D01*
X803Y875D02*
X812Y875D01*
X1005Y875D02*
X1019Y875D01*
X1036Y875D02*
X1038Y875D01*
X1108Y875D02*
X1110Y875D01*
X1121Y875D02*
X1123Y875D01*
X1193Y875D02*
X1195Y875D01*
X1353Y875D02*
X1369Y875D01*
X803Y874D02*
X812Y874D01*
X1005Y874D02*
X1019Y874D01*
X1036Y874D02*
X1038Y874D01*
X1108Y874D02*
X1110Y874D01*
X1121Y874D02*
X1123Y874D01*
X1193Y874D02*
X1195Y874D01*
X803Y873D02*
X812Y873D01*
X1005Y873D02*
X1019Y873D01*
X1036Y873D02*
X1038Y873D01*
X1108Y873D02*
X1110Y873D01*
X1121Y873D02*
X1123Y873D01*
X1193Y873D02*
X1195Y873D01*
X803Y872D02*
X812Y872D01*
X1007Y872D02*
X1019Y872D01*
X1036Y872D02*
X1038Y872D01*
X1108Y872D02*
X1110Y872D01*
X1121Y872D02*
X1123Y872D01*
X1193Y872D02*
X1195Y872D01*
X803Y871D02*
X812Y871D01*
X1010Y871D02*
X1019Y871D01*
X1036Y871D02*
X1038Y871D01*
X1108Y871D02*
X1110Y871D01*
X1121Y871D02*
X1123Y871D01*
X1193Y871D02*
X1195Y871D01*
X803Y870D02*
X812Y870D01*
X1012Y870D02*
X1019Y870D01*
X1036Y870D02*
X1038Y870D01*
X1108Y870D02*
X1110Y870D01*
X1121Y870D02*
X1123Y870D01*
X1193Y870D02*
X1195Y870D01*
X803Y869D02*
X812Y869D01*
X1014Y869D02*
X1019Y869D01*
X1036Y869D02*
X1038Y869D01*
X1108Y869D02*
X1110Y869D01*
X1121Y869D02*
X1123Y869D01*
X1193Y869D02*
X1195Y869D01*
X803Y868D02*
X812Y868D01*
X1016Y868D02*
X1019Y868D01*
X1036Y868D02*
X1038Y868D01*
X1108Y868D02*
X1110Y868D01*
X1121Y868D02*
X1123Y868D01*
X1193Y868D02*
X1195Y868D01*
X803Y867D02*
X812Y867D01*
X1017Y867D02*
X1019Y867D01*
X1036Y867D02*
X1038Y867D01*
X1108Y867D02*
X1110Y867D01*
X1121Y867D02*
X1123Y867D01*
X1193Y867D02*
X1195Y867D01*
X803Y866D02*
X812Y866D01*
X1019Y866D02*
X1019Y866D01*
X1036Y866D02*
X1038Y866D01*
X1108Y866D02*
X1110Y866D01*
X1121Y866D02*
X1123Y866D01*
X1193Y866D02*
X1195Y866D01*
X803Y865D02*
X812Y865D01*
X1036Y865D02*
X1038Y865D01*
X1108Y865D02*
X1110Y865D01*
X1121Y865D02*
X1123Y865D01*
X1193Y865D02*
X1195Y865D01*
X803Y864D02*
X812Y864D01*
X1036Y864D02*
X1038Y864D01*
X1108Y864D02*
X1110Y864D01*
X1121Y864D02*
X1123Y864D01*
X1193Y864D02*
X1195Y864D01*
X803Y863D02*
X812Y863D01*
X1036Y863D02*
X1038Y863D01*
X1108Y863D02*
X1110Y863D01*
X1121Y863D02*
X1123Y863D01*
X1193Y863D02*
X1195Y863D01*
X803Y862D02*
X812Y862D01*
X1036Y862D02*
X1038Y862D01*
X1108Y862D02*
X1110Y862D01*
X1121Y862D02*
X1123Y862D01*
X1193Y862D02*
X1195Y862D01*
X803Y861D02*
X812Y861D01*
X1036Y861D02*
X1038Y861D01*
X1108Y861D02*
X1110Y861D01*
X1121Y861D02*
X1123Y861D01*
X1193Y861D02*
X1195Y861D01*
X803Y860D02*
X812Y860D01*
X1036Y860D02*
X1038Y860D01*
X1108Y860D02*
X1110Y860D01*
X1121Y860D02*
X1123Y860D01*
X1193Y860D02*
X1195Y860D01*
X803Y859D02*
X812Y859D01*
X1036Y859D02*
X1038Y859D01*
X1108Y859D02*
X1110Y859D01*
X1121Y859D02*
X1123Y859D01*
X1193Y859D02*
X1195Y859D01*
X803Y858D02*
X812Y858D01*
X1036Y858D02*
X1038Y858D01*
X1108Y858D02*
X1110Y858D01*
X1121Y858D02*
X1123Y858D01*
X1193Y858D02*
X1195Y858D01*
X803Y857D02*
X812Y857D01*
X1036Y857D02*
X1038Y857D01*
X1108Y857D02*
X1110Y857D01*
X1121Y857D02*
X1123Y857D01*
X1193Y857D02*
X1195Y857D01*
X804Y856D02*
X812Y856D01*
X1036Y856D02*
X1038Y856D01*
X1108Y856D02*
X1110Y856D01*
X1121Y856D02*
X1123Y856D01*
X1193Y856D02*
X1195Y856D01*
X805Y855D02*
X811Y855D01*
X1036Y855D02*
X1038Y855D01*
X1108Y855D02*
X1110Y855D01*
X1121Y855D02*
X1123Y855D01*
X1193Y855D02*
X1195Y855D01*
X1036Y854D02*
X1038Y854D01*
X1108Y854D02*
X1110Y854D01*
X1121Y854D02*
X1123Y854D01*
X1193Y854D02*
X1195Y854D01*
X1036Y853D02*
X1038Y853D01*
X1108Y853D02*
X1110Y853D01*
X1121Y853D02*
X1123Y853D01*
X1193Y853D02*
X1195Y853D01*
X1036Y852D02*
X1038Y852D01*
X1108Y852D02*
X1110Y852D01*
X1121Y852D02*
X1123Y852D01*
X1193Y852D02*
X1195Y852D01*
X1036Y851D02*
X1038Y851D01*
X1108Y851D02*
X1110Y851D01*
X1121Y851D02*
X1123Y851D01*
X1193Y851D02*
X1195Y851D01*
X1036Y850D02*
X1038Y850D01*
X1108Y850D02*
X1110Y850D01*
X1121Y850D02*
X1123Y850D01*
X1193Y850D02*
X1195Y850D01*
X1036Y849D02*
X1038Y849D01*
X1108Y849D02*
X1110Y849D01*
X1121Y849D02*
X1123Y849D01*
X1193Y849D02*
X1195Y849D01*
X1036Y848D02*
X1038Y848D01*
X1108Y848D02*
X1110Y848D01*
X1121Y848D02*
X1123Y848D01*
X1193Y848D02*
X1195Y848D01*
X1036Y847D02*
X1038Y847D01*
X1108Y847D02*
X1110Y847D01*
X1121Y847D02*
X1123Y847D01*
X1193Y847D02*
X1195Y847D01*
X1036Y846D02*
X1038Y846D01*
X1108Y846D02*
X1110Y846D01*
X1121Y846D02*
X1123Y846D01*
X1193Y846D02*
X1195Y846D01*
X1036Y845D02*
X1038Y845D01*
X1108Y845D02*
X1110Y845D01*
X1121Y845D02*
X1123Y845D01*
X1193Y845D02*
X1195Y845D01*
X1036Y844D02*
X1038Y844D01*
X1108Y844D02*
X1110Y844D01*
X1121Y844D02*
X1123Y844D01*
X1193Y844D02*
X1195Y844D01*
X1036Y843D02*
X1038Y843D01*
X1108Y843D02*
X1110Y843D01*
X1121Y843D02*
X1123Y843D01*
X1193Y843D02*
X1195Y843D01*
X1036Y842D02*
X1038Y842D01*
X1108Y842D02*
X1110Y842D01*
X1121Y842D02*
X1123Y842D01*
X1193Y842D02*
X1195Y842D01*
X1036Y841D02*
X1038Y841D01*
X1108Y841D02*
X1110Y841D01*
X1121Y841D02*
X1123Y841D01*
X1193Y841D02*
X1195Y841D01*
X1036Y840D02*
X1038Y840D01*
X1108Y840D02*
X1110Y840D01*
X1121Y840D02*
X1123Y840D01*
X1193Y840D02*
X1195Y840D01*
X1036Y839D02*
X1038Y839D01*
X1108Y839D02*
X1110Y839D01*
X1121Y839D02*
X1123Y839D01*
X1193Y839D02*
X1195Y839D01*
X787Y838D02*
X791Y838D01*
X1036Y838D02*
X1038Y838D01*
X1108Y838D02*
X1110Y838D01*
X1121Y838D02*
X1123Y838D01*
X1193Y838D02*
X1195Y838D01*
X786Y837D02*
X791Y837D01*
X1036Y837D02*
X1038Y837D01*
X1108Y837D02*
X1110Y837D01*
X1121Y837D02*
X1123Y837D01*
X1193Y837D02*
X1195Y837D01*
X785Y836D02*
X792Y836D01*
X1036Y836D02*
X1038Y836D01*
X1108Y836D02*
X1110Y836D01*
X1121Y836D02*
X1123Y836D01*
X1193Y836D02*
X1195Y836D01*
X785Y835D02*
X792Y835D01*
X1036Y835D02*
X1038Y835D01*
X1108Y835D02*
X1110Y835D01*
X1121Y835D02*
X1123Y835D01*
X1193Y835D02*
X1195Y835D01*
X785Y834D02*
X791Y834D01*
X1036Y834D02*
X1038Y834D01*
X1108Y834D02*
X1110Y834D01*
X1121Y834D02*
X1123Y834D01*
X1193Y834D02*
X1195Y834D01*
X784Y833D02*
X791Y833D01*
X1036Y833D02*
X1038Y833D01*
X1108Y833D02*
X1110Y833D01*
X1121Y833D02*
X1123Y833D01*
X1193Y833D02*
X1195Y833D01*
X784Y832D02*
X790Y832D01*
X807Y832D02*
X836Y832D01*
X1036Y832D02*
X1038Y832D01*
X1108Y832D02*
X1110Y832D01*
X1121Y832D02*
X1123Y832D01*
X1193Y832D02*
X1195Y832D01*
X783Y831D02*
X790Y831D01*
X806Y831D02*
X836Y831D01*
X1036Y831D02*
X1038Y831D01*
X1108Y831D02*
X1110Y831D01*
X1121Y831D02*
X1123Y831D01*
X1193Y831D02*
X1195Y831D01*
X783Y830D02*
X790Y830D01*
X806Y830D02*
X836Y830D01*
X1019Y830D02*
X1019Y830D01*
X1036Y830D02*
X1038Y830D01*
X1108Y830D02*
X1110Y830D01*
X1121Y830D02*
X1123Y830D01*
X1193Y830D02*
X1195Y830D01*
X783Y829D02*
X789Y829D01*
X806Y829D02*
X836Y829D01*
X1018Y829D02*
X1019Y829D01*
X1036Y829D02*
X1038Y829D01*
X1108Y829D02*
X1110Y829D01*
X1121Y829D02*
X1123Y829D01*
X1193Y829D02*
X1195Y829D01*
X783Y828D02*
X789Y828D01*
X806Y828D02*
X836Y828D01*
X1016Y828D02*
X1019Y828D01*
X1036Y828D02*
X1038Y828D01*
X1108Y828D02*
X1110Y828D01*
X1121Y828D02*
X1123Y828D01*
X1193Y828D02*
X1195Y828D01*
X1212Y828D02*
X1224Y828D01*
X783Y827D02*
X789Y827D01*
X806Y827D02*
X836Y827D01*
X1015Y827D02*
X1019Y827D01*
X1036Y827D02*
X1038Y827D01*
X1108Y827D02*
X1110Y827D01*
X1121Y827D02*
X1123Y827D01*
X1193Y827D02*
X1195Y827D01*
X1211Y827D02*
X1226Y827D01*
X783Y826D02*
X789Y826D01*
X806Y826D02*
X836Y826D01*
X1013Y826D02*
X1019Y826D01*
X1036Y826D02*
X1038Y826D01*
X1108Y826D02*
X1110Y826D01*
X1121Y826D02*
X1123Y826D01*
X1193Y826D02*
X1195Y826D01*
X1210Y826D02*
X1227Y826D01*
X783Y825D02*
X789Y825D01*
X806Y825D02*
X813Y825D01*
X830Y825D02*
X836Y825D01*
X1010Y825D02*
X1019Y825D01*
X1036Y825D02*
X1038Y825D01*
X1108Y825D02*
X1110Y825D01*
X1121Y825D02*
X1123Y825D01*
X1193Y825D02*
X1195Y825D01*
X1209Y825D02*
X1228Y825D01*
X783Y824D02*
X789Y824D01*
X806Y824D02*
X812Y824D01*
X830Y824D02*
X836Y824D01*
X1007Y824D02*
X1019Y824D01*
X1036Y824D02*
X1038Y824D01*
X1108Y824D02*
X1110Y824D01*
X1121Y824D02*
X1123Y824D01*
X1193Y824D02*
X1195Y824D01*
X1208Y824D02*
X1213Y824D01*
X1224Y824D02*
X1229Y824D01*
X783Y823D02*
X789Y823D01*
X806Y823D02*
X812Y823D01*
X830Y823D02*
X836Y823D01*
X1005Y823D02*
X1019Y823D01*
X1036Y823D02*
X1038Y823D01*
X1108Y823D02*
X1110Y823D01*
X1121Y823D02*
X1123Y823D01*
X1193Y823D02*
X1195Y823D01*
X1208Y823D02*
X1212Y823D01*
X1225Y823D02*
X1229Y823D01*
X783Y822D02*
X789Y822D01*
X806Y822D02*
X812Y822D01*
X830Y822D02*
X836Y822D01*
X1005Y822D02*
X1019Y822D01*
X1036Y822D02*
X1038Y822D01*
X1108Y822D02*
X1110Y822D01*
X1121Y822D02*
X1123Y822D01*
X1193Y822D02*
X1195Y822D01*
X1207Y822D02*
X1211Y822D01*
X1226Y822D02*
X1230Y822D01*
X1351Y822D02*
X1365Y822D01*
X783Y821D02*
X789Y821D01*
X806Y821D02*
X812Y821D01*
X830Y821D02*
X836Y821D01*
X1005Y821D02*
X1019Y821D01*
X1036Y821D02*
X1038Y821D01*
X1108Y821D02*
X1110Y821D01*
X1121Y821D02*
X1123Y821D01*
X1193Y821D02*
X1195Y821D01*
X1207Y821D02*
X1210Y821D01*
X1227Y821D02*
X1230Y821D01*
X1351Y821D02*
X1365Y821D01*
X783Y820D02*
X789Y820D01*
X806Y820D02*
X812Y820D01*
X830Y820D02*
X836Y820D01*
X1005Y820D02*
X1019Y820D01*
X1036Y820D02*
X1038Y820D01*
X1108Y820D02*
X1110Y820D01*
X1121Y820D02*
X1123Y820D01*
X1193Y820D02*
X1195Y820D01*
X1207Y820D02*
X1210Y820D01*
X1227Y820D02*
X1230Y820D01*
X1351Y820D02*
X1365Y820D01*
X783Y819D02*
X789Y819D01*
X806Y819D02*
X812Y819D01*
X830Y819D02*
X836Y819D01*
X1005Y819D02*
X1019Y819D01*
X1036Y819D02*
X1038Y819D01*
X1108Y819D02*
X1110Y819D01*
X1121Y819D02*
X1123Y819D01*
X1193Y819D02*
X1195Y819D01*
X1207Y819D02*
X1210Y819D01*
X1227Y819D02*
X1230Y819D01*
X1360Y819D02*
X1363Y819D01*
X783Y818D02*
X789Y818D01*
X806Y818D02*
X812Y818D01*
X830Y818D02*
X836Y818D01*
X1005Y818D02*
X1019Y818D01*
X1036Y818D02*
X1038Y818D01*
X1108Y818D02*
X1110Y818D01*
X1121Y818D02*
X1123Y818D01*
X1193Y818D02*
X1195Y818D01*
X1207Y818D02*
X1210Y818D01*
X1227Y818D02*
X1230Y818D01*
X1361Y818D02*
X1364Y818D01*
X783Y817D02*
X789Y817D01*
X806Y817D02*
X812Y817D01*
X830Y817D02*
X836Y817D01*
X1005Y817D02*
X1019Y817D01*
X1036Y817D02*
X1038Y817D01*
X1108Y817D02*
X1110Y817D01*
X1121Y817D02*
X1123Y817D01*
X1193Y817D02*
X1195Y817D01*
X1207Y817D02*
X1210Y817D01*
X1227Y817D02*
X1230Y817D01*
X1362Y817D02*
X1365Y817D01*
X783Y816D02*
X789Y816D01*
X806Y816D02*
X812Y816D01*
X830Y816D02*
X836Y816D01*
X1005Y816D02*
X1019Y816D01*
X1036Y816D02*
X1038Y816D01*
X1108Y816D02*
X1110Y816D01*
X1121Y816D02*
X1123Y816D01*
X1193Y816D02*
X1195Y816D01*
X1207Y816D02*
X1210Y816D01*
X1227Y816D02*
X1230Y816D01*
X1363Y816D02*
X1365Y816D01*
X783Y815D02*
X789Y815D01*
X806Y815D02*
X812Y815D01*
X830Y815D02*
X836Y815D01*
X1005Y815D02*
X1019Y815D01*
X1036Y815D02*
X1038Y815D01*
X1108Y815D02*
X1110Y815D01*
X1121Y815D02*
X1123Y815D01*
X1193Y815D02*
X1195Y815D01*
X1207Y815D02*
X1211Y815D01*
X1226Y815D02*
X1230Y815D01*
X1363Y815D02*
X1365Y815D01*
X783Y814D02*
X789Y814D01*
X806Y814D02*
X812Y814D01*
X830Y814D02*
X836Y814D01*
X1005Y814D02*
X1019Y814D01*
X1036Y814D02*
X1038Y814D01*
X1108Y814D02*
X1110Y814D01*
X1121Y814D02*
X1123Y814D01*
X1193Y814D02*
X1195Y814D01*
X1207Y814D02*
X1211Y814D01*
X1226Y814D02*
X1230Y814D01*
X1364Y814D02*
X1365Y814D01*
X783Y813D02*
X789Y813D01*
X806Y813D02*
X812Y813D01*
X830Y813D02*
X836Y813D01*
X1005Y813D02*
X1019Y813D01*
X1036Y813D02*
X1038Y813D01*
X1108Y813D02*
X1110Y813D01*
X1121Y813D02*
X1123Y813D01*
X1193Y813D02*
X1195Y813D01*
X1208Y813D02*
X1212Y813D01*
X1225Y813D02*
X1229Y813D01*
X1364Y813D02*
X1365Y813D01*
X783Y812D02*
X789Y812D01*
X806Y812D02*
X812Y812D01*
X830Y812D02*
X836Y812D01*
X1005Y812D02*
X1019Y812D01*
X1036Y812D02*
X1038Y812D01*
X1108Y812D02*
X1110Y812D01*
X1121Y812D02*
X1123Y812D01*
X1193Y812D02*
X1195Y812D01*
X1208Y812D02*
X1213Y812D01*
X1223Y812D02*
X1229Y812D01*
X1363Y812D02*
X1365Y812D01*
X783Y811D02*
X812Y811D01*
X830Y811D02*
X836Y811D01*
X1005Y811D02*
X1019Y811D01*
X1036Y811D02*
X1038Y811D01*
X1108Y811D02*
X1110Y811D01*
X1121Y811D02*
X1124Y811D01*
X1129Y811D02*
X1187Y811D01*
X1192Y811D02*
X1195Y811D01*
X1209Y811D02*
X1228Y811D01*
X1361Y811D02*
X1365Y811D01*
X783Y810D02*
X812Y810D01*
X830Y810D02*
X836Y810D01*
X1005Y810D02*
X1019Y810D01*
X1036Y810D02*
X1039Y810D01*
X1107Y810D02*
X1110Y810D01*
X1121Y810D02*
X1124Y810D01*
X1129Y810D02*
X1187Y810D01*
X1192Y810D02*
X1195Y810D01*
X1210Y810D02*
X1227Y810D01*
X1360Y810D02*
X1364Y810D01*
X783Y809D02*
X812Y809D01*
X830Y809D02*
X836Y809D01*
X1005Y809D02*
X1019Y809D01*
X1036Y809D02*
X1039Y809D01*
X1107Y809D02*
X1110Y809D01*
X1121Y809D02*
X1124Y809D01*
X1129Y809D02*
X1187Y809D01*
X1192Y809D02*
X1195Y809D01*
X1211Y809D02*
X1226Y809D01*
X1360Y809D02*
X1363Y809D01*
X784Y808D02*
X811Y808D01*
X830Y808D02*
X836Y808D01*
X1005Y808D02*
X1019Y808D01*
X1036Y808D02*
X1039Y808D01*
X1107Y808D02*
X1110Y808D01*
X1121Y808D02*
X1124Y808D01*
X1192Y808D02*
X1195Y808D01*
X1213Y808D02*
X1224Y808D01*
X784Y807D02*
X811Y807D01*
X830Y807D02*
X836Y807D01*
X1005Y807D02*
X1019Y807D01*
X1036Y807D02*
X1039Y807D01*
X1107Y807D02*
X1110Y807D01*
X1121Y807D02*
X1124Y807D01*
X1192Y807D02*
X1195Y807D01*
X785Y806D02*
X810Y806D01*
X830Y806D02*
X835Y806D01*
X1005Y806D02*
X1019Y806D01*
X1036Y806D02*
X1039Y806D01*
X1107Y806D02*
X1110Y806D01*
X1121Y806D02*
X1124Y806D01*
X1192Y806D02*
X1195Y806D01*
X787Y805D02*
X808Y805D01*
X832Y805D02*
X834Y805D01*
X1005Y805D02*
X1019Y805D01*
X1036Y805D02*
X1039Y805D01*
X1107Y805D02*
X1110Y805D01*
X1121Y805D02*
X1124Y805D01*
X1192Y805D02*
X1195Y805D01*
X1005Y804D02*
X1019Y804D01*
X1036Y804D02*
X1039Y804D01*
X1107Y804D02*
X1110Y804D01*
X1121Y804D02*
X1124Y804D01*
X1192Y804D02*
X1195Y804D01*
X1005Y803D02*
X1019Y803D01*
X1036Y803D02*
X1039Y803D01*
X1107Y803D02*
X1110Y803D01*
X1121Y803D02*
X1124Y803D01*
X1192Y803D02*
X1195Y803D01*
X1005Y802D02*
X1019Y802D01*
X1036Y802D02*
X1039Y802D01*
X1107Y802D02*
X1110Y802D01*
X1121Y802D02*
X1124Y802D01*
X1192Y802D02*
X1195Y802D01*
X1354Y802D02*
X1362Y802D01*
X1005Y801D02*
X1019Y801D01*
X1036Y801D02*
X1039Y801D01*
X1107Y801D02*
X1110Y801D01*
X1121Y801D02*
X1124Y801D01*
X1192Y801D02*
X1195Y801D01*
X1353Y801D02*
X1363Y801D01*
X1005Y800D02*
X1019Y800D01*
X1036Y800D02*
X1039Y800D01*
X1107Y800D02*
X1110Y800D01*
X1121Y800D02*
X1124Y800D01*
X1192Y800D02*
X1195Y800D01*
X1352Y800D02*
X1364Y800D01*
X1005Y799D02*
X1019Y799D01*
X1036Y799D02*
X1039Y799D01*
X1107Y799D02*
X1110Y799D01*
X1121Y799D02*
X1124Y799D01*
X1192Y799D02*
X1195Y799D01*
X1351Y799D02*
X1354Y799D01*
X1356Y799D02*
X1358Y799D01*
X1362Y799D02*
X1365Y799D01*
X1005Y798D02*
X1019Y798D01*
X1036Y798D02*
X1039Y798D01*
X1107Y798D02*
X1110Y798D01*
X1121Y798D02*
X1124Y798D01*
X1192Y798D02*
X1195Y798D01*
X1208Y798D02*
X1229Y798D01*
X1351Y798D02*
X1353Y798D01*
X1356Y798D02*
X1358Y798D01*
X1363Y798D02*
X1365Y798D01*
X1005Y797D02*
X1019Y797D01*
X1036Y797D02*
X1039Y797D01*
X1107Y797D02*
X1110Y797D01*
X1121Y797D02*
X1124Y797D01*
X1192Y797D02*
X1195Y797D01*
X1207Y797D02*
X1230Y797D01*
X1350Y797D02*
X1352Y797D01*
X1356Y797D02*
X1358Y797D01*
X1364Y797D02*
X1365Y797D01*
X1005Y796D02*
X1019Y796D01*
X1036Y796D02*
X1039Y796D01*
X1107Y796D02*
X1110Y796D01*
X1121Y796D02*
X1123Y796D01*
X1193Y796D02*
X1195Y796D01*
X1207Y796D02*
X1230Y796D01*
X1350Y796D02*
X1352Y796D01*
X1356Y796D02*
X1358Y796D01*
X1364Y796D02*
X1365Y796D01*
X1005Y795D02*
X1019Y795D01*
X1036Y795D02*
X1039Y795D01*
X1107Y795D02*
X1110Y795D01*
X1121Y795D02*
X1123Y795D01*
X1193Y795D02*
X1195Y795D01*
X1208Y795D02*
X1229Y795D01*
X1350Y795D02*
X1352Y795D01*
X1356Y795D02*
X1358Y795D01*
X1364Y795D02*
X1365Y795D01*
X1005Y794D02*
X1019Y794D01*
X1036Y794D02*
X1038Y794D01*
X1108Y794D02*
X1110Y794D01*
X1121Y794D02*
X1123Y794D01*
X1193Y794D02*
X1195Y794D01*
X1222Y794D02*
X1227Y794D01*
X1350Y794D02*
X1352Y794D01*
X1356Y794D02*
X1358Y794D01*
X1364Y794D02*
X1365Y794D01*
X1005Y793D02*
X1019Y793D01*
X1036Y793D02*
X1038Y793D01*
X1108Y793D02*
X1110Y793D01*
X1121Y793D02*
X1123Y793D01*
X1193Y793D02*
X1195Y793D01*
X1223Y793D02*
X1227Y793D01*
X1350Y793D02*
X1352Y793D01*
X1356Y793D02*
X1358Y793D01*
X1363Y793D02*
X1365Y793D01*
X1005Y792D02*
X1019Y792D01*
X1036Y792D02*
X1038Y792D01*
X1108Y792D02*
X1110Y792D01*
X1121Y792D02*
X1123Y792D01*
X1193Y792D02*
X1195Y792D01*
X1224Y792D02*
X1228Y792D01*
X1350Y792D02*
X1352Y792D01*
X1356Y792D02*
X1358Y792D01*
X1363Y792D02*
X1365Y792D01*
X1005Y791D02*
X1019Y791D01*
X1036Y791D02*
X1038Y791D01*
X1108Y791D02*
X1110Y791D01*
X1121Y791D02*
X1123Y791D01*
X1193Y791D02*
X1195Y791D01*
X1224Y791D02*
X1228Y791D01*
X1350Y791D02*
X1352Y791D01*
X1356Y791D02*
X1365Y791D01*
X1005Y790D02*
X1019Y790D01*
X1036Y790D02*
X1038Y790D01*
X1108Y790D02*
X1110Y790D01*
X1121Y790D02*
X1123Y790D01*
X1193Y790D02*
X1195Y790D01*
X1225Y790D02*
X1229Y790D01*
X1350Y790D02*
X1352Y790D01*
X1356Y790D02*
X1364Y790D01*
X807Y789D02*
X809Y789D01*
X1005Y789D02*
X1019Y789D01*
X1036Y789D02*
X1038Y789D01*
X1108Y789D02*
X1110Y789D01*
X1121Y789D02*
X1123Y789D01*
X1193Y789D02*
X1195Y789D01*
X1226Y789D02*
X1229Y789D01*
X1351Y789D02*
X1352Y789D01*
X1357Y789D02*
X1363Y789D01*
X804Y788D02*
X811Y788D01*
X1005Y788D02*
X1019Y788D01*
X1036Y788D02*
X1038Y788D01*
X1108Y788D02*
X1110Y788D01*
X1121Y788D02*
X1123Y788D01*
X1193Y788D02*
X1195Y788D01*
X1226Y788D02*
X1230Y788D01*
X804Y787D02*
X812Y787D01*
X1005Y787D02*
X1019Y787D01*
X1036Y787D02*
X1038Y787D01*
X1108Y787D02*
X1110Y787D01*
X1121Y787D02*
X1123Y787D01*
X1193Y787D02*
X1195Y787D01*
X1227Y787D02*
X1230Y787D01*
X803Y786D02*
X812Y786D01*
X1005Y786D02*
X1019Y786D01*
X1036Y786D02*
X1038Y786D01*
X1108Y786D02*
X1110Y786D01*
X1121Y786D02*
X1123Y786D01*
X1193Y786D02*
X1195Y786D01*
X1227Y786D02*
X1230Y786D01*
X803Y785D02*
X812Y785D01*
X1005Y785D02*
X1019Y785D01*
X1036Y785D02*
X1038Y785D01*
X1108Y785D02*
X1110Y785D01*
X1121Y785D02*
X1123Y785D01*
X1193Y785D02*
X1195Y785D01*
X1227Y785D02*
X1230Y785D01*
X803Y784D02*
X812Y784D01*
X1005Y784D02*
X1019Y784D01*
X1036Y784D02*
X1038Y784D01*
X1108Y784D02*
X1110Y784D01*
X1121Y784D02*
X1123Y784D01*
X1193Y784D02*
X1195Y784D01*
X1227Y784D02*
X1230Y784D01*
X803Y783D02*
X812Y783D01*
X1005Y783D02*
X1019Y783D01*
X1036Y783D02*
X1038Y783D01*
X1108Y783D02*
X1110Y783D01*
X1121Y783D02*
X1123Y783D01*
X1193Y783D02*
X1195Y783D01*
X1226Y783D02*
X1230Y783D01*
X803Y782D02*
X812Y782D01*
X1005Y782D02*
X1019Y782D01*
X1036Y782D02*
X1038Y782D01*
X1108Y782D02*
X1110Y782D01*
X1121Y782D02*
X1123Y782D01*
X1193Y782D02*
X1195Y782D01*
X1211Y782D02*
X1229Y782D01*
X803Y781D02*
X812Y781D01*
X1005Y781D02*
X1019Y781D01*
X1036Y781D02*
X1038Y781D01*
X1108Y781D02*
X1110Y781D01*
X1121Y781D02*
X1123Y781D01*
X1193Y781D02*
X1195Y781D01*
X1208Y781D02*
X1229Y781D01*
X1360Y781D02*
X1365Y781D01*
X803Y780D02*
X812Y780D01*
X1005Y780D02*
X1019Y780D01*
X1036Y780D02*
X1038Y780D01*
X1108Y780D02*
X1110Y780D01*
X1121Y780D02*
X1123Y780D01*
X1193Y780D02*
X1195Y780D01*
X1207Y780D02*
X1228Y780D01*
X1358Y780D02*
X1365Y780D01*
X803Y779D02*
X812Y779D01*
X1005Y779D02*
X1019Y779D01*
X1036Y779D02*
X1038Y779D01*
X1108Y779D02*
X1110Y779D01*
X1121Y779D02*
X1123Y779D01*
X1193Y779D02*
X1195Y779D01*
X1207Y779D02*
X1226Y779D01*
X1355Y779D02*
X1362Y779D01*
X803Y778D02*
X812Y778D01*
X1005Y778D02*
X1019Y778D01*
X1036Y778D02*
X1038Y778D01*
X1108Y778D02*
X1110Y778D01*
X1121Y778D02*
X1123Y778D01*
X1193Y778D02*
X1195Y778D01*
X1208Y778D02*
X1215Y778D01*
X1353Y778D02*
X1359Y778D01*
X803Y777D02*
X812Y777D01*
X1005Y777D02*
X1019Y777D01*
X1036Y777D02*
X1038Y777D01*
X1108Y777D02*
X1110Y777D01*
X1121Y777D02*
X1123Y777D01*
X1193Y777D02*
X1195Y777D01*
X1351Y777D02*
X1357Y777D01*
X803Y776D02*
X812Y776D01*
X1005Y776D02*
X1019Y776D01*
X1036Y776D02*
X1038Y776D01*
X1108Y776D02*
X1110Y776D01*
X1121Y776D02*
X1123Y776D01*
X1193Y776D02*
X1195Y776D01*
X1351Y776D02*
X1355Y776D01*
X803Y775D02*
X812Y775D01*
X1005Y775D02*
X1019Y775D01*
X1036Y775D02*
X1038Y775D01*
X1108Y775D02*
X1110Y775D01*
X1121Y775D02*
X1123Y775D01*
X1193Y775D02*
X1195Y775D01*
X1350Y775D02*
X1353Y775D01*
X803Y774D02*
X812Y774D01*
X1005Y774D02*
X1019Y774D01*
X1036Y774D02*
X1038Y774D01*
X1108Y774D02*
X1110Y774D01*
X1121Y774D02*
X1123Y774D01*
X1193Y774D02*
X1195Y774D01*
X1351Y774D02*
X1355Y774D01*
X803Y773D02*
X812Y773D01*
X1005Y773D02*
X1019Y773D01*
X1036Y773D02*
X1038Y773D01*
X1108Y773D02*
X1110Y773D01*
X1121Y773D02*
X1123Y773D01*
X1193Y773D02*
X1195Y773D01*
X1351Y773D02*
X1357Y773D01*
X803Y772D02*
X812Y772D01*
X1005Y772D02*
X1019Y772D01*
X1036Y772D02*
X1038Y772D01*
X1108Y772D02*
X1110Y772D01*
X1121Y772D02*
X1123Y772D01*
X1193Y772D02*
X1195Y772D01*
X1353Y772D02*
X1359Y772D01*
X803Y771D02*
X812Y771D01*
X1005Y771D02*
X1019Y771D01*
X1036Y771D02*
X1038Y771D01*
X1108Y771D02*
X1110Y771D01*
X1121Y771D02*
X1123Y771D01*
X1193Y771D02*
X1195Y771D01*
X1355Y771D02*
X1362Y771D01*
X803Y770D02*
X812Y770D01*
X1005Y770D02*
X1019Y770D01*
X1036Y770D02*
X1038Y770D01*
X1108Y770D02*
X1110Y770D01*
X1121Y770D02*
X1123Y770D01*
X1193Y770D02*
X1195Y770D01*
X1358Y770D02*
X1365Y770D01*
X803Y769D02*
X812Y769D01*
X1005Y769D02*
X1019Y769D01*
X1036Y769D02*
X1038Y769D01*
X1108Y769D02*
X1110Y769D01*
X1121Y769D02*
X1123Y769D01*
X1193Y769D02*
X1195Y769D01*
X1360Y769D02*
X1365Y769D01*
X803Y768D02*
X812Y768D01*
X1005Y768D02*
X1019Y768D01*
X1036Y768D02*
X1038Y768D01*
X1108Y768D02*
X1110Y768D01*
X1121Y768D02*
X1123Y768D01*
X1193Y768D02*
X1195Y768D01*
X1363Y768D02*
X1364Y768D01*
X803Y767D02*
X812Y767D01*
X1005Y767D02*
X1019Y767D01*
X1036Y767D02*
X1038Y767D01*
X1108Y767D02*
X1110Y767D01*
X1121Y767D02*
X1123Y767D01*
X1193Y767D02*
X1195Y767D01*
X803Y766D02*
X812Y766D01*
X1005Y766D02*
X1019Y766D01*
X1036Y766D02*
X1038Y766D01*
X1108Y766D02*
X1110Y766D01*
X1121Y766D02*
X1123Y766D01*
X1193Y766D02*
X1195Y766D01*
X803Y765D02*
X812Y765D01*
X1005Y765D02*
X1019Y765D01*
X1036Y765D02*
X1038Y765D01*
X1108Y765D02*
X1110Y765D01*
X1121Y765D02*
X1123Y765D01*
X1193Y765D02*
X1195Y765D01*
X803Y764D02*
X812Y764D01*
X1005Y764D02*
X1019Y764D01*
X1036Y764D02*
X1038Y764D01*
X1108Y764D02*
X1110Y764D01*
X1121Y764D02*
X1123Y764D01*
X1193Y764D02*
X1195Y764D01*
X803Y763D02*
X812Y763D01*
X1005Y763D02*
X1019Y763D01*
X1036Y763D02*
X1038Y763D01*
X1108Y763D02*
X1110Y763D01*
X1121Y763D02*
X1123Y763D01*
X1193Y763D02*
X1195Y763D01*
X803Y762D02*
X812Y762D01*
X1005Y762D02*
X1019Y762D01*
X1036Y762D02*
X1038Y762D01*
X1108Y762D02*
X1110Y762D01*
X1121Y762D02*
X1123Y762D01*
X1193Y762D02*
X1195Y762D01*
X803Y761D02*
X812Y761D01*
X1005Y761D02*
X1019Y761D01*
X1036Y761D02*
X1038Y761D01*
X1108Y761D02*
X1110Y761D01*
X1121Y761D02*
X1123Y761D01*
X1193Y761D02*
X1195Y761D01*
X803Y760D02*
X812Y760D01*
X1005Y760D02*
X1019Y760D01*
X1036Y760D02*
X1038Y760D01*
X1108Y760D02*
X1110Y760D01*
X1121Y760D02*
X1123Y760D01*
X1193Y760D02*
X1195Y760D01*
X803Y759D02*
X812Y759D01*
X1005Y759D02*
X1019Y759D01*
X1036Y759D02*
X1038Y759D01*
X1108Y759D02*
X1110Y759D01*
X1121Y759D02*
X1123Y759D01*
X1193Y759D02*
X1195Y759D01*
X803Y758D02*
X812Y758D01*
X1005Y758D02*
X1019Y758D01*
X1036Y758D02*
X1038Y758D01*
X1108Y758D02*
X1110Y758D01*
X1121Y758D02*
X1123Y758D01*
X1193Y758D02*
X1195Y758D01*
X804Y757D02*
X812Y757D01*
X1005Y757D02*
X1019Y757D01*
X1036Y757D02*
X1038Y757D01*
X1108Y757D02*
X1110Y757D01*
X1121Y757D02*
X1123Y757D01*
X1193Y757D02*
X1195Y757D01*
X804Y756D02*
X812Y756D01*
X1005Y756D02*
X1019Y756D01*
X1036Y756D02*
X1038Y756D01*
X1108Y756D02*
X1110Y756D01*
X1121Y756D02*
X1123Y756D01*
X1193Y756D02*
X1195Y756D01*
X805Y755D02*
X811Y755D01*
X1005Y755D02*
X1019Y755D01*
X1036Y755D02*
X1038Y755D01*
X1108Y755D02*
X1110Y755D01*
X1121Y755D02*
X1123Y755D01*
X1193Y755D02*
X1195Y755D01*
X1005Y754D02*
X1019Y754D01*
X1036Y754D02*
X1038Y754D01*
X1108Y754D02*
X1110Y754D01*
X1121Y754D02*
X1123Y754D01*
X1193Y754D02*
X1195Y754D01*
X1005Y753D02*
X1019Y753D01*
X1036Y753D02*
X1038Y753D01*
X1108Y753D02*
X1110Y753D01*
X1121Y753D02*
X1123Y753D01*
X1193Y753D02*
X1195Y753D01*
X1005Y752D02*
X1019Y752D01*
X1036Y752D02*
X1038Y752D01*
X1108Y752D02*
X1110Y752D01*
X1121Y752D02*
X1123Y752D01*
X1193Y752D02*
X1195Y752D01*
X1005Y751D02*
X1019Y751D01*
X1036Y751D02*
X1038Y751D01*
X1108Y751D02*
X1110Y751D01*
X1121Y751D02*
X1123Y751D01*
X1193Y751D02*
X1195Y751D01*
X1005Y750D02*
X1019Y750D01*
X1036Y750D02*
X1038Y750D01*
X1108Y750D02*
X1110Y750D01*
X1121Y750D02*
X1123Y750D01*
X1193Y750D02*
X1195Y750D01*
X1005Y749D02*
X1019Y749D01*
X1036Y749D02*
X1038Y749D01*
X1108Y749D02*
X1110Y749D01*
X1121Y749D02*
X1123Y749D01*
X1193Y749D02*
X1195Y749D01*
X1005Y748D02*
X1019Y748D01*
X1036Y748D02*
X1038Y748D01*
X1108Y748D02*
X1110Y748D01*
X1121Y748D02*
X1123Y748D01*
X1193Y748D02*
X1195Y748D01*
X1005Y747D02*
X1019Y747D01*
X1036Y747D02*
X1038Y747D01*
X1108Y747D02*
X1110Y747D01*
X1121Y747D02*
X1123Y747D01*
X1193Y747D02*
X1195Y747D01*
X1005Y746D02*
X1019Y746D01*
X1036Y746D02*
X1038Y746D01*
X1108Y746D02*
X1110Y746D01*
X1121Y746D02*
X1123Y746D01*
X1193Y746D02*
X1195Y746D01*
X1005Y745D02*
X1019Y745D01*
X1036Y745D02*
X1038Y745D01*
X1108Y745D02*
X1110Y745D01*
X1121Y745D02*
X1123Y745D01*
X1193Y745D02*
X1195Y745D01*
X1005Y744D02*
X1019Y744D01*
X1036Y744D02*
X1038Y744D01*
X1108Y744D02*
X1110Y744D01*
X1121Y744D02*
X1123Y744D01*
X1193Y744D02*
X1195Y744D01*
X1005Y743D02*
X1019Y743D01*
X1036Y743D02*
X1038Y743D01*
X1108Y743D02*
X1110Y743D01*
X1121Y743D02*
X1123Y743D01*
X1193Y743D02*
X1195Y743D01*
X1005Y742D02*
X1019Y742D01*
X1036Y742D02*
X1038Y742D01*
X1108Y742D02*
X1110Y742D01*
X1121Y742D02*
X1123Y742D01*
X1193Y742D02*
X1195Y742D01*
X1005Y741D02*
X1019Y741D01*
X1036Y741D02*
X1038Y741D01*
X1108Y741D02*
X1110Y741D01*
X1121Y741D02*
X1123Y741D01*
X1193Y741D02*
X1195Y741D01*
X1005Y740D02*
X1019Y740D01*
X1036Y740D02*
X1038Y740D01*
X1108Y740D02*
X1110Y740D01*
X1121Y740D02*
X1123Y740D01*
X1193Y740D02*
X1195Y740D01*
X1005Y739D02*
X1019Y739D01*
X1036Y739D02*
X1038Y739D01*
X1108Y739D02*
X1110Y739D01*
X1121Y739D02*
X1123Y739D01*
X1193Y739D02*
X1195Y739D01*
X784Y738D02*
X788Y738D01*
X831Y738D02*
X835Y738D01*
X1005Y738D02*
X1019Y738D01*
X1036Y738D02*
X1038Y738D01*
X1108Y738D02*
X1110Y738D01*
X1121Y738D02*
X1123Y738D01*
X1193Y738D02*
X1195Y738D01*
X783Y737D02*
X788Y737D01*
X830Y737D02*
X835Y737D01*
X1005Y737D02*
X1019Y737D01*
X1036Y737D02*
X1038Y737D01*
X1108Y737D02*
X1110Y737D01*
X1121Y737D02*
X1123Y737D01*
X1193Y737D02*
X1195Y737D01*
X783Y736D02*
X789Y736D01*
X830Y736D02*
X836Y736D01*
X1005Y736D02*
X1019Y736D01*
X1036Y736D02*
X1038Y736D01*
X1108Y736D02*
X1110Y736D01*
X1121Y736D02*
X1123Y736D01*
X1193Y736D02*
X1195Y736D01*
X783Y735D02*
X789Y735D01*
X830Y735D02*
X836Y735D01*
X1005Y735D02*
X1019Y735D01*
X1036Y735D02*
X1038Y735D01*
X1108Y735D02*
X1110Y735D01*
X1121Y735D02*
X1123Y735D01*
X1193Y735D02*
X1195Y735D01*
X783Y734D02*
X789Y734D01*
X830Y734D02*
X836Y734D01*
X1005Y734D02*
X1019Y734D01*
X1036Y734D02*
X1038Y734D01*
X1108Y734D02*
X1110Y734D01*
X1121Y734D02*
X1123Y734D01*
X1193Y734D02*
X1195Y734D01*
X783Y733D02*
X789Y733D01*
X830Y733D02*
X836Y733D01*
X1005Y733D02*
X1019Y733D01*
X1036Y733D02*
X1038Y733D01*
X1108Y733D02*
X1110Y733D01*
X1121Y733D02*
X1123Y733D01*
X1193Y733D02*
X1195Y733D01*
X783Y732D02*
X836Y732D01*
X1005Y732D02*
X1019Y732D01*
X1036Y732D02*
X1038Y732D01*
X1108Y732D02*
X1110Y732D01*
X1121Y732D02*
X1123Y732D01*
X1193Y732D02*
X1195Y732D01*
X783Y731D02*
X836Y731D01*
X1005Y731D02*
X1019Y731D01*
X1036Y731D02*
X1038Y731D01*
X1108Y731D02*
X1110Y731D01*
X1121Y731D02*
X1195Y731D01*
X783Y730D02*
X836Y730D01*
X1005Y730D02*
X1019Y730D01*
X1036Y730D02*
X1038Y730D01*
X1108Y730D02*
X1110Y730D01*
X1121Y730D02*
X1195Y730D01*
X783Y729D02*
X836Y729D01*
X1005Y729D02*
X1019Y729D01*
X1036Y729D02*
X1110Y729D01*
X1121Y729D02*
X1195Y729D01*
X783Y728D02*
X836Y728D01*
X1005Y728D02*
X1019Y728D01*
X1036Y728D02*
X1110Y728D01*
X783Y727D02*
X836Y727D01*
X1005Y727D02*
X1019Y727D01*
X1036Y727D02*
X1110Y727D01*
X783Y726D02*
X836Y726D01*
X1005Y726D02*
X1019Y726D01*
X783Y725D02*
X789Y725D01*
X830Y725D02*
X836Y725D01*
X1005Y725D02*
X1019Y725D01*
X783Y724D02*
X789Y724D01*
X830Y724D02*
X836Y724D01*
X1005Y724D02*
X1019Y724D01*
X783Y723D02*
X789Y723D01*
X830Y723D02*
X836Y723D01*
X1005Y723D02*
X1019Y723D01*
X783Y722D02*
X789Y722D01*
X830Y722D02*
X836Y722D01*
X1005Y722D02*
X1019Y722D01*
X783Y721D02*
X789Y721D01*
X829Y721D02*
X836Y721D01*
X1005Y721D02*
X1019Y721D01*
X783Y720D02*
X790Y720D01*
X828Y720D02*
X835Y720D01*
X1005Y720D02*
X1019Y720D01*
X783Y719D02*
X792Y719D01*
X827Y719D02*
X835Y719D01*
X1005Y719D02*
X1019Y719D01*
X784Y718D02*
X794Y718D01*
X825Y718D02*
X835Y718D01*
X1005Y718D02*
X1019Y718D01*
X784Y717D02*
X796Y717D01*
X823Y717D02*
X834Y717D01*
X1005Y717D02*
X1019Y717D01*
X1346Y717D02*
X1348Y717D01*
X785Y716D02*
X798Y716D01*
X821Y716D02*
X833Y716D01*
X1005Y716D02*
X1019Y716D01*
X1345Y716D02*
X1348Y716D01*
X786Y715D02*
X800Y715D01*
X819Y715D02*
X832Y715D01*
X1005Y715D02*
X1019Y715D01*
X1345Y715D02*
X1348Y715D01*
X787Y714D02*
X802Y714D01*
X817Y714D02*
X831Y714D01*
X1005Y714D02*
X1019Y714D01*
X1079Y714D02*
X1152Y714D01*
X1345Y714D02*
X1348Y714D01*
X789Y713D02*
X804Y713D01*
X815Y713D02*
X829Y713D01*
X1005Y713D02*
X1019Y713D01*
X1079Y713D02*
X1153Y713D01*
X1344Y713D02*
X1348Y713D01*
X1357Y713D02*
X1373Y713D01*
X791Y712D02*
X806Y712D01*
X813Y712D02*
X827Y712D01*
X1005Y712D02*
X1019Y712D01*
X1079Y712D02*
X1153Y712D01*
X1344Y712D02*
X1347Y712D01*
X1357Y712D02*
X1373Y712D01*
X793Y711D02*
X825Y711D01*
X1005Y711D02*
X1019Y711D01*
X1079Y711D02*
X1081Y711D01*
X1151Y711D02*
X1153Y711D01*
X1344Y711D02*
X1347Y711D01*
X1357Y711D02*
X1373Y711D01*
X795Y710D02*
X823Y710D01*
X1005Y710D02*
X1019Y710D01*
X1079Y710D02*
X1081Y710D01*
X1151Y710D02*
X1153Y710D01*
X1344Y710D02*
X1347Y710D01*
X1357Y710D02*
X1373Y710D01*
X797Y709D02*
X821Y709D01*
X1005Y709D02*
X1019Y709D01*
X1079Y709D02*
X1081Y709D01*
X1151Y709D02*
X1153Y709D01*
X1344Y709D02*
X1347Y709D01*
X1357Y709D02*
X1360Y709D01*
X1370Y709D02*
X1373Y709D01*
X799Y708D02*
X820Y708D01*
X1005Y708D02*
X1019Y708D01*
X1079Y708D02*
X1081Y708D01*
X1151Y708D02*
X1153Y708D01*
X1344Y708D02*
X1347Y708D01*
X1357Y708D02*
X1360Y708D01*
X1370Y708D02*
X1373Y708D01*
X801Y707D02*
X818Y707D01*
X1005Y707D02*
X1019Y707D01*
X1079Y707D02*
X1081Y707D01*
X1151Y707D02*
X1153Y707D01*
X1344Y707D02*
X1347Y707D01*
X1357Y707D02*
X1360Y707D01*
X1370Y707D02*
X1373Y707D01*
X803Y706D02*
X815Y706D01*
X1005Y706D02*
X1019Y706D01*
X1079Y706D02*
X1081Y706D01*
X1151Y706D02*
X1153Y706D01*
X1344Y706D02*
X1347Y706D01*
X1357Y706D02*
X1360Y706D01*
X1370Y706D02*
X1373Y706D01*
X806Y705D02*
X813Y705D01*
X1005Y705D02*
X1019Y705D01*
X1079Y705D02*
X1081Y705D01*
X1151Y705D02*
X1153Y705D01*
X1344Y705D02*
X1347Y705D01*
X1357Y705D02*
X1360Y705D01*
X1370Y705D02*
X1373Y705D01*
X1005Y704D02*
X1019Y704D01*
X1079Y704D02*
X1081Y704D01*
X1151Y704D02*
X1153Y704D01*
X1344Y704D02*
X1347Y704D01*
X1357Y704D02*
X1360Y704D01*
X1370Y704D02*
X1373Y704D01*
X1005Y703D02*
X1019Y703D01*
X1079Y703D02*
X1081Y703D01*
X1151Y703D02*
X1153Y703D01*
X1344Y703D02*
X1347Y703D01*
X1357Y703D02*
X1360Y703D01*
X1370Y703D02*
X1373Y703D01*
X1005Y702D02*
X1019Y702D01*
X1079Y702D02*
X1081Y702D01*
X1151Y702D02*
X1153Y702D01*
X1344Y702D02*
X1360Y702D01*
X1370Y702D02*
X1373Y702D01*
X1005Y701D02*
X1019Y701D01*
X1079Y701D02*
X1081Y701D01*
X1151Y701D02*
X1153Y701D01*
X1344Y701D02*
X1360Y701D01*
X1370Y701D02*
X1373Y701D01*
X1005Y700D02*
X1019Y700D01*
X1079Y700D02*
X1081Y700D01*
X1151Y700D02*
X1153Y700D01*
X1345Y700D02*
X1359Y700D01*
X1370Y700D02*
X1373Y700D01*
X1005Y699D02*
X1019Y699D01*
X1079Y699D02*
X1081Y699D01*
X1151Y699D02*
X1153Y699D01*
X1346Y699D02*
X1358Y699D01*
X1371Y699D02*
X1373Y699D01*
X1005Y698D02*
X1019Y698D01*
X1079Y698D02*
X1081Y698D01*
X1151Y698D02*
X1153Y698D01*
X1005Y697D02*
X1019Y697D01*
X1079Y697D02*
X1081Y697D01*
X1151Y697D02*
X1153Y697D01*
X1005Y696D02*
X1019Y696D01*
X1079Y696D02*
X1081Y696D01*
X1151Y696D02*
X1153Y696D01*
X1005Y695D02*
X1019Y695D01*
X1079Y695D02*
X1081Y695D01*
X1151Y695D02*
X1153Y695D01*
X1005Y694D02*
X1019Y694D01*
X1079Y694D02*
X1081Y694D01*
X1151Y694D02*
X1153Y694D01*
X1005Y693D02*
X1019Y693D01*
X1079Y693D02*
X1081Y693D01*
X1151Y693D02*
X1153Y693D01*
X1005Y692D02*
X1019Y692D01*
X1079Y692D02*
X1081Y692D01*
X1151Y692D02*
X1153Y692D01*
X1005Y691D02*
X1019Y691D01*
X1079Y691D02*
X1081Y691D01*
X1151Y691D02*
X1153Y691D01*
X1005Y690D02*
X1019Y690D01*
X1079Y690D02*
X1081Y690D01*
X1151Y690D02*
X1153Y690D01*
X809Y689D02*
X810Y689D01*
X1005Y689D02*
X1019Y689D01*
X1079Y689D02*
X1081Y689D01*
X1151Y689D02*
X1153Y689D01*
X1359Y689D02*
X1364Y689D01*
X804Y688D02*
X814Y688D01*
X1005Y688D02*
X1019Y688D01*
X1079Y688D02*
X1081Y688D01*
X1151Y688D02*
X1153Y688D01*
X1356Y688D02*
X1365Y688D01*
X802Y687D02*
X817Y687D01*
X1005Y687D02*
X1019Y687D01*
X1079Y687D02*
X1081Y687D01*
X1151Y687D02*
X1153Y687D01*
X1354Y687D02*
X1365Y687D01*
X800Y686D02*
X819Y686D01*
X1005Y686D02*
X1019Y686D01*
X1079Y686D02*
X1081Y686D01*
X1151Y686D02*
X1153Y686D01*
X1352Y686D02*
X1364Y686D01*
X798Y685D02*
X821Y685D01*
X1005Y685D02*
X1019Y685D01*
X1079Y685D02*
X1081Y685D01*
X1151Y685D02*
X1153Y685D01*
X1349Y685D02*
X1358Y685D01*
X796Y684D02*
X823Y684D01*
X1005Y684D02*
X1019Y684D01*
X1079Y684D02*
X1081Y684D01*
X1151Y684D02*
X1153Y684D01*
X1347Y684D02*
X1356Y684D01*
X566Y683D02*
X567Y683D01*
X794Y683D02*
X825Y683D01*
X1005Y683D02*
X1019Y683D01*
X1079Y683D02*
X1081Y683D01*
X1151Y683D02*
X1153Y683D01*
X1345Y683D02*
X1354Y683D01*
X564Y682D02*
X569Y682D01*
X792Y682D02*
X827Y682D01*
X1005Y682D02*
X1019Y682D01*
X1079Y682D02*
X1081Y682D01*
X1151Y682D02*
X1153Y682D01*
X1344Y682D02*
X1351Y682D01*
X563Y681D02*
X569Y681D01*
X790Y681D02*
X804Y681D01*
X814Y681D02*
X829Y681D01*
X1005Y681D02*
X1019Y681D01*
X1079Y681D02*
X1081Y681D01*
X1151Y681D02*
X1153Y681D01*
X1344Y681D02*
X1349Y681D01*
X563Y680D02*
X570Y680D01*
X788Y680D02*
X802Y680D01*
X816Y680D02*
X831Y680D01*
X1005Y680D02*
X1019Y680D01*
X1079Y680D02*
X1081Y680D01*
X1151Y680D02*
X1153Y680D01*
X1344Y680D02*
X1348Y680D01*
X563Y679D02*
X570Y679D01*
X787Y679D02*
X801Y679D01*
X818Y679D02*
X832Y679D01*
X1005Y679D02*
X1019Y679D01*
X1079Y679D02*
X1081Y679D01*
X1151Y679D02*
X1153Y679D01*
X1344Y679D02*
X1350Y679D01*
X563Y678D02*
X570Y678D01*
X786Y678D02*
X799Y678D01*
X820Y678D02*
X833Y678D01*
X1005Y678D02*
X1019Y678D01*
X1079Y678D02*
X1081Y678D01*
X1151Y678D02*
X1153Y678D01*
X1344Y678D02*
X1352Y678D01*
X563Y677D02*
X570Y677D01*
X785Y677D02*
X797Y677D01*
X822Y677D02*
X834Y677D01*
X1005Y677D02*
X1019Y677D01*
X1079Y677D02*
X1081Y677D01*
X1151Y677D02*
X1153Y677D01*
X1345Y677D02*
X1354Y677D01*
X563Y676D02*
X570Y676D01*
X784Y676D02*
X795Y676D01*
X824Y676D02*
X834Y676D01*
X1005Y676D02*
X1019Y676D01*
X1079Y676D02*
X1081Y676D01*
X1151Y676D02*
X1153Y676D01*
X1348Y676D02*
X1356Y676D01*
X563Y675D02*
X570Y675D01*
X784Y675D02*
X793Y675D01*
X826Y675D02*
X835Y675D01*
X1005Y675D02*
X1019Y675D01*
X1079Y675D02*
X1081Y675D01*
X1151Y675D02*
X1153Y675D01*
X1164Y675D02*
X1186Y675D01*
X1350Y675D02*
X1359Y675D01*
X563Y674D02*
X570Y674D01*
X783Y674D02*
X791Y674D01*
X828Y674D02*
X835Y674D01*
X1005Y674D02*
X1019Y674D01*
X1079Y674D02*
X1081Y674D01*
X1151Y674D02*
X1153Y674D01*
X1164Y674D02*
X1186Y674D01*
X1352Y674D02*
X1364Y674D01*
X563Y673D02*
X570Y673D01*
X783Y673D02*
X789Y673D01*
X829Y673D02*
X836Y673D01*
X1005Y673D02*
X1019Y673D01*
X1079Y673D02*
X1081Y673D01*
X1151Y673D02*
X1153Y673D01*
X1164Y673D02*
X1186Y673D01*
X1354Y673D02*
X1365Y673D01*
X563Y672D02*
X570Y672D01*
X783Y672D02*
X789Y672D01*
X830Y672D02*
X836Y672D01*
X1005Y672D02*
X1019Y672D01*
X1079Y672D02*
X1081Y672D01*
X1151Y672D02*
X1153Y672D01*
X1165Y672D02*
X1185Y672D01*
X1357Y672D02*
X1365Y672D01*
X563Y671D02*
X570Y671D01*
X783Y671D02*
X789Y671D01*
X830Y671D02*
X836Y671D01*
X1005Y671D02*
X1019Y671D01*
X1079Y671D02*
X1081Y671D01*
X1151Y671D02*
X1153Y671D01*
X1178Y671D02*
X1183Y671D01*
X1359Y671D02*
X1364Y671D01*
X563Y670D02*
X570Y670D01*
X783Y670D02*
X789Y670D01*
X830Y670D02*
X836Y670D01*
X1005Y670D02*
X1019Y670D01*
X1079Y670D02*
X1081Y670D01*
X1151Y670D02*
X1153Y670D01*
X1179Y670D02*
X1183Y670D01*
X563Y669D02*
X570Y669D01*
X783Y669D02*
X789Y669D01*
X830Y669D02*
X836Y669D01*
X1005Y669D02*
X1019Y669D01*
X1079Y669D02*
X1081Y669D01*
X1151Y669D02*
X1153Y669D01*
X1180Y669D02*
X1184Y669D01*
X563Y668D02*
X570Y668D01*
X783Y668D02*
X789Y668D01*
X830Y668D02*
X836Y668D01*
X1005Y668D02*
X1019Y668D01*
X1079Y668D02*
X1081Y668D01*
X1151Y668D02*
X1153Y668D01*
X1181Y668D02*
X1185Y668D01*
X563Y667D02*
X570Y667D01*
X783Y667D02*
X789Y667D01*
X830Y667D02*
X836Y667D01*
X1005Y667D02*
X1019Y667D01*
X1079Y667D02*
X1081Y667D01*
X1151Y667D02*
X1153Y667D01*
X1181Y667D02*
X1186Y667D01*
X563Y666D02*
X570Y666D01*
X783Y666D02*
X789Y666D01*
X830Y666D02*
X836Y666D01*
X1005Y666D02*
X1019Y666D01*
X1079Y666D02*
X1081Y666D01*
X1151Y666D02*
X1153Y666D01*
X1182Y666D02*
X1186Y666D01*
X563Y665D02*
X570Y665D01*
X783Y665D02*
X789Y665D01*
X830Y665D02*
X836Y665D01*
X1005Y665D02*
X1019Y665D01*
X1079Y665D02*
X1081Y665D01*
X1151Y665D02*
X1153Y665D01*
X1183Y665D02*
X1187Y665D01*
X563Y664D02*
X570Y664D01*
X783Y664D02*
X789Y664D01*
X830Y664D02*
X836Y664D01*
X1005Y664D02*
X1019Y664D01*
X1079Y664D02*
X1081Y664D01*
X1151Y664D02*
X1153Y664D01*
X1183Y664D02*
X1187Y664D01*
X563Y663D02*
X570Y663D01*
X783Y663D02*
X789Y663D01*
X830Y663D02*
X836Y663D01*
X1005Y663D02*
X1019Y663D01*
X1079Y663D02*
X1081Y663D01*
X1151Y663D02*
X1153Y663D01*
X1183Y663D02*
X1187Y663D01*
X563Y662D02*
X570Y662D01*
X783Y662D02*
X789Y662D01*
X830Y662D02*
X836Y662D01*
X1005Y662D02*
X1019Y662D01*
X1079Y662D02*
X1081Y662D01*
X1151Y662D02*
X1153Y662D01*
X1183Y662D02*
X1187Y662D01*
X563Y661D02*
X570Y661D01*
X783Y661D02*
X789Y661D01*
X830Y661D02*
X836Y661D01*
X1005Y661D02*
X1019Y661D01*
X1079Y661D02*
X1081Y661D01*
X1151Y661D02*
X1153Y661D01*
X1183Y661D02*
X1187Y661D01*
X563Y660D02*
X570Y660D01*
X783Y660D02*
X789Y660D01*
X830Y660D02*
X836Y660D01*
X1005Y660D02*
X1019Y660D01*
X1079Y660D02*
X1081Y660D01*
X1151Y660D02*
X1153Y660D01*
X1183Y660D02*
X1186Y660D01*
X563Y659D02*
X570Y659D01*
X783Y659D02*
X789Y659D01*
X830Y659D02*
X836Y659D01*
X1005Y659D02*
X1019Y659D01*
X1079Y659D02*
X1081Y659D01*
X1151Y659D02*
X1153Y659D01*
X1179Y659D02*
X1186Y659D01*
X563Y658D02*
X570Y658D01*
X783Y658D02*
X789Y658D01*
X830Y658D02*
X836Y658D01*
X1005Y658D02*
X1019Y658D01*
X1079Y658D02*
X1081Y658D01*
X1151Y658D02*
X1153Y658D01*
X1178Y658D02*
X1185Y658D01*
X563Y657D02*
X570Y657D01*
X783Y657D02*
X789Y657D01*
X830Y657D02*
X836Y657D01*
X1005Y657D02*
X1019Y657D01*
X1079Y657D02*
X1081Y657D01*
X1151Y657D02*
X1153Y657D01*
X1178Y657D02*
X1185Y657D01*
X563Y656D02*
X570Y656D01*
X783Y656D02*
X788Y656D01*
X831Y656D02*
X835Y656D01*
X1005Y656D02*
X1019Y656D01*
X1079Y656D02*
X1081Y656D01*
X1151Y656D02*
X1153Y656D01*
X1179Y656D02*
X1183Y656D01*
X563Y655D02*
X570Y655D01*
X785Y655D02*
X787Y655D01*
X832Y655D02*
X834Y655D01*
X1005Y655D02*
X1019Y655D01*
X1079Y655D02*
X1081Y655D01*
X1151Y655D02*
X1153Y655D01*
X563Y654D02*
X570Y654D01*
X1005Y654D02*
X1019Y654D01*
X1079Y654D02*
X1081Y654D01*
X1151Y654D02*
X1153Y654D01*
X563Y653D02*
X570Y653D01*
X1005Y653D02*
X1019Y653D01*
X1079Y653D02*
X1081Y653D01*
X1151Y653D02*
X1153Y653D01*
X563Y652D02*
X570Y652D01*
X1005Y652D02*
X1019Y652D01*
X1079Y652D02*
X1081Y652D01*
X1151Y652D02*
X1153Y652D01*
X563Y651D02*
X570Y651D01*
X1005Y651D02*
X1019Y651D01*
X1079Y651D02*
X1081Y651D01*
X1151Y651D02*
X1153Y651D01*
X563Y650D02*
X570Y650D01*
X1005Y650D02*
X1019Y650D01*
X1079Y650D02*
X1081Y650D01*
X1151Y650D02*
X1153Y650D01*
X563Y649D02*
X570Y649D01*
X1005Y649D02*
X1019Y649D01*
X1079Y649D02*
X1081Y649D01*
X1151Y649D02*
X1153Y649D01*
X563Y648D02*
X570Y648D01*
X1005Y648D02*
X1019Y648D01*
X1079Y648D02*
X1081Y648D01*
X1151Y648D02*
X1153Y648D01*
X563Y647D02*
X570Y647D01*
X1005Y647D02*
X1019Y647D01*
X1079Y647D02*
X1081Y647D01*
X1151Y647D02*
X1153Y647D01*
X563Y646D02*
X570Y646D01*
X1005Y646D02*
X1019Y646D01*
X1079Y646D02*
X1082Y646D01*
X1087Y646D02*
X1145Y646D01*
X1150Y646D02*
X1153Y646D01*
X563Y645D02*
X570Y645D01*
X1005Y645D02*
X1019Y645D01*
X1079Y645D02*
X1082Y645D01*
X1087Y645D02*
X1145Y645D01*
X1150Y645D02*
X1153Y645D01*
X1168Y645D02*
X1182Y645D01*
X563Y644D02*
X570Y644D01*
X1005Y644D02*
X1019Y644D01*
X1079Y644D02*
X1082Y644D01*
X1087Y644D02*
X1145Y644D01*
X1150Y644D02*
X1153Y644D01*
X1167Y644D02*
X1183Y644D01*
X563Y643D02*
X570Y643D01*
X1005Y643D02*
X1019Y643D01*
X1079Y643D02*
X1082Y643D01*
X1150Y643D02*
X1153Y643D01*
X1166Y643D02*
X1184Y643D01*
X563Y642D02*
X570Y642D01*
X1005Y642D02*
X1019Y642D01*
X1079Y642D02*
X1082Y642D01*
X1150Y642D02*
X1153Y642D01*
X1165Y642D02*
X1185Y642D01*
X563Y641D02*
X570Y641D01*
X1005Y641D02*
X1019Y641D01*
X1079Y641D02*
X1082Y641D01*
X1150Y641D02*
X1153Y641D01*
X1165Y641D02*
X1169Y641D01*
X1173Y641D02*
X1176Y641D01*
X1182Y641D02*
X1186Y641D01*
X563Y640D02*
X570Y640D01*
X1005Y640D02*
X1019Y640D01*
X1079Y640D02*
X1082Y640D01*
X1150Y640D02*
X1153Y640D01*
X1164Y640D02*
X1168Y640D01*
X1173Y640D02*
X1176Y640D01*
X1182Y640D02*
X1186Y640D01*
X563Y639D02*
X570Y639D01*
X1005Y639D02*
X1019Y639D01*
X1079Y639D02*
X1082Y639D01*
X1150Y639D02*
X1153Y639D01*
X1164Y639D02*
X1167Y639D01*
X1173Y639D02*
X1176Y639D01*
X1183Y639D02*
X1186Y639D01*
X563Y638D02*
X570Y638D01*
X787Y638D02*
X791Y638D01*
X1005Y638D02*
X1019Y638D01*
X1079Y638D02*
X1082Y638D01*
X1150Y638D02*
X1153Y638D01*
X1164Y638D02*
X1167Y638D01*
X1173Y638D02*
X1176Y638D01*
X1183Y638D02*
X1187Y638D01*
X563Y637D02*
X570Y637D01*
X786Y637D02*
X791Y637D01*
X1005Y637D02*
X1019Y637D01*
X1079Y637D02*
X1082Y637D01*
X1150Y637D02*
X1153Y637D01*
X1164Y637D02*
X1167Y637D01*
X1173Y637D02*
X1176Y637D01*
X1183Y637D02*
X1187Y637D01*
X563Y636D02*
X570Y636D01*
X785Y636D02*
X792Y636D01*
X1005Y636D02*
X1019Y636D01*
X1079Y636D02*
X1082Y636D01*
X1150Y636D02*
X1153Y636D01*
X1164Y636D02*
X1167Y636D01*
X1173Y636D02*
X1176Y636D01*
X1183Y636D02*
X1187Y636D01*
X563Y635D02*
X570Y635D01*
X785Y635D02*
X792Y635D01*
X1005Y635D02*
X1019Y635D01*
X1079Y635D02*
X1082Y635D01*
X1150Y635D02*
X1153Y635D01*
X1164Y635D02*
X1167Y635D01*
X1173Y635D02*
X1176Y635D01*
X1183Y635D02*
X1187Y635D01*
X563Y634D02*
X570Y634D01*
X785Y634D02*
X791Y634D01*
X1005Y634D02*
X1019Y634D01*
X1079Y634D02*
X1082Y634D01*
X1150Y634D02*
X1153Y634D01*
X1164Y634D02*
X1167Y634D01*
X1173Y634D02*
X1176Y634D01*
X1183Y634D02*
X1187Y634D01*
X563Y633D02*
X570Y633D01*
X784Y633D02*
X791Y633D01*
X1005Y633D02*
X1019Y633D01*
X1079Y633D02*
X1082Y633D01*
X1150Y633D02*
X1153Y633D01*
X1164Y633D02*
X1167Y633D01*
X1173Y633D02*
X1176Y633D01*
X1183Y633D02*
X1187Y633D01*
X563Y632D02*
X570Y632D01*
X784Y632D02*
X790Y632D01*
X807Y632D02*
X836Y632D01*
X1005Y632D02*
X1019Y632D01*
X1079Y632D02*
X1082Y632D01*
X1150Y632D02*
X1153Y632D01*
X1164Y632D02*
X1167Y632D01*
X1173Y632D02*
X1176Y632D01*
X1183Y632D02*
X1186Y632D01*
X563Y631D02*
X570Y631D01*
X783Y631D02*
X790Y631D01*
X806Y631D02*
X836Y631D01*
X1005Y631D02*
X1019Y631D01*
X1079Y631D02*
X1082Y631D01*
X1150Y631D02*
X1153Y631D01*
X1164Y631D02*
X1167Y631D01*
X1173Y631D02*
X1176Y631D01*
X1182Y631D02*
X1186Y631D01*
X563Y630D02*
X570Y630D01*
X783Y630D02*
X790Y630D01*
X806Y630D02*
X836Y630D01*
X1005Y630D02*
X1019Y630D01*
X1079Y630D02*
X1081Y630D01*
X1151Y630D02*
X1153Y630D01*
X1164Y630D02*
X1167Y630D01*
X1173Y630D02*
X1176Y630D01*
X1181Y630D02*
X1186Y630D01*
X563Y629D02*
X570Y629D01*
X783Y629D02*
X789Y629D01*
X806Y629D02*
X836Y629D01*
X1005Y629D02*
X1019Y629D01*
X1079Y629D02*
X1081Y629D01*
X1151Y629D02*
X1153Y629D01*
X1164Y629D02*
X1167Y629D01*
X1173Y629D02*
X1185Y629D01*
X563Y628D02*
X570Y628D01*
X783Y628D02*
X789Y628D01*
X806Y628D02*
X836Y628D01*
X1005Y628D02*
X1019Y628D01*
X1079Y628D02*
X1081Y628D01*
X1151Y628D02*
X1153Y628D01*
X1164Y628D02*
X1167Y628D01*
X1173Y628D02*
X1184Y628D01*
X563Y627D02*
X570Y627D01*
X783Y627D02*
X789Y627D01*
X806Y627D02*
X836Y627D01*
X1005Y627D02*
X1019Y627D01*
X1079Y627D02*
X1081Y627D01*
X1151Y627D02*
X1153Y627D01*
X1164Y627D02*
X1167Y627D01*
X1173Y627D02*
X1183Y627D01*
X563Y626D02*
X570Y626D01*
X783Y626D02*
X789Y626D01*
X806Y626D02*
X836Y626D01*
X1005Y626D02*
X1019Y626D01*
X1079Y626D02*
X1081Y626D01*
X1151Y626D02*
X1153Y626D01*
X1164Y626D02*
X1167Y626D01*
X1173Y626D02*
X1182Y626D01*
X563Y625D02*
X570Y625D01*
X783Y625D02*
X789Y625D01*
X806Y625D02*
X813Y625D01*
X830Y625D02*
X836Y625D01*
X1005Y625D02*
X1019Y625D01*
X1079Y625D02*
X1081Y625D01*
X1151Y625D02*
X1153Y625D01*
X563Y624D02*
X570Y624D01*
X783Y624D02*
X789Y624D01*
X806Y624D02*
X812Y624D01*
X830Y624D02*
X836Y624D01*
X1005Y624D02*
X1018Y624D01*
X1079Y624D02*
X1081Y624D01*
X1151Y624D02*
X1153Y624D01*
X563Y623D02*
X570Y623D01*
X783Y623D02*
X789Y623D01*
X806Y623D02*
X812Y623D01*
X830Y623D02*
X836Y623D01*
X1005Y623D02*
X1016Y623D01*
X1079Y623D02*
X1081Y623D01*
X1151Y623D02*
X1153Y623D01*
X563Y622D02*
X570Y622D01*
X783Y622D02*
X789Y622D01*
X806Y622D02*
X812Y622D01*
X830Y622D02*
X836Y622D01*
X1005Y622D02*
X1014Y622D01*
X1079Y622D02*
X1081Y622D01*
X1151Y622D02*
X1153Y622D01*
X1352Y622D02*
X1365Y622D01*
X563Y621D02*
X570Y621D01*
X783Y621D02*
X789Y621D01*
X806Y621D02*
X812Y621D01*
X830Y621D02*
X836Y621D01*
X1005Y621D02*
X1012Y621D01*
X1079Y621D02*
X1081Y621D01*
X1151Y621D02*
X1153Y621D01*
X1351Y621D02*
X1366Y621D01*
X563Y620D02*
X570Y620D01*
X783Y620D02*
X789Y620D01*
X806Y620D02*
X812Y620D01*
X830Y620D02*
X836Y620D01*
X1005Y620D02*
X1011Y620D01*
X1079Y620D02*
X1081Y620D01*
X1151Y620D02*
X1153Y620D01*
X1351Y620D02*
X1366Y620D01*
X563Y619D02*
X570Y619D01*
X783Y619D02*
X789Y619D01*
X806Y619D02*
X812Y619D01*
X830Y619D02*
X836Y619D01*
X1005Y619D02*
X1010Y619D01*
X1079Y619D02*
X1081Y619D01*
X1151Y619D02*
X1153Y619D01*
X1361Y619D02*
X1364Y619D01*
X563Y618D02*
X570Y618D01*
X783Y618D02*
X789Y618D01*
X806Y618D02*
X812Y618D01*
X830Y618D02*
X836Y618D01*
X1005Y618D02*
X1009Y618D01*
X1079Y618D02*
X1081Y618D01*
X1151Y618D02*
X1153Y618D01*
X1362Y618D02*
X1364Y618D01*
X563Y617D02*
X570Y617D01*
X783Y617D02*
X789Y617D01*
X806Y617D02*
X812Y617D01*
X830Y617D02*
X836Y617D01*
X1005Y617D02*
X1008Y617D01*
X1079Y617D02*
X1081Y617D01*
X1151Y617D02*
X1153Y617D01*
X1363Y617D02*
X1365Y617D01*
X563Y616D02*
X570Y616D01*
X783Y616D02*
X789Y616D01*
X806Y616D02*
X812Y616D01*
X830Y616D02*
X836Y616D01*
X1005Y616D02*
X1007Y616D01*
X1079Y616D02*
X1081Y616D01*
X1151Y616D02*
X1153Y616D01*
X1363Y616D02*
X1366Y616D01*
X563Y615D02*
X570Y615D01*
X783Y615D02*
X789Y615D01*
X806Y615D02*
X812Y615D01*
X830Y615D02*
X836Y615D01*
X1005Y615D02*
X1006Y615D01*
X1079Y615D02*
X1081Y615D01*
X1151Y615D02*
X1153Y615D01*
X1179Y615D02*
X1186Y615D01*
X1364Y615D02*
X1366Y615D01*
X563Y614D02*
X570Y614D01*
X783Y614D02*
X789Y614D01*
X806Y614D02*
X812Y614D01*
X830Y614D02*
X836Y614D01*
X1005Y614D02*
X1006Y614D01*
X1079Y614D02*
X1081Y614D01*
X1151Y614D02*
X1153Y614D01*
X1177Y614D02*
X1186Y614D01*
X1364Y614D02*
X1366Y614D01*
X563Y613D02*
X570Y613D01*
X783Y613D02*
X789Y613D01*
X806Y613D02*
X812Y613D01*
X830Y613D02*
X836Y613D01*
X1005Y613D02*
X1005Y613D01*
X1079Y613D02*
X1081Y613D01*
X1151Y613D02*
X1153Y613D01*
X1175Y613D02*
X1186Y613D01*
X1364Y613D02*
X1366Y613D01*
X563Y612D02*
X570Y612D01*
X783Y612D02*
X789Y612D01*
X806Y612D02*
X812Y612D01*
X830Y612D02*
X836Y612D01*
X1005Y612D02*
X1005Y612D01*
X1079Y612D02*
X1081Y612D01*
X1151Y612D02*
X1153Y612D01*
X1172Y612D02*
X1185Y612D01*
X1364Y612D02*
X1366Y612D01*
X563Y611D02*
X570Y611D01*
X783Y611D02*
X812Y611D01*
X830Y611D02*
X836Y611D01*
X1079Y611D02*
X1081Y611D01*
X1151Y611D02*
X1153Y611D01*
X1170Y611D02*
X1180Y611D01*
X1363Y611D02*
X1366Y611D01*
X563Y610D02*
X570Y610D01*
X783Y610D02*
X812Y610D01*
X830Y610D02*
X836Y610D01*
X1079Y610D02*
X1081Y610D01*
X1151Y610D02*
X1153Y610D01*
X1168Y610D02*
X1177Y610D01*
X1351Y610D02*
X1365Y610D01*
X563Y609D02*
X570Y609D01*
X783Y609D02*
X812Y609D01*
X830Y609D02*
X836Y609D01*
X1079Y609D02*
X1081Y609D01*
X1151Y609D02*
X1153Y609D01*
X1166Y609D02*
X1175Y609D01*
X1351Y609D02*
X1364Y609D01*
X563Y608D02*
X570Y608D01*
X784Y608D02*
X811Y608D01*
X830Y608D02*
X836Y608D01*
X1079Y608D02*
X1081Y608D01*
X1151Y608D02*
X1153Y608D01*
X1164Y608D02*
X1173Y608D01*
X1351Y608D02*
X1361Y608D01*
X563Y607D02*
X570Y607D01*
X784Y607D02*
X811Y607D01*
X830Y607D02*
X836Y607D01*
X1079Y607D02*
X1081Y607D01*
X1151Y607D02*
X1153Y607D01*
X1164Y607D02*
X1170Y607D01*
X563Y606D02*
X570Y606D01*
X786Y606D02*
X809Y606D01*
X831Y606D02*
X835Y606D01*
X1079Y606D02*
X1081Y606D01*
X1151Y606D02*
X1153Y606D01*
X1164Y606D02*
X1168Y606D01*
X563Y605D02*
X570Y605D01*
X787Y605D02*
X808Y605D01*
X832Y605D02*
X834Y605D01*
X1079Y605D02*
X1081Y605D01*
X1151Y605D02*
X1153Y605D01*
X1164Y605D02*
X1169Y605D01*
X563Y604D02*
X570Y604D01*
X1079Y604D02*
X1081Y604D01*
X1151Y604D02*
X1153Y604D01*
X1164Y604D02*
X1171Y604D01*
X563Y603D02*
X570Y603D01*
X1079Y603D02*
X1081Y603D01*
X1151Y603D02*
X1153Y603D01*
X1164Y603D02*
X1173Y603D01*
X563Y602D02*
X570Y602D01*
X1079Y602D02*
X1081Y602D01*
X1151Y602D02*
X1153Y602D01*
X1166Y602D02*
X1175Y602D01*
X563Y601D02*
X570Y601D01*
X1079Y601D02*
X1081Y601D01*
X1151Y601D02*
X1153Y601D01*
X1168Y601D02*
X1178Y601D01*
X1345Y601D02*
X1366Y601D01*
X563Y600D02*
X570Y600D01*
X1079Y600D02*
X1081Y600D01*
X1151Y600D02*
X1153Y600D01*
X1171Y600D02*
X1180Y600D01*
X1345Y600D02*
X1367Y600D01*
X563Y599D02*
X570Y599D01*
X1079Y599D02*
X1081Y599D01*
X1151Y599D02*
X1153Y599D01*
X1173Y599D02*
X1186Y599D01*
X1345Y599D02*
X1366Y599D01*
X563Y598D02*
X570Y598D01*
X1079Y598D02*
X1081Y598D01*
X1151Y598D02*
X1153Y598D01*
X1175Y598D02*
X1186Y598D01*
X1352Y598D02*
X1355Y598D01*
X1361Y598D02*
X1365Y598D01*
X563Y597D02*
X570Y597D01*
X1079Y597D02*
X1081Y597D01*
X1151Y597D02*
X1153Y597D01*
X1177Y597D02*
X1186Y597D01*
X1351Y597D02*
X1354Y597D01*
X1363Y597D02*
X1366Y597D01*
X563Y596D02*
X570Y596D01*
X1079Y596D02*
X1081Y596D01*
X1151Y596D02*
X1153Y596D01*
X1180Y596D02*
X1186Y596D01*
X1350Y596D02*
X1353Y596D01*
X1364Y596D02*
X1366Y596D01*
X563Y595D02*
X570Y595D01*
X1079Y595D02*
X1081Y595D01*
X1151Y595D02*
X1153Y595D01*
X1350Y595D02*
X1352Y595D01*
X1364Y595D02*
X1367Y595D01*
X563Y594D02*
X570Y594D01*
X1079Y594D02*
X1081Y594D01*
X1151Y594D02*
X1153Y594D01*
X1350Y594D02*
X1352Y594D01*
X1365Y594D02*
X1367Y594D01*
X563Y593D02*
X570Y593D01*
X1079Y593D02*
X1081Y593D01*
X1151Y593D02*
X1153Y593D01*
X1350Y593D02*
X1352Y593D01*
X1365Y593D02*
X1367Y593D01*
X563Y592D02*
X570Y592D01*
X1079Y592D02*
X1081Y592D01*
X1151Y592D02*
X1153Y592D01*
X1350Y592D02*
X1353Y592D01*
X1364Y592D02*
X1366Y592D01*
X563Y591D02*
X570Y591D01*
X1079Y591D02*
X1081Y591D01*
X1151Y591D02*
X1153Y591D01*
X1351Y591D02*
X1354Y591D01*
X1363Y591D02*
X1366Y591D01*
X563Y590D02*
X570Y590D01*
X1005Y590D02*
X1005Y590D01*
X1079Y590D02*
X1081Y590D01*
X1151Y590D02*
X1153Y590D01*
X1352Y590D02*
X1355Y590D01*
X1362Y590D02*
X1365Y590D01*
X563Y589D02*
X570Y589D01*
X821Y589D02*
X833Y589D01*
X1005Y589D02*
X1005Y589D01*
X1079Y589D02*
X1081Y589D01*
X1151Y589D02*
X1153Y589D01*
X1353Y589D02*
X1364Y589D01*
X563Y588D02*
X570Y588D01*
X818Y588D02*
X833Y588D01*
X1005Y588D02*
X1006Y588D01*
X1079Y588D02*
X1081Y588D01*
X1151Y588D02*
X1153Y588D01*
X1354Y588D02*
X1363Y588D01*
X563Y587D02*
X570Y587D01*
X815Y587D02*
X832Y587D01*
X1005Y587D02*
X1006Y587D01*
X1079Y587D02*
X1081Y587D01*
X1151Y587D02*
X1153Y587D01*
X1355Y587D02*
X1362Y587D01*
X563Y586D02*
X570Y586D01*
X813Y586D02*
X832Y586D01*
X1005Y586D02*
X1007Y586D01*
X1079Y586D02*
X1081Y586D01*
X1151Y586D02*
X1153Y586D01*
X563Y585D02*
X570Y585D01*
X810Y585D02*
X831Y585D01*
X1005Y585D02*
X1008Y585D01*
X1079Y585D02*
X1081Y585D01*
X1151Y585D02*
X1153Y585D01*
X563Y584D02*
X570Y584D01*
X808Y584D02*
X831Y584D01*
X1005Y584D02*
X1009Y584D01*
X1079Y584D02*
X1081Y584D01*
X1151Y584D02*
X1153Y584D01*
X563Y583D02*
X570Y583D01*
X805Y583D02*
X831Y583D01*
X1005Y583D02*
X1010Y583D01*
X1079Y583D02*
X1081Y583D01*
X1151Y583D02*
X1153Y583D01*
X563Y582D02*
X570Y582D01*
X803Y582D02*
X821Y582D01*
X1005Y582D02*
X1011Y582D01*
X1079Y582D02*
X1081Y582D01*
X1151Y582D02*
X1153Y582D01*
X563Y581D02*
X570Y581D01*
X800Y581D02*
X818Y581D01*
X1005Y581D02*
X1013Y581D01*
X1079Y581D02*
X1081Y581D01*
X1151Y581D02*
X1153Y581D01*
X563Y580D02*
X570Y580D01*
X797Y580D02*
X816Y580D01*
X1005Y580D02*
X1014Y580D01*
X1079Y580D02*
X1081Y580D01*
X1151Y580D02*
X1153Y580D01*
X1351Y580D02*
X1352Y580D01*
X563Y579D02*
X570Y579D01*
X795Y579D02*
X813Y579D01*
X1005Y579D02*
X1016Y579D01*
X1079Y579D02*
X1081Y579D01*
X1151Y579D02*
X1153Y579D01*
X1351Y579D02*
X1353Y579D01*
X1364Y579D02*
X1366Y579D01*
X563Y578D02*
X570Y578D01*
X792Y578D02*
X811Y578D01*
X1005Y578D02*
X1019Y578D01*
X1079Y578D02*
X1081Y578D01*
X1151Y578D02*
X1153Y578D01*
X1351Y578D02*
X1354Y578D01*
X1363Y578D02*
X1366Y578D01*
X563Y577D02*
X570Y577D01*
X790Y577D02*
X808Y577D01*
X1005Y577D02*
X1019Y577D01*
X1079Y577D02*
X1081Y577D01*
X1151Y577D02*
X1153Y577D01*
X1352Y577D02*
X1356Y577D01*
X1362Y577D02*
X1365Y577D01*
X563Y576D02*
X570Y576D01*
X787Y576D02*
X806Y576D01*
X1005Y576D02*
X1019Y576D01*
X1079Y576D02*
X1081Y576D01*
X1151Y576D02*
X1153Y576D01*
X1353Y576D02*
X1357Y576D01*
X1360Y576D02*
X1364Y576D01*
X563Y575D02*
X570Y575D01*
X785Y575D02*
X803Y575D01*
X1005Y575D02*
X1019Y575D01*
X1079Y575D02*
X1081Y575D01*
X1151Y575D02*
X1153Y575D01*
X1354Y575D02*
X1363Y575D01*
X563Y574D02*
X570Y574D01*
X783Y574D02*
X801Y574D01*
X1005Y574D02*
X1019Y574D01*
X1079Y574D02*
X1081Y574D01*
X1151Y574D02*
X1153Y574D01*
X1356Y574D02*
X1361Y574D01*
X563Y573D02*
X570Y573D01*
X783Y573D02*
X798Y573D01*
X1005Y573D02*
X1019Y573D01*
X1079Y573D02*
X1081Y573D01*
X1151Y573D02*
X1153Y573D01*
X1356Y573D02*
X1361Y573D01*
X563Y572D02*
X570Y572D01*
X783Y572D02*
X796Y572D01*
X1005Y572D02*
X1019Y572D01*
X1079Y572D02*
X1081Y572D01*
X1151Y572D02*
X1153Y572D01*
X1355Y572D02*
X1362Y572D01*
X563Y571D02*
X570Y571D01*
X783Y571D02*
X797Y571D01*
X1005Y571D02*
X1019Y571D01*
X1079Y571D02*
X1081Y571D01*
X1151Y571D02*
X1153Y571D01*
X1354Y571D02*
X1363Y571D01*
X563Y570D02*
X570Y570D01*
X783Y570D02*
X800Y570D01*
X1005Y570D02*
X1019Y570D01*
X1079Y570D02*
X1081Y570D01*
X1151Y570D02*
X1153Y570D01*
X1353Y570D02*
X1357Y570D01*
X1360Y570D02*
X1364Y570D01*
X563Y569D02*
X570Y569D01*
X784Y569D02*
X802Y569D01*
X1005Y569D02*
X1019Y569D01*
X1079Y569D02*
X1081Y569D01*
X1151Y569D02*
X1153Y569D01*
X1352Y569D02*
X1355Y569D01*
X1362Y569D02*
X1365Y569D01*
X563Y568D02*
X570Y568D01*
X786Y568D02*
X805Y568D01*
X1005Y568D02*
X1019Y568D01*
X1079Y568D02*
X1081Y568D01*
X1151Y568D02*
X1153Y568D01*
X1351Y568D02*
X1354Y568D01*
X1363Y568D02*
X1366Y568D01*
X563Y567D02*
X570Y567D01*
X789Y567D02*
X807Y567D01*
X1005Y567D02*
X1019Y567D01*
X1079Y567D02*
X1081Y567D01*
X1151Y567D02*
X1153Y567D01*
X1351Y567D02*
X1353Y567D01*
X1364Y567D02*
X1366Y567D01*
X563Y566D02*
X570Y566D01*
X791Y566D02*
X810Y566D01*
X1005Y566D02*
X1019Y566D01*
X1079Y566D02*
X1081Y566D01*
X1151Y566D02*
X1153Y566D01*
X1352Y566D02*
X1352Y566D01*
X563Y565D02*
X570Y565D01*
X794Y565D02*
X812Y565D01*
X1005Y565D02*
X1019Y565D01*
X1079Y565D02*
X1153Y565D01*
X563Y564D02*
X570Y564D01*
X797Y564D02*
X815Y564D01*
X1005Y564D02*
X1019Y564D01*
X1079Y564D02*
X1153Y564D01*
X563Y563D02*
X570Y563D01*
X799Y563D02*
X817Y563D01*
X1005Y563D02*
X1019Y563D01*
X1079Y563D02*
X1153Y563D01*
X563Y562D02*
X570Y562D01*
X802Y562D02*
X820Y562D01*
X1005Y562D02*
X1019Y562D01*
X563Y561D02*
X570Y561D01*
X804Y561D02*
X833Y561D01*
X1005Y561D02*
X1019Y561D01*
X563Y560D02*
X570Y560D01*
X807Y560D02*
X834Y560D01*
X1005Y560D02*
X1019Y560D01*
X563Y559D02*
X570Y559D01*
X809Y559D02*
X834Y559D01*
X1005Y559D02*
X1019Y559D01*
X563Y558D02*
X570Y558D01*
X812Y558D02*
X835Y558D01*
X1005Y558D02*
X1019Y558D01*
X563Y557D02*
X570Y557D01*
X814Y557D02*
X836Y557D01*
X1005Y557D02*
X1019Y557D01*
X563Y556D02*
X570Y556D01*
X817Y556D02*
X835Y556D01*
X1005Y556D02*
X1019Y556D01*
X563Y555D02*
X570Y555D01*
X820Y555D02*
X834Y555D01*
X1005Y555D02*
X1019Y555D01*
X563Y554D02*
X570Y554D01*
X1005Y554D02*
X1019Y554D01*
X563Y553D02*
X570Y553D01*
X1005Y553D02*
X1019Y553D01*
X563Y552D02*
X570Y552D01*
X1005Y552D02*
X1019Y552D01*
X563Y551D02*
X570Y551D01*
X1005Y551D02*
X1019Y551D01*
X1078Y551D02*
X1152Y551D01*
X563Y550D02*
X570Y550D01*
X1005Y550D02*
X1019Y550D01*
X1078Y550D02*
X1152Y550D01*
X563Y549D02*
X570Y549D01*
X1005Y549D02*
X1019Y549D01*
X1078Y549D02*
X1152Y549D01*
X563Y548D02*
X570Y548D01*
X1005Y548D02*
X1019Y548D01*
X1078Y548D02*
X1080Y548D01*
X1150Y548D02*
X1152Y548D01*
X563Y547D02*
X570Y547D01*
X1005Y547D02*
X1019Y547D01*
X1078Y547D02*
X1080Y547D01*
X1150Y547D02*
X1152Y547D01*
X563Y546D02*
X570Y546D01*
X1005Y546D02*
X1019Y546D01*
X1078Y546D02*
X1080Y546D01*
X1150Y546D02*
X1152Y546D01*
X563Y545D02*
X570Y545D01*
X1005Y545D02*
X1019Y545D01*
X1078Y545D02*
X1080Y545D01*
X1150Y545D02*
X1152Y545D01*
X563Y544D02*
X570Y544D01*
X1005Y544D02*
X1019Y544D01*
X1078Y544D02*
X1080Y544D01*
X1150Y544D02*
X1152Y544D01*
X563Y543D02*
X570Y543D01*
X1005Y543D02*
X1019Y543D01*
X1078Y543D02*
X1080Y543D01*
X1150Y543D02*
X1152Y543D01*
X563Y542D02*
X570Y542D01*
X1005Y542D02*
X1019Y542D01*
X1078Y542D02*
X1080Y542D01*
X1150Y542D02*
X1152Y542D01*
X563Y541D02*
X570Y541D01*
X1005Y541D02*
X1019Y541D01*
X1078Y541D02*
X1080Y541D01*
X1150Y541D02*
X1152Y541D01*
X563Y540D02*
X570Y540D01*
X1005Y540D02*
X1019Y540D01*
X1078Y540D02*
X1080Y540D01*
X1150Y540D02*
X1152Y540D01*
X563Y539D02*
X570Y539D01*
X786Y539D02*
X786Y539D01*
X833Y539D02*
X833Y539D01*
X1005Y539D02*
X1019Y539D01*
X1078Y539D02*
X1080Y539D01*
X1150Y539D02*
X1152Y539D01*
X563Y538D02*
X570Y538D01*
X784Y538D02*
X788Y538D01*
X831Y538D02*
X835Y538D01*
X1005Y538D02*
X1019Y538D01*
X1078Y538D02*
X1080Y538D01*
X1150Y538D02*
X1152Y538D01*
X563Y537D02*
X570Y537D01*
X783Y537D02*
X788Y537D01*
X830Y537D02*
X836Y537D01*
X1005Y537D02*
X1019Y537D01*
X1078Y537D02*
X1080Y537D01*
X1150Y537D02*
X1152Y537D01*
X563Y536D02*
X570Y536D01*
X783Y536D02*
X789Y536D01*
X830Y536D02*
X836Y536D01*
X1005Y536D02*
X1019Y536D01*
X1078Y536D02*
X1080Y536D01*
X1150Y536D02*
X1152Y536D01*
X563Y535D02*
X570Y535D01*
X783Y535D02*
X789Y535D01*
X830Y535D02*
X836Y535D01*
X1005Y535D02*
X1019Y535D01*
X1078Y535D02*
X1080Y535D01*
X1150Y535D02*
X1152Y535D01*
X563Y534D02*
X570Y534D01*
X783Y534D02*
X789Y534D01*
X830Y534D02*
X836Y534D01*
X1005Y534D02*
X1019Y534D01*
X1078Y534D02*
X1080Y534D01*
X1150Y534D02*
X1152Y534D01*
X563Y533D02*
X570Y533D01*
X783Y533D02*
X789Y533D01*
X830Y533D02*
X836Y533D01*
X1005Y533D02*
X1019Y533D01*
X1078Y533D02*
X1080Y533D01*
X1150Y533D02*
X1152Y533D01*
X563Y532D02*
X570Y532D01*
X783Y532D02*
X789Y532D01*
X809Y532D02*
X810Y532D01*
X830Y532D02*
X836Y532D01*
X1005Y532D02*
X1019Y532D01*
X1078Y532D02*
X1080Y532D01*
X1150Y532D02*
X1152Y532D01*
X563Y531D02*
X570Y531D01*
X783Y531D02*
X789Y531D01*
X807Y531D02*
X811Y531D01*
X830Y531D02*
X836Y531D01*
X1005Y531D02*
X1019Y531D01*
X1078Y531D02*
X1080Y531D01*
X1150Y531D02*
X1152Y531D01*
X563Y530D02*
X570Y530D01*
X783Y530D02*
X789Y530D01*
X807Y530D02*
X812Y530D01*
X830Y530D02*
X836Y530D01*
X1005Y530D02*
X1019Y530D01*
X1078Y530D02*
X1080Y530D01*
X1150Y530D02*
X1152Y530D01*
X563Y529D02*
X570Y529D01*
X783Y529D02*
X789Y529D01*
X806Y529D02*
X812Y529D01*
X830Y529D02*
X836Y529D01*
X1005Y529D02*
X1019Y529D01*
X1078Y529D02*
X1080Y529D01*
X1150Y529D02*
X1152Y529D01*
X563Y528D02*
X570Y528D01*
X783Y528D02*
X789Y528D01*
X806Y528D02*
X812Y528D01*
X830Y528D02*
X836Y528D01*
X1005Y528D02*
X1019Y528D01*
X1078Y528D02*
X1080Y528D01*
X1150Y528D02*
X1152Y528D01*
X563Y527D02*
X570Y527D01*
X783Y527D02*
X789Y527D01*
X806Y527D02*
X812Y527D01*
X830Y527D02*
X836Y527D01*
X1005Y527D02*
X1019Y527D01*
X1078Y527D02*
X1080Y527D01*
X1150Y527D02*
X1152Y527D01*
X563Y526D02*
X570Y526D01*
X783Y526D02*
X789Y526D01*
X806Y526D02*
X812Y526D01*
X830Y526D02*
X836Y526D01*
X1005Y526D02*
X1019Y526D01*
X1078Y526D02*
X1080Y526D01*
X1150Y526D02*
X1152Y526D01*
X563Y525D02*
X570Y525D01*
X783Y525D02*
X789Y525D01*
X806Y525D02*
X812Y525D01*
X830Y525D02*
X836Y525D01*
X1005Y525D02*
X1019Y525D01*
X1078Y525D02*
X1080Y525D01*
X1150Y525D02*
X1152Y525D01*
X563Y524D02*
X570Y524D01*
X783Y524D02*
X789Y524D01*
X806Y524D02*
X812Y524D01*
X830Y524D02*
X836Y524D01*
X1005Y524D02*
X1019Y524D01*
X1078Y524D02*
X1080Y524D01*
X1150Y524D02*
X1152Y524D01*
X563Y523D02*
X570Y523D01*
X783Y523D02*
X789Y523D01*
X806Y523D02*
X812Y523D01*
X830Y523D02*
X836Y523D01*
X1005Y523D02*
X1019Y523D01*
X1078Y523D02*
X1080Y523D01*
X1150Y523D02*
X1152Y523D01*
X563Y522D02*
X570Y522D01*
X783Y522D02*
X789Y522D01*
X806Y522D02*
X812Y522D01*
X830Y522D02*
X836Y522D01*
X1005Y522D02*
X1019Y522D01*
X1078Y522D02*
X1080Y522D01*
X1150Y522D02*
X1152Y522D01*
X1354Y522D02*
X1358Y522D01*
X563Y521D02*
X570Y521D01*
X783Y521D02*
X789Y521D01*
X806Y521D02*
X812Y521D01*
X830Y521D02*
X836Y521D01*
X1005Y521D02*
X1019Y521D01*
X1078Y521D02*
X1080Y521D01*
X1150Y521D02*
X1152Y521D01*
X1351Y521D02*
X1360Y521D01*
X563Y520D02*
X570Y520D01*
X783Y520D02*
X789Y520D01*
X806Y520D02*
X812Y520D01*
X830Y520D02*
X836Y520D01*
X1005Y520D02*
X1019Y520D01*
X1078Y520D02*
X1080Y520D01*
X1150Y520D02*
X1152Y520D01*
X1343Y520D02*
X1344Y520D01*
X1350Y520D02*
X1361Y520D01*
X563Y519D02*
X570Y519D01*
X783Y519D02*
X789Y519D01*
X806Y519D02*
X812Y519D01*
X830Y519D02*
X836Y519D01*
X1005Y519D02*
X1019Y519D01*
X1078Y519D02*
X1080Y519D01*
X1150Y519D02*
X1152Y519D01*
X1342Y519D02*
X1344Y519D01*
X1350Y519D02*
X1352Y519D01*
X1359Y519D02*
X1362Y519D01*
X563Y518D02*
X570Y518D01*
X783Y518D02*
X789Y518D01*
X806Y518D02*
X812Y518D01*
X830Y518D02*
X836Y518D01*
X1005Y518D02*
X1019Y518D01*
X1078Y518D02*
X1080Y518D01*
X1150Y518D02*
X1152Y518D01*
X1342Y518D02*
X1344Y518D01*
X1349Y518D02*
X1351Y518D01*
X1360Y518D02*
X1362Y518D01*
X563Y517D02*
X570Y517D01*
X783Y517D02*
X789Y517D01*
X806Y517D02*
X812Y517D01*
X830Y517D02*
X836Y517D01*
X1005Y517D02*
X1019Y517D01*
X1078Y517D02*
X1080Y517D01*
X1150Y517D02*
X1152Y517D01*
X1342Y517D02*
X1344Y517D01*
X1349Y517D02*
X1351Y517D01*
X1360Y517D02*
X1362Y517D01*
X564Y516D02*
X570Y516D01*
X783Y516D02*
X789Y516D01*
X806Y516D02*
X812Y516D01*
X830Y516D02*
X836Y516D01*
X1005Y516D02*
X1019Y516D01*
X1078Y516D02*
X1080Y516D01*
X1150Y516D02*
X1152Y516D01*
X1342Y516D02*
X1344Y516D01*
X1349Y516D02*
X1351Y516D01*
X1360Y516D02*
X1362Y516D01*
X564Y515D02*
X570Y515D01*
X783Y515D02*
X789Y515D01*
X806Y515D02*
X812Y515D01*
X830Y515D02*
X836Y515D01*
X1005Y515D02*
X1019Y515D01*
X1078Y515D02*
X1080Y515D01*
X1150Y515D02*
X1152Y515D01*
X1342Y515D02*
X1344Y515D01*
X1349Y515D02*
X1351Y515D01*
X1360Y515D02*
X1362Y515D01*
X564Y514D02*
X570Y514D01*
X783Y514D02*
X789Y514D01*
X806Y514D02*
X813Y514D01*
X830Y514D02*
X836Y514D01*
X1005Y514D02*
X1019Y514D01*
X1078Y514D02*
X1080Y514D01*
X1150Y514D02*
X1152Y514D01*
X1342Y514D02*
X1344Y514D01*
X1349Y514D02*
X1351Y514D01*
X1360Y514D02*
X1362Y514D01*
X564Y513D02*
X570Y513D01*
X783Y513D02*
X789Y513D01*
X805Y513D02*
X813Y513D01*
X830Y513D02*
X836Y513D01*
X1005Y513D02*
X1019Y513D01*
X1078Y513D02*
X1080Y513D01*
X1150Y513D02*
X1152Y513D01*
X1343Y513D02*
X1344Y513D01*
X1350Y513D02*
X1352Y513D01*
X1359Y513D02*
X1362Y513D01*
X564Y512D02*
X570Y512D01*
X783Y512D02*
X789Y512D01*
X804Y512D02*
X814Y512D01*
X830Y512D02*
X836Y512D01*
X1005Y512D02*
X1019Y512D01*
X1078Y512D02*
X1080Y512D01*
X1150Y512D02*
X1152Y512D01*
X1343Y512D02*
X1345Y512D01*
X1350Y512D02*
X1353Y512D01*
X1358Y512D02*
X1361Y512D01*
X565Y511D02*
X570Y511D01*
X783Y511D02*
X836Y511D01*
X1005Y511D02*
X1019Y511D01*
X1078Y511D02*
X1080Y511D01*
X1150Y511D02*
X1152Y511D01*
X1344Y511D02*
X1362Y511D01*
X565Y510D02*
X570Y510D01*
X783Y510D02*
X836Y510D01*
X1005Y510D02*
X1019Y510D01*
X1078Y510D02*
X1080Y510D01*
X1150Y510D02*
X1152Y510D01*
X1344Y510D02*
X1362Y510D01*
X565Y509D02*
X570Y509D01*
X783Y509D02*
X835Y509D01*
X1005Y509D02*
X1019Y509D01*
X1078Y509D02*
X1080Y509D01*
X1150Y509D02*
X1152Y509D01*
X1346Y509D02*
X1361Y509D01*
X565Y508D02*
X570Y508D01*
X784Y508D02*
X835Y508D01*
X1005Y508D02*
X1019Y508D01*
X1078Y508D02*
X1080Y508D01*
X1150Y508D02*
X1152Y508D01*
X565Y507D02*
X570Y507D01*
X784Y507D02*
X808Y507D01*
X810Y507D02*
X834Y507D01*
X1005Y507D02*
X1019Y507D01*
X1078Y507D02*
X1080Y507D01*
X1150Y507D02*
X1152Y507D01*
X565Y506D02*
X570Y506D01*
X786Y506D02*
X807Y506D01*
X812Y506D02*
X833Y506D01*
X1005Y506D02*
X1019Y506D01*
X1078Y506D02*
X1080Y506D01*
X1150Y506D02*
X1152Y506D01*
X565Y505D02*
X570Y505D01*
X787Y505D02*
X805Y505D01*
X814Y505D02*
X831Y505D01*
X1005Y505D02*
X1019Y505D01*
X1078Y505D02*
X1080Y505D01*
X1150Y505D02*
X1152Y505D01*
X565Y504D02*
X570Y504D01*
X1005Y504D02*
X1019Y504D01*
X1078Y504D02*
X1080Y504D01*
X1150Y504D02*
X1152Y504D01*
X565Y503D02*
X570Y503D01*
X1005Y503D02*
X1019Y503D01*
X1078Y503D02*
X1080Y503D01*
X1150Y503D02*
X1152Y503D01*
X565Y502D02*
X570Y502D01*
X1005Y502D02*
X1019Y502D01*
X1078Y502D02*
X1080Y502D01*
X1150Y502D02*
X1152Y502D01*
X1348Y502D02*
X1362Y502D01*
X565Y501D02*
X570Y501D01*
X1005Y501D02*
X1019Y501D01*
X1078Y501D02*
X1080Y501D01*
X1150Y501D02*
X1152Y501D01*
X1348Y501D02*
X1362Y501D01*
X565Y500D02*
X570Y500D01*
X1005Y500D02*
X1019Y500D01*
X1078Y500D02*
X1080Y500D01*
X1150Y500D02*
X1152Y500D01*
X1358Y500D02*
X1360Y500D01*
X565Y499D02*
X570Y499D01*
X1005Y499D02*
X1019Y499D01*
X1078Y499D02*
X1080Y499D01*
X1150Y499D02*
X1152Y499D01*
X1358Y499D02*
X1361Y499D01*
X565Y498D02*
X570Y498D01*
X1005Y498D02*
X1019Y498D01*
X1078Y498D02*
X1080Y498D01*
X1150Y498D02*
X1152Y498D01*
X1359Y498D02*
X1361Y498D01*
X564Y497D02*
X570Y497D01*
X1005Y497D02*
X1019Y497D01*
X1078Y497D02*
X1080Y497D01*
X1150Y497D02*
X1152Y497D01*
X1360Y497D02*
X1362Y497D01*
X564Y496D02*
X570Y496D01*
X1005Y496D02*
X1019Y496D01*
X1078Y496D02*
X1080Y496D01*
X1150Y496D02*
X1152Y496D01*
X1360Y496D02*
X1362Y496D01*
X564Y495D02*
X570Y495D01*
X1005Y495D02*
X1019Y495D01*
X1078Y495D02*
X1080Y495D01*
X1150Y495D02*
X1152Y495D01*
X1360Y495D02*
X1362Y495D01*
X564Y494D02*
X570Y494D01*
X1005Y494D02*
X1019Y494D01*
X1078Y494D02*
X1080Y494D01*
X1150Y494D02*
X1152Y494D01*
X1360Y494D02*
X1362Y494D01*
X564Y493D02*
X570Y493D01*
X1005Y493D02*
X1019Y493D01*
X1078Y493D02*
X1080Y493D01*
X1150Y493D02*
X1152Y493D01*
X1360Y493D02*
X1362Y493D01*
X563Y492D02*
X570Y492D01*
X1005Y492D02*
X1019Y492D01*
X1078Y492D02*
X1080Y492D01*
X1150Y492D02*
X1152Y492D01*
X1349Y492D02*
X1362Y492D01*
X563Y491D02*
X570Y491D01*
X1005Y491D02*
X1019Y491D01*
X1078Y491D02*
X1080Y491D01*
X1150Y491D02*
X1152Y491D01*
X1348Y491D02*
X1361Y491D01*
X563Y490D02*
X570Y490D01*
X1005Y490D02*
X1019Y490D01*
X1078Y490D02*
X1080Y490D01*
X1150Y490D02*
X1152Y490D01*
X1349Y490D02*
X1359Y490D01*
X563Y489D02*
X570Y489D01*
X1005Y489D02*
X1019Y489D01*
X1078Y489D02*
X1080Y489D01*
X1150Y489D02*
X1152Y489D01*
X1162Y489D02*
X1193Y489D01*
X563Y488D02*
X570Y488D01*
X1005Y488D02*
X1019Y488D01*
X1078Y488D02*
X1080Y488D01*
X1150Y488D02*
X1152Y488D01*
X1161Y488D02*
X1193Y488D01*
X563Y487D02*
X570Y487D01*
X1005Y487D02*
X1019Y487D01*
X1078Y487D02*
X1080Y487D01*
X1150Y487D02*
X1152Y487D01*
X1161Y487D02*
X1193Y487D01*
X563Y486D02*
X570Y486D01*
X1005Y486D02*
X1019Y486D01*
X1078Y486D02*
X1080Y486D01*
X1150Y486D02*
X1152Y486D01*
X1162Y486D02*
X1193Y486D01*
X563Y485D02*
X570Y485D01*
X1005Y485D02*
X1019Y485D01*
X1078Y485D02*
X1080Y485D01*
X1150Y485D02*
X1152Y485D01*
X1179Y485D02*
X1182Y485D01*
X1189Y485D02*
X1193Y485D01*
X563Y484D02*
X570Y484D01*
X1005Y484D02*
X1019Y484D01*
X1078Y484D02*
X1080Y484D01*
X1150Y484D02*
X1152Y484D01*
X1179Y484D02*
X1182Y484D01*
X1189Y484D02*
X1193Y484D01*
X563Y483D02*
X570Y483D01*
X1005Y483D02*
X1019Y483D01*
X1078Y483D02*
X1081Y483D01*
X1149Y483D02*
X1152Y483D01*
X1179Y483D02*
X1182Y483D01*
X1189Y483D02*
X1193Y483D01*
X1351Y483D02*
X1359Y483D01*
X563Y482D02*
X570Y482D01*
X1005Y482D02*
X1019Y482D01*
X1078Y482D02*
X1081Y482D01*
X1149Y482D02*
X1152Y482D01*
X1178Y482D02*
X1182Y482D01*
X1189Y482D02*
X1193Y482D01*
X1350Y482D02*
X1361Y482D01*
X563Y481D02*
X570Y481D01*
X1005Y481D02*
X1019Y481D01*
X1078Y481D02*
X1081Y481D01*
X1149Y481D02*
X1152Y481D01*
X1176Y481D02*
X1182Y481D01*
X1189Y481D02*
X1193Y481D01*
X1349Y481D02*
X1361Y481D01*
X563Y480D02*
X570Y480D01*
X1005Y480D02*
X1019Y480D01*
X1078Y480D02*
X1081Y480D01*
X1149Y480D02*
X1152Y480D01*
X1174Y480D02*
X1182Y480D01*
X1189Y480D02*
X1193Y480D01*
X1348Y480D02*
X1350Y480D01*
X1360Y480D02*
X1362Y480D01*
X563Y479D02*
X570Y479D01*
X1005Y479D02*
X1019Y479D01*
X1078Y479D02*
X1081Y479D01*
X1149Y479D02*
X1152Y479D01*
X1172Y479D02*
X1182Y479D01*
X1189Y479D02*
X1193Y479D01*
X1348Y479D02*
X1350Y479D01*
X1360Y479D02*
X1362Y479D01*
X563Y478D02*
X570Y478D01*
X1005Y478D02*
X1019Y478D01*
X1078Y478D02*
X1081Y478D01*
X1149Y478D02*
X1152Y478D01*
X1171Y478D02*
X1182Y478D01*
X1189Y478D02*
X1193Y478D01*
X1348Y478D02*
X1350Y478D01*
X1360Y478D02*
X1362Y478D01*
X563Y477D02*
X570Y477D01*
X1005Y477D02*
X1019Y477D01*
X1078Y477D02*
X1081Y477D01*
X1149Y477D02*
X1152Y477D01*
X1169Y477D02*
X1176Y477D01*
X1179Y477D02*
X1182Y477D01*
X1189Y477D02*
X1193Y477D01*
X1348Y477D02*
X1350Y477D01*
X1360Y477D02*
X1362Y477D01*
X563Y476D02*
X570Y476D01*
X1005Y476D02*
X1019Y476D01*
X1078Y476D02*
X1081Y476D01*
X1149Y476D02*
X1152Y476D01*
X1167Y476D02*
X1175Y476D01*
X1179Y476D02*
X1182Y476D01*
X1189Y476D02*
X1193Y476D01*
X1348Y476D02*
X1350Y476D01*
X1360Y476D02*
X1362Y476D01*
X563Y475D02*
X570Y475D01*
X1005Y475D02*
X1019Y475D01*
X1078Y475D02*
X1081Y475D01*
X1149Y475D02*
X1152Y475D01*
X1166Y475D02*
X1173Y475D01*
X1179Y475D02*
X1182Y475D01*
X1189Y475D02*
X1193Y475D01*
X1348Y475D02*
X1351Y475D01*
X1359Y475D02*
X1362Y475D01*
X563Y474D02*
X570Y474D01*
X1005Y474D02*
X1019Y474D01*
X1078Y474D02*
X1081Y474D01*
X1149Y474D02*
X1152Y474D01*
X1164Y474D02*
X1171Y474D01*
X1179Y474D02*
X1183Y474D01*
X1189Y474D02*
X1192Y474D01*
X1349Y474D02*
X1352Y474D01*
X1359Y474D02*
X1361Y474D01*
X563Y473D02*
X570Y473D01*
X1005Y473D02*
X1019Y473D01*
X1078Y473D02*
X1081Y473D01*
X1149Y473D02*
X1152Y473D01*
X1162Y473D02*
X1170Y473D01*
X1179Y473D02*
X1192Y473D01*
X1349Y473D02*
X1367Y473D01*
X563Y472D02*
X570Y472D01*
X1005Y472D02*
X1019Y472D01*
X1078Y472D02*
X1081Y472D01*
X1149Y472D02*
X1152Y472D01*
X1161Y472D02*
X1168Y472D01*
X1180Y472D02*
X1191Y472D01*
X1348Y472D02*
X1368Y472D01*
X563Y471D02*
X570Y471D01*
X1005Y471D02*
X1019Y471D01*
X1078Y471D02*
X1081Y471D01*
X1149Y471D02*
X1152Y471D01*
X1161Y471D02*
X1166Y471D01*
X1181Y471D02*
X1191Y471D01*
X1348Y471D02*
X1367Y471D01*
X563Y470D02*
X570Y470D01*
X1005Y470D02*
X1019Y470D01*
X1078Y470D02*
X1081Y470D01*
X1149Y470D02*
X1152Y470D01*
X1161Y470D02*
X1164Y470D01*
X1182Y470D02*
X1189Y470D01*
X563Y469D02*
X570Y469D01*
X1005Y469D02*
X1019Y469D01*
X1078Y469D02*
X1081Y469D01*
X1149Y469D02*
X1152Y469D01*
X1185Y469D02*
X1186Y469D01*
X563Y468D02*
X570Y468D01*
X1005Y468D02*
X1019Y468D01*
X1078Y468D02*
X1081Y468D01*
X1149Y468D02*
X1152Y468D01*
X563Y467D02*
X570Y467D01*
X1005Y467D02*
X1019Y467D01*
X1078Y467D02*
X1080Y467D01*
X1150Y467D02*
X1152Y467D01*
X563Y466D02*
X570Y466D01*
X1005Y466D02*
X1019Y466D01*
X1078Y466D02*
X1080Y466D01*
X1150Y466D02*
X1152Y466D01*
X563Y465D02*
X570Y465D01*
X1005Y465D02*
X1019Y465D01*
X1078Y465D02*
X1080Y465D01*
X1150Y465D02*
X1152Y465D01*
X563Y464D02*
X570Y464D01*
X1005Y464D02*
X1019Y464D01*
X1078Y464D02*
X1080Y464D01*
X1150Y464D02*
X1152Y464D01*
X563Y463D02*
X570Y463D01*
X1005Y463D02*
X1019Y463D01*
X1078Y463D02*
X1080Y463D01*
X1150Y463D02*
X1152Y463D01*
X563Y462D02*
X570Y462D01*
X1005Y462D02*
X1019Y462D01*
X1078Y462D02*
X1080Y462D01*
X1150Y462D02*
X1152Y462D01*
X563Y461D02*
X570Y461D01*
X1005Y461D02*
X1019Y461D01*
X1078Y461D02*
X1080Y461D01*
X1150Y461D02*
X1152Y461D01*
X563Y460D02*
X570Y460D01*
X1005Y460D02*
X1019Y460D01*
X1078Y460D02*
X1080Y460D01*
X1150Y460D02*
X1152Y460D01*
X563Y459D02*
X570Y459D01*
X1005Y459D02*
X1019Y459D01*
X1078Y459D02*
X1080Y459D01*
X1150Y459D02*
X1152Y459D01*
X1161Y459D02*
X1176Y459D01*
X1190Y459D02*
X1192Y459D01*
X563Y458D02*
X570Y458D01*
X1005Y458D02*
X1019Y458D01*
X1078Y458D02*
X1080Y458D01*
X1150Y458D02*
X1152Y458D01*
X1161Y458D02*
X1177Y458D01*
X1189Y458D02*
X1192Y458D01*
X563Y457D02*
X570Y457D01*
X1005Y457D02*
X1019Y457D01*
X1078Y457D02*
X1080Y457D01*
X1150Y457D02*
X1152Y457D01*
X1161Y457D02*
X1178Y457D01*
X1189Y457D02*
X1193Y457D01*
X563Y456D02*
X570Y456D01*
X1005Y456D02*
X1019Y456D01*
X1078Y456D02*
X1080Y456D01*
X1150Y456D02*
X1152Y456D01*
X1161Y456D02*
X1178Y456D01*
X1189Y456D02*
X1193Y456D01*
X563Y455D02*
X570Y455D01*
X1005Y455D02*
X1019Y455D01*
X1078Y455D02*
X1080Y455D01*
X1150Y455D02*
X1152Y455D01*
X1161Y455D02*
X1164Y455D01*
X1175Y455D02*
X1178Y455D01*
X1189Y455D02*
X1193Y455D01*
X563Y454D02*
X570Y454D01*
X1005Y454D02*
X1019Y454D01*
X1078Y454D02*
X1080Y454D01*
X1150Y454D02*
X1152Y454D01*
X1161Y454D02*
X1164Y454D01*
X1175Y454D02*
X1178Y454D01*
X1189Y454D02*
X1193Y454D01*
X563Y453D02*
X570Y453D01*
X1005Y453D02*
X1019Y453D01*
X1078Y453D02*
X1080Y453D01*
X1150Y453D02*
X1152Y453D01*
X1161Y453D02*
X1164Y453D01*
X1175Y453D02*
X1178Y453D01*
X1189Y453D02*
X1193Y453D01*
X563Y452D02*
X570Y452D01*
X1005Y452D02*
X1019Y452D01*
X1078Y452D02*
X1080Y452D01*
X1150Y452D02*
X1152Y452D01*
X1161Y452D02*
X1164Y452D01*
X1175Y452D02*
X1178Y452D01*
X1189Y452D02*
X1193Y452D01*
X563Y451D02*
X570Y451D01*
X1005Y451D02*
X1019Y451D01*
X1078Y451D02*
X1080Y451D01*
X1150Y451D02*
X1152Y451D01*
X1161Y451D02*
X1164Y451D01*
X1175Y451D02*
X1178Y451D01*
X1189Y451D02*
X1193Y451D01*
X563Y450D02*
X570Y450D01*
X1005Y450D02*
X1019Y450D01*
X1078Y450D02*
X1080Y450D01*
X1150Y450D02*
X1152Y450D01*
X1161Y450D02*
X1164Y450D01*
X1175Y450D02*
X1178Y450D01*
X1189Y450D02*
X1193Y450D01*
X563Y449D02*
X570Y449D01*
X1005Y449D02*
X1019Y449D01*
X1078Y449D02*
X1080Y449D01*
X1150Y449D02*
X1152Y449D01*
X1161Y449D02*
X1164Y449D01*
X1175Y449D02*
X1178Y449D01*
X1189Y449D02*
X1193Y449D01*
X299Y448D02*
X348Y448D01*
X563Y448D02*
X570Y448D01*
X1005Y448D02*
X1019Y448D01*
X1078Y448D02*
X1080Y448D01*
X1150Y448D02*
X1152Y448D01*
X1161Y448D02*
X1164Y448D01*
X1175Y448D02*
X1178Y448D01*
X1189Y448D02*
X1193Y448D01*
X298Y447D02*
X350Y447D01*
X563Y447D02*
X570Y447D01*
X1005Y447D02*
X1019Y447D01*
X1078Y447D02*
X1080Y447D01*
X1150Y447D02*
X1152Y447D01*
X1161Y447D02*
X1164Y447D01*
X1175Y447D02*
X1178Y447D01*
X1189Y447D02*
X1193Y447D01*
X297Y446D02*
X350Y446D01*
X563Y446D02*
X570Y446D01*
X1005Y446D02*
X1019Y446D01*
X1078Y446D02*
X1080Y446D01*
X1150Y446D02*
X1152Y446D01*
X1161Y446D02*
X1164Y446D01*
X1175Y446D02*
X1178Y446D01*
X1189Y446D02*
X1193Y446D01*
X297Y445D02*
X350Y445D01*
X563Y445D02*
X570Y445D01*
X1005Y445D02*
X1019Y445D01*
X1078Y445D02*
X1080Y445D01*
X1150Y445D02*
X1152Y445D01*
X1161Y445D02*
X1164Y445D01*
X1175Y445D02*
X1178Y445D01*
X1189Y445D02*
X1193Y445D01*
X297Y444D02*
X350Y444D01*
X563Y444D02*
X570Y444D01*
X1005Y444D02*
X1019Y444D01*
X1078Y444D02*
X1080Y444D01*
X1150Y444D02*
X1152Y444D01*
X1161Y444D02*
X1164Y444D01*
X1175Y444D02*
X1178Y444D01*
X1189Y444D02*
X1193Y444D01*
X298Y443D02*
X350Y443D01*
X563Y443D02*
X570Y443D01*
X1005Y443D02*
X1019Y443D01*
X1078Y443D02*
X1080Y443D01*
X1150Y443D02*
X1152Y443D01*
X1161Y443D02*
X1164Y443D01*
X1175Y443D02*
X1193Y443D01*
X299Y442D02*
X349Y442D01*
X563Y442D02*
X570Y442D01*
X1005Y442D02*
X1019Y442D01*
X1078Y442D02*
X1080Y442D01*
X1150Y442D02*
X1152Y442D01*
X1161Y442D02*
X1164Y442D01*
X1175Y442D02*
X1192Y442D01*
X301Y441D02*
X310Y441D01*
X323Y441D02*
X332Y441D01*
X563Y441D02*
X570Y441D01*
X1005Y441D02*
X1019Y441D01*
X1078Y441D02*
X1080Y441D01*
X1150Y441D02*
X1152Y441D01*
X1161Y441D02*
X1164Y441D01*
X1176Y441D02*
X1192Y441D01*
X301Y440D02*
X309Y440D01*
X324Y440D02*
X332Y440D01*
X563Y440D02*
X570Y440D01*
X1005Y440D02*
X1019Y440D01*
X1078Y440D02*
X1080Y440D01*
X1150Y440D02*
X1152Y440D01*
X1161Y440D02*
X1164Y440D01*
X1177Y440D02*
X1191Y440D01*
X300Y439D02*
X308Y439D01*
X325Y439D02*
X333Y439D01*
X563Y439D02*
X570Y439D01*
X1005Y439D02*
X1019Y439D01*
X1078Y439D02*
X1080Y439D01*
X1150Y439D02*
X1152Y439D01*
X1180Y439D02*
X1188Y439D01*
X299Y438D02*
X307Y438D01*
X325Y438D02*
X334Y438D01*
X563Y438D02*
X570Y438D01*
X1005Y438D02*
X1019Y438D01*
X1078Y438D02*
X1080Y438D01*
X1150Y438D02*
X1152Y438D01*
X299Y437D02*
X306Y437D01*
X326Y437D02*
X334Y437D01*
X563Y437D02*
X570Y437D01*
X1005Y437D02*
X1019Y437D01*
X1078Y437D02*
X1080Y437D01*
X1150Y437D02*
X1152Y437D01*
X298Y436D02*
X306Y436D01*
X327Y436D02*
X335Y436D01*
X563Y436D02*
X570Y436D01*
X1005Y436D02*
X1019Y436D01*
X1078Y436D02*
X1080Y436D01*
X1150Y436D02*
X1152Y436D01*
X298Y435D02*
X305Y435D01*
X328Y435D02*
X335Y435D01*
X563Y435D02*
X570Y435D01*
X1005Y435D02*
X1019Y435D01*
X1078Y435D02*
X1080Y435D01*
X1150Y435D02*
X1152Y435D01*
X297Y434D02*
X304Y434D01*
X329Y434D02*
X335Y434D01*
X563Y434D02*
X570Y434D01*
X1005Y434D02*
X1019Y434D01*
X1078Y434D02*
X1080Y434D01*
X1150Y434D02*
X1152Y434D01*
X297Y433D02*
X303Y433D01*
X329Y433D02*
X335Y433D01*
X563Y433D02*
X570Y433D01*
X1005Y433D02*
X1019Y433D01*
X1078Y433D02*
X1080Y433D01*
X1150Y433D02*
X1152Y433D01*
X297Y432D02*
X303Y432D01*
X330Y432D02*
X336Y432D01*
X563Y432D02*
X570Y432D01*
X1005Y432D02*
X1019Y432D01*
X1078Y432D02*
X1080Y432D01*
X1150Y432D02*
X1152Y432D01*
X297Y431D02*
X303Y431D01*
X330Y431D02*
X336Y431D01*
X563Y431D02*
X570Y431D01*
X1005Y431D02*
X1019Y431D01*
X1078Y431D02*
X1080Y431D01*
X1150Y431D02*
X1152Y431D01*
X297Y430D02*
X303Y430D01*
X330Y430D02*
X336Y430D01*
X563Y430D02*
X570Y430D01*
X1005Y430D02*
X1019Y430D01*
X1078Y430D02*
X1080Y430D01*
X1150Y430D02*
X1152Y430D01*
X297Y429D02*
X303Y429D01*
X330Y429D02*
X336Y429D01*
X563Y429D02*
X570Y429D01*
X1005Y429D02*
X1019Y429D01*
X1078Y429D02*
X1080Y429D01*
X1150Y429D02*
X1152Y429D01*
X297Y428D02*
X303Y428D01*
X330Y428D02*
X336Y428D01*
X563Y428D02*
X570Y428D01*
X1005Y428D02*
X1019Y428D01*
X1078Y428D02*
X1080Y428D01*
X1150Y428D02*
X1152Y428D01*
X297Y427D02*
X303Y427D01*
X330Y427D02*
X336Y427D01*
X563Y427D02*
X570Y427D01*
X1005Y427D02*
X1019Y427D01*
X1078Y427D02*
X1080Y427D01*
X1150Y427D02*
X1152Y427D01*
X297Y426D02*
X303Y426D01*
X329Y426D02*
X336Y426D01*
X563Y426D02*
X570Y426D01*
X1005Y426D02*
X1019Y426D01*
X1078Y426D02*
X1080Y426D01*
X1150Y426D02*
X1152Y426D01*
X297Y425D02*
X304Y425D01*
X329Y425D02*
X335Y425D01*
X563Y425D02*
X570Y425D01*
X1005Y425D02*
X1019Y425D01*
X1078Y425D02*
X1080Y425D01*
X1150Y425D02*
X1152Y425D01*
X298Y424D02*
X304Y424D01*
X328Y424D02*
X335Y424D01*
X563Y424D02*
X570Y424D01*
X1005Y424D02*
X1019Y424D01*
X1078Y424D02*
X1080Y424D01*
X1150Y424D02*
X1152Y424D01*
X298Y423D02*
X305Y423D01*
X327Y423D02*
X335Y423D01*
X563Y423D02*
X570Y423D01*
X1005Y423D02*
X1019Y423D01*
X1078Y423D02*
X1080Y423D01*
X1150Y423D02*
X1152Y423D01*
X298Y422D02*
X306Y422D01*
X326Y422D02*
X334Y422D01*
X563Y422D02*
X570Y422D01*
X1005Y422D02*
X1019Y422D01*
X1078Y422D02*
X1080Y422D01*
X1150Y422D02*
X1152Y422D01*
X299Y421D02*
X308Y421D01*
X325Y421D02*
X334Y421D01*
X563Y421D02*
X570Y421D01*
X1005Y421D02*
X1019Y421D01*
X1078Y421D02*
X1080Y421D01*
X1150Y421D02*
X1152Y421D01*
X300Y420D02*
X333Y420D01*
X563Y420D02*
X570Y420D01*
X1005Y420D02*
X1019Y420D01*
X1078Y420D02*
X1080Y420D01*
X1150Y420D02*
X1152Y420D01*
X301Y419D02*
X332Y419D01*
X563Y419D02*
X570Y419D01*
X1005Y419D02*
X1019Y419D01*
X1078Y419D02*
X1080Y419D01*
X1150Y419D02*
X1152Y419D01*
X301Y418D02*
X331Y418D01*
X563Y418D02*
X570Y418D01*
X1005Y418D02*
X1019Y418D01*
X1078Y418D02*
X1080Y418D01*
X1150Y418D02*
X1152Y418D01*
X302Y417D02*
X330Y417D01*
X563Y417D02*
X570Y417D01*
X1005Y417D02*
X1019Y417D01*
X1078Y417D02*
X1080Y417D01*
X1150Y417D02*
X1152Y417D01*
X304Y416D02*
X329Y416D01*
X564Y416D02*
X570Y416D01*
X1005Y416D02*
X1019Y416D01*
X1078Y416D02*
X1080Y416D01*
X1150Y416D02*
X1152Y416D01*
X1351Y416D02*
X1353Y416D01*
X305Y415D02*
X328Y415D01*
X564Y415D02*
X570Y415D01*
X1005Y415D02*
X1019Y415D01*
X1078Y415D02*
X1080Y415D01*
X1150Y415D02*
X1152Y415D01*
X1351Y415D02*
X1354Y415D01*
X308Y414D02*
X325Y414D01*
X564Y414D02*
X570Y414D01*
X1005Y414D02*
X1019Y414D01*
X1078Y414D02*
X1080Y414D01*
X1150Y414D02*
X1152Y414D01*
X1350Y414D02*
X1354Y414D01*
X564Y413D02*
X570Y413D01*
X1005Y413D02*
X1019Y413D01*
X1078Y413D02*
X1080Y413D01*
X1150Y413D02*
X1152Y413D01*
X1350Y413D02*
X1355Y413D01*
X564Y412D02*
X570Y412D01*
X1005Y412D02*
X1019Y412D01*
X1078Y412D02*
X1080Y412D01*
X1150Y412D02*
X1152Y412D01*
X1350Y412D02*
X1355Y412D01*
X565Y411D02*
X570Y411D01*
X1005Y411D02*
X1019Y411D01*
X1078Y411D02*
X1080Y411D01*
X1150Y411D02*
X1152Y411D01*
X1349Y411D02*
X1355Y411D01*
X565Y410D02*
X570Y410D01*
X1005Y410D02*
X1019Y410D01*
X1078Y410D02*
X1080Y410D01*
X1150Y410D02*
X1152Y410D01*
X1349Y410D02*
X1355Y410D01*
X565Y409D02*
X570Y409D01*
X1005Y409D02*
X1019Y409D01*
X1078Y409D02*
X1080Y409D01*
X1150Y409D02*
X1152Y409D01*
X1349Y409D02*
X1356Y409D01*
X565Y408D02*
X570Y408D01*
X1005Y408D02*
X1019Y408D01*
X1078Y408D02*
X1080Y408D01*
X1150Y408D02*
X1152Y408D01*
X1348Y408D02*
X1356Y408D01*
X565Y407D02*
X570Y407D01*
X1005Y407D02*
X1019Y407D01*
X1078Y407D02*
X1080Y407D01*
X1150Y407D02*
X1152Y407D01*
X1348Y407D02*
X1356Y407D01*
X565Y406D02*
X570Y406D01*
X1005Y406D02*
X1019Y406D01*
X1078Y406D02*
X1080Y406D01*
X1150Y406D02*
X1152Y406D01*
X1348Y406D02*
X1357Y406D01*
X565Y405D02*
X570Y405D01*
X1005Y405D02*
X1019Y405D01*
X1078Y405D02*
X1080Y405D01*
X1150Y405D02*
X1152Y405D01*
X1348Y405D02*
X1351Y405D01*
X1353Y405D02*
X1357Y405D01*
X565Y404D02*
X570Y404D01*
X1005Y404D02*
X1019Y404D01*
X1078Y404D02*
X1080Y404D01*
X1150Y404D02*
X1152Y404D01*
X1347Y404D02*
X1351Y404D01*
X1353Y404D02*
X1357Y404D01*
X565Y403D02*
X570Y403D01*
X1005Y403D02*
X1019Y403D01*
X1078Y403D02*
X1081Y403D01*
X1150Y403D02*
X1152Y403D01*
X1347Y403D02*
X1351Y403D01*
X1354Y403D02*
X1357Y403D01*
X565Y402D02*
X570Y402D01*
X1005Y402D02*
X1019Y402D01*
X1078Y402D02*
X1152Y402D01*
X1347Y402D02*
X1351Y402D01*
X1354Y402D02*
X1358Y402D01*
X565Y401D02*
X570Y401D01*
X1005Y401D02*
X1019Y401D01*
X1078Y401D02*
X1152Y401D01*
X1346Y401D02*
X1350Y401D01*
X1354Y401D02*
X1358Y401D01*
X565Y400D02*
X570Y400D01*
X1005Y400D02*
X1019Y400D01*
X1346Y400D02*
X1350Y400D01*
X1355Y400D02*
X1358Y400D01*
X565Y399D02*
X570Y399D01*
X1005Y399D02*
X1019Y399D01*
X1346Y399D02*
X1350Y399D01*
X1355Y399D02*
X1359Y399D01*
X320Y398D02*
X334Y398D01*
X565Y398D02*
X570Y398D01*
X1005Y398D02*
X1019Y398D01*
X1346Y398D02*
X1349Y398D01*
X1355Y398D02*
X1359Y398D01*
X304Y397D02*
X335Y397D01*
X564Y397D02*
X570Y397D01*
X1005Y397D02*
X1019Y397D01*
X1345Y397D02*
X1349Y397D01*
X1355Y397D02*
X1359Y397D01*
X302Y396D02*
X335Y396D01*
X564Y396D02*
X570Y396D01*
X1005Y396D02*
X1019Y396D01*
X1345Y396D02*
X1349Y396D01*
X1356Y396D02*
X1360Y396D01*
X301Y395D02*
X336Y395D01*
X564Y395D02*
X570Y395D01*
X1005Y395D02*
X1019Y395D01*
X1345Y395D02*
X1349Y395D01*
X1356Y395D02*
X1360Y395D01*
X300Y394D02*
X335Y394D01*
X564Y394D02*
X570Y394D01*
X1005Y394D02*
X1019Y394D01*
X1344Y394D02*
X1348Y394D01*
X1356Y394D02*
X1360Y394D01*
X299Y393D02*
X335Y393D01*
X564Y393D02*
X570Y393D01*
X1005Y393D02*
X1019Y393D01*
X1344Y393D02*
X1360Y393D01*
X298Y392D02*
X334Y392D01*
X563Y392D02*
X570Y392D01*
X1005Y392D02*
X1019Y392D01*
X1344Y392D02*
X1361Y392D01*
X298Y391D02*
X319Y391D01*
X563Y391D02*
X570Y391D01*
X1005Y391D02*
X1019Y391D01*
X1344Y391D02*
X1361Y391D01*
X298Y390D02*
X305Y390D01*
X563Y390D02*
X570Y390D01*
X1005Y390D02*
X1019Y390D01*
X1343Y390D02*
X1361Y390D01*
X297Y389D02*
X304Y389D01*
X563Y389D02*
X570Y389D01*
X1005Y389D02*
X1019Y389D01*
X1343Y389D02*
X1362Y389D01*
X297Y388D02*
X303Y388D01*
X563Y388D02*
X570Y388D01*
X1005Y388D02*
X1019Y388D01*
X1343Y388D02*
X1346Y388D01*
X1358Y388D02*
X1362Y388D01*
X297Y387D02*
X303Y387D01*
X563Y387D02*
X570Y387D01*
X1005Y387D02*
X1019Y387D01*
X1342Y387D02*
X1346Y387D01*
X1358Y387D02*
X1362Y387D01*
X297Y386D02*
X303Y386D01*
X563Y386D02*
X570Y386D01*
X1005Y386D02*
X1019Y386D01*
X1342Y386D02*
X1346Y386D01*
X1359Y386D02*
X1362Y386D01*
X297Y385D02*
X303Y385D01*
X563Y385D02*
X570Y385D01*
X1342Y385D02*
X1346Y385D01*
X1359Y385D02*
X1363Y385D01*
X297Y384D02*
X303Y384D01*
X563Y384D02*
X570Y384D01*
X1341Y384D02*
X1345Y384D01*
X1359Y384D02*
X1363Y384D01*
X297Y383D02*
X303Y383D01*
X563Y383D02*
X570Y383D01*
X1341Y383D02*
X1345Y383D01*
X1360Y383D02*
X1363Y383D01*
X297Y382D02*
X303Y382D01*
X563Y382D02*
X570Y382D01*
X1341Y382D02*
X1345Y382D01*
X1360Y382D02*
X1363Y382D01*
X297Y381D02*
X304Y381D01*
X563Y381D02*
X570Y381D01*
X1143Y381D02*
X1216Y381D01*
X1342Y381D02*
X1344Y381D01*
X1361Y381D02*
X1362Y381D01*
X298Y380D02*
X305Y380D01*
X563Y380D02*
X570Y380D01*
X1143Y380D02*
X1216Y380D01*
X298Y379D02*
X305Y379D01*
X563Y379D02*
X570Y379D01*
X1143Y379D02*
X1145Y379D01*
X1214Y379D02*
X1216Y379D01*
X299Y378D02*
X306Y378D01*
X563Y378D02*
X570Y378D01*
X1143Y378D02*
X1145Y378D01*
X1215Y378D02*
X1216Y378D01*
X299Y377D02*
X307Y377D01*
X563Y377D02*
X570Y377D01*
X1143Y377D02*
X1145Y377D01*
X1215Y377D02*
X1216Y377D01*
X300Y376D02*
X307Y376D01*
X563Y376D02*
X570Y376D01*
X1143Y376D02*
X1145Y376D01*
X1215Y376D02*
X1216Y376D01*
X300Y375D02*
X308Y375D01*
X563Y375D02*
X570Y375D01*
X1143Y375D02*
X1145Y375D01*
X1215Y375D02*
X1216Y375D01*
X301Y374D02*
X308Y374D01*
X563Y374D02*
X570Y374D01*
X1143Y374D02*
X1145Y374D01*
X1215Y374D02*
X1216Y374D01*
X302Y373D02*
X309Y373D01*
X563Y373D02*
X570Y373D01*
X1143Y373D02*
X1145Y373D01*
X1215Y373D02*
X1216Y373D01*
X302Y372D02*
X310Y372D01*
X563Y372D02*
X570Y372D01*
X1143Y372D02*
X1145Y372D01*
X1215Y372D02*
X1216Y372D01*
X303Y371D02*
X310Y371D01*
X563Y371D02*
X570Y371D01*
X1143Y371D02*
X1145Y371D01*
X1215Y371D02*
X1216Y371D01*
X298Y370D02*
X334Y370D01*
X563Y370D02*
X570Y370D01*
X1143Y370D02*
X1145Y370D01*
X1215Y370D02*
X1216Y370D01*
X298Y369D02*
X335Y369D01*
X563Y369D02*
X570Y369D01*
X1143Y369D02*
X1145Y369D01*
X1215Y369D02*
X1216Y369D01*
X297Y368D02*
X335Y368D01*
X563Y368D02*
X570Y368D01*
X1143Y368D02*
X1145Y368D01*
X1215Y368D02*
X1216Y368D01*
X297Y367D02*
X336Y367D01*
X563Y367D02*
X570Y367D01*
X1120Y367D02*
X1121Y367D01*
X1143Y367D02*
X1145Y367D01*
X1215Y367D02*
X1216Y367D01*
X298Y366D02*
X335Y366D01*
X563Y366D02*
X570Y366D01*
X1119Y366D02*
X1122Y366D01*
X1143Y366D02*
X1145Y366D01*
X1215Y366D02*
X1216Y366D01*
X298Y365D02*
X335Y365D01*
X563Y365D02*
X570Y365D01*
X1119Y365D02*
X1122Y365D01*
X1143Y365D02*
X1145Y365D01*
X1215Y365D02*
X1216Y365D01*
X300Y364D02*
X333Y364D01*
X563Y364D02*
X570Y364D01*
X1119Y364D02*
X1122Y364D01*
X1143Y364D02*
X1145Y364D01*
X1215Y364D02*
X1216Y364D01*
X563Y363D02*
X570Y363D01*
X1105Y363D02*
X1128Y363D01*
X1143Y363D02*
X1145Y363D01*
X1215Y363D02*
X1216Y363D01*
X563Y362D02*
X570Y362D01*
X1103Y362D02*
X1129Y362D01*
X1143Y362D02*
X1145Y362D01*
X1215Y362D02*
X1216Y362D01*
X563Y361D02*
X570Y361D01*
X1101Y361D02*
X1129Y361D01*
X1143Y361D02*
X1145Y361D01*
X1215Y361D02*
X1216Y361D01*
X563Y360D02*
X570Y360D01*
X1101Y360D02*
X1129Y360D01*
X1143Y360D02*
X1145Y360D01*
X1215Y360D02*
X1216Y360D01*
X563Y359D02*
X570Y359D01*
X1100Y359D02*
X1128Y359D01*
X1143Y359D02*
X1145Y359D01*
X1215Y359D02*
X1216Y359D01*
X563Y358D02*
X570Y358D01*
X1100Y358D02*
X1103Y358D01*
X1119Y358D02*
X1122Y358D01*
X1143Y358D02*
X1145Y358D01*
X1215Y358D02*
X1216Y358D01*
X563Y357D02*
X570Y357D01*
X1100Y357D02*
X1103Y357D01*
X1119Y357D02*
X1122Y357D01*
X1143Y357D02*
X1145Y357D01*
X1215Y357D02*
X1216Y357D01*
X563Y356D02*
X570Y356D01*
X1100Y356D02*
X1103Y356D01*
X1119Y356D02*
X1122Y356D01*
X1143Y356D02*
X1145Y356D01*
X1215Y356D02*
X1216Y356D01*
X563Y355D02*
X570Y355D01*
X1100Y355D02*
X1103Y355D01*
X1119Y355D02*
X1122Y355D01*
X1143Y355D02*
X1145Y355D01*
X1215Y355D02*
X1216Y355D01*
X563Y354D02*
X570Y354D01*
X1100Y354D02*
X1103Y354D01*
X1119Y354D02*
X1122Y354D01*
X1143Y354D02*
X1145Y354D01*
X1215Y354D02*
X1216Y354D01*
X563Y353D02*
X570Y353D01*
X1100Y353D02*
X1103Y353D01*
X1119Y353D02*
X1122Y353D01*
X1143Y353D02*
X1145Y353D01*
X1215Y353D02*
X1216Y353D01*
X563Y352D02*
X570Y352D01*
X1100Y352D02*
X1103Y352D01*
X1119Y352D02*
X1122Y352D01*
X1143Y352D02*
X1145Y352D01*
X1215Y352D02*
X1216Y352D01*
X563Y351D02*
X570Y351D01*
X1100Y351D02*
X1104Y351D01*
X1119Y351D02*
X1122Y351D01*
X1143Y351D02*
X1145Y351D01*
X1215Y351D02*
X1216Y351D01*
X563Y350D02*
X570Y350D01*
X1100Y350D02*
X1106Y350D01*
X1119Y350D02*
X1122Y350D01*
X1143Y350D02*
X1145Y350D01*
X1215Y350D02*
X1216Y350D01*
X563Y349D02*
X570Y349D01*
X1101Y349D02*
X1106Y349D01*
X1120Y349D02*
X1121Y349D01*
X1143Y349D02*
X1145Y349D01*
X1215Y349D02*
X1216Y349D01*
X302Y348D02*
X304Y348D01*
X563Y348D02*
X570Y348D01*
X1102Y348D02*
X1106Y348D01*
X1143Y348D02*
X1145Y348D01*
X1215Y348D02*
X1216Y348D01*
X301Y347D02*
X305Y347D01*
X325Y347D02*
X330Y347D01*
X563Y347D02*
X570Y347D01*
X1103Y347D02*
X1106Y347D01*
X1143Y347D02*
X1145Y347D01*
X1215Y347D02*
X1216Y347D01*
X300Y346D02*
X306Y346D01*
X323Y346D02*
X332Y346D01*
X563Y346D02*
X570Y346D01*
X1143Y346D02*
X1145Y346D01*
X1215Y346D02*
X1216Y346D01*
X299Y345D02*
X306Y345D01*
X322Y345D02*
X333Y345D01*
X563Y345D02*
X570Y345D01*
X1143Y345D02*
X1145Y345D01*
X1215Y345D02*
X1216Y345D01*
X299Y344D02*
X306Y344D01*
X321Y344D02*
X334Y344D01*
X563Y344D02*
X570Y344D01*
X1143Y344D02*
X1145Y344D01*
X1215Y344D02*
X1216Y344D01*
X298Y343D02*
X305Y343D01*
X320Y343D02*
X334Y343D01*
X563Y343D02*
X570Y343D01*
X1143Y343D02*
X1145Y343D01*
X1215Y343D02*
X1216Y343D01*
X298Y342D02*
X305Y342D01*
X319Y342D02*
X335Y342D01*
X563Y342D02*
X570Y342D01*
X1143Y342D02*
X1145Y342D01*
X1215Y342D02*
X1216Y342D01*
X298Y341D02*
X304Y341D01*
X319Y341D02*
X335Y341D01*
X563Y341D02*
X570Y341D01*
X1143Y341D02*
X1145Y341D01*
X1215Y341D02*
X1216Y341D01*
X297Y340D02*
X304Y340D01*
X319Y340D02*
X325Y340D01*
X329Y340D02*
X335Y340D01*
X563Y340D02*
X570Y340D01*
X1143Y340D02*
X1145Y340D01*
X1215Y340D02*
X1216Y340D01*
X297Y339D02*
X303Y339D01*
X318Y339D02*
X325Y339D01*
X330Y339D02*
X336Y339D01*
X563Y339D02*
X570Y339D01*
X1143Y339D02*
X1145Y339D01*
X1215Y339D02*
X1216Y339D01*
X297Y338D02*
X303Y338D01*
X318Y338D02*
X324Y338D01*
X330Y338D02*
X336Y338D01*
X563Y338D02*
X570Y338D01*
X1143Y338D02*
X1145Y338D01*
X1215Y338D02*
X1216Y338D01*
X297Y337D02*
X303Y337D01*
X317Y337D02*
X324Y337D01*
X330Y337D02*
X336Y337D01*
X563Y337D02*
X570Y337D01*
X1106Y337D02*
X1116Y337D01*
X1143Y337D02*
X1145Y337D01*
X1215Y337D02*
X1216Y337D01*
X297Y336D02*
X303Y336D01*
X317Y336D02*
X323Y336D01*
X330Y336D02*
X336Y336D01*
X563Y336D02*
X570Y336D01*
X1104Y336D02*
X1118Y336D01*
X1143Y336D02*
X1145Y336D01*
X1215Y336D02*
X1216Y336D01*
X297Y335D02*
X303Y335D01*
X316Y335D02*
X323Y335D01*
X330Y335D02*
X336Y335D01*
X563Y335D02*
X570Y335D01*
X1102Y335D02*
X1120Y335D01*
X1143Y335D02*
X1145Y335D01*
X1215Y335D02*
X1216Y335D01*
X297Y334D02*
X303Y334D01*
X316Y334D02*
X323Y334D01*
X330Y334D02*
X336Y334D01*
X563Y334D02*
X570Y334D01*
X1102Y334D02*
X1120Y334D01*
X1143Y334D02*
X1145Y334D01*
X1215Y334D02*
X1216Y334D01*
X297Y333D02*
X303Y333D01*
X315Y333D02*
X322Y333D01*
X330Y333D02*
X336Y333D01*
X563Y333D02*
X570Y333D01*
X1101Y333D02*
X1121Y333D01*
X1143Y333D02*
X1145Y333D01*
X1215Y333D02*
X1216Y333D01*
X297Y332D02*
X303Y332D01*
X315Y332D02*
X322Y332D01*
X330Y332D02*
X336Y332D01*
X563Y332D02*
X570Y332D01*
X1100Y332D02*
X1104Y332D01*
X1109Y332D02*
X1112Y332D01*
X1118Y332D02*
X1122Y332D01*
X1143Y332D02*
X1145Y332D01*
X1215Y332D02*
X1216Y332D01*
X297Y331D02*
X303Y331D01*
X315Y331D02*
X321Y331D01*
X330Y331D02*
X336Y331D01*
X563Y331D02*
X570Y331D01*
X1100Y331D02*
X1104Y331D01*
X1109Y331D02*
X1112Y331D01*
X1118Y331D02*
X1122Y331D01*
X1143Y331D02*
X1145Y331D01*
X1215Y331D02*
X1216Y331D01*
X297Y330D02*
X303Y330D01*
X314Y330D02*
X321Y330D01*
X330Y330D02*
X336Y330D01*
X563Y330D02*
X570Y330D01*
X1100Y330D02*
X1103Y330D01*
X1109Y330D02*
X1112Y330D01*
X1119Y330D02*
X1122Y330D01*
X1143Y330D02*
X1145Y330D01*
X1215Y330D02*
X1216Y330D01*
X297Y329D02*
X303Y329D01*
X314Y329D02*
X320Y329D01*
X330Y329D02*
X336Y329D01*
X563Y329D02*
X570Y329D01*
X1100Y329D02*
X1103Y329D01*
X1109Y329D02*
X1112Y329D01*
X1119Y329D02*
X1122Y329D01*
X1143Y329D02*
X1145Y329D01*
X1215Y329D02*
X1216Y329D01*
X297Y328D02*
X303Y328D01*
X313Y328D02*
X320Y328D01*
X330Y328D02*
X336Y328D01*
X563Y328D02*
X570Y328D01*
X1100Y328D02*
X1103Y328D01*
X1109Y328D02*
X1112Y328D01*
X1119Y328D02*
X1122Y328D01*
X1143Y328D02*
X1145Y328D01*
X1215Y328D02*
X1216Y328D01*
X297Y327D02*
X303Y327D01*
X313Y327D02*
X319Y327D01*
X330Y327D02*
X336Y327D01*
X563Y327D02*
X570Y327D01*
X1100Y327D02*
X1103Y327D01*
X1109Y327D02*
X1112Y327D01*
X1119Y327D02*
X1122Y327D01*
X1143Y327D02*
X1145Y327D01*
X1215Y327D02*
X1216Y327D01*
X297Y326D02*
X303Y326D01*
X312Y326D02*
X319Y326D01*
X330Y326D02*
X336Y326D01*
X563Y326D02*
X570Y326D01*
X1100Y326D02*
X1103Y326D01*
X1109Y326D02*
X1112Y326D01*
X1119Y326D02*
X1122Y326D01*
X1143Y326D02*
X1145Y326D01*
X1215Y326D02*
X1216Y326D01*
X297Y325D02*
X303Y325D01*
X312Y325D02*
X319Y325D01*
X330Y325D02*
X336Y325D01*
X563Y325D02*
X570Y325D01*
X1100Y325D02*
X1103Y325D01*
X1109Y325D02*
X1112Y325D01*
X1119Y325D02*
X1122Y325D01*
X1143Y325D02*
X1145Y325D01*
X1215Y325D02*
X1216Y325D01*
X297Y324D02*
X303Y324D01*
X312Y324D02*
X318Y324D01*
X330Y324D02*
X336Y324D01*
X563Y324D02*
X570Y324D01*
X1100Y324D02*
X1103Y324D01*
X1109Y324D02*
X1112Y324D01*
X1119Y324D02*
X1122Y324D01*
X1143Y324D02*
X1145Y324D01*
X1215Y324D02*
X1216Y324D01*
X297Y323D02*
X304Y323D01*
X311Y323D02*
X318Y323D01*
X329Y323D02*
X336Y323D01*
X563Y323D02*
X570Y323D01*
X1100Y323D02*
X1103Y323D01*
X1109Y323D02*
X1112Y323D01*
X1119Y323D02*
X1122Y323D01*
X1143Y323D02*
X1145Y323D01*
X1215Y323D02*
X1216Y323D01*
X298Y322D02*
X304Y322D01*
X310Y322D02*
X317Y322D01*
X329Y322D02*
X335Y322D01*
X563Y322D02*
X570Y322D01*
X1100Y322D02*
X1103Y322D01*
X1109Y322D02*
X1112Y322D01*
X1118Y322D02*
X1122Y322D01*
X1143Y322D02*
X1145Y322D01*
X1215Y322D02*
X1216Y322D01*
X298Y321D02*
X317Y321D01*
X328Y321D02*
X335Y321D01*
X563Y321D02*
X570Y321D01*
X1100Y321D02*
X1103Y321D01*
X1109Y321D02*
X1112Y321D01*
X1117Y321D02*
X1121Y321D01*
X1143Y321D02*
X1145Y321D01*
X1215Y321D02*
X1216Y321D01*
X298Y320D02*
X316Y320D01*
X327Y320D02*
X335Y320D01*
X563Y320D02*
X570Y320D01*
X1100Y320D02*
X1103Y320D01*
X1109Y320D02*
X1121Y320D01*
X1143Y320D02*
X1145Y320D01*
X1215Y320D02*
X1216Y320D01*
X299Y319D02*
X316Y319D01*
X327Y319D02*
X334Y319D01*
X563Y319D02*
X570Y319D01*
X1100Y319D02*
X1103Y319D01*
X1109Y319D02*
X1120Y319D01*
X1143Y319D02*
X1145Y319D01*
X1215Y319D02*
X1216Y319D01*
X1344Y319D02*
X1360Y319D01*
X300Y318D02*
X315Y318D01*
X327Y318D02*
X334Y318D01*
X563Y318D02*
X570Y318D01*
X1100Y318D02*
X1103Y318D01*
X1109Y318D02*
X1119Y318D01*
X1143Y318D02*
X1145Y318D01*
X1215Y318D02*
X1216Y318D01*
X1344Y318D02*
X1362Y318D01*
X300Y317D02*
X314Y317D01*
X327Y317D02*
X333Y317D01*
X563Y317D02*
X570Y317D01*
X1100Y317D02*
X1102Y317D01*
X1109Y317D02*
X1117Y317D01*
X1143Y317D02*
X1145Y317D01*
X1215Y317D02*
X1216Y317D01*
X1344Y317D02*
X1363Y317D01*
X302Y316D02*
X313Y316D01*
X327Y316D02*
X332Y316D01*
X564Y316D02*
X570Y316D01*
X1143Y316D02*
X1145Y316D01*
X1215Y316D02*
X1216Y316D01*
X1344Y316D02*
X1364Y316D01*
X303Y315D02*
X311Y315D01*
X329Y315D02*
X331Y315D01*
X564Y315D02*
X570Y315D01*
X1143Y315D02*
X1145Y315D01*
X1215Y315D02*
X1216Y315D01*
X1344Y315D02*
X1365Y315D01*
X307Y314D02*
X308Y314D01*
X564Y314D02*
X570Y314D01*
X1143Y314D02*
X1145Y314D01*
X1214Y314D02*
X1216Y314D01*
X1344Y314D02*
X1348Y314D01*
X1360Y314D02*
X1365Y314D01*
X564Y313D02*
X570Y313D01*
X1143Y313D02*
X1146Y313D01*
X1214Y313D02*
X1216Y313D01*
X1344Y313D02*
X1348Y313D01*
X1361Y313D02*
X1366Y313D01*
X564Y312D02*
X570Y312D01*
X1143Y312D02*
X1146Y312D01*
X1214Y312D02*
X1216Y312D01*
X1344Y312D02*
X1348Y312D01*
X1362Y312D02*
X1366Y312D01*
X565Y311D02*
X570Y311D01*
X1143Y311D02*
X1146Y311D01*
X1214Y311D02*
X1216Y311D01*
X1344Y311D02*
X1348Y311D01*
X1362Y311D02*
X1366Y311D01*
X565Y310D02*
X570Y310D01*
X1143Y310D02*
X1146Y310D01*
X1214Y310D02*
X1216Y310D01*
X1344Y310D02*
X1348Y310D01*
X1362Y310D02*
X1366Y310D01*
X565Y309D02*
X570Y309D01*
X1143Y309D02*
X1146Y309D01*
X1214Y309D02*
X1216Y309D01*
X1344Y309D02*
X1348Y309D01*
X1362Y309D02*
X1366Y309D01*
X565Y308D02*
X570Y308D01*
X1143Y308D02*
X1146Y308D01*
X1214Y308D02*
X1216Y308D01*
X1344Y308D02*
X1348Y308D01*
X1362Y308D02*
X1366Y308D01*
X565Y307D02*
X570Y307D01*
X1101Y307D02*
X1121Y307D01*
X1143Y307D02*
X1146Y307D01*
X1214Y307D02*
X1216Y307D01*
X1344Y307D02*
X1348Y307D01*
X1362Y307D02*
X1366Y307D01*
X565Y306D02*
X570Y306D01*
X1100Y306D02*
X1122Y306D01*
X1143Y306D02*
X1146Y306D01*
X1214Y306D02*
X1216Y306D01*
X1344Y306D02*
X1348Y306D01*
X1361Y306D02*
X1366Y306D01*
X565Y305D02*
X570Y305D01*
X1100Y305D02*
X1122Y305D01*
X1143Y305D02*
X1146Y305D01*
X1214Y305D02*
X1216Y305D01*
X1344Y305D02*
X1348Y305D01*
X1360Y305D02*
X1365Y305D01*
X565Y304D02*
X570Y304D01*
X1100Y304D02*
X1122Y304D01*
X1143Y304D02*
X1146Y304D01*
X1214Y304D02*
X1216Y304D01*
X1344Y304D02*
X1348Y304D01*
X1357Y304D02*
X1365Y304D01*
X565Y303D02*
X570Y303D01*
X1102Y303D02*
X1120Y303D01*
X1143Y303D02*
X1146Y303D01*
X1214Y303D02*
X1216Y303D01*
X1344Y303D02*
X1364Y303D01*
X565Y302D02*
X570Y302D01*
X1114Y302D02*
X1119Y302D01*
X1143Y302D02*
X1146Y302D01*
X1214Y302D02*
X1216Y302D01*
X1344Y302D02*
X1363Y302D01*
X565Y301D02*
X570Y301D01*
X1115Y301D02*
X1119Y301D01*
X1143Y301D02*
X1146Y301D01*
X1214Y301D02*
X1216Y301D01*
X1344Y301D02*
X1363Y301D01*
X565Y300D02*
X570Y300D01*
X1116Y300D02*
X1120Y300D01*
X1143Y300D02*
X1146Y300D01*
X1214Y300D02*
X1216Y300D01*
X1344Y300D02*
X1364Y300D01*
X565Y299D02*
X570Y299D01*
X1117Y299D02*
X1121Y299D01*
X1143Y299D02*
X1146Y299D01*
X1214Y299D02*
X1216Y299D01*
X1344Y299D02*
X1348Y299D01*
X1359Y299D02*
X1365Y299D01*
X565Y298D02*
X570Y298D01*
X1117Y298D02*
X1122Y298D01*
X1143Y298D02*
X1145Y298D01*
X1215Y298D02*
X1216Y298D01*
X1344Y298D02*
X1348Y298D01*
X1361Y298D02*
X1365Y298D01*
X564Y297D02*
X570Y297D01*
X1118Y297D02*
X1122Y297D01*
X1143Y297D02*
X1145Y297D01*
X1215Y297D02*
X1216Y297D01*
X1344Y297D02*
X1348Y297D01*
X1362Y297D02*
X1366Y297D01*
X564Y296D02*
X570Y296D01*
X1119Y296D02*
X1122Y296D01*
X1143Y296D02*
X1145Y296D01*
X1215Y296D02*
X1216Y296D01*
X1344Y296D02*
X1348Y296D01*
X1362Y296D02*
X1366Y296D01*
X564Y295D02*
X570Y295D01*
X1119Y295D02*
X1122Y295D01*
X1143Y295D02*
X1145Y295D01*
X1215Y295D02*
X1216Y295D01*
X1344Y295D02*
X1348Y295D01*
X1362Y295D02*
X1366Y295D01*
X564Y294D02*
X570Y294D01*
X1119Y294D02*
X1122Y294D01*
X1143Y294D02*
X1145Y294D01*
X1215Y294D02*
X1216Y294D01*
X1344Y294D02*
X1348Y294D01*
X1362Y294D02*
X1366Y294D01*
X564Y293D02*
X570Y293D01*
X1119Y293D02*
X1122Y293D01*
X1143Y293D02*
X1145Y293D01*
X1215Y293D02*
X1216Y293D01*
X1344Y293D02*
X1348Y293D01*
X1362Y293D02*
X1366Y293D01*
X563Y292D02*
X570Y292D01*
X1119Y292D02*
X1122Y292D01*
X1143Y292D02*
X1145Y292D01*
X1215Y292D02*
X1216Y292D01*
X1344Y292D02*
X1348Y292D01*
X1362Y292D02*
X1366Y292D01*
X563Y291D02*
X570Y291D01*
X1118Y291D02*
X1122Y291D01*
X1143Y291D02*
X1145Y291D01*
X1215Y291D02*
X1216Y291D01*
X1344Y291D02*
X1348Y291D01*
X1362Y291D02*
X1366Y291D01*
X563Y290D02*
X570Y290D01*
X1114Y290D02*
X1122Y290D01*
X1143Y290D02*
X1145Y290D01*
X1215Y290D02*
X1216Y290D01*
X1344Y290D02*
X1348Y290D01*
X1361Y290D02*
X1365Y290D01*
X563Y289D02*
X570Y289D01*
X1114Y289D02*
X1121Y289D01*
X1143Y289D02*
X1145Y289D01*
X1215Y289D02*
X1216Y289D01*
X1344Y289D02*
X1348Y289D01*
X1360Y289D02*
X1365Y289D01*
X563Y288D02*
X570Y288D01*
X1114Y288D02*
X1120Y288D01*
X1143Y288D02*
X1145Y288D01*
X1215Y288D02*
X1216Y288D01*
X1344Y288D02*
X1364Y288D01*
X563Y287D02*
X570Y287D01*
X1115Y287D02*
X1119Y287D01*
X1143Y287D02*
X1145Y287D01*
X1215Y287D02*
X1216Y287D01*
X1344Y287D02*
X1364Y287D01*
X563Y286D02*
X570Y286D01*
X1143Y286D02*
X1145Y286D01*
X1215Y286D02*
X1216Y286D01*
X1344Y286D02*
X1363Y286D01*
X563Y285D02*
X570Y285D01*
X1143Y285D02*
X1145Y285D01*
X1215Y285D02*
X1216Y285D01*
X1344Y285D02*
X1361Y285D01*
X563Y284D02*
X570Y284D01*
X1143Y284D02*
X1145Y284D01*
X1215Y284D02*
X1216Y284D01*
X1344Y284D02*
X1359Y284D01*
X563Y283D02*
X570Y283D01*
X1143Y283D02*
X1145Y283D01*
X1215Y283D02*
X1216Y283D01*
X563Y282D02*
X570Y282D01*
X1143Y282D02*
X1145Y282D01*
X1215Y282D02*
X1216Y282D01*
X563Y281D02*
X570Y281D01*
X1143Y281D02*
X1145Y281D01*
X1215Y281D02*
X1216Y281D01*
X563Y280D02*
X570Y280D01*
X1143Y280D02*
X1145Y280D01*
X1215Y280D02*
X1216Y280D01*
X563Y279D02*
X570Y279D01*
X1143Y279D02*
X1145Y279D01*
X1215Y279D02*
X1216Y279D01*
X563Y278D02*
X570Y278D01*
X1143Y278D02*
X1145Y278D01*
X1215Y278D02*
X1216Y278D01*
X563Y277D02*
X570Y277D01*
X1100Y277D02*
X1122Y277D01*
X1143Y277D02*
X1145Y277D01*
X1215Y277D02*
X1216Y277D01*
X563Y276D02*
X570Y276D01*
X1100Y276D02*
X1122Y276D01*
X1143Y276D02*
X1145Y276D01*
X1215Y276D02*
X1216Y276D01*
X563Y275D02*
X570Y275D01*
X1100Y275D02*
X1122Y275D01*
X1143Y275D02*
X1145Y275D01*
X1215Y275D02*
X1216Y275D01*
X563Y274D02*
X570Y274D01*
X1100Y274D02*
X1122Y274D01*
X1143Y274D02*
X1145Y274D01*
X1215Y274D02*
X1216Y274D01*
X563Y273D02*
X570Y273D01*
X1117Y273D02*
X1121Y273D01*
X1143Y273D02*
X1145Y273D01*
X1215Y273D02*
X1216Y273D01*
X563Y272D02*
X570Y272D01*
X1118Y272D02*
X1122Y272D01*
X1143Y272D02*
X1145Y272D01*
X1215Y272D02*
X1216Y272D01*
X563Y271D02*
X570Y271D01*
X1118Y271D02*
X1122Y271D01*
X1143Y271D02*
X1145Y271D01*
X1215Y271D02*
X1216Y271D01*
X563Y270D02*
X570Y270D01*
X1119Y270D02*
X1122Y270D01*
X1143Y270D02*
X1145Y270D01*
X1215Y270D02*
X1216Y270D01*
X563Y269D02*
X570Y269D01*
X1118Y269D02*
X1122Y269D01*
X1143Y269D02*
X1145Y269D01*
X1215Y269D02*
X1216Y269D01*
X563Y268D02*
X570Y268D01*
X1100Y268D02*
X1122Y268D01*
X1143Y268D02*
X1145Y268D01*
X1215Y268D02*
X1216Y268D01*
X563Y267D02*
X570Y267D01*
X971Y267D02*
X971Y267D01*
X1013Y267D02*
X1046Y267D01*
X1088Y267D02*
X1088Y267D01*
X1100Y267D02*
X1121Y267D01*
X1143Y267D02*
X1145Y267D01*
X1215Y267D02*
X1216Y267D01*
X563Y266D02*
X570Y266D01*
X971Y266D02*
X971Y266D01*
X1013Y266D02*
X1046Y266D01*
X1088Y266D02*
X1088Y266D01*
X1100Y266D02*
X1121Y266D01*
X1143Y266D02*
X1145Y266D01*
X1215Y266D02*
X1216Y266D01*
X563Y265D02*
X570Y265D01*
X971Y265D02*
X971Y265D01*
X1013Y265D02*
X1046Y265D01*
X1088Y265D02*
X1088Y265D01*
X1101Y265D02*
X1121Y265D01*
X1143Y265D02*
X1145Y265D01*
X1215Y265D02*
X1216Y265D01*
X563Y264D02*
X570Y264D01*
X971Y264D02*
X1088Y264D01*
X1117Y264D02*
X1122Y264D01*
X1143Y264D02*
X1145Y264D01*
X1215Y264D02*
X1216Y264D01*
X563Y263D02*
X570Y263D01*
X971Y263D02*
X974Y263D01*
X1085Y263D02*
X1088Y263D01*
X1118Y263D02*
X1122Y263D01*
X1143Y263D02*
X1145Y263D01*
X1215Y263D02*
X1216Y263D01*
X563Y262D02*
X570Y262D01*
X971Y262D02*
X974Y262D01*
X1085Y262D02*
X1088Y262D01*
X1119Y262D02*
X1122Y262D01*
X1143Y262D02*
X1145Y262D01*
X1215Y262D02*
X1216Y262D01*
X563Y261D02*
X570Y261D01*
X971Y261D02*
X974Y261D01*
X1085Y261D02*
X1088Y261D01*
X1118Y261D02*
X1122Y261D01*
X1143Y261D02*
X1145Y261D01*
X1215Y261D02*
X1216Y261D01*
X563Y260D02*
X570Y260D01*
X971Y260D02*
X974Y260D01*
X1085Y260D02*
X1088Y260D01*
X1101Y260D02*
X1122Y260D01*
X1143Y260D02*
X1145Y260D01*
X1215Y260D02*
X1216Y260D01*
X563Y259D02*
X570Y259D01*
X971Y259D02*
X974Y259D01*
X1085Y259D02*
X1088Y259D01*
X1100Y259D02*
X1121Y259D01*
X1143Y259D02*
X1145Y259D01*
X1215Y259D02*
X1216Y259D01*
X563Y258D02*
X570Y258D01*
X971Y258D02*
X974Y258D01*
X1085Y258D02*
X1088Y258D01*
X1100Y258D02*
X1120Y258D01*
X1143Y258D02*
X1145Y258D01*
X1215Y258D02*
X1216Y258D01*
X563Y257D02*
X570Y257D01*
X971Y257D02*
X974Y257D01*
X1085Y257D02*
X1088Y257D01*
X1100Y257D02*
X1118Y257D01*
X1143Y257D02*
X1145Y257D01*
X1215Y257D02*
X1216Y257D01*
X563Y256D02*
X570Y256D01*
X971Y256D02*
X974Y256D01*
X1085Y256D02*
X1088Y256D01*
X1143Y256D02*
X1145Y256D01*
X1215Y256D02*
X1216Y256D01*
X563Y255D02*
X570Y255D01*
X971Y255D02*
X974Y255D01*
X1085Y255D02*
X1088Y255D01*
X1143Y255D02*
X1145Y255D01*
X1215Y255D02*
X1216Y255D01*
X563Y254D02*
X570Y254D01*
X971Y254D02*
X974Y254D01*
X1085Y254D02*
X1088Y254D01*
X1143Y254D02*
X1145Y254D01*
X1215Y254D02*
X1216Y254D01*
X563Y253D02*
X570Y253D01*
X971Y253D02*
X974Y253D01*
X1085Y253D02*
X1088Y253D01*
X1143Y253D02*
X1145Y253D01*
X1215Y253D02*
X1216Y253D01*
X563Y252D02*
X570Y252D01*
X971Y252D02*
X974Y252D01*
X1085Y252D02*
X1088Y252D01*
X1143Y252D02*
X1145Y252D01*
X1215Y252D02*
X1216Y252D01*
X563Y251D02*
X570Y251D01*
X971Y251D02*
X974Y251D01*
X1085Y251D02*
X1088Y251D01*
X1143Y251D02*
X1145Y251D01*
X1215Y251D02*
X1216Y251D01*
X563Y250D02*
X570Y250D01*
X971Y250D02*
X974Y250D01*
X1085Y250D02*
X1088Y250D01*
X1143Y250D02*
X1145Y250D01*
X1215Y250D02*
X1216Y250D01*
X563Y249D02*
X570Y249D01*
X971Y249D02*
X974Y249D01*
X1085Y249D02*
X1088Y249D01*
X1143Y249D02*
X1145Y249D01*
X1215Y249D02*
X1216Y249D01*
X563Y248D02*
X570Y248D01*
X971Y248D02*
X974Y248D01*
X1085Y248D02*
X1088Y248D01*
X1143Y248D02*
X1145Y248D01*
X1215Y248D02*
X1216Y248D01*
X563Y247D02*
X570Y247D01*
X971Y247D02*
X974Y247D01*
X1085Y247D02*
X1088Y247D01*
X1143Y247D02*
X1145Y247D01*
X1215Y247D02*
X1216Y247D01*
X563Y246D02*
X570Y246D01*
X971Y246D02*
X974Y246D01*
X1085Y246D02*
X1088Y246D01*
X1143Y246D02*
X1145Y246D01*
X1215Y246D02*
X1216Y246D01*
X563Y245D02*
X570Y245D01*
X971Y245D02*
X974Y245D01*
X1085Y245D02*
X1088Y245D01*
X1143Y245D02*
X1145Y245D01*
X1215Y245D02*
X1216Y245D01*
X563Y244D02*
X570Y244D01*
X971Y244D02*
X974Y244D01*
X1085Y244D02*
X1088Y244D01*
X1143Y244D02*
X1145Y244D01*
X1215Y244D02*
X1216Y244D01*
X563Y243D02*
X570Y243D01*
X971Y243D02*
X974Y243D01*
X1085Y243D02*
X1088Y243D01*
X1143Y243D02*
X1145Y243D01*
X1215Y243D02*
X1216Y243D01*
X563Y242D02*
X570Y242D01*
X971Y242D02*
X974Y242D01*
X1085Y242D02*
X1088Y242D01*
X1143Y242D02*
X1145Y242D01*
X1215Y242D02*
X1216Y242D01*
X563Y241D02*
X570Y241D01*
X971Y241D02*
X974Y241D01*
X1085Y241D02*
X1088Y241D01*
X1143Y241D02*
X1145Y241D01*
X1215Y241D02*
X1216Y241D01*
X563Y240D02*
X570Y240D01*
X971Y240D02*
X974Y240D01*
X1085Y240D02*
X1088Y240D01*
X1143Y240D02*
X1145Y240D01*
X1215Y240D02*
X1216Y240D01*
X563Y239D02*
X570Y239D01*
X971Y239D02*
X974Y239D01*
X1085Y239D02*
X1088Y239D01*
X1143Y239D02*
X1145Y239D01*
X1215Y239D02*
X1216Y239D01*
X563Y238D02*
X570Y238D01*
X971Y238D02*
X974Y238D01*
X1085Y238D02*
X1088Y238D01*
X1143Y238D02*
X1145Y238D01*
X1215Y238D02*
X1216Y238D01*
X563Y237D02*
X570Y237D01*
X971Y237D02*
X974Y237D01*
X1085Y237D02*
X1088Y237D01*
X1143Y237D02*
X1145Y237D01*
X1215Y237D02*
X1216Y237D01*
X563Y236D02*
X570Y236D01*
X971Y236D02*
X974Y236D01*
X1085Y236D02*
X1088Y236D01*
X1143Y236D02*
X1145Y236D01*
X1215Y236D02*
X1216Y236D01*
X563Y235D02*
X570Y235D01*
X971Y235D02*
X974Y235D01*
X1085Y235D02*
X1088Y235D01*
X1143Y235D02*
X1145Y235D01*
X1215Y235D02*
X1216Y235D01*
X563Y234D02*
X570Y234D01*
X971Y234D02*
X974Y234D01*
X1085Y234D02*
X1088Y234D01*
X1143Y234D02*
X1145Y234D01*
X1215Y234D02*
X1216Y234D01*
X563Y233D02*
X570Y233D01*
X971Y233D02*
X974Y233D01*
X1085Y233D02*
X1088Y233D01*
X1143Y233D02*
X1216Y233D01*
X563Y232D02*
X570Y232D01*
X971Y232D02*
X1088Y232D01*
X1143Y232D02*
X1216Y232D01*
X563Y231D02*
X570Y231D01*
X971Y231D02*
X1008Y231D01*
X1051Y231D02*
X1088Y231D01*
X1143Y231D02*
X1216Y231D01*
X563Y230D02*
X570Y230D01*
X971Y230D02*
X1008Y230D01*
X1051Y230D02*
X1088Y230D01*
X563Y229D02*
X570Y229D01*
X971Y229D02*
X1008Y229D01*
X1051Y229D02*
X1088Y229D01*
X563Y228D02*
X570Y228D01*
X563Y227D02*
X570Y227D01*
X563Y226D02*
X570Y226D01*
X563Y225D02*
X570Y225D01*
X563Y224D02*
X570Y224D01*
X563Y223D02*
X570Y223D01*
X563Y222D02*
X570Y222D01*
X563Y221D02*
X570Y221D01*
X563Y220D02*
X570Y220D01*
X563Y219D02*
X570Y219D01*
X563Y218D02*
X570Y218D01*
X563Y217D02*
X570Y217D01*
X973Y217D02*
X973Y217D01*
X989Y217D02*
X1004Y217D01*
X564Y216D02*
X570Y216D01*
X970Y216D02*
X975Y216D01*
X988Y216D02*
X1006Y216D01*
X564Y215D02*
X570Y215D01*
X969Y215D02*
X976Y215D01*
X988Y215D02*
X1007Y215D01*
X564Y214D02*
X570Y214D01*
X968Y214D02*
X977Y214D01*
X988Y214D02*
X1007Y214D01*
X564Y213D02*
X570Y213D01*
X967Y213D02*
X977Y213D01*
X989Y213D02*
X1007Y213D01*
X564Y212D02*
X570Y212D01*
X965Y212D02*
X971Y212D01*
X974Y212D02*
X977Y212D01*
X1004Y212D02*
X1007Y212D01*
X565Y211D02*
X570Y211D01*
X964Y211D02*
X970Y211D01*
X974Y211D02*
X977Y211D01*
X1004Y211D02*
X1007Y211D01*
X565Y210D02*
X570Y210D01*
X963Y210D02*
X969Y210D01*
X974Y210D02*
X977Y210D01*
X1004Y210D02*
X1007Y210D01*
X565Y209D02*
X570Y209D01*
X962Y209D02*
X967Y209D01*
X974Y209D02*
X977Y209D01*
X1004Y209D02*
X1007Y209D01*
X565Y208D02*
X570Y208D01*
X961Y208D02*
X966Y208D01*
X974Y208D02*
X977Y208D01*
X1004Y208D02*
X1007Y208D01*
X565Y207D02*
X570Y207D01*
X960Y207D02*
X965Y207D01*
X974Y207D02*
X977Y207D01*
X1004Y207D02*
X1007Y207D01*
X565Y206D02*
X570Y206D01*
X959Y206D02*
X964Y206D01*
X974Y206D02*
X977Y206D01*
X1004Y206D02*
X1007Y206D01*
X565Y205D02*
X570Y205D01*
X958Y205D02*
X963Y205D01*
X974Y205D02*
X977Y205D01*
X1004Y205D02*
X1007Y205D01*
X565Y204D02*
X570Y204D01*
X958Y204D02*
X962Y204D01*
X974Y204D02*
X977Y204D01*
X1004Y204D02*
X1007Y204D01*
X565Y203D02*
X570Y203D01*
X958Y203D02*
X961Y203D01*
X974Y203D02*
X977Y203D01*
X1004Y203D02*
X1007Y203D01*
X565Y202D02*
X570Y202D01*
X958Y202D02*
X961Y202D01*
X974Y202D02*
X977Y202D01*
X989Y202D02*
X1007Y202D01*
X565Y201D02*
X570Y201D01*
X958Y201D02*
X961Y201D01*
X974Y201D02*
X977Y201D01*
X988Y201D02*
X1007Y201D01*
X565Y200D02*
X570Y200D01*
X958Y200D02*
X961Y200D01*
X974Y200D02*
X977Y200D01*
X988Y200D02*
X1006Y200D01*
X565Y199D02*
X570Y199D01*
X958Y199D02*
X961Y199D01*
X967Y199D02*
X968Y199D01*
X974Y199D02*
X977Y199D01*
X988Y199D02*
X1004Y199D01*
X565Y198D02*
X570Y198D01*
X958Y198D02*
X961Y198D01*
X966Y198D02*
X969Y198D01*
X973Y198D02*
X977Y198D01*
X988Y198D02*
X991Y198D01*
X564Y197D02*
X570Y197D01*
X958Y197D02*
X961Y197D01*
X966Y197D02*
X969Y197D01*
X973Y197D02*
X977Y197D01*
X988Y197D02*
X991Y197D01*
X564Y196D02*
X570Y196D01*
X958Y196D02*
X961Y196D01*
X966Y196D02*
X976Y196D01*
X988Y196D02*
X991Y196D01*
X564Y195D02*
X570Y195D01*
X958Y195D02*
X961Y195D01*
X967Y195D02*
X975Y195D01*
X988Y195D02*
X991Y195D01*
X564Y194D02*
X570Y194D01*
X958Y194D02*
X961Y194D01*
X967Y194D02*
X975Y194D01*
X988Y194D02*
X991Y194D01*
X564Y193D02*
X570Y193D01*
X958Y193D02*
X961Y193D01*
X967Y193D02*
X974Y193D01*
X988Y193D02*
X991Y193D01*
X563Y192D02*
X570Y192D01*
X958Y192D02*
X961Y192D01*
X967Y192D02*
X972Y192D01*
X988Y192D02*
X991Y192D01*
X563Y191D02*
X570Y191D01*
X958Y191D02*
X961Y191D01*
X966Y191D02*
X972Y191D01*
X988Y191D02*
X991Y191D01*
X563Y190D02*
X570Y190D01*
X958Y190D02*
X961Y190D01*
X964Y190D02*
X972Y190D01*
X988Y190D02*
X991Y190D01*
X563Y189D02*
X570Y189D01*
X958Y189D02*
X961Y189D01*
X963Y189D02*
X973Y189D01*
X988Y189D02*
X991Y189D01*
X563Y188D02*
X570Y188D01*
X958Y188D02*
X977Y188D01*
X988Y188D02*
X1007Y188D01*
X563Y187D02*
X570Y187D01*
X958Y187D02*
X966Y187D01*
X970Y187D02*
X977Y187D01*
X988Y187D02*
X1007Y187D01*
X563Y186D02*
X570Y186D01*
X959Y186D02*
X965Y186D01*
X970Y186D02*
X977Y186D01*
X988Y186D02*
X1007Y186D01*
X563Y185D02*
X570Y185D01*
X961Y185D02*
X964Y185D01*
X970Y185D02*
X976Y185D01*
X988Y185D02*
X1006Y185D01*
X563Y184D02*
X570Y184D01*
X563Y183D02*
X570Y183D01*
X563Y182D02*
X570Y182D01*
X563Y181D02*
X570Y181D01*
X563Y180D02*
X570Y180D01*
X563Y179D02*
X570Y179D01*
X563Y178D02*
X570Y178D01*
X563Y177D02*
X570Y177D01*
X563Y176D02*
X570Y176D01*
X563Y175D02*
X570Y175D01*
X563Y174D02*
X570Y174D01*
X563Y173D02*
X570Y173D01*
X563Y172D02*
X570Y172D01*
X563Y171D02*
X570Y171D01*
X563Y170D02*
X570Y170D01*
X563Y169D02*
X570Y169D01*
X563Y168D02*
X570Y168D01*
X563Y167D02*
X570Y167D01*
X563Y166D02*
X570Y166D01*
X563Y165D02*
X570Y165D01*
X563Y164D02*
X570Y164D01*
X563Y163D02*
X570Y163D01*
X563Y162D02*
X570Y162D01*
X563Y161D02*
X570Y161D01*
X563Y160D02*
X570Y160D01*
X563Y159D02*
X570Y159D01*
X563Y158D02*
X570Y158D01*
X563Y157D02*
X570Y157D01*
X563Y156D02*
X570Y156D01*
X563Y155D02*
X570Y155D01*
X563Y154D02*
X570Y154D01*
X563Y153D02*
X570Y153D01*
X563Y152D02*
X570Y152D01*
X563Y151D02*
X570Y151D01*
X563Y150D02*
X570Y150D01*
X563Y149D02*
X570Y149D01*
X563Y148D02*
X570Y148D01*
X563Y147D02*
X570Y147D01*
X563Y146D02*
X570Y146D01*
X563Y145D02*
X570Y145D01*
X563Y144D02*
X570Y144D01*
X563Y143D02*
X570Y143D01*
X563Y142D02*
X570Y142D01*
X563Y141D02*
X570Y141D01*
X563Y140D02*
X570Y140D01*
X563Y139D02*
X570Y139D01*
X563Y138D02*
X570Y138D01*
X563Y137D02*
X570Y137D01*
X563Y136D02*
X570Y136D01*
X563Y135D02*
X570Y135D01*
X563Y134D02*
X570Y134D01*
X563Y133D02*
X570Y133D01*
X563Y132D02*
X570Y132D01*
X563Y131D02*
X570Y131D01*
X563Y130D02*
X570Y130D01*
X661Y130D02*
X672Y130D01*
X835Y130D02*
X836Y130D01*
X563Y129D02*
X570Y129D01*
X659Y129D02*
X674Y129D01*
X833Y129D02*
X837Y129D01*
X563Y128D02*
X570Y128D01*
X659Y128D02*
X674Y128D01*
X833Y128D02*
X838Y128D01*
X563Y127D02*
X570Y127D01*
X658Y127D02*
X674Y127D01*
X832Y127D02*
X838Y127D01*
X563Y126D02*
X570Y126D01*
X658Y126D02*
X675Y126D01*
X832Y126D02*
X838Y126D01*
X563Y125D02*
X570Y125D01*
X659Y125D02*
X675Y125D01*
X832Y125D02*
X838Y125D01*
X563Y124D02*
X570Y124D01*
X660Y124D02*
X675Y124D01*
X832Y124D02*
X838Y124D01*
X563Y123D02*
X570Y123D01*
X668Y123D02*
X675Y123D01*
X832Y123D02*
X838Y123D01*
X563Y122D02*
X570Y122D01*
X669Y122D02*
X675Y122D01*
X832Y122D02*
X838Y122D01*
X563Y121D02*
X570Y121D01*
X669Y121D02*
X675Y121D01*
X832Y121D02*
X838Y121D01*
X563Y120D02*
X570Y120D01*
X669Y120D02*
X675Y120D01*
X832Y120D02*
X838Y120D01*
X563Y119D02*
X570Y119D01*
X669Y119D02*
X675Y119D01*
X832Y119D02*
X838Y119D01*
X563Y118D02*
X570Y118D01*
X669Y118D02*
X675Y118D01*
X832Y118D02*
X838Y118D01*
X563Y117D02*
X570Y117D01*
X669Y117D02*
X675Y117D01*
X832Y117D02*
X838Y117D01*
X563Y116D02*
X570Y116D01*
X669Y116D02*
X675Y116D01*
X832Y116D02*
X838Y116D01*
X563Y115D02*
X570Y115D01*
X669Y115D02*
X675Y115D01*
X715Y115D02*
X728Y115D01*
X763Y115D02*
X780Y115D01*
X815Y115D02*
X825Y115D01*
X832Y115D02*
X838Y115D01*
X563Y114D02*
X570Y114D01*
X669Y114D02*
X675Y114D01*
X712Y114D02*
X731Y114D01*
X762Y114D02*
X782Y114D01*
X812Y114D02*
X827Y114D01*
X832Y114D02*
X838Y114D01*
X563Y113D02*
X570Y113D01*
X669Y113D02*
X675Y113D01*
X711Y113D02*
X732Y113D01*
X762Y113D02*
X784Y113D01*
X811Y113D02*
X829Y113D01*
X832Y113D02*
X838Y113D01*
X563Y112D02*
X570Y112D01*
X669Y112D02*
X675Y112D01*
X710Y112D02*
X733Y112D01*
X762Y112D02*
X785Y112D01*
X810Y112D02*
X830Y112D01*
X832Y112D02*
X838Y112D01*
X563Y111D02*
X570Y111D01*
X669Y111D02*
X675Y111D01*
X709Y111D02*
X734Y111D01*
X762Y111D02*
X785Y111D01*
X809Y111D02*
X838Y111D01*
X563Y110D02*
X570Y110D01*
X669Y110D02*
X675Y110D01*
X708Y110D02*
X735Y110D01*
X762Y110D02*
X786Y110D01*
X808Y110D02*
X838Y110D01*
X563Y109D02*
X570Y109D01*
X669Y109D02*
X675Y109D01*
X707Y109D02*
X736Y109D01*
X763Y109D02*
X787Y109D01*
X807Y109D02*
X838Y109D01*
X563Y108D02*
X570Y108D01*
X669Y108D02*
X675Y108D01*
X706Y108D02*
X715Y108D01*
X728Y108D02*
X737Y108D01*
X780Y108D02*
X787Y108D01*
X806Y108D02*
X815Y108D01*
X824Y108D02*
X838Y108D01*
X563Y107D02*
X570Y107D01*
X669Y107D02*
X675Y107D01*
X706Y107D02*
X714Y107D01*
X730Y107D02*
X737Y107D01*
X781Y107D02*
X787Y107D01*
X806Y107D02*
X814Y107D01*
X826Y107D02*
X838Y107D01*
X563Y106D02*
X570Y106D01*
X669Y106D02*
X675Y106D01*
X705Y106D02*
X713Y106D01*
X731Y106D02*
X738Y106D01*
X781Y106D02*
X787Y106D01*
X805Y106D02*
X812Y106D01*
X827Y106D02*
X838Y106D01*
X563Y105D02*
X570Y105D01*
X669Y105D02*
X675Y105D01*
X705Y105D02*
X712Y105D01*
X732Y105D02*
X738Y105D01*
X781Y105D02*
X787Y105D01*
X805Y105D02*
X812Y105D01*
X828Y105D02*
X838Y105D01*
X563Y104D02*
X570Y104D01*
X669Y104D02*
X675Y104D01*
X705Y104D02*
X711Y104D01*
X732Y104D02*
X738Y104D01*
X781Y104D02*
X787Y104D01*
X805Y104D02*
X811Y104D01*
X829Y104D02*
X838Y104D01*
X563Y103D02*
X570Y103D01*
X669Y103D02*
X675Y103D01*
X705Y103D02*
X711Y103D01*
X732Y103D02*
X738Y103D01*
X781Y103D02*
X787Y103D01*
X805Y103D02*
X811Y103D01*
X830Y103D02*
X838Y103D01*
X563Y102D02*
X570Y102D01*
X669Y102D02*
X675Y102D01*
X705Y102D02*
X711Y102D01*
X732Y102D02*
X738Y102D01*
X781Y102D02*
X787Y102D01*
X805Y102D02*
X811Y102D01*
X831Y102D02*
X838Y102D01*
X563Y101D02*
X570Y101D01*
X669Y101D02*
X675Y101D01*
X705Y101D02*
X711Y101D01*
X732Y101D02*
X738Y101D01*
X781Y101D02*
X788Y101D01*
X805Y101D02*
X811Y101D01*
X832Y101D02*
X838Y101D01*
X563Y100D02*
X570Y100D01*
X669Y100D02*
X675Y100D01*
X705Y100D02*
X711Y100D01*
X732Y100D02*
X738Y100D01*
X761Y100D02*
X788Y100D01*
X805Y100D02*
X811Y100D01*
X832Y100D02*
X838Y100D01*
X563Y99D02*
X570Y99D01*
X669Y99D02*
X675Y99D01*
X705Y99D02*
X711Y99D01*
X732Y99D02*
X738Y99D01*
X759Y99D02*
X788Y99D01*
X805Y99D02*
X811Y99D01*
X832Y99D02*
X838Y99D01*
X563Y98D02*
X570Y98D01*
X669Y98D02*
X675Y98D01*
X705Y98D02*
X711Y98D01*
X732Y98D02*
X738Y98D01*
X758Y98D02*
X788Y98D01*
X805Y98D02*
X811Y98D01*
X832Y98D02*
X838Y98D01*
X563Y97D02*
X570Y97D01*
X669Y97D02*
X675Y97D01*
X705Y97D02*
X711Y97D01*
X732Y97D02*
X738Y97D01*
X757Y97D02*
X788Y97D01*
X805Y97D02*
X811Y97D01*
X832Y97D02*
X838Y97D01*
X563Y96D02*
X570Y96D01*
X669Y96D02*
X675Y96D01*
X705Y96D02*
X711Y96D01*
X732Y96D02*
X738Y96D01*
X756Y96D02*
X788Y96D01*
X805Y96D02*
X811Y96D01*
X832Y96D02*
X838Y96D01*
X563Y95D02*
X570Y95D01*
X669Y95D02*
X675Y95D01*
X705Y95D02*
X711Y95D01*
X732Y95D02*
X738Y95D01*
X756Y95D02*
X788Y95D01*
X805Y95D02*
X811Y95D01*
X832Y95D02*
X838Y95D01*
X563Y94D02*
X570Y94D01*
X669Y94D02*
X675Y94D01*
X705Y94D02*
X711Y94D01*
X732Y94D02*
X738Y94D01*
X755Y94D02*
X788Y94D01*
X805Y94D02*
X811Y94D01*
X832Y94D02*
X838Y94D01*
X563Y93D02*
X570Y93D01*
X669Y93D02*
X675Y93D01*
X705Y93D02*
X711Y93D01*
X732Y93D02*
X738Y93D01*
X755Y93D02*
X762Y93D01*
X780Y93D02*
X788Y93D01*
X805Y93D02*
X811Y93D01*
X832Y93D02*
X838Y93D01*
X563Y92D02*
X570Y92D01*
X669Y92D02*
X675Y92D01*
X705Y92D02*
X711Y92D01*
X732Y92D02*
X738Y92D01*
X755Y92D02*
X761Y92D01*
X781Y92D02*
X788Y92D01*
X805Y92D02*
X811Y92D01*
X832Y92D02*
X838Y92D01*
X563Y91D02*
X570Y91D01*
X669Y91D02*
X675Y91D01*
X705Y91D02*
X711Y91D01*
X732Y91D02*
X738Y91D01*
X755Y91D02*
X761Y91D01*
X782Y91D02*
X788Y91D01*
X805Y91D02*
X811Y91D01*
X832Y91D02*
X838Y91D01*
X563Y90D02*
X570Y90D01*
X669Y90D02*
X675Y90D01*
X705Y90D02*
X711Y90D01*
X732Y90D02*
X738Y90D01*
X755Y90D02*
X761Y90D01*
X782Y90D02*
X788Y90D01*
X805Y90D02*
X811Y90D01*
X832Y90D02*
X838Y90D01*
X563Y89D02*
X570Y89D01*
X669Y89D02*
X675Y89D01*
X705Y89D02*
X711Y89D01*
X732Y89D02*
X738Y89D01*
X755Y89D02*
X761Y89D01*
X782Y89D02*
X788Y89D01*
X805Y89D02*
X811Y89D01*
X831Y89D02*
X838Y89D01*
X563Y88D02*
X570Y88D01*
X669Y88D02*
X675Y88D01*
X705Y88D02*
X711Y88D01*
X732Y88D02*
X738Y88D01*
X755Y88D02*
X761Y88D01*
X782Y88D02*
X788Y88D01*
X805Y88D02*
X811Y88D01*
X830Y88D02*
X838Y88D01*
X563Y87D02*
X570Y87D01*
X669Y87D02*
X675Y87D01*
X705Y87D02*
X711Y87D01*
X732Y87D02*
X738Y87D01*
X755Y87D02*
X761Y87D01*
X781Y87D02*
X788Y87D01*
X805Y87D02*
X811Y87D01*
X829Y87D02*
X838Y87D01*
X563Y86D02*
X570Y86D01*
X669Y86D02*
X675Y86D01*
X705Y86D02*
X712Y86D01*
X731Y86D02*
X738Y86D01*
X755Y86D02*
X761Y86D01*
X779Y86D02*
X788Y86D01*
X805Y86D02*
X812Y86D01*
X827Y86D02*
X838Y86D01*
X563Y85D02*
X570Y85D01*
X669Y85D02*
X675Y85D01*
X705Y85D02*
X713Y85D01*
X730Y85D02*
X738Y85D01*
X755Y85D02*
X761Y85D01*
X778Y85D02*
X788Y85D01*
X805Y85D02*
X813Y85D01*
X826Y85D02*
X838Y85D01*
X563Y84D02*
X570Y84D01*
X669Y84D02*
X675Y84D01*
X706Y84D02*
X714Y84D01*
X729Y84D02*
X737Y84D01*
X755Y84D02*
X762Y84D01*
X776Y84D02*
X788Y84D01*
X806Y84D02*
X814Y84D01*
X825Y84D02*
X838Y84D01*
X563Y83D02*
X570Y83D01*
X661Y83D02*
X682Y83D01*
X706Y83D02*
X737Y83D01*
X755Y83D02*
X788Y83D01*
X806Y83D02*
X838Y83D01*
X563Y82D02*
X570Y82D01*
X659Y82D02*
X684Y82D01*
X707Y82D02*
X736Y82D01*
X756Y82D02*
X788Y82D01*
X807Y82D02*
X838Y82D01*
X563Y81D02*
X570Y81D01*
X659Y81D02*
X684Y81D01*
X708Y81D02*
X735Y81D01*
X756Y81D02*
X788Y81D01*
X808Y81D02*
X838Y81D01*
X563Y80D02*
X570Y80D01*
X658Y80D02*
X685Y80D01*
X709Y80D02*
X734Y80D01*
X757Y80D02*
X788Y80D01*
X809Y80D02*
X830Y80D01*
X832Y80D02*
X838Y80D01*
X563Y79D02*
X570Y79D01*
X658Y79D02*
X685Y79D01*
X710Y79D02*
X733Y79D01*
X758Y79D02*
X780Y79D01*
X782Y79D02*
X788Y79D01*
X810Y79D02*
X829Y79D01*
X832Y79D02*
X838Y79D01*
X563Y78D02*
X570Y78D01*
X659Y78D02*
X684Y78D01*
X712Y78D02*
X731Y78D01*
X759Y78D02*
X779Y78D01*
X783Y78D02*
X788Y78D01*
X811Y78D02*
X828Y78D01*
X833Y78D02*
X838Y78D01*
X564Y77D02*
X569Y77D01*
X659Y77D02*
X684Y77D01*
X713Y77D02*
X730Y77D01*
X761Y77D02*
X777Y77D01*
X783Y77D02*
X787Y77D01*
X813Y77D02*
X826Y77D01*
X833Y77D02*
X837Y77D01*
X565Y76D02*
X568Y76D01*
D02*
G04 End of Silk1*
M02*