G04 MADE WITH FRITZING*
G04 WWW.FRITZING.ORG*
G04 DOUBLE SIDED*
G04 HOLES PLATED*
G04 CONTOUR ON CENTER OF CONTOUR VECTOR*
%ASAXBY*%
%FSLAX23Y23*%
%MOIN*%
%OFA0B0*%
%SFA1.0B1.0*%
%ADD10C,0.039370*%
%ADD11C,0.074000*%
%ADD12C,0.057000*%
%ADD13C,0.078000*%
%ADD14C,0.060597*%
%ADD15R,0.031496X0.035433*%
%ADD16R,0.035433X0.031496*%
%ADD17R,0.088000X0.048000*%
%ADD18R,0.086614X0.141732*%
%ADD19R,0.059055X0.055118*%
%ADD20R,0.055118X0.059055*%
%ADD21R,0.045957X0.086424*%
%ADD22C,0.024000*%
%ADD23C,0.042000*%
%ADD24C,0.036000*%
%ADD25C,0.016000*%
%ADD26C,0.012000*%
%ADD27C,0.060000*%
%ADD28R,0.001000X0.001000*%
%LNCOPPER1*%
G90*
G70*
G54D10*
X1075Y1140D03*
G54D11*
X524Y203D03*
X424Y253D03*
X524Y303D03*
X524Y403D03*
X524Y503D03*
X424Y353D03*
X424Y453D03*
X424Y553D03*
X523Y1040D03*
X423Y1090D03*
X523Y1140D03*
X523Y1240D03*
X523Y1340D03*
X423Y1190D03*
X423Y1290D03*
X423Y1390D03*
G54D12*
X782Y265D03*
X703Y265D03*
X782Y265D03*
X703Y265D03*
G54D10*
X286Y1404D03*
X267Y1208D03*
X739Y1267D03*
G54D13*
X1295Y1300D03*
X1295Y1200D03*
G54D10*
X1134Y1480D03*
G54D13*
X1294Y898D03*
X1294Y798D03*
X1294Y698D03*
X1294Y598D03*
X1294Y498D03*
X1294Y398D03*
X1294Y298D03*
G54D10*
X855Y573D03*
X932Y186D03*
X993Y346D03*
G54D14*
X963Y734D03*
X660Y1133D03*
X660Y934D03*
X660Y734D03*
X660Y434D03*
X963Y434D03*
X963Y934D03*
X963Y1133D03*
G54D10*
X1003Y847D03*
X1028Y600D03*
G54D15*
X1068Y286D03*
X993Y286D03*
X1031Y207D03*
G54D16*
X1136Y974D03*
X1136Y1049D03*
X1057Y1011D03*
G54D17*
X678Y1459D03*
X678Y1368D03*
X678Y1277D03*
G54D18*
X922Y1368D03*
G54D19*
X1074Y841D03*
X1074Y761D03*
X1117Y434D03*
X1117Y515D03*
X1159Y843D03*
X1159Y763D03*
X1117Y678D03*
X1117Y597D03*
G54D20*
X1229Y1008D03*
X1310Y1008D03*
X1310Y1088D03*
X1230Y1088D03*
G54D19*
X1181Y345D03*
X1181Y264D03*
G54D21*
X784Y196D03*
X703Y194D03*
G54D22*
X1045Y1011D02*
X960Y1012D01*
D02*
X1073Y907D02*
X1074Y863D01*
D02*
X1135Y907D02*
X1073Y907D01*
D02*
X1136Y964D02*
X1135Y907D01*
D02*
X1072Y298D02*
X1109Y412D01*
G54D23*
D02*
X349Y1329D02*
X391Y1364D01*
D02*
X351Y553D02*
X349Y1329D01*
D02*
X382Y553D02*
X351Y553D01*
G54D22*
D02*
X960Y1368D02*
X1069Y1366D01*
G54D24*
D02*
X715Y293D02*
X738Y345D01*
D02*
X738Y345D02*
X739Y692D01*
D02*
X739Y692D02*
X687Y720D01*
D02*
X797Y327D02*
X789Y295D01*
D02*
X800Y690D02*
X797Y327D01*
D02*
X933Y726D02*
X800Y690D01*
G54D22*
D02*
X591Y474D02*
X545Y425D01*
D02*
X588Y772D02*
X589Y642D01*
D02*
X591Y1180D02*
X546Y1220D01*
D02*
X588Y772D02*
X591Y1180D01*
D02*
X1135Y762D02*
X1098Y761D01*
D02*
X384Y1462D02*
X505Y1467D01*
D02*
X505Y1467D02*
X646Y1387D01*
D02*
X303Y1413D02*
X384Y1462D01*
G54D25*
D02*
X606Y372D02*
X547Y394D01*
D02*
X606Y82D02*
X606Y372D01*
D02*
X1004Y84D02*
X606Y82D01*
G54D22*
D02*
X281Y1130D02*
X270Y1189D01*
D02*
X281Y450D02*
X281Y1130D01*
G54D23*
D02*
X716Y1271D02*
X710Y1272D01*
G54D22*
D02*
X1117Y575D02*
X1117Y537D01*
G54D25*
D02*
X358Y47D02*
X1019Y47D01*
D02*
X408Y433D02*
X362Y377D01*
D02*
X362Y377D02*
X358Y47D01*
G54D22*
D02*
X281Y450D02*
X393Y452D01*
G54D26*
D02*
X1378Y534D02*
X1375Y1008D01*
D02*
X1317Y508D02*
X1378Y534D01*
G54D22*
D02*
X853Y483D02*
X855Y554D01*
D02*
X913Y185D02*
X850Y183D01*
D02*
X1183Y853D02*
X1266Y887D01*
D02*
X1220Y676D02*
X1220Y798D01*
D02*
X1220Y798D02*
X1264Y798D01*
D02*
X1141Y677D02*
X1220Y676D01*
D02*
X1205Y356D02*
X1267Y385D01*
D02*
X1205Y272D02*
X1266Y289D01*
G54D25*
D02*
X1157Y338D02*
X1129Y330D01*
D02*
X1129Y330D02*
X1125Y236D01*
D02*
X1133Y196D02*
X1019Y47D01*
D02*
X1165Y242D02*
X1133Y196D01*
G54D22*
D02*
X783Y234D02*
X783Y241D01*
D02*
X703Y232D02*
X703Y241D01*
G54D26*
D02*
X1375Y1008D02*
X1332Y1008D01*
G54D22*
D02*
X1135Y1161D02*
X1134Y1461D01*
D02*
X1268Y1143D02*
X1135Y1161D01*
D02*
X1292Y1112D02*
X1268Y1143D01*
D02*
X1135Y1161D02*
X1136Y1059D01*
G54D26*
D02*
X1179Y903D02*
X1176Y1084D01*
D02*
X1176Y1084D02*
X1208Y1087D01*
D02*
X1270Y899D02*
X1179Y903D01*
D02*
X1350Y949D02*
X1352Y799D01*
D02*
X1229Y949D02*
X1350Y949D01*
D02*
X1352Y799D02*
X1319Y798D01*
D02*
X1229Y984D02*
X1229Y949D01*
G54D22*
D02*
X1310Y1032D02*
X1310Y1064D01*
D02*
X993Y327D02*
X993Y298D01*
G54D25*
D02*
X1125Y236D02*
X1004Y84D01*
G54D22*
D02*
X649Y337D02*
X650Y124D01*
G54D27*
D02*
X661Y1033D02*
X923Y1120D01*
G54D22*
D02*
X650Y124D02*
X976Y124D01*
D02*
X976Y124D02*
X1023Y195D01*
D02*
X657Y409D02*
X649Y337D01*
D02*
X960Y1012D02*
X962Y959D01*
G54D27*
D02*
X660Y975D02*
X661Y1033D01*
G54D22*
D02*
X1069Y1366D02*
X1075Y1159D01*
D02*
X1028Y703D02*
X1002Y798D01*
D02*
X1002Y798D02*
X1002Y828D01*
D02*
X589Y642D02*
X591Y474D01*
D02*
X850Y183D02*
X853Y483D01*
D02*
X1028Y619D02*
X1028Y703D01*
G54D28*
X386Y1428D02*
X458Y1428D01*
X386Y1427D02*
X458Y1427D01*
X386Y1426D02*
X458Y1426D01*
X386Y1425D02*
X458Y1425D01*
X386Y1424D02*
X458Y1424D01*
X386Y1423D02*
X458Y1423D01*
X386Y1422D02*
X458Y1422D01*
X386Y1421D02*
X458Y1421D01*
X386Y1420D02*
X458Y1420D01*
X386Y1419D02*
X458Y1419D01*
X386Y1418D02*
X458Y1418D01*
X386Y1417D02*
X458Y1417D01*
X386Y1416D02*
X458Y1416D01*
X386Y1415D02*
X458Y1415D01*
X386Y1414D02*
X458Y1414D01*
X386Y1413D02*
X458Y1413D01*
X386Y1412D02*
X458Y1412D01*
X386Y1411D02*
X421Y1411D01*
X423Y1411D02*
X458Y1411D01*
X386Y1410D02*
X415Y1410D01*
X429Y1410D02*
X458Y1410D01*
X386Y1409D02*
X413Y1409D01*
X431Y1409D02*
X458Y1409D01*
X386Y1408D02*
X411Y1408D01*
X433Y1408D02*
X458Y1408D01*
X386Y1407D02*
X410Y1407D01*
X434Y1407D02*
X458Y1407D01*
X386Y1406D02*
X408Y1406D01*
X436Y1406D02*
X458Y1406D01*
X386Y1405D02*
X407Y1405D01*
X437Y1405D02*
X458Y1405D01*
X386Y1404D02*
X407Y1404D01*
X437Y1404D02*
X458Y1404D01*
X386Y1403D02*
X406Y1403D01*
X438Y1403D02*
X458Y1403D01*
X386Y1402D02*
X405Y1402D01*
X439Y1402D02*
X458Y1402D01*
X386Y1401D02*
X404Y1401D01*
X440Y1401D02*
X458Y1401D01*
X386Y1400D02*
X404Y1400D01*
X440Y1400D02*
X458Y1400D01*
X386Y1399D02*
X403Y1399D01*
X441Y1399D02*
X458Y1399D01*
X386Y1398D02*
X403Y1398D01*
X441Y1398D02*
X458Y1398D01*
X386Y1397D02*
X403Y1397D01*
X441Y1397D02*
X458Y1397D01*
X386Y1396D02*
X402Y1396D01*
X442Y1396D02*
X458Y1396D01*
X386Y1395D02*
X402Y1395D01*
X442Y1395D02*
X458Y1395D01*
X386Y1394D02*
X402Y1394D01*
X442Y1394D02*
X458Y1394D01*
X386Y1393D02*
X402Y1393D01*
X442Y1393D02*
X458Y1393D01*
X386Y1392D02*
X402Y1392D01*
X442Y1392D02*
X458Y1392D01*
X386Y1391D02*
X402Y1391D01*
X442Y1391D02*
X458Y1391D01*
X386Y1390D02*
X402Y1390D01*
X442Y1390D02*
X458Y1390D01*
X386Y1389D02*
X402Y1389D01*
X442Y1389D02*
X458Y1389D01*
X386Y1388D02*
X402Y1388D01*
X442Y1388D02*
X458Y1388D01*
X386Y1387D02*
X402Y1387D01*
X442Y1387D02*
X458Y1387D01*
X386Y1386D02*
X403Y1386D01*
X441Y1386D02*
X458Y1386D01*
X386Y1385D02*
X403Y1385D01*
X441Y1385D02*
X458Y1385D01*
X386Y1384D02*
X403Y1384D01*
X441Y1384D02*
X458Y1384D01*
X386Y1383D02*
X404Y1383D01*
X440Y1383D02*
X458Y1383D01*
X386Y1382D02*
X404Y1382D01*
X440Y1382D02*
X458Y1382D01*
X386Y1381D02*
X405Y1381D01*
X439Y1381D02*
X458Y1381D01*
X386Y1380D02*
X406Y1380D01*
X438Y1380D02*
X458Y1380D01*
X386Y1379D02*
X406Y1379D01*
X438Y1379D02*
X458Y1379D01*
X386Y1378D02*
X407Y1378D01*
X437Y1378D02*
X458Y1378D01*
X386Y1377D02*
X408Y1377D01*
X436Y1377D02*
X458Y1377D01*
X386Y1376D02*
X409Y1376D01*
X435Y1376D02*
X458Y1376D01*
X386Y1375D02*
X411Y1375D01*
X433Y1375D02*
X458Y1375D01*
X386Y1374D02*
X412Y1374D01*
X432Y1374D02*
X458Y1374D01*
X386Y1373D02*
X415Y1373D01*
X429Y1373D02*
X458Y1373D01*
X386Y1372D02*
X419Y1372D01*
X425Y1372D02*
X458Y1372D01*
X386Y1371D02*
X458Y1371D01*
X386Y1370D02*
X458Y1370D01*
X386Y1369D02*
X458Y1369D01*
X386Y1368D02*
X458Y1368D01*
X386Y1367D02*
X458Y1367D01*
X386Y1366D02*
X458Y1366D01*
X386Y1365D02*
X458Y1365D01*
X386Y1364D02*
X458Y1364D01*
X386Y1363D02*
X458Y1363D01*
X386Y1362D02*
X458Y1362D01*
X386Y1361D02*
X458Y1361D01*
X386Y1360D02*
X458Y1360D01*
X386Y1359D02*
X458Y1359D01*
X386Y1358D02*
X458Y1358D01*
X386Y1357D02*
X458Y1357D01*
X386Y1356D02*
X458Y1356D01*
X386Y1355D02*
X458Y1355D01*
X386Y591D02*
X459Y591D01*
X386Y590D02*
X459Y590D01*
X386Y589D02*
X459Y589D01*
X386Y588D02*
X459Y588D01*
X386Y587D02*
X459Y587D01*
X386Y586D02*
X459Y586D01*
X386Y585D02*
X459Y585D01*
X386Y584D02*
X459Y584D01*
X386Y583D02*
X459Y583D01*
X386Y582D02*
X459Y582D01*
X386Y581D02*
X459Y581D01*
X386Y580D02*
X459Y580D01*
X386Y579D02*
X459Y579D01*
X386Y578D02*
X459Y578D01*
X386Y577D02*
X459Y577D01*
X386Y576D02*
X459Y576D01*
X386Y575D02*
X459Y575D01*
X386Y574D02*
X459Y574D01*
X386Y573D02*
X416Y573D01*
X429Y573D02*
X459Y573D01*
X386Y572D02*
X414Y572D01*
X432Y572D02*
X459Y572D01*
X386Y571D02*
X412Y571D01*
X434Y571D02*
X459Y571D01*
X386Y570D02*
X411Y570D01*
X435Y570D02*
X459Y570D01*
X386Y569D02*
X409Y569D01*
X436Y569D02*
X459Y569D01*
X386Y568D02*
X408Y568D01*
X437Y568D02*
X459Y568D01*
X386Y567D02*
X407Y567D01*
X438Y567D02*
X459Y567D01*
X386Y566D02*
X407Y566D01*
X439Y566D02*
X459Y566D01*
X386Y565D02*
X406Y565D01*
X440Y565D02*
X459Y565D01*
X386Y564D02*
X405Y564D01*
X440Y564D02*
X459Y564D01*
X386Y563D02*
X405Y563D01*
X441Y563D02*
X459Y563D01*
X386Y562D02*
X404Y562D01*
X441Y562D02*
X459Y562D01*
X386Y561D02*
X404Y561D01*
X442Y561D02*
X459Y561D01*
X386Y560D02*
X404Y560D01*
X442Y560D02*
X459Y560D01*
X386Y559D02*
X403Y559D01*
X442Y559D02*
X459Y559D01*
X386Y558D02*
X403Y558D01*
X443Y558D02*
X459Y558D01*
X386Y557D02*
X403Y557D01*
X443Y557D02*
X459Y557D01*
X386Y556D02*
X403Y556D01*
X443Y556D02*
X459Y556D01*
X386Y555D02*
X403Y555D01*
X443Y555D02*
X459Y555D01*
X386Y554D02*
X403Y554D01*
X443Y554D02*
X459Y554D01*
X386Y553D02*
X403Y553D01*
X443Y553D02*
X459Y553D01*
X386Y552D02*
X403Y552D01*
X443Y552D02*
X459Y552D01*
X386Y551D02*
X403Y551D01*
X443Y551D02*
X459Y551D01*
X386Y550D02*
X403Y550D01*
X442Y550D02*
X459Y550D01*
X386Y549D02*
X403Y549D01*
X442Y549D02*
X459Y549D01*
X386Y548D02*
X404Y548D01*
X442Y548D02*
X459Y548D01*
X386Y547D02*
X404Y547D01*
X442Y547D02*
X459Y547D01*
X386Y546D02*
X405Y546D01*
X441Y546D02*
X459Y546D01*
X386Y545D02*
X405Y545D01*
X441Y545D02*
X459Y545D01*
X386Y544D02*
X406Y544D01*
X440Y544D02*
X459Y544D01*
X386Y543D02*
X406Y543D01*
X439Y543D02*
X459Y543D01*
X386Y542D02*
X407Y542D01*
X439Y542D02*
X459Y542D01*
X386Y541D02*
X408Y541D01*
X438Y541D02*
X459Y541D01*
X386Y540D02*
X409Y540D01*
X437Y540D02*
X459Y540D01*
X386Y539D02*
X410Y539D01*
X435Y539D02*
X459Y539D01*
X386Y538D02*
X411Y538D01*
X434Y538D02*
X459Y538D01*
X386Y537D02*
X413Y537D01*
X432Y537D02*
X459Y537D01*
X386Y536D02*
X415Y536D01*
X430Y536D02*
X459Y536D01*
X386Y535D02*
X419Y535D01*
X426Y535D02*
X459Y535D01*
X386Y534D02*
X459Y534D01*
X386Y533D02*
X459Y533D01*
X386Y532D02*
X459Y532D01*
X386Y531D02*
X459Y531D01*
X386Y530D02*
X459Y530D01*
X386Y529D02*
X459Y529D01*
X386Y528D02*
X459Y528D01*
X386Y527D02*
X459Y527D01*
X386Y526D02*
X459Y526D01*
X386Y525D02*
X459Y525D01*
X386Y524D02*
X459Y524D01*
X386Y523D02*
X459Y523D01*
X386Y522D02*
X459Y522D01*
X386Y521D02*
X459Y521D01*
X386Y520D02*
X459Y520D01*
X386Y519D02*
X459Y519D01*
X386Y518D02*
X459Y518D01*
D02*
G04 End of Copper1*
M02*