0
SECTION
2
HEADER
9
$INSUNITS
70
1
9
$ACADVER
1
AC1014
9
$HANDSEED
5
FFFF
0
ENDSEC
0
SECTION
2
TABLES
0
TABLE
2
VPORT
5
8
100
AcDbSymbolTable
0
ENDTAB
0
TABLE
2
LTYPE
5
5
100
AcDbSymbolTable
0
LTYPE
5
14
100
AcDbSymbolTableRecord
100
AcDbLinetypeTableRecord
2
BYBLOCK
70
0
0
LTYPE
5
15
100
AcDbSymbolTableRecord
100
AcDbLinetypeTableRecord
2
BYLAYER
70
0
0
ENDTAB
0
TABLE
2
LAYER
5
2
100
AcDbSymbolTable
70
2
0
LAYER
5
50
100
AcDbSymbolTableRecord
100
AcDbLayerTableRecord
2
0
70
0
6
CONTINUOUS
0
ENDTAB
0
TABLE
2
STYLE
5
3
100
AcDbSymbolTable
70
1
0
STYLE
5
11
100
AcDbSymbolTableRecord
100
AcDbTextStyleTableRecord
2
STANDARD
70
0
0
ENDTAB
0
TABLE
2
VIEW
5
6
100
AcDbSymbolTable
70
0
0
ENDTAB
0
TABLE
2
UCS
5
7
100
AcDbSymbolTable
70
0
0
ENDTAB
0
TABLE
2
APPID
5
9
100
AcDbSymbolTable
70
2
0
APPID
5
12
100
AcDbSymbolTableRecord
100
AcDbRegAppTableRecord
2
ACAD
70
0
0
ENDTAB
0
TABLE
2
DIMSTYLE
5
A
100
AcDbSymbolTable
70
1
0
ENDTAB
0
TABLE
2
BLOCK_RECORD
5
1
100
AcDbSymbolTable
70
1
0
BLOCK_RECORD
5
1F
100
AcDbSymbolTableRecord
100
AcDbBlockTableRecord
2
*MODEL_SPACE
0
BLOCK_RECORD
5
1B
100
AcDbSymbolTableRecord
100
AcDbBlockTableRecord
2
*PAPER_SPACE
0
ENDTAB
0
ENDSEC
0
SECTION
2
BLOCKS
0
BLOCK
5
20
100
AcDbEntity
100
AcDbBlockBegin
2
*MODEL_SPACE
0
ENDBLK
5
21
100
AcDbEntity
100
AcDbBlockEnd
0
BLOCK
5
1C
100
AcDbEntity
100
AcDbBlockBegin
2
*PAPER_SPACE
0
ENDBLK
5
1D
100
AcDbEntity
100
AcDbBlockEnd
0
ENDSEC
0
SECTION
2
ENTITIES
0
LINE
5
100
100
AcDbEntity
8
0
100
AcDbLine
10
1.0000000159571489
20
-0.50641079019867741
30
0
11
1.3850893254643961
21
-0.50641079019867719
31
0
0
LINE
5
101
100
AcDbEntity
8
0
100
AcDbLine
10
1.3995031082025713
20
-2.5000000797857447
30
0
11
1.0000000159571489
21
-2.5000000797857447
31
0
0
LWPOLYLINE
5
102
100
AcDbEntity
8
0
100
AcDbPolyline
90
4
70
1
43
0.0
10
0.95000003191429805
20
-1.3000000414885873
10
0.95000003191429805
20
-0.70000002234000858
42
-0.99999999999999989
10
1.0500000319142979
20
-0.70000002234000858
10
1.0500000319142979
20
-1.3000000414885873
42
-0.99999999999999989
0
LWPOLYLINE
5
103
100
AcDbEntity
8
0
100
AcDbPolyline
90
4
70
1
43
0.0
10
1.0500000319142979
20
-1.7000000542543063
10
1.0500000319142979
20
-2.3000000734028854
42
-0.99999999999999989
10
0.95000003191429805
20
-2.3000000734028854
10
0.95000003191429805
20
-1.7000000542543063
42
-0.99999999999999989
0
CIRCLE
5
104
100
AcDbEntity
8
0
100
AcDbCircle
10
1.5000000478714468
20
-1.5000000478714468
30
0
40
0.12499999999999994
0
LINE
5
105
100
AcDbEntity
8
0
100
AcDbLine
10
0.50000001595714894
20
-1.9643544383966143
30
0
11
0.50000001595714894
21
-2.5000000797857447
31
0
0
LINE
5
106
100
AcDbEntity
8
0
100
AcDbLine
10
0.50000001595714894
20
-0.49999999999999994
30
0
11
0.50000001595714894
21
-1.0356456573462791
31
0
0
ARC
5
107
100
AcDbEntity
8
0
100
AcDbCircle
10
0.50000001595714894
20
-1.5000000478714468
30
0
40
0.37499999999999983
100
AcDbArc
50
102.15319746900789
51
257.84680253099214
0
ARC
5
108
100
AcDbEntity
8
0
100
AcDbCircle
10
0.4000000159571494
20
-1.9643544383966143
30
0
40
0.099999999999999561
100
AcDbArc
50
0
51
77.846802530992335
0
ARC
5
109
100
AcDbEntity
8
0
100
AcDbCircle
10
0.40000001595714912
20
-1.0356456573462793
30
0
40
0.099999999999999881
100
AcDbArc
50
-77.84680253099225
51
0
0
CIRCLE
5
110
100
AcDbEntity
8
0
100
AcDbCircle
10
0.50000001595714894
20
0
30
0
40
0.1565
0
CIRCLE
5
111
100
AcDbEntity
8
0
100
AcDbCircle
10
0.50000001595714894
20
-3.0000000957428936
30
0
40
0.1565
0
CIRCLE
5
112
100
AcDbEntity
8
0
100
AcDbCircle
10
0.50000001595714894
20
-1.5000000478714468
30
0
40
0.15650000000000006
0
LINE
5
113
100
AcDbEntity
8
0
100
AcDbLine
10
1.0000000159571489
20
-0.50641079019867741
30
0
11
0.97500001595714891
21
-0.50641079019867741
31
0
0
LINE
5
114
100
AcDbEntity
8
0
100
AcDbLine
10
1.0000000159571489
20
-2.5000000797857447
30
0
11
0.9750000159571488
21
-2.5000000797857447
31
0
0
LINE
5
115
100
AcDbEntity
8
0
100
AcDbLine
10
0.50000001595714894
20
-0.49999999999999994
30
0
11
0.50000001595714894
21
-0.46435439052516769
31
0
0
LINE
5
116
100
AcDbEntity
8
0
100
AcDbLine
10
0.50000001595714894
20
-2.5000000797857447
30
0
11
0.50000001595714894
21
-2.5356457052177261
31
0
0
LINE
5
117
100
AcDbEntity
8
0
100
AcDbLine
10
0.87500001595714894
20
0
30
0
11
0.87500001595714894
21
-0.40641079019867732
31
0
0
LINE
5
118
100
AcDbEntity
8
0
100
AcDbLine
10
0.8750000159571486
20
-2.6000000797857448
30
0
11
0.87500001595714882
21
-3.0000000957428936
31
0
0
ARC
5
119
100
AcDbEntity
8
0
100
AcDbCircle
10
0.50000001595714894
20
0
30
0
40
0.375
100
AcDbArc
50
0
51
257.84680253099214
0
ARC
5
120
100
AcDbEntity
8
0
100
AcDbCircle
10
0.40000001595714907
20
-0.46435439052516769
30
0
40
0.099999999999999908
100
AcDbArc
50
0
51
77.846802530992179
0
ARC
5
121
100
AcDbEntity
8
0
100
AcDbCircle
10
0.50000001595714894
20
-3.0000000957428936
30
0
40
0.37499999999999933
100
AcDbArc
50
-257.84680253099214
51
0
0
ARC
5
122
100
AcDbEntity
8
0
100
AcDbCircle
10
0.40000001595714879
20
-2.5356457052177266
30
0
40
0.10000000000000014
100
AcDbArc
50
-77.846802530991994
51
0
0
ARC
5
123
100
AcDbEntity
8
0
100
AcDbCircle
10
0.9750000159571488
20
-2.6000000797857448
30
0
40
0.10000000000000017
100
AcDbArc
50
90
51
180
0
ARC
5
124
100
AcDbEntity
8
0
100
AcDbCircle
10
0.9750000159571488
20
-0.4064107901986776
30
0
40
0.099999999999999811
100
AcDbArc
50
180
51
270.00000000000006
0
CIRCLE
5
125
100
AcDbEntity
8
0
100
AcDbCircle
10
1.5000000478714468
20
-1.0000000319142979
30
0
40
0.12499999999999994
0
CIRCLE
5
126
100
AcDbEntity
8
0
100
AcDbCircle
10
1.5000000478714468
20
-2.0000000638285957
30
0
40
0.12499999999999994
0
LINE
5
127
100
AcDbEntity
8
0
100
AcDbLine
10
1.8749999518918645
20
-0.99973173231011159
30
0
11
1.875000047871445
21
-2.0000000278459069
31
0
0
LINE
5
128
100
AcDbEntity
8
0
100
AcDbLine
10
1.4995031082025712
20
-2.3749997345630716
30
0
11
1.4995031082025712
21
-2.400000079785745
31
0
0
LINE
5
129
100
AcDbEntity
8
0
100
AcDbLine
10
1.4850893254643962
20
-0.62529658869913352
30
0
11
1.4850893254643962
21
-0.60641079019867727
31
0
0
ARC
5
130
100
AcDbEntity
8
0
100
AcDbCircle
10
1.5000000478714468
20
-2.0000000638285957
30
0
40
0.37499999999999972
100
AcDbArc
50
-90.075926810753529
51
5.4668187275950014e-06
0
ARC
5
131
100
AcDbEntity
8
0
100
AcDbCircle
10
1.5000000478714468
20
-1.0000000319142979
30
0
40
0.375
100
AcDbArc
50
-0.040982167906277976
51
92.278791303913835
0
ARC
5
132
100
AcDbEntity
8
0
100
AcDbCircle
10
1.3995031082025713
20
-2.400000079785745
30
0
40
0.099999999999999811
100
AcDbArc
50
-90
51
0
0
ARC
5
133
100
AcDbEntity
8
0
100
AcDbCircle
10
1.3850893254643959
20
-0.60641079019867761
30
0
40
0.10000000000000034
100
AcDbArc
50
0
51
89.999999999999872
0
LINE
5
134
100
AcDbEntity
8
0
100
AcDbLine
10
0.50000001595714894
20
-1.9643544383966143
30
0
11
0.50000001595714894
21
-2.5356457052177261
31
0
0
LINE
5
135
100
AcDbEntity
8
0
100
AcDbLine
10
0.50000001595714894
20
-0.46435439052516769
30
0
11
0.50000001595714894
21
-1.0356456573462791
31
0
0
ENDSEC
0
SECTION
2
OBJECTS
0
DICTIONARY
5
C
100
AcDbDictionary
3
ACAD_GROUP
350
D
3
ACAD_MLINESTYLE
350
17
0
DICTIONARY
5
D
100
AcDbDictionary
0
DICTIONARY
5
1A
330
C
100
AcDbDictionary
0
DICTIONARY
5
17
100
AcDbDictionary
0
ENDSEC
0
EOF
