0
SECTION
2
HEADER
9
$INSUNITS
70
1
9
$ACADVER
1
AC1014
9
$HANDSEED
5
FFFF
0
ENDSEC
0
SECTION
2
TABLES
0
TABLE
2
VPORT
5
8
100
AcDbSymbolTable
0
ENDTAB
0
TABLE
2
LTYPE
5
5
100
AcDbSymbolTable
0
LTYPE
5
14
100
AcDbSymbolTableRecord
100
AcDbLinetypeTableRecord
2
BYBLOCK
70
0
0
LTYPE
5
15
100
AcDbSymbolTableRecord
100
AcDbLinetypeTableRecord
2
BYLAYER
70
0
0
ENDTAB
0
TABLE
2
LAYER
5
2
100
AcDbSymbolTable
70
2
0
LAYER
5
50
100
AcDbSymbolTableRecord
100
AcDbLayerTableRecord
2
0
70
0
6
CONTINUOUS
0
ENDTAB
0
TABLE
2
STYLE
5
3
100
AcDbSymbolTable
70
1
0
STYLE
5
11
100
AcDbSymbolTableRecord
100
AcDbTextStyleTableRecord
2
STANDARD
70
0
0
ENDTAB
0
TABLE
2
VIEW
5
6
100
AcDbSymbolTable
70
0
0
ENDTAB
0
TABLE
2
UCS
5
7
100
AcDbSymbolTable
70
0
0
ENDTAB
0
TABLE
2
APPID
5
9
100
AcDbSymbolTable
70
2
0
APPID
5
12
100
AcDbSymbolTableRecord
100
AcDbRegAppTableRecord
2
ACAD
70
0
0
ENDTAB
0
TABLE
2
DIMSTYLE
5
A
100
AcDbSymbolTable
70
1
0
ENDTAB
0
TABLE
2
BLOCK_RECORD
5
1
100
AcDbSymbolTable
70
1
0
BLOCK_RECORD
5
1F
100
AcDbSymbolTableRecord
100
AcDbBlockTableRecord
2
*MODEL_SPACE
0
BLOCK_RECORD
5
1B
100
AcDbSymbolTableRecord
100
AcDbBlockTableRecord
2
*PAPER_SPACE
0
ENDTAB
0
ENDSEC
0
SECTION
2
BLOCKS
0
BLOCK
5
20
100
AcDbEntity
100
AcDbBlockBegin
2
*MODEL_SPACE
0
ENDBLK
5
21
100
AcDbEntity
100
AcDbBlockEnd
0
BLOCK
5
1C
100
AcDbEntity
100
AcDbBlockBegin
2
*PAPER_SPACE
0
ENDBLK
5
1D
100
AcDbEntity
100
AcDbBlockEnd
0
ENDSEC
0
SECTION
2
ENTITIES
0
LINE
5
100
100
AcDbEntity
8
0
100
AcDbLine
10
-0.91580824072079525
20
-5.0000001116178554
30
0
11
3.9892873956107644e-08
21
-5.0000000239357236
31
0
0
LINE
5
101
100
AcDbEntity
8
0
100
AcDbLine
10
3.9892873956107644e-08
20
-5.0000000239357236
30
0
11
0.91580837549839811
21
-5.0000000239357236
31
0
0
LINE
5
102
100
AcDbEntity
8
0
100
AcDbLine
10
0.036029193140970167
20
3.0000000877643189
30
0
11
-0.036029112762238628
21
3.0000000877643189
31
0
0
ARC
5
103
100
AcDbEntity
8
0
100
AcDbCircle
10
-1.5000000478714468
20
-0.99999996808570268
30
0
40
0.49999995212855369
100
AcDbArc
50
90
51
270
0
ARC
5
104
100
AcDbEntity
8
0
100
AcDbCircle
10
1.5003333695700476
20
-0.99999996808570268
30
0
40
0.49999995212855369
100
AcDbArc
50
-90
51
90
0
ARC
5
105
100
AcDbEntity
8
0
100
AcDbCircle
10
-0.91580828859224128
20
-4.5000001116178581
30
0
40
0.49999999999999928
100
AcDbArc
50
171.11934084947973
51
270.00000548566362
0
ARC
5
106
100
AcDbEntity
8
0
100
AcDbCircle
10
0.91580837549839877
20
-4.5000000239357236
30
0
40
0.49999999999999978
100
AcDbArc
50
-90.000000000000099
51
8.8806593074028726
0
ARC
5
107
100
AcDbEntity
8
0
100
AcDbCircle
10
0.036029193140970167
20
2.7500000877643189
30
0
40
0.25000000000000022
100
AcDbArc
50
8.8806593074032421
51
90
0
ARC
5
108
100
AcDbEntity
8
0
100
AcDbCircle
10
-0.036029112762238802
20
2.7500000877643194
30
0
40
0.24999999999999989
100
AcDbArc
50
89.999999999999972
51
171.11934084947973
0
CIRCLE
5
109
100
AcDbEntity
8
0
100
AcDbCircle
10
-1.5000000478714468
20
-0.99999996808570268
30
0
40
0.125
0
CIRCLE
5
110
100
AcDbEntity
8
0
100
AcDbCircle
10
1.5003333695700476
20
-0.99999996808570268
30
0
40
0.12499999999999999
0
LINE
5
111
100
AcDbEntity
8
0
100
AcDbLine
10
0.2509125038891396
20
1.5475773398779384
30
0
11
0.35957429523602125
21
1.5468852285140686
31
0
0
LINE
5
112
100
AcDbEntity
8
0
100
AcDbLine
10
0.2509125038891396
20
1.4475793682846072
30
0
11
0.40618567187627025
21
1.4485683665583877
31
0
0
LINE
5
113
100
AcDbEntity
8
0
100
AcDbLine
10
-0.25920746566039132
20
1.5468566369251242
30
0
11
-0.36021529014994091
21
1.5468566369251242
31
0
0
LINE
5
114
100
AcDbEntity
8
0
100
AcDbLine
10
-0.25083380493510304
20
1.4475784369299156
30
0
11
-0.40675109124751097
21
1.447862272945392
31
0
0
LINE
5
115
100
AcDbEntity
8
0
100
AcDbLine
10
-0.2994917405671248
20
0.55060266517507306
30
0
11
-0.5160004574034448
21
0.55099680345798052
31
0
0
LINE
5
116
100
AcDbEntity
8
0
100
AcDbLine
10
0.30108661065964359
20
0.55057273628322401
30
0
11
0.51588473595774842
21
0.55057273628322412
31
0
0
LINE
5
117
100
AcDbEntity
8
0
100
AcDbLine
10
0.56279922517263592
20
0.450523857676629
30
0
11
0.3006722263142983
21
0.45060735006740155
31
0
0
LINE
5
118
100
AcDbEntity
8
0
100
AcDbLine
10
-0.56263208995477521
20
0.45083552072898414
30
0
11
-0.2988507260384477
21
0.45060736623397335
31
0
0
LINE
5
119
100
AcDbEntity
8
0
100
AcDbLine
10
0.75026108078251186
20
-2.5526765984410864
30
0
11
1.032058435054122
21
-2.5527567798460162
31
0
0
LINE
5
120
100
AcDbEntity
8
0
100
AcDbLine
10
0.75017520835598483
20
-2.4526767006637202
30
0
11
0.98526915874277243
21
-2.4522060453439849
31
0
0
LINE
5
121
100
AcDbEntity
8
0
100
AcDbLine
10
0.89766902649225111
20
-3.5505582319760323
30
0
11
1.1879364618127894
21
-3.5505582319760323
31
0
0
LINE
5
122
100
AcDbEntity
8
0
100
AcDbLine
10
0.89782380306054221
20
-3.4505584715344666
30
0
11
1.1410614984023058
21
-3.4505584715344666
31
0
0
LINE
5
123
100
AcDbEntity
8
0
100
AcDbLine
10
-0.90462814584102635
20
-3.4505584715344666
30
0
11
-1.1408661859732125
21
-3.4512897573012906
31
0
0
LINE
5
124
100
AcDbEntity
8
0
100
AcDbLine
10
-0.90462814584102635
20
-3.550557992417597
30
0
11
-1.1874898836772125
21
-3.5496823808406339
31
0
0
LINE
5
125
100
AcDbEntity
8
0
100
AcDbLine
10
-1.2866006401889392
20
-3.634244213696403
30
0
11
-1.4098143054677912
21
-4.4228116714810533
31
0
0
ARC
5
126
100
AcDbEntity
8
0
100
AcDbCircle
10
-0.90447336927271804
20
-3.500558231976032
30
0
40
0.050000000000000086
100
AcDbArc
50
-90.177361165887575
51
90.177361165887532
0
LINE
5
127
100
AcDbEntity
8
0
100
AcDbLine
10
1.4098143921625983
20
-4.4228115824462719
30
0
11
1.2867376651456295
21
-3.6351205436781422
31
0
0
ARC
5
128
100
AcDbEntity
8
0
100
AcDbCircle
10
0.89766902649225111
20
-3.500558231976032
30
0
40
0.050000000000000031
100
AcDbArc
50
89.822638834132192
51
270
0
LINE
5
129
100
AcDbEntity
8
0
100
AcDbLine
10
1.2398627017351453
20
-3.3351207832365763
30
0
11
1.1308311848190098
21
-2.637319087500098
31
0
0
ARC
5
130
100
AcDbEntity
8
0
100
AcDbCircle
10
0.75027530756648775
20
-2.5026766004651004
30
0
40
0.050000000000000086
100
AcDbArc
50
90.114705322510304
51
269.98369730622278
0
LINE
5
131
100
AcDbEntity
8
0
100
AcDbLine
10
-0.748818865461646
20
-2.4523870636613978
30
0
11
-0.98509711836658442
21
-2.4523870636613974
31
0
0
LINE
5
132
100
AcDbEntity
8
0
100
AcDbLine
10
-0.74998963899315119
20
-2.54959961948272
30
0
11
-1.0315365802136665
21
-2.54959961948272
31
0
0
LINE
5
133
100
AcDbEntity
8
0
100
AcDbLine
10
-1.1303377835887765
20
-2.6341619314553588
30
0
11
-1.2399769424849394
21
-3.3358525483908004
31
0
0
ARC
5
134
100
AcDbEntity
8
0
100
AcDbCircle
10
-0.74881886546164589
20
-2.5010003916421368
30
0
40
0.048613327980739682
100
AcDbArc
50
-91.380009786274158
51
90.000000000000142
0
LINE
5
135
100
AcDbEntity
8
0
100
AcDbLine
10
-0.99821781621804184
20
-1.7885941402826586
30
0
11
-1.0838983217416942
21
-2.3369493756340365
31
0
0
LINE
5
136
100
AcDbEntity
8
0
100
AcDbLine
10
1.0838701636546062
20
-2.3367685574433343
30
0
11
0.99821790954131462
21
-1.7885941409589823
31
0
0
LINE
5
137
100
AcDbEntity
8
0
100
AcDbLine
10
-0.66151978708603265
20
0.36627324616220142
30
0
11
-0.76384283117786933
21
-0.28859423602555168
31
0
0
ARC
5
138
100
AcDbEntity
8
0
100
AcDbCircle
10
-0.29880747916037426
20
0.5006073475310453
30
0
40
0.050000000000000031
100
AcDbArc
50
-90.049557277993614
51
90.78413029114364
0
LINE
5
139
100
AcDbEntity
8
0
100
AcDbLine
10
0.7638429202936905
20
-0.28859423670187517
30
0
11
0.66156857662188473
21
0.36596155104723199
31
0
0
ARC
5
140
100
AcDbEntity
8
0
100
AcDbCircle
10
0.30068815225609391
20
0.5006073475310453
30
0
40
0.050000000000000017
100
AcDbArc
50
87.868004360074295
51
269.9817502146982
0
LINE
5
141
100
AcDbEntity
8
0
100
AcDbLine
10
0.61468593929058835
20
0.66601042458111448
30
0
11
0.50562380316369115
21
1.3640080832629469
31
0
0
LINE
5
142
100
AcDbEntity
8
0
100
AcDbLine
10
0.45901242652344226
20
1.66232088840529
30
0
11
0.28303220147306996
21
2.7885943085090465
31
0
0
ARC
5
143
100
AcDbEntity
8
0
100
AcDbCircle
10
0.25059403991184909
20
1.4975783540812728
30
0
40
0.050000000000000051
100
AcDbArc
50
89.635064696025381
51
270.36493530397462
0
ARC
5
144
100
AcDbEntity
8
0
100
AcDbCircle
10
-0.25074278374307202
20
1.4975783540812728
30
0
40
0.049999999999999989
100
AcDbArc
50
-90.104302660601462
51
99.746752247722853
0
LINE
5
145
100
AcDbEntity
8
0
100
AcDbLine
10
-0.28303212120001403
20
2.7885943078327218
30
0
11
-0.45901649352505108
21
1.6622943249524851
31
0
0
LINE
5
146
100
AcDbEntity
8
0
100
AcDbLine
10
-0.50573433700668313
20
1.3633001266700384
30
0
11
-0.61461961839449297
21
0.66643432578805606
31
0
0
LINE
5
147
100
AcDbEntity
8
0
100
AcDbLine
10
-0.45022297632905217
20
-2.5495589880339393
30
0
11
0.44977698723869824
21
-2.549815070145506
31
0
0
ARC
5
148
100
AcDbEntity
8
0
100
AcDbCircle
10
0.44979121402267419
20
-2.49981507216952
30
0
40
0.04999999999999992
100
AcDbArc
50
-90.016302693777277
51
89.983697306222766
0
LINE
5
149
100
AcDbEntity
8
0
100
AcDbLine
10
0.44980544080665008
20
-2.4498150741935336
30
0
11
-0.45019452276110034
21
-2.4495589920819669
31
0
0
ARC
5
150
100
AcDbEntity
8
0
100
AcDbCircle
10
-0.45020874954507623
20
-2.4995589900579529
30
0
40
0.04999999999999992
100
AcDbArc
50
89.983697306222766
51
269.98369730622272
0
LWPOLYLINE
5
151
100
AcDbEntity
8
0
100
AcDbPolyline
90
4
70
1
43
0.0
10
0.6000000191485787
20
-3.5505582319760323
10
-0.59632139543180485
20
-3.5505582319760323
42
-0.99999999999999989
10
-0.59632139543180485
20
-3.4505582319760317
10
0.6000000191485787
20
-3.4505582319760317
42
-0.99999999999999989
0
LINE
5
152
100
AcDbEntity
8
0
100
AcDbLine
10
1.5003333695700476
20
-0.50000001595714894
30
0
11
1.0108459286257903
21
-0.50000001595714916
31
0
0
LINE
5
153
100
AcDbEntity
8
0
100
AcDbLine
10
-1.0108458396156446
20
-0.50000001595714894
30
0
11
-1.5000000478714468
21
-0.50000001595714894
31
0
0
LINE
5
154
100
AcDbEntity
8
0
100
AcDbLine
10
-1.5000000478714468
20
-1.4999999202142564
30
0
11
-1.2452208246558172
21
-1.4999999202142558
31
0
0
LINE
5
155
100
AcDbEntity
8
0
100
AcDbLine
10
1.2452209178734144
20
-1.4999999202142564
30
0
11
1.5003333695700476
21
-1.4999999202142564
31
0
0
ARC
5
156
100
AcDbEntity
8
0
100
AcDbCircle
10
-1.245220824655817
20
-1.749999920214256
30
0
40
0.24999999999999989
100
AcDbArc
50
-8.8806591505202768
51
90.000000000000057
0
ARC
5
157
100
AcDbEntity
8
0
100
AcDbCircle
10
1.2452209178734142
20
-1.7499999202142562
30
0
40
0.24999999999999989
100
AcDbArc
50
89.999999999999943
51
188.88065930740288
0
ARC
5
158
100
AcDbEntity
8
0
100
AcDbCircle
10
1.0108459286257896
20
-0.25000001595714982
30
0
40
0.24999999999999928
100
AcDbArc
50
188.88065930740279
51
270.00000000000017
0
ARC
5
159
100
AcDbEntity
8
0
100
AcDbCircle
10
-1.0108458396156443
20
-0.25000001595714927
30
0
40
0.24999999999999967
100
AcDbArc
50
269.99999999999994
51
351.11934084947973
0
ARC
5
160
100
AcDbEntity
8
0
100
AcDbCircle
10
-1.1411757391098305
20
-3.3512902364181616
30
0
40
0.099999999999998784
100
AcDbArc
50
171.11934084947953
51
270.17736116588827
0
ARC
5
161
100
AcDbEntity
8
0
100
AcDbCircle
10
-0.98509711836658442
20
-2.3523870636613973
30
0
40
0.09999999999999977
100
AcDbArc
50
171.11934084947984
51
270
0
ARC
5
162
100
AcDbEntity
8
0
100
AcDbCircle
10
-1.0315365802136671
20
-2.6495996194827192
30
0
40
0.099999999999999117
100
AcDbArc
50
89.999999999999616
51
171.11934084948007
0
ARC
5
163
100
AcDbEntity
8
0
100
AcDbCircle
10
-1.1877994368138303
20
-3.6496819017237629
30
0
40
0.09999999999999877
100
AcDbArc
50
89.822638834111814
51
171.11934084948027
0
ARC
5
164
100
AcDbEntity
8
0
100
AcDbCircle
10
0.98506896032176638
20
-2.3522062457412245
30
0
40
0.099999999999999811
100
AcDbArc
50
-89.885294677489611
51
8.8806593074027482
0
ARC
5
165
100
AcDbEntity
8
0
100
AcDbCircle
10
1.0320299814861698
20
-2.6527567757979886
30
0
40
0.10000000000000026
100
AcDbArc
50
8.8806593074029951
51
89.98369730622251
0
ARC
5
166
100
AcDbEntity
8
0
100
AcDbCircle
10
1.1410614984023058
20
-3.350558471534467
30
0
40
0.099999999999999811
100
AcDbArc
50
-90
51
8.8806593074029951
0
ARC
5
167
100
AcDbEntity
8
0
100
AcDbCircle
10
1.1879364618127903
20
-3.6505582319760315
30
0
40
0.099999999999999006
100
AcDbArc
50
8.8806593074023361
51
90.000000000000512
0
ARC
5
168
100
AcDbEntity
8
0
100
AcDbCircle
10
-0.36021529014994114
20
1.6468566369251241
30
0
40
0.099999999999999811
100
AcDbArc
50
171.11934084947973
51
270.00000000000011
0
ARC
5
169
100
AcDbEntity
8
0
100
AcDbCircle
10
0.36021122319060256
20
1.6468832001073996
30
0
40
0.099999999999999756
100
AcDbArc
50
-90.364935303974804
51
8.8806593074029134
0
ARC
5
170
100
AcDbEntity
8
0
100
AcDbCircle
10
-0.40693313363157302
20
1.3478624386426774
30
0
40
0.099999999999999978
100
AcDbArc
50
89.895697339398552
51
171.11934084947973
0
ARC
5
171
100
AcDbEntity
8
0
100
AcDbCircle
10
0.40682259983085128
20
1.3485703949650565
30
0
40
0.09999999999999995
100
AcDbArc
50
8.8806593074028726
51
90.364935303974619
0
ARC
5
172
100
AcDbEntity
8
0
100
AcDbCircle
10
-0.51581841501938275
20
0.65099663776069516
30
0
40
0.099999999999999992
100
AcDbArc
50
171.11934084947984
51
269.89569733939857
0
ARC
5
173
100
AcDbEntity
8
0
100
AcDbCircle
10
0.51588473595774842
20
0.6505727362832241
30
0
40
0.099999999999999992
100
AcDbArc
50
-90
51
8.8806593074028726
0
ARC
5
174
100
AcDbEntity
8
0
100
AcDbCircle
10
-0.56271858371092265
20
0.35083555813484052
30
0
40
0.099999999999999881
100
AcDbArc
50
89.950442722006073
51
171.11934084947976
0
ARC
5
175
100
AcDbEntity
8
0
100
AcDbCircle
10
0.56276737328904469
20
0.35052386274934155
30
0
40
0.10000000000000003
100
AcDbArc
50
8.8806593074029134
51
89.981750214698224
0
ARC
5
176
100
AcDbEntity
8
0
100
AcDbCircle
10
-0.50000001595714894
20
-1.5000000478714468
30
0
40
0.049999999999999996
100
AcDbArc
50
141.34019174590998
51
321.34019174590986
0
ARC
5
177
100
AcDbEntity
8
0
100
AcDbCircle
10
0.30000000957428935
20
-0.50000001595714894
30
0
40
0.049999999999999996
100
AcDbArc
50
-38.659808254090073
51
141.34019174590992
0
ARC
5
178
100
AcDbEntity
8
0
100
AcDbCircle
10
0.50000001595714894
20
-1.5000000478714468
30
0
40
0.049999999999999996
100
AcDbArc
50
-141.34019174590986
51
38.659808254090045
0
ARC
5
179
100
AcDbEntity
8
0
100
AcDbCircle
10
-0.30000000957428935
20
-0.50000001595714894
30
0
40
0.049999999999999996
100
AcDbArc
50
38.659808254090073
51
218.65980825409008
0
LINE
5
180
100
AcDbEntity
8
0
100
AcDbLine
10
0.26095656910213788
20
-0.46876526357942777
30
0
11
8.7419135797256413e-17
21
-0.79496097495710016
31
0
0
LINE
5
181
100
AcDbEntity
8
0
100
AcDbLine
10
-0.064031242374328473
20
-0.87500002792501064
30
0
11
-0.53904345642930052
21
-1.4687652954937256
31
0
0
LINE
5
182
100
AcDbEntity
8
0
100
AcDbLine
10
0.53904345642930052
20
-1.4687652954937256
30
0
11
0.064031242374328654
21
-0.8750000279250103
31
0
0
LINE
5
183
100
AcDbEntity
8
0
100
AcDbLine
10
8.7419135797256413e-17
20
-0.79496097495710016
30
0
11
-0.26095656910213788
21
-0.46876526357942777
31
0
0
LINE
5
184
100
AcDbEntity
8
0
100
AcDbLine
10
-0.46095657548499747
20
-1.531234800249168
30
0
11
0
21
-0.95503908089292133
31
0
0
LINE
5
185
100
AcDbEntity
8
0
100
AcDbLine
10
0.064031242374328654
20
-0.8750000279250103
30
0
11
0.33904345004644088
21
-0.53123476833487016
31
0
0
LINE
5
186
100
AcDbEntity
8
0
100
AcDbLine
10
-0.33904345004644088
20
-0.53123476833487016
30
0
11
-0.064031242374328473
21
-0.87500002792501064
31
0
0
LINE
5
187
100
AcDbEntity
8
0
100
AcDbLine
10
0
20
-0.95503908089292133
30
0
11
0.46095657548499747
21
-1.531234800249168
31
0
0
ENDSEC
0
SECTION
2
OBJECTS
0
DICTIONARY
5
C
100
AcDbDictionary
3
ACAD_GROUP
350
D
3
ACAD_MLINESTYLE
350
17
0
DICTIONARY
5
D
100
AcDbDictionary
0
DICTIONARY
5
1A
330
C
100
AcDbDictionary
0
DICTIONARY
5
17
100
AcDbDictionary
0
ENDSEC
0
EOF
