0
SECTION
2
HEADER
9
$INSUNITS
70
1
9
$ACADVER
1
AC1014
9
$HANDSEED
5
FFFF
0
ENDSEC
0
SECTION
2
TABLES
0
TABLE
2
VPORT
5
8
100
AcDbSymbolTable
0
ENDTAB
0
TABLE
2
LTYPE
5
5
100
AcDbSymbolTable
0
LTYPE
5
14
100
AcDbSymbolTableRecord
100
AcDbLinetypeTableRecord
2
BYBLOCK
70
0
0
LTYPE
5
15
100
AcDbSymbolTableRecord
100
AcDbLinetypeTableRecord
2
BYLAYER
70
0
0
ENDTAB
0
TABLE
2
LAYER
5
2
100
AcDbSymbolTable
70
2
0
LAYER
5
50
100
AcDbSymbolTableRecord
100
AcDbLayerTableRecord
2
0
70
0
6
CONTINUOUS
0
ENDTAB
0
TABLE
2
STYLE
5
3
100
AcDbSymbolTable
70
1
0
STYLE
5
11
100
AcDbSymbolTableRecord
100
AcDbTextStyleTableRecord
2
STANDARD
70
0
0
ENDTAB
0
TABLE
2
VIEW
5
6
100
AcDbSymbolTable
70
0
0
ENDTAB
0
TABLE
2
UCS
5
7
100
AcDbSymbolTable
70
0
0
ENDTAB
0
TABLE
2
APPID
5
9
100
AcDbSymbolTable
70
2
0
APPID
5
12
100
AcDbSymbolTableRecord
100
AcDbRegAppTableRecord
2
ACAD
70
0
0
ENDTAB
0
TABLE
2
DIMSTYLE
5
A
100
AcDbSymbolTable
70
1
0
ENDTAB
0
TABLE
2
BLOCK_RECORD
5
1
100
AcDbSymbolTable
70
1
0
BLOCK_RECORD
5
1F
100
AcDbSymbolTableRecord
100
AcDbBlockTableRecord
2
*MODEL_SPACE
0
BLOCK_RECORD
5
1B
100
AcDbSymbolTableRecord
100
AcDbBlockTableRecord
2
*PAPER_SPACE
0
ENDTAB
0
ENDSEC
0
SECTION
2
BLOCKS
0
BLOCK
5
20
100
AcDbEntity
100
AcDbBlockBegin
2
*MODEL_SPACE
0
ENDBLK
5
21
100
AcDbEntity
100
AcDbBlockEnd
0
BLOCK
5
1C
100
AcDbEntity
100
AcDbBlockBegin
2
*PAPER_SPACE
0
ENDBLK
5
1D
100
AcDbEntity
100
AcDbBlockEnd
0
ENDSEC
0
SECTION
2
ENTITIES
0
LWPOLYLINE
5
100
100
AcDbEntity
8
0
100
AcDbPolyline
90
16
70
1
43
0.0
10
0.24999938297157609
20
-1.9999999999999054
10
11.750000382971573
20
-1.9999999999999054
42
0.41421356237309503
10
12.000000382971574
20
-1.7499999999999034
10
12.000000127657179
20
-1.5000000478714468
10
12.500000414885873
20
-1.5000000478714468
42
0.41421241859813251
10
13.000000414885873
20
-1.0000020004182344
10
13.000000414885873
20
-0.99999806341036046
42
0.41421241859813196
10
12.500000414885873
20
-0.50000001595714894
10
12.000000382971574
20
-0.50000001595714894
10
-6.1702842328100843e-07
20
-0.50000001595714794
10
-0.50000003191429798
20
-0.50000001595714894
42
0.4142124185981087
10
-1.0000000319142979
20
-0.99999806341032282
10
-1.0000000319142979
20
-1.0000020004181969
42
0.41421241859815339
10
-0.50000003191429798
20
-1.5000000478714468
10
-6.1702842323729878e-07
20
-1.5000000478714468
10
-6.1702842310617014e-07
20
-1.7499999999999056
42
0.41421356237309503
0
CIRCLE
5
101
100
AcDbEntity
8
0
100
AcDbCircle
10
12.500000414885875
20
-1.0000000159571469
30
0
40
0.12500000000000008
0
CIRCLE
5
102
100
AcDbEntity
8
0
100
AcDbCircle
10
-0.50000003191429854
20
-1.0000000159571485
30
0
40
0.12499999999999999
0
LWPOLYLINE
5
103
100
AcDbEntity
8
0
100
AcDbPolyline
90
4
70
1
43
0.0
10
0.049999382971576779
20
-0.70000002234000858
10
0.049999382971576828
20
-1.2999999776599913
42
-0.99999999999999989
10
-0.050000617028423192
20
-1.2999999776599913
10
-0.050000617028423212
20
-0.70000002234000858
42
-0.99999999999999989
0
LINE
5
104
100
AcDbEntity
8
0
100
AcDbLine
10
12.050001149199128
20
-1.301030659945513
30
0
11
12.050000383255973
21
-0.69896927666199771
31
0
0
ARC
5
105
100
AcDbEntity
8
0
100
AcDbCircle
10
11.999999999999998
20
-0.69896934027254032
30
0
40
0.050000383256016058
100
AcDbArc
50
7.2891471936829897e-05
51
180.00007289147192
0
LINE
5
106
100
AcDbEntity
8
0
100
AcDbLine
10
11.949999616744023
20
-0.69896940388308282
30
0
11
11.950000382687177
21
-1.301030787166598
31
0
0
ARC
5
107
100
AcDbEntity
8
0
100
AcDbCircle
10
12.000000765943152
20
-1.3010307235560554
30
0
40
0.050000383256016058
100
AcDbArc
50
-179.99992710852808
51
7.2891471936829897e-05
0
LINE
5
108
100
AcDbEntity
8
0
100
AcDbLine
10
12.000000765943152
20
-1.3010307235560554
30
0
11
11.999999999999998
21
-0.69896934027254032
31
0
0
LWPOLYLINE
5
109
100
AcDbEntity
8
0
100
AcDbPolyline
90
4
70
1
43
0.0
10
0.95000003031858304
20
-1.5500000478714469
10
0.20000000638285959
20
-1.5500000478714469
42
-0.99999999999999989
10
0.20000000638285959
20
-1.450000047871447
10
0.95000003031858304
20
-1.450000047871447
42
-0.99999999999999989
0
LINE
5
110
100
AcDbEntity
8
0
100
AcDbLine
10
0.20000000638285959
20
-1.5000000478714468
30
0
11
0.95000003031858304
21
-1.5000000478714468
31
0
0
LWPOLYLINE
5
111
100
AcDbEntity
8
0
100
AcDbPolyline
90
4
70
1
43
0.0
10
1.9363636666822193
20
-1.5500000478714469
10
1.1863636427464959
20
-1.5500000478714469
42
-0.99999999999999989
10
1.1863636427464959
20
-1.450000047871447
10
1.9363636666822193
20
-1.450000047871447
42
-0.99999999999999989
0
LWPOLYLINE
5
112
100
AcDbEntity
8
0
100
AcDbPolyline
90
4
70
1
43
0.0
10
2.9227273030458556
20
-1.5500000478714469
10
2.1727272791101324
20
-1.5500000478714469
42
-0.99999999999999989
10
2.1727272791101324
20
-1.450000047871447
10
2.9227273030458556
20
-1.450000047871447
42
-0.99999999999999989
0
LWPOLYLINE
5
113
100
AcDbEntity
8
0
100
AcDbPolyline
90
4
70
1
43
0.0
10
3.9090909394094919
20
-1.5500000478714469
10
3.1590909154737687
20
-1.5500000478714469
42
-0.99999999999999989
10
3.1590909154737687
20
-1.450000047871447
10
3.9090909394094919
20
-1.450000047871447
42
-0.99999999999999989
0
LWPOLYLINE
5
114
100
AcDbEntity
8
0
100
AcDbPolyline
90
4
70
1
43
0.0
10
4.8954545757731287
20
-1.5500000478714469
10
4.1454545518374051
20
-1.5500000478714469
42
-0.99999999999999989
10
4.1454545518374051
20
-1.450000047871447
10
4.8954545757731287
20
-1.450000047871447
42
-0.99999999999999989
0
LWPOLYLINE
5
115
100
AcDbEntity
8
0
100
AcDbPolyline
90
4
70
1
43
0.0
10
5.881818212136765
20
-1.5500000478714469
10
5.1318181882010414
20
-1.5500000478714469
42
-0.99999999999999989
10
5.1318181882010414
20
-1.450000047871447
10
5.881818212136765
20
-1.450000047871447
42
-0.99999999999999989
0
LWPOLYLINE
5
116
100
AcDbEntity
8
0
100
AcDbPolyline
90
4
70
1
43
0.0
10
6.8681818485004005
20
-1.5500000478714469
10
6.1181818245646777
20
-1.5500000478714469
42
-0.99999999999999989
10
6.1181818245646777
20
-1.450000047871447
10
6.8681818485004005
20
-1.450000047871447
42
-0.99999999999999989
0
LWPOLYLINE
5
117
100
AcDbEntity
8
0
100
AcDbPolyline
90
4
70
1
43
0.0
10
7.8545454848640368
20
-1.5500000478714469
10
7.1045454609283141
20
-1.5500000478714469
42
-0.99999999999999989
10
7.1045454609283141
20
-1.450000047871447
10
7.8545454848640368
20
-1.450000047871447
42
-0.99999999999999989
0
LWPOLYLINE
5
118
100
AcDbEntity
8
0
100
AcDbPolyline
90
4
70
1
43
0.0
10
8.8409091212276731
20
-1.5500000478714469
10
8.0909090972919504
20
-1.5500000478714469
42
-0.99999999999999989
10
8.0909090972919504
20
-1.450000047871447
10
8.8409091212276731
20
-1.450000047871447
42
-0.99999999999999989
0
LWPOLYLINE
5
119
100
AcDbEntity
8
0
100
AcDbPolyline
90
4
70
1
43
0.0
10
9.8272727575913095
20
-1.5500000478714469
10
9.0772727336555867
20
-1.5500000478714469
42
-0.99999999999999989
10
9.0772727336555867
20
-1.450000047871447
10
9.8272727575913095
20
-1.450000047871447
42
-0.99999999999999989
0
LWPOLYLINE
5
120
100
AcDbEntity
8
0
100
AcDbPolyline
90
4
70
1
43
0.0
10
10.813636393954946
20
-1.5500000478714469
10
10.063636370019223
20
-1.5500000478714469
42
-0.99999999999999989
10
10.063636370019223
20
-1.450000047871447
10
10.813636393954946
20
-1.450000047871447
42
-0.99999999999999989
0
LWPOLYLINE
5
121
100
AcDbEntity
8
0
100
AcDbPolyline
90
4
70
1
43
0.0
10
11.800000030318582
20
-1.5500000478714469
10
11.050000006382859
20
-1.5500000478714469
42
-0.99999999999999989
10
11.050000006382859
20
-1.450000047871447
10
11.800000030318582
20
-1.450000047871447
42
-0.99999999999999989
0
ENDSEC
0
SECTION
2
OBJECTS
0
DICTIONARY
5
C
100
AcDbDictionary
3
ACAD_GROUP
350
D
3
ACAD_MLINESTYLE
350
17
0
DICTIONARY
5
D
100
AcDbDictionary
0
DICTIONARY
5
1A
330
C
100
AcDbDictionary
0
DICTIONARY
5
17
100
AcDbDictionary
0
ENDSEC
0
EOF
