0
SECTION
2
HEADER
9
$INSUNITS
70
1
9
$ACADVER
1
AC1014
9
$HANDSEED
5
FFFF
0
ENDSEC
0
SECTION
2
TABLES
0
TABLE
2
VPORT
5
8
100
AcDbSymbolTable
0
ENDTAB
0
TABLE
2
LTYPE
5
5
100
AcDbSymbolTable
0
LTYPE
5
14
100
AcDbSymbolTableRecord
100
AcDbLinetypeTableRecord
2
BYBLOCK
70
0
0
LTYPE
5
15
100
AcDbSymbolTableRecord
100
AcDbLinetypeTableRecord
2
BYLAYER
70
0
0
ENDTAB
0
TABLE
2
LAYER
5
2
100
AcDbSymbolTable
70
2
0
LAYER
5
50
100
AcDbSymbolTableRecord
100
AcDbLayerTableRecord
2
0
70
0
6
CONTINUOUS
0
ENDTAB
0
TABLE
2
STYLE
5
3
100
AcDbSymbolTable
70
1
0
STYLE
5
11
100
AcDbSymbolTableRecord
100
AcDbTextStyleTableRecord
2
STANDARD
70
0
0
ENDTAB
0
TABLE
2
VIEW
5
6
100
AcDbSymbolTable
70
0
0
ENDTAB
0
TABLE
2
UCS
5
7
100
AcDbSymbolTable
70
0
0
ENDTAB
0
TABLE
2
APPID
5
9
100
AcDbSymbolTable
70
2
0
APPID
5
12
100
AcDbSymbolTableRecord
100
AcDbRegAppTableRecord
2
ACAD
70
0
0
ENDTAB
0
TABLE
2
DIMSTYLE
5
A
100
AcDbSymbolTable
70
1
0
ENDTAB
0
TABLE
2
BLOCK_RECORD
5
1
100
AcDbSymbolTable
70
1
0
BLOCK_RECORD
5
1F
100
AcDbSymbolTableRecord
100
AcDbBlockTableRecord
2
*MODEL_SPACE
0
BLOCK_RECORD
5
1B
100
AcDbSymbolTableRecord
100
AcDbBlockTableRecord
2
*PAPER_SPACE
0
ENDTAB
0
ENDSEC
0
SECTION
2
BLOCKS
0
BLOCK
5
20
100
AcDbEntity
100
AcDbBlockBegin
2
*MODEL_SPACE
0
ENDBLK
5
21
100
AcDbEntity
100
AcDbBlockEnd
0
BLOCK
5
1C
100
AcDbEntity
100
AcDbBlockBegin
2
*PAPER_SPACE
0
ENDBLK
5
1D
100
AcDbEntity
100
AcDbBlockEnd
0
ENDSEC
0
SECTION
2
ENTITIES
0
LINE
5
100
100
AcDbEntity
8
0
100
AcDbLine
10
1.512899024748013
20
-1.5464857373928942
30
0
11
1.8378181609073969
21
-2.4391937271395077
31
0
0
LINE
5
101
100
AcDbEntity
8
0
100
AcDbLine
10
1.5128990247480139
20
1.5474835246856946
30
0
11
1.8378181609073987
21
2.4401915144323065
31
0
0
LINE
5
102
100
AcDbEntity
8
0
100
AcDbLine
10
1.8870585485580089
20
2.5254783676275512
30
0
11
2.7501774587339596
21
3.5541034296657403
31
0
0
LINE
5
103
100
AcDbEntity
8
0
100
AcDbLine
10
1.8870585485580069
20
-2.5244805803347519
30
0
11
2.7501774587339582
21
-3.5531056423729437
31
0
0
LINE
5
104
100
AcDbEntity
8
0
100
AcDbLine
10
0.49579801758173059
20
-1.5283754630452238
30
0
11
0.49579801758173064
21
1.530859363917892
31
0
0
LINE
5
105
100
AcDbEntity
8
0
100
AcDbLine
10
2.7118752365780092
20
-3.6352450228572715
30
0
11
2.5685234469408078
21
-3.6352450228572701
31
0
0
LINE
5
106
100
AcDbEntity
8
0
100
AcDbLine
10
2.711875236578011
20
3.6362428101500677
30
0
11
2.5888259060295642
21
3.636242810150069
31
0
0
LINE
5
107
100
AcDbEntity
8
0
100
AcDbLine
10
1.3541042310114579
20
-2.7459179932150444
30
0
11
1.1032088547803933
21
-2.2174087012945614
31
0
0
LINE
5
108
100
AcDbEntity
8
0
100
AcDbLine
10
0.81553947203545707
20
-1.9595022727616707
30
0
11
0.79818191251057158
21
-1.9534748461588898
31
0
0
LINE
5
109
100
AcDbEntity
8
0
100
AcDbLine
10
1.1350181974208395
20
2.2417610469319702
30
0
11
1.3499789580513717
21
2.7333872606551011
31
0
0
LINE
5
110
100
AcDbEntity
8
0
100
AcDbLine
10
0.82385890278436902
20
1.9641578573729301
30
0
11
0.81353187746177702
21
1.9609822163423711
31
0
0
ARC
5
111
100
AcDbEntity
8
0
100
AcDbCircle
10
1.8057915082799061
20
-2.5314917738438543
30
0
40
0.50000000000000577
100
AcDbArc
50
205.39475504597053
51
219.89266859794142
0
ARC
5
112
100
AcDbEntity
8
0
100
AcDbCircle
10
1.8081006305984859
20
2.5330761697424649
30
0
40
0.4999999999999683
100
AcDbArc
50
140.49398323615949
51
156.3829201699626
0
ARC
5
113
100
AcDbEntity
8
0
100
AcDbCircle
10
0.67689652487371932
20
2.4420721378446366
30
0
40
0.49999999999994149
100
AcDbArc
50
287.0930722277198
51
336.38292016995968
0
ARC
5
114
100
AcDbEntity
8
0
100
AcDbCircle
10
0.65152157751194739
20
-2.4318349206657479
30
0
40
0.50000000000000211
100
AcDbArc
50
25.394755045970275
51
70.850400832219464
0
ARC
5
115
100
AcDbEntity
8
0
100
AcDbCircle
10
0.94579801758173199
20
1.5308593639178925
30
0
40
0.45000000000000162
100
AcDbArc
50
107.093072227767
51
180
0
ARC
5
116
100
AcDbEntity
8
0
100
AcDbCircle
10
0.94579801758172943
20
-1.5283754630452238
30
0
40
0.44999999999999885
100
AcDbArc
50
180
51
250.85040083221941
0
ARC
5
117
100
AcDbEntity
8
0
100
AcDbCircle
10
2.7118752365780106
20
3.5862428101500674
30
0
40
0.050000000000000086
100
AcDbArc
50
-40.000000000000007
51
89.999999999999503
0
ARC
5
118
100
AcDbEntity
8
0
100
AcDbCircle
10
2.7118752365780097
20
-3.5852450228572712
30
0
40
0.05000000000000026
100
AcDbArc
50
-90.000000000000512
51
40.000000000000718
0
LINE
5
119
100
AcDbEntity
8
0
100
AcDbLine
10
1.8514545661497104
20
-2.9995931094046409
30
0
11
2.5685234469408078
21
-3.6352450228572701
31
0
0
LINE
5
120
100
AcDbEntity
8
0
100
AcDbLine
10
1.8599892435529577
20
2.997637911270937
30
0
11
2.5888259060295682
21
3.636242810150069
31
0
0
ARC
5
121
100
AcDbEntity
8
0
100
AcDbCircle
10
1.6139797023868181
20
-2.6918296393654888
30
0
40
0.25000000000000311
100
AcDbArc
50
219.89266859794145
51
278.23746245699323
0
ARC
5
122
100
AcDbEntity
8
0
100
AcDbCircle
10
1.6152111247004206
20
2.6921159085324957
30
0
40
0.25000000000000211
100
AcDbArc
50
80.790263123685136
51
140.4939615736028
0
ARC
5
123
100
AcDbEntity
8
0
100
AcDbCircle
10
1.6952355946317788
20
3.1856704487934588
30
0
40
0.25000000000000361
100
AcDbArc
50
260.79026312368552
51
311.22476349286006
0
ARC
5
124
100
AcDbEntity
8
0
100
AcDbCircle
10
1.6856177332118172
20
-3.1866710205569935
30
0
40
0.24999999999999636
100
AcDbArc
50
48.44433823270451
51
98.237462456993484
0
CIRCLE
5
125
100
AcDbEntity
8
0
100
AcDbCircle
10
1.6139797023868181
20
-2.6918296393654888
30
0
40
0.12499999999999986
0
CIRCLE
5
126
100
AcDbEntity
8
0
100
AcDbCircle
10
1.6152111247004206
20
2.6921159085324957
30
0
40
0.12499999999999982
0
LWPOLYLINE
5
127
100
AcDbEntity
8
0
100
AcDbPolyline
90
4
70
1
43
0.0
10
1.6067486687436345
20
2.4422591759052148
10
1.362172931185206
20
1.767078296768104
42
0.15594477848277033
10
1.1400982494290661
20
1.9276359788328019
10
1.4138237774511828
20
2.5439837500795925
42
0.22959788944671247
0
LWPOLYLINE
5
128
100
AcDbEntity
8
0
100
AcDbPolyline
90
4
70
1
43
0.0
10
1.1356535545771964
20
-1.9290666182182246
10
1.4174208478622683
20
-2.5373478711596631
42
-0.22791126389353747
10
1.6118901967694237
20
-2.441838371585439
10
1.3613210430312193
20
-1.7682296639197972
42
-0.15778738036092715
0
ARC
5
129
100
AcDbEntity
8
0
100
AcDbCircle
10
1.6139797023868181
20
-2.6918296393654888
30
0
40
0.25000000000000311
100
AcDbArc
50
219.89266859794145
51
278.23746245699323
0
LINE
5
130
100
AcDbEntity
8
0
100
AcDbLine
10
1.5085774470403326
20
2.7573405878240367
30
0
11
1.4953215263398745
21
2.7274922311925303
31
0
0
ARC
5
131
100
AcDbEntity
8
0
100
AcDbCircle
10
1.6152111247004206
20
2.6921159085324957
30
0
40
0.25000000000000211
100
AcDbArc
50
80.790263123685136
51
140.4939615736028
0
ARC
5
132
100
AcDbEntity
8
0
100
AcDbCircle
10
1.8549191680736803
20
-2.4861783581788028
30
0
40
0.049999999999999788
100
AcDbArc
50
110.00000000000004
51
309.9999999999996
0
ARC
5
133
100
AcDbEntity
8
0
100
AcDbCircle
10
1.4957980175817296
20
-1.4995011063535988
30
0
40
0.049999999999999906
100
AcDbArc
50
90
51
289.99999999999994
0
ARC
5
134
100
AcDbEntity
8
0
100
AcDbCircle
10
1.4957980175817303
20
1.5004988936463992
30
0
40
0.05000000000000001
100
AcDbArc
50
69.999999999999815
51
270
0
ARC
5
135
100
AcDbEntity
8
0
100
AcDbCircle
10
1.8549191680736818
20
2.4871761454716022
30
0
40
0.050000000000000086
100
AcDbArc
50
50
51
250.00000000000037
0
CIRCLE
5
136
100
AcDbEntity
8
0
100
AcDbCircle
10
1.0053575130013155
20
0.0012419504363342163
30
0
40
0.12499999999999997
0
LINE
5
137
100
AcDbEntity
8
0
100
AcDbLine
10
1.37079801758173
20
0.80000002553143834
30
0
11
1.3707980175817296
21
-0.80000002553143834
31
0
0
ARC
5
138
100
AcDbEntity
8
0
100
AcDbCircle
10
1.4957980175817298
20
-0.80000002553143834
30
0
40
0.12500000000000011
100
AcDbArc
50
180
51
270
0
ARC
5
139
100
AcDbEntity
8
0
100
AcDbCircle
10
1.4957980175817303
20
0.80000002553143834
30
0
40
0.12500000000000011
100
AcDbArc
50
90
51
180
0
LINE
5
140
100
AcDbEntity
8
0
100
AcDbLine
10
1.4957980175817303
20
0.80000002553143834
30
0
11
1.4957980175817298
21
-0.80000002553143834
31
0
0
LINE
5
141
100
AcDbEntity
8
0
100
AcDbLine
10
1.4957980175817303
20
1.4504988936463992
30
0
11
1.4957980175817303
21
0.92500002553143845
31
0
0
LINE
5
142
100
AcDbEntity
8
0
100
AcDbLine
10
1.4957980175817298
20
-0.92500002553143845
30
0
11
1.4957980175817296
21
-1.449501106353599
31
0
0
CIRCLE
5
143
100
AcDbEntity
8
0
100
AcDbCircle
10
1.0000000319142979
20
-1.5000000478714468
30
0
40
0.12499999999999997
0
CIRCLE
5
144
100
AcDbEntity
8
0
100
AcDbCircle
10
1.0000000319142979
20
1.5000000478714468
30
0
40
0.12499999999999993
0
CIRCLE
5
145
100
AcDbEntity
8
0
100
AcDbCircle
10
1.0000000319142979
20
-0.80000002553143834
30
0
40
0.15639999999999996
0
CIRCLE
5
146
100
AcDbEntity
8
0
100
AcDbCircle
10
1.0000000319142979
20
0.80000002553143834
30
0
40
0.15649999999999994
0
ENDSEC
0
SECTION
2
OBJECTS
0
DICTIONARY
5
C
100
AcDbDictionary
3
ACAD_GROUP
350
D
3
ACAD_MLINESTYLE
350
17
0
DICTIONARY
5
D
100
AcDbDictionary
0
DICTIONARY
5
1A
330
C
100
AcDbDictionary
0
DICTIONARY
5
17
100
AcDbDictionary
0
ENDSEC
0
EOF
