0
SECTION
2
HEADER
9
$INSUNITS
70
1
9
$ACADVER
1
AC1014
9
$HANDSEED
5
FFFF
0
ENDSEC
0
SECTION
2
TABLES
0
TABLE
2
VPORT
5
8
100
AcDbSymbolTable
0
ENDTAB
0
TABLE
2
LTYPE
5
5
100
AcDbSymbolTable
0
LTYPE
5
14
100
AcDbSymbolTableRecord
100
AcDbLinetypeTableRecord
2
BYBLOCK
70
0
0
LTYPE
5
15
100
AcDbSymbolTableRecord
100
AcDbLinetypeTableRecord
2
BYLAYER
70
0
0
ENDTAB
0
TABLE
2
LAYER
5
2
100
AcDbSymbolTable
70
2
0
LAYER
5
50
100
AcDbSymbolTableRecord
100
AcDbLayerTableRecord
2
0
70
0
6
CONTINUOUS
0
ENDTAB
0
TABLE
2
STYLE
5
3
100
AcDbSymbolTable
70
1
0
STYLE
5
11
100
AcDbSymbolTableRecord
100
AcDbTextStyleTableRecord
2
STANDARD
70
0
0
ENDTAB
0
TABLE
2
VIEW
5
6
100
AcDbSymbolTable
70
0
0
ENDTAB
0
TABLE
2
UCS
5
7
100
AcDbSymbolTable
70
0
0
ENDTAB
0
TABLE
2
APPID
5
9
100
AcDbSymbolTable
70
2
0
APPID
5
12
100
AcDbSymbolTableRecord
100
AcDbRegAppTableRecord
2
ACAD
70
0
0
ENDTAB
0
TABLE
2
DIMSTYLE
5
A
100
AcDbSymbolTable
70
1
0
ENDTAB
0
TABLE
2
BLOCK_RECORD
5
1
100
AcDbSymbolTable
70
1
0
BLOCK_RECORD
5
1F
100
AcDbSymbolTableRecord
100
AcDbBlockTableRecord
2
*MODEL_SPACE
0
BLOCK_RECORD
5
1B
100
AcDbSymbolTableRecord
100
AcDbBlockTableRecord
2
*PAPER_SPACE
0
ENDTAB
0
ENDSEC
0
SECTION
2
BLOCKS
0
BLOCK
5
20
100
AcDbEntity
100
AcDbBlockBegin
2
*MODEL_SPACE
0
ENDBLK
5
21
100
AcDbEntity
100
AcDbBlockEnd
0
BLOCK
5
1C
100
AcDbEntity
100
AcDbBlockBegin
2
*PAPER_SPACE
0
ENDBLK
5
1D
100
AcDbEntity
100
AcDbBlockEnd
0
ENDSEC
0
SECTION
2
ENTITIES
0
LINE
5
100
100
AcDbEntity
8
0
100
AcDbLine
10
0.74999999999999989
20
0
30
0
11
13.25
21
0
31
0
0
LINE
5
101
100
AcDbEntity
8
0
100
AcDbLine
10
13.25
20
-8.0000000000000018
30
0
11
0.75000000000000033
21
-7.9999999999999991
31
0
0
ARC
5
102
100
AcDbEntity
8
0
100
AcDbCircle
10
13.249999999999996
20
-0.75000000000000067
30
0
40
0.75000000000000033
100
AcDbArc
50
0
51
89.99999999999973
0
ARC
5
103
100
AcDbEntity
8
0
100
AcDbCircle
10
13.249999999999996
20
-7.2499999999999991
30
0
40
0.75000000000000322
100
AcDbArc
50
-89.999999999999744
51
0
0
ARC
5
104
100
AcDbEntity
8
0
100
AcDbCircle
10
0.75000000000000033
20
-7.2499999999999991
30
0
40
0.75000000000000033
100
AcDbArc
50
180
51
270
0
ARC
5
105
100
AcDbEntity
8
0
100
AcDbCircle
10
0.74999999999999956
20
-0.74999999999999967
30
0
40
0.74999999999999967
100
AcDbArc
50
89.999999999999972
51
180
0
LWPOLYLINE
5
106
100
AcDbEntity
8
0
100
AcDbPolyline
90
4
70
1
43
0.0
10
1.0000000319142979
20
-1.5500000494671617
10
0.25000000797857447
20
-1.5500000494671617
42
-0.99999999999999989
10
0.25000000797857447
20
-1.4500000462757319
10
1.0000000319142979
20
-1.4500000462757319
42
-0.99999999999999989
0
LWPOLYLINE
5
107
100
AcDbEntity
8
0
100
AcDbPolyline
90
4
70
1
43
0.0
10
1.9810000319142977
20
-1.5500000494671617
10
1.2310000079785743
20
-1.5500000494671617
42
-0.99999999999999989
10
1.2310000079785743
20
-1.4500000462757319
10
1.9810000319142977
20
-1.4500000462757319
42
-0.99999999999999989
0
LWPOLYLINE
5
108
100
AcDbEntity
8
0
100
AcDbPolyline
90
4
70
1
43
0.0
10
2.9620000319142976
20
-1.5500000494671617
10
2.2120000079785744
20
-1.5500000494671617
42
-0.99999999999999989
10
2.2120000079785744
20
-1.4500000462757319
10
2.9620000319142976
20
-1.4500000462757319
42
-0.99999999999999989
0
LWPOLYLINE
5
109
100
AcDbEntity
8
0
100
AcDbPolyline
90
4
70
1
43
0.0
10
3.9430000319142979
20
-1.5500000494671617
10
3.1930000079785743
20
-1.5500000494671617
42
-0.99999999999999989
10
3.1930000079785743
20
-1.4500000462757319
10
3.9430000319142979
20
-1.4500000462757319
42
-0.99999999999999989
0
LWPOLYLINE
5
110
100
AcDbEntity
8
0
100
AcDbPolyline
90
4
70
1
43
0.0
10
4.9240000319142974
20
-1.5500000494671617
10
4.1740000079785746
20
-1.5500000494671617
42
-0.99999999999999989
10
4.1740000079785746
20
-1.4500000462757319
10
4.9240000319142974
20
-1.4500000462757319
42
-0.99999999999999989
0
LWPOLYLINE
5
111
100
AcDbEntity
8
0
100
AcDbPolyline
90
4
70
1
43
0.0
10
5.9050000319142972
20
-1.5500000494671617
10
5.1550000079785745
20
-1.5500000494671617
42
-0.99999999999999989
10
5.1550000079785745
20
-1.4500000462757319
10
5.9050000319142972
20
-1.4500000462757319
42
-0.99999999999999989
0
LWPOLYLINE
5
112
100
AcDbEntity
8
0
100
AcDbPolyline
90
4
70
1
43
0.0
10
6.886000031914298
20
-1.5500000494671617
10
6.1360000079785744
20
-1.5500000494671617
42
-0.99999999999999989
10
6.1360000079785744
20
-1.4500000462757319
10
6.886000031914298
20
-1.4500000462757319
42
-0.99999999999999989
0
LWPOLYLINE
5
113
100
AcDbEntity
8
0
100
AcDbPolyline
90
4
70
1
43
0.0
10
7.8670000319142979
20
-1.5500000494671617
10
7.1170000079785742
20
-1.5500000494671617
42
-0.99999999999999989
10
7.1170000079785742
20
-1.4500000462757319
10
7.8670000319142979
20
-1.4500000462757319
42
-0.99999999999999989
0
LWPOLYLINE
5
114
100
AcDbEntity
8
0
100
AcDbPolyline
90
4
70
1
43
0.0
10
8.8480000319142977
20
-1.5500000494671617
10
8.0980000079785732
20
-1.5500000494671617
42
-0.99999999999999989
10
8.0980000079785732
20
-1.4500000462757319
10
8.8480000319142977
20
-1.4500000462757319
42
-0.99999999999999989
0
LWPOLYLINE
5
115
100
AcDbEntity
8
0
100
AcDbPolyline
90
4
70
1
43
0.0
10
9.8290000319142976
20
-1.5500000494671617
10
9.0790000079785731
20
-1.5500000494671617
42
-0.99999999999999989
10
9.0790000079785731
20
-1.4500000462757319
10
9.8290000319142976
20
-1.4500000462757319
42
-0.99999999999999989
0
LWPOLYLINE
5
116
100
AcDbEntity
8
0
100
AcDbPolyline
90
4
70
1
43
0.0
10
10.810000031914297
20
-1.5500000494671617
10
10.060000007978575
20
-1.5500000494671617
42
-0.99999999999999989
10
10.060000007978575
20
-1.4500000462757319
10
10.810000031914297
20
-1.4500000462757319
42
-0.99999999999999989
0
LWPOLYLINE
5
117
100
AcDbEntity
8
0
100
AcDbPolyline
90
4
70
1
43
0.0
10
11.791000031914297
20
-1.5500000494671617
10
11.041000007978575
20
-1.5500000494671617
42
-0.99999999999999989
10
11.041000007978575
20
-1.4500000462757319
10
11.791000031914297
20
-1.4500000462757319
42
-0.99999999999999989
0
LWPOLYLINE
5
118
100
AcDbEntity
8
0
100
AcDbPolyline
90
4
70
1
43
0.0
10
12.772000031914297
20
-1.5500000494671617
10
12.022000007978574
20
-1.5500000494671617
42
-0.99999999999999989
10
12.022000007978574
20
-1.4500000462757319
10
12.772000031914297
20
-1.4500000462757319
42
-0.99999999999999989
0
LWPOLYLINE
5
119
100
AcDbEntity
8
0
100
AcDbPolyline
90
4
70
1
43
0.0
10
13.753000031914297
20
-1.5500000494671617
10
13.003000007978574
20
-1.5500000494671617
42
-0.99999999999999989
10
13.003000007978574
20
-1.4500000462757319
10
13.753000031914297
20
-1.4500000462757319
42
-0.99999999999999989
0
LWPOLYLINE
5
120
100
AcDbEntity
8
0
100
AcDbPolyline
90
4
70
1
43
0.0
10
1.0000000319142979
20
-2.5500000813814596
10
0.25000000797857447
20
-2.5500000813814596
42
-0.99999999999999989
10
0.25000000797857447
20
-2.4500000781900297
10
1.0000000319142979
20
-2.4500000781900297
42
-0.99999999999999989
0
LWPOLYLINE
5
121
100
AcDbEntity
8
0
100
AcDbPolyline
90
4
70
1
43
0.0
10
1.0000000319142979
20
-5.5500004169215833
10
0.25000000797857447
20
-5.5500004169215833
42
-0.99999999999999989
10
0.25000000797857447
20
-5.4499999341356942
10
1.0000000319142979
20
-5.4499999341356942
42
-0.99999999999999989
0
LWPOLYLINE
5
122
100
AcDbEntity
8
0
100
AcDbPolyline
90
4
70
1
43
0.0
10
1.2310000079785743
20
-2.4500000781900297
10
1.9810000319142977
20
-2.4500000781900297
42
-0.99999999999999989
10
1.9810000319142977
20
-2.5500000813814596
10
1.2310000079785743
20
-2.5500000813814596
42
-0.99999999999999989
0
LWPOLYLINE
5
123
100
AcDbEntity
8
0
100
AcDbPolyline
90
4
70
1
43
0.0
10
1.2310000079785743
20
-5.4499999341356942
10
1.9810000319142977
20
-5.4499999341356942
42
-0.99999999999999989
10
1.9810000319142977
20
-5.5500004169215833
10
1.2310000079785743
20
-5.5500004169215833
42
-0.99999999999999989
0
LWPOLYLINE
5
124
100
AcDbEntity
8
0
100
AcDbPolyline
90
4
70
1
43
0.0
10
2.2120000079785744
20
-2.4500000781900297
10
2.9620000319142976
20
-2.4500000781900297
42
-0.99999999999999989
10
2.9620000319142976
20
-2.5500000813814596
10
2.2120000079785744
20
-2.5500000813814596
42
-0.99999999999999989
0
LWPOLYLINE
5
125
100
AcDbEntity
8
0
100
AcDbPolyline
90
4
70
1
43
0.0
10
2.2120000079785744
20
-5.4499999341356942
10
2.9620000319142976
20
-5.4499999341356942
42
-0.99999999999999989
10
2.9620000319142976
20
-5.5500004169215833
10
2.2120000079785744
20
-5.5500004169215833
42
-0.99999999999999989
0
LWPOLYLINE
5
126
100
AcDbEntity
8
0
100
AcDbPolyline
90
4
70
1
43
0.0
10
3.1930000079785743
20
-2.4500000781900297
10
3.9430000319142979
20
-2.4500000781900297
42
-0.99999999999999989
10
3.9430000319142979
20
-2.5500000813814596
10
3.1930000079785743
20
-2.5500000813814596
42
-0.99999999999999989
0
LWPOLYLINE
5
127
100
AcDbEntity
8
0
100
AcDbPolyline
90
4
70
1
43
0.0
10
3.1930000079785743
20
-5.4499999341356942
10
3.9430000319142979
20
-5.4499999341356942
42
-0.99999999999999989
10
3.9430000319142979
20
-5.5500004169215833
10
3.1930000079785743
20
-5.5500004169215833
42
-0.99999999999999989
0
LWPOLYLINE
5
128
100
AcDbEntity
8
0
100
AcDbPolyline
90
4
70
1
43
0.0
10
4.1740000079785746
20
-2.4500000781900297
10
4.9240000319142974
20
-2.4500000781900297
42
-0.99999999999999989
10
4.9240000319142974
20
-2.5500000813814596
10
4.1740000079785746
20
-2.5500000813814596
42
-0.99999999999999989
0
LWPOLYLINE
5
129
100
AcDbEntity
8
0
100
AcDbPolyline
90
4
70
1
43
0.0
10
4.1740000079785746
20
-5.4499999341356942
10
4.9240000319142974
20
-5.4499999341356942
42
-0.99999999999999989
10
4.9240000319142974
20
-5.5500004169215833
10
4.1740000079785746
20
-5.5500004169215833
42
-0.99999999999999989
0
LWPOLYLINE
5
130
100
AcDbEntity
8
0
100
AcDbPolyline
90
4
70
1
43
0.0
10
5.1550000079785745
20
-2.4500000781900297
10
5.9050000319142972
20
-2.4500000781900297
42
-0.99999999999999989
10
5.9050000319142972
20
-2.5500000813814596
10
5.1550000079785745
20
-2.5500000813814596
42
-0.99999999999999989
0
LWPOLYLINE
5
131
100
AcDbEntity
8
0
100
AcDbPolyline
90
4
70
1
43
0.0
10
5.1550000079785745
20
-5.4499999341356942
10
5.9050000319142972
20
-5.4499999341356942
42
-0.99999999999999989
10
5.9050000319142972
20
-5.5500004169215833
10
5.1550000079785745
20
-5.5500004169215833
42
-0.99999999999999989
0
LWPOLYLINE
5
132
100
AcDbEntity
8
0
100
AcDbPolyline
90
4
70
1
43
0.0
10
6.1360000079785744
20
-2.4500000781900297
10
6.886000031914298
20
-2.4500000781900297
42
-0.99999999999999989
10
6.886000031914298
20
-2.5500000813814596
10
6.1360000079785744
20
-2.5500000813814596
42
-0.99999999999999989
0
LWPOLYLINE
5
133
100
AcDbEntity
8
0
100
AcDbPolyline
90
4
70
1
43
0.0
10
6.1360000079785744
20
-5.4499999341356942
10
6.886000031914298
20
-5.4499999341356942
42
-0.99999999999999989
10
6.886000031914298
20
-5.5500004169215833
10
6.1360000079785744
20
-5.5500004169215833
42
-0.99999999999999989
0
LWPOLYLINE
5
134
100
AcDbEntity
8
0
100
AcDbPolyline
90
4
70
1
43
0.0
10
7.1170000079785742
20
-2.4500000781900297
10
7.8670000319142979
20
-2.4500000781900297
42
-0.99999999999999989
10
7.8670000319142979
20
-2.5500000813814596
10
7.1170000079785742
20
-2.5500000813814596
42
-0.99999999999999989
0
LWPOLYLINE
5
135
100
AcDbEntity
8
0
100
AcDbPolyline
90
4
70
1
43
0.0
10
7.1170000079785742
20
-5.4499999341356942
10
7.8670000319142979
20
-5.4499999341356942
42
-0.99999999999999989
10
7.8670000319142979
20
-5.5500004169215833
10
7.1170000079785742
20
-5.5500004169215833
42
-0.99999999999999989
0
LWPOLYLINE
5
136
100
AcDbEntity
8
0
100
AcDbPolyline
90
4
70
1
43
0.0
10
8.0980000079785732
20
-2.4500000781900297
10
8.8480000319142977
20
-2.4500000781900297
42
-0.99999999999999989
10
8.8480000319142977
20
-2.5500000813814596
10
8.0980000079785732
20
-2.5500000813814596
42
-0.99999999999999989
0
LWPOLYLINE
5
137
100
AcDbEntity
8
0
100
AcDbPolyline
90
4
70
1
43
0.0
10
8.0980000079785732
20
-5.4499999341356942
10
8.8480000319142977
20
-5.4499999341356942
42
-0.99999999999999989
10
8.8480000319142977
20
-5.5500004169215833
10
8.0980000079785732
20
-5.5500004169215833
42
-0.99999999999999989
0
LWPOLYLINE
5
138
100
AcDbEntity
8
0
100
AcDbPolyline
90
4
70
1
43
0.0
10
9.0790000079785731
20
-2.4500000781900297
10
9.8290000319142976
20
-2.4500000781900297
42
-0.99999999999999989
10
9.8290000319142976
20
-2.5500000813814596
10
9.0790000079785731
20
-2.5500000813814596
42
-0.99999999999999989
0
LWPOLYLINE
5
139
100
AcDbEntity
8
0
100
AcDbPolyline
90
4
70
1
43
0.0
10
9.0790000079785731
20
-5.4499999341356942
10
9.8290000319142976
20
-5.4499999341356942
42
-0.99999999999999989
10
9.8290000319142976
20
-5.5500004169215833
10
9.0790000079785731
20
-5.5500004169215833
42
-0.99999999999999989
0
LWPOLYLINE
5
140
100
AcDbEntity
8
0
100
AcDbPolyline
90
4
70
1
43
0.0
10
10.060000007978575
20
-2.4500000781900297
10
10.810000031914297
20
-2.4500000781900297
42
-0.99999999999999989
10
10.810000031914297
20
-2.5500000813814596
10
10.060000007978575
20
-2.5500000813814596
42
-0.99999999999999989
0
LWPOLYLINE
5
141
100
AcDbEntity
8
0
100
AcDbPolyline
90
4
70
1
43
0.0
10
10.060000007978575
20
-5.4499999341356942
10
10.810000031914297
20
-5.4499999341356942
42
-0.99999999999999989
10
10.810000031914297
20
-5.5500004169215833
10
10.060000007978575
20
-5.5500004169215833
42
-0.99999999999999989
0
LWPOLYLINE
5
142
100
AcDbEntity
8
0
100
AcDbPolyline
90
4
70
1
43
0.0
10
11.041000007978575
20
-2.4500000781900297
10
11.791000031914297
20
-2.4500000781900297
42
-0.99999999999999989
10
11.791000031914297
20
-2.5500000813814596
10
11.041000007978575
20
-2.5500000813814596
42
-0.99999999999999989
0
LWPOLYLINE
5
143
100
AcDbEntity
8
0
100
AcDbPolyline
90
4
70
1
43
0.0
10
11.041000007978575
20
-5.4499999341356942
10
11.791000031914297
20
-5.4499999341356942
42
-0.99999999999999989
10
11.791000031914297
20
-5.5500004169215833
10
11.041000007978575
20
-5.5500004169215833
42
-0.99999999999999989
0
LWPOLYLINE
5
144
100
AcDbEntity
8
0
100
AcDbPolyline
90
4
70
1
43
0.0
10
12.022000007978574
20
-2.4500000781900297
10
12.772000031914297
20
-2.4500000781900297
42
-0.99999999999999989
10
12.772000031914297
20
-2.5500000813814596
10
12.022000007978574
20
-2.5500000813814596
42
-0.99999999999999989
0
LWPOLYLINE
5
145
100
AcDbEntity
8
0
100
AcDbPolyline
90
4
70
1
43
0.0
10
12.022000007978574
20
-5.4499999341356942
10
12.772000031914297
20
-5.4499999341356942
42
-0.99999999999999989
10
12.772000031914297
20
-5.5500004169215833
10
12.022000007978574
20
-5.5500004169215833
42
-0.99999999999999989
0
LWPOLYLINE
5
146
100
AcDbEntity
8
0
100
AcDbPolyline
90
4
70
1
43
0.0
10
13.003000007978574
20
-2.4500000781900297
10
13.753000031914297
20
-2.4500000781900297
42
-0.99999999999999989
10
13.753000031914297
20
-2.5500000813814596
10
13.003000007978574
20
-2.5500000813814596
42
-0.99999999999999989
0
LWPOLYLINE
5
147
100
AcDbEntity
8
0
100
AcDbPolyline
90
4
70
1
43
0.0
10
13.003000007978574
20
-5.4499999341356942
10
13.753000031914297
20
-5.4499999341356942
42
-0.99999999999999989
10
13.753000031914297
20
-5.5500004169215833
10
13.003000007978574
20
-5.5500004169215833
42
-0.99999999999999989
0
LINE
5
148
100
AcDbEntity
8
0
100
AcDbLine
10
14.500000478714471
20
-3.5000001117000425
30
0
11
14.467703727622315
21
-3.5000001117000408
31
0
0
LINE
5
149
100
AcDbEntity
8
0
100
AcDbLine
10
14.468653324819611
20
-4.5049636906263206
30
0
11
14.500000478714471
21
-4.5049636906263215
31
0
0
LINE
5
150
100
AcDbEntity
8
0
100
AcDbLine
10
15.000000478714469
20
-4.0049636906263215
30
0
11
15.000000478714469
21
-4.0000001117000421
31
0
0
LINE
5
151
100
AcDbEntity
8
0
100
AcDbLine
10
-0.46770330890840928
20
-3.5000001117000425
30
0
11
-0.49999999999999989
21
-3.5000001117000425
31
0
0
LINE
5
152
100
AcDbEntity
8
0
100
AcDbLine
10
-0.99999999999999956
20
-4.0000001117000421
30
0
11
-0.99999999999999956
21
-4.0000001117000421
31
0
0
LINE
5
153
100
AcDbEntity
8
0
100
AcDbLine
10
-0.49999999999999944
20
-4.5000001117000421
30
0
11
-0.47022893842210245
21
-4.5000001117000421
31
0
0
ARC
5
154
100
AcDbEntity
8
0
100
AcDbCircle
10
14.500000478714473
20
-4.0000001117000386
30
0
40
0.49999999999999506
100
AcDbArc
50
84.008416683081805
51
90.000000000000199
0
ARC
5
155
100
AcDbEntity
8
0
100
AcDbCircle
10
14.500000478714473
20
-4.0049636906263251
30
0
40
0.49999999999999628
100
AcDbArc
50
269.99999999999983
51
275.43041495062624
0
LINE
5
156
100
AcDbEntity
8
0
100
AcDbLine
10
14.374856072838742
20
-3.4371392150978188
30
0
11
14
21
-2.5000000797857447
31
0
0
LINE
5
157
100
AcDbEntity
8
0
100
AcDbLine
10
14.375906693940546
20
-4.5675730171824975
30
0
11
14
21
-5.5000001755286387
31
0
0
LINE
5
158
100
AcDbEntity
8
0
100
AcDbLine
10
-0.37746771436267396
20
-4.5626456566645786
30
0
11
0
21
-5.5000001755286387
31
0
0
LINE
5
159
100
AcDbEntity
8
0
100
AcDbLine
10
-0.3748556398198834
20
-3.4371391793354533
30
0
11
0
21
-2.5000000797857447
31
0
0
LINE
5
160
100
AcDbEntity
8
0
100
AcDbLine
10
13.999999999999996
20
-0.74999999999999989
30
0
11
14
21
-2.5000000797857447
31
0
0
LINE
5
161
100
AcDbEntity
8
0
100
AcDbLine
10
14
20
-5.5000001755286387
30
0
11
14
21
-7.2499999999999991
31
0
0
LINE
5
162
100
AcDbEntity
8
0
100
AcDbLine
10
-8.7419135797256413e-17
20
-7.2499999999999991
30
0
11
0
21
-5.5000001755286387
31
0
0
LINE
5
163
100
AcDbEntity
8
0
100
AcDbLine
10
0
20
-2.5000000797857447
30
0
11
-8.7419135797256413e-17
21
-0.75000000000000033
31
0
0
LINE
5
164
100
AcDbEntity
8
0
100
AcDbLine
10
0.53535535501647669
20
-7.5353555784165618
30
0
11
1.0353553709736258
21
-7.0353555624594133
31
0
0
ARC
5
165
100
AcDbEntity
8
0
100
AcDbCircle
10
1.0000000319142979
20
-7.0000002234000851
30
0
40
0.050000000000000676
100
AcDbArc
50
-45.000000000000156
51
135.00000000000045
0
LINE
5
166
100
AcDbEntity
8
0
100
AcDbLine
10
0.96464469285497001
20
-6.9646448843407578
30
0
11
0.46464467689782113
21
-7.4646449002979063
31
0
0
ARC
5
167
100
AcDbEntity
8
0
100
AcDbCircle
10
0.50000001595714894
20
-7.5000002393572345
30
0
40
0.050000000000000676
100
AcDbArc
50
134.99999999999969
51
315.00000000000034
0
LWPOLYLINE
5
168
100
AcDbEntity
8
0
100
AcDbPolyline
90
4
70
1
43
0.0
10
13.035355753945199
20
-6.9646448843407587
10
13.535355769902349
20
-7.4646449002979081
42
-0.99999999999999989
10
13.464645091783694
20
-7.5353555784165609
10
12.964645075826546
20
-7.0353555624594115
42
-0.99999999999999989
0
LWPOLYLINE
5
169
100
AcDbEntity
8
0
100
AcDbPolyline
90
4
70
1
43
0.0
10
12.964645075826546
20
-0.96464469285497112
10
13.464645091783694
20
-0.46464467689782213
42
-0.99999999999999989
10
13.535355769902349
20
-0.5353553550164758
10
13.035355753945199
20
-1.0353553709736247
42
-0.99999999999999989
0
LINE
5
170
100
AcDbEntity
8
0
100
AcDbLine
10
0.46464467689782163
20
-0.53535535501647624
30
0
11
0.96464469285497056
21
-1.0353553709736252
31
0
0
ARC
5
171
100
AcDbEntity
8
0
100
AcDbCircle
10
1.0000000319142979
20
-1.0000000319142979
30
0
40
0.049999999999999933
100
AcDbArc
50
-135
51
45
0
LINE
5
172
100
AcDbEntity
8
0
100
AcDbLine
10
1.0353553709736252
20
-0.96464469285497056
30
0
11
0.53535535501647624
21
-0.46464467689782163
31
0
0
ARC
5
173
100
AcDbEntity
8
0
100
AcDbCircle
10
0.50000001595714894
20
-0.50000001595714894
30
0
40
0.049999999999999933
100
AcDbArc
50
45
51
225
0
ARC
5
174
100
AcDbEntity
8
0
100
AcDbCircle
10
6.5000002074429366
20
-4.5000001436143409
30
0
40
0.050000000000000676
100
AcDbArc
50
135
51
315
0
ARC
5
175
100
AcDbEntity
8
0
100
AcDbCircle
10
7.5000002393572345
20
-3.5000001117000425
30
0
40
0.050000000000000676
100
AcDbArc
50
-45.000000000000355
51
135.00000000000037
0
ARC
5
176
100
AcDbEntity
8
0
100
AcDbCircle
10
7.5000002393572345
20
-4.5000001436143409
30
0
40
0.050000000000000676
100
AcDbArc
50
-135.00000000000071
51
45.000000000000718
0
ARC
5
177
100
AcDbEntity
8
0
100
AcDbCircle
10
6.5000002074429366
20
-3.5000001117000425
30
0
40
0.050000000000000676
100
AcDbArc
50
45.000000000000355
51
224.99999999999963
0
LINE
5
178
100
AcDbEntity
8
0
100
AcDbLine
10
7.4646449002979063
20
-3.4646447726407148
30
0
11
7.0000002234000851
21
-3.929289449538536
31
0
0
LINE
5
179
100
AcDbEntity
8
0
100
AcDbLine
10
6.9292895452814296
20
-4.0000001276571915
30
0
11
6.4646448683836084
21
-4.4646448045550127
31
0
0
LINE
5
180
100
AcDbEntity
8
0
100
AcDbLine
10
7.5353555784165618
20
-4.4646448045550127
30
0
11
7.0707109015187406
21
-4.0000001276571915
31
0
0
LINE
5
181
100
AcDbEntity
8
0
100
AcDbLine
10
7.0000002234000851
20
-3.929289449538536
30
0
11
6.5353555465022639
21
-3.4646447726407148
31
0
0
LINE
5
182
100
AcDbEntity
8
0
100
AcDbLine
10
6.5353555465022639
20
-4.5353554826736682
30
0
11
7.0000002234000851
21
-4.070710805775847
31
0
0
LINE
5
183
100
AcDbEntity
8
0
100
AcDbLine
10
7.0707109015187406
20
-4.0000001276571915
30
0
11
7.5353555784165618
21
-3.5353554507593703
31
0
0
LINE
5
184
100
AcDbEntity
8
0
100
AcDbLine
10
6.4646448683836084
20
-3.5353554507593703
30
0
11
6.9292895452814296
21
-4.0000001276571915
31
0
0
LINE
5
185
100
AcDbEntity
8
0
100
AcDbLine
10
7.0000002234000851
20
-4.070710805775847
30
0
11
7.4646449002979063
21
-4.5353554826736682
31
0
0
ARC
5
186
100
AcDbEntity
8
0
100
AcDbCircle
10
-0.46770330890840967
20
-3.400000111700042
30
0
40
0.10000000000000052
100
AcDbArc
50
270.00000000000023
51
338.19859051364779
0
ARC
5
187
100
AcDbEntity
8
0
100
AcDbCircle
10
-0.47022893842210134
20
-4.6000001117000409
30
0
40
0.099999999999998423
100
AcDbArc
50
21.93438569492227
51
90.000000000000639
0
ARC
5
188
100
AcDbEntity
8
0
100
AcDbCircle
10
14.467703727622311
20
-3.4000001117000433
30
0
40
0.099999999999997258
100
AcDbArc
50
201.80143155511055
51
270.00000000000205
0
ARC
5
189
100
AcDbEntity
8
0
100
AcDbCircle
10
14.468653324819611
20
-4.6049636906263212
30
0
40
0.10000000000000052
100
AcDbArc
50
90
51
158.04324153909371
0
CIRCLE
5
190
100
AcDbEntity
8
0
100
AcDbCircle
10
0.6000000191485787
20
-3.1000000989343235
30
0
40
0.12499999999999997
0
CIRCLE
5
191
100
AcDbEntity
8
0
100
AcDbCircle
10
13.400000427651593
20
-3.1000000989343235
30
0
40
0.12499999999999994
0
LWPOLYLINE
5
192
100
AcDbEntity
8
0
100
AcDbPolyline
90
8
70
1
43
0.0
10
3.0000000957428932
20
-3.5000001117000425
42
-0.99999999999999989
10
3.0000000957428941
20
-4.5000001117000412
10
1.0000000319142979
20
-4.5000001117000412
10
1.0000000319142979
20
-4.4500001117000423
10
3.0000000957428941
20
-4.4500001117000423
42
0.99999999999999989
10
3.0000000957428936
20
-3.5500001117000415
10
1.0000000319142979
20
-3.5500001117000415
10
1.0000000319142979
20
-3.5000001117000425
0
LINE
5
193
100
AcDbEntity
8
0
100
AcDbLine
10
-0.46770330890840928
20
-3.5000001117000425
30
0
11
-0.49999999999999978
21
-3.5000001117000425
31
0
0
LINE
5
194
100
AcDbEntity
8
0
100
AcDbLine
10
-0.49999999999999944
20
-4.5000001117000412
30
0
11
-0.47022893842210245
21
-4.5000001117000421
31
0
0
CIRCLE
5
195
100
AcDbEntity
8
0
100
AcDbCircle
10
3.0000000957428936
20
-4.0000001117000421
30
0
40
0.12500000000000031
0
LWPOLYLINE
5
196
100
AcDbEntity
8
0
100
AcDbPolyline
90
8
70
1
43
0.0
10
11.000000478714473
20
-3.5049636906263255
10
13.00071653678819
20
-3.5049636906263255
10
13.000783420455924
20
-3.5521257969521858
10
10.999362304922839
20
-3.5549641431440957
42
0.99999999999999989
10
11.000638652506108
20
-4.4549632381085553
10
13.002059768039194
20
-4.452124891916645
10
13.002134702195701
20
-4.5049636906263251
10
11.000000478714473
20
-4.5049636906263251
42
-0.99999999999999989
0
ARC
5
197
100
AcDbEntity
8
0
100
AcDbCircle
10
14.500000478714473
20
-4.0049636906263251
30
0
40
0.49999999999999978
100
AcDbArc
50
270
51
275.43041495062624
0
LINE
5
198
100
AcDbEntity
8
0
100
AcDbLine
10
14.468653324819611
20
-4.5049636906263206
30
0
11
14.500000478714473
21
-4.5049636906263251
31
0
0
LINE
5
199
100
AcDbEntity
8
0
100
AcDbLine
10
13.001418549107351
20
-3.9999781053369841
30
0
11
13.001425619491943
21
-4.0049636906263251
31
0
0
CIRCLE
5
200
100
AcDbEntity
8
0
100
AcDbCircle
10
11.000000478714473
20
-4.0049636906263251
30
0
40
0.12500000000000042
0
LWPOLYLINE
5
201
100
AcDbEntity
8
0
100
AcDbPolyline
90
8
70
1
43
0.0
10
2.3000000734028854
20
-3.7500001117000417
10
2.7482133164324738
20
-3.7500001117000417
10
2.7482133164324738
20
-3.8000001117000415
10
2.3000000734028854
20
-3.8000001117000415
42
0.99999999999999989
10
2.3000000734028854
20
-4.2000001117000423
10
2.7482133164324738
20
-4.2000001117000423
10
2.7482133164324738
20
-4.2500001117000412
10
2.3000000734028854
20
-4.2500001117000412
42
-0.99999999999999989
0
LWPOLYLINE
5
202
100
AcDbEntity
8
0
100
AcDbPolyline
90
8
70
1
43
0.0
10
11.700354315793295
20
-4.2539707244405776
10
11.255044825699716
20
-4.2546022469550637
10
11.254973149799381
20
-4.2040609631565804
10
11.700708853758208
20
-4.202480644176803
42
0.99999999999999989
10
11.699290695837677
20
-3.8024831581495615
10
11.254405882923338
20
-3.8040604603656933
10
11.254335743709012
20
-3.754602749752586
10
11.69964523380259
20
-3.7539712272380998
42
-0.99999999999999989
0
LINE
5
203
100
AcDbEntity
8
0
100
AcDbLine
10
11.254690796934749
20
-4.0049636906263251
30
0
11
11.25468951636136
21
-4.0040607117611362
31
0
0
LWPOLYLINE
5
204
100
AcDbEntity
8
0
100
AcDbPolyline
90
4
70
1
43
0.0
10
8.0980000079785732
20
-6.4499999341356933
10
8.8480000319142977
20
-6.4499999341356933
42
-0.99999999999999989
10
8.8480000319142977
20
-6.5500004169215824
10
8.0980000079785732
20
-6.5500004169215824
42
-0.99999999999999989
0
LWPOLYLINE
5
205
100
AcDbEntity
8
0
100
AcDbPolyline
90
4
70
1
43
0.0
10
4.1740000079785746
20
-6.4499999341356933
10
4.9240000319142974
20
-6.4499999341356933
42
-0.99999999999999989
10
4.9240000319142974
20
-6.5500004169215824
10
4.1740000079785746
20
-6.5500004169215824
42
-0.99999999999999989
0
LWPOLYLINE
5
206
100
AcDbEntity
8
0
100
AcDbPolyline
90
4
70
1
43
0.0
10
13.753000031914297
20
-6.4499999341356933
42
-0.99999999999999989
10
13.753000031914297
20
-6.5500004169215824
10
13.003000007978574
20
-6.5500004169215824
42
-0.99999999999999989
10
13.003000007978574
20
-6.4499999341356933
0
LWPOLYLINE
5
207
100
AcDbEntity
8
0
100
AcDbPolyline
90
4
70
1
43
0.0
10
7.1170000079785742
20
-6.4499999341356933
10
7.8670000319142979
20
-6.4499999341356933
42
-0.99999999999999989
10
7.8670000319142979
20
-6.5500004169215824
10
7.1170000079785742
20
-6.5500004169215824
42
-0.99999999999999989
0
LWPOLYLINE
5
208
100
AcDbEntity
8
0
100
AcDbPolyline
90
4
70
1
43
0.0
10
3.9430000319142979
20
-6.4499999341356933
42
-0.99999999999999989
10
3.9430000319142979
20
-6.5500004169215824
10
3.1930000079785743
20
-6.5500004169215824
42
-0.99999999999999989
10
3.1930000079785743
20
-6.4499999341356933
0
LWPOLYLINE
5
209
100
AcDbEntity
8
0
100
AcDbPolyline
90
4
70
1
43
0.0
10
6.886000031914298
20
-6.5500004169215824
10
6.1360000079785744
20
-6.5500004169215824
42
-0.99999999999999989
10
6.1360000079785744
20
-6.4499999341356933
10
6.886000031914298
20
-6.4499999341356933
42
-0.99999999999999989
0
LWPOLYLINE
5
210
100
AcDbEntity
8
0
100
AcDbPolyline
90
4
70
1
43
0.0
10
9.8290000319142976
20
-6.5500004169215824
10
9.0790000079785731
20
-6.5500004169215824
42
-0.99999999999999989
10
9.0790000079785731
20
-6.4499999341356933
10
9.8290000319142976
20
-6.4499999341356933
42
-0.99999999999999989
0
LWPOLYLINE
5
211
100
AcDbEntity
8
0
100
AcDbPolyline
90
4
70
1
43
0.0
10
5.9050000319142972
20
-6.5500004169215824
10
5.1550000079785745
20
-6.5500004169215824
42
-0.99999999999999989
10
5.1550000079785745
20
-6.4499999341356933
10
5.9050000319142972
20
-6.4499999341356933
42
-0.99999999999999989
0
LWPOLYLINE
5
212
100
AcDbEntity
8
0
100
AcDbPolyline
90
4
70
1
43
0.0
10
1.0000000319142979
20
-6.4499999341356933
42
-0.99999999999999989
10
1.0000000319142979
20
-6.5500004169215824
10
0.25000000797857447
20
-6.5500004169215824
42
-0.99999999999999989
10
0.25000000797857447
20
-6.4499999341356933
0
LWPOLYLINE
5
213
100
AcDbEntity
8
0
100
AcDbPolyline
90
4
70
1
43
0.0
10
2.2120000079785744
20
-6.4499999341356933
10
2.9620000319142976
20
-6.4499999341356933
42
-0.99999999999999989
10
2.9620000319142976
20
-6.5500004169215824
10
2.2120000079785744
20
-6.5500004169215824
42
-0.99999999999999989
0
LWPOLYLINE
5
214
100
AcDbEntity
8
0
100
AcDbPolyline
90
4
70
1
43
0.0
10
1.9810000319142977
20
-6.5500004169215824
10
1.2310000079785743
20
-6.5500004169215824
42
-0.99999999999999989
10
1.2310000079785743
20
-6.4499999341356933
10
1.9810000319142977
20
-6.4499999341356933
42
-0.99999999999999989
0
LWPOLYLINE
5
215
100
AcDbEntity
8
0
100
AcDbPolyline
90
4
70
1
43
0.0
10
10.060000007978575
20
-6.5500004169215824
42
-0.99999999999999989
10
10.060000007978575
20
-6.4499999341356933
10
10.810000031914297
20
-6.4499999341356933
42
-0.99999999999999989
10
10.810000031914297
20
-6.5500004169215824
0
LWPOLYLINE
5
216
100
AcDbEntity
8
0
100
AcDbPolyline
90
4
70
1
43
0.0
10
11.791000031914297
20
-6.5500004169215824
10
11.041000007978575
20
-6.5500004169215824
42
-0.99999999999999989
10
11.041000007978575
20
-6.4499999341356933
10
11.791000031914297
20
-6.4499999341356933
42
-0.99999999999999989
0
LWPOLYLINE
5
217
100
AcDbEntity
8
0
100
AcDbPolyline
90
4
70
1
43
0.0
10
12.022000007978574
20
-6.5500004169215824
42
-0.99999999999999989
10
12.022000007978574
20
-6.4499999341356933
10
12.772000031914297
20
-6.4499999341356933
42
-0.99999999999999989
10
12.772000031914297
20
-6.5500004169215824
0
LINE
5
218
100
AcDbEntity
8
0
100
AcDbLine
10
-0.46770330890840928
20
-3.5000001117000425
30
0
11
-0.99244916397729532
21
-3.5000001117000425
31
0
0
ARC
5
219
100
AcDbEntity
8
0
100
AcDbCircle
10
-0.99244916397729532
20
-4.0000001117000421
30
0
40
0.49999999999999911
100
AcDbArc
50
90
51
270
0
LINE
5
220
100
AcDbEntity
8
0
100
AcDbLine
10
-0.99244916397729532
20
-4.5000001117000412
30
0
11
-0.47022893842210245
21
-4.5000001117000421
31
0
0
CIRCLE
5
221
100
AcDbEntity
8
0
100
AcDbCircle
10
-0.99244916397729532
20
-4.0000001117000421
30
0
40
0.12499999999999997
0
LINE
5
222
100
AcDbEntity
8
0
100
AcDbLine
10
14.54731887130106
20
-4.5027196245166383
30
0
11
14.997515049947111
21
-4.5049575132320037
31
0
0
ARC
5
223
100
AcDbEntity
8
0
100
AcDbCircle
10
15.000000478714469
20
-4.0049636906263215
30
0
40
0.5
100
AcDbArc
50
-90.284810330224744
51
89.715189669775214
0
LINE
5
224
100
AcDbEntity
8
0
100
AcDbLine
10
15.002485907481827
20
-3.5049698680206394
30
0
11
14.552191662732298
21
-3.5027314918266224
31
0
0
CIRCLE
5
225
100
AcDbEntity
8
0
100
AcDbCircle
10
15.000000478714469
20
-4.0000001117000421
30
0
40
0.12499999999999949
0
LINE
5
226
100
AcDbEntity
8
0
100
AcDbLine
10
11.949997803824877
20
-4.0049636906263251
30
0
11
11.899984376007788
21
-4.0049636906263251
31
0
0
LINE
5
227
100
AcDbEntity
8
0
100
AcDbLine
10
11.949999523399182
20
-4.0036164348439849
30
0
11
11.899996142010302
21
-4.0036873479097297
31
0
0
ENDSEC
0
SECTION
2
OBJECTS
0
DICTIONARY
5
C
100
AcDbDictionary
3
ACAD_GROUP
350
D
3
ACAD_MLINESTYLE
350
17
0
DICTIONARY
5
D
100
AcDbDictionary
0
DICTIONARY
5
1A
330
C
100
AcDbDictionary
0
DICTIONARY
5
17
100
AcDbDictionary
0
ENDSEC
0
EOF
