0
SECTION
2
HEADER
9
$INSUNITS
70
1
9
$ACADVER
1
AC1014
9
$HANDSEED
5
FFFF
0
ENDSEC
0
SECTION
2
TABLES
0
TABLE
2
VPORT
5
8
100
AcDbSymbolTable
0
ENDTAB
0
TABLE
2
LTYPE
5
5
100
AcDbSymbolTable
0
LTYPE
5
14
100
AcDbSymbolTableRecord
100
AcDbLinetypeTableRecord
2
BYBLOCK
70
0
0
LTYPE
5
15
100
AcDbSymbolTableRecord
100
AcDbLinetypeTableRecord
2
BYLAYER
70
0
0
ENDTAB
0
TABLE
2
LAYER
5
2
100
AcDbSymbolTable
70
2
0
LAYER
5
50
100
AcDbSymbolTableRecord
100
AcDbLayerTableRecord
2
0
70
0
6
CONTINUOUS
0
ENDTAB
0
TABLE
2
STYLE
5
3
100
AcDbSymbolTable
70
1
0
STYLE
5
11
100
AcDbSymbolTableRecord
100
AcDbTextStyleTableRecord
2
STANDARD
70
0
0
ENDTAB
0
TABLE
2
VIEW
5
6
100
AcDbSymbolTable
70
0
0
ENDTAB
0
TABLE
2
UCS
5
7
100
AcDbSymbolTable
70
0
0
ENDTAB
0
TABLE
2
APPID
5
9
100
AcDbSymbolTable
70
2
0
APPID
5
12
100
AcDbSymbolTableRecord
100
AcDbRegAppTableRecord
2
ACAD
70
0
0
ENDTAB
0
TABLE
2
DIMSTYLE
5
A
100
AcDbSymbolTable
70
1
0
ENDTAB
0
TABLE
2
BLOCK_RECORD
5
1
100
AcDbSymbolTable
70
1
0
BLOCK_RECORD
5
1F
100
AcDbSymbolTableRecord
100
AcDbBlockTableRecord
2
*MODEL_SPACE
0
BLOCK_RECORD
5
1B
100
AcDbSymbolTableRecord
100
AcDbBlockTableRecord
2
*PAPER_SPACE
0
ENDTAB
0
ENDSEC
0
SECTION
2
BLOCKS
0
BLOCK
5
20
100
AcDbEntity
100
AcDbBlockBegin
2
*MODEL_SPACE
0
ENDBLK
5
21
100
AcDbEntity
100
AcDbBlockEnd
0
BLOCK
5
1C
100
AcDbEntity
100
AcDbBlockBegin
2
*PAPER_SPACE
0
ENDBLK
5
1D
100
AcDbEntity
100
AcDbBlockEnd
0
ENDSEC
0
SECTION
2
ENTITIES
0
LINE
5
100
100
AcDbEntity
8
0
100
AcDbLine
10
4.2808283815174724
20
1.3112870369588462e-16
30
0
11
5.249999917398287
21
6.5564351847942307e-16
31
0
0
LINE
5
101
100
AcDbEntity
8
0
100
AcDbLine
10
8.2499998723428085
20
-12
30
0
11
0
21
-12
31
0
0
LINE
5
102
100
AcDbEntity
8
0
100
AcDbLine
10
8.3778954452571934
20
-10.276141725982194
30
0
11
5.7442087715695216
21
-5.4477161575547974
31
0
0
LINE
5
103
100
AcDbEntity
8
0
100
AcDbLine
10
7.1210775583244281
20
-9.7605737769655327
30
0
11
5.5308283589897336
21
-6.8451169115185921
31
0
0
LINE
5
104
100
AcDbEntity
8
0
100
AcDbLine
10
1.747893069887825
20
-9.8271471628921443
30
0
11
4.0308283815174724
21
-3.6306084598973927
31
0
0
LINE
5
105
100
AcDbEntity
8
0
100
AcDbLine
10
8.4999998723428067
20
-10.754993856662768
30
0
11
8.4999998723428067
21
-11.749999999999998
31
0
0
LINE
5
106
100
AcDbEntity
8
0
100
AcDbLine
10
-0.24999999249075366
20
-11.999999819778081
30
0
11
0
21
-11.999999819778081
31
0
0
LINE
5
107
100
AcDbEntity
8
0
100
AcDbLine
10
-0.49999999249075444
20
-10.749999842305822
30
0
11
-0.49999999249075355
21
-11.749999819778081
31
0
0
LINE
5
108
100
AcDbEntity
8
0
100
AcDbLine
10
5.499999917398287
20
-0.24999999999999986
30
0
11
5.499999917398287
21
-4.4900118961936526
31
0
0
LINE
5
109
100
AcDbEntity
8
0
100
AcDbLine
10
0
20
-10.499999842305821
30
0
11
-0.24999999249075339
21
-10.499999842305821
31
0
0
CIRCLE
5
110
100
AcDbEntity
8
0
100
AcDbCircle
10
0
20
-10.999999834796574
30
0
40
0.10000000000000052
0
CIRCLE
5
111
100
AcDbEntity
8
0
100
AcDbCircle
10
1.1428571428571428
20
-10.999999834796574
30
0
40
0.10000000000000052
0
CIRCLE
5
112
100
AcDbEntity
8
0
100
AcDbCircle
10
2.2857142857142856
20
-10.999999834796574
30
0
40
0.10000000000000052
0
CIRCLE
5
113
100
AcDbEntity
8
0
100
AcDbCircle
10
3.4285714285714279
20
-10.999999834796574
30
0
40
0.10000000000000052
0
CIRCLE
5
114
100
AcDbEntity
8
0
100
AcDbCircle
10
4.5714285714285712
20
-10.999999834796574
30
0
40
0.10000000000000052
0
CIRCLE
5
115
100
AcDbEntity
8
0
100
AcDbCircle
10
5.7142857142857144
20
-10.999999834796574
30
0
40
0.10000000000000052
0
CIRCLE
5
116
100
AcDbEntity
8
0
100
AcDbCircle
10
6.8571428571428559
20
-10.999999834796574
30
0
40
0.10000000000000052
0
CIRCLE
5
117
100
AcDbEntity
8
0
100
AcDbCircle
10
7.9999999999999991
20
-10.999999834796574
30
0
40
0.10000000000000052
0
CIRCLE
5
118
100
AcDbEntity
8
0
100
AcDbCircle
10
0
20
-11.499999834796574
30
0
40
0.10000000000000052
0
CIRCLE
5
119
100
AcDbEntity
8
0
100
AcDbCircle
10
1.1428571428571428
20
-11.499999834796574
30
0
40
0.10000000000000052
0
CIRCLE
5
120
100
AcDbEntity
8
0
100
AcDbCircle
10
2.2857142857142856
20
-11.499999834796574
30
0
40
0.10000000000000052
0
CIRCLE
5
121
100
AcDbEntity
8
0
100
AcDbCircle
10
3.4285714285714279
20
-11.499999834796574
30
0
40
0.10000000000000052
0
CIRCLE
5
122
100
AcDbEntity
8
0
100
AcDbCircle
10
4.5714285714285712
20
-11.499999834796574
30
0
40
0.10000000000000052
0
CIRCLE
5
123
100
AcDbEntity
8
0
100
AcDbCircle
10
5.7142857142857144
20
-11.499999834796574
30
0
40
0.10000000000000052
0
CIRCLE
5
124
100
AcDbEntity
8
0
100
AcDbCircle
10
6.8571428571428559
20
-11.499999834796574
30
0
40
0.10000000000000052
0
CIRCLE
5
125
100
AcDbEntity
8
0
100
AcDbCircle
10
7.9999999999999991
20
-11.499999834796574
30
0
40
0.10000000000000052
0
CIRCLE
5
126
100
AcDbEntity
8
0
100
AcDbCircle
10
3.4999999549445202
20
-10.004288855248388
30
0
40
0.10000000000000002
0
CIRCLE
5
127
100
AcDbEntity
8
0
100
AcDbCircle
10
2.9999999549445202
20
-9.5042888552483884
30
0
40
0.10000000000000002
0
CIRCLE
5
128
100
AcDbEntity
8
0
100
AcDbCircle
10
3.4999999549445202
20
-9.0042888552483884
30
0
40
0.10000000000000002
0
CIRCLE
5
129
100
AcDbEntity
8
0
100
AcDbCircle
10
2.9999999549445202
20
-8.5042888552483884
30
0
40
0.10000000000000002
0
CIRCLE
5
130
100
AcDbEntity
8
0
100
AcDbCircle
10
3.4999999549445202
20
-8.0042888552483884
30
0
40
0.10000000000000002
0
CIRCLE
5
131
100
AcDbEntity
8
0
100
AcDbCircle
10
4.4999999324167801
20
-9.8029597439736378
30
0
40
0.099999999999999728
0
CIRCLE
5
132
100
AcDbEntity
8
0
100
AcDbCircle
10
4.4999999324167801
20
-6.2029597439736381
30
0
40
0.099999999999999728
0
CIRCLE
5
133
100
AcDbEntity
8
0
100
AcDbCircle
10
4.4999999324167801
20
-4.4029597439736383
30
0
40
0.099999999999999728
0
CIRCLE
5
134
100
AcDbEntity
8
0
100
AcDbCircle
10
4.4999999324167801
20
-2.6029597439736385
30
0
40
0.099999999999999728
0
CIRCLE
5
135
100
AcDbEntity
8
0
100
AcDbCircle
10
4.4999999324167801
20
-0.80295974397363912
30
0
40
0.099999999999999728
0
CIRCLE
5
136
100
AcDbEntity
8
0
100
AcDbCircle
10
5.9999999098890404
20
-9.5090137176076279
30
0
40
0.099999999999999645
0
CIRCLE
5
137
100
AcDbEntity
8
0
100
AcDbCircle
10
5.9999999098890404
20
-9.5090137176076279
30
0
40
0.099999999999999645
0
CIRCLE
5
138
100
AcDbEntity
8
0
100
AcDbCircle
10
6.4999999549445198
20
-10.004288855248388
30
0
40
0.10000000000000002
0
CIRCLE
5
139
100
AcDbEntity
8
0
100
AcDbCircle
10
5.9999999098890404
20
-8.5090137176076279
30
0
40
0.099999999999999645
0
CIRCLE
5
140
100
AcDbEntity
8
0
100
AcDbCircle
10
4.9999999249075335
20
-9.2994618126126483
30
0
40
0.10000000000000032
0
CIRCLE
5
141
100
AcDbEntity
8
0
100
AcDbCircle
10
4.9999999324167801
20
-1.8029597439736391
30
0
40
0.099999999999999728
0
CIRCLE
5
142
100
AcDbEntity
8
0
100
AcDbCircle
10
4.9999999324167801
20
-3.6029597439736385
30
0
40
0.099999999999999728
0
CIRCLE
5
143
100
AcDbEntity
8
0
100
AcDbCircle
10
4.9999999324167801
20
-5.4029597439736374
30
0
40
0.099999999999999728
0
CIRCLE
5
144
100
AcDbEntity
8
0
100
AcDbCircle
10
4.9999999324167801
20
-7.202959743973639
30
0
40
0.099999999999999728
0
LINE
5
145
100
AcDbEntity
8
0
100
AcDbLine
10
2.2170646282963786
20
-10.499999842305824
30
0
11
4.0308283815174724
21
-10.499999842305822
31
0
0
LINE
5
146
100
AcDbEntity
8
0
100
AcDbLine
10
5.5308283589897327
20
-10.499999842305821
30
0
11
6.6821297718672374
21
-10.499999842305819
31
0
0
ARC
5
147
100
AcDbEntity
8
0
100
AcDbCircle
10
2.2170646282963773
20
-9.9999998423058258
30
0
40
0.49999999999999795
100
AcDbArc
50
159.77514056883146
51
270.00000000000017
0
LINE
5
148
100
AcDbEntity
8
0
100
AcDbLine
10
0.15135639429821146
20
-10.499999842305821
30
0
11
0
21
-10.499999842305821
31
0
0
ARC
5
149
100
AcDbEntity
8
0
100
AcDbCircle
10
0.15135639429821016
20
-9.9999998423058187
30
0
40
0.50000000000000255
100
AcDbArc
50
270.00000000000017
51
339.7751405688316
0
LINE
5
150
100
AcDbEntity
8
0
100
AcDbLine
10
4.0308283815174724
20
-0.24999999999999989
30
0
11
4.0308283815174724
21
-0.73797182475949941
31
0
0
ARC
5
151
100
AcDbEntity
8
0
100
AcDbCircle
10
3.0308283815174728
20
-0.73797182475949941
30
0
40
1
100
AcDbArc
50
-20.224859431168071
51
0
0
ARC
5
152
100
AcDbEntity
8
0
100
AcDbCircle
10
7.4999999173981982
20
-4.4900118961936677
30
0
40
1.999999999999911
100
AcDbArc
50
180
51
208.61045966596606
0
ARC
5
153
100
AcDbEntity
8
0
100
AcDbCircle
10
-0.24999999249075097
20
-10.749999842305824
30
0
40
0.25000000000000339
100
AcDbArc
50
90.000000000000568
51
180
0
CIRCLE
5
154
100
AcDbEntity
8
0
100
AcDbCircle
10
3.5000001117000425
20
-6.8000002170172253
30
0
40
0.10000000319142979
0
ARC
5
155
100
AcDbEntity
8
0
100
AcDbCircle
10
4.0308283815174724
20
-9.9000003159515497
30
0
40
0.062499999999999799
100
AcDbArc
50
0
51
180
0
LWPOLYLINE
5
156
100
AcDbEntity
8
0
100
AcDbPolyline
90
4
70
1
43
0.0
10
3.9683283815174728
20
-9.6498427721597633
10
3.9683283815174728
20
-9.1500003159515497
42
-0.99999999999999989
10
4.0933283815174724
20
-9.1500003159515497
10
4.0933283815174724
20
-9.6498427721597633
42
-0.99999999999999989
0
LWPOLYLINE
5
157
100
AcDbEntity
8
0
100
AcDbPolyline
90
4
70
1
43
0.0
10
3.9683283815174728
20
-8.8998427721597633
10
3.9683283815174728
20
-8.4000003159515479
42
-0.99999999999999989
10
4.0933283815174724
20
-8.4000003159515479
10
4.0933283815174724
20
-8.8998427721597633
42
-0.99999999999999989
0
LWPOLYLINE
5
158
100
AcDbEntity
8
0
100
AcDbPolyline
90
4
70
1
43
0.0
10
3.9683283815174728
20
-8.1498427721597633
10
3.9683283815174728
20
-7.6500003159515479
42
-0.99999999999999989
10
4.0933283815174724
20
-7.6500003159515479
10
4.0933283815174724
20
-8.1498427721597633
42
-0.99999999999999989
0
LWPOLYLINE
5
159
100
AcDbEntity
8
0
100
AcDbPolyline
90
4
70
1
43
0.0
10
3.9683283815174728
20
-7.3998427721597624
10
3.9683283815174728
20
-6.9000003159515479
42
-0.99999999999999989
10
4.0933283815174724
20
-6.9000003159515479
10
4.0933283815174724
20
-7.3998427721597624
42
-0.99999999999999989
0
LWPOLYLINE
5
160
100
AcDbEntity
8
0
100
AcDbPolyline
90
4
70
1
43
0.0
10
3.9683283815174728
20
-6.6498427721597624
10
3.9683283815174728
20
-6.1500003159515471
42
-0.99999999999999989
10
4.0933283815174724
20
-6.1500003159515471
10
4.0933283815174724
20
-6.6498427721597624
42
-0.99999999999999989
0
LWPOLYLINE
5
161
100
AcDbEntity
8
0
100
AcDbPolyline
90
4
70
1
43
0.0
10
3.9683283815174728
20
-5.8998427721597615
10
3.9683283815174728
20
-5.4000003159515471
42
-0.99999999999999989
10
4.0933283815174724
20
-5.4000003159515471
10
4.0933283815174724
20
-5.8998427721597615
42
-0.99999999999999989
0
LWPOLYLINE
5
162
100
AcDbEntity
8
0
100
AcDbPolyline
90
4
70
1
43
0.0
10
3.9683283815174728
20
-5.1498427721597615
10
3.9683283815174728
20
-4.6500003159515462
42
-0.99999999999999989
10
4.0933283815174724
20
-4.6500003159515462
10
4.0933283815174724
20
-5.1498427721597615
42
-0.99999999999999989
0
LWPOLYLINE
5
163
100
AcDbEntity
8
0
100
AcDbPolyline
90
4
70
1
43
0.0
10
3.9683283815174728
20
-10.337752982118698
10
3.9683283815174728
20
-9.9000003159515497
42
-0.99999999999999989
10
4.0933283815174724
20
-9.9000003159515497
10
4.093328381517467
20
-10.337752982118698
42
-0.99999999999999989
0
LWPOLYLINE
5
164
100
AcDbEntity
8
0
100
AcDbPolyline
90
4
70
1
43
0.0
10
3.9683283815174728
20
-9.6498427721597633
10
3.9683283815174728
20
-9.1500003159515497
42
-0.99999999999999989
10
4.0933283815174724
20
-9.1500003159515497
10
4.0933283815174724
20
-9.6498427721597633
42
-0.99999999999999989
0
LWPOLYLINE
5
165
100
AcDbEntity
8
0
100
AcDbPolyline
90
4
70
1
43
0.0
10
3.9683283815174728
20
-8.8998427721597633
10
3.9683283815174728
20
-8.4000003159515479
42
-0.99999999999999989
10
4.0933283815174724
20
-8.4000003159515479
10
4.0933283815174724
20
-8.8998427721597633
42
-0.99999999999999989
0
LWPOLYLINE
5
166
100
AcDbEntity
8
0
100
AcDbPolyline
90
4
70
1
43
0.0
10
3.9683283815174728
20
-8.1498427721597633
10
3.9683283815174728
20
-7.6500003159515479
42
-0.99999999999999989
10
4.0933283815174724
20
-7.6500003159515479
10
4.0933283815174724
20
-8.1498427721597633
42
-0.99999999999999989
0
LWPOLYLINE
5
167
100
AcDbEntity
8
0
100
AcDbPolyline
90
4
70
1
43
0.0
10
3.9683283815174728
20
-7.3998427721597624
10
3.9683283815174728
20
-6.9000003159515479
42
-0.99999999999999989
10
4.0933283815174724
20
-6.9000003159515479
10
4.0933283815174724
20
-7.3998427721597624
42
-0.99999999999999989
0
LWPOLYLINE
5
168
100
AcDbEntity
8
0
100
AcDbPolyline
90
4
70
1
43
0.0
10
3.9683283815174728
20
-7.3998427721597624
10
3.9683283815174728
20
-6.9000003159515479
42
-0.99999999999999989
10
4.0933283815174724
20
-6.9000003159515479
10
4.0933283815174724
20
-7.3998427721597624
42
-0.99999999999999989
0
LINE
5
169
100
AcDbEntity
8
0
100
AcDbLine
10
5.5908436048704928
20
-10.336087198467386
30
0
11
5.5933266107645432
21
-10.004120160375919
31
0
0
ARC
5
170
100
AcDbEntity
8
0
100
AcDbCircle
10
5.5308283589897327
20
-10.003652693700863
30
0
40
0.06249999999999898
100
AcDbArc
50
-0.42854587641130387
51
179.57145412359043
0
LINE
5
171
100
AcDbEntity
8
0
100
AcDbLine
10
5.4683301072149213
20
-10.003185227025808
30
0
11
5.4658471013208709
21
-10.335152265117275
31
0
0
ARC
5
172
100
AcDbEntity
8
0
100
AcDbCircle
10
5.5283453530956814
20
-10.335619731792331
30
0
40
0.062499999999999667
100
AcDbArc
50
179.57145412358875
51
359.57145412359046
0
LWPOLYLINE
5
173
100
AcDbEntity
8
0
100
AcDbPolyline
90
4
70
1
43
0.0
10
5.4683283589897327
20
-9.7036526937008638
10
5.4683283589897327
20
-9.3036526937008635
42
-0.99999999999999989
10
5.5933283589897327
20
-9.3036526937008635
10
5.5933283589897327
20
-9.7036526937008638
42
-0.99999999999999989
0
LWPOLYLINE
5
174
100
AcDbEntity
8
0
100
AcDbPolyline
90
4
70
1
43
0.0
10
5.4683283589897327
20
-9.0036526937008645
10
5.4683283589897327
20
-8.6036526937008642
42
-0.99999999999999989
10
5.5933283589897327
20
-8.6036526937008642
10
5.5933283589897327
20
-9.0036526937008645
42
-0.99999999999999989
0
LWPOLYLINE
5
175
100
AcDbEntity
8
0
100
AcDbPolyline
90
4
70
1
43
0.0
10
5.4683283589897327
20
-8.3036526937008652
10
5.4683283589897327
20
-7.9036526937008649
42
-0.99999999999999989
10
5.5933283589897327
20
-7.9036526937008649
10
5.5933283589897327
20
-8.3036526937008652
42
-0.99999999999999989
0
LWPOLYLINE
5
176
100
AcDbEntity
8
0
100
AcDbPolyline
90
4
70
1
43
0.0
10
5.4683283589897327
20
-7.6036526937008659
10
5.4683283589897327
20
-7.2036526937008647
42
-0.99999999999999989
10
5.5933283589897327
20
-7.2036526937008647
10
5.5933283589897327
20
-7.6036526937008659
42
-0.99999999999999989
0
ARC
5
177
100
AcDbEntity
8
0
100
AcDbCircle
10
6.6821297718672339
20
-9.9999998423058187
30
0
40
0.50000000000000122
100
AcDbArc
50
-89.999999999999588
51
28.610459665965035
0
ARC
5
178
100
AcDbEntity
8
0
100
AcDbCircle
10
-0.2499999924907543
20
-11.749999819778083
30
0
40
0.24999999999999925
100
AcDbArc
50
180
51
270.00000000000017
0
ARC
5
179
100
AcDbEntity
8
0
100
AcDbCircle
10
8.2499998723428032
20
-11.749999999999996
30
0
40
0.25000000000000339
100
AcDbArc
50
270.00000000000119
51
360
0
ARC
5
180
100
AcDbEntity
8
0
100
AcDbCircle
10
7.4999998723428627
20
-10.75499385666275
30
0
40
0.9999999999999436
100
AcDbArc
50
0
51
28.610459665965802
0
ARC
5
181
100
AcDbEntity
8
0
100
AcDbCircle
10
4.2808283815174724
20
-0.24999999999999975
30
0
40
0.24999999999999989
100
AcDbArc
50
90
51
180
0
ARC
5
182
100
AcDbEntity
8
0
100
AcDbCircle
10
5.249999917398287
20
-0.24999999999999925
30
0
40
0.24999999999999989
100
AcDbArc
50
0
51
90
0
LINE
5
183
100
AcDbEntity
8
0
100
AcDbLine
10
3.8182402605377836
20
-1.4933476861781676
30
0
11
3.668413632576268
21
-1.4933476861781676
31
0
0
LINE
5
184
100
AcDbEntity
8
0
100
AcDbLine
10
3.4367278672578845
20
-1.3372716242814808
30
0
11
3.3632723497593413
21
-1.1560760938109844
31
0
0
LINE
5
185
100
AcDbEntity
8
0
100
AcDbLine
10
3.1315865844409574
20
-1.0000000319142979
30
0
11
3.1000000957428937
21
-1.0000000319142979
31
0
0
LINE
5
186
100
AcDbEntity
8
0
100
AcDbLine
10
3.0000000957428936
20
-1.100000031914298
30
0
11
3.0000000957428936
21
-3.7142852763357275
31
0
0
ARC
5
187
100
AcDbEntity
8
0
100
AcDbCircle
10
3.1315865844409583
20
-1.2500000319142976
30
0
40
0.24999999999999975
100
AcDbArc
50
22.067321107486741
51
90.000000000000199
0
ARC
5
188
100
AcDbEntity
8
0
100
AcDbCircle
10
3.1000000957428937
20
-1.100000031914298
30
0
40
0.099999999999999992
100
AcDbArc
50
90
51
180
0
ARC
5
189
100
AcDbEntity
8
0
100
AcDbCircle
10
3.668413632576268
20
-1.2433476861781676
30
0
40
0.25000000000000006
100
AcDbArc
50
202.06732110748669
51
270
0
LINE
5
190
100
AcDbEntity
8
0
100
AcDbLine
10
3.8182402605377836
20
-1.4933476861781676
30
0
11
3.9691714983345827
21
-1.0836771835868557
31
0
0
LINE
5
191
100
AcDbEntity
8
0
100
AcDbLine
10
0.62052795270676653
20
-10.1728525217195
30
0
11
3.0000000957428936
21
-3.7142852763357275
31
0
0
CIRCLE
5
192
100
AcDbEntity
8
0
100
AcDbCircle
10
2.5000000797857447
20
-10.000000319142979
30
0
40
0.099999999999999603
0
CIRCLE
5
193
100
AcDbEntity
8
0
100
AcDbCircle
10
2.5000000797857447
20
-9.0000002872286817
30
0
40
0.099999999999999603
0
LWPOLYLINE
5
194
100
AcDbEntity
8
0
100
AcDbPolyline
90
4
70
1
43
0.0
10
4.0933283815174724
20
-4.1000001308486214
10
4.0933283815174724
20
-4.4028244479326748
42
-0.99999999999999989
10
3.9683283815174728
20
-4.4028244479326748
10
3.9683283815174728
20
-4.1000001308486214
42
-0.99999999999999989
0
ENDSEC
0
SECTION
2
OBJECTS
0
DICTIONARY
5
C
100
AcDbDictionary
3
ACAD_GROUP
350
D
3
ACAD_MLINESTYLE
350
17
0
DICTIONARY
5
D
100
AcDbDictionary
0
DICTIONARY
5
1A
330
C
100
AcDbDictionary
0
DICTIONARY
5
17
100
AcDbDictionary
0
ENDSEC
0
EOF
