0
SECTION
2
HEADER
9
$INSUNITS
70
1
9
$ACADVER
1
AC1014
9
$HANDSEED
5
FFFF
0
ENDSEC
0
SECTION
2
TABLES
0
TABLE
2
VPORT
5
8
100
AcDbSymbolTable
0
ENDTAB
0
TABLE
2
LTYPE
5
5
100
AcDbSymbolTable
0
LTYPE
5
14
100
AcDbSymbolTableRecord
100
AcDbLinetypeTableRecord
2
BYBLOCK
70
0
0
LTYPE
5
15
100
AcDbSymbolTableRecord
100
AcDbLinetypeTableRecord
2
BYLAYER
70
0
0
ENDTAB
0
TABLE
2
LAYER
5
2
100
AcDbSymbolTable
70
2
0
LAYER
5
50
100
AcDbSymbolTableRecord
100
AcDbLayerTableRecord
2
0
70
0
6
CONTINUOUS
0
ENDTAB
0
TABLE
2
STYLE
5
3
100
AcDbSymbolTable
70
1
0
STYLE
5
11
100
AcDbSymbolTableRecord
100
AcDbTextStyleTableRecord
2
STANDARD
70
0
0
ENDTAB
0
TABLE
2
VIEW
5
6
100
AcDbSymbolTable
70
0
0
ENDTAB
0
TABLE
2
UCS
5
7
100
AcDbSymbolTable
70
0
0
ENDTAB
0
TABLE
2
APPID
5
9
100
AcDbSymbolTable
70
2
0
APPID
5
12
100
AcDbSymbolTableRecord
100
AcDbRegAppTableRecord
2
ACAD
70
0
0
ENDTAB
0
TABLE
2
DIMSTYLE
5
A
100
AcDbSymbolTable
70
1
0
ENDTAB
0
TABLE
2
BLOCK_RECORD
5
1
100
AcDbSymbolTable
70
1
0
BLOCK_RECORD
5
1F
100
AcDbSymbolTableRecord
100
AcDbBlockTableRecord
2
*MODEL_SPACE
0
BLOCK_RECORD
5
1B
100
AcDbSymbolTableRecord
100
AcDbBlockTableRecord
2
*PAPER_SPACE
0
ENDTAB
0
ENDSEC
0
SECTION
2
BLOCKS
0
BLOCK
5
20
100
AcDbEntity
100
AcDbBlockBegin
2
*MODEL_SPACE
0
ENDBLK
5
21
100
AcDbEntity
100
AcDbBlockEnd
0
BLOCK
5
1C
100
AcDbEntity
100
AcDbBlockBegin
2
*PAPER_SPACE
0
ENDBLK
5
1D
100
AcDbEntity
100
AcDbBlockEnd
0
ENDSEC
0
SECTION
2
ENTITIES
0
LWPOLYLINE
5
100
100
AcDbEntity
8
0
100
AcDbPolyline
90
18
70
1
43
0.0
10
12
20
-14.293587527382137
10
12
20
0
10
10.999999977472259
20
0
10
10.999999977472259
20
-0.49999999249075339
10
1.4999999774722601
20
-0.49999999249075339
10
1.4999999774722601
20
0
10
1.1000000351057277
20
0
10
1.1000000351057277
20
-1.0000000319142979
10
1.0000000319142979
20
-1.0000000319142979
10
0
20
-1.0000000319142979
10
0
20
-25.900000826580317
10
1.0000000319142979
20
-25.900000826580317
10
1.0000000319142979
20
-25.999999609519175
10
1.0000000319142979
20
-26.749999999999989
42
0.41421356237308338
10
1.2500000319142979
20
-26.999999999999986
10
4.1605122551199365
20
-26.999999999999993
42
0.284384721315456
10
6.8453099271363733
20
-25.338604295650967
10
11.684797672016455
20
-15.63219182303307
42
0.11614716824031479
0
LWPOLYLINE
5
101
100
AcDbEntity
8
0
100
AcDbPolyline
90
6
70
1
43
0.0
10
10.999999834796574
20
-2.0000000319142988
10
2.000000031914297
20
-2.0000000319142983
42
0.41421356237309503
10
1.0000000319142979
20
-3.000000031914297
10
1.0000000319142979
20
-4.4815405798226733
10
9.9999998347965739
20
-4.4815405798226733
42
0.41421356237309442
10
10.999999834796574
20
-3.4815405798226737
0
LINE
5
102
100
AcDbEntity
8
0
100
AcDbLine
10
1.2000000962729653
20
-5.1500000939594468
30
0
11
1.2000000382971574
21
-5.8500002570978236
31
0
0
ARC
5
103
100
AcDbEntity
8
0
100
AcDbCircle
10
1.3500000430843011
20
-5.8500002695212094
30
0
40
0.15000000478714415
100
AcDbArc
50
-180.00000467631085
51
4.6763108505543413e-06
0
LINE
5
104
100
AcDbEntity
8
0
100
AcDbLine
10
1.4999999774722601
20
-5.8500002570978298
30
0
11
1.4999999774722601
21
-5.1500001063828273
31
0
0
ARC
5
105
100
AcDbEntity
8
0
100
AcDbCircle
10
1.3500000430843011
20
-5.1500001063828273
30
0
40
0.149999934387959
100
AcDbArc
50
0
51
179.99999532368915
0
LINE
5
106
100
AcDbEntity
8
0
100
AcDbLine
10
1.3500000368726128
20
-5.0000001595714911
30
0
11
1.3500000078847088
21
-6.0000001914857872
31
0
0
LINE
5
107
100
AcDbEntity
8
0
100
AcDbLine
10
1.2000000962729653
20
-7.1500001577880434
30
0
11
1.2000000962729653
21
-7.8500003209264255
31
0
0
ARC
5
108
100
AcDbEntity
8
0
100
AcDbCircle
10
1.3500000430843022
20
-7.8500003209264255
30
0
40
0.1499999468113368
100
AcDbArc
50
-180
51
0
0
LINE
5
109
100
AcDbEntity
8
0
100
AcDbLine
10
1.4999999774722601
20
-7.8500003209264255
30
0
11
1.4999999774722601
21
-7.1500001577880434
31
0
0
ARC
5
110
100
AcDbEntity
8
0
100
AcDbCircle
10
1.3500000430843022
20
-7.1500001577880434
30
0
40
0.14999993438795794
100
AcDbArc
50
0
51
180
0
LINE
5
111
100
AcDbEntity
8
0
100
AcDbLine
10
1.3500000368726128
20
-7.0000002234000851
30
0
11
1.3500000368726128
21
-8.000000255314383
31
0
0
LINE
5
112
100
AcDbEntity
8
0
100
AcDbLine
10
1.2000000962729653
20
-9.1500002216166383
30
0
11
1.2000000962729653
21
-9.8500003847550204
31
0
0
ARC
5
113
100
AcDbEntity
8
0
100
AcDbCircle
10
1.3500000430843022
20
-9.8500003847550204
30
0
40
0.1499999468113368
100
AcDbArc
50
-180
51
0
0
LINE
5
114
100
AcDbEntity
8
0
100
AcDbLine
10
1.4999999774722603
20
-9.8500003847550204
30
0
11
1.4999999774722603
21
-9.1500002216166383
31
0
0
ARC
5
115
100
AcDbEntity
8
0
100
AcDbCircle
10
1.3500000430843022
20
-9.1500002216166383
30
0
40
0.14999993438795811
100
AcDbArc
50
0
51
180
0
LINE
5
116
100
AcDbEntity
8
0
100
AcDbLine
10
1.3500000368726128
20
-9.0000002872286817
30
0
11
1.3500000368726128
21
-10.000000319142979
31
0
0
LINE
5
117
100
AcDbEntity
8
0
100
AcDbLine
10
1.2000000962729653
20
-11.150000355844421
30
0
11
1.2000000962729653
21
-11.850000378184431
31
0
0
ARC
5
118
100
AcDbEntity
8
0
100
AcDbCircle
10
1.3500000430843022
20
-11.850000378184431
30
0
40
0.1499999468113368
100
AcDbArc
50
-180
51
0
0
LINE
5
119
100
AcDbEntity
8
0
100
AcDbLine
10
1.4999999774722601
20
-11.850000378184431
30
0
11
1.4999999774722601
21
-11.150000355844421
31
0
0
ARC
5
120
100
AcDbEntity
8
0
100
AcDbCircle
10
1.3500000430843022
20
-11.150000355844421
30
0
40
0.14999993438795794
100
AcDbArc
50
0
51
180
0
LINE
5
121
100
AcDbEntity
8
0
100
AcDbLine
10
1.3500000368726128
20
-11.000000351057277
30
0
11
1.3500000368726128
21
-12.000000382971574
31
0
0
LINE
5
122
100
AcDbEntity
8
0
100
AcDbLine
10
1.2000000962729653
20
-13.150000419673017
30
0
11
1.2000000962729653
21
-13.850000442013027
31
0
0
ARC
5
123
100
AcDbEntity
8
0
100
AcDbCircle
10
1.3500000430843022
20
-13.850000442013027
30
0
40
0.1499999468113368
100
AcDbArc
50
-180
51
0
0
LINE
5
124
100
AcDbEntity
8
0
100
AcDbLine
10
1.4999999774722601
20
-13.850000442013027
30
0
11
1.4999999774722601
21
-13.150000419673017
31
0
0
ARC
5
125
100
AcDbEntity
8
0
100
AcDbCircle
10
1.3500000430843022
20
-13.150000419673017
30
0
40
0.14999993438795794
100
AcDbArc
50
0
51
180
0
LINE
5
126
100
AcDbEntity
8
0
100
AcDbLine
10
1.3500000368726128
20
-13.000000414885873
30
0
11
1.3500000368726126
21
-14.00000044680017
31
0
0
LINE
5
127
100
AcDbEntity
8
0
100
AcDbLine
10
1.2000000382971574
20
-15.150000483501612
30
0
11
1.2000000382971574
21
-15.850000505841622
31
0
0
ARC
5
128
100
AcDbEntity
8
0
100
AcDbCircle
10
1.3500000430843022
20
-15.850000505841622
30
0
40
0.15000000478714468
100
AcDbArc
50
-180
51
0
0
LINE
5
129
100
AcDbEntity
8
0
100
AcDbLine
10
1.4999999774722601
20
-15.850000505841622
30
0
11
1.4999999774722601
21
-15.150000483501612
31
0
0
ARC
5
130
100
AcDbEntity
8
0
100
AcDbCircle
10
1.3500000430843022
20
-15.150000483501612
30
0
40
0.14999993438795794
100
AcDbArc
50
0
51
180
0
LINE
5
131
100
AcDbEntity
8
0
100
AcDbLine
10
1.3500000078847088
20
-15.000000478714469
30
0
11
1.3500000078847088
21
-16.000000510628766
31
0
0
LINE
5
132
100
AcDbEntity
8
0
100
AcDbLine
10
1.2000000962729653
20
-17.150000547330208
30
0
11
1.2000000962729653
21
-17.850000569670218
31
0
0
ARC
5
133
100
AcDbEntity
8
0
100
AcDbCircle
10
1.3500000430843022
20
-17.850000569670218
30
0
40
0.1499999468113368
100
AcDbArc
50
-180
51
0
0
LINE
5
134
100
AcDbEntity
8
0
100
AcDbLine
10
1.4999999774722601
20
-17.850000569670218
30
0
11
1.4999999774722601
21
-17.150000547330208
31
0
0
ARC
5
135
100
AcDbEntity
8
0
100
AcDbCircle
10
1.3500000430843022
20
-17.150000547330208
30
0
40
0.14999993438795794
100
AcDbArc
50
0
51
180
0
LINE
5
136
100
AcDbEntity
8
0
100
AcDbLine
10
1.3500000368726128
20
-17.000000542543063
30
0
11
1.3500000368726126
21
-18.000000574457363
31
0
0
LINE
5
137
100
AcDbEntity
8
0
100
AcDbLine
10
1.2000000382971574
20
-19.150000611158806
30
0
11
1.2000000382971574
21
-19.850000633498812
31
0
0
ARC
5
138
100
AcDbEntity
8
0
100
AcDbCircle
10
1.3500000430843022
20
-19.850000633498812
30
0
40
0.15000000478714468
100
AcDbArc
50
-180
51
0
0
LINE
5
139
100
AcDbEntity
8
0
100
AcDbLine
10
1.4999999774722601
20
-19.850000633498812
30
0
11
1.4999999774722601
21
-19.150000611158806
31
0
0
ARC
5
140
100
AcDbEntity
8
0
100
AcDbCircle
10
1.3500000430843022
20
-19.150000611158806
30
0
40
0.14999993438795794
100
AcDbArc
50
0
51
180
0
LINE
5
141
100
AcDbEntity
8
0
100
AcDbLine
10
1.3500000078847088
20
-19.00000060637166
30
0
11
1.3500000078847085
21
-20.000000638285957
31
0
0
LWPOLYLINE
5
142
100
AcDbEntity
8
0
100
AcDbPolyline
90
4
70
1
43
0.0
10
1.2000001086963443
20
-5.1500000939594477
42
-0.99999999999999989
10
1.4999999774722601
20
-5.1500000939594477
10
1.4999999774722601
20
-5.8500002570978298
42
-0.99999999999999989
10
1.2000001086963443
20
-5.8500002570978298
0
ARC
5
143
100
AcDbEntity
8
0
100
AcDbCircle
10
2.1500000430843023
20
-5.1500000939594477
30
0
40
0.14999993438795794
100
AcDbArc
50
0
51
180
0
LINE
5
144
100
AcDbEntity
8
0
100
AcDbLine
10
2.0000000382971574
20
-5.1500000939594477
30
0
11
2.0000000382971574
21
-5.8500002570978298
31
0
0
ARC
5
145
100
AcDbEntity
8
0
100
AcDbCircle
10
2.1500000430843023
20
-5.8500002570978298
30
0
40
0.15000000478714468
100
AcDbArc
50
-180
51
0
0
LINE
5
146
100
AcDbEntity
8
0
100
AcDbLine
10
2.2999999774722601
20
-5.8500002570978298
30
0
11
2.2999999774722601
21
-5.1500000939594477
31
0
0
ARC
5
147
100
AcDbEntity
8
0
100
AcDbCircle
10
2.1500000430843023
20
-7.8500003209264255
30
0
40
0.15000000478714468
100
AcDbArc
50
-180
51
0
0
LINE
5
148
100
AcDbEntity
8
0
100
AcDbLine
10
2.2999999774722601
20
-7.8500003209264255
30
0
11
2.2999999774722601
21
-7.1500001577880434
31
0
0
LINE
5
149
100
AcDbEntity
8
0
100
AcDbLine
10
2.0000000382971574
20
-7.1500001577880434
30
0
11
2.0000000382971574
21
-7.8500003209264255
31
0
0
ARC
5
150
100
AcDbEntity
8
0
100
AcDbCircle
10
2.1500000430843023
20
-7.1500001577880434
30
0
40
0.14999993438795794
100
AcDbArc
50
0
51
180
0
ARC
5
151
100
AcDbEntity
8
0
100
AcDbCircle
10
2.1500000430843023
20
-9.8500003847550204
30
0
40
0.15000000478714468
100
AcDbArc
50
-180
51
0
0
LINE
5
152
100
AcDbEntity
8
0
100
AcDbLine
10
2.2999999774722601
20
-9.8500003847550204
30
0
11
2.2999999774722601
21
-9.1500002216166383
31
0
0
LINE
5
153
100
AcDbEntity
8
0
100
AcDbLine
10
2.0000000382971574
20
-9.1500002216166383
30
0
11
2.0000000382971574
21
-9.8500003847550204
31
0
0
ARC
5
154
100
AcDbEntity
8
0
100
AcDbCircle
10
2.1500000430843023
20
-9.1500002216166383
30
0
40
0.14999993438795794
100
AcDbArc
50
0
51
180
0
LWPOLYLINE
5
155
100
AcDbEntity
8
0
100
AcDbPolyline
90
4
70
1
43
0.0
10
2.3000000478714466
20
-11.850000378184431
42
-0.99999999999999989
10
2.0000000382971574
20
-11.850000378184431
10
2.0000000382971574
20
-11.150000355844421
42
-0.99999999999999989
10
2.3000000478714466
20
-11.150000355844421
0
LWPOLYLINE
5
156
100
AcDbEntity
8
0
100
AcDbPolyline
90
4
70
1
43
0.0
10
2.0000000382971574
20
-13.150000419673017
42
-0.99999999999999989
10
2.3000000478714466
20
-13.150000419673017
10
2.3000000478714466
20
-13.850000442013027
42
-0.99999999999999989
10
2.0000000382971574
20
-13.850000442013027
0
LWPOLYLINE
5
157
100
AcDbEntity
8
0
100
AcDbPolyline
90
4
70
1
43
0.0
10
4.7000000382971576
20
-19.150000611158806
42
-0.99999999999999989
10
5.0000000478714464
20
-19.150000611158806
10
5.0000000478714464
20
-19.850000633498812
42
-0.99999999999999989
10
4.7000000382971576
20
-19.850000633498812
0
LWPOLYLINE
5
158
100
AcDbEntity
8
0
100
AcDbPolyline
90
4
70
1
43
0.0
10
4.7000000382971576
20
-17.150000547330208
42
-0.99999999999999989
10
5.0000000478714464
20
-17.150000547330208
10
5.0000000478714464
20
-17.850000569670218
42
-0.99999999999999989
10
4.7000000382971576
20
-17.850000569670218
0
LWPOLYLINE
5
159
100
AcDbEntity
8
0
100
AcDbPolyline
90
4
70
1
43
0.0
10
4.7000000382971576
20
-15.150000483501612
42
-0.99999999999999989
10
5.0000000478714464
20
-15.150000483501612
10
5.0000000478714464
20
-15.850000505841622
42
-0.99999999999999989
10
4.7000000382971576
20
-15.850000505841622
0
CIRCLE
5
160
100
AcDbEntity
8
0
100
AcDbCircle
10
8.9999998573243136
20
-7.4999998873613007
30
0
40
2.121320311700607
0
CIRCLE
5
161
100
AcDbEntity
8
0
100
AcDbCircle
10
1.3500000430843022
20
-26.600000848920324
30
0
40
0.15000000478714468
0
CIRCLE
5
162
100
AcDbEntity
8
0
100
AcDbCircle
10
2.1500000686157406
20
-26.600000848920324
30
0
40
0.15000000478714468
0
CIRCLE
5
163
100
AcDbEntity
8
0
100
AcDbCircle
10
9.8520839308747643
20
-11.000000351057277
30
0
40
0.17500000000000032
0
CIRCLE
5
164
100
AcDbEntity
8
0
100
AcDbCircle
10
7.8000002489315241
20
-11.000000351057277
30
0
40
0.17500000000000054
0
CIRCLE
5
165
100
AcDbEntity
8
0
100
AcDbCircle
10
7.396976573630698
20
-10.496220858910203
30
0
40
0.17499999999999921
0
CIRCLE
5
166
100
AcDbEntity
8
0
100
AcDbCircle
10
9.425096812177971
20
-10.496220858910203
30
0
40
0.17499999999999993
0
CIRCLE
5
167
100
AcDbEntity
8
0
100
AcDbCircle
10
8.1931400040510134
20
-11.491425111437731
30
0
40
0.17499999999999966
0
CIRCLE
5
168
100
AcDbEntity
8
0
100
AcDbCircle
10
10.26859958060243
20
-11.491425111437731
30
0
40
0.17500000000000021
0
CIRCLE
5
169
100
AcDbEntity
8
0
100
AcDbCircle
10
8.5954120531054876
20
-11.994265154820063
30
0
40
0.17500000000000077
0
CIRCLE
5
170
100
AcDbEntity
8
0
100
AcDbCircle
10
10.694790453069524
20
-11.994265154820063
30
0
40
0.17500000000000032
0
LWPOLYLINE
5
171
100
AcDbEntity
8
0
100
AcDbPolyline
90
9
70
1
43
0.0
10
6.2763931121390639
20
-24.447213220037622
10
10.819098115899747
20
-15.361803212516255
42
0.55753654736492619
10
10.595491294096712
20
-14.999999813641267
10
7
20
-15.000000159571488
10
5.499999917398287
20
-15.000000159571488
10
5.499999917398287
20
-19.999999699630134
10
4.9999992301918832
20
-20.499999692120998
10
4.9999999249075424
20
-24.999999683506076
10
5.3819660755203902
20
-24.999999624537658
42
0.28407900213041853
0
LINE
5
172
100
AcDbEntity
8
0
100
AcDbLine
10
1.4999999774722601
20
-26.599855522557466
30
0
11
1.4999999774722601
21
-26.600146175283186
31
0
0
LINE
5
173
100
AcDbEntity
8
0
100
AcDbLine
10
1.2000000382971574
20
-26.994948975581202
30
0
11
1.2000000382971574
21
-26.999999999999993
31
0
0
LINE
5
174
100
AcDbEntity
8
0
100
AcDbLine
10
1.4999999774722601
20
-19.150000611158806
30
0
11
1.4999999774722601
21
-19.850000633498812
31
0
0
LINE
5
175
100
AcDbEntity
8
0
100
AcDbLine
10
1.4999999774722601
20
-17.150000547330208
30
0
11
1.4999999774722601
21
-17.850000569670218
31
0
0
LINE
5
176
100
AcDbEntity
8
0
100
AcDbLine
10
1.2000000382971574
20
-19.150000611158806
30
0
11
1.2000000382971574
21
-19.850000633498812
31
0
0
LINE
5
177
100
AcDbEntity
8
0
100
AcDbLine
10
1.2000000962729653
20
-17.150000547330208
30
0
11
1.2000000962729653
21
-17.850000569670218
31
0
0
LINE
5
178
100
AcDbEntity
8
0
100
AcDbLine
10
1.4999999774722601
20
-15.150000483501612
30
0
11
1.4999999774722601
21
-15.850000505841622
31
0
0
LINE
5
179
100
AcDbEntity
8
0
100
AcDbLine
10
1.2000000382971574
20
-15.150000483501612
30
0
11
1.2000000382971574
21
-15.850000505841622
31
0
0
LINE
5
180
100
AcDbEntity
8
0
100
AcDbLine
10
2.0000000382971574
20
-5.1500000939594477
30
0
11
2.0000000382971574
21
-5.8500002570978298
31
0
0
LINE
5
181
100
AcDbEntity
8
0
100
AcDbLine
10
1.4999999774722601
20
-5.1500001063828273
30
0
11
1.4999999774722601
21
-5.8500002570978298
31
0
0
LINE
5
182
100
AcDbEntity
8
0
100
AcDbLine
10
2.0000000382971574
20
-7.1500001577880434
30
0
11
2.0000000382971574
21
-7.8500003209264255
31
0
0
LINE
5
183
100
AcDbEntity
8
0
100
AcDbLine
10
1.4999999774722601
20
-7.1500001577880434
30
0
11
1.4999999774722601
21
-7.8500003209264255
31
0
0
LINE
5
184
100
AcDbEntity
8
0
100
AcDbLine
10
1.2000000962729653
20
-5.1500000939594468
30
0
11
1.2000000382971574
21
-5.8500002570978236
31
0
0
LINE
5
185
100
AcDbEntity
8
0
100
AcDbLine
10
1.2000000962729653
20
-7.1500001577880434
30
0
11
1.2000000962729653
21
-7.8500003209264255
31
0
0
LINE
5
186
100
AcDbEntity
8
0
100
AcDbLine
10
2.0000000382971574
20
-9.1500002216166383
30
0
11
2.0000000382971574
21
-9.8500003847550204
31
0
0
LINE
5
187
100
AcDbEntity
8
0
100
AcDbLine
10
2.0000000382971574
20
-11.150000355844421
30
0
11
2.0000000382971574
21
-11.850000378184431
31
0
0
LINE
5
188
100
AcDbEntity
8
0
100
AcDbLine
10
2.0000000382971574
20
-13.150000419673017
30
0
11
2.0000000382971574
21
-13.850000442013027
31
0
0
LINE
5
189
100
AcDbEntity
8
0
100
AcDbLine
10
1.4999999774722601
20
-13.150000419673017
30
0
11
1.4999999774722601
21
-13.850000442013027
31
0
0
LINE
5
190
100
AcDbEntity
8
0
100
AcDbLine
10
1.2000000962729653
20
-13.150000419673017
30
0
11
1.2000000962729653
21
-13.850000442013027
31
0
0
LINE
5
191
100
AcDbEntity
8
0
100
AcDbLine
10
1.4999999774722603
20
-9.1500002216166383
30
0
11
1.4999999774722603
21
-9.8500003847550204
31
0
0
LINE
5
192
100
AcDbEntity
8
0
100
AcDbLine
10
1.4999999774722601
20
-11.150000355844421
30
0
11
1.4999999774722601
21
-11.850000378184431
31
0
0
LINE
5
193
100
AcDbEntity
8
0
100
AcDbLine
10
1.2000000962729653
20
-9.1500002216166383
30
0
11
1.2000000962729653
21
-9.8500003847550204
31
0
0
LINE
5
194
100
AcDbEntity
8
0
100
AcDbLine
10
1.2000000962729653
20
-11.150000355844421
30
0
11
1.2000000962729653
21
-11.850000378184431
31
0
0
CIRCLE
5
195
100
AcDbEntity
8
0
100
AcDbCircle
10
11.700000373397286
20
-0.65000002074429364
30
0
40
0.15000000478714468
0
CIRCLE
5
196
100
AcDbEntity
8
0
100
AcDbCircle
10
11.700000373397286
20
-1.8500000590414512
30
0
40
0.15000000478714468
0
CIRCLE
5
197
100
AcDbEntity
8
0
100
AcDbCircle
10
11.700000373397286
20
-1.2500000398928723
30
0
40
0.15000000478714468
0
CIRCLE
5
198
100
AcDbEntity
8
0
100
AcDbCircle
10
11.700869252809129
20
-4.344323752311781
30
0
40
0.15567881602973496
0
CIRCLE
5
199
100
AcDbEntity
8
0
100
AcDbCircle
10
10.999673807498185
20
-4.3500004990504149
30
0
40
0.14999999999999986
0
CIRCLE
5
200
100
AcDbEntity
8
0
100
AcDbCircle
10
11.55000036861014
20
-10.500000335100127
30
0
40
0.15000000478714468
0
CIRCLE
5
201
100
AcDbEntity
8
0
100
AcDbCircle
10
11.091227499978524
20
-10.903288608672007
30
0
40
0.15000000000000024
0
ENDSEC
0
SECTION
2
OBJECTS
0
DICTIONARY
5
C
100
AcDbDictionary
3
ACAD_GROUP
350
D
3
ACAD_MLINESTYLE
350
17
0
DICTIONARY
5
D
100
AcDbDictionary
0
DICTIONARY
5
1A
330
C
100
AcDbDictionary
0
DICTIONARY
5
17
100
AcDbDictionary
0
ENDSEC
0
EOF
