0
SECTION
2
HEADER
9
$INSUNITS
70
1
9
$ACADVER
1
AC1014
9
$HANDSEED
5
FFFF
0
ENDSEC
0
SECTION
2
TABLES
0
TABLE
2
VPORT
5
8
100
AcDbSymbolTable
0
ENDTAB
0
TABLE
2
LTYPE
5
5
100
AcDbSymbolTable
0
LTYPE
5
14
100
AcDbSymbolTableRecord
100
AcDbLinetypeTableRecord
2
BYBLOCK
70
0
0
LTYPE
5
15
100
AcDbSymbolTableRecord
100
AcDbLinetypeTableRecord
2
BYLAYER
70
0
0
ENDTAB
0
TABLE
2
LAYER
5
2
100
AcDbSymbolTable
70
2
0
LAYER
5
50
100
AcDbSymbolTableRecord
100
AcDbLayerTableRecord
2
0
70
0
6
CONTINUOUS
0
ENDTAB
0
TABLE
2
STYLE
5
3
100
AcDbSymbolTable
70
1
0
STYLE
5
11
100
AcDbSymbolTableRecord
100
AcDbTextStyleTableRecord
2
STANDARD
70
0
0
ENDTAB
0
TABLE
2
VIEW
5
6
100
AcDbSymbolTable
70
0
0
ENDTAB
0
TABLE
2
UCS
5
7
100
AcDbSymbolTable
70
0
0
ENDTAB
0
TABLE
2
APPID
5
9
100
AcDbSymbolTable
70
2
0
APPID
5
12
100
AcDbSymbolTableRecord
100
AcDbRegAppTableRecord
2
ACAD
70
0
0
ENDTAB
0
TABLE
2
DIMSTYLE
5
A
100
AcDbSymbolTable
70
1
0
ENDTAB
0
TABLE
2
BLOCK_RECORD
5
1
100
AcDbSymbolTable
70
1
0
BLOCK_RECORD
5
1F
100
AcDbSymbolTableRecord
100
AcDbBlockTableRecord
2
*MODEL_SPACE
0
BLOCK_RECORD
5
1B
100
AcDbSymbolTableRecord
100
AcDbBlockTableRecord
2
*PAPER_SPACE
0
ENDTAB
0
ENDSEC
0
SECTION
2
BLOCKS
0
BLOCK
5
20
100
AcDbEntity
100
AcDbBlockBegin
2
*MODEL_SPACE
0
ENDBLK
5
21
100
AcDbEntity
100
AcDbBlockEnd
0
BLOCK
5
1C
100
AcDbEntity
100
AcDbBlockBegin
2
*PAPER_SPACE
0
ENDBLK
5
1D
100
AcDbEntity
100
AcDbBlockEnd
0
ENDSEC
0
SECTION
2
ENTITIES
0
LINE
5
100
100
AcDbEntity
8
0
100
AcDbLine
10
20.099999999999998
20
-0.99999999999999989
30
0
11
20.099999999999998
21
-11.000000351057277
31
0
0
LINE
5
101
100
AcDbEntity
8
0
100
AcDbLine
10
0
20
-10.999999834796574
30
0
11
0
21
-0.99999998498150677
31
0
0
LINE
5
102
100
AcDbEntity
8
0
100
AcDbLine
10
-0.74999998498150688
20
-11.999999819778081
30
0
11
0
21
-11.999999819778081
31
0
0
LINE
5
103
100
AcDbEntity
8
0
100
AcDbLine
10
0
20
-10.999999834796574
30
0
11
-0.749999984981507
21
-10.999999834796574
31
0
0
LINE
5
104
100
AcDbEntity
8
0
100
AcDbLine
10
-0.99999998498150688
20
-11.249999834796574
30
0
11
-0.99999998498150766
21
-11.749999819778081
31
0
0
LINE
5
105
100
AcDbEntity
8
0
100
AcDbLine
10
-0.74999998498150688
20
-0.99999998498150677
30
0
11
0
21
-0.99999998498150677
31
0
0
LINE
5
106
100
AcDbEntity
8
0
100
AcDbLine
10
0
20
0
30
0
11
-0.74999998498150688
21
-4.3709567898628207e-17
31
0
0
LINE
5
107
100
AcDbEntity
8
0
100
AcDbLine
10
-0.99999998498150655
20
-0.24999999999999997
30
0
11
-0.99999998498150677
21
-0.74999998498150688
31
0
0
LINE
5
108
100
AcDbEntity
8
0
100
AcDbLine
10
20.099999999999998
20
-12
30
0
11
20.850000673391687
21
-12
31
0
0
LINE
5
109
100
AcDbEntity
8
0
100
AcDbLine
10
21.100000673391687
20
-11.749999999999998
30
0
11
21.100000673391687
21
-11.250000351057277
31
0
0
LINE
5
110
100
AcDbEntity
8
0
100
AcDbLine
10
20.850000673391687
20
-11.000000351057279
30
0
11
20.099999999999998
21
-11.000000351057277
31
0
0
LWPOLYLINE
5
111
100
AcDbEntity
8
0
100
AcDbPolyline
90
4
70
1
43
0.0
10
-0.37500001595714899
20
-0.30000000957428935
10
-0.37500001595714899
20
-0.70000002234000858
42
-0.99999999999999989
10
-0.62500001595714894
20
-0.70000002234000858
10
-0.62500001595714894
20
-0.30000000957428935
42
-0.99999999999999989
0
LINE
5
112
100
AcDbEntity
8
0
100
AcDbLine
10
-0.50000001595714894
20
-0.70000002234000858
30
0
11
-0.50000001595714894
21
-0.30000000957428935
31
0
0
LWPOLYLINE
5
113
100
AcDbEntity
8
0
100
AcDbPolyline
90
4
70
1
43
0.0
10
-0.62500001595714894
20
-11.700000373397286
10
-0.62500001595714894
20
-11.300000360631566
42
-0.99999999999999989
10
-0.37500001595714899
20
-11.300000360631566
10
-0.37500001595714899
20
-11.700000373397286
42
-0.99999999999999989
0
LINE
5
114
100
AcDbEntity
8
0
100
AcDbLine
10
-0.50000001595714894
20
-11.300000360631566
30
0
11
-0.50000001595714894
21
-11.700000373397286
31
0
0
LWPOLYLINE
5
115
100
AcDbEntity
8
0
100
AcDbPolyline
90
4
70
1
43
0.0
10
20.725000336695842
20
-11.300000360631566
10
20.725000336695842
20
-11.703209701116322
42
-0.99999999999999989
10
20.475000336695842
20
-11.703209701116322
10
20.475000336695842
20
-11.300000360631566
42
-0.99999999999999989
0
LINE
5
116
100
AcDbEntity
8
0
100
AcDbLine
10
20.600000336695842
20
-11.703209701116322
30
0
11
20.600000336695842
21
-11.300000360631566
31
0
0
LINE
5
117
100
AcDbEntity
8
0
100
AcDbLine
10
20.099999999999998
20
0
30
0
11
20.849999999999998
21
0
31
0
0
LINE
5
118
100
AcDbEntity
8
0
100
AcDbLine
10
21.099999999999998
20
-0.24999999999999994
30
0
11
21.099999999999998
21
-0.75000000000000022
31
0
0
LINE
5
119
100
AcDbEntity
8
0
100
AcDbLine
10
20.849999999999998
20
-0.99999999999999922
30
0
11
20.099999999999998
21
-0.99999999999999989
31
0
0
LWPOLYLINE
5
120
100
AcDbEntity
8
0
100
AcDbPolyline
90
4
70
1
43
0.0
10
20.475134207132736
20
-0.70000002234000858
10
20.475134207132736
20
-0.29999997765999137
42
-0.99999999999999989
10
20.725134207132736
20
-0.29999997765999137
10
20.725134207132736
20
-0.70000002234000858
42
-0.99999999999999989
0
LINE
5
121
100
AcDbEntity
8
0
100
AcDbLine
10
20.600134207132736
20
-0.29999997765999137
30
0
11
20.600134207132736
21
-0.70000002234000858
31
0
0
LINE
5
122
100
AcDbEntity
8
0
100
AcDbLine
10
17.499999737176367
20
0
30
0
11
17.499999737176367
21
0.24999999249075339
31
0
0
LINE
5
123
100
AcDbEntity
8
0
100
AcDbLine
10
17.24999973717637
20
0.49999999249075389
30
0
11
2.7499999624537632
21
0.49999999249075339
31
0
0
LINE
5
124
100
AcDbEntity
8
0
100
AcDbLine
10
2.4999999624537668
20
0.24999999249075336
30
0
11
2.4999999624537668
21
0
31
0
0
LINE
5
125
100
AcDbEntity
8
0
100
AcDbLine
10
2.7499999624537668
20
-12.499999999999998
30
0
11
17.249999737176367
21
-12.499999999999998
31
0
0
LINE
5
126
100
AcDbEntity
8
0
100
AcDbLine
10
17.499999737176367
20
-12.249999999999998
30
0
11
17.499999737176367
21
-12.000000007509245
31
0
0
LINE
5
127
100
AcDbEntity
8
0
100
AcDbLine
10
2.4999999624537668
20
-12.000000007509245
30
0
11
2.4999999624537663
21
-12.249999999999998
31
0
0
ARC
5
128
100
AcDbEntity
8
0
100
AcDbCircle
10
2.7499999624537694
20
-12.249999999999995
30
0
40
0.25000000000000339
100
AcDbArc
50
180
51
269.99999999999937
0
ARC
5
129
100
AcDbEntity
8
0
100
AcDbCircle
10
17.249999737176367
20
-12.249999999999998
30
0
40
0.25000000000000061
100
AcDbArc
50
-90
51
0
0
ARC
5
130
100
AcDbEntity
8
0
100
AcDbCircle
10
2.7499999624537663
20
0.24999999249075361
30
0
40
0.24999999999999975
100
AcDbArc
50
90.000000000000711
51
180
0
ARC
5
131
100
AcDbEntity
8
0
100
AcDbCircle
10
17.24999973717637
20
0.24999999249075755
30
0
40
0.24999999999999639
100
AcDbArc
50
0
51
90
0
ARC
5
132
100
AcDbEntity
8
0
100
AcDbCircle
10
-0.74999998498150433
20
-11.749999819778077
30
0
40
0.25000000000000333
100
AcDbArc
50
180
51
269.99999999999937
0
ARC
5
133
100
AcDbEntity
8
0
100
AcDbCircle
10
-0.74999998498150777
20
-11.249999834796574
30
0
40
0.2499999999999992
100
AcDbArc
50
89.999999999999815
51
180
0
ARC
5
134
100
AcDbEntity
8
0
100
AcDbCircle
10
20.850000673391687
20
-11.749999999999998
30
0
40
0.25000000000000061
100
AcDbArc
50
-90
51
0
0
ARC
5
135
100
AcDbEntity
8
0
100
AcDbCircle
10
20.850000673391687
20
-11.250000351057277
30
0
40
0.2499999999999992
100
AcDbArc
50
0
51
90
0
ARC
5
136
100
AcDbEntity
8
0
100
AcDbCircle
10
20.850000000000001
20
-0.75000000000000289
30
0
40
0.24999999999999639
100
AcDbArc
50
-90.00000000000081
51
0
0
ARC
5
137
100
AcDbEntity
8
0
100
AcDbCircle
10
20.850000000000001
20
-0.2499999999999972
30
0
40
0.24999999999999639
100
AcDbArc
50
0
51
90.00000000000081
0
ARC
5
138
100
AcDbEntity
8
0
100
AcDbCircle
10
-0.74999998498150688
20
-0.74999998498150677
30
0
40
0.24999999999999989
100
AcDbArc
50
180
51
270
0
ARC
5
139
100
AcDbEntity
8
0
100
AcDbCircle
10
-0.74999998498150688
20
-0.24999999999999981
30
0
40
0.24999999999999975
100
AcDbArc
50
90
51
180
0
LINE
5
140
100
AcDbEntity
8
0
100
AcDbLine
10
20.099999999999998
20
-12
30
0
11
17.499999737176367
21
-12.000000007509245
31
0
0
LINE
5
141
100
AcDbEntity
8
0
100
AcDbLine
10
2.4999999624537668
20
-12.000000007509245
30
0
11
0
21
-12
31
0
0
LINE
5
142
100
AcDbEntity
8
0
100
AcDbLine
10
0
20
0
30
0
11
2.4999999624537668
21
0
31
0
0
LINE
5
143
100
AcDbEntity
8
0
100
AcDbLine
10
17.499999737176367
20
0
30
0
11
20.099999999999998
21
0
31
0
0
ENDSEC
0
SECTION
2
OBJECTS
0
DICTIONARY
5
C
100
AcDbDictionary
3
ACAD_GROUP
350
D
3
ACAD_MLINESTYLE
350
17
0
DICTIONARY
5
D
100
AcDbDictionary
0
DICTIONARY
5
1A
330
C
100
AcDbDictionary
0
DICTIONARY
5
17
100
AcDbDictionary
0
ENDSEC
0
EOF
