0
SECTION
2
HEADER
9
$INSUNITS
70
1
9
$ACADVER
1
AC1014
9
$HANDSEED
5
FFFF
0
ENDSEC
0
SECTION
2
TABLES
0
TABLE
2
VPORT
5
8
100
AcDbSymbolTable
0
ENDTAB
0
TABLE
2
LTYPE
5
5
100
AcDbSymbolTable
0
LTYPE
5
14
100
AcDbSymbolTableRecord
100
AcDbLinetypeTableRecord
2
BYBLOCK
70
0
0
LTYPE
5
15
100
AcDbSymbolTableRecord
100
AcDbLinetypeTableRecord
2
BYLAYER
70
0
0
ENDTAB
0
TABLE
2
LAYER
5
2
100
AcDbSymbolTable
70
2
0
LAYER
5
50
100
AcDbSymbolTableRecord
100
AcDbLayerTableRecord
2
0
70
0
6
CONTINUOUS
0
ENDTAB
0
TABLE
2
STYLE
5
3
100
AcDbSymbolTable
70
1
0
STYLE
5
11
100
AcDbSymbolTableRecord
100
AcDbTextStyleTableRecord
2
STANDARD
70
0
0
ENDTAB
0
TABLE
2
VIEW
5
6
100
AcDbSymbolTable
70
0
0
ENDTAB
0
TABLE
2
UCS
5
7
100
AcDbSymbolTable
70
0
0
ENDTAB
0
TABLE
2
APPID
5
9
100
AcDbSymbolTable
70
2
0
APPID
5
12
100
AcDbSymbolTableRecord
100
AcDbRegAppTableRecord
2
ACAD
70
0
0
ENDTAB
0
TABLE
2
DIMSTYLE
5
A
100
AcDbSymbolTable
70
1
0
ENDTAB
0
TABLE
2
BLOCK_RECORD
5
1
100
AcDbSymbolTable
70
1
0
BLOCK_RECORD
5
1F
100
AcDbSymbolTableRecord
100
AcDbBlockTableRecord
2
*MODEL_SPACE
0
BLOCK_RECORD
5
1B
100
AcDbSymbolTableRecord
100
AcDbBlockTableRecord
2
*PAPER_SPACE
0
ENDTAB
0
ENDSEC
0
SECTION
2
BLOCKS
0
BLOCK
5
20
100
AcDbEntity
100
AcDbBlockBegin
2
*MODEL_SPACE
0
ENDBLK
5
21
100
AcDbEntity
100
AcDbBlockEnd
0
BLOCK
5
1C
100
AcDbEntity
100
AcDbBlockBegin
2
*PAPER_SPACE
0
ENDBLK
5
1D
100
AcDbEntity
100
AcDbBlockEnd
0
ENDSEC
0
SECTION
2
ENTITIES
0
LINE
5
100
100
AcDbEntity
8
0
100
AcDbLine
10
0
20
0
30
0
11
33.700000000000003
21
-6.8772380297607198e-32
31
0
0
LINE
5
101
100
AcDbEntity
8
0
100
AcDbLine
10
33.700000000000003
20
-6.8772380297607198e-32
30
0
11
33.69999999249076
21
-30.000000000000011
31
0
0
LINE
5
102
100
AcDbEntity
8
0
100
AcDbLine
10
32.700000000000017
20
-30.999999999999996
30
0
11
1.0000000000000098
21
-30.999999999999996
31
0
0
LINE
5
103
100
AcDbEntity
8
0
100
AcDbLine
10
-3.846441975079282e-15
20
-29.999999999999982
30
0
11
0
21
0
31
0
0
ARC
5
104
100
AcDbEntity
8
0
100
AcDbCircle
10
32.700000000000017
20
-30.000000000000011
30
0
40
0.99999999999998557
100
AcDbArc
50
-90
51
0
0
ARC
5
105
100
AcDbEntity
8
0
100
AcDbCircle
10
1.0000000000000098
20
-29.999999999999982
30
0
40
1.0000000000000135
100
AcDbArc
50
180
51
270
0
LWPOLYLINE
5
106
100
AcDbEntity
8
0
100
AcDbPolyline
90
4
70
1
43
0.0
10
12.349999992490753
20
-2.8749999699630133
10
21.349999992490751
20
-2.8749999699630133
42
-0.99999999999999989
10
21.349999992490751
20
-3.1249999699630133
10
12.349999992490753
20
-3.1249999699630133
42
-0.99999999999999989
0
LINE
5
107
100
AcDbEntity
8
0
100
AcDbLine
10
21.349999992490751
20
-2.9999999699630133
30
0
11
12.349999992490753
21
-2.9999999699630133
31
0
0
LINE
5
108
100
AcDbEntity
8
0
100
AcDbLine
10
1.4999999774722599
20
0
30
0
11
1.1000000351057275
21
0
31
0
0
LINE
5
109
100
AcDbEntity
8
0
100
AcDbLine
10
12
20
0
30
0
11
10.999999977472259
21
0
31
0
0
LINE
5
110
100
AcDbEntity
8
0
100
AcDbLine
10
0
20
-1.0000000319142981
30
0
11
0
21
-25.900000826580321
31
0
0
LWPOLYLINE
5
111
100
AcDbEntity
8
0
100
AcDbPolyline
90
4
70
1
43
0.0
10
2.0000000638285957
20
-1.2000000382971574
10
1.2000000382971574
20
-1.2000000382971574
10
1.2000000382971574
20
-2.0000000638285957
10
2.0000000638285957
20
-2.0000000638285957
0
LWPOLYLINE
5
112
100
AcDbEntity
8
0
100
AcDbPolyline
90
4
70
1
43
0.0
10
2.3111111494082683
20
-2.0000000638285957
10
3.1111111749397069
20
-2.0000000638285957
10
3.1111111749397069
20
-1.2000000382971574
10
2.3111111494082683
20
-1.2000000382971574
0
LWPOLYLINE
5
113
100
AcDbEntity
8
0
100
AcDbPolyline
90
4
70
1
43
0.0
10
3.4222222605193795
20
-2.0000000638285957
10
4.2222222860508181
20
-2.0000000638285957
10
4.2222222860508181
20
-1.2000000382971574
10
3.4222222605193795
20
-1.2000000382971574
0
LWPOLYLINE
5
114
100
AcDbEntity
8
0
100
AcDbPolyline
90
4
70
1
43
0.0
10
4.5333333716304898
20
-2.0000000638285957
10
5.3333333971619279
20
-2.0000000638285957
10
5.3333333971619279
20
-1.2000000382971574
10
4.5333333716304898
20
-1.2000000382971574
0
LWPOLYLINE
5
115
100
AcDbEntity
8
0
100
AcDbPolyline
90
4
70
1
43
0.0
10
5.6444444827416014
20
-2.0000000638285957
10
6.4444445082730395
20
-2.0000000638285957
10
6.4444445082730395
20
-1.2000000382971574
10
5.6444444827416014
20
-1.2000000382971574
0
LWPOLYLINE
5
116
100
AcDbEntity
8
0
100
AcDbPolyline
90
4
70
1
43
0.0
10
6.7555555938527121
20
-2.0000000638285957
10
7.5555556193841511
20
-2.0000000638285957
10
7.5555556193841511
20
-1.2000000382971574
10
6.7555555938527121
20
-1.2000000382971574
0
LWPOLYLINE
5
117
100
AcDbEntity
8
0
100
AcDbPolyline
90
4
70
1
43
0.0
10
7.8666667049638219
20
-2.0000000638285957
10
8.66666673049526
20
-2.0000000638285957
10
8.66666673049526
20
-1.2000000382971574
10
7.8666667049638219
20
-1.2000000382971574
0
LWPOLYLINE
5
118
100
AcDbEntity
8
0
100
AcDbPolyline
90
4
70
1
43
0.0
10
8.9777778160749335
20
-2.0000000638285957
10
9.7777778416063725
20
-2.0000000638285957
10
9.7777778416063725
20
-1.2000000382971574
10
8.9777778160749335
20
-1.2000000382971574
0
LWPOLYLINE
5
119
100
AcDbEntity
8
0
100
AcDbPolyline
90
4
70
1
43
0.0
10
10.088888927186044
20
-2.0000000638285957
10
10.888888952717483
20
-2.0000000638285957
10
10.888888952717483
20
-1.2000000382971574
10
10.088888927186044
20
-1.2000000382971574
0
LWPOLYLINE
5
120
100
AcDbEntity
8
0
100
AcDbPolyline
90
4
70
1
43
0.0
10
1.2000000382971574
20
-3.0833333971619292
10
2.0000000638285957
20
-3.0833333971619292
10
2.0000000638285957
20
-2.2833333716304907
10
1.2000000382971574
20
-2.2833333716304907
0
LWPOLYLINE
5
121
100
AcDbEntity
8
0
100
AcDbPolyline
90
4
70
1
43
0.0
10
2.3111111494082683
20
-3.0833333971619292
10
3.1111111749397069
20
-3.0833333971619292
10
3.1111111749397069
20
-2.2833333716304907
10
2.3111111494082683
20
-2.2833333716304907
0
LWPOLYLINE
5
122
100
AcDbEntity
8
0
100
AcDbPolyline
90
4
70
1
43
0.0
10
3.4222222605193795
20
-3.0833333971619292
10
4.2222222860508181
20
-3.0833333971619292
10
4.2222222860508181
20
-2.2833333716304907
10
3.4222222605193795
20
-2.2833333716304907
0
LWPOLYLINE
5
123
100
AcDbEntity
8
0
100
AcDbPolyline
90
4
70
1
43
0.0
10
4.5333333716304898
20
-3.0833333971619292
10
5.3333333971619279
20
-3.0833333971619292
10
5.3333333971619279
20
-2.2833333716304907
10
4.5333333716304898
20
-2.2833333716304907
0
LWPOLYLINE
5
124
100
AcDbEntity
8
0
100
AcDbPolyline
90
4
70
1
43
0.0
10
5.6444444827416014
20
-3.0833333971619292
10
6.4444445082730395
20
-3.0833333971619292
10
6.4444445082730395
20
-2.2833333716304907
10
5.6444444827416014
20
-2.2833333716304907
0
LWPOLYLINE
5
125
100
AcDbEntity
8
0
100
AcDbPolyline
90
4
70
1
43
0.0
10
6.7555555938527121
20
-3.0833333971619292
10
7.5555556193841511
20
-3.0833333971619292
10
7.5555556193841511
20
-2.2833333716304907
10
6.7555555938527121
20
-2.2833333716304907
0
LWPOLYLINE
5
126
100
AcDbEntity
8
0
100
AcDbPolyline
90
4
70
1
43
0.0
10
7.8666667049638219
20
-3.0833333971619292
10
8.66666673049526
20
-3.0833333971619292
10
8.66666673049526
20
-2.2833333716304907
10
7.8666667049638219
20
-2.2833333716304907
0
LWPOLYLINE
5
127
100
AcDbEntity
8
0
100
AcDbPolyline
90
4
70
1
43
0.0
10
8.9777778160749335
20
-3.0833333971619292
10
9.7777778416063725
20
-3.0833333971619292
10
9.7777778416063725
20
-2.2833333716304907
10
8.9777778160749335
20
-2.2833333716304907
0
LWPOLYLINE
5
128
100
AcDbEntity
8
0
100
AcDbPolyline
90
4
70
1
43
0.0
10
10.088888927186044
20
-3.0833333971619292
10
10.888888952717483
20
-3.0833333971619292
10
10.888888952717483
20
-2.2833333716304907
10
10.088888927186044
20
-2.2833333716304907
0
LWPOLYLINE
5
129
100
AcDbEntity
8
0
100
AcDbPolyline
90
4
70
1
43
0.0
10
1.2000000382971574
20
-4.1666667304952627
10
2.0000000638285957
20
-4.1666667304952627
10
2.0000000638285957
20
-3.3666667049638241
10
1.2000000382971574
20
-3.3666667049638241
0
LWPOLYLINE
5
130
100
AcDbEntity
8
0
100
AcDbPolyline
90
4
70
1
43
0.0
10
2.3111111494082683
20
-4.1666667304952627
10
3.1111111749397069
20
-4.1666667304952627
10
3.1111111749397069
20
-3.3666667049638241
10
2.3111111494082683
20
-3.3666667049638241
0
LWPOLYLINE
5
131
100
AcDbEntity
8
0
100
AcDbPolyline
90
4
70
1
43
0.0
10
3.4222222605193795
20
-4.1666667304952627
10
4.2222222860508181
20
-4.1666667304952627
10
4.2222222860508181
20
-3.3666667049638241
10
3.4222222605193795
20
-3.3666667049638241
0
LWPOLYLINE
5
132
100
AcDbEntity
8
0
100
AcDbPolyline
90
4
70
1
43
0.0
10
4.5333333716304898
20
-4.1666667304952627
10
5.3333333971619279
20
-4.1666667304952627
10
5.3333333971619279
20
-3.3666667049638241
10
4.5333333716304898
20
-3.3666667049638241
0
LWPOLYLINE
5
133
100
AcDbEntity
8
0
100
AcDbPolyline
90
4
70
1
43
0.0
10
5.6444444827416014
20
-4.1666667304952627
10
6.4444445082730395
20
-4.1666667304952627
10
6.4444445082730395
20
-3.3666667049638241
10
5.6444444827416014
20
-3.3666667049638241
0
LWPOLYLINE
5
134
100
AcDbEntity
8
0
100
AcDbPolyline
90
4
70
1
43
0.0
10
6.7555555938527121
20
-4.1666667304952627
10
7.5555556193841511
20
-4.1666667304952627
10
7.5555556193841511
20
-3.3666667049638241
10
6.7555555938527121
20
-3.3666667049638241
0
LWPOLYLINE
5
135
100
AcDbEntity
8
0
100
AcDbPolyline
90
4
70
1
43
0.0
10
7.8666667049638219
20
-4.1666667304952627
10
8.66666673049526
20
-4.1666667304952627
10
8.66666673049526
20
-3.3666667049638241
10
7.8666667049638219
20
-3.3666667049638241
0
LWPOLYLINE
5
136
100
AcDbEntity
8
0
100
AcDbPolyline
90
4
70
1
43
0.0
10
8.9777778160749335
20
-4.1666667304952627
10
9.7777778416063725
20
-4.1666667304952627
10
9.7777778416063725
20
-3.3666667049638241
10
8.9777778160749335
20
-3.3666667049638241
0
LWPOLYLINE
5
137
100
AcDbEntity
8
0
100
AcDbPolyline
90
4
70
1
43
0.0
10
10.088888927186044
20
-4.1666667304952627
10
10.888888952717483
20
-4.1666667304952627
10
10.888888952717483
20
-3.3666667049638241
10
10.088888927186044
20
-3.3666667049638241
0
LWPOLYLINE
5
138
100
AcDbEntity
8
0
100
AcDbPolyline
90
4
70
1
43
0.0
10
1.2000000382971574
20
-5.2500000638285957
10
2.0000000638285957
20
-5.2500000638285957
10
2.0000000638285957
20
-4.4500000382971576
10
1.2000000382971574
20
-4.4500000382971576
0
LWPOLYLINE
5
139
100
AcDbEntity
8
0
100
AcDbPolyline
90
4
70
1
43
0.0
10
2.3111111494082683
20
-5.2500000638285957
10
3.1111111749397069
20
-5.2500000638285957
10
3.1111111749397069
20
-4.4500000382971576
10
2.3111111494082683
20
-4.4500000382971576
0
LWPOLYLINE
5
140
100
AcDbEntity
8
0
100
AcDbPolyline
90
4
70
1
43
0.0
10
3.4222222605193795
20
-5.2500000638285957
10
4.2222222860508181
20
-5.2500000638285957
10
4.2222222860508181
20
-4.4500000382971576
10
3.4222222605193795
20
-4.4500000382971576
0
LWPOLYLINE
5
141
100
AcDbEntity
8
0
100
AcDbPolyline
90
4
70
1
43
0.0
10
4.5333333716304898
20
-5.2500000638285957
10
5.3333333971619279
20
-5.2500000638285957
10
5.3333333971619279
20
-4.4500000382971576
10
4.5333333716304898
20
-4.4500000382971576
0
LWPOLYLINE
5
142
100
AcDbEntity
8
0
100
AcDbPolyline
90
4
70
1
43
0.0
10
5.6444444827416014
20
-5.2500000638285957
10
6.4444445082730395
20
-5.2500000638285957
10
6.4444445082730395
20
-4.4500000382971576
10
5.6444444827416014
20
-4.4500000382971576
0
LWPOLYLINE
5
143
100
AcDbEntity
8
0
100
AcDbPolyline
90
4
70
1
43
0.0
10
6.7555555938527121
20
-5.2500000638285957
10
7.5555556193841511
20
-5.2500000638285957
10
7.5555556193841511
20
-4.4500000382971576
10
6.7555555938527121
20
-4.4500000382971576
0
LWPOLYLINE
5
144
100
AcDbEntity
8
0
100
AcDbPolyline
90
4
70
1
43
0.0
10
7.8666667049638219
20
-5.2500000638285957
10
8.66666673049526
20
-5.2500000638285957
10
8.66666673049526
20
-4.4500000382971576
10
7.8666667049638219
20
-4.4500000382971576
0
LWPOLYLINE
5
145
100
AcDbEntity
8
0
100
AcDbPolyline
90
4
70
1
43
0.0
10
8.9777778160749335
20
-5.2500000638285957
10
9.7777778416063725
20
-5.2500000638285957
10
9.7777778416063725
20
-4.4500000382971576
10
8.9777778160749335
20
-4.4500000382971576
0
LWPOLYLINE
5
146
100
AcDbEntity
8
0
100
AcDbPolyline
90
4
70
1
43
0.0
10
10.088888927186044
20
-5.2500000638285957
10
10.888888952717483
20
-5.2500000638285957
10
10.888888952717483
20
-4.4500000382971576
10
10.088888927186044
20
-4.4500000382971576
0
LWPOLYLINE
5
147
100
AcDbEntity
8
0
100
AcDbPolyline
90
4
70
1
43
0.0
10
1.2000000382971574
20
-6.3333333971619288
10
2.0000000638285957
20
-6.3333333971619288
10
2.0000000638285957
20
-5.5333333716304907
10
1.2000000382971574
20
-5.5333333716304907
0
LWPOLYLINE
5
148
100
AcDbEntity
8
0
100
AcDbPolyline
90
4
70
1
43
0.0
10
2.3111111494082683
20
-6.3333333971619288
10
3.1111111749397069
20
-6.3333333971619288
10
3.1111111749397069
20
-5.5333333716304907
10
2.3111111494082683
20
-5.5333333716304907
0
LWPOLYLINE
5
149
100
AcDbEntity
8
0
100
AcDbPolyline
90
4
70
1
43
0.0
10
3.4222222605193795
20
-6.3333333971619288
10
4.2222222860508181
20
-6.3333333971619288
10
4.2222222860508181
20
-5.5333333716304907
10
3.4222222605193795
20
-5.5333333716304907
0
LWPOLYLINE
5
150
100
AcDbEntity
8
0
100
AcDbPolyline
90
4
70
1
43
0.0
10
4.5333333716304898
20
-6.3333333971619288
10
5.3333333971619279
20
-6.3333333971619288
10
5.3333333971619279
20
-5.5333333716304907
10
4.5333333716304898
20
-5.5333333716304907
0
LWPOLYLINE
5
151
100
AcDbEntity
8
0
100
AcDbPolyline
90
4
70
1
43
0.0
10
5.6444444827416014
20
-6.3333333971619288
10
6.4444445082730395
20
-6.3333333971619288
10
6.4444445082730395
20
-5.5333333716304907
10
5.6444444827416014
20
-5.5333333716304907
0
LWPOLYLINE
5
152
100
AcDbEntity
8
0
100
AcDbPolyline
90
4
70
1
43
0.0
10
6.7555555938527121
20
-6.3333333971619288
10
7.5555556193841511
20
-6.3333333971619288
10
7.5555556193841511
20
-5.5333333716304907
10
6.7555555938527121
20
-5.5333333716304907
0
LWPOLYLINE
5
153
100
AcDbEntity
8
0
100
AcDbPolyline
90
4
70
1
43
0.0
10
7.8666667049638219
20
-6.3333333971619288
10
8.66666673049526
20
-6.3333333971619288
10
8.66666673049526
20
-5.5333333716304907
10
7.8666667049638219
20
-5.5333333716304907
0
LWPOLYLINE
5
154
100
AcDbEntity
8
0
100
AcDbPolyline
90
4
70
1
43
0.0
10
8.9777778160749335
20
-6.3333333971619288
10
9.7777778416063725
20
-6.3333333971619288
10
9.7777778416063725
20
-5.5333333716304907
10
8.9777778160749335
20
-5.5333333716304907
0
LWPOLYLINE
5
155
100
AcDbEntity
8
0
100
AcDbPolyline
90
4
70
1
43
0.0
10
10.088888927186044
20
-6.3333333971619288
10
10.888888952717483
20
-6.3333333971619288
10
10.888888952717483
20
-5.5333333716304907
10
10.088888927186044
20
-5.5333333716304907
0
LWPOLYLINE
5
156
100
AcDbEntity
8
0
100
AcDbPolyline
90
4
70
1
43
0.0
10
1.2000000382971574
20
-7.4166667304952618
10
2.0000000638285957
20
-7.4166667304952618
10
2.0000000638285957
20
-6.6166667049638237
10
1.2000000382971574
20
-6.6166667049638237
0
LWPOLYLINE
5
157
100
AcDbEntity
8
0
100
AcDbPolyline
90
4
70
1
43
0.0
10
2.3111111494082683
20
-7.4166667304952618
10
3.1111111749397069
20
-7.4166667304952618
10
3.1111111749397069
20
-6.6166667049638237
10
2.3111111494082683
20
-6.6166667049638237
0
LWPOLYLINE
5
158
100
AcDbEntity
8
0
100
AcDbPolyline
90
4
70
1
43
0.0
10
3.4222222605193795
20
-7.4166667304952618
10
4.2222222860508181
20
-7.4166667304952618
10
4.2222222860508181
20
-6.6166667049638237
10
3.4222222605193795
20
-6.6166667049638237
0
LWPOLYLINE
5
159
100
AcDbEntity
8
0
100
AcDbPolyline
90
4
70
1
43
0.0
10
4.5333333716304898
20
-7.4166667304952618
10
5.3333333971619279
20
-7.4166667304952618
10
5.3333333971619279
20
-6.6166667049638237
10
4.5333333716304898
20
-6.6166667049638237
0
LWPOLYLINE
5
160
100
AcDbEntity
8
0
100
AcDbPolyline
90
4
70
1
43
0.0
10
5.6444444827416014
20
-7.4166667304952618
10
6.4444445082730395
20
-7.4166667304952618
10
6.4444445082730395
20
-6.6166667049638237
10
5.6444444827416014
20
-6.6166667049638237
0
LWPOLYLINE
5
161
100
AcDbEntity
8
0
100
AcDbPolyline
90
4
70
1
43
0.0
10
6.7555555938527121
20
-7.4166667304952618
10
7.5555556193841511
20
-7.4166667304952618
10
7.5555556193841511
20
-6.6166667049638237
10
6.7555555938527121
20
-6.6166667049638237
0
LWPOLYLINE
5
162
100
AcDbEntity
8
0
100
AcDbPolyline
90
4
70
1
43
0.0
10
7.8666667049638219
20
-7.4166667304952618
10
8.66666673049526
20
-7.4166667304952618
10
8.66666673049526
20
-6.6166667049638237
10
7.8666667049638219
20
-6.6166667049638237
0
LWPOLYLINE
5
163
100
AcDbEntity
8
0
100
AcDbPolyline
90
4
70
1
43
0.0
10
8.9777778160749335
20
-7.4166667304952618
10
9.7777778416063725
20
-7.4166667304952618
10
9.7777778416063725
20
-6.6166667049638237
10
8.9777778160749335
20
-6.6166667049638237
0
LWPOLYLINE
5
164
100
AcDbEntity
8
0
100
AcDbPolyline
90
4
70
1
43
0.0
10
10.088888927186044
20
-7.4166667304952618
10
10.888888952717483
20
-7.4166667304952618
10
10.888888952717483
20
-6.6166667049638237
10
10.088888927186044
20
-6.6166667049638237
0
LWPOLYLINE
5
165
100
AcDbEntity
8
0
100
AcDbPolyline
90
4
70
1
43
0.0
10
1.2000000382971574
20
-8.5000000638285957
10
2.0000000638285957
20
-8.5000000638285957
10
2.0000000638285957
20
-7.7000000382971576
10
1.2000000382971574
20
-7.7000000382971576
0
LWPOLYLINE
5
166
100
AcDbEntity
8
0
100
AcDbPolyline
90
4
70
1
43
0.0
10
2.3111111494082683
20
-8.5000000638285957
10
3.1111111749397069
20
-8.5000000638285957
10
3.1111111749397069
20
-7.7000000382971576
10
2.3111111494082683
20
-7.7000000382971576
0
LWPOLYLINE
5
167
100
AcDbEntity
8
0
100
AcDbPolyline
90
4
70
1
43
0.0
10
3.4222222605193795
20
-8.5000000638285957
10
4.2222222860508181
20
-8.5000000638285957
10
4.2222222860508181
20
-7.7000000382971576
10
3.4222222605193795
20
-7.7000000382971576
0
LWPOLYLINE
5
168
100
AcDbEntity
8
0
100
AcDbPolyline
90
4
70
1
43
0.0
10
4.5333333716304898
20
-8.5000000638285957
10
5.3333333971619279
20
-8.5000000638285957
10
5.3333333971619279
20
-7.7000000382971576
10
4.5333333716304898
20
-7.7000000382971576
0
LWPOLYLINE
5
169
100
AcDbEntity
8
0
100
AcDbPolyline
90
4
70
1
43
0.0
10
5.6444444827416014
20
-8.5000000638285957
10
6.4444445082730395
20
-8.5000000638285957
10
6.4444445082730395
20
-7.7000000382971576
10
5.6444444827416014
20
-7.7000000382971576
0
LWPOLYLINE
5
170
100
AcDbEntity
8
0
100
AcDbPolyline
90
4
70
1
43
0.0
10
6.7555555938527121
20
-8.5000000638285957
10
7.5555556193841511
20
-8.5000000638285957
10
7.5555556193841511
20
-7.7000000382971576
10
6.7555555938527121
20
-7.7000000382971576
0
LWPOLYLINE
5
171
100
AcDbEntity
8
0
100
AcDbPolyline
90
4
70
1
43
0.0
10
7.8666667049638219
20
-8.5000000638285957
10
8.66666673049526
20
-8.5000000638285957
10
8.66666673049526
20
-7.7000000382971576
10
7.8666667049638219
20
-7.7000000382971576
0
LWPOLYLINE
5
172
100
AcDbEntity
8
0
100
AcDbPolyline
90
4
70
1
43
0.0
10
8.9777778160749335
20
-8.5000000638285957
10
9.7777778416063725
20
-8.5000000638285957
10
9.7777778416063725
20
-7.7000000382971576
10
8.9777778160749335
20
-7.7000000382971576
0
LWPOLYLINE
5
173
100
AcDbEntity
8
0
100
AcDbPolyline
90
4
70
1
43
0.0
10
10.088888927186044
20
-8.5000000638285957
10
10.888888952717483
20
-8.5000000638285957
10
10.888888952717483
20
-7.7000000382971576
10
10.088888927186044
20
-7.7000000382971576
0
LWPOLYLINE
5
174
100
AcDbEntity
8
0
100
AcDbPolyline
90
4
70
1
43
0.0
10
1.2000000382971574
20
-9.5833333971619297
10
2.0000000638285957
20
-9.5833333971619297
10
2.0000000638285957
20
-8.7833333716304924
10
1.2000000382971574
20
-8.7833333716304924
0
LWPOLYLINE
5
175
100
AcDbEntity
8
0
100
AcDbPolyline
90
4
70
1
43
0.0
10
2.3111111494082683
20
-9.5833333971619297
10
3.1111111749397069
20
-9.5833333971619297
10
3.1111111749397069
20
-8.7833333716304924
10
2.3111111494082683
20
-8.7833333716304924
0
LWPOLYLINE
5
176
100
AcDbEntity
8
0
100
AcDbPolyline
90
4
70
1
43
0.0
10
3.4222222605193795
20
-9.5833333971619297
10
4.2222222860508181
20
-9.5833333971619297
10
4.2222222860508181
20
-8.7833333716304924
10
3.4222222605193795
20
-8.7833333716304924
0
LWPOLYLINE
5
177
100
AcDbEntity
8
0
100
AcDbPolyline
90
4
70
1
43
0.0
10
4.5333333716304898
20
-9.5833333971619297
10
5.3333333971619279
20
-9.5833333971619297
10
5.3333333971619279
20
-8.7833333716304924
10
4.5333333716304898
20
-8.7833333716304924
0
LWPOLYLINE
5
178
100
AcDbEntity
8
0
100
AcDbPolyline
90
4
70
1
43
0.0
10
5.6444444827416014
20
-9.5833333971619297
10
6.4444445082730395
20
-9.5833333971619297
10
6.4444445082730395
20
-8.7833333716304924
10
5.6444444827416014
20
-8.7833333716304924
0
LWPOLYLINE
5
179
100
AcDbEntity
8
0
100
AcDbPolyline
90
4
70
1
43
0.0
10
6.7555555938527121
20
-9.5833333971619297
10
7.5555556193841511
20
-9.5833333971619297
10
7.5555556193841511
20
-8.7833333716304924
10
6.7555555938527121
20
-8.7833333716304924
0
LWPOLYLINE
5
180
100
AcDbEntity
8
0
100
AcDbPolyline
90
4
70
1
43
0.0
10
7.8666667049638219
20
-9.5833333971619297
10
8.66666673049526
20
-9.5833333971619297
10
8.66666673049526
20
-8.7833333716304924
10
7.8666667049638219
20
-8.7833333716304924
0
LWPOLYLINE
5
181
100
AcDbEntity
8
0
100
AcDbPolyline
90
4
70
1
43
0.0
10
8.9777778160749335
20
-9.5833333971619297
10
9.7777778416063725
20
-9.5833333971619297
10
9.7777778416063725
20
-8.7833333716304924
10
8.9777778160749335
20
-8.7833333716304924
0
LWPOLYLINE
5
182
100
AcDbEntity
8
0
100
AcDbPolyline
90
4
70
1
43
0.0
10
10.088888927186044
20
-9.5833333971619297
10
10.888888952717483
20
-9.5833333971619297
10
10.888888952717483
20
-8.7833333716304924
10
10.088888927186044
20
-8.7833333716304924
0
LWPOLYLINE
5
183
100
AcDbEntity
8
0
100
AcDbPolyline
90
4
70
1
43
0.0
10
1.2000000382971574
20
-10.666666730495262
10
2.0000000638285957
20
-10.666666730495262
10
2.0000000638285957
20
-9.8666667049638246
10
1.2000000382971574
20
-9.8666667049638246
0
LWPOLYLINE
5
184
100
AcDbEntity
8
0
100
AcDbPolyline
90
4
70
1
43
0.0
10
2.3111111494082683
20
-10.666666730495262
10
3.1111111749397069
20
-10.666666730495262
10
3.1111111749397069
20
-9.8666667049638246
10
2.3111111494082683
20
-9.8666667049638246
0
LWPOLYLINE
5
185
100
AcDbEntity
8
0
100
AcDbPolyline
90
4
70
1
43
0.0
10
3.4222222605193795
20
-10.666666730495262
10
4.2222222860508181
20
-10.666666730495262
10
4.2222222860508181
20
-9.8666667049638246
10
3.4222222605193795
20
-9.8666667049638246
0
LWPOLYLINE
5
186
100
AcDbEntity
8
0
100
AcDbPolyline
90
4
70
1
43
0.0
10
4.5333333716304898
20
-10.666666730495262
10
5.3333333971619279
20
-10.666666730495262
10
5.3333333971619279
20
-9.8666667049638246
10
4.5333333716304898
20
-9.8666667049638246
0
LWPOLYLINE
5
187
100
AcDbEntity
8
0
100
AcDbPolyline
90
4
70
1
43
0.0
10
5.6444444827416014
20
-10.666666730495262
10
6.4444445082730395
20
-10.666666730495262
10
6.4444445082730395
20
-9.8666667049638246
10
5.6444444827416014
20
-9.8666667049638246
0
LWPOLYLINE
5
188
100
AcDbEntity
8
0
100
AcDbPolyline
90
4
70
1
43
0.0
10
6.7555555938527121
20
-10.666666730495262
10
7.5555556193841511
20
-10.666666730495262
10
7.5555556193841511
20
-9.8666667049638246
10
6.7555555938527121
20
-9.8666667049638246
0
LWPOLYLINE
5
189
100
AcDbEntity
8
0
100
AcDbPolyline
90
4
70
1
43
0.0
10
7.8666667049638219
20
-10.666666730495262
10
8.66666673049526
20
-10.666666730495262
10
8.66666673049526
20
-9.8666667049638246
10
7.8666667049638219
20
-9.8666667049638246
0
LWPOLYLINE
5
190
100
AcDbEntity
8
0
100
AcDbPolyline
90
4
70
1
43
0.0
10
8.9777778160749335
20
-10.666666730495262
10
9.7777778416063725
20
-10.666666730495262
10
9.7777778416063725
20
-9.8666667049638246
10
8.9777778160749335
20
-9.8666667049638246
0
LWPOLYLINE
5
191
100
AcDbEntity
8
0
100
AcDbPolyline
90
4
70
1
43
0.0
10
10.088888927186044
20
-10.666666730495262
10
10.888888952717483
20
-10.666666730495262
10
10.888888952717483
20
-9.8666667049638246
10
10.088888927186044
20
-9.8666667049638246
0
LWPOLYLINE
5
192
100
AcDbEntity
8
0
100
AcDbPolyline
90
4
70
1
43
0.0
10
1.2000000382971574
20
-11.750000063828596
10
2.0000000638285957
20
-11.750000063828596
10
2.0000000638285957
20
-10.950000038297157
10
1.2000000382971574
20
-10.950000038297157
0
LWPOLYLINE
5
193
100
AcDbEntity
8
0
100
AcDbPolyline
90
4
70
1
43
0.0
10
2.3111111494082683
20
-11.750000063828596
10
3.1111111749397069
20
-11.750000063828596
10
3.1111111749397069
20
-10.950000038297157
10
2.3111111494082683
20
-10.950000038297157
0
LWPOLYLINE
5
194
100
AcDbEntity
8
0
100
AcDbPolyline
90
4
70
1
43
0.0
10
3.4222222605193795
20
-11.750000063828596
10
4.2222222860508181
20
-11.750000063828596
10
4.2222222860508181
20
-10.950000038297157
10
3.4222222605193795
20
-10.950000038297157
0
LWPOLYLINE
5
195
100
AcDbEntity
8
0
100
AcDbPolyline
90
4
70
1
43
0.0
10
4.5333333716304898
20
-11.750000063828596
10
5.3333333971619279
20
-11.750000063828596
10
5.3333333971619279
20
-10.950000038297157
10
4.5333333716304898
20
-10.950000038297157
0
LWPOLYLINE
5
196
100
AcDbEntity
8
0
100
AcDbPolyline
90
4
70
1
43
0.0
10
5.6444444827416014
20
-11.750000063828596
10
6.4444445082730395
20
-11.750000063828596
10
6.4444445082730395
20
-10.950000038297157
10
5.6444444827416014
20
-10.950000038297157
0
LWPOLYLINE
5
197
100
AcDbEntity
8
0
100
AcDbPolyline
90
4
70
1
43
0.0
10
6.7555555938527121
20
-11.750000063828596
10
7.5555556193841511
20
-11.750000063828596
10
7.5555556193841511
20
-10.950000038297157
10
6.7555555938527121
20
-10.950000038297157
0
LWPOLYLINE
5
198
100
AcDbEntity
8
0
100
AcDbPolyline
90
4
70
1
43
0.0
10
7.8666667049638219
20
-11.750000063828596
10
8.66666673049526
20
-11.750000063828596
10
8.66666673049526
20
-10.950000038297157
10
7.8666667049638219
20
-10.950000038297157
0
LWPOLYLINE
5
199
100
AcDbEntity
8
0
100
AcDbPolyline
90
4
70
1
43
0.0
10
8.9777778160749335
20
-11.750000063828596
10
9.7777778416063725
20
-11.750000063828596
10
9.7777778416063725
20
-10.950000038297157
10
8.9777778160749335
20
-10.950000038297157
0
LWPOLYLINE
5
200
100
AcDbEntity
8
0
100
AcDbPolyline
90
4
70
1
43
0.0
10
10.088888927186044
20
-11.750000063828596
10
10.888888952717483
20
-11.750000063828596
10
10.888888952717483
20
-10.950000038297157
10
10.088888927186044
20
-10.950000038297157
0
LWPOLYLINE
5
201
100
AcDbEntity
8
0
100
AcDbPolyline
90
4
70
1
43
0.0
10
11.200000038297157
20
-11.750000063828596
10
12.000000063828594
20
-11.750000063828596
10
12.000000063828594
20
-10.950000038297157
10
11.200000038297157
20
-10.950000038297157
0
LWPOLYLINE
5
202
100
AcDbEntity
8
0
100
AcDbPolyline
90
4
70
1
43
0.0
10
1.2000000382971574
20
-12.833333397161928
10
2.0000000638285957
20
-12.833333397161928
10
2.0000000638285957
20
-12.033333371630491
10
1.2000000382971574
20
-12.033333371630491
0
LWPOLYLINE
5
203
100
AcDbEntity
8
0
100
AcDbPolyline
90
4
70
1
43
0.0
10
2.3111111494082683
20
-12.833333397161928
10
3.1111111749397069
20
-12.833333397161928
10
3.1111111749397069
20
-12.033333371630491
10
2.3111111494082683
20
-12.033333371630491
0
LWPOLYLINE
5
204
100
AcDbEntity
8
0
100
AcDbPolyline
90
4
70
1
43
0.0
10
3.4222222605193795
20
-12.833333397161928
10
4.2222222860508181
20
-12.833333397161928
10
4.2222222860508181
20
-12.033333371630491
10
3.4222222605193795
20
-12.033333371630491
0
LWPOLYLINE
5
205
100
AcDbEntity
8
0
100
AcDbPolyline
90
4
70
1
43
0.0
10
4.5333333716304898
20
-12.833333397161928
10
5.3333333971619279
20
-12.833333397161928
10
5.3333333971619279
20
-12.033333371630491
10
4.5333333716304898
20
-12.033333371630491
0
LWPOLYLINE
5
206
100
AcDbEntity
8
0
100
AcDbPolyline
90
4
70
1
43
0.0
10
5.6444444827416014
20
-12.833333397161928
10
6.4444445082730395
20
-12.833333397161928
10
6.4444445082730395
20
-12.033333371630491
10
5.6444444827416014
20
-12.033333371630491
0
LWPOLYLINE
5
207
100
AcDbEntity
8
0
100
AcDbPolyline
90
4
70
1
43
0.0
10
6.7555555938527121
20
-12.833333397161928
10
7.5555556193841511
20
-12.833333397161928
10
7.5555556193841511
20
-12.033333371630491
10
6.7555555938527121
20
-12.033333371630491
0
LWPOLYLINE
5
208
100
AcDbEntity
8
0
100
AcDbPolyline
90
4
70
1
43
0.0
10
7.8666667049638219
20
-12.833333397161928
10
8.66666673049526
20
-12.833333397161928
10
8.66666673049526
20
-12.033333371630491
10
7.8666667049638219
20
-12.033333371630491
0
LWPOLYLINE
5
209
100
AcDbEntity
8
0
100
AcDbPolyline
90
4
70
1
43
0.0
10
8.9777778160749335
20
-12.833333397161928
10
9.7777778416063725
20
-12.833333397161928
10
9.7777778416063725
20
-12.033333371630491
10
8.9777778160749335
20
-12.033333371630491
0
LWPOLYLINE
5
210
100
AcDbEntity
8
0
100
AcDbPolyline
90
4
70
1
43
0.0
10
10.088888927186044
20
-12.833333397161928
10
10.888888952717483
20
-12.833333397161928
10
10.888888952717483
20
-12.033333371630491
10
10.088888927186044
20
-12.033333371630491
0
LWPOLYLINE
5
211
100
AcDbEntity
8
0
100
AcDbPolyline
90
4
70
1
43
0.0
10
11.200000038297157
20
-12.833333397161928
10
12.000000063828594
20
-12.833333397161928
10
12.000000063828594
20
-12.033333371630491
10
11.200000038297157
20
-12.033333371630491
0
LWPOLYLINE
5
212
100
AcDbEntity
8
0
100
AcDbPolyline
90
4
70
1
43
0.0
10
1.2000000382971574
20
-13.916666730495264
10
2.0000000638285957
20
-13.916666730495264
10
2.0000000638285957
20
-13.116666704963825
10
1.2000000382971574
20
-13.116666704963825
0
LWPOLYLINE
5
213
100
AcDbEntity
8
0
100
AcDbPolyline
90
4
70
1
43
0.0
10
2.3111111494082683
20
-13.916666730495264
10
3.1111111749397069
20
-13.916666730495264
10
3.1111111749397069
20
-13.116666704963825
10
2.3111111494082683
20
-13.116666704963825
0
LWPOLYLINE
5
214
100
AcDbEntity
8
0
100
AcDbPolyline
90
4
70
1
43
0.0
10
3.4222222605193795
20
-13.916666730495264
10
4.2222222860508181
20
-13.916666730495264
10
4.2222222860508181
20
-13.116666704963825
10
3.4222222605193795
20
-13.116666704963825
0
LWPOLYLINE
5
215
100
AcDbEntity
8
0
100
AcDbPolyline
90
4
70
1
43
0.0
10
4.5333333716304898
20
-13.916666730495264
10
5.3333333971619279
20
-13.916666730495264
10
5.3333333971619279
20
-13.116666704963825
10
4.5333333716304898
20
-13.116666704963825
0
LWPOLYLINE
5
216
100
AcDbEntity
8
0
100
AcDbPolyline
90
4
70
1
43
0.0
10
5.6444444827416014
20
-13.916666730495264
10
6.4444445082730395
20
-13.916666730495264
10
6.4444445082730395
20
-13.116666704963825
10
5.6444444827416014
20
-13.116666704963825
0
LWPOLYLINE
5
217
100
AcDbEntity
8
0
100
AcDbPolyline
90
4
70
1
43
0.0
10
6.7555555938527121
20
-13.916666730495264
10
7.5555556193841511
20
-13.916666730495264
10
7.5555556193841511
20
-13.116666704963825
10
6.7555555938527121
20
-13.116666704963825
0
LWPOLYLINE
5
218
100
AcDbEntity
8
0
100
AcDbPolyline
90
4
70
1
43
0.0
10
7.8666667049638219
20
-13.916666730495264
10
8.66666673049526
20
-13.916666730495264
10
8.66666673049526
20
-13.116666704963825
10
7.8666667049638219
20
-13.116666704963825
0
LWPOLYLINE
5
219
100
AcDbEntity
8
0
100
AcDbPolyline
90
4
70
1
43
0.0
10
8.9777778160749335
20
-13.916666730495264
10
9.7777778416063725
20
-13.916666730495264
10
9.7777778416063725
20
-13.116666704963825
10
8.9777778160749335
20
-13.116666704963825
0
LWPOLYLINE
5
220
100
AcDbEntity
8
0
100
AcDbPolyline
90
4
70
1
43
0.0
10
10.088888927186044
20
-13.916666730495264
10
10.888888952717483
20
-13.916666730495264
10
10.888888952717483
20
-13.116666704963825
10
10.088888927186044
20
-13.116666704963825
0
LWPOLYLINE
5
221
100
AcDbEntity
8
0
100
AcDbPolyline
90
4
70
1
43
0.0
10
11.200000038297157
20
-13.916666730495264
10
12.000000063828594
20
-13.916666730495264
10
12.000000063828594
20
-13.116666704963825
10
11.200000038297157
20
-13.116666704963825
0
LWPOLYLINE
5
222
100
AcDbEntity
8
0
100
AcDbPolyline
90
4
70
1
43
0.0
10
1.2000000382971574
20
-15.000000063828596
10
2.0000000638285957
20
-15.000000063828596
10
2.0000000638285957
20
-14.200000038297157
10
1.2000000382971574
20
-14.200000038297157
0
LWPOLYLINE
5
223
100
AcDbEntity
8
0
100
AcDbPolyline
90
4
70
1
43
0.0
10
2.3111111494082683
20
-15.000000063828596
10
3.1111111749397069
20
-15.000000063828596
10
3.1111111749397069
20
-14.200000038297157
10
2.3111111494082683
20
-14.200000038297157
0
LWPOLYLINE
5
224
100
AcDbEntity
8
0
100
AcDbPolyline
90
4
70
1
43
0.0
10
3.4222222605193795
20
-15.000000063828596
10
4.2222222860508181
20
-15.000000063828596
10
4.2222222860508181
20
-14.200000038297157
10
3.4222222605193795
20
-14.200000038297157
0
LWPOLYLINE
5
225
100
AcDbEntity
8
0
100
AcDbPolyline
90
4
70
1
43
0.0
10
4.5333333716304898
20
-15.000000063828596
10
5.3333333971619279
20
-15.000000063828596
10
5.3333333971619279
20
-14.200000038297157
10
4.5333333716304898
20
-14.200000038297157
0
LWPOLYLINE
5
226
100
AcDbEntity
8
0
100
AcDbPolyline
90
4
70
1
43
0.0
10
5.6444444827416014
20
-15.000000063828596
10
6.4444445082730395
20
-15.000000063828596
10
6.4444445082730395
20
-14.200000038297157
10
5.6444444827416014
20
-14.200000038297157
0
LWPOLYLINE
5
227
100
AcDbEntity
8
0
100
AcDbPolyline
90
4
70
1
43
0.0
10
6.7555555938527121
20
-15.000000063828596
10
7.5555556193841511
20
-15.000000063828596
10
7.5555556193841511
20
-14.200000038297157
10
6.7555555938527121
20
-14.200000038297157
0
LWPOLYLINE
5
228
100
AcDbEntity
8
0
100
AcDbPolyline
90
4
70
1
43
0.0
10
7.8666667049638219
20
-15.000000063828596
10
8.66666673049526
20
-15.000000063828596
10
8.66666673049526
20
-14.200000038297157
10
7.8666667049638219
20
-14.200000038297157
0
LWPOLYLINE
5
229
100
AcDbEntity
8
0
100
AcDbPolyline
90
4
70
1
43
0.0
10
8.9777778160749335
20
-15.000000063828596
10
9.7777778416063725
20
-15.000000063828596
10
9.7777778416063725
20
-14.200000038297157
10
8.9777778160749335
20
-14.200000038297157
0
LWPOLYLINE
5
230
100
AcDbEntity
8
0
100
AcDbPolyline
90
4
70
1
43
0.0
10
10.088888927186044
20
-15.000000063828596
10
10.888888952717483
20
-15.000000063828596
10
10.888888952717483
20
-14.200000038297157
10
10.088888927186044
20
-14.200000038297157
0
LWPOLYLINE
5
231
100
AcDbEntity
8
0
100
AcDbPolyline
90
4
70
1
43
0.0
10
11.200000038297157
20
-15.000000063828596
10
12.000000063828594
20
-15.000000063828596
10
12.000000063828594
20
-14.200000038297157
10
11.200000038297157
20
-14.200000038297157
0
LWPOLYLINE
5
232
100
AcDbEntity
8
0
100
AcDbPolyline
90
4
70
1
43
0.0
10
1.2000000382971574
20
-16.08333339716193
10
2.0000000638285957
20
-16.08333339716193
10
2.0000000638285957
20
-15.283333371630491
10
1.2000000382971574
20
-15.283333371630491
0
LWPOLYLINE
5
233
100
AcDbEntity
8
0
100
AcDbPolyline
90
4
70
1
43
0.0
10
2.3111111494082683
20
-16.08333339716193
10
3.1111111749397069
20
-16.08333339716193
10
3.1111111749397069
20
-15.283333371630491
10
2.3111111494082683
20
-15.283333371630491
0
LWPOLYLINE
5
234
100
AcDbEntity
8
0
100
AcDbPolyline
90
4
70
1
43
0.0
10
3.4222222605193795
20
-16.08333339716193
10
4.2222222860508181
20
-16.08333339716193
10
4.2222222860508181
20
-15.283333371630491
10
3.4222222605193795
20
-15.283333371630491
0
LWPOLYLINE
5
235
100
AcDbEntity
8
0
100
AcDbPolyline
90
4
70
1
43
0.0
10
4.5333333716304898
20
-16.08333339716193
10
5.3333333971619279
20
-16.08333339716193
10
5.3333333971619279
20
-15.283333371630491
10
4.5333333716304898
20
-15.283333371630491
0
LWPOLYLINE
5
236
100
AcDbEntity
8
0
100
AcDbPolyline
90
4
70
1
43
0.0
10
5.6444444827416014
20
-16.08333339716193
10
6.4444445082730395
20
-16.08333339716193
10
6.4444445082730395
20
-15.283333371630491
10
5.6444444827416014
20
-15.283333371630491
0
LWPOLYLINE
5
237
100
AcDbEntity
8
0
100
AcDbPolyline
90
4
70
1
43
0.0
10
6.7555555938527121
20
-16.08333339716193
10
7.5555556193841511
20
-16.08333339716193
10
7.5555556193841511
20
-15.283333371630491
10
6.7555555938527121
20
-15.283333371630491
0
LWPOLYLINE
5
238
100
AcDbEntity
8
0
100
AcDbPolyline
90
4
70
1
43
0.0
10
7.8666667049638219
20
-16.08333339716193
10
8.66666673049526
20
-16.08333339716193
10
8.66666673049526
20
-15.283333371630491
10
7.8666667049638219
20
-15.283333371630491
0
LWPOLYLINE
5
239
100
AcDbEntity
8
0
100
AcDbPolyline
90
4
70
1
43
0.0
10
8.9777778160749335
20
-16.08333339716193
10
9.7777778416063725
20
-16.08333339716193
10
9.7777778416063725
20
-15.283333371630491
10
8.9777778160749335
20
-15.283333371630491
0
LWPOLYLINE
5
240
100
AcDbEntity
8
0
100
AcDbPolyline
90
4
70
1
43
0.0
10
10.088888927186044
20
-16.08333339716193
10
10.888888952717483
20
-16.08333339716193
10
10.888888952717483
20
-15.283333371630491
10
10.088888927186044
20
-15.283333371630491
0
LWPOLYLINE
5
241
100
AcDbEntity
8
0
100
AcDbPolyline
90
4
70
1
43
0.0
10
11.200000038297157
20
-16.08333339716193
10
12.000000063828594
20
-16.08333339716193
10
12.000000063828594
20
-15.283333371630491
10
11.200000038297157
20
-15.283333371630491
0
LWPOLYLINE
5
242
100
AcDbEntity
8
0
100
AcDbPolyline
90
4
70
1
43
0.0
10
1.2000000382971574
20
-17.166666730495265
10
2.0000000638285957
20
-17.166666730495265
10
2.0000000638285957
20
-16.366666704963826
10
1.2000000382971574
20
-16.366666704963826
0
LWPOLYLINE
5
243
100
AcDbEntity
8
0
100
AcDbPolyline
90
4
70
1
43
0.0
10
2.3111111494082683
20
-17.166666730495265
10
3.1111111749397069
20
-17.166666730495265
10
3.1111111749397069
20
-16.366666704963826
10
2.3111111494082683
20
-16.366666704963826
0
LWPOLYLINE
5
244
100
AcDbEntity
8
0
100
AcDbPolyline
90
4
70
1
43
0.0
10
3.4222222605193795
20
-17.166666730495265
10
4.2222222860508181
20
-17.166666730495265
10
4.2222222860508181
20
-16.366666704963826
10
3.4222222605193795
20
-16.366666704963826
0
LWPOLYLINE
5
245
100
AcDbEntity
8
0
100
AcDbPolyline
90
4
70
1
43
0.0
10
4.5333333716304898
20
-17.166666730495265
10
5.3333333971619279
20
-17.166666730495265
10
5.3333333971619279
20
-16.366666704963826
10
4.5333333716304898
20
-16.366666704963826
0
LWPOLYLINE
5
246
100
AcDbEntity
8
0
100
AcDbPolyline
90
4
70
1
43
0.0
10
5.6444444827416014
20
-17.166666730495265
10
6.4444445082730395
20
-17.166666730495265
10
6.4444445082730395
20
-16.366666704963826
10
5.6444444827416014
20
-16.366666704963826
0
LWPOLYLINE
5
247
100
AcDbEntity
8
0
100
AcDbPolyline
90
4
70
1
43
0.0
10
6.7555555938527121
20
-17.166666730495265
10
7.5555556193841511
20
-17.166666730495265
10
7.5555556193841511
20
-16.366666704963826
10
6.7555555938527121
20
-16.366666704963826
0
LWPOLYLINE
5
248
100
AcDbEntity
8
0
100
AcDbPolyline
90
4
70
1
43
0.0
10
7.8666667049638219
20
-17.166666730495265
10
8.66666673049526
20
-17.166666730495265
10
8.66666673049526
20
-16.366666704963826
10
7.8666667049638219
20
-16.366666704963826
0
LWPOLYLINE
5
249
100
AcDbEntity
8
0
100
AcDbPolyline
90
4
70
1
43
0.0
10
8.9777778160749335
20
-17.166666730495265
10
9.7777778416063725
20
-17.166666730495265
10
9.7777778416063725
20
-16.366666704963826
10
8.9777778160749335
20
-16.366666704963826
0
LWPOLYLINE
5
250
100
AcDbEntity
8
0
100
AcDbPolyline
90
4
70
1
43
0.0
10
10.088888927186044
20
-17.166666730495265
10
10.888888952717483
20
-17.166666730495265
10
10.888888952717483
20
-16.366666704963826
10
10.088888927186044
20
-16.366666704963826
0
LWPOLYLINE
5
251
100
AcDbEntity
8
0
100
AcDbPolyline
90
4
70
1
43
0.0
10
11.200000038297157
20
-17.166666730495265
10
12.000000063828594
20
-17.166666730495265
10
12.000000063828594
20
-16.366666704963826
10
11.200000038297157
20
-16.366666704963826
0
LWPOLYLINE
5
252
100
AcDbEntity
8
0
100
AcDbPolyline
90
4
70
1
43
0.0
10
1.2000000382971574
20
-18.250000063828598
10
2.0000000638285957
20
-18.250000063828598
10
2.0000000638285957
20
-17.450000038297159
10
1.2000000382971574
20
-17.450000038297159
0
LWPOLYLINE
5
253
100
AcDbEntity
8
0
100
AcDbPolyline
90
4
70
1
43
0.0
10
2.3111111494082683
20
-18.250000063828598
10
3.1111111749397069
20
-18.250000063828598
10
3.1111111749397069
20
-17.450000038297159
10
2.3111111494082683
20
-17.450000038297159
0
LWPOLYLINE
5
254
100
AcDbEntity
8
0
100
AcDbPolyline
90
4
70
1
43
0.0
10
3.4222222605193795
20
-18.250000063828598
10
4.2222222860508181
20
-18.250000063828598
10
4.2222222860508181
20
-17.450000038297159
10
3.4222222605193795
20
-17.450000038297159
0
LWPOLYLINE
5
255
100
AcDbEntity
8
0
100
AcDbPolyline
90
4
70
1
43
0.0
10
4.5333333716304898
20
-18.250000063828598
10
5.3333333971619279
20
-18.250000063828598
10
5.3333333971619279
20
-17.450000038297159
10
4.5333333716304898
20
-17.450000038297159
0
LWPOLYLINE
5
256
100
AcDbEntity
8
0
100
AcDbPolyline
90
4
70
1
43
0.0
10
5.6444444827416014
20
-18.250000063828598
10
6.4444445082730395
20
-18.250000063828598
10
6.4444445082730395
20
-17.450000038297159
10
5.6444444827416014
20
-17.450000038297159
0
LWPOLYLINE
5
257
100
AcDbEntity
8
0
100
AcDbPolyline
90
4
70
1
43
0.0
10
6.7555555938527121
20
-18.250000063828598
10
7.5555556193841511
20
-18.250000063828598
10
7.5555556193841511
20
-17.450000038297159
10
6.7555555938527121
20
-17.450000038297159
0
LWPOLYLINE
5
258
100
AcDbEntity
8
0
100
AcDbPolyline
90
4
70
1
43
0.0
10
7.8666667049638219
20
-18.250000063828598
10
8.66666673049526
20
-18.250000063828598
10
8.66666673049526
20
-17.450000038297159
10
7.8666667049638219
20
-17.450000038297159
0
LWPOLYLINE
5
259
100
AcDbEntity
8
0
100
AcDbPolyline
90
4
70
1
43
0.0
10
8.9777778160749335
20
-18.250000063828598
10
9.7777778416063725
20
-18.250000063828598
10
9.7777778416063725
20
-17.450000038297159
10
8.9777778160749335
20
-17.450000038297159
0
LWPOLYLINE
5
260
100
AcDbEntity
8
0
100
AcDbPolyline
90
4
70
1
43
0.0
10
10.088888927186044
20
-18.250000063828598
10
10.888888952717483
20
-18.250000063828598
10
10.888888952717483
20
-17.450000038297159
10
10.088888927186044
20
-17.450000038297159
0
LWPOLYLINE
5
261
100
AcDbEntity
8
0
100
AcDbPolyline
90
4
70
1
43
0.0
10
11.200000038297157
20
-18.250000063828598
10
12.000000063828594
20
-18.250000063828598
10
12.000000063828594
20
-17.450000038297159
10
11.200000038297157
20
-17.450000038297159
0
LWPOLYLINE
5
262
100
AcDbEntity
8
0
100
AcDbPolyline
90
4
70
1
43
0.0
10
1.2000000382971574
20
-19.33333339716193
10
2.0000000638285957
20
-19.33333339716193
10
2.0000000638285957
20
-18.533333371630491
10
1.2000000382971574
20
-18.533333371630491
0
LWPOLYLINE
5
263
100
AcDbEntity
8
0
100
AcDbPolyline
90
4
70
1
43
0.0
10
2.3111111494082683
20
-19.33333339716193
10
3.1111111749397069
20
-19.33333339716193
10
3.1111111749397069
20
-18.533333371630491
10
2.3111111494082683
20
-18.533333371630491
0
LWPOLYLINE
5
264
100
AcDbEntity
8
0
100
AcDbPolyline
90
4
70
1
43
0.0
10
3.4222222605193795
20
-19.33333339716193
10
4.2222222860508181
20
-19.33333339716193
10
4.2222222860508181
20
-18.533333371630491
10
3.4222222605193795
20
-18.533333371630491
0
LWPOLYLINE
5
265
100
AcDbEntity
8
0
100
AcDbPolyline
90
4
70
1
43
0.0
10
4.5333333716304898
20
-19.33333339716193
10
5.3333333971619279
20
-19.33333339716193
10
5.3333333971619279
20
-18.533333371630491
10
4.5333333716304898
20
-18.533333371630491
0
LWPOLYLINE
5
266
100
AcDbEntity
8
0
100
AcDbPolyline
90
4
70
1
43
0.0
10
5.6444444827416014
20
-19.33333339716193
10
6.4444445082730395
20
-19.33333339716193
10
6.4444445082730395
20
-18.533333371630491
10
5.6444444827416014
20
-18.533333371630491
0
LWPOLYLINE
5
267
100
AcDbEntity
8
0
100
AcDbPolyline
90
4
70
1
43
0.0
10
6.7555555938527121
20
-19.33333339716193
10
7.5555556193841511
20
-19.33333339716193
10
7.5555556193841511
20
-18.533333371630491
10
6.7555555938527121
20
-18.533333371630491
0
LWPOLYLINE
5
268
100
AcDbEntity
8
0
100
AcDbPolyline
90
4
70
1
43
0.0
10
7.8666667049638219
20
-19.33333339716193
10
8.66666673049526
20
-19.33333339716193
10
8.66666673049526
20
-18.533333371630491
10
7.8666667049638219
20
-18.533333371630491
0
LWPOLYLINE
5
269
100
AcDbEntity
8
0
100
AcDbPolyline
90
4
70
1
43
0.0
10
8.9777778160749335
20
-19.33333339716193
10
9.7777778416063725
20
-19.33333339716193
10
9.7777778416063725
20
-18.533333371630491
10
8.9777778160749335
20
-18.533333371630491
0
LWPOLYLINE
5
270
100
AcDbEntity
8
0
100
AcDbPolyline
90
4
70
1
43
0.0
10
10.088888927186044
20
-19.33333339716193
10
10.888888952717483
20
-19.33333339716193
10
10.888888952717483
20
-18.533333371630491
10
10.088888927186044
20
-18.533333371630491
0
LWPOLYLINE
5
271
100
AcDbEntity
8
0
100
AcDbPolyline
90
4
70
1
43
0.0
10
11.200000038297157
20
-19.33333339716193
10
12.000000063828594
20
-19.33333339716193
10
12.000000063828594
20
-18.533333371630491
10
11.200000038297157
20
-18.533333371630491
0
LWPOLYLINE
5
272
100
AcDbEntity
8
0
100
AcDbPolyline
90
4
70
1
43
0.0
10
1.2000000382971574
20
-20.416666730495262
10
2.0000000638285957
20
-20.416666730495262
10
2.0000000638285957
20
-19.616666704963823
10
1.2000000382971574
20
-19.616666704963823
0
LWPOLYLINE
5
273
100
AcDbEntity
8
0
100
AcDbPolyline
90
4
70
1
43
0.0
10
2.3111111494082683
20
-20.416666730495262
10
3.1111111749397069
20
-20.416666730495262
10
3.1111111749397069
20
-19.616666704963823
10
2.3111111494082683
20
-19.616666704963823
0
LWPOLYLINE
5
274
100
AcDbEntity
8
0
100
AcDbPolyline
90
4
70
1
43
0.0
10
3.4222222605193795
20
-20.416666730495262
10
4.2222222860508181
20
-20.416666730495262
10
4.2222222860508181
20
-19.616666704963823
10
3.4222222605193795
20
-19.616666704963823
0
LWPOLYLINE
5
275
100
AcDbEntity
8
0
100
AcDbPolyline
90
4
70
1
43
0.0
10
4.5333333716304898
20
-20.416666730495262
10
5.3333333971619279
20
-20.416666730495262
10
5.3333333971619279
20
-19.616666704963823
10
4.5333333716304898
20
-19.616666704963823
0
LWPOLYLINE
5
276
100
AcDbEntity
8
0
100
AcDbPolyline
90
4
70
1
43
0.0
10
5.6444444827416014
20
-20.416666730495262
10
6.4444445082730395
20
-20.416666730495262
10
6.4444445082730395
20
-19.616666704963823
10
5.6444444827416014
20
-19.616666704963823
0
LWPOLYLINE
5
277
100
AcDbEntity
8
0
100
AcDbPolyline
90
4
70
1
43
0.0
10
6.7555555938527121
20
-20.416666730495262
10
7.5555556193841511
20
-20.416666730495262
10
7.5555556193841511
20
-19.616666704963823
10
6.7555555938527121
20
-19.616666704963823
0
LWPOLYLINE
5
278
100
AcDbEntity
8
0
100
AcDbPolyline
90
4
70
1
43
0.0
10
7.8666667049638219
20
-20.416666730495262
10
8.66666673049526
20
-20.416666730495262
10
8.66666673049526
20
-19.616666704963823
10
7.8666667049638219
20
-19.616666704963823
0
LWPOLYLINE
5
279
100
AcDbEntity
8
0
100
AcDbPolyline
90
4
70
1
43
0.0
10
8.9777778160749335
20
-20.416666730495262
10
9.7777778416063725
20
-20.416666730495262
10
9.7777778416063725
20
-19.616666704963823
10
8.9777778160749335
20
-19.616666704963823
0
LWPOLYLINE
5
280
100
AcDbEntity
8
0
100
AcDbPolyline
90
4
70
1
43
0.0
10
10.088888927186044
20
-20.416666730495262
10
10.888888952717483
20
-20.416666730495262
10
10.888888952717483
20
-19.616666704963823
10
10.088888927186044
20
-19.616666704963823
0
LWPOLYLINE
5
281
100
AcDbEntity
8
0
100
AcDbPolyline
90
4
70
1
43
0.0
10
11.200000038297157
20
-20.416666730495262
10
12.000000063828594
20
-20.416666730495262
10
12.000000063828594
20
-19.616666704963823
10
11.200000038297157
20
-19.616666704963823
0
LWPOLYLINE
5
282
100
AcDbEntity
8
0
100
AcDbPolyline
90
4
70
1
43
0.0
10
1.2000000382971574
20
-21.500000063828594
10
2.0000000638285957
20
-21.500000063828594
10
2.0000000638285957
20
-20.700000038297155
10
1.2000000382971574
20
-20.700000038297155
0
LWPOLYLINE
5
283
100
AcDbEntity
8
0
100
AcDbPolyline
90
4
70
1
43
0.0
10
2.3111111494082683
20
-21.500000063828594
10
3.1111111749397069
20
-21.500000063828594
10
3.1111111749397069
20
-20.700000038297155
10
2.3111111494082683
20
-20.700000038297155
0
LWPOLYLINE
5
284
100
AcDbEntity
8
0
100
AcDbPolyline
90
4
70
1
43
0.0
10
3.4222222605193795
20
-21.500000063828594
10
4.2222222860508181
20
-21.500000063828594
10
4.2222222860508181
20
-20.700000038297155
10
3.4222222605193795
20
-20.700000038297155
0
LWPOLYLINE
5
285
100
AcDbEntity
8
0
100
AcDbPolyline
90
4
70
1
43
0.0
10
4.5333333716304898
20
-21.500000063828594
10
5.3333333971619279
20
-21.500000063828594
10
5.3333333971619279
20
-20.700000038297155
10
4.5333333716304898
20
-20.700000038297155
0
LWPOLYLINE
5
286
100
AcDbEntity
8
0
100
AcDbPolyline
90
4
70
1
43
0.0
10
5.6444444827416014
20
-21.500000063828594
10
6.4444445082730395
20
-21.500000063828594
10
6.4444445082730395
20
-20.700000038297155
10
5.6444444827416014
20
-20.700000038297155
0
LWPOLYLINE
5
287
100
AcDbEntity
8
0
100
AcDbPolyline
90
4
70
1
43
0.0
10
6.7555555938527121
20
-21.500000063828594
10
7.5555556193841511
20
-21.500000063828594
10
7.5555556193841511
20
-20.700000038297155
10
6.7555555938527121
20
-20.700000038297155
0
LWPOLYLINE
5
288
100
AcDbEntity
8
0
100
AcDbPolyline
90
4
70
1
43
0.0
10
7.8666667049638219
20
-21.500000063828594
10
8.66666673049526
20
-21.500000063828594
10
8.66666673049526
20
-20.700000038297155
10
7.8666667049638219
20
-20.700000038297155
0
LWPOLYLINE
5
289
100
AcDbEntity
8
0
100
AcDbPolyline
90
4
70
1
43
0.0
10
8.9777778160749335
20
-21.500000063828594
10
9.7777778416063725
20
-21.500000063828594
10
9.7777778416063725
20
-20.700000038297155
10
8.9777778160749335
20
-20.700000038297155
0
LWPOLYLINE
5
290
100
AcDbEntity
8
0
100
AcDbPolyline
90
4
70
1
43
0.0
10
10.088888927186044
20
-21.500000063828594
10
10.888888952717483
20
-21.500000063828594
10
10.888888952717483
20
-20.700000038297155
10
10.088888927186044
20
-20.700000038297155
0
LWPOLYLINE
5
291
100
AcDbEntity
8
0
100
AcDbPolyline
90
4
70
1
43
0.0
10
11.200000038297157
20
-21.500000063828594
10
12.000000063828594
20
-21.500000063828594
10
12.000000063828594
20
-20.700000038297155
10
11.200000038297157
20
-20.700000038297155
0
LWPOLYLINE
5
292
100
AcDbEntity
8
0
100
AcDbPolyline
90
4
70
1
43
0.0
10
1.2000000382971574
20
-22.58333339716193
10
2.0000000638285957
20
-22.58333339716193
10
2.0000000638285957
20
-21.783333371630491
10
1.2000000382971574
20
-21.783333371630491
0
LWPOLYLINE
5
293
100
AcDbEntity
8
0
100
AcDbPolyline
90
4
70
1
43
0.0
10
2.3111111494082683
20
-22.58333339716193
10
3.1111111749397069
20
-22.58333339716193
10
3.1111111749397069
20
-21.783333371630491
10
2.3111111494082683
20
-21.783333371630491
0
LWPOLYLINE
5
294
100
AcDbEntity
8
0
100
AcDbPolyline
90
4
70
1
43
0.0
10
3.4222222605193795
20
-22.58333339716193
10
4.2222222860508181
20
-22.58333339716193
10
4.2222222860508181
20
-21.783333371630491
10
3.4222222605193795
20
-21.783333371630491
0
LWPOLYLINE
5
295
100
AcDbEntity
8
0
100
AcDbPolyline
90
4
70
1
43
0.0
10
4.5333333716304898
20
-22.58333339716193
10
5.3333333971619279
20
-22.58333339716193
10
5.3333333971619279
20
-21.783333371630491
10
4.5333333716304898
20
-21.783333371630491
0
LWPOLYLINE
5
296
100
AcDbEntity
8
0
100
AcDbPolyline
90
4
70
1
43
0.0
10
5.6444444827416014
20
-22.58333339716193
10
6.4444445082730395
20
-22.58333339716193
10
6.4444445082730395
20
-21.783333371630491
10
5.6444444827416014
20
-21.783333371630491
0
LWPOLYLINE
5
297
100
AcDbEntity
8
0
100
AcDbPolyline
90
4
70
1
43
0.0
10
6.7555555938527121
20
-22.58333339716193
10
7.5555556193841511
20
-22.58333339716193
10
7.5555556193841511
20
-21.783333371630491
10
6.7555555938527121
20
-21.783333371630491
0
LWPOLYLINE
5
298
100
AcDbEntity
8
0
100
AcDbPolyline
90
4
70
1
43
0.0
10
7.8666667049638219
20
-22.58333339716193
10
8.66666673049526
20
-22.58333339716193
10
8.66666673049526
20
-21.783333371630491
10
7.8666667049638219
20
-21.783333371630491
0
LWPOLYLINE
5
299
100
AcDbEntity
8
0
100
AcDbPolyline
90
4
70
1
43
0.0
10
8.9777778160749335
20
-22.58333339716193
10
9.7777778416063725
20
-22.58333339716193
10
9.7777778416063725
20
-21.783333371630491
10
8.9777778160749335
20
-21.783333371630491
0
LWPOLYLINE
5
300
100
AcDbEntity
8
0
100
AcDbPolyline
90
4
70
1
43
0.0
10
10.088888927186044
20
-22.58333339716193
10
10.888888952717483
20
-22.58333339716193
10
10.888888952717483
20
-21.783333371630491
10
10.088888927186044
20
-21.783333371630491
0
LWPOLYLINE
5
301
100
AcDbEntity
8
0
100
AcDbPolyline
90
4
70
1
43
0.0
10
11.200000038297157
20
-22.58333339716193
10
12.000000063828594
20
-22.58333339716193
10
12.000000063828594
20
-21.783333371630491
10
11.200000038297157
20
-21.783333371630491
0
LWPOLYLINE
5
302
100
AcDbEntity
8
0
100
AcDbPolyline
90
4
70
1
43
0.0
10
1.2000000382971574
20
-23.666666730495262
10
2.0000000638285957
20
-23.666666730495262
10
2.0000000638285957
20
-22.866666704963823
10
1.2000000382971574
20
-22.866666704963823
0
LWPOLYLINE
5
303
100
AcDbEntity
8
0
100
AcDbPolyline
90
4
70
1
43
0.0
10
2.3111111494082683
20
-23.666666730495262
10
3.1111111749397069
20
-23.666666730495262
10
3.1111111749397069
20
-22.866666704963823
10
2.3111111494082683
20
-22.866666704963823
0
LWPOLYLINE
5
304
100
AcDbEntity
8
0
100
AcDbPolyline
90
4
70
1
43
0.0
10
3.4222222605193795
20
-23.666666730495262
10
4.2222222860508181
20
-23.666666730495262
10
4.2222222860508181
20
-22.866666704963823
10
3.4222222605193795
20
-22.866666704963823
0
LWPOLYLINE
5
305
100
AcDbEntity
8
0
100
AcDbPolyline
90
4
70
1
43
0.0
10
4.5333333716304898
20
-23.666666730495262
10
5.3333333971619279
20
-23.666666730495262
10
5.3333333971619279
20
-22.866666704963823
10
4.5333333716304898
20
-22.866666704963823
0
LWPOLYLINE
5
306
100
AcDbEntity
8
0
100
AcDbPolyline
90
4
70
1
43
0.0
10
5.6444444827416014
20
-23.666666730495262
10
6.4444445082730395
20
-23.666666730495262
10
6.4444445082730395
20
-22.866666704963823
10
5.6444444827416014
20
-22.866666704963823
0
LWPOLYLINE
5
307
100
AcDbEntity
8
0
100
AcDbPolyline
90
4
70
1
43
0.0
10
6.7555555938527121
20
-23.666666730495262
10
7.5555556193841511
20
-23.666666730495262
10
7.5555556193841511
20
-22.866666704963823
10
6.7555555938527121
20
-22.866666704963823
0
LWPOLYLINE
5
308
100
AcDbEntity
8
0
100
AcDbPolyline
90
4
70
1
43
0.0
10
7.8666667049638219
20
-23.666666730495262
10
8.66666673049526
20
-23.666666730495262
10
8.66666673049526
20
-22.866666704963823
10
7.8666667049638219
20
-22.866666704963823
0
LWPOLYLINE
5
309
100
AcDbEntity
8
0
100
AcDbPolyline
90
4
70
1
43
0.0
10
8.9777778160749335
20
-23.666666730495262
10
9.7777778416063725
20
-23.666666730495262
10
9.7777778416063725
20
-22.866666704963823
10
8.9777778160749335
20
-22.866666704963823
0
LWPOLYLINE
5
310
100
AcDbEntity
8
0
100
AcDbPolyline
90
4
70
1
43
0.0
10
10.088888927186044
20
-23.666666730495262
10
10.888888952717483
20
-23.666666730495262
10
10.888888952717483
20
-22.866666704963823
10
10.088888927186044
20
-22.866666704963823
0
LWPOLYLINE
5
311
100
AcDbEntity
8
0
100
AcDbPolyline
90
4
70
1
43
0.0
10
11.200000038297157
20
-23.666666730495262
10
12.000000063828594
20
-23.666666730495262
10
12.000000063828594
20
-22.866666704963823
10
11.200000038297157
20
-22.866666704963823
0
LWPOLYLINE
5
312
100
AcDbEntity
8
0
100
AcDbPolyline
90
4
70
1
43
0.0
10
1.2000000382971574
20
-24.750000063828594
10
2.0000000638285957
20
-24.750000063828594
10
2.0000000638285957
20
-23.950000038297159
10
1.2000000382971574
20
-23.950000038297159
0
LWPOLYLINE
5
313
100
AcDbEntity
8
0
100
AcDbPolyline
90
4
70
1
43
0.0
10
2.3111111494082683
20
-24.750000063828594
10
3.1111111749397069
20
-24.750000063828594
10
3.1111111749397069
20
-23.950000038297159
10
2.3111111494082683
20
-23.950000038297159
0
LWPOLYLINE
5
314
100
AcDbEntity
8
0
100
AcDbPolyline
90
4
70
1
43
0.0
10
3.4222222605193795
20
-24.750000063828594
10
4.2222222860508181
20
-24.750000063828594
10
4.2222222860508181
20
-23.950000038297159
10
3.4222222605193795
20
-23.950000038297159
0
LWPOLYLINE
5
315
100
AcDbEntity
8
0
100
AcDbPolyline
90
4
70
1
43
0.0
10
4.5333333716304898
20
-24.750000063828594
10
5.3333333971619279
20
-24.750000063828594
10
5.3333333971619279
20
-23.950000038297159
10
4.5333333716304898
20
-23.950000038297159
0
LWPOLYLINE
5
316
100
AcDbEntity
8
0
100
AcDbPolyline
90
4
70
1
43
0.0
10
5.6444444827416014
20
-24.750000063828594
10
6.4444445082730395
20
-24.750000063828594
10
6.4444445082730395
20
-23.950000038297159
10
5.6444444827416014
20
-23.950000038297159
0
LWPOLYLINE
5
317
100
AcDbEntity
8
0
100
AcDbPolyline
90
4
70
1
43
0.0
10
6.7555555938527121
20
-24.750000063828594
10
7.5555556193841511
20
-24.750000063828594
10
7.5555556193841511
20
-23.950000038297159
10
6.7555555938527121
20
-23.950000038297159
0
LWPOLYLINE
5
318
100
AcDbEntity
8
0
100
AcDbPolyline
90
4
70
1
43
0.0
10
7.8666667049638219
20
-24.750000063828594
10
8.66666673049526
20
-24.750000063828594
10
8.66666673049526
20
-23.950000038297159
10
7.8666667049638219
20
-23.950000038297159
0
LWPOLYLINE
5
319
100
AcDbEntity
8
0
100
AcDbPolyline
90
4
70
1
43
0.0
10
8.9777778160749335
20
-24.750000063828594
10
9.7777778416063725
20
-24.750000063828594
10
9.7777778416063725
20
-23.950000038297159
10
8.9777778160749335
20
-23.950000038297159
0
LWPOLYLINE
5
320
100
AcDbEntity
8
0
100
AcDbPolyline
90
4
70
1
43
0.0
10
10.088888927186044
20
-24.750000063828594
10
10.888888952717483
20
-24.750000063828594
10
10.888888952717483
20
-23.950000038297159
10
10.088888927186044
20
-23.950000038297159
0
LWPOLYLINE
5
321
100
AcDbEntity
8
0
100
AcDbPolyline
90
4
70
1
43
0.0
10
11.200000038297157
20
-24.750000063828594
10
12.000000063828594
20
-24.750000063828594
10
12.000000063828594
20
-23.950000038297159
10
11.200000038297157
20
-23.950000038297159
0
LWPOLYLINE
5
322
100
AcDbEntity
8
0
100
AcDbPolyline
90
4
70
1
43
0.0
10
1.2000000382971574
20
-25.83333339716193
10
2.0000000638285957
20
-25.83333339716193
10
2.0000000638285957
20
-25.033333371630494
10
1.2000000382971574
20
-25.033333371630494
0
LWPOLYLINE
5
323
100
AcDbEntity
8
0
100
AcDbPolyline
90
4
70
1
43
0.0
10
2.3111111494082683
20
-25.83333339716193
10
3.1111111749397069
20
-25.83333339716193
10
3.1111111749397069
20
-25.033333371630494
10
2.3111111494082683
20
-25.033333371630494
0
LWPOLYLINE
5
324
100
AcDbEntity
8
0
100
AcDbPolyline
90
4
70
1
43
0.0
10
3.4222222605193795
20
-25.83333339716193
10
4.2222222860508181
20
-25.83333339716193
10
4.2222222860508181
20
-25.033333371630494
10
3.4222222605193795
20
-25.033333371630494
0
LWPOLYLINE
5
325
100
AcDbEntity
8
0
100
AcDbPolyline
90
4
70
1
43
0.0
10
4.5333333716304898
20
-25.83333339716193
10
5.3333333971619279
20
-25.83333339716193
10
5.3333333971619279
20
-25.033333371630494
10
4.5333333716304898
20
-25.033333371630494
0
LWPOLYLINE
5
326
100
AcDbEntity
8
0
100
AcDbPolyline
90
4
70
1
43
0.0
10
5.6444444827416014
20
-25.83333339716193
10
6.4444445082730395
20
-25.83333339716193
10
6.4444445082730395
20
-25.033333371630494
10
5.6444444827416014
20
-25.033333371630494
0
LWPOLYLINE
5
327
100
AcDbEntity
8
0
100
AcDbPolyline
90
4
70
1
43
0.0
10
6.7555555938527121
20
-25.83333339716193
10
7.5555556193841511
20
-25.83333339716193
10
7.5555556193841511
20
-25.033333371630494
10
6.7555555938527121
20
-25.033333371630494
0
LWPOLYLINE
5
328
100
AcDbEntity
8
0
100
AcDbPolyline
90
4
70
1
43
0.0
10
7.8666667049638219
20
-25.83333339716193
10
8.66666673049526
20
-25.83333339716193
10
8.66666673049526
20
-25.033333371630494
10
7.8666667049638219
20
-25.033333371630494
0
LWPOLYLINE
5
329
100
AcDbEntity
8
0
100
AcDbPolyline
90
4
70
1
43
0.0
10
8.9777778160749335
20
-25.83333339716193
10
9.7777778416063725
20
-25.83333339716193
10
9.7777778416063725
20
-25.033333371630494
10
8.9777778160749335
20
-25.033333371630494
0
LWPOLYLINE
5
330
100
AcDbEntity
8
0
100
AcDbPolyline
90
4
70
1
43
0.0
10
10.088888927186044
20
-25.83333339716193
10
10.888888952717483
20
-25.83333339716193
10
10.888888952717483
20
-25.033333371630494
10
10.088888927186044
20
-25.033333371630494
0
LWPOLYLINE
5
331
100
AcDbEntity
8
0
100
AcDbPolyline
90
4
70
1
43
0.0
10
11.200000038297157
20
-25.83333339716193
10
12.000000063828594
20
-25.83333339716193
10
12.000000063828594
20
-25.033333371630494
10
11.200000038297157
20
-25.033333371630494
0
LWPOLYLINE
5
332
100
AcDbEntity
8
0
100
AcDbPolyline
90
4
70
1
43
0.0
10
2.3111111494082683
20
-26.916666730495262
10
3.1111111749397069
20
-26.916666730495262
10
3.1111111749397069
20
-26.116666704963826
10
2.3111111494082683
20
-26.116666704963826
0
LWPOLYLINE
5
333
100
AcDbEntity
8
0
100
AcDbPolyline
90
4
70
1
43
0.0
10
3.4222222605193795
20
-26.916666730495262
10
4.2222222860508181
20
-26.916666730495262
10
4.2222222860508181
20
-26.116666704963826
10
3.4222222605193795
20
-26.116666704963826
0
LWPOLYLINE
5
334
100
AcDbEntity
8
0
100
AcDbPolyline
90
4
70
1
43
0.0
10
4.5333333716304898
20
-26.916666730495262
10
5.3333333971619279
20
-26.916666730495262
10
5.3333333971619279
20
-26.116666704963826
10
4.5333333716304898
20
-26.116666704963826
0
LWPOLYLINE
5
335
100
AcDbEntity
8
0
100
AcDbPolyline
90
4
70
1
43
0.0
10
5.6444444827416014
20
-26.916666730495262
10
6.4444445082730395
20
-26.916666730495262
10
6.4444445082730395
20
-26.116666704963826
10
5.6444444827416014
20
-26.116666704963826
0
LWPOLYLINE
5
336
100
AcDbEntity
8
0
100
AcDbPolyline
90
4
70
1
43
0.0
10
6.7555555938527121
20
-26.916666730495262
10
7.5555556193841511
20
-26.916666730495262
10
7.5555556193841511
20
-26.116666704963826
10
6.7555555938527121
20
-26.116666704963826
0
LWPOLYLINE
5
337
100
AcDbEntity
8
0
100
AcDbPolyline
90
4
70
1
43
0.0
10
7.8666667049638219
20
-26.916666730495262
10
8.66666673049526
20
-26.916666730495262
10
8.66666673049526
20
-26.116666704963826
10
7.8666667049638219
20
-26.116666704963826
0
LWPOLYLINE
5
338
100
AcDbEntity
8
0
100
AcDbPolyline
90
4
70
1
43
0.0
10
8.9777778160749335
20
-26.916666730495262
10
9.7777778416063725
20
-26.916666730495262
10
9.7777778416063725
20
-26.116666704963826
10
8.9777778160749335
20
-26.116666704963826
0
LWPOLYLINE
5
339
100
AcDbEntity
8
0
100
AcDbPolyline
90
4
70
1
43
0.0
10
10.088888927186044
20
-26.916666730495262
10
10.888888952717483
20
-26.916666730495262
10
10.888888952717483
20
-26.116666704963826
10
10.088888927186044
20
-26.116666704963826
0
LWPOLYLINE
5
340
100
AcDbEntity
8
0
100
AcDbPolyline
90
4
70
1
43
0.0
10
11.200000038297157
20
-26.916666730495262
10
12.000000063828594
20
-26.916666730495262
10
12.000000063828594
20
-26.116666704963826
10
11.200000038297157
20
-26.116666704963826
0
CIRCLE
5
341
100
AcDbEntity
8
0
100
AcDbCircle
10
2.4999999624537668
20
-0.49999999249075339
30
0
40
0.13000000000000003
0
CIRCLE
5
342
100
AcDbEntity
8
0
100
AcDbCircle
10
31.199999999874848
20
-0.50000001588205623
30
0
40
0.12999999999999878
0
CIRCLE
5
343
100
AcDbEntity
8
0
100
AcDbCircle
10
33.199999992866218
20
-28.499999999999996
30
0
40
0.12999999999999867
0
CIRCLE
5
344
100
AcDbEntity
8
0
100
AcDbCircle
10
0.49999999999999584
20
-28.499999999999996
30
0
40
0.12999999999999914
0
ENDSEC
0
SECTION
2
OBJECTS
0
DICTIONARY
5
C
100
AcDbDictionary
3
ACAD_GROUP
350
D
3
ACAD_MLINESTYLE
350
17
0
DICTIONARY
5
D
100
AcDbDictionary
0
DICTIONARY
5
1A
330
C
100
AcDbDictionary
0
DICTIONARY
5
17
100
AcDbDictionary
0
ENDSEC
0
EOF
