0
SECTION
2
HEADER
9
$INSUNITS
70
1
9
$ACADVER
1
AC1014
9
$HANDSEED
5
FFFF
0
ENDSEC
0
SECTION
2
TABLES
0
TABLE
2
VPORT
5
8
100
AcDbSymbolTable
0
ENDTAB
0
TABLE
2
LTYPE
5
5
100
AcDbSymbolTable
0
LTYPE
5
14
100
AcDbSymbolTableRecord
100
AcDbLinetypeTableRecord
2
BYBLOCK
70
0
0
LTYPE
5
15
100
AcDbSymbolTableRecord
100
AcDbLinetypeTableRecord
2
BYLAYER
70
0
0
ENDTAB
0
TABLE
2
LAYER
5
2
100
AcDbSymbolTable
70
2
0
LAYER
5
50
100
AcDbSymbolTableRecord
100
AcDbLayerTableRecord
2
0
70
0
6
CONTINUOUS
0
ENDTAB
0
TABLE
2
STYLE
5
3
100
AcDbSymbolTable
70
1
0
STYLE
5
11
100
AcDbSymbolTableRecord
100
AcDbTextStyleTableRecord
2
STANDARD
70
0
0
ENDTAB
0
TABLE
2
VIEW
5
6
100
AcDbSymbolTable
70
0
0
ENDTAB
0
TABLE
2
UCS
5
7
100
AcDbSymbolTable
70
0
0
ENDTAB
0
TABLE
2
APPID
5
9
100
AcDbSymbolTable
70
2
0
APPID
5
12
100
AcDbSymbolTableRecord
100
AcDbRegAppTableRecord
2
ACAD
70
0
0
ENDTAB
0
TABLE
2
DIMSTYLE
5
A
100
AcDbSymbolTable
70
1
0
ENDTAB
0
TABLE
2
BLOCK_RECORD
5
1
100
AcDbSymbolTable
70
1
0
BLOCK_RECORD
5
1F
100
AcDbSymbolTableRecord
100
AcDbBlockTableRecord
2
*MODEL_SPACE
0
BLOCK_RECORD
5
1B
100
AcDbSymbolTableRecord
100
AcDbBlockTableRecord
2
*PAPER_SPACE
0
ENDTAB
0
ENDSEC
0
SECTION
2
BLOCKS
0
BLOCK
5
20
100
AcDbEntity
100
AcDbBlockBegin
2
*MODEL_SPACE
0
ENDBLK
5
21
100
AcDbEntity
100
AcDbBlockEnd
0
BLOCK
5
1C
100
AcDbEntity
100
AcDbBlockBegin
2
*PAPER_SPACE
0
ENDBLK
5
1D
100
AcDbEntity
100
AcDbBlockEnd
0
ENDSEC
0
SECTION
2
ENTITIES
0
LINE
5
100
100
AcDbEntity
8
0
100
AcDbLine
10
41.00000003191429
20
-1.0000000319142981
30
0
11
41
21
-30.999999999999996
31
0
0
LINE
5
101
100
AcDbEntity
8
0
100
AcDbLine
10
39.999999999999986
20
-29.999999999999982
30
0
11
39.999999999999993
21
0
31
0
0
LINE
5
102
100
AcDbEntity
8
0
100
AcDbLine
10
39.999999999999993
20
-1.0000000319142981
30
0
11
39.999999999999993
21
-25.900000826580321
31
0
0
LINE
5
103
100
AcDbEntity
8
0
100
AcDbLine
10
51.999999999999993
20
0
30
0
11
50.99999997747225
21
0
31
0
0
LINE
5
104
100
AcDbEntity
8
0
100
AcDbLine
10
72.700000000000003
20
-6.6731656846639618e-32
30
0
11
72.700000000000003
21
-30.999999999999996
31
0
0
LINE
5
105
100
AcDbEntity
8
0
100
AcDbLine
10
73.700000000000003
20
-6.8772380297607198e-32
30
0
11
73.699999992490746
21
-30.000000000250317
31
0
0
LINE
5
106
100
AcDbEntity
8
0
100
AcDbLine
10
39.999999999999993
20
-0.99999999999999989
30
0
11
73.699999999749693
21
-1.0000000084353873
31
0
0
LINE
5
107
100
AcDbEntity
8
0
100
AcDbLine
10
39.999999999999993
20
0
30
0
11
73.700000000000003
21
-6.8772380297607198e-32
31
0
0
LINE
5
108
100
AcDbEntity
8
0
100
AcDbLine
10
72.69999999249076
20
-30.999999999999996
30
0
11
41
21
-30.999999999999996
31
0
0
ARC
5
109
100
AcDbEntity
8
0
100
AcDbCircle
10
72.69999999249076
20
-30.000000000000011
30
0
40
0.99999999999998557
100
AcDbArc
50
270
51
360
0
LWPOLYLINE
5
110
100
AcDbEntity
8
0
100
AcDbPolyline
90
4
70
1
43
0.0
10
41.200000038297155
20
-25.83333339716193
10
42.000000063828587
20
-25.83333339716193
10
42.000000063828587
20
-25.033333371630494
10
41.200000038297155
20
-25.033333371630494
0
LINE
5
111
100
AcDbEntity
8
0
100
AcDbLine
10
41.100000035105722
20
-1.0000000319142981
30
0
11
41.00000003191429
21
-1.0000000319142981
31
0
0
LINE
5
112
100
AcDbEntity
8
0
100
AcDbLine
10
41.00000003191429
20
-1.0000000319142981
30
0
11
39.999999999999993
21
-1.0000000319142981
31
0
0
LINE
5
113
100
AcDbEntity
8
0
100
AcDbLine
10
41.499999977472257
20
0
30
0
11
41.100000035105722
21
0
31
0
0
LINE
5
114
100
AcDbEntity
8
0
100
AcDbLine
10
40.9999999849815
20
-2.0407234203189809e-33
30
0
11
41.00000003191429
21
-1.0000000319142981
31
0
0
ARC
5
115
100
AcDbEntity
8
0
100
AcDbCircle
10
41
20
-29.999999999999982
30
0
40
1.0000000000000135
100
AcDbArc
50
180
51
270
0
LWPOLYLINE
5
116
100
AcDbEntity
8
0
100
AcDbPolyline
90
2
70
1
43
0.0
10
41.499999977472257
20
-26.600146175283186
10
41.499999977472257
20
-26.599855522557448
42
-0.00048442130778641757
0
LINE
5
117
100
AcDbEntity
8
0
100
AcDbLine
10
41.200000038297155
20
-26.994948975581195
30
0
11
41.200000038297155
21
-26.999999999999996
31
0
0
LWPOLYLINE
5
118
100
AcDbEntity
8
0
100
AcDbPolyline
90
4
70
1
43
0.0
10
43.089285778114302
20
-25.033333371630494
10
42.28928575258287
20
-25.033333371630494
10
42.28928575258287
20
-25.83333339716193
10
43.089285778114302
20
-25.83333339716193
0
LWPOLYLINE
5
119
100
AcDbEntity
8
0
100
AcDbPolyline
90
4
70
1
43
0.0
10
44.178571492400017
20
-25.033333371630494
10
43.378571466868586
20
-25.033333371630494
10
43.378571466868586
20
-25.83333339716193
10
44.178571492400017
20
-25.83333339716193
0
LWPOLYLINE
5
120
100
AcDbEntity
8
0
100
AcDbPolyline
90
4
70
1
43
0.0
10
45.267857206685733
20
-25.033333371630494
10
44.467857181154294
20
-25.033333371630494
10
44.467857181154294
20
-25.83333339716193
10
45.267857206685733
20
-25.83333339716193
0
LWPOLYLINE
5
121
100
AcDbEntity
8
0
100
AcDbPolyline
90
4
70
1
43
0.0
10
46.357142920971448
20
-25.033333371630494
10
45.557142895440009
20
-25.033333371630494
10
45.557142895440009
20
-25.83333339716193
10
46.357142920971448
20
-25.83333339716193
0
LWPOLYLINE
5
122
100
AcDbEntity
8
0
100
AcDbPolyline
90
4
70
1
43
0.0
10
47.446428635257163
20
-25.033333371630494
10
46.646428609725724
20
-25.033333371630494
10
46.646428609725724
20
-25.83333339716193
10
47.446428635257163
20
-25.83333339716193
0
LWPOLYLINE
5
123
100
AcDbEntity
8
0
100
AcDbPolyline
90
4
70
1
43
0.0
10
48.535714349542879
20
-25.033333371630494
10
47.73571432401144
20
-25.033333371630494
10
47.73571432401144
20
-25.83333339716193
10
48.535714349542879
20
-25.83333339716193
0
LWPOLYLINE
5
124
100
AcDbEntity
8
0
100
AcDbPolyline
90
4
70
1
43
0.0
10
49.625000063828594
20
-25.033333371630494
10
48.825000038297155
20
-25.033333371630494
10
48.825000038297155
20
-25.83333339716193
10
49.625000063828594
20
-25.83333339716193
0
LWPOLYLINE
5
125
100
AcDbEntity
8
0
100
AcDbPolyline
90
4
70
1
43
0.0
10
50.714285778114302
20
-25.033333371630494
10
49.914285752582863
20
-25.033333371630494
10
49.914285752582863
20
-25.83333339716193
10
50.714285778114302
20
-25.83333339716193
0
LWPOLYLINE
5
126
100
AcDbEntity
8
0
100
AcDbPolyline
90
4
70
1
43
0.0
10
51.803571492400025
20
-25.033333371630494
10
51.003571466868586
20
-25.033333371630494
10
51.003571466868586
20
-25.83333339716193
10
51.803571492400025
20
-25.83333339716193
0
LWPOLYLINE
5
127
100
AcDbEntity
8
0
100
AcDbPolyline
90
4
70
1
43
0.0
10
52.892857206685733
20
-25.033333371630494
10
52.092857181154294
20
-25.033333371630494
10
52.092857181154294
20
-25.83333339716193
10
52.892857206685733
20
-25.83333339716193
0
LWPOLYLINE
5
128
100
AcDbEntity
8
0
100
AcDbPolyline
90
4
70
1
43
0.0
10
53.982142920971441
20
-25.033333371630494
10
53.182142895440002
20
-25.033333371630494
10
53.182142895440002
20
-25.83333339716193
10
53.982142920971441
20
-25.83333339716193
0
LWPOLYLINE
5
129
100
AcDbEntity
8
0
100
AcDbPolyline
90
4
70
1
43
0.0
10
55.071428635257163
20
-25.033333371630494
10
54.271428609725724
20
-25.033333371630494
10
54.271428609725724
20
-25.83333339716193
10
55.071428635257163
20
-25.83333339716193
0
LWPOLYLINE
5
130
100
AcDbEntity
8
0
100
AcDbPolyline
90
4
70
1
43
0.0
10
56.160714349542872
20
-25.033333371630494
10
55.360714324011433
20
-25.033333371630494
10
55.360714324011433
20
-25.83333339716193
10
56.160714349542872
20
-25.83333339716193
0
LWPOLYLINE
5
131
100
AcDbEntity
8
0
100
AcDbPolyline
90
4
70
1
43
0.0
10
57.25000006382858
20
-25.033333371630494
10
56.450000038297148
20
-25.033333371630494
10
56.450000038297148
20
-25.83333339716193
10
57.25000006382858
20
-25.83333339716193
0
LWPOLYLINE
5
132
100
AcDbEntity
8
0
100
AcDbPolyline
90
4
70
1
43
0.0
10
58.339285778114302
20
-25.033333371630494
10
57.539285752582863
20
-25.033333371630494
10
57.539285752582863
20
-25.83333339716193
10
58.339285778114302
20
-25.83333339716193
0
LWPOLYLINE
5
133
100
AcDbEntity
8
0
100
AcDbPolyline
90
4
70
1
43
0.0
10
59.42857149240001
20
-25.033333371630494
10
58.628571466868578
20
-25.033333371630494
10
58.628571466868578
20
-25.83333339716193
10
59.42857149240001
20
-25.83333339716193
0
LWPOLYLINE
5
134
100
AcDbEntity
8
0
100
AcDbPolyline
90
4
70
1
43
0.0
10
60.517857206685733
20
-25.033333371630494
10
59.717857181154294
20
-25.033333371630494
10
59.717857181154294
20
-25.83333339716193
10
60.517857206685733
20
-25.83333339716193
0
LWPOLYLINE
5
135
100
AcDbEntity
8
0
100
AcDbPolyline
90
4
70
1
43
0.0
10
61.607142920971448
20
-25.033333371630494
10
60.807142895440009
20
-25.033333371630494
10
60.807142895440009
20
-25.83333339716193
10
61.607142920971448
20
-25.83333339716193
0
LWPOLYLINE
5
136
100
AcDbEntity
8
0
100
AcDbPolyline
90
4
70
1
43
0.0
10
62.696428635257163
20
-25.033333371630494
10
61.896428609725724
20
-25.033333371630494
10
61.896428609725724
20
-25.83333339716193
10
62.696428635257163
20
-25.83333339716193
0
LWPOLYLINE
5
137
100
AcDbEntity
8
0
100
AcDbPolyline
90
4
70
1
43
0.0
10
63.785714349542879
20
-25.033333371630494
10
62.98571432401144
20
-25.033333371630494
10
62.98571432401144
20
-25.83333339716193
10
63.785714349542879
20
-25.83333339716193
0
LWPOLYLINE
5
138
100
AcDbEntity
8
0
100
AcDbPolyline
90
4
70
1
43
0.0
10
64.87500006382858
20
-25.033333371630494
10
64.075000038297148
20
-25.033333371630494
10
64.075000038297148
20
-25.83333339716193
10
64.87500006382858
20
-25.83333339716193
0
LWPOLYLINE
5
139
100
AcDbEntity
8
0
100
AcDbPolyline
90
4
70
1
43
0.0
10
65.964285778114302
20
-25.033333371630494
10
65.16428575258287
20
-25.033333371630494
10
65.16428575258287
20
-25.83333339716193
10
65.964285778114302
20
-25.83333339716193
0
LWPOLYLINE
5
140
100
AcDbEntity
8
0
100
AcDbPolyline
90
4
70
1
43
0.0
10
67.05357149240001
20
-25.033333371630494
10
66.253571466868578
20
-25.033333371630494
10
66.253571466868578
20
-25.83333339716193
10
67.05357149240001
20
-25.83333339716193
0
LWPOLYLINE
5
141
100
AcDbEntity
8
0
100
AcDbPolyline
90
4
70
1
43
0.0
10
68.142857206685733
20
-25.033333371630494
10
67.342857181154287
20
-25.033333371630494
10
67.342857181154287
20
-25.83333339716193
10
68.142857206685733
20
-25.83333339716193
0
LWPOLYLINE
5
142
100
AcDbEntity
8
0
100
AcDbPolyline
90
4
70
1
43
0.0
10
69.232142920971441
20
-25.033333371630494
10
68.432142895440009
20
-25.033333371630494
10
68.432142895440009
20
-25.83333339716193
10
69.232142920971441
20
-25.83333339716193
0
LWPOLYLINE
5
143
100
AcDbEntity
8
0
100
AcDbPolyline
90
4
70
1
43
0.0
10
70.321428635257163
20
-25.033333371630494
10
69.521428609725717
20
-25.033333371630494
10
69.521428609725717
20
-25.83333339716193
10
70.321428635257163
20
-25.83333339716193
0
LWPOLYLINE
5
144
100
AcDbEntity
8
0
100
AcDbPolyline
90
4
70
1
43
0.0
10
71.410714349542872
20
-25.033333371630494
10
70.610714324011425
20
-25.033333371630494
10
70.610714324011425
20
-25.83333339716193
10
71.410714349542872
20
-25.83333339716193
0
LWPOLYLINE
5
145
100
AcDbEntity
8
0
100
AcDbPolyline
90
4
70
1
43
0.0
10
72.500000063828594
20
-25.033333371630494
10
71.700000038297148
20
-25.033333371630494
10
71.700000038297148
20
-25.83333339716193
10
72.500000063828594
20
-25.83333339716193
0
LWPOLYLINE
5
146
100
AcDbEntity
8
0
100
AcDbPolyline
90
4
70
1
43
0.0
10
42.000000063828587
20
-23.942424280721401
10
41.200000038297155
20
-23.942424280721401
10
41.200000038297155
20
-24.74242430625284
10
42.000000063828587
20
-24.74242430625284
0
LWPOLYLINE
5
147
100
AcDbEntity
8
0
100
AcDbPolyline
90
4
70
1
43
0.0
10
43.089285778114302
20
-23.942424280721401
10
42.28928575258287
20
-23.942424280721401
10
42.28928575258287
20
-24.74242430625284
10
43.089285778114302
20
-24.74242430625284
0
LWPOLYLINE
5
148
100
AcDbEntity
8
0
100
AcDbPolyline
90
4
70
1
43
0.0
10
44.178571492400017
20
-23.942424280721401
10
43.378571466868586
20
-23.942424280721401
10
43.378571466868586
20
-24.74242430625284
10
44.178571492400017
20
-24.74242430625284
0
LWPOLYLINE
5
149
100
AcDbEntity
8
0
100
AcDbPolyline
90
4
70
1
43
0.0
10
45.267857206685733
20
-23.942424280721401
10
44.467857181154294
20
-23.942424280721401
10
44.467857181154294
20
-24.74242430625284
10
45.267857206685733
20
-24.74242430625284
0
LWPOLYLINE
5
150
100
AcDbEntity
8
0
100
AcDbPolyline
90
4
70
1
43
0.0
10
46.357142920971448
20
-23.942424280721401
10
45.557142895440009
20
-23.942424280721401
10
45.557142895440009
20
-24.74242430625284
10
46.357142920971448
20
-24.74242430625284
0
LWPOLYLINE
5
151
100
AcDbEntity
8
0
100
AcDbPolyline
90
4
70
1
43
0.0
10
47.446428635257163
20
-23.942424280721401
10
46.646428609725724
20
-23.942424280721401
10
46.646428609725724
20
-24.74242430625284
10
47.446428635257163
20
-24.74242430625284
0
LWPOLYLINE
5
152
100
AcDbEntity
8
0
100
AcDbPolyline
90
4
70
1
43
0.0
10
48.535714349542879
20
-23.942424280721401
10
47.73571432401144
20
-23.942424280721401
10
47.73571432401144
20
-24.74242430625284
10
48.535714349542879
20
-24.74242430625284
0
LWPOLYLINE
5
153
100
AcDbEntity
8
0
100
AcDbPolyline
90
4
70
1
43
0.0
10
49.625000063828594
20
-23.942424280721401
10
48.825000038297155
20
-23.942424280721401
10
48.825000038297155
20
-24.74242430625284
10
49.625000063828594
20
-24.74242430625284
0
LWPOLYLINE
5
154
100
AcDbEntity
8
0
100
AcDbPolyline
90
4
70
1
43
0.0
10
50.714285778114302
20
-23.942424280721401
10
49.914285752582863
20
-23.942424280721401
10
49.914285752582863
20
-24.74242430625284
10
50.714285778114302
20
-24.74242430625284
0
LWPOLYLINE
5
155
100
AcDbEntity
8
0
100
AcDbPolyline
90
4
70
1
43
0.0
10
51.803571492400025
20
-23.942424280721401
10
51.003571466868586
20
-23.942424280721401
10
51.003571466868586
20
-24.74242430625284
10
51.803571492400025
20
-24.74242430625284
0
LWPOLYLINE
5
156
100
AcDbEntity
8
0
100
AcDbPolyline
90
4
70
1
43
0.0
10
52.892857206685733
20
-23.942424280721401
10
52.092857181154294
20
-23.942424280721401
10
52.092857181154294
20
-24.74242430625284
10
52.892857206685733
20
-24.74242430625284
0
LWPOLYLINE
5
157
100
AcDbEntity
8
0
100
AcDbPolyline
90
4
70
1
43
0.0
10
53.982142920971441
20
-23.942424280721401
10
53.182142895440002
20
-23.942424280721401
10
53.182142895440002
20
-24.74242430625284
10
53.982142920971441
20
-24.74242430625284
0
LWPOLYLINE
5
158
100
AcDbEntity
8
0
100
AcDbPolyline
90
4
70
1
43
0.0
10
55.071428635257163
20
-23.942424280721401
10
54.271428609725724
20
-23.942424280721401
10
54.271428609725724
20
-24.74242430625284
10
55.071428635257163
20
-24.74242430625284
0
LWPOLYLINE
5
159
100
AcDbEntity
8
0
100
AcDbPolyline
90
4
70
1
43
0.0
10
56.160714349542872
20
-23.942424280721401
10
55.360714324011433
20
-23.942424280721401
10
55.360714324011433
20
-24.74242430625284
10
56.160714349542872
20
-24.74242430625284
0
LWPOLYLINE
5
160
100
AcDbEntity
8
0
100
AcDbPolyline
90
4
70
1
43
0.0
10
57.25000006382858
20
-23.942424280721401
10
56.450000038297148
20
-23.942424280721401
10
56.450000038297148
20
-24.74242430625284
10
57.25000006382858
20
-24.74242430625284
0
LWPOLYLINE
5
161
100
AcDbEntity
8
0
100
AcDbPolyline
90
4
70
1
43
0.0
10
58.339285778114302
20
-23.942424280721401
10
57.539285752582863
20
-23.942424280721401
10
57.539285752582863
20
-24.74242430625284
10
58.339285778114302
20
-24.74242430625284
0
LWPOLYLINE
5
162
100
AcDbEntity
8
0
100
AcDbPolyline
90
4
70
1
43
0.0
10
59.42857149240001
20
-23.942424280721401
10
58.628571466868578
20
-23.942424280721401
10
58.628571466868578
20
-24.74242430625284
10
59.42857149240001
20
-24.74242430625284
0
LWPOLYLINE
5
163
100
AcDbEntity
8
0
100
AcDbPolyline
90
4
70
1
43
0.0
10
60.517857206685733
20
-23.942424280721401
10
59.717857181154294
20
-23.942424280721401
10
59.717857181154294
20
-24.74242430625284
10
60.517857206685733
20
-24.74242430625284
0
LWPOLYLINE
5
164
100
AcDbEntity
8
0
100
AcDbPolyline
90
4
70
1
43
0.0
10
61.607142920971448
20
-23.942424280721401
10
60.807142895440009
20
-23.942424280721401
10
60.807142895440009
20
-24.74242430625284
10
61.607142920971448
20
-24.74242430625284
0
LWPOLYLINE
5
165
100
AcDbEntity
8
0
100
AcDbPolyline
90
4
70
1
43
0.0
10
62.696428635257163
20
-23.942424280721401
10
61.896428609725724
20
-23.942424280721401
10
61.896428609725724
20
-24.74242430625284
10
62.696428635257163
20
-24.74242430625284
0
LWPOLYLINE
5
166
100
AcDbEntity
8
0
100
AcDbPolyline
90
4
70
1
43
0.0
10
63.785714349542879
20
-23.942424280721401
10
62.98571432401144
20
-23.942424280721401
10
62.98571432401144
20
-24.74242430625284
10
63.785714349542879
20
-24.74242430625284
0
LWPOLYLINE
5
167
100
AcDbEntity
8
0
100
AcDbPolyline
90
4
70
1
43
0.0
10
64.87500006382858
20
-23.942424280721401
10
64.075000038297148
20
-23.942424280721401
10
64.075000038297148
20
-24.74242430625284
10
64.87500006382858
20
-24.74242430625284
0
LWPOLYLINE
5
168
100
AcDbEntity
8
0
100
AcDbPolyline
90
4
70
1
43
0.0
10
65.964285778114302
20
-23.942424280721401
10
65.16428575258287
20
-23.942424280721401
10
65.16428575258287
20
-24.74242430625284
10
65.964285778114302
20
-24.74242430625284
0
LWPOLYLINE
5
169
100
AcDbEntity
8
0
100
AcDbPolyline
90
4
70
1
43
0.0
10
67.05357149240001
20
-23.942424280721401
10
66.253571466868578
20
-23.942424280721401
10
66.253571466868578
20
-24.74242430625284
10
67.05357149240001
20
-24.74242430625284
0
LWPOLYLINE
5
170
100
AcDbEntity
8
0
100
AcDbPolyline
90
4
70
1
43
0.0
10
68.142857206685733
20
-23.942424280721401
10
67.342857181154287
20
-23.942424280721401
10
67.342857181154287
20
-24.74242430625284
10
68.142857206685733
20
-24.74242430625284
0
LWPOLYLINE
5
171
100
AcDbEntity
8
0
100
AcDbPolyline
90
4
70
1
43
0.0
10
69.232142920971441
20
-23.942424280721401
10
68.432142895440009
20
-23.942424280721401
10
68.432142895440009
20
-24.74242430625284
10
69.232142920971441
20
-24.74242430625284
0
LWPOLYLINE
5
172
100
AcDbEntity
8
0
100
AcDbPolyline
90
4
70
1
43
0.0
10
70.321428635257163
20
-23.942424280721401
10
69.521428609725717
20
-23.942424280721401
10
69.521428609725717
20
-24.74242430625284
10
70.321428635257163
20
-24.74242430625284
0
LWPOLYLINE
5
173
100
AcDbEntity
8
0
100
AcDbPolyline
90
4
70
1
43
0.0
10
71.410714349542872
20
-23.942424280721401
10
70.610714324011425
20
-23.942424280721401
10
70.610714324011425
20
-24.74242430625284
10
71.410714349542872
20
-24.74242430625284
0
LWPOLYLINE
5
174
100
AcDbEntity
8
0
100
AcDbPolyline
90
4
70
1
43
0.0
10
72.500000063828594
20
-23.942424280721401
10
71.700000038297148
20
-23.942424280721401
10
71.700000038297148
20
-24.74242430625284
10
72.500000063828594
20
-24.74242430625284
0
LWPOLYLINE
5
175
100
AcDbEntity
8
0
100
AcDbPolyline
90
4
70
1
43
0.0
10
42.000000063828587
20
-22.851515189812311
10
41.200000038297155
20
-22.851515189812311
10
41.200000038297155
20
-23.651515215343746
10
42.000000063828587
20
-23.651515215343746
0
LWPOLYLINE
5
176
100
AcDbEntity
8
0
100
AcDbPolyline
90
4
70
1
43
0.0
10
43.089285778114302
20
-22.851515189812311
10
42.28928575258287
20
-22.851515189812311
10
42.28928575258287
20
-23.651515215343746
10
43.089285778114302
20
-23.651515215343746
0
LWPOLYLINE
5
177
100
AcDbEntity
8
0
100
AcDbPolyline
90
4
70
1
43
0.0
10
44.178571492400017
20
-22.851515189812311
10
43.378571466868586
20
-22.851515189812311
10
43.378571466868586
20
-23.651515215343746
10
44.178571492400017
20
-23.651515215343746
0
LWPOLYLINE
5
178
100
AcDbEntity
8
0
100
AcDbPolyline
90
4
70
1
43
0.0
10
45.267857206685733
20
-22.851515189812311
10
44.467857181154294
20
-22.851515189812311
10
44.467857181154294
20
-23.651515215343746
10
45.267857206685733
20
-23.651515215343746
0
LWPOLYLINE
5
179
100
AcDbEntity
8
0
100
AcDbPolyline
90
4
70
1
43
0.0
10
46.357142920971448
20
-22.851515189812311
10
45.557142895440009
20
-22.851515189812311
10
45.557142895440009
20
-23.651515215343746
10
46.357142920971448
20
-23.651515215343746
0
LWPOLYLINE
5
180
100
AcDbEntity
8
0
100
AcDbPolyline
90
4
70
1
43
0.0
10
47.446428635257163
20
-22.851515189812311
10
46.646428609725724
20
-22.851515189812311
10
46.646428609725724
20
-23.651515215343746
10
47.446428635257163
20
-23.651515215343746
0
LWPOLYLINE
5
181
100
AcDbEntity
8
0
100
AcDbPolyline
90
4
70
1
43
0.0
10
48.535714349542879
20
-22.851515189812311
10
47.73571432401144
20
-22.851515189812311
10
47.73571432401144
20
-23.651515215343746
10
48.535714349542879
20
-23.651515215343746
0
LWPOLYLINE
5
182
100
AcDbEntity
8
0
100
AcDbPolyline
90
4
70
1
43
0.0
10
49.625000063828594
20
-22.851515189812311
10
48.825000038297155
20
-22.851515189812311
10
48.825000038297155
20
-23.651515215343746
10
49.625000063828594
20
-23.651515215343746
0
LWPOLYLINE
5
183
100
AcDbEntity
8
0
100
AcDbPolyline
90
4
70
1
43
0.0
10
50.714285778114302
20
-22.851515189812311
10
49.914285752582863
20
-22.851515189812311
10
49.914285752582863
20
-23.651515215343746
10
50.714285778114302
20
-23.651515215343746
0
LWPOLYLINE
5
184
100
AcDbEntity
8
0
100
AcDbPolyline
90
4
70
1
43
0.0
10
51.803571492400025
20
-22.851515189812311
10
51.003571466868586
20
-22.851515189812311
10
51.003571466868586
20
-23.651515215343746
10
51.803571492400025
20
-23.651515215343746
0
LWPOLYLINE
5
185
100
AcDbEntity
8
0
100
AcDbPolyline
90
4
70
1
43
0.0
10
52.892857206685733
20
-22.851515189812311
10
52.092857181154294
20
-22.851515189812311
10
52.092857181154294
20
-23.651515215343746
10
52.892857206685733
20
-23.651515215343746
0
LWPOLYLINE
5
186
100
AcDbEntity
8
0
100
AcDbPolyline
90
4
70
1
43
0.0
10
53.982142920971441
20
-22.851515189812311
10
53.182142895440002
20
-22.851515189812311
10
53.182142895440002
20
-23.651515215343746
10
53.982142920971441
20
-23.651515215343746
0
LWPOLYLINE
5
187
100
AcDbEntity
8
0
100
AcDbPolyline
90
4
70
1
43
0.0
10
55.071428635257163
20
-22.851515189812311
10
54.271428609725724
20
-22.851515189812311
10
54.271428609725724
20
-23.651515215343746
10
55.071428635257163
20
-23.651515215343746
0
LWPOLYLINE
5
188
100
AcDbEntity
8
0
100
AcDbPolyline
90
4
70
1
43
0.0
10
56.160714349542872
20
-22.851515189812311
10
55.360714324011433
20
-22.851515189812311
10
55.360714324011433
20
-23.651515215343746
10
56.160714349542872
20
-23.651515215343746
0
LWPOLYLINE
5
189
100
AcDbEntity
8
0
100
AcDbPolyline
90
4
70
1
43
0.0
10
57.25000006382858
20
-22.851515189812311
10
56.450000038297148
20
-22.851515189812311
10
56.450000038297148
20
-23.651515215343746
10
57.25000006382858
20
-23.651515215343746
0
LWPOLYLINE
5
190
100
AcDbEntity
8
0
100
AcDbPolyline
90
4
70
1
43
0.0
10
58.339285778114302
20
-22.851515189812311
10
57.539285752582863
20
-22.851515189812311
10
57.539285752582863
20
-23.651515215343746
10
58.339285778114302
20
-23.651515215343746
0
LWPOLYLINE
5
191
100
AcDbEntity
8
0
100
AcDbPolyline
90
4
70
1
43
0.0
10
59.42857149240001
20
-22.851515189812311
10
58.628571466868578
20
-22.851515189812311
10
58.628571466868578
20
-23.651515215343746
10
59.42857149240001
20
-23.651515215343746
0
LWPOLYLINE
5
192
100
AcDbEntity
8
0
100
AcDbPolyline
90
4
70
1
43
0.0
10
60.517857206685733
20
-22.851515189812311
10
59.717857181154294
20
-22.851515189812311
10
59.717857181154294
20
-23.651515215343746
10
60.517857206685733
20
-23.651515215343746
0
LWPOLYLINE
5
193
100
AcDbEntity
8
0
100
AcDbPolyline
90
4
70
1
43
0.0
10
61.607142920971448
20
-22.851515189812311
10
60.807142895440009
20
-22.851515189812311
10
60.807142895440009
20
-23.651515215343746
10
61.607142920971448
20
-23.651515215343746
0
LWPOLYLINE
5
194
100
AcDbEntity
8
0
100
AcDbPolyline
90
4
70
1
43
0.0
10
62.696428635257163
20
-22.851515189812311
10
61.896428609725724
20
-22.851515189812311
10
61.896428609725724
20
-23.651515215343746
10
62.696428635257163
20
-23.651515215343746
0
LWPOLYLINE
5
195
100
AcDbEntity
8
0
100
AcDbPolyline
90
4
70
1
43
0.0
10
63.785714349542879
20
-22.851515189812311
10
62.98571432401144
20
-22.851515189812311
10
62.98571432401144
20
-23.651515215343746
10
63.785714349542879
20
-23.651515215343746
0
LWPOLYLINE
5
196
100
AcDbEntity
8
0
100
AcDbPolyline
90
4
70
1
43
0.0
10
64.87500006382858
20
-22.851515189812311
10
64.075000038297148
20
-22.851515189812311
10
64.075000038297148
20
-23.651515215343746
10
64.87500006382858
20
-23.651515215343746
0
LWPOLYLINE
5
197
100
AcDbEntity
8
0
100
AcDbPolyline
90
4
70
1
43
0.0
10
65.964285778114302
20
-22.851515189812311
10
65.16428575258287
20
-22.851515189812311
10
65.16428575258287
20
-23.651515215343746
10
65.964285778114302
20
-23.651515215343746
0
LWPOLYLINE
5
198
100
AcDbEntity
8
0
100
AcDbPolyline
90
4
70
1
43
0.0
10
67.05357149240001
20
-22.851515189812311
10
66.253571466868578
20
-22.851515189812311
10
66.253571466868578
20
-23.651515215343746
10
67.05357149240001
20
-23.651515215343746
0
LWPOLYLINE
5
199
100
AcDbEntity
8
0
100
AcDbPolyline
90
4
70
1
43
0.0
10
68.142857206685733
20
-22.851515189812311
10
67.342857181154287
20
-22.851515189812311
10
67.342857181154287
20
-23.651515215343746
10
68.142857206685733
20
-23.651515215343746
0
LWPOLYLINE
5
200
100
AcDbEntity
8
0
100
AcDbPolyline
90
4
70
1
43
0.0
10
69.232142920971441
20
-22.851515189812311
10
68.432142895440009
20
-22.851515189812311
10
68.432142895440009
20
-23.651515215343746
10
69.232142920971441
20
-23.651515215343746
0
LWPOLYLINE
5
201
100
AcDbEntity
8
0
100
AcDbPolyline
90
4
70
1
43
0.0
10
70.321428635257163
20
-22.851515189812311
10
69.521428609725717
20
-22.851515189812311
10
69.521428609725717
20
-23.651515215343746
10
70.321428635257163
20
-23.651515215343746
0
LWPOLYLINE
5
202
100
AcDbEntity
8
0
100
AcDbPolyline
90
4
70
1
43
0.0
10
71.410714349542872
20
-22.851515189812311
10
70.610714324011425
20
-22.851515189812311
10
70.610714324011425
20
-23.651515215343746
10
71.410714349542872
20
-23.651515215343746
0
LWPOLYLINE
5
203
100
AcDbEntity
8
0
100
AcDbPolyline
90
4
70
1
43
0.0
10
72.500000063828594
20
-22.851515189812311
10
71.700000038297148
20
-22.851515189812311
10
71.700000038297148
20
-23.651515215343746
10
72.500000063828594
20
-23.651515215343746
0
LWPOLYLINE
5
204
100
AcDbEntity
8
0
100
AcDbPolyline
90
4
70
1
43
0.0
10
42.000000063828587
20
-21.760606098903221
10
41.200000038297155
20
-21.760606098903221
10
41.200000038297155
20
-22.56060612443466
10
42.000000063828587
20
-22.56060612443466
0
LWPOLYLINE
5
205
100
AcDbEntity
8
0
100
AcDbPolyline
90
4
70
1
43
0.0
10
43.089285778114302
20
-21.760606098903221
10
42.28928575258287
20
-21.760606098903221
10
42.28928575258287
20
-22.56060612443466
10
43.089285778114302
20
-22.56060612443466
0
LWPOLYLINE
5
206
100
AcDbEntity
8
0
100
AcDbPolyline
90
4
70
1
43
0.0
10
44.178571492400017
20
-21.760606098903221
10
43.378571466868586
20
-21.760606098903221
10
43.378571466868586
20
-22.56060612443466
10
44.178571492400017
20
-22.56060612443466
0
LWPOLYLINE
5
207
100
AcDbEntity
8
0
100
AcDbPolyline
90
4
70
1
43
0.0
10
45.267857206685733
20
-21.760606098903221
10
44.467857181154294
20
-21.760606098903221
10
44.467857181154294
20
-22.56060612443466
10
45.267857206685733
20
-22.56060612443466
0
LWPOLYLINE
5
208
100
AcDbEntity
8
0
100
AcDbPolyline
90
4
70
1
43
0.0
10
46.357142920971448
20
-21.760606098903221
10
45.557142895440009
20
-21.760606098903221
10
45.557142895440009
20
-22.56060612443466
10
46.357142920971448
20
-22.56060612443466
0
LWPOLYLINE
5
209
100
AcDbEntity
8
0
100
AcDbPolyline
90
4
70
1
43
0.0
10
47.446428635257163
20
-21.760606098903221
10
46.646428609725724
20
-21.760606098903221
10
46.646428609725724
20
-22.56060612443466
10
47.446428635257163
20
-22.56060612443466
0
LWPOLYLINE
5
210
100
AcDbEntity
8
0
100
AcDbPolyline
90
4
70
1
43
0.0
10
48.535714349542879
20
-21.760606098903221
10
47.73571432401144
20
-21.760606098903221
10
47.73571432401144
20
-22.56060612443466
10
48.535714349542879
20
-22.56060612443466
0
LWPOLYLINE
5
211
100
AcDbEntity
8
0
100
AcDbPolyline
90
4
70
1
43
0.0
10
49.625000063828594
20
-21.760606098903221
10
48.825000038297155
20
-21.760606098903221
10
48.825000038297155
20
-22.56060612443466
10
49.625000063828594
20
-22.56060612443466
0
LWPOLYLINE
5
212
100
AcDbEntity
8
0
100
AcDbPolyline
90
4
70
1
43
0.0
10
50.714285778114302
20
-21.760606098903221
10
49.914285752582863
20
-21.760606098903221
10
49.914285752582863
20
-22.56060612443466
10
50.714285778114302
20
-22.56060612443466
0
LWPOLYLINE
5
213
100
AcDbEntity
8
0
100
AcDbPolyline
90
4
70
1
43
0.0
10
51.803571492400025
20
-21.760606098903221
10
51.003571466868586
20
-21.760606098903221
10
51.003571466868586
20
-22.56060612443466
10
51.803571492400025
20
-22.56060612443466
0
LWPOLYLINE
5
214
100
AcDbEntity
8
0
100
AcDbPolyline
90
4
70
1
43
0.0
10
52.892857206685733
20
-21.760606098903221
10
52.092857181154294
20
-21.760606098903221
10
52.092857181154294
20
-22.56060612443466
10
52.892857206685733
20
-22.56060612443466
0
LWPOLYLINE
5
215
100
AcDbEntity
8
0
100
AcDbPolyline
90
4
70
1
43
0.0
10
53.982142920971441
20
-21.760606098903221
10
53.182142895440002
20
-21.760606098903221
10
53.182142895440002
20
-22.56060612443466
10
53.982142920971441
20
-22.56060612443466
0
LWPOLYLINE
5
216
100
AcDbEntity
8
0
100
AcDbPolyline
90
4
70
1
43
0.0
10
55.071428635257163
20
-21.760606098903221
10
54.271428609725724
20
-21.760606098903221
10
54.271428609725724
20
-22.56060612443466
10
55.071428635257163
20
-22.56060612443466
0
LWPOLYLINE
5
217
100
AcDbEntity
8
0
100
AcDbPolyline
90
4
70
1
43
0.0
10
56.160714349542872
20
-21.760606098903221
10
55.360714324011433
20
-21.760606098903221
10
55.360714324011433
20
-22.56060612443466
10
56.160714349542872
20
-22.56060612443466
0
LWPOLYLINE
5
218
100
AcDbEntity
8
0
100
AcDbPolyline
90
4
70
1
43
0.0
10
57.25000006382858
20
-21.760606098903221
10
56.450000038297148
20
-21.760606098903221
10
56.450000038297148
20
-22.56060612443466
10
57.25000006382858
20
-22.56060612443466
0
LWPOLYLINE
5
219
100
AcDbEntity
8
0
100
AcDbPolyline
90
4
70
1
43
0.0
10
58.339285778114302
20
-21.760606098903221
10
57.539285752582863
20
-21.760606098903221
10
57.539285752582863
20
-22.56060612443466
10
58.339285778114302
20
-22.56060612443466
0
LWPOLYLINE
5
220
100
AcDbEntity
8
0
100
AcDbPolyline
90
4
70
1
43
0.0
10
59.42857149240001
20
-21.760606098903221
10
58.628571466868578
20
-21.760606098903221
10
58.628571466868578
20
-22.56060612443466
10
59.42857149240001
20
-22.56060612443466
0
LWPOLYLINE
5
221
100
AcDbEntity
8
0
100
AcDbPolyline
90
4
70
1
43
0.0
10
60.517857206685733
20
-21.760606098903221
10
59.717857181154294
20
-21.760606098903221
10
59.717857181154294
20
-22.56060612443466
10
60.517857206685733
20
-22.56060612443466
0
LWPOLYLINE
5
222
100
AcDbEntity
8
0
100
AcDbPolyline
90
4
70
1
43
0.0
10
61.607142920971448
20
-21.760606098903221
10
60.807142895440009
20
-21.760606098903221
10
60.807142895440009
20
-22.56060612443466
10
61.607142920971448
20
-22.56060612443466
0
LWPOLYLINE
5
223
100
AcDbEntity
8
0
100
AcDbPolyline
90
4
70
1
43
0.0
10
62.696428635257163
20
-21.760606098903221
10
61.896428609725724
20
-21.760606098903221
10
61.896428609725724
20
-22.56060612443466
10
62.696428635257163
20
-22.56060612443466
0
LWPOLYLINE
5
224
100
AcDbEntity
8
0
100
AcDbPolyline
90
4
70
1
43
0.0
10
63.785714349542879
20
-21.760606098903221
10
62.98571432401144
20
-21.760606098903221
10
62.98571432401144
20
-22.56060612443466
10
63.785714349542879
20
-22.56060612443466
0
LWPOLYLINE
5
225
100
AcDbEntity
8
0
100
AcDbPolyline
90
4
70
1
43
0.0
10
64.87500006382858
20
-21.760606098903221
10
64.075000038297148
20
-21.760606098903221
10
64.075000038297148
20
-22.56060612443466
10
64.87500006382858
20
-22.56060612443466
0
LWPOLYLINE
5
226
100
AcDbEntity
8
0
100
AcDbPolyline
90
4
70
1
43
0.0
10
65.964285778114302
20
-21.760606098903221
10
65.16428575258287
20
-21.760606098903221
10
65.16428575258287
20
-22.56060612443466
10
65.964285778114302
20
-22.56060612443466
0
LWPOLYLINE
5
227
100
AcDbEntity
8
0
100
AcDbPolyline
90
4
70
1
43
0.0
10
67.05357149240001
20
-21.760606098903221
10
66.253571466868578
20
-21.760606098903221
10
66.253571466868578
20
-22.56060612443466
10
67.05357149240001
20
-22.56060612443466
0
LWPOLYLINE
5
228
100
AcDbEntity
8
0
100
AcDbPolyline
90
4
70
1
43
0.0
10
68.142857206685733
20
-21.760606098903221
10
67.342857181154287
20
-21.760606098903221
10
67.342857181154287
20
-22.56060612443466
10
68.142857206685733
20
-22.56060612443466
0
LWPOLYLINE
5
229
100
AcDbEntity
8
0
100
AcDbPolyline
90
4
70
1
43
0.0
10
69.232142920971441
20
-21.760606098903221
10
68.432142895440009
20
-21.760606098903221
10
68.432142895440009
20
-22.56060612443466
10
69.232142920971441
20
-22.56060612443466
0
LWPOLYLINE
5
230
100
AcDbEntity
8
0
100
AcDbPolyline
90
4
70
1
43
0.0
10
70.321428635257163
20
-21.760606098903221
10
69.521428609725717
20
-21.760606098903221
10
69.521428609725717
20
-22.56060612443466
10
70.321428635257163
20
-22.56060612443466
0
LWPOLYLINE
5
231
100
AcDbEntity
8
0
100
AcDbPolyline
90
4
70
1
43
0.0
10
71.410714349542872
20
-21.760606098903221
10
70.610714324011425
20
-21.760606098903221
10
70.610714324011425
20
-22.56060612443466
10
71.410714349542872
20
-22.56060612443466
0
LWPOLYLINE
5
232
100
AcDbEntity
8
0
100
AcDbPolyline
90
4
70
1
43
0.0
10
72.500000063828594
20
-21.760606098903221
10
71.700000038297148
20
-21.760606098903221
10
71.700000038297148
20
-22.56060612443466
10
72.500000063828594
20
-22.56060612443466
0
LWPOLYLINE
5
233
100
AcDbEntity
8
0
100
AcDbPolyline
90
4
70
1
43
0.0
10
42.000000063828587
20
-20.669697007994127
10
41.200000038297155
20
-20.669697007994127
10
41.200000038297155
20
-21.469697033525566
10
42.000000063828587
20
-21.469697033525566
0
LWPOLYLINE
5
234
100
AcDbEntity
8
0
100
AcDbPolyline
90
4
70
1
43
0.0
10
43.089285778114302
20
-20.669697007994127
10
42.28928575258287
20
-20.669697007994127
10
42.28928575258287
20
-21.469697033525566
10
43.089285778114302
20
-21.469697033525566
0
LWPOLYLINE
5
235
100
AcDbEntity
8
0
100
AcDbPolyline
90
4
70
1
43
0.0
10
44.178571492400017
20
-20.669697007994127
10
43.378571466868586
20
-20.669697007994127
10
43.378571466868586
20
-21.469697033525566
10
44.178571492400017
20
-21.469697033525566
0
LWPOLYLINE
5
236
100
AcDbEntity
8
0
100
AcDbPolyline
90
4
70
1
43
0.0
10
45.267857206685733
20
-20.669697007994127
10
44.467857181154294
20
-20.669697007994127
10
44.467857181154294
20
-21.469697033525566
10
45.267857206685733
20
-21.469697033525566
0
LWPOLYLINE
5
237
100
AcDbEntity
8
0
100
AcDbPolyline
90
4
70
1
43
0.0
10
46.357142920971448
20
-20.669697007994127
10
45.557142895440009
20
-20.669697007994127
10
45.557142895440009
20
-21.469697033525566
10
46.357142920971448
20
-21.469697033525566
0
LWPOLYLINE
5
238
100
AcDbEntity
8
0
100
AcDbPolyline
90
4
70
1
43
0.0
10
47.446428635257163
20
-20.669697007994127
10
46.646428609725724
20
-20.669697007994127
10
46.646428609725724
20
-21.469697033525566
10
47.446428635257163
20
-21.469697033525566
0
LWPOLYLINE
5
239
100
AcDbEntity
8
0
100
AcDbPolyline
90
4
70
1
43
0.0
10
48.535714349542879
20
-20.669697007994127
10
47.73571432401144
20
-20.669697007994127
10
47.73571432401144
20
-21.469697033525566
10
48.535714349542879
20
-21.469697033525566
0
LWPOLYLINE
5
240
100
AcDbEntity
8
0
100
AcDbPolyline
90
4
70
1
43
0.0
10
49.625000063828594
20
-20.669697007994127
10
48.825000038297155
20
-20.669697007994127
10
48.825000038297155
20
-21.469697033525566
10
49.625000063828594
20
-21.469697033525566
0
LWPOLYLINE
5
241
100
AcDbEntity
8
0
100
AcDbPolyline
90
4
70
1
43
0.0
10
50.714285778114302
20
-20.669697007994127
10
49.914285752582863
20
-20.669697007994127
10
49.914285752582863
20
-21.469697033525566
10
50.714285778114302
20
-21.469697033525566
0
LWPOLYLINE
5
242
100
AcDbEntity
8
0
100
AcDbPolyline
90
4
70
1
43
0.0
10
51.803571492400025
20
-20.669697007994127
10
51.003571466868586
20
-20.669697007994127
10
51.003571466868586
20
-21.469697033525566
10
51.803571492400025
20
-21.469697033525566
0
LWPOLYLINE
5
243
100
AcDbEntity
8
0
100
AcDbPolyline
90
4
70
1
43
0.0
10
52.892857206685733
20
-20.669697007994127
10
52.092857181154294
20
-20.669697007994127
10
52.092857181154294
20
-21.469697033525566
10
52.892857206685733
20
-21.469697033525566
0
LWPOLYLINE
5
244
100
AcDbEntity
8
0
100
AcDbPolyline
90
4
70
1
43
0.0
10
53.982142920971441
20
-20.669697007994127
10
53.182142895440002
20
-20.669697007994127
10
53.182142895440002
20
-21.469697033525566
10
53.982142920971441
20
-21.469697033525566
0
LWPOLYLINE
5
245
100
AcDbEntity
8
0
100
AcDbPolyline
90
4
70
1
43
0.0
10
55.071428635257163
20
-20.669697007994127
10
54.271428609725724
20
-20.669697007994127
10
54.271428609725724
20
-21.469697033525566
10
55.071428635257163
20
-21.469697033525566
0
LWPOLYLINE
5
246
100
AcDbEntity
8
0
100
AcDbPolyline
90
4
70
1
43
0.0
10
56.160714349542872
20
-20.669697007994127
10
55.360714324011433
20
-20.669697007994127
10
55.360714324011433
20
-21.469697033525566
10
56.160714349542872
20
-21.469697033525566
0
LWPOLYLINE
5
247
100
AcDbEntity
8
0
100
AcDbPolyline
90
4
70
1
43
0.0
10
57.25000006382858
20
-20.669697007994127
10
56.450000038297148
20
-20.669697007994127
10
56.450000038297148
20
-21.469697033525566
10
57.25000006382858
20
-21.469697033525566
0
LWPOLYLINE
5
248
100
AcDbEntity
8
0
100
AcDbPolyline
90
4
70
1
43
0.0
10
58.339285778114302
20
-20.669697007994127
10
57.539285752582863
20
-20.669697007994127
10
57.539285752582863
20
-21.469697033525566
10
58.339285778114302
20
-21.469697033525566
0
LWPOLYLINE
5
249
100
AcDbEntity
8
0
100
AcDbPolyline
90
4
70
1
43
0.0
10
59.42857149240001
20
-20.669697007994127
10
58.628571466868578
20
-20.669697007994127
10
58.628571466868578
20
-21.469697033525566
10
59.42857149240001
20
-21.469697033525566
0
LWPOLYLINE
5
250
100
AcDbEntity
8
0
100
AcDbPolyline
90
4
70
1
43
0.0
10
60.517857206685733
20
-20.669697007994127
10
59.717857181154294
20
-20.669697007994127
10
59.717857181154294
20
-21.469697033525566
10
60.517857206685733
20
-21.469697033525566
0
LWPOLYLINE
5
251
100
AcDbEntity
8
0
100
AcDbPolyline
90
4
70
1
43
0.0
10
61.607142920971448
20
-20.669697007994127
10
60.807142895440009
20
-20.669697007994127
10
60.807142895440009
20
-21.469697033525566
10
61.607142920971448
20
-21.469697033525566
0
LWPOLYLINE
5
252
100
AcDbEntity
8
0
100
AcDbPolyline
90
4
70
1
43
0.0
10
62.696428635257163
20
-20.669697007994127
10
61.896428609725724
20
-20.669697007994127
10
61.896428609725724
20
-21.469697033525566
10
62.696428635257163
20
-21.469697033525566
0
LWPOLYLINE
5
253
100
AcDbEntity
8
0
100
AcDbPolyline
90
4
70
1
43
0.0
10
63.785714349542879
20
-20.669697007994127
10
62.98571432401144
20
-20.669697007994127
10
62.98571432401144
20
-21.469697033525566
10
63.785714349542879
20
-21.469697033525566
0
LWPOLYLINE
5
254
100
AcDbEntity
8
0
100
AcDbPolyline
90
4
70
1
43
0.0
10
64.87500006382858
20
-20.669697007994127
10
64.075000038297148
20
-20.669697007994127
10
64.075000038297148
20
-21.469697033525566
10
64.87500006382858
20
-21.469697033525566
0
LWPOLYLINE
5
255
100
AcDbEntity
8
0
100
AcDbPolyline
90
4
70
1
43
0.0
10
65.964285778114302
20
-20.669697007994127
10
65.16428575258287
20
-20.669697007994127
10
65.16428575258287
20
-21.469697033525566
10
65.964285778114302
20
-21.469697033525566
0
LWPOLYLINE
5
256
100
AcDbEntity
8
0
100
AcDbPolyline
90
4
70
1
43
0.0
10
67.05357149240001
20
-20.669697007994127
10
66.253571466868578
20
-20.669697007994127
10
66.253571466868578
20
-21.469697033525566
10
67.05357149240001
20
-21.469697033525566
0
LWPOLYLINE
5
257
100
AcDbEntity
8
0
100
AcDbPolyline
90
4
70
1
43
0.0
10
68.142857206685733
20
-20.669697007994127
10
67.342857181154287
20
-20.669697007994127
10
67.342857181154287
20
-21.469697033525566
10
68.142857206685733
20
-21.469697033525566
0
LWPOLYLINE
5
258
100
AcDbEntity
8
0
100
AcDbPolyline
90
4
70
1
43
0.0
10
69.232142920971441
20
-20.669697007994127
10
68.432142895440009
20
-20.669697007994127
10
68.432142895440009
20
-21.469697033525566
10
69.232142920971441
20
-21.469697033525566
0
LWPOLYLINE
5
259
100
AcDbEntity
8
0
100
AcDbPolyline
90
4
70
1
43
0.0
10
70.321428635257163
20
-20.669697007994127
10
69.521428609725717
20
-20.669697007994127
10
69.521428609725717
20
-21.469697033525566
10
70.321428635257163
20
-21.469697033525566
0
LWPOLYLINE
5
260
100
AcDbEntity
8
0
100
AcDbPolyline
90
4
70
1
43
0.0
10
71.410714349542872
20
-20.669697007994127
10
70.610714324011425
20
-20.669697007994127
10
70.610714324011425
20
-21.469697033525566
10
71.410714349542872
20
-21.469697033525566
0
LWPOLYLINE
5
261
100
AcDbEntity
8
0
100
AcDbPolyline
90
4
70
1
43
0.0
10
72.500000063828594
20
-20.669697007994127
10
71.700000038297148
20
-20.669697007994127
10
71.700000038297148
20
-21.469697033525566
10
72.500000063828594
20
-21.469697033525566
0
LWPOLYLINE
5
262
100
AcDbEntity
8
0
100
AcDbPolyline
90
4
70
1
43
0.0
10
42.000000063828587
20
-19.578787917085037
10
41.200000038297155
20
-19.578787917085037
10
41.200000038297155
20
-20.378787942616476
10
42.000000063828587
20
-20.378787942616476
0
LWPOLYLINE
5
263
100
AcDbEntity
8
0
100
AcDbPolyline
90
4
70
1
43
0.0
10
43.089285778114302
20
-19.578787917085037
10
42.28928575258287
20
-19.578787917085037
10
42.28928575258287
20
-20.378787942616476
10
43.089285778114302
20
-20.378787942616476
0
LWPOLYLINE
5
264
100
AcDbEntity
8
0
100
AcDbPolyline
90
4
70
1
43
0.0
10
44.178571492400017
20
-19.578787917085037
10
43.378571466868586
20
-19.578787917085037
10
43.378571466868586
20
-20.378787942616476
10
44.178571492400017
20
-20.378787942616476
0
LWPOLYLINE
5
265
100
AcDbEntity
8
0
100
AcDbPolyline
90
4
70
1
43
0.0
10
45.267857206685733
20
-19.578787917085037
10
44.467857181154294
20
-19.578787917085037
10
44.467857181154294
20
-20.378787942616476
10
45.267857206685733
20
-20.378787942616476
0
LWPOLYLINE
5
266
100
AcDbEntity
8
0
100
AcDbPolyline
90
4
70
1
43
0.0
10
46.357142920971448
20
-19.578787917085037
10
45.557142895440009
20
-19.578787917085037
10
45.557142895440009
20
-20.378787942616476
10
46.357142920971448
20
-20.378787942616476
0
LWPOLYLINE
5
267
100
AcDbEntity
8
0
100
AcDbPolyline
90
4
70
1
43
0.0
10
47.446428635257163
20
-19.578787917085037
10
46.646428609725724
20
-19.578787917085037
10
46.646428609725724
20
-20.378787942616476
10
47.446428635257163
20
-20.378787942616476
0
LWPOLYLINE
5
268
100
AcDbEntity
8
0
100
AcDbPolyline
90
4
70
1
43
0.0
10
48.535714349542879
20
-19.578787917085037
10
47.73571432401144
20
-19.578787917085037
10
47.73571432401144
20
-20.378787942616476
10
48.535714349542879
20
-20.378787942616476
0
LWPOLYLINE
5
269
100
AcDbEntity
8
0
100
AcDbPolyline
90
4
70
1
43
0.0
10
49.625000063828594
20
-19.578787917085037
10
48.825000038297155
20
-19.578787917085037
10
48.825000038297155
20
-20.378787942616476
10
49.625000063828594
20
-20.378787942616476
0
LWPOLYLINE
5
270
100
AcDbEntity
8
0
100
AcDbPolyline
90
4
70
1
43
0.0
10
50.714285778114302
20
-19.578787917085037
10
49.914285752582863
20
-19.578787917085037
10
49.914285752582863
20
-20.378787942616476
10
50.714285778114302
20
-20.378787942616476
0
LWPOLYLINE
5
271
100
AcDbEntity
8
0
100
AcDbPolyline
90
4
70
1
43
0.0
10
51.803571492400025
20
-19.578787917085037
10
51.003571466868586
20
-19.578787917085037
10
51.003571466868586
20
-20.378787942616476
10
51.803571492400025
20
-20.378787942616476
0
LWPOLYLINE
5
272
100
AcDbEntity
8
0
100
AcDbPolyline
90
4
70
1
43
0.0
10
52.892857206685733
20
-19.578787917085037
10
52.092857181154294
20
-19.578787917085037
10
52.092857181154294
20
-20.378787942616476
10
52.892857206685733
20
-20.378787942616476
0
LWPOLYLINE
5
273
100
AcDbEntity
8
0
100
AcDbPolyline
90
4
70
1
43
0.0
10
53.982142920971441
20
-19.578787917085037
10
53.182142895440002
20
-19.578787917085037
10
53.182142895440002
20
-20.378787942616476
10
53.982142920971441
20
-20.378787942616476
0
LWPOLYLINE
5
274
100
AcDbEntity
8
0
100
AcDbPolyline
90
4
70
1
43
0.0
10
55.071428635257163
20
-19.578787917085037
10
54.271428609725724
20
-19.578787917085037
10
54.271428609725724
20
-20.378787942616476
10
55.071428635257163
20
-20.378787942616476
0
LWPOLYLINE
5
275
100
AcDbEntity
8
0
100
AcDbPolyline
90
4
70
1
43
0.0
10
56.160714349542872
20
-19.578787917085037
10
55.360714324011433
20
-19.578787917085037
10
55.360714324011433
20
-20.378787942616476
10
56.160714349542872
20
-20.378787942616476
0
LWPOLYLINE
5
276
100
AcDbEntity
8
0
100
AcDbPolyline
90
4
70
1
43
0.0
10
57.25000006382858
20
-19.578787917085037
10
56.450000038297148
20
-19.578787917085037
10
56.450000038297148
20
-20.378787942616476
10
57.25000006382858
20
-20.378787942616476
0
LWPOLYLINE
5
277
100
AcDbEntity
8
0
100
AcDbPolyline
90
4
70
1
43
0.0
10
58.339285778114302
20
-19.578787917085037
10
57.539285752582863
20
-19.578787917085037
10
57.539285752582863
20
-20.378787942616476
10
58.339285778114302
20
-20.378787942616476
0
LWPOLYLINE
5
278
100
AcDbEntity
8
0
100
AcDbPolyline
90
4
70
1
43
0.0
10
59.42857149240001
20
-19.578787917085037
10
58.628571466868578
20
-19.578787917085037
10
58.628571466868578
20
-20.378787942616476
10
59.42857149240001
20
-20.378787942616476
0
LWPOLYLINE
5
279
100
AcDbEntity
8
0
100
AcDbPolyline
90
4
70
1
43
0.0
10
60.517857206685733
20
-19.578787917085037
10
59.717857181154294
20
-19.578787917085037
10
59.717857181154294
20
-20.378787942616476
10
60.517857206685733
20
-20.378787942616476
0
LWPOLYLINE
5
280
100
AcDbEntity
8
0
100
AcDbPolyline
90
4
70
1
43
0.0
10
61.607142920971448
20
-19.578787917085037
10
60.807142895440009
20
-19.578787917085037
10
60.807142895440009
20
-20.378787942616476
10
61.607142920971448
20
-20.378787942616476
0
LWPOLYLINE
5
281
100
AcDbEntity
8
0
100
AcDbPolyline
90
4
70
1
43
0.0
10
62.696428635257163
20
-19.578787917085037
10
61.896428609725724
20
-19.578787917085037
10
61.896428609725724
20
-20.378787942616476
10
62.696428635257163
20
-20.378787942616476
0
LWPOLYLINE
5
282
100
AcDbEntity
8
0
100
AcDbPolyline
90
4
70
1
43
0.0
10
63.785714349542879
20
-19.578787917085037
10
62.98571432401144
20
-19.578787917085037
10
62.98571432401144
20
-20.378787942616476
10
63.785714349542879
20
-20.378787942616476
0
LWPOLYLINE
5
283
100
AcDbEntity
8
0
100
AcDbPolyline
90
4
70
1
43
0.0
10
64.87500006382858
20
-19.578787917085037
10
64.075000038297148
20
-19.578787917085037
10
64.075000038297148
20
-20.378787942616476
10
64.87500006382858
20
-20.378787942616476
0
LWPOLYLINE
5
284
100
AcDbEntity
8
0
100
AcDbPolyline
90
4
70
1
43
0.0
10
65.964285778114302
20
-19.578787917085037
10
65.16428575258287
20
-19.578787917085037
10
65.16428575258287
20
-20.378787942616476
10
65.964285778114302
20
-20.378787942616476
0
LWPOLYLINE
5
285
100
AcDbEntity
8
0
100
AcDbPolyline
90
4
70
1
43
0.0
10
67.05357149240001
20
-19.578787917085037
10
66.253571466868578
20
-19.578787917085037
10
66.253571466868578
20
-20.378787942616476
10
67.05357149240001
20
-20.378787942616476
0
LWPOLYLINE
5
286
100
AcDbEntity
8
0
100
AcDbPolyline
90
4
70
1
43
0.0
10
68.142857206685733
20
-19.578787917085037
10
67.342857181154287
20
-19.578787917085037
10
67.342857181154287
20
-20.378787942616476
10
68.142857206685733
20
-20.378787942616476
0
LWPOLYLINE
5
287
100
AcDbEntity
8
0
100
AcDbPolyline
90
4
70
1
43
0.0
10
69.232142920971441
20
-19.578787917085037
10
68.432142895440009
20
-19.578787917085037
10
68.432142895440009
20
-20.378787942616476
10
69.232142920971441
20
-20.378787942616476
0
LWPOLYLINE
5
288
100
AcDbEntity
8
0
100
AcDbPolyline
90
4
70
1
43
0.0
10
70.321428635257163
20
-19.578787917085037
10
69.521428609725717
20
-19.578787917085037
10
69.521428609725717
20
-20.378787942616476
10
70.321428635257163
20
-20.378787942616476
0
LWPOLYLINE
5
289
100
AcDbEntity
8
0
100
AcDbPolyline
90
4
70
1
43
0.0
10
71.410714349542872
20
-19.578787917085037
10
70.610714324011425
20
-19.578787917085037
10
70.610714324011425
20
-20.378787942616476
10
71.410714349542872
20
-20.378787942616476
0
LWPOLYLINE
5
290
100
AcDbEntity
8
0
100
AcDbPolyline
90
4
70
1
43
0.0
10
72.500000063828594
20
-19.578787917085037
10
71.700000038297148
20
-19.578787917085037
10
71.700000038297148
20
-20.378787942616476
10
72.500000063828594
20
-20.378787942616476
0
LWPOLYLINE
5
291
100
AcDbEntity
8
0
100
AcDbPolyline
90
4
70
1
43
0.0
10
42.000000063828587
20
-18.487878826175947
10
41.200000038297155
20
-18.487878826175947
10
41.200000038297155
20
-19.287878851707386
10
42.000000063828587
20
-19.287878851707386
0
LWPOLYLINE
5
292
100
AcDbEntity
8
0
100
AcDbPolyline
90
4
70
1
43
0.0
10
43.089285778114302
20
-18.487878826175947
10
42.28928575258287
20
-18.487878826175947
10
42.28928575258287
20
-19.287878851707386
10
43.089285778114302
20
-19.287878851707386
0
LWPOLYLINE
5
293
100
AcDbEntity
8
0
100
AcDbPolyline
90
4
70
1
43
0.0
10
44.178571492400017
20
-18.487878826175947
10
43.378571466868586
20
-18.487878826175947
10
43.378571466868586
20
-19.287878851707386
10
44.178571492400017
20
-19.287878851707386
0
LWPOLYLINE
5
294
100
AcDbEntity
8
0
100
AcDbPolyline
90
4
70
1
43
0.0
10
45.267857206685733
20
-18.487878826175947
10
44.467857181154294
20
-18.487878826175947
10
44.467857181154294
20
-19.287878851707386
10
45.267857206685733
20
-19.287878851707386
0
LWPOLYLINE
5
295
100
AcDbEntity
8
0
100
AcDbPolyline
90
4
70
1
43
0.0
10
46.357142920971448
20
-18.487878826175947
10
45.557142895440009
20
-18.487878826175947
10
45.557142895440009
20
-19.287878851707386
10
46.357142920971448
20
-19.287878851707386
0
LWPOLYLINE
5
296
100
AcDbEntity
8
0
100
AcDbPolyline
90
4
70
1
43
0.0
10
47.446428635257163
20
-18.487878826175947
10
46.646428609725724
20
-18.487878826175947
10
46.646428609725724
20
-19.287878851707386
10
47.446428635257163
20
-19.287878851707386
0
LWPOLYLINE
5
297
100
AcDbEntity
8
0
100
AcDbPolyline
90
4
70
1
43
0.0
10
48.535714349542879
20
-18.487878826175947
10
47.73571432401144
20
-18.487878826175947
10
47.73571432401144
20
-19.287878851707386
10
48.535714349542879
20
-19.287878851707386
0
LWPOLYLINE
5
298
100
AcDbEntity
8
0
100
AcDbPolyline
90
4
70
1
43
0.0
10
49.625000063828594
20
-18.487878826175947
10
48.825000038297155
20
-18.487878826175947
10
48.825000038297155
20
-19.287878851707386
10
49.625000063828594
20
-19.287878851707386
0
LWPOLYLINE
5
299
100
AcDbEntity
8
0
100
AcDbPolyline
90
4
70
1
43
0.0
10
50.714285778114302
20
-18.487878826175947
10
49.914285752582863
20
-18.487878826175947
10
49.914285752582863
20
-19.287878851707386
10
50.714285778114302
20
-19.287878851707386
0
LWPOLYLINE
5
300
100
AcDbEntity
8
0
100
AcDbPolyline
90
4
70
1
43
0.0
10
51.803571492400025
20
-18.487878826175947
10
51.003571466868586
20
-18.487878826175947
10
51.003571466868586
20
-19.287878851707386
10
51.803571492400025
20
-19.287878851707386
0
LWPOLYLINE
5
301
100
AcDbEntity
8
0
100
AcDbPolyline
90
4
70
1
43
0.0
10
52.892857206685733
20
-18.487878826175947
10
52.092857181154294
20
-18.487878826175947
10
52.092857181154294
20
-19.287878851707386
10
52.892857206685733
20
-19.287878851707386
0
LWPOLYLINE
5
302
100
AcDbEntity
8
0
100
AcDbPolyline
90
4
70
1
43
0.0
10
53.982142920971441
20
-18.487878826175947
10
53.182142895440002
20
-18.487878826175947
10
53.182142895440002
20
-19.287878851707386
10
53.982142920971441
20
-19.287878851707386
0
LWPOLYLINE
5
303
100
AcDbEntity
8
0
100
AcDbPolyline
90
4
70
1
43
0.0
10
55.071428635257163
20
-18.487878826175947
10
54.271428609725724
20
-18.487878826175947
10
54.271428609725724
20
-19.287878851707386
10
55.071428635257163
20
-19.287878851707386
0
LWPOLYLINE
5
304
100
AcDbEntity
8
0
100
AcDbPolyline
90
4
70
1
43
0.0
10
56.160714349542872
20
-18.487878826175947
10
55.360714324011433
20
-18.487878826175947
10
55.360714324011433
20
-19.287878851707386
10
56.160714349542872
20
-19.287878851707386
0
LWPOLYLINE
5
305
100
AcDbEntity
8
0
100
AcDbPolyline
90
4
70
1
43
0.0
10
57.25000006382858
20
-18.487878826175947
10
56.450000038297148
20
-18.487878826175947
10
56.450000038297148
20
-19.287878851707386
10
57.25000006382858
20
-19.287878851707386
0
LWPOLYLINE
5
306
100
AcDbEntity
8
0
100
AcDbPolyline
90
4
70
1
43
0.0
10
58.339285778114302
20
-18.487878826175947
10
57.539285752582863
20
-18.487878826175947
10
57.539285752582863
20
-19.287878851707386
10
58.339285778114302
20
-19.287878851707386
0
LWPOLYLINE
5
307
100
AcDbEntity
8
0
100
AcDbPolyline
90
4
70
1
43
0.0
10
59.42857149240001
20
-18.487878826175947
10
58.628571466868578
20
-18.487878826175947
10
58.628571466868578
20
-19.287878851707386
10
59.42857149240001
20
-19.287878851707386
0
LWPOLYLINE
5
308
100
AcDbEntity
8
0
100
AcDbPolyline
90
4
70
1
43
0.0
10
60.517857206685733
20
-18.487878826175947
10
59.717857181154294
20
-18.487878826175947
10
59.717857181154294
20
-19.287878851707386
10
60.517857206685733
20
-19.287878851707386
0
LWPOLYLINE
5
309
100
AcDbEntity
8
0
100
AcDbPolyline
90
4
70
1
43
0.0
10
61.607142920971448
20
-18.487878826175947
10
60.807142895440009
20
-18.487878826175947
10
60.807142895440009
20
-19.287878851707386
10
61.607142920971448
20
-19.287878851707386
0
LWPOLYLINE
5
310
100
AcDbEntity
8
0
100
AcDbPolyline
90
4
70
1
43
0.0
10
62.696428635257163
20
-18.487878826175947
10
61.896428609725724
20
-18.487878826175947
10
61.896428609725724
20
-19.287878851707386
10
62.696428635257163
20
-19.287878851707386
0
LWPOLYLINE
5
311
100
AcDbEntity
8
0
100
AcDbPolyline
90
4
70
1
43
0.0
10
63.785714349542879
20
-18.487878826175947
10
62.98571432401144
20
-18.487878826175947
10
62.98571432401144
20
-19.287878851707386
10
63.785714349542879
20
-19.287878851707386
0
LWPOLYLINE
5
312
100
AcDbEntity
8
0
100
AcDbPolyline
90
4
70
1
43
0.0
10
64.87500006382858
20
-18.487878826175947
10
64.075000038297148
20
-18.487878826175947
10
64.075000038297148
20
-19.287878851707386
10
64.87500006382858
20
-19.287878851707386
0
LWPOLYLINE
5
313
100
AcDbEntity
8
0
100
AcDbPolyline
90
4
70
1
43
0.0
10
65.964285778114302
20
-18.487878826175947
10
65.16428575258287
20
-18.487878826175947
10
65.16428575258287
20
-19.287878851707386
10
65.964285778114302
20
-19.287878851707386
0
LWPOLYLINE
5
314
100
AcDbEntity
8
0
100
AcDbPolyline
90
4
70
1
43
0.0
10
67.05357149240001
20
-18.487878826175947
10
66.253571466868578
20
-18.487878826175947
10
66.253571466868578
20
-19.287878851707386
10
67.05357149240001
20
-19.287878851707386
0
LWPOLYLINE
5
315
100
AcDbEntity
8
0
100
AcDbPolyline
90
4
70
1
43
0.0
10
68.142857206685733
20
-18.487878826175947
10
67.342857181154287
20
-18.487878826175947
10
67.342857181154287
20
-19.287878851707386
10
68.142857206685733
20
-19.287878851707386
0
LWPOLYLINE
5
316
100
AcDbEntity
8
0
100
AcDbPolyline
90
4
70
1
43
0.0
10
69.232142920971441
20
-18.487878826175947
10
68.432142895440009
20
-18.487878826175947
10
68.432142895440009
20
-19.287878851707386
10
69.232142920971441
20
-19.287878851707386
0
LWPOLYLINE
5
317
100
AcDbEntity
8
0
100
AcDbPolyline
90
4
70
1
43
0.0
10
70.321428635257163
20
-18.487878826175947
10
69.521428609725717
20
-18.487878826175947
10
69.521428609725717
20
-19.287878851707386
10
70.321428635257163
20
-19.287878851707386
0
LWPOLYLINE
5
318
100
AcDbEntity
8
0
100
AcDbPolyline
90
4
70
1
43
0.0
10
71.410714349542872
20
-18.487878826175947
10
70.610714324011425
20
-18.487878826175947
10
70.610714324011425
20
-19.287878851707386
10
71.410714349542872
20
-19.287878851707386
0
LWPOLYLINE
5
319
100
AcDbEntity
8
0
100
AcDbPolyline
90
4
70
1
43
0.0
10
72.500000063828594
20
-18.487878826175947
10
71.700000038297148
20
-18.487878826175947
10
71.700000038297148
20
-19.287878851707386
10
72.500000063828594
20
-19.287878851707386
0
LWPOLYLINE
5
320
100
AcDbEntity
8
0
100
AcDbPolyline
90
4
70
1
43
0.0
10
42.000000063828587
20
-17.396969735266858
10
41.200000038297155
20
-17.396969735266858
10
41.200000038297155
20
-18.196969760798293
10
42.000000063828587
20
-18.196969760798293
0
LWPOLYLINE
5
321
100
AcDbEntity
8
0
100
AcDbPolyline
90
4
70
1
43
0.0
10
43.089285778114302
20
-17.396969735266858
10
42.28928575258287
20
-17.396969735266858
10
42.28928575258287
20
-18.196969760798293
10
43.089285778114302
20
-18.196969760798293
0
LWPOLYLINE
5
322
100
AcDbEntity
8
0
100
AcDbPolyline
90
4
70
1
43
0.0
10
44.178571492400017
20
-17.396969735266858
10
43.378571466868586
20
-17.396969735266858
10
43.378571466868586
20
-18.196969760798293
10
44.178571492400017
20
-18.196969760798293
0
LWPOLYLINE
5
323
100
AcDbEntity
8
0
100
AcDbPolyline
90
4
70
1
43
0.0
10
45.267857206685733
20
-17.396969735266858
10
44.467857181154294
20
-17.396969735266858
10
44.467857181154294
20
-18.196969760798293
10
45.267857206685733
20
-18.196969760798293
0
LWPOLYLINE
5
324
100
AcDbEntity
8
0
100
AcDbPolyline
90
4
70
1
43
0.0
10
46.357142920971448
20
-17.396969735266858
10
45.557142895440009
20
-17.396969735266858
10
45.557142895440009
20
-18.196969760798293
10
46.357142920971448
20
-18.196969760798293
0
LWPOLYLINE
5
325
100
AcDbEntity
8
0
100
AcDbPolyline
90
4
70
1
43
0.0
10
47.446428635257163
20
-17.396969735266858
10
46.646428609725724
20
-17.396969735266858
10
46.646428609725724
20
-18.196969760798293
10
47.446428635257163
20
-18.196969760798293
0
LWPOLYLINE
5
326
100
AcDbEntity
8
0
100
AcDbPolyline
90
4
70
1
43
0.0
10
48.535714349542879
20
-17.396969735266858
10
47.73571432401144
20
-17.396969735266858
10
47.73571432401144
20
-18.196969760798293
10
48.535714349542879
20
-18.196969760798293
0
LWPOLYLINE
5
327
100
AcDbEntity
8
0
100
AcDbPolyline
90
4
70
1
43
0.0
10
49.625000063828594
20
-17.396969735266858
10
48.825000038297155
20
-17.396969735266858
10
48.825000038297155
20
-18.196969760798293
10
49.625000063828594
20
-18.196969760798293
0
LWPOLYLINE
5
328
100
AcDbEntity
8
0
100
AcDbPolyline
90
4
70
1
43
0.0
10
50.714285778114302
20
-17.396969735266858
10
49.914285752582863
20
-17.396969735266858
10
49.914285752582863
20
-18.196969760798293
10
50.714285778114302
20
-18.196969760798293
0
LWPOLYLINE
5
329
100
AcDbEntity
8
0
100
AcDbPolyline
90
4
70
1
43
0.0
10
51.803571492400025
20
-17.396969735266858
10
51.003571466868586
20
-17.396969735266858
10
51.003571466868586
20
-18.196969760798293
10
51.803571492400025
20
-18.196969760798293
0
LWPOLYLINE
5
330
100
AcDbEntity
8
0
100
AcDbPolyline
90
4
70
1
43
0.0
10
52.892857206685733
20
-17.396969735266858
10
52.092857181154294
20
-17.396969735266858
10
52.092857181154294
20
-18.196969760798293
10
52.892857206685733
20
-18.196969760798293
0
LWPOLYLINE
5
331
100
AcDbEntity
8
0
100
AcDbPolyline
90
4
70
1
43
0.0
10
53.982142920971441
20
-17.396969735266858
10
53.182142895440002
20
-17.396969735266858
10
53.182142895440002
20
-18.196969760798293
10
53.982142920971441
20
-18.196969760798293
0
LWPOLYLINE
5
332
100
AcDbEntity
8
0
100
AcDbPolyline
90
4
70
1
43
0.0
10
55.071428635257163
20
-17.396969735266858
10
54.271428609725724
20
-17.396969735266858
10
54.271428609725724
20
-18.196969760798293
10
55.071428635257163
20
-18.196969760798293
0
LWPOLYLINE
5
333
100
AcDbEntity
8
0
100
AcDbPolyline
90
4
70
1
43
0.0
10
56.160714349542872
20
-17.396969735266858
10
55.360714324011433
20
-17.396969735266858
10
55.360714324011433
20
-18.196969760798293
10
56.160714349542872
20
-18.196969760798293
0
LWPOLYLINE
5
334
100
AcDbEntity
8
0
100
AcDbPolyline
90
4
70
1
43
0.0
10
57.25000006382858
20
-17.396969735266858
10
56.450000038297148
20
-17.396969735266858
10
56.450000038297148
20
-18.196969760798293
10
57.25000006382858
20
-18.196969760798293
0
LWPOLYLINE
5
335
100
AcDbEntity
8
0
100
AcDbPolyline
90
4
70
1
43
0.0
10
58.339285778114302
20
-17.396969735266858
10
57.539285752582863
20
-17.396969735266858
10
57.539285752582863
20
-18.196969760798293
10
58.339285778114302
20
-18.196969760798293
0
LWPOLYLINE
5
336
100
AcDbEntity
8
0
100
AcDbPolyline
90
4
70
1
43
0.0
10
59.42857149240001
20
-17.396969735266858
10
58.628571466868578
20
-17.396969735266858
10
58.628571466868578
20
-18.196969760798293
10
59.42857149240001
20
-18.196969760798293
0
LWPOLYLINE
5
337
100
AcDbEntity
8
0
100
AcDbPolyline
90
4
70
1
43
0.0
10
60.517857206685733
20
-17.396969735266858
10
59.717857181154294
20
-17.396969735266858
10
59.717857181154294
20
-18.196969760798293
10
60.517857206685733
20
-18.196969760798293
0
LWPOLYLINE
5
338
100
AcDbEntity
8
0
100
AcDbPolyline
90
4
70
1
43
0.0
10
61.607142920971448
20
-17.396969735266858
10
60.807142895440009
20
-17.396969735266858
10
60.807142895440009
20
-18.196969760798293
10
61.607142920971448
20
-18.196969760798293
0
LWPOLYLINE
5
339
100
AcDbEntity
8
0
100
AcDbPolyline
90
4
70
1
43
0.0
10
62.696428635257163
20
-17.396969735266858
10
61.896428609725724
20
-17.396969735266858
10
61.896428609725724
20
-18.196969760798293
10
62.696428635257163
20
-18.196969760798293
0
LWPOLYLINE
5
340
100
AcDbEntity
8
0
100
AcDbPolyline
90
4
70
1
43
0.0
10
63.785714349542879
20
-17.396969735266858
10
62.98571432401144
20
-17.396969735266858
10
62.98571432401144
20
-18.196969760798293
10
63.785714349542879
20
-18.196969760798293
0
LWPOLYLINE
5
341
100
AcDbEntity
8
0
100
AcDbPolyline
90
4
70
1
43
0.0
10
64.87500006382858
20
-17.396969735266858
10
64.075000038297148
20
-17.396969735266858
10
64.075000038297148
20
-18.196969760798293
10
64.87500006382858
20
-18.196969760798293
0
LWPOLYLINE
5
342
100
AcDbEntity
8
0
100
AcDbPolyline
90
4
70
1
43
0.0
10
65.964285778114302
20
-17.396969735266858
10
65.16428575258287
20
-17.396969735266858
10
65.16428575258287
20
-18.196969760798293
10
65.964285778114302
20
-18.196969760798293
0
LWPOLYLINE
5
343
100
AcDbEntity
8
0
100
AcDbPolyline
90
4
70
1
43
0.0
10
67.05357149240001
20
-17.396969735266858
10
66.253571466868578
20
-17.396969735266858
10
66.253571466868578
20
-18.196969760798293
10
67.05357149240001
20
-18.196969760798293
0
LWPOLYLINE
5
344
100
AcDbEntity
8
0
100
AcDbPolyline
90
4
70
1
43
0.0
10
68.142857206685733
20
-17.396969735266858
10
67.342857181154287
20
-17.396969735266858
10
67.342857181154287
20
-18.196969760798293
10
68.142857206685733
20
-18.196969760798293
0
LWPOLYLINE
5
345
100
AcDbEntity
8
0
100
AcDbPolyline
90
4
70
1
43
0.0
10
69.232142920971441
20
-17.396969735266858
10
68.432142895440009
20
-17.396969735266858
10
68.432142895440009
20
-18.196969760798293
10
69.232142920971441
20
-18.196969760798293
0
LWPOLYLINE
5
346
100
AcDbEntity
8
0
100
AcDbPolyline
90
4
70
1
43
0.0
10
70.321428635257163
20
-17.396969735266858
10
69.521428609725717
20
-17.396969735266858
10
69.521428609725717
20
-18.196969760798293
10
70.321428635257163
20
-18.196969760798293
0
LWPOLYLINE
5
347
100
AcDbEntity
8
0
100
AcDbPolyline
90
4
70
1
43
0.0
10
71.410714349542872
20
-17.396969735266858
10
70.610714324011425
20
-17.396969735266858
10
70.610714324011425
20
-18.196969760798293
10
71.410714349542872
20
-18.196969760798293
0
LWPOLYLINE
5
348
100
AcDbEntity
8
0
100
AcDbPolyline
90
4
70
1
43
0.0
10
72.500000063828594
20
-17.396969735266858
10
71.700000038297148
20
-17.396969735266858
10
71.700000038297148
20
-18.196969760798293
10
72.500000063828594
20
-18.196969760798293
0
LWPOLYLINE
5
349
100
AcDbEntity
8
0
100
AcDbPolyline
90
4
70
1
43
0.0
10
42.000000063828587
20
-16.306060644357764
10
41.200000038297155
20
-16.306060644357764
10
41.200000038297155
20
-17.106060669889203
10
42.000000063828587
20
-17.106060669889203
0
LWPOLYLINE
5
350
100
AcDbEntity
8
0
100
AcDbPolyline
90
4
70
1
43
0.0
10
43.089285778114302
20
-16.306060644357764
10
42.28928575258287
20
-16.306060644357764
10
42.28928575258287
20
-17.106060669889203
10
43.089285778114302
20
-17.106060669889203
0
LWPOLYLINE
5
351
100
AcDbEntity
8
0
100
AcDbPolyline
90
4
70
1
43
0.0
10
44.178571492400017
20
-16.306060644357764
10
43.378571466868586
20
-16.306060644357764
10
43.378571466868586
20
-17.106060669889203
10
44.178571492400017
20
-17.106060669889203
0
LWPOLYLINE
5
352
100
AcDbEntity
8
0
100
AcDbPolyline
90
4
70
1
43
0.0
10
45.267857206685733
20
-16.306060644357764
10
44.467857181154294
20
-16.306060644357764
10
44.467857181154294
20
-17.106060669889203
10
45.267857206685733
20
-17.106060669889203
0
LWPOLYLINE
5
353
100
AcDbEntity
8
0
100
AcDbPolyline
90
4
70
1
43
0.0
10
46.357142920971448
20
-16.306060644357764
10
45.557142895440009
20
-16.306060644357764
10
45.557142895440009
20
-17.106060669889203
10
46.357142920971448
20
-17.106060669889203
0
LWPOLYLINE
5
354
100
AcDbEntity
8
0
100
AcDbPolyline
90
4
70
1
43
0.0
10
47.446428635257163
20
-16.306060644357764
10
46.646428609725724
20
-16.306060644357764
10
46.646428609725724
20
-17.106060669889203
10
47.446428635257163
20
-17.106060669889203
0
LWPOLYLINE
5
355
100
AcDbEntity
8
0
100
AcDbPolyline
90
4
70
1
43
0.0
10
48.535714349542879
20
-16.306060644357764
10
47.73571432401144
20
-16.306060644357764
10
47.73571432401144
20
-17.106060669889203
10
48.535714349542879
20
-17.106060669889203
0
LWPOLYLINE
5
356
100
AcDbEntity
8
0
100
AcDbPolyline
90
4
70
1
43
0.0
10
49.625000063828594
20
-16.306060644357764
10
48.825000038297155
20
-16.306060644357764
10
48.825000038297155
20
-17.106060669889203
10
49.625000063828594
20
-17.106060669889203
0
LWPOLYLINE
5
357
100
AcDbEntity
8
0
100
AcDbPolyline
90
4
70
1
43
0.0
10
50.714285778114302
20
-16.306060644357764
10
49.914285752582863
20
-16.306060644357764
10
49.914285752582863
20
-17.106060669889203
10
50.714285778114302
20
-17.106060669889203
0
LWPOLYLINE
5
358
100
AcDbEntity
8
0
100
AcDbPolyline
90
4
70
1
43
0.0
10
51.803571492400025
20
-16.306060644357764
10
51.003571466868586
20
-16.306060644357764
10
51.003571466868586
20
-17.106060669889203
10
51.803571492400025
20
-17.106060669889203
0
LWPOLYLINE
5
359
100
AcDbEntity
8
0
100
AcDbPolyline
90
4
70
1
43
0.0
10
52.892857206685733
20
-16.306060644357764
10
52.092857181154294
20
-16.306060644357764
10
52.092857181154294
20
-17.106060669889203
10
52.892857206685733
20
-17.106060669889203
0
LWPOLYLINE
5
360
100
AcDbEntity
8
0
100
AcDbPolyline
90
4
70
1
43
0.0
10
53.982142920971441
20
-16.306060644357764
10
53.182142895440002
20
-16.306060644357764
10
53.182142895440002
20
-17.106060669889203
10
53.982142920971441
20
-17.106060669889203
0
LWPOLYLINE
5
361
100
AcDbEntity
8
0
100
AcDbPolyline
90
4
70
1
43
0.0
10
55.071428635257163
20
-16.306060644357764
10
54.271428609725724
20
-16.306060644357764
10
54.271428609725724
20
-17.106060669889203
10
55.071428635257163
20
-17.106060669889203
0
LWPOLYLINE
5
362
100
AcDbEntity
8
0
100
AcDbPolyline
90
4
70
1
43
0.0
10
56.160714349542872
20
-16.306060644357764
10
55.360714324011433
20
-16.306060644357764
10
55.360714324011433
20
-17.106060669889203
10
56.160714349542872
20
-17.106060669889203
0
LWPOLYLINE
5
363
100
AcDbEntity
8
0
100
AcDbPolyline
90
4
70
1
43
0.0
10
57.25000006382858
20
-16.306060644357764
10
56.450000038297148
20
-16.306060644357764
10
56.450000038297148
20
-17.106060669889203
10
57.25000006382858
20
-17.106060669889203
0
LWPOLYLINE
5
364
100
AcDbEntity
8
0
100
AcDbPolyline
90
4
70
1
43
0.0
10
58.339285778114302
20
-16.306060644357764
10
57.539285752582863
20
-16.306060644357764
10
57.539285752582863
20
-17.106060669889203
10
58.339285778114302
20
-17.106060669889203
0
LWPOLYLINE
5
365
100
AcDbEntity
8
0
100
AcDbPolyline
90
4
70
1
43
0.0
10
59.42857149240001
20
-16.306060644357764
10
58.628571466868578
20
-16.306060644357764
10
58.628571466868578
20
-17.106060669889203
10
59.42857149240001
20
-17.106060669889203
0
LWPOLYLINE
5
366
100
AcDbEntity
8
0
100
AcDbPolyline
90
4
70
1
43
0.0
10
60.517857206685733
20
-16.306060644357764
10
59.717857181154294
20
-16.306060644357764
10
59.717857181154294
20
-17.106060669889203
10
60.517857206685733
20
-17.106060669889203
0
LWPOLYLINE
5
367
100
AcDbEntity
8
0
100
AcDbPolyline
90
4
70
1
43
0.0
10
61.607142920971448
20
-16.306060644357764
10
60.807142895440009
20
-16.306060644357764
10
60.807142895440009
20
-17.106060669889203
10
61.607142920971448
20
-17.106060669889203
0
LWPOLYLINE
5
368
100
AcDbEntity
8
0
100
AcDbPolyline
90
4
70
1
43
0.0
10
62.696428635257163
20
-16.306060644357764
10
61.896428609725724
20
-16.306060644357764
10
61.896428609725724
20
-17.106060669889203
10
62.696428635257163
20
-17.106060669889203
0
LWPOLYLINE
5
369
100
AcDbEntity
8
0
100
AcDbPolyline
90
4
70
1
43
0.0
10
63.785714349542879
20
-16.306060644357764
10
62.98571432401144
20
-16.306060644357764
10
62.98571432401144
20
-17.106060669889203
10
63.785714349542879
20
-17.106060669889203
0
LWPOLYLINE
5
370
100
AcDbEntity
8
0
100
AcDbPolyline
90
4
70
1
43
0.0
10
64.87500006382858
20
-16.306060644357764
10
64.075000038297148
20
-16.306060644357764
10
64.075000038297148
20
-17.106060669889203
10
64.87500006382858
20
-17.106060669889203
0
LWPOLYLINE
5
371
100
AcDbEntity
8
0
100
AcDbPolyline
90
4
70
1
43
0.0
10
65.964285778114302
20
-16.306060644357764
10
65.16428575258287
20
-16.306060644357764
10
65.16428575258287
20
-17.106060669889203
10
65.964285778114302
20
-17.106060669889203
0
LWPOLYLINE
5
372
100
AcDbEntity
8
0
100
AcDbPolyline
90
4
70
1
43
0.0
10
67.05357149240001
20
-16.306060644357764
10
66.253571466868578
20
-16.306060644357764
10
66.253571466868578
20
-17.106060669889203
10
67.05357149240001
20
-17.106060669889203
0
LWPOLYLINE
5
373
100
AcDbEntity
8
0
100
AcDbPolyline
90
4
70
1
43
0.0
10
68.142857206685733
20
-16.306060644357764
10
67.342857181154287
20
-16.306060644357764
10
67.342857181154287
20
-17.106060669889203
10
68.142857206685733
20
-17.106060669889203
0
LWPOLYLINE
5
374
100
AcDbEntity
8
0
100
AcDbPolyline
90
4
70
1
43
0.0
10
69.232142920971441
20
-16.306060644357764
10
68.432142895440009
20
-16.306060644357764
10
68.432142895440009
20
-17.106060669889203
10
69.232142920971441
20
-17.106060669889203
0
LWPOLYLINE
5
375
100
AcDbEntity
8
0
100
AcDbPolyline
90
4
70
1
43
0.0
10
70.321428635257163
20
-16.306060644357764
10
69.521428609725717
20
-16.306060644357764
10
69.521428609725717
20
-17.106060669889203
10
70.321428635257163
20
-17.106060669889203
0
LWPOLYLINE
5
376
100
AcDbEntity
8
0
100
AcDbPolyline
90
4
70
1
43
0.0
10
71.410714349542872
20
-16.306060644357764
10
70.610714324011425
20
-16.306060644357764
10
70.610714324011425
20
-17.106060669889203
10
71.410714349542872
20
-17.106060669889203
0
LWPOLYLINE
5
377
100
AcDbEntity
8
0
100
AcDbPolyline
90
4
70
1
43
0.0
10
72.500000063828594
20
-16.306060644357764
10
71.700000038297148
20
-16.306060644357764
10
71.700000038297148
20
-17.106060669889203
10
72.500000063828594
20
-17.106060669889203
0
LWPOLYLINE
5
378
100
AcDbEntity
8
0
100
AcDbPolyline
90
4
70
1
43
0.0
10
42.000000063828587
20
-15.215151553448672
10
41.200000038297155
20
-15.215151553448672
10
41.200000038297155
20
-16.01515157898011
10
42.000000063828587
20
-16.01515157898011
0
LWPOLYLINE
5
379
100
AcDbEntity
8
0
100
AcDbPolyline
90
4
70
1
43
0.0
10
43.089285778114302
20
-15.215151553448672
10
42.28928575258287
20
-15.215151553448672
10
42.28928575258287
20
-16.01515157898011
10
43.089285778114302
20
-16.01515157898011
0
LWPOLYLINE
5
380
100
AcDbEntity
8
0
100
AcDbPolyline
90
4
70
1
43
0.0
10
44.178571492400017
20
-15.215151553448672
10
43.378571466868586
20
-15.215151553448672
10
43.378571466868586
20
-16.01515157898011
10
44.178571492400017
20
-16.01515157898011
0
LWPOLYLINE
5
381
100
AcDbEntity
8
0
100
AcDbPolyline
90
4
70
1
43
0.0
10
45.267857206685733
20
-15.215151553448672
10
44.467857181154294
20
-15.215151553448672
10
44.467857181154294
20
-16.01515157898011
10
45.267857206685733
20
-16.01515157898011
0
LWPOLYLINE
5
382
100
AcDbEntity
8
0
100
AcDbPolyline
90
4
70
1
43
0.0
10
46.357142920971448
20
-15.215151553448672
10
45.557142895440009
20
-15.215151553448672
10
45.557142895440009
20
-16.01515157898011
10
46.357142920971448
20
-16.01515157898011
0
LWPOLYLINE
5
383
100
AcDbEntity
8
0
100
AcDbPolyline
90
4
70
1
43
0.0
10
47.446428635257163
20
-15.215151553448672
10
46.646428609725724
20
-15.215151553448672
10
46.646428609725724
20
-16.01515157898011
10
47.446428635257163
20
-16.01515157898011
0
LWPOLYLINE
5
384
100
AcDbEntity
8
0
100
AcDbPolyline
90
4
70
1
43
0.0
10
48.535714349542879
20
-15.215151553448672
10
47.73571432401144
20
-15.215151553448672
10
47.73571432401144
20
-16.01515157898011
10
48.535714349542879
20
-16.01515157898011
0
LWPOLYLINE
5
385
100
AcDbEntity
8
0
100
AcDbPolyline
90
4
70
1
43
0.0
10
49.625000063828594
20
-15.215151553448672
10
48.825000038297155
20
-15.215151553448672
10
48.825000038297155
20
-16.01515157898011
10
49.625000063828594
20
-16.01515157898011
0
LWPOLYLINE
5
386
100
AcDbEntity
8
0
100
AcDbPolyline
90
4
70
1
43
0.0
10
50.714285778114302
20
-15.215151553448672
10
49.914285752582863
20
-15.215151553448672
10
49.914285752582863
20
-16.01515157898011
10
50.714285778114302
20
-16.01515157898011
0
LWPOLYLINE
5
387
100
AcDbEntity
8
0
100
AcDbPolyline
90
4
70
1
43
0.0
10
51.803571492400025
20
-15.215151553448672
10
51.003571466868586
20
-15.215151553448672
10
51.003571466868586
20
-16.01515157898011
10
51.803571492400025
20
-16.01515157898011
0
LWPOLYLINE
5
388
100
AcDbEntity
8
0
100
AcDbPolyline
90
4
70
1
43
0.0
10
52.892857206685733
20
-15.215151553448672
10
52.092857181154294
20
-15.215151553448672
10
52.092857181154294
20
-16.01515157898011
10
52.892857206685733
20
-16.01515157898011
0
LWPOLYLINE
5
389
100
AcDbEntity
8
0
100
AcDbPolyline
90
4
70
1
43
0.0
10
53.982142920971441
20
-15.215151553448672
10
53.182142895440002
20
-15.215151553448672
10
53.182142895440002
20
-16.01515157898011
10
53.982142920971441
20
-16.01515157898011
0
LWPOLYLINE
5
390
100
AcDbEntity
8
0
100
AcDbPolyline
90
4
70
1
43
0.0
10
55.071428635257163
20
-15.215151553448672
10
54.271428609725724
20
-15.215151553448672
10
54.271428609725724
20
-16.01515157898011
10
55.071428635257163
20
-16.01515157898011
0
LWPOLYLINE
5
391
100
AcDbEntity
8
0
100
AcDbPolyline
90
4
70
1
43
0.0
10
56.160714349542872
20
-15.215151553448672
10
55.360714324011433
20
-15.215151553448672
10
55.360714324011433
20
-16.01515157898011
10
56.160714349542872
20
-16.01515157898011
0
LWPOLYLINE
5
392
100
AcDbEntity
8
0
100
AcDbPolyline
90
4
70
1
43
0.0
10
57.25000006382858
20
-15.215151553448672
10
56.450000038297148
20
-15.215151553448672
10
56.450000038297148
20
-16.01515157898011
10
57.25000006382858
20
-16.01515157898011
0
LWPOLYLINE
5
393
100
AcDbEntity
8
0
100
AcDbPolyline
90
4
70
1
43
0.0
10
58.339285778114302
20
-15.215151553448672
10
57.539285752582863
20
-15.215151553448672
10
57.539285752582863
20
-16.01515157898011
10
58.339285778114302
20
-16.01515157898011
0
LWPOLYLINE
5
394
100
AcDbEntity
8
0
100
AcDbPolyline
90
4
70
1
43
0.0
10
59.42857149240001
20
-15.215151553448672
10
58.628571466868578
20
-15.215151553448672
10
58.628571466868578
20
-16.01515157898011
10
59.42857149240001
20
-16.01515157898011
0
LWPOLYLINE
5
395
100
AcDbEntity
8
0
100
AcDbPolyline
90
4
70
1
43
0.0
10
60.517857206685733
20
-15.215151553448672
10
59.717857181154294
20
-15.215151553448672
10
59.717857181154294
20
-16.01515157898011
10
60.517857206685733
20
-16.01515157898011
0
LWPOLYLINE
5
396
100
AcDbEntity
8
0
100
AcDbPolyline
90
4
70
1
43
0.0
10
61.607142920971448
20
-15.215151553448672
10
60.807142895440009
20
-15.215151553448672
10
60.807142895440009
20
-16.01515157898011
10
61.607142920971448
20
-16.01515157898011
0
LWPOLYLINE
5
397
100
AcDbEntity
8
0
100
AcDbPolyline
90
4
70
1
43
0.0
10
62.696428635257163
20
-15.215151553448672
10
61.896428609725724
20
-15.215151553448672
10
61.896428609725724
20
-16.01515157898011
10
62.696428635257163
20
-16.01515157898011
0
LWPOLYLINE
5
398
100
AcDbEntity
8
0
100
AcDbPolyline
90
4
70
1
43
0.0
10
63.785714349542879
20
-15.215151553448672
10
62.98571432401144
20
-15.215151553448672
10
62.98571432401144
20
-16.01515157898011
10
63.785714349542879
20
-16.01515157898011
0
LWPOLYLINE
5
399
100
AcDbEntity
8
0
100
AcDbPolyline
90
4
70
1
43
0.0
10
64.87500006382858
20
-15.215151553448672
10
64.075000038297148
20
-15.215151553448672
10
64.075000038297148
20
-16.01515157898011
10
64.87500006382858
20
-16.01515157898011
0
LWPOLYLINE
5
400
100
AcDbEntity
8
0
100
AcDbPolyline
90
4
70
1
43
0.0
10
65.964285778114302
20
-15.215151553448672
10
65.16428575258287
20
-15.215151553448672
10
65.16428575258287
20
-16.01515157898011
10
65.964285778114302
20
-16.01515157898011
0
LWPOLYLINE
5
401
100
AcDbEntity
8
0
100
AcDbPolyline
90
4
70
1
43
0.0
10
67.05357149240001
20
-15.215151553448672
10
66.253571466868578
20
-15.215151553448672
10
66.253571466868578
20
-16.01515157898011
10
67.05357149240001
20
-16.01515157898011
0
LWPOLYLINE
5
402
100
AcDbEntity
8
0
100
AcDbPolyline
90
4
70
1
43
0.0
10
68.142857206685733
20
-15.215151553448672
10
67.342857181154287
20
-15.215151553448672
10
67.342857181154287
20
-16.01515157898011
10
68.142857206685733
20
-16.01515157898011
0
LWPOLYLINE
5
403
100
AcDbEntity
8
0
100
AcDbPolyline
90
4
70
1
43
0.0
10
69.232142920971441
20
-15.215151553448672
10
68.432142895440009
20
-15.215151553448672
10
68.432142895440009
20
-16.01515157898011
10
69.232142920971441
20
-16.01515157898011
0
LWPOLYLINE
5
404
100
AcDbEntity
8
0
100
AcDbPolyline
90
4
70
1
43
0.0
10
70.321428635257163
20
-15.215151553448672
10
69.521428609725717
20
-15.215151553448672
10
69.521428609725717
20
-16.01515157898011
10
70.321428635257163
20
-16.01515157898011
0
LWPOLYLINE
5
405
100
AcDbEntity
8
0
100
AcDbPolyline
90
4
70
1
43
0.0
10
71.410714349542872
20
-15.215151553448672
10
70.610714324011425
20
-15.215151553448672
10
70.610714324011425
20
-16.01515157898011
10
71.410714349542872
20
-16.01515157898011
0
LWPOLYLINE
5
406
100
AcDbEntity
8
0
100
AcDbPolyline
90
4
70
1
43
0.0
10
72.500000063828594
20
-15.215151553448672
10
71.700000038297148
20
-15.215151553448672
10
71.700000038297148
20
-16.01515157898011
10
72.500000063828594
20
-16.01515157898011
0
LWPOLYLINE
5
407
100
AcDbEntity
8
0
100
AcDbPolyline
90
4
70
1
43
0.0
10
42.000000063828587
20
-14.124242462539581
10
41.200000038297155
20
-14.124242462539581
10
41.200000038297155
20
-14.92424248807102
10
42.000000063828587
20
-14.92424248807102
0
LWPOLYLINE
5
408
100
AcDbEntity
8
0
100
AcDbPolyline
90
4
70
1
43
0.0
10
43.089285778114302
20
-14.124242462539581
10
42.28928575258287
20
-14.124242462539581
10
42.28928575258287
20
-14.92424248807102
10
43.089285778114302
20
-14.92424248807102
0
LWPOLYLINE
5
409
100
AcDbEntity
8
0
100
AcDbPolyline
90
4
70
1
43
0.0
10
44.178571492400017
20
-14.124242462539581
10
43.378571466868586
20
-14.124242462539581
10
43.378571466868586
20
-14.92424248807102
10
44.178571492400017
20
-14.92424248807102
0
LWPOLYLINE
5
410
100
AcDbEntity
8
0
100
AcDbPolyline
90
4
70
1
43
0.0
10
45.267857206685733
20
-14.124242462539581
10
44.467857181154294
20
-14.124242462539581
10
44.467857181154294
20
-14.92424248807102
10
45.267857206685733
20
-14.92424248807102
0
LWPOLYLINE
5
411
100
AcDbEntity
8
0
100
AcDbPolyline
90
4
70
1
43
0.0
10
46.357142920971448
20
-14.124242462539581
10
45.557142895440009
20
-14.124242462539581
10
45.557142895440009
20
-14.92424248807102
10
46.357142920971448
20
-14.92424248807102
0
LWPOLYLINE
5
412
100
AcDbEntity
8
0
100
AcDbPolyline
90
4
70
1
43
0.0
10
47.446428635257163
20
-14.124242462539581
10
46.646428609725724
20
-14.124242462539581
10
46.646428609725724
20
-14.92424248807102
10
47.446428635257163
20
-14.92424248807102
0
LWPOLYLINE
5
413
100
AcDbEntity
8
0
100
AcDbPolyline
90
4
70
1
43
0.0
10
48.535714349542879
20
-14.124242462539581
10
47.73571432401144
20
-14.124242462539581
10
47.73571432401144
20
-14.92424248807102
10
48.535714349542879
20
-14.92424248807102
0
LWPOLYLINE
5
414
100
AcDbEntity
8
0
100
AcDbPolyline
90
4
70
1
43
0.0
10
49.625000063828594
20
-14.124242462539581
10
48.825000038297155
20
-14.124242462539581
10
48.825000038297155
20
-14.92424248807102
10
49.625000063828594
20
-14.92424248807102
0
LWPOLYLINE
5
415
100
AcDbEntity
8
0
100
AcDbPolyline
90
4
70
1
43
0.0
10
50.714285778114302
20
-14.124242462539581
10
49.914285752582863
20
-14.124242462539581
10
49.914285752582863
20
-14.92424248807102
10
50.714285778114302
20
-14.92424248807102
0
LWPOLYLINE
5
416
100
AcDbEntity
8
0
100
AcDbPolyline
90
4
70
1
43
0.0
10
51.803571492400025
20
-14.124242462539581
10
51.003571466868586
20
-14.124242462539581
10
51.003571466868586
20
-14.92424248807102
10
51.803571492400025
20
-14.92424248807102
0
LWPOLYLINE
5
417
100
AcDbEntity
8
0
100
AcDbPolyline
90
4
70
1
43
0.0
10
52.892857206685733
20
-14.124242462539581
10
52.092857181154294
20
-14.124242462539581
10
52.092857181154294
20
-14.92424248807102
10
52.892857206685733
20
-14.92424248807102
0
LWPOLYLINE
5
418
100
AcDbEntity
8
0
100
AcDbPolyline
90
4
70
1
43
0.0
10
53.982142920971441
20
-14.124242462539581
10
53.182142895440002
20
-14.124242462539581
10
53.182142895440002
20
-14.92424248807102
10
53.982142920971441
20
-14.92424248807102
0
LWPOLYLINE
5
419
100
AcDbEntity
8
0
100
AcDbPolyline
90
4
70
1
43
0.0
10
55.071428635257163
20
-14.124242462539581
10
54.271428609725724
20
-14.124242462539581
10
54.271428609725724
20
-14.92424248807102
10
55.071428635257163
20
-14.92424248807102
0
LWPOLYLINE
5
420
100
AcDbEntity
8
0
100
AcDbPolyline
90
4
70
1
43
0.0
10
56.160714349542872
20
-14.124242462539581
10
55.360714324011433
20
-14.124242462539581
10
55.360714324011433
20
-14.92424248807102
10
56.160714349542872
20
-14.92424248807102
0
LWPOLYLINE
5
421
100
AcDbEntity
8
0
100
AcDbPolyline
90
4
70
1
43
0.0
10
57.25000006382858
20
-14.124242462539581
10
56.450000038297148
20
-14.124242462539581
10
56.450000038297148
20
-14.92424248807102
10
57.25000006382858
20
-14.92424248807102
0
LWPOLYLINE
5
422
100
AcDbEntity
8
0
100
AcDbPolyline
90
4
70
1
43
0.0
10
58.339285778114302
20
-14.124242462539581
10
57.539285752582863
20
-14.124242462539581
10
57.539285752582863
20
-14.92424248807102
10
58.339285778114302
20
-14.92424248807102
0
LWPOLYLINE
5
423
100
AcDbEntity
8
0
100
AcDbPolyline
90
4
70
1
43
0.0
10
59.42857149240001
20
-14.124242462539581
10
58.628571466868578
20
-14.124242462539581
10
58.628571466868578
20
-14.92424248807102
10
59.42857149240001
20
-14.92424248807102
0
LWPOLYLINE
5
424
100
AcDbEntity
8
0
100
AcDbPolyline
90
4
70
1
43
0.0
10
60.517857206685733
20
-14.124242462539581
10
59.717857181154294
20
-14.124242462539581
10
59.717857181154294
20
-14.92424248807102
10
60.517857206685733
20
-14.92424248807102
0
LWPOLYLINE
5
425
100
AcDbEntity
8
0
100
AcDbPolyline
90
4
70
1
43
0.0
10
61.607142920971448
20
-14.124242462539581
10
60.807142895440009
20
-14.124242462539581
10
60.807142895440009
20
-14.92424248807102
10
61.607142920971448
20
-14.92424248807102
0
LWPOLYLINE
5
426
100
AcDbEntity
8
0
100
AcDbPolyline
90
4
70
1
43
0.0
10
62.696428635257163
20
-14.124242462539581
10
61.896428609725724
20
-14.124242462539581
10
61.896428609725724
20
-14.92424248807102
10
62.696428635257163
20
-14.92424248807102
0
LWPOLYLINE
5
427
100
AcDbEntity
8
0
100
AcDbPolyline
90
4
70
1
43
0.0
10
63.785714349542879
20
-14.124242462539581
10
62.98571432401144
20
-14.124242462539581
10
62.98571432401144
20
-14.92424248807102
10
63.785714349542879
20
-14.92424248807102
0
LWPOLYLINE
5
428
100
AcDbEntity
8
0
100
AcDbPolyline
90
4
70
1
43
0.0
10
64.87500006382858
20
-14.124242462539581
10
64.075000038297148
20
-14.124242462539581
10
64.075000038297148
20
-14.92424248807102
10
64.87500006382858
20
-14.92424248807102
0
LWPOLYLINE
5
429
100
AcDbEntity
8
0
100
AcDbPolyline
90
4
70
1
43
0.0
10
65.964285778114302
20
-14.124242462539581
10
65.16428575258287
20
-14.124242462539581
10
65.16428575258287
20
-14.92424248807102
10
65.964285778114302
20
-14.92424248807102
0
LWPOLYLINE
5
430
100
AcDbEntity
8
0
100
AcDbPolyline
90
4
70
1
43
0.0
10
67.05357149240001
20
-14.124242462539581
10
66.253571466868578
20
-14.124242462539581
10
66.253571466868578
20
-14.92424248807102
10
67.05357149240001
20
-14.92424248807102
0
LWPOLYLINE
5
431
100
AcDbEntity
8
0
100
AcDbPolyline
90
4
70
1
43
0.0
10
68.142857206685733
20
-14.124242462539581
10
67.342857181154287
20
-14.124242462539581
10
67.342857181154287
20
-14.92424248807102
10
68.142857206685733
20
-14.92424248807102
0
LWPOLYLINE
5
432
100
AcDbEntity
8
0
100
AcDbPolyline
90
4
70
1
43
0.0
10
69.232142920971441
20
-14.124242462539581
10
68.432142895440009
20
-14.124242462539581
10
68.432142895440009
20
-14.92424248807102
10
69.232142920971441
20
-14.92424248807102
0
LWPOLYLINE
5
433
100
AcDbEntity
8
0
100
AcDbPolyline
90
4
70
1
43
0.0
10
70.321428635257163
20
-14.124242462539581
10
69.521428609725717
20
-14.124242462539581
10
69.521428609725717
20
-14.92424248807102
10
70.321428635257163
20
-14.92424248807102
0
LWPOLYLINE
5
434
100
AcDbEntity
8
0
100
AcDbPolyline
90
4
70
1
43
0.0
10
71.410714349542872
20
-14.124242462539581
10
70.610714324011425
20
-14.124242462539581
10
70.610714324011425
20
-14.92424248807102
10
71.410714349542872
20
-14.92424248807102
0
LWPOLYLINE
5
435
100
AcDbEntity
8
0
100
AcDbPolyline
90
4
70
1
43
0.0
10
72.500000063828594
20
-14.124242462539581
10
71.700000038297148
20
-14.124242462539581
10
71.700000038297148
20
-14.92424248807102
10
72.500000063828594
20
-14.92424248807102
0
LWPOLYLINE
5
436
100
AcDbEntity
8
0
100
AcDbPolyline
90
4
70
1
43
0.0
10
42.000000063828587
20
-13.033333371630492
10
41.200000038297155
20
-13.033333371630492
10
41.200000038297155
20
-13.83333339716193
10
42.000000063828587
20
-13.83333339716193
0
LWPOLYLINE
5
437
100
AcDbEntity
8
0
100
AcDbPolyline
90
4
70
1
43
0.0
10
43.089285778114302
20
-13.033333371630492
10
42.28928575258287
20
-13.033333371630492
10
42.28928575258287
20
-13.83333339716193
10
43.089285778114302
20
-13.83333339716193
0
LWPOLYLINE
5
438
100
AcDbEntity
8
0
100
AcDbPolyline
90
4
70
1
43
0.0
10
44.178571492400017
20
-13.033333371630492
10
43.378571466868586
20
-13.033333371630492
10
43.378571466868586
20
-13.83333339716193
10
44.178571492400017
20
-13.83333339716193
0
LWPOLYLINE
5
439
100
AcDbEntity
8
0
100
AcDbPolyline
90
4
70
1
43
0.0
10
45.267857206685733
20
-13.033333371630492
10
44.467857181154294
20
-13.033333371630492
10
44.467857181154294
20
-13.83333339716193
10
45.267857206685733
20
-13.83333339716193
0
LWPOLYLINE
5
440
100
AcDbEntity
8
0
100
AcDbPolyline
90
4
70
1
43
0.0
10
46.357142920971448
20
-13.033333371630492
10
45.557142895440009
20
-13.033333371630492
10
45.557142895440009
20
-13.83333339716193
10
46.357142920971448
20
-13.83333339716193
0
LWPOLYLINE
5
441
100
AcDbEntity
8
0
100
AcDbPolyline
90
4
70
1
43
0.0
10
47.446428635257163
20
-13.033333371630492
10
46.646428609725724
20
-13.033333371630492
10
46.646428609725724
20
-13.83333339716193
10
47.446428635257163
20
-13.83333339716193
0
LWPOLYLINE
5
442
100
AcDbEntity
8
0
100
AcDbPolyline
90
4
70
1
43
0.0
10
48.535714349542879
20
-13.033333371630492
10
47.73571432401144
20
-13.033333371630492
10
47.73571432401144
20
-13.83333339716193
10
48.535714349542879
20
-13.83333339716193
0
LWPOLYLINE
5
443
100
AcDbEntity
8
0
100
AcDbPolyline
90
4
70
1
43
0.0
10
49.625000063828594
20
-13.033333371630492
10
48.825000038297155
20
-13.033333371630492
10
48.825000038297155
20
-13.83333339716193
10
49.625000063828594
20
-13.83333339716193
0
LWPOLYLINE
5
444
100
AcDbEntity
8
0
100
AcDbPolyline
90
4
70
1
43
0.0
10
50.714285778114302
20
-13.033333371630492
10
49.914285752582863
20
-13.033333371630492
10
49.914285752582863
20
-13.83333339716193
10
50.714285778114302
20
-13.83333339716193
0
LWPOLYLINE
5
445
100
AcDbEntity
8
0
100
AcDbPolyline
90
4
70
1
43
0.0
10
51.803571492400025
20
-13.033333371630492
10
51.003571466868586
20
-13.033333371630492
10
51.003571466868586
20
-13.83333339716193
10
51.803571492400025
20
-13.83333339716193
0
LWPOLYLINE
5
446
100
AcDbEntity
8
0
100
AcDbPolyline
90
4
70
1
43
0.0
10
52.892857206685733
20
-13.033333371630492
10
52.092857181154294
20
-13.033333371630492
10
52.092857181154294
20
-13.83333339716193
10
52.892857206685733
20
-13.83333339716193
0
LWPOLYLINE
5
447
100
AcDbEntity
8
0
100
AcDbPolyline
90
4
70
1
43
0.0
10
53.982142920971441
20
-13.033333371630492
10
53.182142895440002
20
-13.033333371630492
10
53.182142895440002
20
-13.83333339716193
10
53.982142920971441
20
-13.83333339716193
0
LWPOLYLINE
5
448
100
AcDbEntity
8
0
100
AcDbPolyline
90
4
70
1
43
0.0
10
55.071428635257163
20
-13.033333371630492
10
54.271428609725724
20
-13.033333371630492
10
54.271428609725724
20
-13.83333339716193
10
55.071428635257163
20
-13.83333339716193
0
LWPOLYLINE
5
449
100
AcDbEntity
8
0
100
AcDbPolyline
90
4
70
1
43
0.0
10
56.160714349542872
20
-13.033333371630492
10
55.360714324011433
20
-13.033333371630492
10
55.360714324011433
20
-13.83333339716193
10
56.160714349542872
20
-13.83333339716193
0
LWPOLYLINE
5
450
100
AcDbEntity
8
0
100
AcDbPolyline
90
4
70
1
43
0.0
10
57.25000006382858
20
-13.033333371630492
10
56.450000038297148
20
-13.033333371630492
10
56.450000038297148
20
-13.83333339716193
10
57.25000006382858
20
-13.83333339716193
0
LWPOLYLINE
5
451
100
AcDbEntity
8
0
100
AcDbPolyline
90
4
70
1
43
0.0
10
58.339285778114302
20
-13.033333371630492
10
57.539285752582863
20
-13.033333371630492
10
57.539285752582863
20
-13.83333339716193
10
58.339285778114302
20
-13.83333339716193
0
LWPOLYLINE
5
452
100
AcDbEntity
8
0
100
AcDbPolyline
90
4
70
1
43
0.0
10
59.42857149240001
20
-13.033333371630492
10
58.628571466868578
20
-13.033333371630492
10
58.628571466868578
20
-13.83333339716193
10
59.42857149240001
20
-13.83333339716193
0
LWPOLYLINE
5
453
100
AcDbEntity
8
0
100
AcDbPolyline
90
4
70
1
43
0.0
10
60.517857206685733
20
-13.033333371630492
10
59.717857181154294
20
-13.033333371630492
10
59.717857181154294
20
-13.83333339716193
10
60.517857206685733
20
-13.83333339716193
0
LWPOLYLINE
5
454
100
AcDbEntity
8
0
100
AcDbPolyline
90
4
70
1
43
0.0
10
61.607142920971448
20
-13.033333371630492
10
60.807142895440009
20
-13.033333371630492
10
60.807142895440009
20
-13.83333339716193
10
61.607142920971448
20
-13.83333339716193
0
LWPOLYLINE
5
455
100
AcDbEntity
8
0
100
AcDbPolyline
90
4
70
1
43
0.0
10
62.696428635257163
20
-13.033333371630492
10
61.896428609725724
20
-13.033333371630492
10
61.896428609725724
20
-13.83333339716193
10
62.696428635257163
20
-13.83333339716193
0
LWPOLYLINE
5
456
100
AcDbEntity
8
0
100
AcDbPolyline
90
4
70
1
43
0.0
10
63.785714349542879
20
-13.033333371630492
10
62.98571432401144
20
-13.033333371630492
10
62.98571432401144
20
-13.83333339716193
10
63.785714349542879
20
-13.83333339716193
0
LWPOLYLINE
5
457
100
AcDbEntity
8
0
100
AcDbPolyline
90
4
70
1
43
0.0
10
64.87500006382858
20
-13.033333371630492
10
64.075000038297148
20
-13.033333371630492
10
64.075000038297148
20
-13.83333339716193
10
64.87500006382858
20
-13.83333339716193
0
LWPOLYLINE
5
458
100
AcDbEntity
8
0
100
AcDbPolyline
90
4
70
1
43
0.0
10
65.964285778114302
20
-13.033333371630492
10
65.16428575258287
20
-13.033333371630492
10
65.16428575258287
20
-13.83333339716193
10
65.964285778114302
20
-13.83333339716193
0
LWPOLYLINE
5
459
100
AcDbEntity
8
0
100
AcDbPolyline
90
4
70
1
43
0.0
10
67.05357149240001
20
-13.033333371630492
10
66.253571466868578
20
-13.033333371630492
10
66.253571466868578
20
-13.83333339716193
10
67.05357149240001
20
-13.83333339716193
0
LWPOLYLINE
5
460
100
AcDbEntity
8
0
100
AcDbPolyline
90
4
70
1
43
0.0
10
68.142857206685733
20
-13.033333371630492
10
67.342857181154287
20
-13.033333371630492
10
67.342857181154287
20
-13.83333339716193
10
68.142857206685733
20
-13.83333339716193
0
LWPOLYLINE
5
461
100
AcDbEntity
8
0
100
AcDbPolyline
90
4
70
1
43
0.0
10
69.232142920971441
20
-13.033333371630492
10
68.432142895440009
20
-13.033333371630492
10
68.432142895440009
20
-13.83333339716193
10
69.232142920971441
20
-13.83333339716193
0
LWPOLYLINE
5
462
100
AcDbEntity
8
0
100
AcDbPolyline
90
4
70
1
43
0.0
10
70.321428635257163
20
-13.033333371630492
10
69.521428609725717
20
-13.033333371630492
10
69.521428609725717
20
-13.83333339716193
10
70.321428635257163
20
-13.83333339716193
0
LWPOLYLINE
5
463
100
AcDbEntity
8
0
100
AcDbPolyline
90
4
70
1
43
0.0
10
71.410714349542872
20
-13.033333371630492
10
70.610714324011425
20
-13.033333371630492
10
70.610714324011425
20
-13.83333339716193
10
71.410714349542872
20
-13.83333339716193
0
LWPOLYLINE
5
464
100
AcDbEntity
8
0
100
AcDbPolyline
90
4
70
1
43
0.0
10
72.500000063828594
20
-13.033333371630492
10
71.700000038297148
20
-13.033333371630492
10
71.700000038297148
20
-13.83333339716193
10
72.500000063828594
20
-13.83333339716193
0
ENDSEC
0
SECTION
2
OBJECTS
0
DICTIONARY
5
C
100
AcDbDictionary
3
ACAD_GROUP
350
D
3
ACAD_MLINESTYLE
350
17
0
DICTIONARY
5
D
100
AcDbDictionary
0
DICTIONARY
5
1A
330
C
100
AcDbDictionary
0
DICTIONARY
5
17
100
AcDbDictionary
0
ENDSEC
0
EOF
