0
SECTION
2
HEADER
9
$INSUNITS
70
1
9
$ACADVER
1
AC1014
9
$HANDSEED
5
FFFF
0
ENDSEC
0
SECTION
2
TABLES
0
TABLE
2
VPORT
5
8
100
AcDbSymbolTable
0
ENDTAB
0
TABLE
2
LTYPE
5
5
100
AcDbSymbolTable
0
LTYPE
5
14
100
AcDbSymbolTableRecord
100
AcDbLinetypeTableRecord
2
BYBLOCK
70
0
0
LTYPE
5
15
100
AcDbSymbolTableRecord
100
AcDbLinetypeTableRecord
2
BYLAYER
70
0
0
ENDTAB
0
TABLE
2
LAYER
5
2
100
AcDbSymbolTable
70
2
0
LAYER
5
50
100
AcDbSymbolTableRecord
100
AcDbLayerTableRecord
2
0
70
0
6
CONTINUOUS
0
ENDTAB
0
TABLE
2
STYLE
5
3
100
AcDbSymbolTable
70
1
0
STYLE
5
11
100
AcDbSymbolTableRecord
100
AcDbTextStyleTableRecord
2
STANDARD
70
0
0
ENDTAB
0
TABLE
2
VIEW
5
6
100
AcDbSymbolTable
70
0
0
ENDTAB
0
TABLE
2
UCS
5
7
100
AcDbSymbolTable
70
0
0
ENDTAB
0
TABLE
2
APPID
5
9
100
AcDbSymbolTable
70
2
0
APPID
5
12
100
AcDbSymbolTableRecord
100
AcDbRegAppTableRecord
2
ACAD
70
0
0
ENDTAB
0
TABLE
2
DIMSTYLE
5
A
100
AcDbSymbolTable
70
1
0
ENDTAB
0
TABLE
2
BLOCK_RECORD
5
1
100
AcDbSymbolTable
70
1
0
BLOCK_RECORD
5
1F
100
AcDbSymbolTableRecord
100
AcDbBlockTableRecord
2
*MODEL_SPACE
0
BLOCK_RECORD
5
1B
100
AcDbSymbolTableRecord
100
AcDbBlockTableRecord
2
*PAPER_SPACE
0
ENDTAB
0
ENDSEC
0
SECTION
2
BLOCKS
0
BLOCK
5
20
100
AcDbEntity
100
AcDbBlockBegin
2
*MODEL_SPACE
0
ENDBLK
5
21
100
AcDbEntity
100
AcDbBlockEnd
0
BLOCK
5
1C
100
AcDbEntity
100
AcDbBlockBegin
2
*PAPER_SPACE
0
ENDBLK
5
1D
100
AcDbEntity
100
AcDbBlockEnd
0
ENDSEC
0
SECTION
2
ENTITIES
0
LINE
5
100
100
AcDbEntity
8
0
100
AcDbLine
10
4.9999999999999991
20
0
30
0
11
4.9999999999999991
21
-3.7500001276571919
31
0
0
LINE
5
101
100
AcDbEntity
8
0
100
AcDbLine
10
4.9999999999999991
20
-4.9999999999999991
30
0
11
0
21
-4.9999999999999991
31
0
0
LINE
5
102
100
AcDbEntity
8
0
100
AcDbLine
10
5.2451481478353848e-16
20
-3.7500001276571919
30
0
11
0
21
0
31
0
0
LINE
5
103
100
AcDbEntity
8
0
100
AcDbLine
10
0
20
-4.9999999999999991
30
0
11
-0.90000003191429812
21
-4.9999999999999991
31
0
0
LINE
5
104
100
AcDbEntity
8
0
100
AcDbLine
10
-1.0000000319142979
20
-4.989897948556635
30
0
11
-1.0000000319142979
21
-4.9898980762138274
31
0
0
LINE
5
105
100
AcDbEntity
8
0
100
AcDbLine
10
-0.90000003191429812
20
-4.0000001276571915
30
0
11
-0.24999999999999997
21
-4.0000001276571915
31
0
0
LINE
5
106
100
AcDbEntity
8
0
100
AcDbLine
10
4.9999999999999991
20
-4.9999999999999991
30
0
11
5.9000001914857885
21
-5
31
0
0
LINE
5
107
100
AcDbEntity
8
0
100
AcDbLine
10
6.3995361116898932
20
-4.5215375120624195
30
0
11
6.3995361116898932
21
-4.4784626155948235
31
0
0
LINE
5
108
100
AcDbEntity
8
0
100
AcDbLine
10
5.9000001914857885
20
-4.0000001276571924
30
0
11
5.2499999999999991
21
-4.0000001276571915
31
0
0
CIRCLE
5
109
100
AcDbEntity
8
0
100
AcDbCircle
10
5.90000017552864
20
-4.5000001436143409
30
0
40
0.16000000000000006
0
CIRCLE
5
110
100
AcDbEntity
8
0
100
AcDbCircle
10
-0.90000001595714896
20
-4.5000001436143409
30
0
40
0.16000000000000011
0
CIRCLE
5
111
100
AcDbEntity
8
0
100
AcDbCircle
10
2.5000000797857447
20
-2.6000000829771746
30
0
40
0.12749999999999995
0
LWPOLYLINE
5
112
100
AcDbEntity
8
0
100
AcDbPolyline
90
6
70
1
43
0.0
10
4.0585787809941714
20
-1.0000000319142979
10
0.94142137857731834
20
-1.0000000319142981
42
0.66817863791929633
10
0.8707107004586635
20
-1.1707107100329528
10
1.2000000382971574
20
-1.5000000478714468
10
3.8000001212743322
20
-1.5000000478714468
10
4.129289459112826
20
-1.1707107100329528
42
0.66817863791929855
0
LWPOLYLINE
5
113
100
AcDbEntity
8
0
100
AcDbPolyline
90
6
70
1
43
0.0
10
0.94142137857731767
20
-4.5000001436143409
10
4.0585787809941722
20
-4.50000014361434
42
0.66817863791930499
10
4.129289459112826
20
-4.3292894654956857
10
3.8000001212743322
20
-4.0000001276571915
10
1.2000000382971574
20
-4.0000001276571915
10
0.87071070045866283
20
-4.3292894654956866
42
0.66817863791930487
0
LWPOLYLINE
5
114
100
AcDbEntity
8
0
100
AcDbPolyline
90
4
70
1
43
0.0
10
4.0000001276571915
20
-3.8000001212743322
10
4.0000001276571915
20
-1.7000000542543061
10
4.3000001372314811
20
-1.4000000446800172
10
4.3000001372314811
20
-4.1000001308486214
0
LWPOLYLINE
5
115
100
AcDbEntity
8
0
100
AcDbPolyline
90
4
70
1
43
0.0
10
1.0000000319142979
20
-1.7000000542543063
10
1.0000000319142979
20
-3.8000001212743322
10
0.70000002234000858
20
-4.1000001308486214
10
0.70000002234000858
20
-1.4000000446800172
0
ARC
5
116
100
AcDbEntity
8
0
100
AcDbCircle
10
-0.24999999999999936
20
-3.7500001276571919
30
0
40
0.24999999999999989
100
AcDbArc
50
-90.000000000000142
51
0
0
ARC
5
117
100
AcDbEntity
8
0
100
AcDbCircle
10
5.2499999999999982
20
-3.7500001276571924
30
0
40
0.2499999999999992
100
AcDbArc
50
180
51
270.00000000000023
0
ARC
5
118
100
AcDbEntity
8
0
100
AcDbCircle
10
-0.90000003191429812
20
-4.5000001276571915
30
0
40
0.49999999999999978
100
AcDbArc
50
90
51
258.46304096718455
0
ARC
5
119
100
AcDbEntity
8
0
100
AcDbCircle
10
5.9000001914857885
20
-4.5000001276571924
30
0
40
0.49999999999999883
100
AcDbArc
50
2.4687809396140215
51
90
0
ARC
5
120
100
AcDbEntity
8
0
100
AcDbCircle
10
-0.90000003191429812
20
-4.4999999999999991
30
0
40
0.49999999999999994
100
AcDbArc
50
258.46304096718455
51
270
0
ARC
5
121
100
AcDbEntity
8
0
100
AcDbCircle
10
5.9000001914857885
20
-4.4999999999999991
30
0
40
0.50000000000000044
100
AcDbArc
50
270
51
357.53121906038007
0
LINE
5
122
100
AcDbEntity
8
0
100
AcDbLine
10
0
20
1.0000000319142979
30
0
11
2.3999999170228246
21
1.0000000319142979
31
0
0
LINE
5
123
100
AcDbEntity
8
0
100
AcDbLine
10
0
20
0
30
0
11
0
21
1.0000000319142979
31
0
0
LINE
5
124
100
AcDbEntity
8
0
100
AcDbLine
10
2.6000000829771746
20
1.0000000319142979
30
0
11
4.9999999999999991
21
1.0000000319142979
31
0
0
LINE
5
125
100
AcDbEntity
8
0
100
AcDbLine
10
4.9999999999999991
20
1.0000000319142979
30
0
11
4.9999999999999991
21
0
31
0
0
CIRCLE
5
126
100
AcDbEntity
8
0
100
AcDbCircle
10
2.5000000797857447
20
-3.1000000829771746
30
0
40
0.12749999999999995
0
CIRCLE
5
127
100
AcDbEntity
8
0
100
AcDbCircle
10
2.5000000797857447
20
-2.1000000829771746
30
0
40
0.12749999999999995
0
CIRCLE
5
128
100
AcDbEntity
8
0
100
AcDbCircle
10
2.5000000797857447
20
-3.6000000829771741
30
0
40
0.12749999999999995
0
LINE
5
129
100
AcDbEntity
8
0
100
AcDbLine
10
2.6000000829771746
20
1.0000000319142979
30
0
11
2.3999999170228246
21
1.0000000319142979
31
0
0
ENDSEC
0
SECTION
2
OBJECTS
0
DICTIONARY
5
C
100
AcDbDictionary
3
ACAD_GROUP
350
D
3
ACAD_MLINESTYLE
350
17
0
DICTIONARY
5
D
100
AcDbDictionary
0
DICTIONARY
5
1A
330
C
100
AcDbDictionary
0
DICTIONARY
5
17
100
AcDbDictionary
0
ENDSEC
0
EOF
