0
SECTION
2
HEADER
9
$INSUNITS
70
1
9
$ACADVER
1
AC1014
9
$HANDSEED
5
FFFF
0
ENDSEC
0
SECTION
2
TABLES
0
TABLE
2
VPORT
5
8
100
AcDbSymbolTable
0
ENDTAB
0
TABLE
2
LTYPE
5
5
100
AcDbSymbolTable
0
LTYPE
5
14
100
AcDbSymbolTableRecord
100
AcDbLinetypeTableRecord
2
BYBLOCK
70
0
0
LTYPE
5
15
100
AcDbSymbolTableRecord
100
AcDbLinetypeTableRecord
2
BYLAYER
70
0
0
ENDTAB
0
TABLE
2
LAYER
5
2
100
AcDbSymbolTable
70
2
0
LAYER
5
50
100
AcDbSymbolTableRecord
100
AcDbLayerTableRecord
2
0
70
0
6
CONTINUOUS
0
ENDTAB
0
TABLE
2
STYLE
5
3
100
AcDbSymbolTable
70
1
0
STYLE
5
11
100
AcDbSymbolTableRecord
100
AcDbTextStyleTableRecord
2
STANDARD
70
0
0
ENDTAB
0
TABLE
2
VIEW
5
6
100
AcDbSymbolTable
70
0
0
ENDTAB
0
TABLE
2
UCS
5
7
100
AcDbSymbolTable
70
0
0
ENDTAB
0
TABLE
2
APPID
5
9
100
AcDbSymbolTable
70
2
0
APPID
5
12
100
AcDbSymbolTableRecord
100
AcDbRegAppTableRecord
2
ACAD
70
0
0
ENDTAB
0
TABLE
2
DIMSTYLE
5
A
100
AcDbSymbolTable
70
1
0
ENDTAB
0
TABLE
2
BLOCK_RECORD
5
1
100
AcDbSymbolTable
70
1
0
BLOCK_RECORD
5
1F
100
AcDbSymbolTableRecord
100
AcDbBlockTableRecord
2
*MODEL_SPACE
0
BLOCK_RECORD
5
1B
100
AcDbSymbolTableRecord
100
AcDbBlockTableRecord
2
*PAPER_SPACE
0
ENDTAB
0
ENDSEC
0
SECTION
2
BLOCKS
0
BLOCK
5
20
100
AcDbEntity
100
AcDbBlockBegin
2
*MODEL_SPACE
0
ENDBLK
5
21
100
AcDbEntity
100
AcDbBlockEnd
0
BLOCK
5
1C
100
AcDbEntity
100
AcDbBlockBegin
2
*PAPER_SPACE
0
ENDBLK
5
1D
100
AcDbEntity
100
AcDbBlockEnd
0
ENDSEC
0
SECTION
2
ENTITIES
0
LWPOLYLINE
5
100
100
AcDbEntity
8
0
100
AcDbPolyline
90
22
70
1
43
0.0
10
30.999999999999996
20
-21.000000000000007
10
30.999999999999996
20
-1.0000000000000098
42
0.41421356237309503
10
29.999999999999986
20
0
10
29.603716180292949
20
1.7483827159451283e-15
42
0.19920199760581117
10
29.426742600940607
20
-0.073420408282209498
10
29.074369646035809
20
-0.42657958420854031
42
-0.19920199760574611
10
28.897396066683473
20
-0.49999999249075583
10
1.604505866766059
20
-0.49999999249075328
42
-0.19862276925161723
10
1.4279262750482682
20
-0.42697357184309159
10
1.0731893904555778
20
-0.073026420647661877
42
0.19862276925161718
10
0.8966097987377869
20
4.3709567898628207e-17
10
0
20
0
10
0
20
-22
10
0.89284753038016507
20
-22
42
0.19920199760580867
10
1.0698211097325026
20
-21.926579591717793
10
1.4221943943085931
20
-21.573420085384601
42
-0.1992019976058067
10
1.5991679736609319
20
-21.499999677102394
10
28.895122261082722
20
-21.499999677102391
42
-0.19862276925159958
10
29.071701852800508
20
-21.573026097750063
10
29.426439068537263
20
-21.926973579352339
42
0.19862276925165293
10
29.603018660255053
20
-22.000000000000004
10
30.000000000000004
20
-22
42
0.41421356237309503
0
CIRCLE
5
101
100
AcDbEntity
8
0
100
AcDbCircle
10
30.000000957428938
20
-0.50000001595714894
30
0
40
0.13000000000000192
0
CIRCLE
5
102
100
AcDbEntity
8
0
100
AcDbCircle
10
30.000000957428938
20
-21.500000686157406
30
0
40
0.12999999999999914
0
CIRCLE
5
103
100
AcDbEntity
8
0
100
AcDbCircle
10
0.50000001595714894
20
-21.500000686157406
30
0
40
0.13000000000000023
0
CIRCLE
5
104
100
AcDbEntity
8
0
100
AcDbCircle
10
0.50000001595714894
20
-0.50000001595714894
30
0
40
0.12999999999999998
0
LINE
5
105
100
AcDbEntity
8
0
100
AcDbLine
10
1.0000039075561316
20
-20.999999684611641
30
0
11
0.99999997054825773
21
-20.999999684611641
31
0
0
LINE
5
106
100
AcDbEntity
8
0
100
AcDbLine
10
0.99999997054825895
20
-0.9999999826104814
30
0
11
1.0000039075561329
21
-0.9999999826104814
31
0
0
LWPOLYLINE
5
107
100
AcDbEntity
8
0
100
AcDbPolyline
90
4
70
1
43
0.0
10
26.119999549445204
20
-1.2999999774722597
10
26.919999549445198
20
-1.2999999774722597
10
26.919999549445198
20
-2.0999999774722595
10
26.119999549445204
20
-2.0999999774722595
0
LWPOLYLINE
5
108
100
AcDbEntity
8
0
100
AcDbPolyline
90
4
70
1
43
0.0
10
25.829999549445201
20
-1.2999999774722597
10
25.829999549445201
20
-2.0999999774722595
10
25.029999549445201
20
-2.0999999774722595
10
25.029999549445201
20
-1.2999999774722597
0
LWPOLYLINE
5
109
100
AcDbEntity
8
0
100
AcDbPolyline
90
4
70
1
43
0.0
10
24.739999549445194
20
-1.2999999774722597
10
24.739999549445194
20
-2.0999999774722595
10
23.939999549445197
20
-2.0999999774722595
10
23.939999549445197
20
-1.2999999774722597
0
LWPOLYLINE
5
110
100
AcDbEntity
8
0
100
AcDbPolyline
90
4
70
1
43
0.0
10
26.919999549445198
20
-2.3899999774722596
10
26.919999549445198
20
-3.1899999774722594
10
26.119999549445204
20
-3.1899999774722594
10
26.119999549445204
20
-2.3899999774722596
0
LWPOLYLINE
5
111
100
AcDbEntity
8
0
100
AcDbPolyline
90
4
70
1
43
0.0
10
25.829999549445201
20
-2.3899999774722596
10
25.829999549445201
20
-3.1899999774722594
10
25.029999549445201
20
-3.1899999774722594
10
25.029999549445201
20
-2.3899999774722596
0
LWPOLYLINE
5
112
100
AcDbEntity
8
0
100
AcDbPolyline
90
4
70
1
43
0.0
10
24.739999549445194
20
-2.3899999774722596
10
24.739999549445194
20
-3.1899999774722594
10
23.939999549445197
20
-3.1899999774722594
10
23.939999549445197
20
-2.3899999774722596
0
LWPOLYLINE
5
113
100
AcDbEntity
8
0
100
AcDbPolyline
90
4
70
1
43
0.0
10
26.919999549445198
20
-3.4799999774722599
10
26.919999549445198
20
-4.2799999774722597
10
26.119999549445204
20
-4.2799999774722597
10
26.119999549445204
20
-3.4799999774722599
0
LWPOLYLINE
5
114
100
AcDbEntity
8
0
100
AcDbPolyline
90
4
70
1
43
0.0
10
25.829999549445201
20
-3.4799999774722599
10
25.829999549445201
20
-4.2799999774722597
10
25.029999549445201
20
-4.2799999774722597
10
25.029999549445201
20
-3.4799999774722599
0
LWPOLYLINE
5
115
100
AcDbEntity
8
0
100
AcDbPolyline
90
4
70
1
43
0.0
10
24.739999549445194
20
-3.4799999774722599
10
24.739999549445194
20
-4.2799999774722597
10
23.939999549445197
20
-4.2799999774722597
10
23.939999549445197
20
-3.4799999774722599
0
LWPOLYLINE
5
116
100
AcDbEntity
8
0
100
AcDbPolyline
90
4
70
1
43
0.0
10
26.919999999999998
20
-4.5699999774722597
10
26.919999999999998
20
-5.3699999774722604
10
26.119999549445204
20
-5.3699999774722604
10
26.119999549445204
20
-4.5699999774722597
0
LWPOLYLINE
5
117
100
AcDbEntity
8
0
100
AcDbPolyline
90
4
70
1
43
0.0
10
25.829999549445201
20
-4.5699999774722597
10
25.829999549445201
20
-5.3699999774722604
10
25.029999549445201
20
-5.3699999774722604
10
25.029999549445201
20
-4.5699999774722597
0
LWPOLYLINE
5
118
100
AcDbEntity
8
0
100
AcDbPolyline
90
4
70
1
43
0.0
10
24.739999549445194
20
-4.5699999774722597
10
24.739999549445194
20
-5.3699999774722604
10
23.939999549445197
20
-5.3699999774722604
10
23.939999549445197
20
-4.5699999774722597
0
LWPOLYLINE
5
119
100
AcDbEntity
8
0
100
AcDbPolyline
90
4
70
1
43
0.0
10
26.919999549445198
20
-5.6599999774722596
10
26.919999549445198
20
-6.4599999774722585
10
26.119999549445204
20
-6.4599999774722585
10
26.119999549445204
20
-5.6599999774722596
0
LWPOLYLINE
5
120
100
AcDbEntity
8
0
100
AcDbPolyline
90
4
70
1
43
0.0
10
25.829999549445201
20
-5.6599999774722596
10
25.829999549445201
20
-6.4599999774722585
10
25.029999549445201
20
-6.4599999774722585
10
25.029999549445201
20
-5.6599999774722596
0
LWPOLYLINE
5
121
100
AcDbEntity
8
0
100
AcDbPolyline
90
4
70
1
43
0.0
10
24.739999549445194
20
-5.6599999774722596
10
24.739999549445194
20
-6.4599999774722585
10
23.939999549445197
20
-6.4599999774722585
10
23.939999549445197
20
-5.6599999774722596
0
LWPOLYLINE
5
122
100
AcDbEntity
8
0
100
AcDbPolyline
90
4
70
1
43
0.0
10
26.919999999999995
20
-6.7499999774722603
10
26.919999999999995
20
-7.5499999774722584
10
26.120000000000001
20
-7.5499999774722584
10
26.120000000000001
20
-6.7499999774722603
0
LWPOLYLINE
5
123
100
AcDbEntity
8
0
100
AcDbPolyline
90
4
70
1
43
0.0
10
25.829999549445201
20
-6.7499999774722603
10
25.829999549445201
20
-7.5499999774722584
10
25.029999549445201
20
-7.5499999774722584
10
25.029999549445201
20
-6.7499999774722603
0
LWPOLYLINE
5
124
100
AcDbEntity
8
0
100
AcDbPolyline
90
4
70
1
43
0.0
10
24.739999549445194
20
-6.7499999774722603
10
24.739999549445194
20
-7.5499999774722584
10
23.939999549445197
20
-7.5499999774722584
10
23.939999549445197
20
-6.7499999774722603
0
LWPOLYLINE
5
125
100
AcDbEntity
8
0
100
AcDbPolyline
90
4
70
1
43
0.0
10
26.919999549445198
20
-7.8399999774722593
10
26.919999549445198
20
-8.6399999774722609
10
26.119999549445204
20
-8.6399999774722609
10
26.119999549445204
20
-7.8399999774722593
0
LWPOLYLINE
5
126
100
AcDbEntity
8
0
100
AcDbPolyline
90
4
70
1
43
0.0
10
25.829999549445201
20
-7.8399999774722593
10
25.829999549445201
20
-8.6399999774722609
10
25.029999549445201
20
-8.6399999774722609
10
25.029999549445201
20
-7.8399999774722593
0
LWPOLYLINE
5
127
100
AcDbEntity
8
0
100
AcDbPolyline
90
4
70
1
43
0.0
10
24.739999549445194
20
-7.8399999774722593
10
24.739999549445194
20
-8.6399999774722609
10
23.939999549445197
20
-8.6399999774722609
10
23.939999549445197
20
-7.8399999774722593
0
LWPOLYLINE
5
128
100
AcDbEntity
8
0
100
AcDbPolyline
90
4
70
1
43
0.0
10
26.919999549445198
20
-8.92999997747226
10
26.919999549445198
20
-9.7299999774722608
10
26.119999549445204
20
-9.7299999774722608
10
26.119999549445204
20
-8.92999997747226
0
LWPOLYLINE
5
129
100
AcDbEntity
8
0
100
AcDbPolyline
90
4
70
1
43
0.0
10
25.829999549445201
20
-8.92999997747226
10
25.829999549445201
20
-9.7299999774722608
10
25.029999549445201
20
-9.7299999774722608
10
25.029999549445201
20
-8.92999997747226
0
LWPOLYLINE
5
130
100
AcDbEntity
8
0
100
AcDbPolyline
90
4
70
1
43
0.0
10
24.739999549445194
20
-8.92999997747226
10
24.739999549445194
20
-9.7299999774722608
10
23.939999549445197
20
-9.7299999774722608
10
23.939999549445197
20
-8.92999997747226
0
LWPOLYLINE
5
131
100
AcDbEntity
8
0
100
AcDbPolyline
90
4
70
1
43
0.0
10
26.919999549445198
20
-10.019999977472258
10
26.919999549445198
20
-10.819999977472261
10
26.119999549445204
20
-10.819999977472261
10
26.119999549445204
20
-10.019999977472258
0
LWPOLYLINE
5
132
100
AcDbEntity
8
0
100
AcDbPolyline
90
4
70
1
43
0.0
10
25.829999549445201
20
-10.019999977472258
10
25.829999549445201
20
-10.819999977472261
10
25.029999549445201
20
-10.819999977472261
10
25.029999549445201
20
-10.019999977472258
0
LWPOLYLINE
5
133
100
AcDbEntity
8
0
100
AcDbPolyline
90
4
70
1
43
0.0
10
24.739999549445194
20
-10.019999977472258
10
24.739999549445194
20
-10.819999977472261
10
23.939999549445197
20
-10.819999977472261
10
23.939999549445197
20
-10.019999977472258
0
LWPOLYLINE
5
134
100
AcDbEntity
8
0
100
AcDbPolyline
90
4
70
1
43
0.0
10
26.919999999999995
20
-11.109999977472258
10
26.919999999999995
20
-11.90999997747226
10
26.120000000000001
20
-11.90999997747226
10
26.120000000000001
20
-11.109999977472258
0
LWPOLYLINE
5
135
100
AcDbEntity
8
0
100
AcDbPolyline
90
4
70
1
43
0.0
10
25.829999549445201
20
-11.109999977472258
10
25.829999549445201
20
-11.90999997747226
10
25.029999549445201
20
-11.90999997747226
10
25.029999549445201
20
-11.109999977472258
0
LWPOLYLINE
5
136
100
AcDbEntity
8
0
100
AcDbPolyline
90
4
70
1
43
0.0
10
24.739999549445194
20
-11.109999977472258
10
24.739999549445194
20
-11.90999997747226
10
23.939999549445197
20
-11.90999997747226
10
23.939999549445197
20
-11.109999977472258
0
LWPOLYLINE
5
137
100
AcDbEntity
8
0
100
AcDbPolyline
90
4
70
1
43
0.0
10
26.919999549445198
20
-12.199999977472258
10
26.919999549445198
20
-12.99999997747226
10
26.119999549445204
20
-12.99999997747226
10
26.119999549445204
20
-12.199999977472258
0
LWPOLYLINE
5
138
100
AcDbEntity
8
0
100
AcDbPolyline
90
4
70
1
43
0.0
10
25.829999549445201
20
-12.199999977472258
10
25.829999549445201
20
-12.99999997747226
10
25.029999549445201
20
-12.99999997747226
10
25.029999549445201
20
-12.199999977472258
0
LWPOLYLINE
5
139
100
AcDbEntity
8
0
100
AcDbPolyline
90
4
70
1
43
0.0
10
24.739999549445194
20
-12.199999977472258
10
24.739999549445194
20
-12.99999997747226
10
23.939999549445197
20
-12.99999997747226
10
23.939999549445197
20
-12.199999977472258
0
LWPOLYLINE
5
140
100
AcDbEntity
8
0
100
AcDbPolyline
90
4
70
1
43
0.0
10
26.919999549445198
20
-13.289999977472258
10
26.919999549445198
20
-14.089999977472258
10
26.119999549445204
20
-14.089999977472258
10
26.119999549445204
20
-13.289999977472258
0
LWPOLYLINE
5
141
100
AcDbEntity
8
0
100
AcDbPolyline
90
4
70
1
43
0.0
10
25.829999549445201
20
-13.289999977472258
10
25.829999549445201
20
-14.089999977472258
10
25.029999549445201
20
-14.089999977472258
10
25.029999549445201
20
-13.289999977472258
0
LWPOLYLINE
5
142
100
AcDbEntity
8
0
100
AcDbPolyline
90
4
70
1
43
0.0
10
24.739999549445194
20
-13.289999977472258
10
24.739999549445194
20
-14.089999977472258
10
23.939999549445197
20
-14.089999977472258
10
23.939999549445197
20
-13.289999977472258
0
LWPOLYLINE
5
143
100
AcDbEntity
8
0
100
AcDbPolyline
90
4
70
1
43
0.0
10
26.919999549445198
20
-14.379999977472259
10
26.919999549445198
20
-15.179999977472258
10
26.119999549445204
20
-15.179999977472258
10
26.119999549445204
20
-14.379999977472259
0
LWPOLYLINE
5
144
100
AcDbEntity
8
0
100
AcDbPolyline
90
4
70
1
43
0.0
10
25.829999549445201
20
-14.379999977472259
10
25.829999549445201
20
-15.179999977472258
10
25.029999549445201
20
-15.179999977472258
10
25.029999549445201
20
-14.379999977472259
0
LWPOLYLINE
5
145
100
AcDbEntity
8
0
100
AcDbPolyline
90
4
70
1
43
0.0
10
24.739999549445194
20
-14.379999977472259
10
24.739999549445194
20
-15.179999977472258
10
23.939999549445197
20
-15.179999977472258
10
23.939999549445197
20
-14.379999977472259
0
LWPOLYLINE
5
146
100
AcDbEntity
8
0
100
AcDbPolyline
90
4
70
1
43
0.0
10
26.919999549445198
20
-15.469999977472259
10
26.919999549445198
20
-16.26999997747226
10
26.119999549445204
20
-16.26999997747226
10
26.119999549445204
20
-15.469999977472259
0
LWPOLYLINE
5
147
100
AcDbEntity
8
0
100
AcDbPolyline
90
4
70
1
43
0.0
10
25.829999549445201
20
-15.469999977472259
10
25.829999549445201
20
-16.26999997747226
10
25.029999549445201
20
-16.26999997747226
10
25.029999549445201
20
-15.469999977472259
0
LWPOLYLINE
5
148
100
AcDbEntity
8
0
100
AcDbPolyline
90
4
70
1
43
0.0
10
24.739999549445194
20
-15.469999977472259
10
24.739999549445194
20
-16.26999997747226
10
23.939999549445197
20
-16.26999997747226
10
23.939999549445197
20
-15.469999977472259
0
LWPOLYLINE
5
149
100
AcDbEntity
8
0
100
AcDbPolyline
90
4
70
1
43
0.0
10
26.919999549445198
20
-16.559999977472259
10
26.919999549445198
20
-17.35999997747226
10
26.119999549445204
20
-17.35999997747226
10
26.119999549445204
20
-16.559999977472259
0
LWPOLYLINE
5
150
100
AcDbEntity
8
0
100
AcDbPolyline
90
4
70
1
43
0.0
10
25.829999549445201
20
-16.559999977472259
10
25.829999549445201
20
-17.35999997747226
10
25.029999549445201
20
-17.35999997747226
10
25.029999549445201
20
-16.559999977472259
0
LWPOLYLINE
5
151
100
AcDbEntity
8
0
100
AcDbPolyline
90
4
70
1
43
0.0
10
24.739999549445194
20
-16.559999977472259
10
24.739999549445194
20
-17.35999997747226
10
23.939999549445197
20
-17.35999997747226
10
23.939999549445197
20
-16.559999977472259
0
LWPOLYLINE
5
152
100
AcDbEntity
8
0
100
AcDbPolyline
90
4
70
1
43
0.0
10
26.919999549445198
20
-17.649999977472259
10
26.919999549445198
20
-18.44999997747226
10
26.119999549445204
20
-18.44999997747226
10
26.119999549445204
20
-17.649999977472259
0
LWPOLYLINE
5
153
100
AcDbEntity
8
0
100
AcDbPolyline
90
4
70
1
43
0.0
10
25.829999549445201
20
-17.649999977472259
10
25.829999549445201
20
-18.44999997747226
10
25.029999549445201
20
-18.44999997747226
10
25.029999549445201
20
-17.649999977472259
0
LWPOLYLINE
5
154
100
AcDbEntity
8
0
100
AcDbPolyline
90
4
70
1
43
0.0
10
24.739999549445194
20
-17.649999977472259
10
24.739999549445194
20
-18.44999997747226
10
23.939999549445197
20
-18.44999997747226
10
23.939999549445197
20
-17.649999977472259
0
LWPOLYLINE
5
155
100
AcDbEntity
8
0
100
AcDbPolyline
90
4
70
1
43
0.0
10
26.919999549445198
20
-18.739999977472259
10
26.919999549445198
20
-19.539999977472256
10
26.119999549445204
20
-19.539999977472256
10
26.119999549445204
20
-18.739999977472259
0
LWPOLYLINE
5
156
100
AcDbEntity
8
0
100
AcDbPolyline
90
4
70
1
43
0.0
10
25.829999549445201
20
-18.739999977472259
10
25.829999549445201
20
-19.539999977472256
10
25.029999549445201
20
-19.539999977472256
10
25.029999549445201
20
-18.739999977472259
0
LWPOLYLINE
5
157
100
AcDbEntity
8
0
100
AcDbPolyline
90
4
70
1
43
0.0
10
24.739999549445194
20
-18.739999977472259
10
24.739999549445194
20
-19.539999977472256
10
23.939999549445197
20
-19.539999977472256
10
23.939999549445197
20
-18.739999977472259
0
LWPOLYLINE
5
158
100
AcDbEntity
8
0
100
AcDbPolyline
90
4
70
1
43
0.0
10
26.919999549445198
20
-19.829999977472259
10
26.919999549445198
20
-20.629999977472259
10
26.119999549445204
20
-20.629999977472259
10
26.119999549445204
20
-19.829999977472259
0
LWPOLYLINE
5
159
100
AcDbEntity
8
0
100
AcDbPolyline
90
4
70
1
43
0.0
10
25.829999549445201
20
-19.829999977472259
10
25.829999549445201
20
-20.629999977472259
10
25.029999549445201
20
-20.629999977472259
10
25.029999549445201
20
-19.829999977472259
0
LWPOLYLINE
5
160
100
AcDbEntity
8
0
100
AcDbPolyline
90
4
70
1
43
0.0
10
24.739999549445194
20
-19.829999977472259
10
24.739999549445194
20
-20.629999977472259
10
23.939999549445197
20
-20.629999977472259
10
23.939999549445197
20
-19.829999977472259
0
ENDSEC
0
SECTION
2
OBJECTS
0
DICTIONARY
5
C
100
AcDbDictionary
3
ACAD_GROUP
350
D
3
ACAD_MLINESTYLE
350
17
0
DICTIONARY
5
D
100
AcDbDictionary
0
DICTIONARY
5
1A
330
C
100
AcDbDictionary
0
DICTIONARY
5
17
100
AcDbDictionary
0
ENDSEC
0
EOF
