0
SECTION
2
HEADER
9
$INSUNITS
70
1
9
$ACADVER
1
AC1014
9
$HANDSEED
5
FFFF
0
ENDSEC
0
SECTION
2
TABLES
0
TABLE
2
VPORT
5
8
100
AcDbSymbolTable
0
ENDTAB
0
TABLE
2
LTYPE
5
5
100
AcDbSymbolTable
0
LTYPE
5
14
100
AcDbSymbolTableRecord
100
AcDbLinetypeTableRecord
2
BYBLOCK
70
0
0
LTYPE
5
15
100
AcDbSymbolTableRecord
100
AcDbLinetypeTableRecord
2
BYLAYER
70
0
0
ENDTAB
0
TABLE
2
LAYER
5
2
100
AcDbSymbolTable
70
2
0
LAYER
5
50
100
AcDbSymbolTableRecord
100
AcDbLayerTableRecord
2
0
70
0
6
CONTINUOUS
0
ENDTAB
0
TABLE
2
STYLE
5
3
100
AcDbSymbolTable
70
1
0
STYLE
5
11
100
AcDbSymbolTableRecord
100
AcDbTextStyleTableRecord
2
STANDARD
70
0
0
ENDTAB
0
TABLE
2
VIEW
5
6
100
AcDbSymbolTable
70
0
0
ENDTAB
0
TABLE
2
UCS
5
7
100
AcDbSymbolTable
70
0
0
ENDTAB
0
TABLE
2
APPID
5
9
100
AcDbSymbolTable
70
2
0
APPID
5
12
100
AcDbSymbolTableRecord
100
AcDbRegAppTableRecord
2
ACAD
70
0
0
ENDTAB
0
TABLE
2
DIMSTYLE
5
A
100
AcDbSymbolTable
70
1
0
ENDTAB
0
TABLE
2
BLOCK_RECORD
5
1
100
AcDbSymbolTable
70
1
0
BLOCK_RECORD
5
1F
100
AcDbSymbolTableRecord
100
AcDbBlockTableRecord
2
*MODEL_SPACE
0
BLOCK_RECORD
5
1B
100
AcDbSymbolTableRecord
100
AcDbBlockTableRecord
2
*PAPER_SPACE
0
ENDTAB
0
ENDSEC
0
SECTION
2
BLOCKS
0
BLOCK
5
20
100
AcDbEntity
100
AcDbBlockBegin
2
*MODEL_SPACE
0
ENDBLK
5
21
100
AcDbEntity
100
AcDbBlockEnd
0
BLOCK
5
1C
100
AcDbEntity
100
AcDbBlockBegin
2
*PAPER_SPACE
0
ENDBLK
5
1D
100
AcDbEntity
100
AcDbBlockEnd
0
ENDSEC
0
SECTION
2
ENTITIES
0
LWPOLYLINE
5
100
100
AcDbEntity
8
0
100
AcDbPolyline
90
8
70
1
43
0.0
10
33.575000000000003
20
0
10
0.12499999999999997
20
0
42
0.41421356237309126
10
2.1854783949314103e-17
20
-0.1249999999999982
10
-2.1854783949314103e-16
20
-21.874999999999996
42
0.41421356237308904
10
0.1249999999999982
20
-22
10
33.57500000000001
20
-21.999999999999996
42
0.41421356237307538
10
33.700000000000003
20
-21.875
10
33.700000000000003
20
-0.12499999999999997
42
0.41421356237309548
0
LWPOLYLINE
5
101
100
AcDbEntity
8
0
100
AcDbPolyline
90
14
70
1
43
0.0
10
32.629999999999995
20
-20.539999999999999
10
32.629999999999995
20
-1.7150000000000025
42
0.41421356237309503
10
32.22999999999999
20
-1.3150000000000024
10
31.825000000000003
20
-1.3150000000000004
10
31.825000000000003
20
-1.0650000000000006
10
31.379999999999999
20
-1.0650000000000006
10
31.379999999999999
20
-1.2000000000000006
10
27.380000000000003
20
-1.2000000000000006
10
27.380000000000003
20
-1.0650000000000006
10
1.47
20
-1.0650000000000006
42
0.41421356237309503
10
1.0699999999999998
20
-1.4649999999999999
10
1.0699999999999998
20
-20.539999999999999
42
0.41421356237309503
10
1.4700000000000009
20
-20.940000000000001
10
32.22999999999999
20
-20.940000000000001
42
0.41421356237309503
0
LINE
5
102
100
AcDbEntity
8
0
100
AcDbLine
10
27.380000000000003
20
-1.3350000000000006
30
0
11
31.379999999999999
21
-1.3350000000000006
31
0
0
LINE
5
103
100
AcDbEntity
8
0
100
AcDbLine
10
31.379999999999999
20
-1.3350000000000006
30
0
11
31.379999999999999
21
-1.8350000000000004
31
0
0
LINE
5
104
100
AcDbEntity
8
0
100
AcDbLine
10
27.380000000000003
20
-1.8350000000000004
30
0
11
27.380000000000003
21
-1.3350000000000006
31
0
0
LINE
5
105
100
AcDbEntity
8
0
100
AcDbLine
10
30.079999999999998
20
-1.8350000000000004
30
0
11
30.079999999999998
21
-3.0701810644336236
31
0
0
LINE
5
106
100
AcDbEntity
8
0
100
AcDbLine
10
29.955000000000005
20
-3.1951810644336187
30
0
11
28.804999999999996
21
-3.1951810644336187
31
0
0
LINE
5
107
100
AcDbEntity
8
0
100
AcDbLine
10
28.679999999999996
20
-3.0701810644336205
30
0
11
28.680000000000003
21
-1.8350000000000004
31
0
0
ARC
5
108
100
AcDbEntity
8
0
100
AcDbCircle
10
29.955000000000005
20
-3.0701810644336236
30
0
40
0.12499999999999505
100
AcDbArc
50
-90
51
0
0
ARC
5
109
100
AcDbEntity
8
0
100
AcDbCircle
10
28.804999999999996
20
-3.0701810644336205
30
0
40
0.1249999999999982
100
AcDbArc
50
180
51
270
0
LINE
5
110
100
AcDbEntity
8
0
100
AcDbLine
10
30.88999999999999
20
-1.8350000000000004
30
0
11
30.88999999999999
21
-3.2704373064211114
31
0
0
LINE
5
111
100
AcDbEntity
8
0
100
AcDbLine
10
30.764999999999993
20
-3.3954373064211079
30
0
11
30.51499999999999
21
-3.3954373064211079
31
0
0
LINE
5
112
100
AcDbEntity
8
0
100
AcDbLine
10
30.389999999999993
20
-3.2704373064211101
30
0
11
30.389999999999993
21
-1.8350000000000004
31
0
0
LINE
5
113
100
AcDbEntity
8
0
100
AcDbLine
10
31.379999999999999
20
-1.8350000000000004
30
0
11
30.88999999999999
21
-1.8350000000000004
31
0
0
ARC
5
114
100
AcDbEntity
8
0
100
AcDbCircle
10
30.764999999999993
20
-3.2704373064211114
30
0
40
0.12499999999999679
100
AcDbArc
50
-90
51
0
0
ARC
5
115
100
AcDbEntity
8
0
100
AcDbCircle
10
30.51499999999999
20
-3.2704373064211101
30
0
40
0.1249999999999982
100
AcDbArc
50
180
51
270
0
LINE
5
116
100
AcDbEntity
8
0
100
AcDbLine
10
30.389999999999993
20
-1.8350000000000004
30
0
11
30.079999999999998
21
-1.8350000000000004
31
0
0
LINE
5
117
100
AcDbEntity
8
0
100
AcDbLine
10
28.680000000000003
20
-1.8350000000000004
30
0
11
27.380000000000003
21
-1.8350000000000004
31
0
0
LINE
5
118
100
AcDbEntity
8
0
100
AcDbLine
10
27.380000000000003
20
-1.8350000000000004
30
0
11
27.000003937007868
21
-1.8350000000000004
31
0
0
LINE
5
119
100
AcDbEntity
8
0
100
AcDbLine
10
27.000003937007868
20
-1.3350000000000006
30
0
11
27.380000000000003
21
-1.3350000000000006
31
0
0
LINE
5
120
100
AcDbEntity
8
0
100
AcDbLine
10
27.380000000000003
20
-1.3350000000000006
30
0
11
27.380000000000003
21
-1.8350000000000004
31
0
0
LINE
5
121
100
AcDbEntity
8
0
100
AcDbLine
10
28.680000000000003
20
-1.8350000000000004
30
0
11
30.079999999999998
21
-1.8350000000000004
31
0
0
LINE
5
122
100
AcDbEntity
8
0
100
AcDbLine
10
30.389999999999993
20
-1.8350000000000004
30
0
11
30.88999999999999
21
-1.8350000000000004
31
0
0
LINE
5
123
100
AcDbEntity
8
0
100
AcDbLine
10
27.380000000000003
20
-1.8350000000000004
30
0
11
27.879999999999999
21
-1.8350000000000004
31
0
0
LINE
5
124
100
AcDbEntity
8
0
100
AcDbLine
10
27.879999999999999
20
-1.8350000000000004
30
0
11
27.879999999999999
21
-2.8350000000000004
31
0
0
LINE
5
125
100
AcDbEntity
8
0
100
AcDbLine
10
27.879999999999999
20
-2.8350000000000004
30
0
11
27.380000000000003
21
-2.8350000000000004
31
0
0
LINE
5
126
100
AcDbEntity
8
0
100
AcDbLine
10
27.380000000000003
20
-2.8350000000000004
30
0
11
27.380000000000003
21
-1.8350000000000004
31
0
0
CIRCLE
5
127
100
AcDbEntity
8
0
100
AcDbCircle
10
31.452800000000014
20
-2.3560650486363213
30
0
40
0.24999999999999997
0
LINE
5
128
100
AcDbEntity
8
0
100
AcDbLine
10
27.380000000000003
20
-1.8350000000000004
30
0
11
26.379999968085702
21
-1.8350000000000004
31
0
0
LINE
5
129
100
AcDbEntity
8
0
100
AcDbLine
10
26.379999968085702
20
-1.8350000000000004
30
0
11
26.379999968085702
21
-1.3350000000000006
31
0
0
LINE
5
130
100
AcDbEntity
8
0
100
AcDbLine
10
26.379999968085702
20
-1.3350000000000006
30
0
11
27.380000000000003
21
-1.3350000000000006
31
0
0
LINE
5
131
100
AcDbEntity
8
0
100
AcDbLine
10
27.380000000000003
20
-1.3350000000000006
30
0
11
27.380000000000003
21
-1.8350000000000004
31
0
0
LINE
5
132
100
AcDbEntity
8
0
100
AcDbLine
10
22.629999999999995
20
-1.0650000000000006
30
0
11
22.629999999999995
21
-1.3150000000000004
31
0
0
LINE
5
133
100
AcDbEntity
8
0
100
AcDbLine
10
22.629999999999995
20
-1.3150000000000004
30
0
11
21.504999999999992
21
-1.3150000000000004
31
0
0
LINE
5
134
100
AcDbEntity
8
0
100
AcDbLine
10
21.504999999999992
20
-1.3150000000000004
30
0
11
21.504999999999992
21
-1.0650000000000006
31
0
0
CIRCLE
5
135
100
AcDbEntity
8
0
100
AcDbCircle
10
31.452800000000014
20
-3.1560650486363215
30
0
40
0.24999999999999997
0
ENDSEC
0
SECTION
2
OBJECTS
0
DICTIONARY
5
C
100
AcDbDictionary
3
ACAD_GROUP
350
D
3
ACAD_MLINESTYLE
350
17
0
DICTIONARY
5
D
100
AcDbDictionary
0
DICTIONARY
5
1A
330
C
100
AcDbDictionary
0
DICTIONARY
5
17
100
AcDbDictionary
0
ENDSEC
0
EOF
