0
SECTION
2
HEADER
9
$INSUNITS
70
1
9
$ACADVER
1
AC1014
9
$HANDSEED
5
FFFF
0
ENDSEC
0
SECTION
2
TABLES
0
TABLE
2
VPORT
5
8
100
AcDbSymbolTable
0
ENDTAB
0
TABLE
2
LTYPE
5
5
100
AcDbSymbolTable
0
LTYPE
5
14
100
AcDbSymbolTableRecord
100
AcDbLinetypeTableRecord
2
BYBLOCK
70
0
0
LTYPE
5
15
100
AcDbSymbolTableRecord
100
AcDbLinetypeTableRecord
2
BYLAYER
70
0
0
ENDTAB
0
TABLE
2
LAYER
5
2
100
AcDbSymbolTable
70
2
0
LAYER
5
50
100
AcDbSymbolTableRecord
100
AcDbLayerTableRecord
2
0
70
0
6
CONTINUOUS
0
ENDTAB
0
TABLE
2
STYLE
5
3
100
AcDbSymbolTable
70
1
0
STYLE
5
11
100
AcDbSymbolTableRecord
100
AcDbTextStyleTableRecord
2
STANDARD
70
0
0
ENDTAB
0
TABLE
2
VIEW
5
6
100
AcDbSymbolTable
70
0
0
ENDTAB
0
TABLE
2
UCS
5
7
100
AcDbSymbolTable
70
0
0
ENDTAB
0
TABLE
2
APPID
5
9
100
AcDbSymbolTable
70
2
0
APPID
5
12
100
AcDbSymbolTableRecord
100
AcDbRegAppTableRecord
2
ACAD
70
0
0
ENDTAB
0
TABLE
2
DIMSTYLE
5
A
100
AcDbSymbolTable
70
1
0
ENDTAB
0
TABLE
2
BLOCK_RECORD
5
1
100
AcDbSymbolTable
70
1
0
BLOCK_RECORD
5
1F
100
AcDbSymbolTableRecord
100
AcDbBlockTableRecord
2
*MODEL_SPACE
0
BLOCK_RECORD
5
1B
100
AcDbSymbolTableRecord
100
AcDbBlockTableRecord
2
*PAPER_SPACE
0
ENDTAB
0
ENDSEC
0
SECTION
2
BLOCKS
0
BLOCK
5
20
100
AcDbEntity
100
AcDbBlockBegin
2
*MODEL_SPACE
0
ENDBLK
5
21
100
AcDbEntity
100
AcDbBlockEnd
0
BLOCK
5
1C
100
AcDbEntity
100
AcDbBlockBegin
2
*PAPER_SPACE
0
ENDBLK
5
1D
100
AcDbEntity
100
AcDbBlockEnd
0
ENDSEC
0
SECTION
2
ENTITIES
0
LINE
5
100
100
AcDbEntity
8
0
100
AcDbLine
10
29.955000000000005
20
5.195181034396632
30
0
11
28.804999999999996
21
5.195181034396632
31
0
0
LINE
5
101
100
AcDbEntity
8
0
100
AcDbLine
10
30.079999999999998
20
3.8349999699630142
30
0
11
30.079999999999998
21
5.0701810343966374
31
0
0
LINE
5
102
100
AcDbEntity
8
0
100
AcDbLine
10
28.679999999999996
20
5.0701810343966338
30
0
11
28.680000000000003
21
3.8349999699630142
31
0
0
LINE
5
103
100
AcDbEntity
8
0
100
AcDbLine
10
30.764999999999993
20
5.3954372763841212
30
0
11
30.514999999999986
21
5.3954372763841212
31
0
0
LWPOLYLINE
5
104
100
AcDbEntity
8
0
100
AcDbPolyline
90
8
70
1
43
0.0
10
33.57500000000001
20
23.999999969963014
42
-0.41421356237303603
10
33.700000000000003
20
23.87499996996301
10
33.700000000000003
20
2.1249999699630133
42
-0.41421356237308771
10
33.574999999999996
20
1.9999999699630129
10
0.12499999999999994
20
1.9999999699630131
42
-0.41421356237309198
10
2.1854783949314103e-17
20
2.1249999699630115
10
6.5564351847942307e-16
20
23.87499996996301
42
-0.41421356237310003
10
0.1249999999999982
20
23.999999969963014
0
LWPOLYLINE
5
105
100
AcDbEntity
8
0
100
AcDbPolyline
90
14
70
1
43
0.0
10
32.629999999999995
20
3.7149999699630154
10
32.629999999999995
20
22.539999969963009
42
0.41421356237309709
10
32.229999999999983
20
22.939999969963011
10
1.4700000000000009
20
22.939999969963011
42
0.41421356237309737
10
1.0699999999999998
20
22.539999969963009
10
1.0699999999999998
20
3.4649999699630132
42
0.41421356237309609
10
1.4700000000000009
20
3.0649999699630142
10
27.380000000000006
20
3.0649999699630142
10
27.380000000000006
20
3.1999999699630139
10
31.379999999999999
20
3.1999999699630139
10
31.379999999999999
20
3.0649999699630142
10
31.825000000000003
20
3.0649999699630142
10
31.825000000000003
20
3.3149999699630137
10
32.229999999999983
20
3.3149999699630159
42
0.41421356237309503
0
LINE
5
106
100
AcDbEntity
8
0
100
AcDbLine
10
22.629999999999995
20
3.3149999699630137
30
0
11
21.504999999999992
21
3.3149999699630137
31
0
0
LINE
5
107
100
AcDbEntity
8
0
100
AcDbLine
10
21.504999999999992
20
3.3149999699630137
30
0
11
21.504999999999992
21
3.0649999699630142
31
0
0
LINE
5
108
100
AcDbEntity
8
0
100
AcDbLine
10
22.629999999999995
20
3.0649999699630142
30
0
11
22.629999999999995
21
3.3149999699630137
31
0
0
ARC
5
109
100
AcDbEntity
8
0
100
AcDbCircle
10
28.804999999999996
20
5.0701810343966338
30
0
40
0.1249999999999982
100
AcDbArc
50
90
51
180
0
LINE
5
110
100
AcDbEntity
8
0
100
AcDbLine
10
27.380000000000006
20
3.8349999699630142
30
0
11
26.379999968085702
21
3.8349999699630142
31
0
0
LINE
5
111
100
AcDbEntity
8
0
100
AcDbLine
10
27.380000000000006
20
3.3349999699630142
30
0
11
27.380000000000006
21
3.8349999699630142
31
0
0
ARC
5
112
100
AcDbEntity
8
0
100
AcDbCircle
10
30.514999999999986
20
5.270437276384123
30
0
40
0.1249999999999975
100
AcDbArc
50
90
51
180
0
LINE
5
113
100
AcDbEntity
8
0
100
AcDbLine
10
31.379999999999999
20
3.3349999699630142
30
0
11
31.379999999999999
21
3.8349999699630142
31
0
0
LINE
5
114
100
AcDbEntity
8
0
100
AcDbLine
10
30.389999999999993
20
3.8349999699630142
30
0
11
30.889999999999986
21
3.8349999699630142
31
0
0
LINE
5
115
100
AcDbEntity
8
0
100
AcDbLine
10
27.380000000000006
20
3.8349999699630142
30
0
11
27.879999999999999
21
3.8349999699630142
31
0
0
CIRCLE
5
116
100
AcDbEntity
8
0
100
AcDbCircle
10
31.452800000000011
20
4.3560650185993346
30
0
40
0.24999999999999997
0
LINE
5
117
100
AcDbEntity
8
0
100
AcDbLine
10
31.379999999999999
20
3.8349999699630142
30
0
11
30.889999999999986
21
3.8349999699630142
31
0
0
LINE
5
118
100
AcDbEntity
8
0
100
AcDbLine
10
30.389999999999993
20
3.8349999699630142
30
0
11
30.079999999999998
21
3.8349999699630142
31
0
0
LINE
5
119
100
AcDbEntity
8
0
100
AcDbLine
10
28.680000000000003
20
3.8349999699630142
30
0
11
27.380000000000006
21
3.8349999699630142
31
0
0
ARC
5
120
100
AcDbEntity
8
0
100
AcDbCircle
10
29.955000000000005
20
5.0701810343966374
30
0
40
0.1249999999999926
100
AcDbArc
50
0
51
90
0
LINE
5
121
100
AcDbEntity
8
0
100
AcDbLine
10
27.380000000000006
20
3.3349999699630142
30
0
11
27.380000000000006
21
3.8349999699630142
31
0
0
ARC
5
122
100
AcDbEntity
8
0
100
AcDbCircle
10
30.764999999999993
20
5.2704372763841247
30
0
40
0.1249999999999926
100
AcDbArc
50
0
51
90
0
LINE
5
123
100
AcDbEntity
8
0
100
AcDbLine
10
27.380000000000006
20
3.3349999699630142
30
0
11
31.379999999999999
21
3.3349999699630142
31
0
0
LINE
5
124
100
AcDbEntity
8
0
100
AcDbLine
10
27.000003937007872
20
3.3349999699630142
30
0
11
27.380000000000006
21
3.3349999699630142
31
0
0
LINE
5
125
100
AcDbEntity
8
0
100
AcDbLine
10
27.380000000000006
20
3.8349999699630142
30
0
11
27.380000000000006
21
3.3349999699630142
31
0
0
LINE
5
126
100
AcDbEntity
8
0
100
AcDbLine
10
27.879999999999999
20
3.8349999699630142
30
0
11
27.879999999999999
21
4.8349999699630137
31
0
0
LINE
5
127
100
AcDbEntity
8
0
100
AcDbLine
10
30.389999999999993
20
5.270437276384123
30
0
11
30.389999999999993
21
3.8349999699630142
31
0
0
LINE
5
128
100
AcDbEntity
8
0
100
AcDbLine
10
27.380000000000006
20
3.8349999699630142
30
0
11
27.000003937007872
21
3.8349999699630142
31
0
0
LINE
5
129
100
AcDbEntity
8
0
100
AcDbLine
10
27.879999999999999
20
4.8349999699630137
30
0
11
27.380000000000006
21
4.8349999699630137
31
0
0
CIRCLE
5
130
100
AcDbEntity
8
0
100
AcDbCircle
10
31.452800000000011
20
5.1560650185993344
30
0
40
0.24999999999999997
0
LINE
5
131
100
AcDbEntity
8
0
100
AcDbLine
10
26.379999968085702
20
3.3349999699630142
30
0
11
27.380000000000006
21
3.3349999699630142
31
0
0
LINE
5
132
100
AcDbEntity
8
0
100
AcDbLine
10
26.379999968085702
20
3.8349999699630142
30
0
11
26.379999968085702
21
3.3349999699630142
31
0
0
LINE
5
133
100
AcDbEntity
8
0
100
AcDbLine
10
28.680000000000003
20
3.8349999699630142
30
0
11
30.079999999999998
21
3.8349999699630142
31
0
0
LINE
5
134
100
AcDbEntity
8
0
100
AcDbLine
10
27.380000000000006
20
4.8349999699630137
30
0
11
27.380000000000006
21
3.8349999699630142
31
0
0
LINE
5
135
100
AcDbEntity
8
0
100
AcDbLine
10
30.889999999999986
20
3.8349999699630142
30
0
11
30.889999999999986
21
5.2704372763841247
31
0
0
ENDSEC
0
SECTION
2
OBJECTS
0
DICTIONARY
5
C
100
AcDbDictionary
3
ACAD_GROUP
350
D
3
ACAD_MLINESTYLE
350
17
0
DICTIONARY
5
D
100
AcDbDictionary
0
DICTIONARY
5
1A
330
C
100
AcDbDictionary
0
DICTIONARY
5
17
100
AcDbDictionary
0
ENDSEC
0
EOF
