<?xml version="1.0" encoding="utf-8"?>
<!-- Generator: Adobe Illustrator 21.1.0, SVG Export Plug-In . SVG Version: 6.00 Build 0)  -->
<svg version="1.2" baseProfile="tiny" id="Layer_1" xmlns="http://www.w3.org/2000/svg" xmlns:xlink="http://www.w3.org/1999/xlink"
	 x="0px" y="0px" viewBox="0 0 602 239" overflow="scroll" xml:space="preserve">
<g id="board">
	<path fill="#009245" d="M1,52c0,0,0-13,12-13c5.6,0,128.6,0,262,0c6,0,6-7,6-7V20c0,0,0-19,20-19s20,19,20,19v12.2c0,0,0,6.8,6,6.8
		c134.6,0,263,0,263,0s12,0,12,13s0,106,0,106v16.7c0,0,0.3,23.3-20.4,23.3S561,174.7,561,174.7s0-4.7-4-4.7s-106,0-106,0v57
		c0,0,1,12-11,12s-277,0-277,0s-12,0-12-12s0-57,0-57s-101.3-0.2-105.7,0c-4.3,0.2-4.4,4.7-4.4,4.7S41,198,21,198S1,174.7,1,174.7
		L1,158V52z"/>
</g>
<g id="silkscreen">
	<path fill="none" stroke="#FFFFFF" stroke-miterlimit="10" d="M1,52c0,0,0-13,12-13c5.6,0,128.6,0,262,0c6,0,6-7,6-7V20
		c0,0,0-19,20-19s20,19,20,19v12.2c0,0,0,6.8,6,6.8c134.6,0,263,0,263,0s12,0,12,13s0,106,0,106v16.7c0,0,0.3,23.3-20.4,23.3
		S561,174.7,561,174.7s0-4.7-4-4.7s-106,0-106,0v57c0,0,1,12-11,12s-277,0-277,0s-12,0-12-12s0-57,0-57s-101.3-0.2-105.7,0
		c-4.3,0.2-4.4,4.7-4.4,4.7s0,23.3-20,23.3S1,174.7,1,174.7L1,158V52z"/>
</g>
</svg>
