<svg xmlns="http://www.w3.org/2000/svg" xmlns:xlink="http://www.w3.org/1999/xlink" viewBox="0 0 321.6 321.6"><defs><style>.cls-1,.cls-3,.cls-4,.cls-5,.cls-6{fill:none;}.cls-2{clip-path:url(#clip-path);}.cls-3{stroke:#fff;stroke-miterlimit:10;}.cls-4,.cls-5,.cls-6{stroke:#231f20;}.cls-4,.cls-5{stroke-linecap:round;stroke-linejoin:round;}.cls-4{stroke-dasharray:0 1.98;}.cls-7{clip-path:url(#clip-path-34);}</style><clipPath id="clip-path"><rect class="cls-1" width="321.6" height="321.6"/></clipPath><clipPath id="clip-path-34"><rect class="cls-1" x="119.58" y="174.03" width="30" height="25.98"/></clipPath></defs><title>Asset 1</title><g id="Layer_2" data-name="Layer 2"><g id="Layer_1-2" data-name="Layer 1"><g class="cls-2"><line class="cls-3" x1="0.5" y1="0.5" x2="53.93" y2="0.5"/><line class="cls-3" x1="0.5" y1="53.93" x2="0.5" y2="0.5"/><line class="cls-3" x1="53.93" y1="0.5" x2="107.37" y2="0.5"/><line class="cls-3" x1="53.93" y1="53.93" x2="53.93" y2="0.5"/><line class="cls-3" x1="107.37" y1="0.5" x2="160.8" y2="0.5"/><line class="cls-3" x1="107.37" y1="53.93" x2="107.37" y2="0.5"/><line class="cls-3" x1="160.8" y1="0.5" x2="214.23" y2="0.5"/><line class="cls-3" x1="160.8" y1="53.93" x2="160.8" y2="0.5"/><line class="cls-3" x1="214.23" y1="0.5" x2="267.67" y2="0.5"/><line class="cls-3" x1="214.23" y1="53.93" x2="214.23" y2="0.5"/><line class="cls-3" x1="267.67" y1="0.5" x2="321.1" y2="0.5"/><line class="cls-3" x1="267.67" y1="53.93" x2="267.67" y2="0.5"/><line class="cls-3" x1="321.1" y1="53.93" x2="321.1" y2="0.5"/><line class="cls-3" x1="0.5" y1="53.93" x2="53.93" y2="53.93"/><line class="cls-3" x1="0.5" y1="107.37" x2="0.5" y2="53.93"/></g><line class="cls-3" x1="53.93" y1="53.93" x2="107.37" y2="53.93"/><line class="cls-3" x1="53.93" y1="107.37" x2="53.93" y2="53.93"/><line class="cls-3" x1="107.37" y1="53.93" x2="160.8" y2="53.93"/><line class="cls-3" x1="107.37" y1="107.37" x2="107.37" y2="53.93"/><line class="cls-3" x1="160.8" y1="53.93" x2="214.23" y2="53.93"/><line class="cls-3" x1="160.8" y1="107.37" x2="160.8" y2="53.93"/><line class="cls-3" x1="214.23" y1="53.93" x2="267.67" y2="53.93"/><line class="cls-3" x1="214.23" y1="107.37" x2="214.23" y2="53.93"/><g class="cls-2"><line class="cls-3" x1="267.67" y1="53.93" x2="321.1" y2="53.93"/></g><line class="cls-3" x1="267.67" y1="107.37" x2="267.67" y2="53.93"/><g class="cls-2"><line class="cls-3" x1="321.1" y1="107.37" x2="321.1" y2="53.93"/><line class="cls-3" x1="0.5" y1="107.37" x2="53.93" y2="107.37"/><line class="cls-3" x1="0.5" y1="160.8" x2="0.5" y2="107.37"/></g><line class="cls-3" x1="53.93" y1="107.37" x2="107.37" y2="107.37"/><line class="cls-3" x1="53.93" y1="160.8" x2="53.93" y2="107.37"/><line class="cls-3" x1="107.37" y1="107.37" x2="160.8" y2="107.37"/><line class="cls-3" x1="107.37" y1="160.8" x2="107.37" y2="107.37"/><line class="cls-3" x1="160.8" y1="107.37" x2="214.23" y2="107.37"/><line class="cls-3" x1="160.8" y1="160.8" x2="160.8" y2="107.37"/><line class="cls-3" x1="214.23" y1="107.37" x2="267.67" y2="107.37"/><line class="cls-3" x1="214.23" y1="160.8" x2="214.23" y2="107.37"/><g class="cls-2"><line class="cls-3" x1="267.67" y1="107.37" x2="321.1" y2="107.37"/></g><line class="cls-3" x1="267.67" y1="160.8" x2="267.67" y2="107.37"/><g class="cls-2"><line class="cls-3" x1="321.1" y1="160.8" x2="321.1" y2="107.37"/><line class="cls-3" x1="0.5" y1="160.8" x2="53.93" y2="160.8"/><line class="cls-3" x1="0.5" y1="214.23" x2="0.5" y2="160.8"/></g><line class="cls-3" x1="53.93" y1="160.8" x2="107.37" y2="160.8"/><line class="cls-3" x1="53.93" y1="214.23" x2="53.93" y2="160.8"/><line class="cls-3" x1="107.37" y1="160.8" x2="160.8" y2="160.8"/><line class="cls-3" x1="107.37" y1="214.23" x2="107.37" y2="160.8"/><line class="cls-3" x1="160.8" y1="160.8" x2="214.23" y2="160.8"/><line class="cls-3" x1="160.8" y1="214.23" x2="160.8" y2="160.8"/><line class="cls-3" x1="214.23" y1="160.8" x2="267.67" y2="160.8"/><line class="cls-3" x1="214.23" y1="214.23" x2="214.23" y2="160.8"/><g class="cls-2"><line class="cls-3" x1="267.67" y1="160.8" x2="321.1" y2="160.8"/></g><line class="cls-3" x1="267.67" y1="214.23" x2="267.67" y2="160.8"/><g class="cls-2"><line class="cls-3" x1="321.1" y1="214.23" x2="321.1" y2="160.8"/><line class="cls-3" x1="0.5" y1="214.23" x2="53.93" y2="214.23"/><line class="cls-3" x1="0.5" y1="267.67" x2="0.5" y2="214.23"/></g><line class="cls-3" x1="53.93" y1="214.23" x2="107.37" y2="214.23"/><line class="cls-3" x1="53.93" y1="267.67" x2="53.93" y2="214.23"/><line class="cls-3" x1="107.37" y1="214.23" x2="160.8" y2="214.23"/><line class="cls-3" x1="107.37" y1="267.67" x2="107.37" y2="214.23"/><line class="cls-3" x1="160.8" y1="214.23" x2="214.23" y2="214.23"/><line class="cls-3" x1="160.8" y1="267.67" x2="160.8" y2="214.23"/><line class="cls-3" x1="214.23" y1="214.23" x2="267.67" y2="214.23"/><line class="cls-3" x1="214.23" y1="267.67" x2="214.23" y2="214.23"/><g class="cls-2"><line class="cls-3" x1="267.67" y1="214.23" x2="321.1" y2="214.23"/></g><line class="cls-3" x1="267.67" y1="267.67" x2="267.67" y2="214.23"/><g class="cls-2"><line class="cls-3" x1="321.1" y1="267.67" x2="321.1" y2="214.23"/><line class="cls-3" x1="0.5" y1="267.67" x2="53.93" y2="267.67"/><line class="cls-3" x1="0.5" y1="321.1" x2="0.5" y2="267.67"/></g><line class="cls-3" x1="53.93" y1="267.67" x2="107.37" y2="267.67"/><g class="cls-2"><line class="cls-3" x1="53.93" y1="321.1" x2="53.93" y2="267.67"/></g><line class="cls-3" x1="107.37" y1="267.67" x2="160.8" y2="267.67"/><g class="cls-2"><line class="cls-3" x1="107.37" y1="321.1" x2="107.37" y2="267.67"/></g><line class="cls-3" x1="160.8" y1="267.67" x2="214.23" y2="267.67"/><g class="cls-2"><line class="cls-3" x1="160.8" y1="321.1" x2="160.8" y2="267.67"/></g><line class="cls-3" x1="214.23" y1="267.67" x2="267.67" y2="267.67"/><g class="cls-2"><line class="cls-3" x1="214.23" y1="321.1" x2="214.23" y2="267.67"/><line class="cls-3" x1="267.67" y1="267.67" x2="321.1" y2="267.67"/><line class="cls-3" x1="267.67" y1="321.1" x2="267.67" y2="267.67"/><line class="cls-3" x1="321.1" y1="321.1" x2="321.1" y2="267.67"/><line class="cls-3" x1="0.5" y1="321.1" x2="53.93" y2="321.1"/><line class="cls-3" x1="53.93" y1="321.1" x2="107.37" y2="321.1"/><line class="cls-3" x1="107.37" y1="321.1" x2="160.8" y2="321.1"/><line class="cls-3" x1="160.8" y1="321.1" x2="214.23" y2="321.1"/><line class="cls-3" x1="214.23" y1="321.1" x2="267.67" y2="321.1"/><line class="cls-3" x1="267.67" y1="321.1" x2="321.1" y2="321.1"/><line class="cls-4" x1="2.48" y1="0.5" x2="52.94" y2="0.5"/><path class="cls-5" d="M53.93.5h0M.5.5h0"/><line class="cls-4" x1="0.5" y1="51.95" x2="0.5" y2="1.49"/><path class="cls-5" d="M.5.5h0m0,53.43h0"/><line class="cls-4" x1="55.91" y1="0.5" x2="106.38" y2="0.5"/><path class="cls-5" d="M107.37.5h0M53.93.5h0"/><line class="cls-4" x1="53.93" y1="51.95" x2="53.93" y2="1.49"/><path class="cls-5" d="M53.93.5h0m0,53.43h0"/><line class="cls-4" x1="109.35" y1="0.5" x2="159.81" y2="0.5"/><path class="cls-5" d="M160.8.5h0M107.37.5h0"/><line class="cls-4" x1="107.37" y1="51.95" x2="107.37" y2="1.49"/><path class="cls-5" d="M107.37.5h0m0,53.43h0"/><line class="cls-4" x1="162.78" y1="0.5" x2="213.24" y2="0.5"/><path class="cls-5" d="M214.23.5h0M160.8.5h0"/><line class="cls-4" x1="160.8" y1="51.95" x2="160.8" y2="1.49"/><path class="cls-5" d="M160.8.5h0m0,53.43h0"/><line class="cls-4" x1="216.21" y1="0.5" x2="266.68" y2="0.5"/><path class="cls-5" d="M267.67.5h0M214.23.5h0"/><line class="cls-4" x1="214.23" y1="51.95" x2="214.23" y2="1.49"/><path class="cls-5" d="M214.23.5h0m0,53.43h0"/><line class="cls-4" x1="269.65" y1="0.5" x2="320.11" y2="0.5"/><path class="cls-5" d="M321.1.5h0M267.67.5h0"/><line class="cls-4" x1="267.67" y1="51.95" x2="267.67" y2="1.49"/><path class="cls-5" d="M267.67.5h0m0,53.43h0"/><line class="cls-4" x1="321.1" y1="51.95" x2="321.1" y2="1.49"/><path class="cls-5" d="M321.1.5h0m0,53.43h0"/></g><line class="cls-4" x1="2.48" y1="53.93" x2="52.94" y2="53.93"/><g class="cls-2"><path class="cls-5" d="M53.93,53.93h0M.5,53.93h0"/><line class="cls-4" x1="0.5" y1="105.39" x2="0.5" y2="54.92"/><path class="cls-5" d="M.5,53.93h0m0,53.43h0"/></g><line class="cls-4" x1="55.91" y1="53.93" x2="106.38" y2="53.93"/><path class="cls-5" d="M107.37,53.93h0m-53.43,0h0"/><line class="cls-4" x1="53.93" y1="105.39" x2="53.93" y2="54.92"/><path class="cls-5" d="M53.93,53.93h0m0,53.43h0"/><line class="cls-4" x1="109.35" y1="53.93" x2="159.81" y2="53.93"/><path class="cls-5" d="M160.8,53.93h0m-53.43,0h0"/><line class="cls-4" x1="107.37" y1="105.39" x2="107.37" y2="54.92"/><path class="cls-5" d="M107.37,53.93h0m0,53.43h0"/><line class="cls-4" x1="162.78" y1="53.93" x2="213.24" y2="53.93"/><path class="cls-5" d="M214.23,53.93h0m-53.43,0h0"/><line class="cls-4" x1="160.8" y1="105.39" x2="160.8" y2="54.92"/><path class="cls-5" d="M160.8,53.93h0m0,53.43h0"/><line class="cls-4" x1="216.21" y1="53.93" x2="266.68" y2="53.93"/><path class="cls-5" d="M267.67,53.93h0m-53.43,0h0"/><line class="cls-4" x1="214.23" y1="105.39" x2="214.23" y2="54.92"/><path class="cls-5" d="M214.23,53.93h0m0,53.43h0"/><g class="cls-2"><line class="cls-4" x1="269.65" y1="53.93" x2="320.11" y2="53.93"/><path class="cls-5" d="M321.1,53.93h0m-53.43,0h0"/></g><line class="cls-4" x1="267.67" y1="105.39" x2="267.67" y2="54.92"/><path class="cls-5" d="M267.67,53.93h0m0,53.43h0"/><g class="cls-2"><line class="cls-4" x1="321.1" y1="105.39" x2="321.1" y2="54.92"/><path class="cls-5" d="M321.1,53.93h0m0,53.43h0"/></g><line class="cls-4" x1="2.48" y1="107.37" x2="52.94" y2="107.37"/><g class="cls-2"><path class="cls-5" d="M53.93,107.37h0m-53.43,0h0"/><line class="cls-4" x1="0.5" y1="158.82" x2="0.5" y2="108.36"/><path class="cls-5" d="M.5,107.37h0m0,53.43h0"/></g><line class="cls-4" x1="55.91" y1="107.37" x2="106.38" y2="107.37"/><path class="cls-5" d="M107.37,107.37h0m-53.43,0h0"/><line class="cls-4" x1="53.93" y1="158.82" x2="53.93" y2="108.36"/><path class="cls-5" d="M53.93,107.37h0m0,53.43h0"/><line class="cls-4" x1="109.35" y1="107.37" x2="159.81" y2="107.37"/><path class="cls-5" d="M160.8,107.37h0m-53.43,0h0"/><line class="cls-4" x1="107.37" y1="158.82" x2="107.37" y2="108.36"/><path class="cls-5" d="M107.37,107.37h0m0,53.43h0"/><line class="cls-4" x1="162.78" y1="107.37" x2="213.24" y2="107.37"/><path class="cls-5" d="M214.23,107.37h0m-53.43,0h0"/><line class="cls-4" x1="160.8" y1="158.82" x2="160.8" y2="108.36"/><path class="cls-5" d="M160.8,107.37h0m0,53.43h0"/><line class="cls-4" x1="216.21" y1="107.37" x2="266.68" y2="107.37"/><path class="cls-5" d="M267.67,107.37h0m-53.43,0h0"/><line class="cls-4" x1="214.23" y1="158.82" x2="214.23" y2="108.36"/><path class="cls-5" d="M214.23,107.37h0m0,53.43h0"/><g class="cls-2"><line class="cls-4" x1="269.65" y1="107.37" x2="320.11" y2="107.37"/><path class="cls-5" d="M321.1,107.37h0m-53.43,0h0"/></g><line class="cls-4" x1="267.67" y1="158.82" x2="267.67" y2="108.36"/><path class="cls-5" d="M267.67,107.37h0m0,53.43h0"/><g class="cls-2"><line class="cls-4" x1="321.1" y1="158.82" x2="321.1" y2="108.36"/><path class="cls-5" d="M321.1,107.37h0m0,53.43h0"/></g><line class="cls-4" x1="2.48" y1="160.8" x2="52.94" y2="160.8"/><g class="cls-2"><path class="cls-5" d="M53.93,160.8h0M.5,160.8h0"/><line class="cls-4" x1="0.5" y1="212.25" x2="0.5" y2="161.79"/><path class="cls-5" d="M.5,160.8h0m0,53.43h0"/></g><line class="cls-4" x1="55.91" y1="160.8" x2="106.38" y2="160.8"/><path class="cls-5" d="M107.37,160.8h0m-53.43,0h0"/><line class="cls-4" x1="53.93" y1="212.25" x2="53.93" y2="161.79"/><path class="cls-5" d="M53.93,160.8h0m0,53.43h0"/><line class="cls-4" x1="109.35" y1="160.8" x2="159.81" y2="160.8"/><path class="cls-5" d="M160.8,160.8h0m-53.43,0h0"/><line class="cls-4" x1="107.37" y1="212.25" x2="107.37" y2="161.79"/><path class="cls-5" d="M107.37,160.8h0m0,53.43h0"/><line class="cls-4" x1="162.78" y1="160.8" x2="213.24" y2="160.8"/><path class="cls-5" d="M214.23,160.8h0m-53.43,0h0"/><line class="cls-4" x1="160.8" y1="212.25" x2="160.8" y2="161.79"/><path class="cls-5" d="M160.8,160.8h0m0,53.43h0"/><line class="cls-4" x1="216.21" y1="160.8" x2="266.68" y2="160.8"/><path class="cls-5" d="M267.67,160.8h0m-53.43,0h0"/><line class="cls-4" x1="214.23" y1="212.25" x2="214.23" y2="161.79"/><path class="cls-5" d="M214.23,160.8h0m0,53.43h0"/><g class="cls-2"><line class="cls-4" x1="269.65" y1="160.8" x2="320.11" y2="160.8"/><path class="cls-5" d="M321.1,160.8h0m-53.43,0h0"/></g><line class="cls-4" x1="267.67" y1="212.25" x2="267.67" y2="161.79"/><path class="cls-5" d="M267.67,160.8h0m0,53.43h0"/><g class="cls-2"><line class="cls-4" x1="321.1" y1="212.25" x2="321.1" y2="161.79"/><path class="cls-5" d="M321.1,160.8h0m0,53.43h0"/></g><line class="cls-4" x1="2.48" y1="214.23" x2="52.94" y2="214.23"/><g class="cls-2"><path class="cls-5" d="M53.93,214.23h0m-53.43,0h0"/><line class="cls-4" x1="0.5" y1="265.69" x2="0.5" y2="215.22"/><path class="cls-5" d="M.5,214.23h0m0,53.43h0"/></g><line class="cls-4" x1="55.91" y1="214.23" x2="106.38" y2="214.23"/><path class="cls-5" d="M107.37,214.23h0m-53.43,0h0"/><line class="cls-4" x1="53.93" y1="265.69" x2="53.93" y2="215.22"/><path class="cls-5" d="M53.93,214.23h0m0,53.43h0"/><line class="cls-4" x1="109.35" y1="214.23" x2="159.81" y2="214.23"/><path class="cls-5" d="M160.8,214.23h0m-53.43,0h0"/><line class="cls-4" x1="107.37" y1="265.69" x2="107.37" y2="215.22"/><path class="cls-5" d="M107.37,214.23h0m0,53.43h0"/><line class="cls-4" x1="162.78" y1="214.23" x2="213.24" y2="214.23"/><path class="cls-5" d="M214.23,214.23h0m-53.43,0h0"/><line class="cls-4" x1="160.8" y1="265.69" x2="160.8" y2="215.22"/><path class="cls-5" d="M160.8,214.23h0m0,53.43h0"/><line class="cls-4" x1="216.21" y1="214.23" x2="266.68" y2="214.23"/><path class="cls-5" d="M267.67,214.23h0m-53.43,0h0"/><line class="cls-4" x1="214.23" y1="265.69" x2="214.23" y2="215.22"/><path class="cls-5" d="M214.23,214.23h0m0,53.43h0"/><g class="cls-2"><line class="cls-4" x1="269.65" y1="214.23" x2="320.11" y2="214.23"/><path class="cls-5" d="M321.1,214.23h0m-53.43,0h0"/></g><line class="cls-4" x1="267.67" y1="265.69" x2="267.67" y2="215.22"/><path class="cls-5" d="M267.67,214.23h0m0,53.43h0"/><g class="cls-2"><line class="cls-4" x1="321.1" y1="265.69" x2="321.1" y2="215.22"/><path class="cls-5" d="M321.1,214.23h0m0,53.43h0"/></g><line class="cls-4" x1="2.48" y1="267.67" x2="52.94" y2="267.67"/><g class="cls-2"><path class="cls-5" d="M53.93,267.67h0m-53.43,0h0"/><line class="cls-4" x1="0.5" y1="319.12" x2="0.5" y2="268.66"/><path class="cls-5" d="M.5,267.67h0m0,53.43h0"/></g><line class="cls-4" x1="55.91" y1="267.67" x2="106.38" y2="267.67"/><path class="cls-5" d="M107.37,267.67h0m-53.43,0h0"/><line class="cls-4" x1="53.93" y1="319.12" x2="53.93" y2="268.66"/><g class="cls-2"><path class="cls-5" d="M53.93,267.67h0m0,53.43h0"/></g><line class="cls-4" x1="109.35" y1="267.67" x2="159.81" y2="267.67"/><path class="cls-5" d="M160.8,267.67h0m-53.43,0h0"/><line class="cls-4" x1="107.37" y1="319.12" x2="107.37" y2="268.66"/><g class="cls-2"><path class="cls-5" d="M107.37,267.67h0m0,53.43h0"/></g><line class="cls-4" x1="162.78" y1="267.67" x2="213.24" y2="267.67"/><path class="cls-5" d="M214.23,267.67h0m-53.43,0h0"/><line class="cls-4" x1="160.8" y1="319.12" x2="160.8" y2="268.66"/><g class="cls-2"><path class="cls-5" d="M160.8,267.67h0m0,53.43h0"/></g><line class="cls-4" x1="216.21" y1="267.67" x2="266.68" y2="267.67"/><path class="cls-5" d="M267.67,267.67h0m-53.43,0h0"/><line class="cls-4" x1="214.23" y1="319.12" x2="214.23" y2="268.66"/><g class="cls-2"><path class="cls-5" d="M214.23,267.67h0m0,53.43h0"/><line class="cls-4" x1="269.65" y1="267.67" x2="320.11" y2="267.67"/><path class="cls-5" d="M321.1,267.67h0m-53.43,0h0"/></g><line class="cls-4" x1="267.67" y1="319.12" x2="267.67" y2="268.66"/><g class="cls-2"><path class="cls-5" d="M267.67,267.67h0m0,53.43h0"/><line class="cls-4" x1="321.1" y1="319.12" x2="321.1" y2="268.66"/><path class="cls-5" d="M321.1,267.67h0m0,53.43h0"/><line class="cls-4" x1="2.48" y1="321.1" x2="52.94" y2="321.1"/><path class="cls-5" d="M53.93,321.1h0M.5,321.1h0"/><line class="cls-4" x1="55.91" y1="321.1" x2="106.38" y2="321.1"/><path class="cls-5" d="M107.37,321.1h0m-53.43,0h0"/><line class="cls-4" x1="109.35" y1="321.1" x2="159.81" y2="321.1"/><path class="cls-5" d="M160.8,321.1h0m-53.43,0h0"/><line class="cls-4" x1="162.78" y1="321.1" x2="213.24" y2="321.1"/><path class="cls-5" d="M214.23,321.1h0m-53.43,0h0"/><line class="cls-4" x1="216.21" y1="321.1" x2="266.68" y2="321.1"/><path class="cls-5" d="M267.67,321.1h0m-53.43,0h0"/><line class="cls-4" x1="269.65" y1="321.1" x2="320.11" y2="321.1"/><path class="cls-5" d="M321.1,321.1h0m-53.43,0h0"/><path class="cls-6" d="M241.2,242.4c.5-35.73,2.16-108-51.5-108.5"/></g><polygon class="cls-6" points="189.2 127.77 182.95 134.01 189.2 140.25 189.2 127.77"/><g class="cls-2"><path class="cls-6" d="M241.64,80.63c-35.73-.5-108-2.16-108.5,51.5"/></g><polygon class="cls-6" points="127.01 132.63 133.25 138.88 139.49 132.63 127.01 132.63"/><g class="cls-2"><path class="cls-6" d="M25.83,185.49c-.5,35.73-2.16,108,51.5,108.5"/></g><polygon class="cls-6" points="77.83 300.12 84.08 293.88 77.83 287.64 77.83 300.12"/><g class="cls-7"><polygon class="cls-6" points="141.79 174.53 127.37 174.53 120.16 187.02 127.37 199.51 141.79 199.51 149 187.02 141.79 174.53"/></g></g></g></svg>