0
SECTION
2
HEADER
9
$INSUNITS
70
4
9
$ACADVER
1
AC1014
9
$HANDSEED
5
FFFF
0
ENDSEC
0
SECTION
2
TABLES
0
TABLE
2
VPORT
5
8
100
AcDbSymbolTable
0
ENDTAB
0
TABLE
2
LTYPE
5
5
100
AcDbSymbolTable
0
LTYPE
5
14
100
AcDbSymbolTableRecord
100
AcDbLinetypeTableRecord
2
BYBLOCK
70
0
0
LTYPE
5
15
100
AcDbSymbolTableRecord
100
AcDbLinetypeTableRecord
2
BYLAYER
70
0
0
ENDTAB
0
TABLE
2
LAYER
5
2
100
AcDbSymbolTable
70
2
0
LAYER
5
50
100
AcDbSymbolTableRecord
100
AcDbLayerTableRecord
2
0
70
0
6
CONTINUOUS
0
ENDTAB
0
TABLE
2
STYLE
5
3
100
AcDbSymbolTable
70
1
0
STYLE
5
11
100
AcDbSymbolTableRecord
100
AcDbTextStyleTableRecord
2
STANDARD
70
0
0
ENDTAB
0
TABLE
2
VIEW
5
6
100
AcDbSymbolTable
70
0
0
ENDTAB
0
TABLE
2
UCS
5
7
100
AcDbSymbolTable
70
0
0
ENDTAB
0
TABLE
2
APPID
5
9
100
AcDbSymbolTable
70
2
0
APPID
5
12
100
AcDbSymbolTableRecord
100
AcDbRegAppTableRecord
2
ACAD
70
0
0
ENDTAB
0
TABLE
2
DIMSTYLE
5
A
100
AcDbSymbolTable
70
1
0
ENDTAB
0
TABLE
2
BLOCK_RECORD
5
1
100
AcDbSymbolTable
70
1
0
BLOCK_RECORD
5
1F
100
AcDbSymbolTableRecord
100
AcDbBlockTableRecord
2
*MODEL_SPACE
0
BLOCK_RECORD
5
1B
100
AcDbSymbolTableRecord
100
AcDbBlockTableRecord
2
*PAPER_SPACE
0
ENDTAB
0
ENDSEC
0
SECTION
2
BLOCKS
0
BLOCK
5
20
100
AcDbEntity
100
AcDbBlockBegin
2
*MODEL_SPACE
0
ENDBLK
5
21
100
AcDbEntity
100
AcDbBlockEnd
0
BLOCK
5
1C
100
AcDbEntity
100
AcDbBlockBegin
2
*PAPER_SPACE
0
ENDBLK
5
1D
100
AcDbEntity
100
AcDbBlockEnd
0
ENDSEC
0
SECTION
2
ENTITIES
0
LINE
5
100
100
AcDbEntity
8
0
100
AcDbLine
10
12.700000208616256
20
55.000000819563866
30
0
11
53.340000405311585
21
55.000000819563866
31
0
0
LWPOLYLINE
5
101
100
AcDbEntity
8
0
100
AcDbPolyline
90
32
70
1
43
0.0
10
12.000000229037298
20
55.000000149011612
10
54.000000834465027
20
55.000000149011612
42
-0.41421356237308982
10
56.000000834465027
20
53.000000149011612
10
56.000000834465027
20
51.800025518487622
10
52.652688465680065
20
51.800023557076706
10
52.652688465680065
20
50.199974719527127
10
52.652688465680065
20
30.000000447034836
10
51.000000759959221
20
30.000000447034836
10
51.000000759959221
20
25.00000037252903
10
52.652688465680065
20
25.00000037252903
10
52.652688465680065
20
6.8000008344650187
10
52.652688465680065
20
5.2000008344650182
10
52.652688465680065
20
5.000000074505806
10
56.000000819563866
20
5.000000074505806
10
56.000000819563866
20
1.0000000149011612
10
51.00000074505806
20
0
10
15.000000223517418
20
0
10
10.000000149011612
20
1.0000000149011612
10
10.000000149011612
20
5.000000074505806
10
13.443038056182113
20
5.000000074505806
10
13.443038056182113
20
5.2000008344650182
10
13.443038056182113
20
6.8000008344650187
10
13.443038056182111
20
25.00000037252903
10
15.000000223517418
20
25.00000037252903
10
15.000000223517418
20
30.000000447034836
10
13.443038056182107
20
30.000000447034839
10
13.443038056182106
20
50.199996638632065
10
13.443039056182107
20
50.199996638632065
10
13.443038056182106
20
50.199996638632065
10
13.443038056182106
20
51.80000058081518
10
10.000000229037289
20
51.799998563312563
10
10.000000229037289
20
53.000000149011598
42
-0.4142135623730947
0
LINE
5
102
100
AcDbEntity
8
0
100
AcDbLine
10
13.441769608267117
20
51.80000058081518
30
0
11
13.443038056182106
21
51.80000058081518
31
0
0
LINE
5
103
100
AcDbEntity
8
0
100
AcDbLine
10
12.700000208616256
20
50.199996638632065
30
0
11
12.700000208616256
21
50.199996638632065
31
0
0
LINE
5
104
100
AcDbEntity
8
0
100
AcDbLine
10
52.652688465680065
20
51.800023557076706
30
0
11
53.340000405311585
21
51.800023557076706
31
0
0
LINE
5
105
100
AcDbEntity
8
0
100
AcDbLine
10
52.652688465680065
20
51.800023557076706
30
0
11
52.652688465680065
21
50.199974719527127
31
0
0
LINE
5
106
100
AcDbEntity
8
0
100
AcDbLine
10
52.652688465680065
20
50.199974719527127
30
0
11
52.653861770310996
21
50.199974719527127
31
0
0
ENDSEC
0
SECTION
2
OBJECTS
0
DICTIONARY
5
C
100
AcDbDictionary
3
ACAD_GROUP
350
D
3
ACAD_MLINESTYLE
350
17
0
DICTIONARY
5
D
100
AcDbDictionary
0
DICTIONARY
5
1A
330
C
100
AcDbDictionary
0
DICTIONARY
5
17
100
AcDbDictionary
0
ENDSEC
0
EOF
