G04 MADE WITH FRITZING*
G04 WWW.FRITZING.ORG*
G04 DOUBLE SIDED*
G04 HOLES PLATED*
G04 CONTOUR ON CENTER OF CONTOUR VECTOR*
%ASAXBY*%
%FSLAX23Y23*%
%MOIN*%
%OFA0B0*%
%SFA1.0B1.0*%
%ADD10C,0.075000*%
%ADD11C,0.074000*%
%ADD12C,0.080000*%
%ADD13C,0.078000*%
%ADD14R,0.080000X0.080000*%
%ADD15C,0.060000*%
%ADD16C,0.024000*%
%ADD17R,0.001000X0.001000*%
%LNCOPPER1*%
G90*
G70*
G54D10*
X593Y1032D03*
X3199Y1131D03*
X1856Y1032D03*
X123Y1183D03*
X3488Y1192D03*
X913Y1192D03*
G54D11*
X3736Y1083D03*
X3686Y983D03*
X3636Y1083D03*
X3536Y1083D03*
X3436Y1083D03*
X3586Y983D03*
X3486Y983D03*
X3386Y983D03*
X3093Y1129D03*
X3043Y1029D03*
X2993Y1129D03*
X2893Y1129D03*
X2793Y1129D03*
X2943Y1029D03*
X2843Y1029D03*
X2743Y1029D03*
X2452Y1085D03*
X2402Y985D03*
X2352Y1085D03*
X2252Y1085D03*
X2152Y1085D03*
X2302Y985D03*
X2202Y985D03*
X2102Y985D03*
X1803Y1131D03*
X1753Y1031D03*
X1703Y1131D03*
X1603Y1131D03*
X1503Y1131D03*
X1653Y1031D03*
X1553Y1031D03*
X1453Y1031D03*
X1165Y1083D03*
X1115Y983D03*
X1065Y1083D03*
X965Y1083D03*
X865Y1083D03*
X1015Y983D03*
X915Y983D03*
X815Y983D03*
X525Y1130D03*
X475Y1030D03*
X425Y1130D03*
X325Y1130D03*
X225Y1130D03*
X375Y1030D03*
X275Y1030D03*
X175Y1030D03*
G54D12*
X2398Y320D03*
X2198Y320D03*
X2598Y320D03*
X1484Y320D03*
X1284Y320D03*
X1684Y320D03*
G54D13*
X3198Y529D03*
X3298Y529D03*
X618Y534D03*
X718Y534D03*
X1906Y544D03*
X2006Y544D03*
G54D14*
X2598Y320D03*
X1684Y320D03*
G54D15*
X1486Y625D02*
X1523Y678D01*
D02*
X1523Y678D02*
X1525Y885D01*
D02*
X1484Y367D02*
X1486Y625D01*
D02*
X1525Y885D02*
X1474Y988D01*
D02*
X2185Y630D02*
X2184Y879D01*
D02*
X2184Y879D02*
X2446Y879D01*
D02*
X2446Y879D02*
X2701Y1008D01*
D02*
X1680Y630D02*
X2185Y630D01*
D02*
X1680Y630D02*
X1683Y367D01*
D02*
X2852Y1217D02*
X2820Y1169D01*
D02*
X3377Y1219D02*
X2852Y1217D01*
D02*
X3417Y1126D02*
X3377Y1219D01*
D02*
X1565Y1215D02*
X2082Y1217D01*
D02*
X2082Y1217D02*
X2130Y1127D01*
D02*
X1531Y1169D02*
X1565Y1215D01*
D02*
X277Y1215D02*
X250Y1170D01*
D02*
X804Y1215D02*
X277Y1215D01*
D02*
X845Y1126D02*
X804Y1215D01*
D02*
X2798Y896D02*
X2761Y985D01*
D02*
X3230Y893D02*
X2798Y896D01*
D02*
X3344Y959D02*
X3230Y893D01*
D02*
X1517Y886D02*
X1473Y987D01*
D02*
X2033Y892D02*
X1517Y886D01*
D02*
X2073Y947D02*
X2033Y892D01*
D02*
X230Y899D02*
X194Y986D01*
D02*
X669Y900D02*
X230Y899D01*
D02*
X774Y959D02*
X669Y900D01*
G54D16*
D02*
X3230Y893D02*
X3235Y622D01*
D02*
X3235Y622D02*
X3281Y554D01*
D02*
X669Y630D02*
X704Y560D01*
D02*
X669Y900D02*
X669Y630D01*
D02*
X2398Y436D02*
X1906Y438D01*
D02*
X1906Y438D02*
X1906Y514D01*
D02*
X2398Y351D02*
X2398Y436D01*
G54D15*
D02*
X1149Y583D02*
X846Y946D01*
D02*
X1278Y586D02*
X1149Y583D01*
D02*
X1283Y367D02*
X1278Y586D01*
G36*
X1868Y1359D02*
X1868Y1321D01*
X1956Y1321D01*
X1956Y1323D01*
X1942Y1323D01*
X1942Y1325D01*
X1934Y1325D01*
X1934Y1327D01*
X1928Y1327D01*
X1928Y1329D01*
X1924Y1329D01*
X1924Y1331D01*
X1920Y1331D01*
X1920Y1333D01*
X1916Y1333D01*
X1916Y1335D01*
X1912Y1335D01*
X1912Y1337D01*
X1910Y1337D01*
X1910Y1339D01*
X1906Y1339D01*
X1906Y1341D01*
X1904Y1341D01*
X1904Y1343D01*
X1902Y1343D01*
X1902Y1345D01*
X1900Y1345D01*
X1900Y1347D01*
X1896Y1347D01*
X1896Y1351D01*
X1894Y1351D01*
X1894Y1353D01*
X1892Y1353D01*
X1892Y1355D01*
X1890Y1355D01*
X1890Y1357D01*
X1888Y1357D01*
X1888Y1359D01*
X1868Y1359D01*
G37*
D02*
G36*
X2028Y1351D02*
X2028Y1349D01*
X2026Y1349D01*
X2026Y1347D01*
X2024Y1347D01*
X2024Y1345D01*
X2022Y1345D01*
X2022Y1343D01*
X2020Y1343D01*
X2020Y1341D01*
X2016Y1341D01*
X2016Y1339D01*
X2014Y1339D01*
X2014Y1337D01*
X2010Y1337D01*
X2010Y1335D01*
X2008Y1335D01*
X2008Y1333D01*
X2004Y1333D01*
X2004Y1331D01*
X2000Y1331D01*
X2000Y1329D01*
X1994Y1329D01*
X1994Y1327D01*
X1988Y1327D01*
X1988Y1325D01*
X1982Y1325D01*
X1982Y1323D01*
X1968Y1323D01*
X1968Y1321D01*
X2048Y1321D01*
X2048Y1351D01*
X2028Y1351D01*
G37*
D02*
G36*
X1868Y1321D02*
X1868Y1319D01*
X2048Y1319D01*
X2048Y1321D01*
X1868Y1321D01*
G37*
D02*
G36*
X1868Y1321D02*
X1868Y1319D01*
X2048Y1319D01*
X2048Y1321D01*
X1868Y1321D01*
G37*
D02*
G36*
X1868Y1319D02*
X1868Y1297D01*
X1866Y1297D01*
X1866Y1289D01*
X1864Y1289D01*
X1864Y1283D01*
X1862Y1283D01*
X1862Y1279D01*
X1860Y1279D01*
X1860Y1277D01*
X1858Y1277D01*
X1858Y1257D01*
X2058Y1257D01*
X2058Y1277D01*
X2056Y1277D01*
X2056Y1281D01*
X2054Y1281D01*
X2054Y1285D01*
X2052Y1285D01*
X2052Y1289D01*
X2050Y1289D01*
X2050Y1299D01*
X2048Y1299D01*
X2048Y1319D01*
X1868Y1319D01*
G37*
D02*
G36*
X564Y1175D02*
X564Y1155D01*
X566Y1155D01*
X566Y1151D01*
X568Y1151D01*
X568Y1147D01*
X570Y1147D01*
X570Y1139D01*
X572Y1139D01*
X572Y1121D01*
X570Y1121D01*
X570Y1113D01*
X568Y1113D01*
X568Y1109D01*
X566Y1109D01*
X566Y1105D01*
X564Y1105D01*
X564Y1103D01*
X562Y1103D01*
X562Y1099D01*
X560Y1099D01*
X560Y1097D01*
X558Y1097D01*
X558Y1095D01*
X554Y1095D01*
X554Y1093D01*
X552Y1093D01*
X552Y1091D01*
X550Y1091D01*
X550Y1089D01*
X546Y1089D01*
X546Y1087D01*
X542Y1087D01*
X542Y1085D01*
X534Y1085D01*
X534Y1083D01*
X818Y1083D01*
X818Y1097D01*
X816Y1097D01*
X816Y1101D01*
X814Y1101D01*
X814Y1103D01*
X812Y1103D01*
X812Y1105D01*
X810Y1105D01*
X810Y1109D01*
X808Y1109D01*
X808Y1113D01*
X806Y1113D01*
X806Y1117D01*
X804Y1117D01*
X804Y1123D01*
X802Y1123D01*
X802Y1127D01*
X800Y1127D01*
X800Y1131D01*
X798Y1131D01*
X798Y1135D01*
X796Y1135D01*
X796Y1139D01*
X794Y1139D01*
X794Y1143D01*
X792Y1143D01*
X792Y1147D01*
X790Y1147D01*
X790Y1153D01*
X788Y1153D01*
X788Y1157D01*
X786Y1157D01*
X786Y1161D01*
X784Y1161D01*
X784Y1165D01*
X782Y1165D01*
X782Y1169D01*
X780Y1169D01*
X780Y1173D01*
X778Y1173D01*
X778Y1175D01*
X564Y1175D01*
G37*
D02*
G36*
X266Y1107D02*
X266Y1105D01*
X264Y1105D01*
X264Y1103D01*
X262Y1103D01*
X262Y1099D01*
X260Y1099D01*
X260Y1097D01*
X258Y1097D01*
X258Y1095D01*
X254Y1095D01*
X254Y1093D01*
X252Y1093D01*
X252Y1091D01*
X250Y1091D01*
X250Y1089D01*
X246Y1089D01*
X246Y1087D01*
X242Y1087D01*
X242Y1085D01*
X234Y1085D01*
X234Y1083D01*
X316Y1083D01*
X316Y1085D01*
X310Y1085D01*
X310Y1087D01*
X304Y1087D01*
X304Y1089D01*
X300Y1089D01*
X300Y1091D01*
X298Y1091D01*
X298Y1093D01*
X296Y1093D01*
X296Y1095D01*
X292Y1095D01*
X292Y1097D01*
X290Y1097D01*
X290Y1101D01*
X288Y1101D01*
X288Y1103D01*
X286Y1103D01*
X286Y1107D01*
X266Y1107D01*
G37*
D02*
G36*
X366Y1107D02*
X366Y1105D01*
X364Y1105D01*
X364Y1103D01*
X362Y1103D01*
X362Y1099D01*
X360Y1099D01*
X360Y1097D01*
X358Y1097D01*
X358Y1095D01*
X354Y1095D01*
X354Y1093D01*
X352Y1093D01*
X352Y1091D01*
X350Y1091D01*
X350Y1089D01*
X346Y1089D01*
X346Y1087D01*
X342Y1087D01*
X342Y1085D01*
X334Y1085D01*
X334Y1083D01*
X416Y1083D01*
X416Y1085D01*
X410Y1085D01*
X410Y1087D01*
X404Y1087D01*
X404Y1089D01*
X400Y1089D01*
X400Y1091D01*
X398Y1091D01*
X398Y1093D01*
X396Y1093D01*
X396Y1095D01*
X392Y1095D01*
X392Y1097D01*
X390Y1097D01*
X390Y1101D01*
X388Y1101D01*
X388Y1103D01*
X386Y1103D01*
X386Y1107D01*
X366Y1107D01*
G37*
D02*
G36*
X466Y1107D02*
X466Y1105D01*
X464Y1105D01*
X464Y1103D01*
X462Y1103D01*
X462Y1099D01*
X460Y1099D01*
X460Y1097D01*
X458Y1097D01*
X458Y1095D01*
X454Y1095D01*
X454Y1093D01*
X452Y1093D01*
X452Y1091D01*
X450Y1091D01*
X450Y1089D01*
X446Y1089D01*
X446Y1087D01*
X442Y1087D01*
X442Y1085D01*
X434Y1085D01*
X434Y1083D01*
X516Y1083D01*
X516Y1085D01*
X510Y1085D01*
X510Y1087D01*
X504Y1087D01*
X504Y1089D01*
X500Y1089D01*
X500Y1091D01*
X498Y1091D01*
X498Y1093D01*
X496Y1093D01*
X496Y1095D01*
X492Y1095D01*
X492Y1097D01*
X490Y1097D01*
X490Y1101D01*
X488Y1101D01*
X488Y1103D01*
X486Y1103D01*
X486Y1107D01*
X466Y1107D01*
G37*
D02*
G36*
X222Y1083D02*
X222Y1081D01*
X818Y1081D01*
X818Y1083D01*
X222Y1083D01*
G37*
D02*
G36*
X222Y1083D02*
X222Y1081D01*
X818Y1081D01*
X818Y1083D01*
X222Y1083D01*
G37*
D02*
G36*
X222Y1083D02*
X222Y1081D01*
X818Y1081D01*
X818Y1083D01*
X222Y1083D01*
G37*
D02*
G36*
X222Y1083D02*
X222Y1081D01*
X818Y1081D01*
X818Y1083D01*
X222Y1083D01*
G37*
D02*
G36*
X222Y1081D02*
X222Y1077D01*
X484Y1077D01*
X484Y1075D01*
X492Y1075D01*
X492Y1073D01*
X496Y1073D01*
X496Y1071D01*
X500Y1071D01*
X500Y1069D01*
X502Y1069D01*
X502Y1067D01*
X506Y1067D01*
X506Y1065D01*
X508Y1065D01*
X508Y1063D01*
X510Y1063D01*
X510Y1061D01*
X512Y1061D01*
X512Y1057D01*
X514Y1057D01*
X514Y1055D01*
X516Y1055D01*
X516Y1051D01*
X518Y1051D01*
X518Y1047D01*
X520Y1047D01*
X520Y1039D01*
X522Y1039D01*
X522Y1021D01*
X520Y1021D01*
X520Y1013D01*
X518Y1013D01*
X518Y1009D01*
X516Y1009D01*
X516Y1005D01*
X514Y1005D01*
X514Y1003D01*
X512Y1003D01*
X512Y999D01*
X510Y999D01*
X510Y997D01*
X508Y997D01*
X508Y995D01*
X504Y995D01*
X504Y993D01*
X502Y993D01*
X502Y991D01*
X500Y991D01*
X500Y989D01*
X496Y989D01*
X496Y987D01*
X492Y987D01*
X492Y985D01*
X484Y985D01*
X484Y983D01*
X736Y983D01*
X736Y985D01*
X740Y985D01*
X740Y987D01*
X744Y987D01*
X744Y989D01*
X746Y989D01*
X746Y991D01*
X750Y991D01*
X750Y993D01*
X754Y993D01*
X754Y995D01*
X758Y995D01*
X758Y997D01*
X764Y997D01*
X764Y999D01*
X768Y999D01*
X768Y1029D01*
X834Y1029D01*
X834Y1049D01*
X832Y1049D01*
X832Y1051D01*
X830Y1051D01*
X830Y1053D01*
X828Y1053D01*
X828Y1055D01*
X826Y1055D01*
X826Y1059D01*
X824Y1059D01*
X824Y1063D01*
X822Y1063D01*
X822Y1069D01*
X820Y1069D01*
X820Y1075D01*
X818Y1075D01*
X818Y1081D01*
X222Y1081D01*
G37*
D02*
G36*
X222Y1077D02*
X222Y1063D01*
X242Y1063D01*
X242Y1065D01*
X246Y1065D01*
X246Y1067D01*
X248Y1067D01*
X248Y1069D01*
X250Y1069D01*
X250Y1071D01*
X254Y1071D01*
X254Y1073D01*
X260Y1073D01*
X260Y1075D01*
X266Y1075D01*
X266Y1077D01*
X222Y1077D01*
G37*
D02*
G36*
X284Y1077D02*
X284Y1075D01*
X292Y1075D01*
X292Y1073D01*
X296Y1073D01*
X296Y1071D01*
X300Y1071D01*
X300Y1069D01*
X302Y1069D01*
X302Y1067D01*
X306Y1067D01*
X306Y1065D01*
X308Y1065D01*
X308Y1063D01*
X310Y1063D01*
X310Y1061D01*
X312Y1061D01*
X312Y1057D01*
X314Y1057D01*
X314Y1055D01*
X316Y1055D01*
X316Y1053D01*
X336Y1053D01*
X336Y1057D01*
X338Y1057D01*
X338Y1059D01*
X340Y1059D01*
X340Y1063D01*
X342Y1063D01*
X342Y1065D01*
X346Y1065D01*
X346Y1067D01*
X348Y1067D01*
X348Y1069D01*
X350Y1069D01*
X350Y1071D01*
X354Y1071D01*
X354Y1073D01*
X360Y1073D01*
X360Y1075D01*
X366Y1075D01*
X366Y1077D01*
X284Y1077D01*
G37*
D02*
G36*
X384Y1077D02*
X384Y1075D01*
X392Y1075D01*
X392Y1073D01*
X396Y1073D01*
X396Y1071D01*
X400Y1071D01*
X400Y1069D01*
X402Y1069D01*
X402Y1067D01*
X406Y1067D01*
X406Y1065D01*
X408Y1065D01*
X408Y1063D01*
X410Y1063D01*
X410Y1061D01*
X412Y1061D01*
X412Y1057D01*
X414Y1057D01*
X414Y1055D01*
X416Y1055D01*
X416Y1053D01*
X436Y1053D01*
X436Y1057D01*
X438Y1057D01*
X438Y1059D01*
X440Y1059D01*
X440Y1063D01*
X442Y1063D01*
X442Y1065D01*
X446Y1065D01*
X446Y1067D01*
X448Y1067D01*
X448Y1069D01*
X450Y1069D01*
X450Y1071D01*
X454Y1071D01*
X454Y1073D01*
X460Y1073D01*
X460Y1075D01*
X466Y1075D01*
X466Y1077D01*
X384Y1077D01*
G37*
D02*
G36*
X316Y1007D02*
X316Y1005D01*
X314Y1005D01*
X314Y1003D01*
X312Y1003D01*
X312Y999D01*
X310Y999D01*
X310Y997D01*
X308Y997D01*
X308Y995D01*
X304Y995D01*
X304Y993D01*
X302Y993D01*
X302Y991D01*
X300Y991D01*
X300Y989D01*
X296Y989D01*
X296Y987D01*
X292Y987D01*
X292Y985D01*
X284Y985D01*
X284Y983D01*
X366Y983D01*
X366Y985D01*
X360Y985D01*
X360Y987D01*
X354Y987D01*
X354Y989D01*
X350Y989D01*
X350Y991D01*
X348Y991D01*
X348Y993D01*
X346Y993D01*
X346Y995D01*
X342Y995D01*
X342Y997D01*
X340Y997D01*
X340Y1001D01*
X338Y1001D01*
X338Y1003D01*
X336Y1003D01*
X336Y1007D01*
X316Y1007D01*
G37*
D02*
G36*
X416Y1007D02*
X416Y1005D01*
X414Y1005D01*
X414Y1003D01*
X412Y1003D01*
X412Y999D01*
X410Y999D01*
X410Y997D01*
X408Y997D01*
X408Y995D01*
X404Y995D01*
X404Y993D01*
X402Y993D01*
X402Y991D01*
X400Y991D01*
X400Y989D01*
X396Y989D01*
X396Y987D01*
X392Y987D01*
X392Y985D01*
X384Y985D01*
X384Y983D01*
X466Y983D01*
X466Y985D01*
X460Y985D01*
X460Y987D01*
X454Y987D01*
X454Y989D01*
X450Y989D01*
X450Y991D01*
X448Y991D01*
X448Y993D01*
X446Y993D01*
X446Y995D01*
X442Y995D01*
X442Y997D01*
X440Y997D01*
X440Y1001D01*
X438Y1001D01*
X438Y1003D01*
X436Y1003D01*
X436Y1007D01*
X416Y1007D01*
G37*
D02*
G36*
X238Y987D02*
X238Y983D01*
X266Y983D01*
X266Y985D01*
X260Y985D01*
X260Y987D01*
X238Y987D01*
G37*
D02*
G36*
X238Y983D02*
X238Y981D01*
X732Y981D01*
X732Y983D01*
X238Y983D01*
G37*
D02*
G36*
X238Y983D02*
X238Y981D01*
X732Y981D01*
X732Y983D01*
X238Y983D01*
G37*
D02*
G36*
X238Y983D02*
X238Y981D01*
X732Y981D01*
X732Y983D01*
X238Y983D01*
G37*
D02*
G36*
X238Y983D02*
X238Y981D01*
X732Y981D01*
X732Y983D01*
X238Y983D01*
G37*
D02*
G36*
X240Y981D02*
X240Y977D01*
X242Y977D01*
X242Y973D01*
X244Y973D01*
X244Y967D01*
X246Y967D01*
X246Y963D01*
X248Y963D01*
X248Y957D01*
X250Y957D01*
X250Y953D01*
X252Y953D01*
X252Y949D01*
X254Y949D01*
X254Y943D01*
X256Y943D01*
X256Y939D01*
X658Y939D01*
X658Y941D01*
X662Y941D01*
X662Y943D01*
X666Y943D01*
X666Y945D01*
X668Y945D01*
X668Y947D01*
X672Y947D01*
X672Y949D01*
X676Y949D01*
X676Y951D01*
X680Y951D01*
X680Y953D01*
X684Y953D01*
X684Y955D01*
X686Y955D01*
X686Y957D01*
X690Y957D01*
X690Y959D01*
X694Y959D01*
X694Y961D01*
X698Y961D01*
X698Y963D01*
X700Y963D01*
X700Y965D01*
X704Y965D01*
X704Y967D01*
X708Y967D01*
X708Y969D01*
X712Y969D01*
X712Y971D01*
X714Y971D01*
X714Y973D01*
X718Y973D01*
X718Y975D01*
X722Y975D01*
X722Y977D01*
X726Y977D01*
X726Y979D01*
X728Y979D01*
X728Y981D01*
X240Y981D01*
G37*
D02*
G36*
X3128Y1179D02*
X3128Y1159D01*
X3130Y1159D01*
X3130Y1157D01*
X3132Y1157D01*
X3132Y1155D01*
X3134Y1155D01*
X3134Y1151D01*
X3136Y1151D01*
X3136Y1147D01*
X3138Y1147D01*
X3138Y1139D01*
X3140Y1139D01*
X3140Y1119D01*
X3138Y1119D01*
X3138Y1113D01*
X3136Y1113D01*
X3136Y1109D01*
X3134Y1109D01*
X3134Y1105D01*
X3132Y1105D01*
X3132Y1101D01*
X3130Y1101D01*
X3130Y1099D01*
X3128Y1099D01*
X3128Y1097D01*
X3126Y1097D01*
X3126Y1095D01*
X3124Y1095D01*
X3124Y1093D01*
X3122Y1093D01*
X3122Y1091D01*
X3118Y1091D01*
X3118Y1089D01*
X3114Y1089D01*
X3114Y1087D01*
X3112Y1087D01*
X3112Y1085D01*
X3104Y1085D01*
X3104Y1083D01*
X3388Y1083D01*
X3388Y1101D01*
X3386Y1101D01*
X3386Y1103D01*
X3384Y1103D01*
X3384Y1105D01*
X3382Y1105D01*
X3382Y1109D01*
X3380Y1109D01*
X3380Y1113D01*
X3378Y1113D01*
X3378Y1119D01*
X3376Y1119D01*
X3376Y1123D01*
X3374Y1123D01*
X3374Y1127D01*
X3372Y1127D01*
X3372Y1133D01*
X3370Y1133D01*
X3370Y1137D01*
X3368Y1137D01*
X3368Y1141D01*
X3366Y1141D01*
X3366Y1147D01*
X3364Y1147D01*
X3364Y1151D01*
X3362Y1151D01*
X3362Y1155D01*
X3360Y1155D01*
X3360Y1161D01*
X3358Y1161D01*
X3358Y1165D01*
X3356Y1165D01*
X3356Y1171D01*
X3354Y1171D01*
X3354Y1175D01*
X3352Y1175D01*
X3352Y1179D01*
X3128Y1179D01*
G37*
D02*
G36*
X2832Y1105D02*
X2832Y1101D01*
X2830Y1101D01*
X2830Y1099D01*
X2828Y1099D01*
X2828Y1097D01*
X2826Y1097D01*
X2826Y1095D01*
X2824Y1095D01*
X2824Y1093D01*
X2822Y1093D01*
X2822Y1091D01*
X2818Y1091D01*
X2818Y1089D01*
X2814Y1089D01*
X2814Y1087D01*
X2812Y1087D01*
X2812Y1085D01*
X2804Y1085D01*
X2804Y1083D01*
X2882Y1083D01*
X2882Y1085D01*
X2876Y1085D01*
X2876Y1087D01*
X2872Y1087D01*
X2872Y1089D01*
X2868Y1089D01*
X2868Y1091D01*
X2866Y1091D01*
X2866Y1093D01*
X2862Y1093D01*
X2862Y1095D01*
X2860Y1095D01*
X2860Y1097D01*
X2858Y1097D01*
X2858Y1099D01*
X2856Y1099D01*
X2856Y1103D01*
X2854Y1103D01*
X2854Y1105D01*
X2832Y1105D01*
G37*
D02*
G36*
X2932Y1105D02*
X2932Y1101D01*
X2930Y1101D01*
X2930Y1099D01*
X2928Y1099D01*
X2928Y1097D01*
X2926Y1097D01*
X2926Y1095D01*
X2924Y1095D01*
X2924Y1093D01*
X2922Y1093D01*
X2922Y1091D01*
X2918Y1091D01*
X2918Y1089D01*
X2914Y1089D01*
X2914Y1087D01*
X2912Y1087D01*
X2912Y1085D01*
X2904Y1085D01*
X2904Y1083D01*
X2982Y1083D01*
X2982Y1085D01*
X2976Y1085D01*
X2976Y1087D01*
X2972Y1087D01*
X2972Y1089D01*
X2968Y1089D01*
X2968Y1091D01*
X2966Y1091D01*
X2966Y1093D01*
X2962Y1093D01*
X2962Y1095D01*
X2960Y1095D01*
X2960Y1097D01*
X2958Y1097D01*
X2958Y1099D01*
X2956Y1099D01*
X2956Y1103D01*
X2954Y1103D01*
X2954Y1105D01*
X2932Y1105D01*
G37*
D02*
G36*
X3032Y1105D02*
X3032Y1101D01*
X3030Y1101D01*
X3030Y1099D01*
X3028Y1099D01*
X3028Y1097D01*
X3026Y1097D01*
X3026Y1095D01*
X3024Y1095D01*
X3024Y1093D01*
X3022Y1093D01*
X3022Y1091D01*
X3018Y1091D01*
X3018Y1089D01*
X3014Y1089D01*
X3014Y1087D01*
X3012Y1087D01*
X3012Y1085D01*
X3004Y1085D01*
X3004Y1083D01*
X3082Y1083D01*
X3082Y1085D01*
X3076Y1085D01*
X3076Y1087D01*
X3072Y1087D01*
X3072Y1089D01*
X3068Y1089D01*
X3068Y1091D01*
X3066Y1091D01*
X3066Y1093D01*
X3062Y1093D01*
X3062Y1095D01*
X3060Y1095D01*
X3060Y1097D01*
X3058Y1097D01*
X3058Y1099D01*
X3056Y1099D01*
X3056Y1103D01*
X3054Y1103D01*
X3054Y1105D01*
X3032Y1105D01*
G37*
D02*
G36*
X2790Y1083D02*
X2790Y1081D01*
X3388Y1081D01*
X3388Y1083D01*
X2790Y1083D01*
G37*
D02*
G36*
X2790Y1083D02*
X2790Y1081D01*
X3388Y1081D01*
X3388Y1083D01*
X2790Y1083D01*
G37*
D02*
G36*
X2790Y1083D02*
X2790Y1081D01*
X3388Y1081D01*
X3388Y1083D01*
X2790Y1083D01*
G37*
D02*
G36*
X2790Y1083D02*
X2790Y1081D01*
X3388Y1081D01*
X3388Y1083D01*
X2790Y1083D01*
G37*
D02*
G36*
X2790Y1081D02*
X2790Y1077D01*
X3048Y1077D01*
X3048Y1075D01*
X3058Y1075D01*
X3058Y1073D01*
X3062Y1073D01*
X3062Y1071D01*
X3066Y1071D01*
X3066Y1069D01*
X3070Y1069D01*
X3070Y1067D01*
X3072Y1067D01*
X3072Y1065D01*
X3074Y1065D01*
X3074Y1063D01*
X3078Y1063D01*
X3078Y1059D01*
X3080Y1059D01*
X3080Y1057D01*
X3082Y1057D01*
X3082Y1055D01*
X3084Y1055D01*
X3084Y1051D01*
X3086Y1051D01*
X3086Y1047D01*
X3088Y1047D01*
X3088Y1039D01*
X3090Y1039D01*
X3090Y1019D01*
X3088Y1019D01*
X3088Y1013D01*
X3086Y1013D01*
X3086Y1009D01*
X3084Y1009D01*
X3084Y1005D01*
X3082Y1005D01*
X3082Y1001D01*
X3080Y1001D01*
X3080Y999D01*
X3078Y999D01*
X3078Y997D01*
X3076Y997D01*
X3076Y995D01*
X3074Y995D01*
X3074Y993D01*
X3072Y993D01*
X3072Y991D01*
X3068Y991D01*
X3068Y989D01*
X3064Y989D01*
X3064Y987D01*
X3062Y987D01*
X3062Y985D01*
X3054Y985D01*
X3054Y983D01*
X3308Y983D01*
X3308Y985D01*
X3310Y985D01*
X3310Y987D01*
X3314Y987D01*
X3314Y989D01*
X3318Y989D01*
X3318Y991D01*
X3322Y991D01*
X3322Y993D01*
X3324Y993D01*
X3324Y995D01*
X3328Y995D01*
X3328Y997D01*
X3334Y997D01*
X3334Y999D01*
X3338Y999D01*
X3338Y1029D01*
X3404Y1029D01*
X3404Y1049D01*
X3402Y1049D01*
X3402Y1051D01*
X3400Y1051D01*
X3400Y1053D01*
X3398Y1053D01*
X3398Y1057D01*
X3396Y1057D01*
X3396Y1059D01*
X3394Y1059D01*
X3394Y1063D01*
X3392Y1063D01*
X3392Y1069D01*
X3390Y1069D01*
X3390Y1077D01*
X3388Y1077D01*
X3388Y1081D01*
X2790Y1081D01*
G37*
D02*
G36*
X2790Y1077D02*
X2790Y1061D01*
X2810Y1061D01*
X2810Y1063D01*
X2812Y1063D01*
X2812Y1065D01*
X2814Y1065D01*
X2814Y1067D01*
X2816Y1067D01*
X2816Y1069D01*
X2820Y1069D01*
X2820Y1071D01*
X2824Y1071D01*
X2824Y1073D01*
X2830Y1073D01*
X2830Y1075D01*
X2838Y1075D01*
X2838Y1077D01*
X2790Y1077D01*
G37*
D02*
G36*
X2848Y1077D02*
X2848Y1075D01*
X2858Y1075D01*
X2858Y1073D01*
X2862Y1073D01*
X2862Y1071D01*
X2866Y1071D01*
X2866Y1069D01*
X2870Y1069D01*
X2870Y1067D01*
X2872Y1067D01*
X2872Y1065D01*
X2874Y1065D01*
X2874Y1063D01*
X2878Y1063D01*
X2878Y1059D01*
X2880Y1059D01*
X2880Y1057D01*
X2882Y1057D01*
X2882Y1055D01*
X2884Y1055D01*
X2884Y1053D01*
X2904Y1053D01*
X2904Y1057D01*
X2906Y1057D01*
X2906Y1059D01*
X2908Y1059D01*
X2908Y1061D01*
X2910Y1061D01*
X2910Y1063D01*
X2912Y1063D01*
X2912Y1065D01*
X2914Y1065D01*
X2914Y1067D01*
X2916Y1067D01*
X2916Y1069D01*
X2920Y1069D01*
X2920Y1071D01*
X2924Y1071D01*
X2924Y1073D01*
X2930Y1073D01*
X2930Y1075D01*
X2938Y1075D01*
X2938Y1077D01*
X2848Y1077D01*
G37*
D02*
G36*
X2948Y1077D02*
X2948Y1075D01*
X2958Y1075D01*
X2958Y1073D01*
X2962Y1073D01*
X2962Y1071D01*
X2966Y1071D01*
X2966Y1069D01*
X2970Y1069D01*
X2970Y1067D01*
X2972Y1067D01*
X2972Y1065D01*
X2974Y1065D01*
X2974Y1063D01*
X2978Y1063D01*
X2978Y1059D01*
X2980Y1059D01*
X2980Y1057D01*
X2982Y1057D01*
X2982Y1055D01*
X2984Y1055D01*
X2984Y1053D01*
X3004Y1053D01*
X3004Y1057D01*
X3006Y1057D01*
X3006Y1059D01*
X3008Y1059D01*
X3008Y1061D01*
X3010Y1061D01*
X3010Y1063D01*
X3012Y1063D01*
X3012Y1065D01*
X3014Y1065D01*
X3014Y1067D01*
X3016Y1067D01*
X3016Y1069D01*
X3020Y1069D01*
X3020Y1071D01*
X3024Y1071D01*
X3024Y1073D01*
X3030Y1073D01*
X3030Y1075D01*
X3038Y1075D01*
X3038Y1077D01*
X2948Y1077D01*
G37*
D02*
G36*
X2882Y1005D02*
X2882Y1001D01*
X2880Y1001D01*
X2880Y999D01*
X2878Y999D01*
X2878Y997D01*
X2876Y997D01*
X2876Y995D01*
X2874Y995D01*
X2874Y993D01*
X2872Y993D01*
X2872Y991D01*
X2868Y991D01*
X2868Y989D01*
X2864Y989D01*
X2864Y987D01*
X2862Y987D01*
X2862Y985D01*
X2854Y985D01*
X2854Y983D01*
X2932Y983D01*
X2932Y985D01*
X2926Y985D01*
X2926Y987D01*
X2922Y987D01*
X2922Y989D01*
X2918Y989D01*
X2918Y991D01*
X2916Y991D01*
X2916Y993D01*
X2912Y993D01*
X2912Y995D01*
X2910Y995D01*
X2910Y997D01*
X2908Y997D01*
X2908Y999D01*
X2906Y999D01*
X2906Y1003D01*
X2904Y1003D01*
X2904Y1005D01*
X2882Y1005D01*
G37*
D02*
G36*
X2982Y1005D02*
X2982Y1001D01*
X2980Y1001D01*
X2980Y999D01*
X2978Y999D01*
X2978Y997D01*
X2976Y997D01*
X2976Y995D01*
X2974Y995D01*
X2974Y993D01*
X2972Y993D01*
X2972Y991D01*
X2968Y991D01*
X2968Y989D01*
X2964Y989D01*
X2964Y987D01*
X2962Y987D01*
X2962Y985D01*
X2954Y985D01*
X2954Y983D01*
X3032Y983D01*
X3032Y985D01*
X3026Y985D01*
X3026Y987D01*
X3022Y987D01*
X3022Y989D01*
X3018Y989D01*
X3018Y991D01*
X3016Y991D01*
X3016Y993D01*
X3012Y993D01*
X3012Y995D01*
X3010Y995D01*
X3010Y997D01*
X3008Y997D01*
X3008Y999D01*
X3006Y999D01*
X3006Y1003D01*
X3004Y1003D01*
X3004Y1005D01*
X2982Y1005D01*
G37*
D02*
G36*
X2804Y987D02*
X2804Y983D01*
X2832Y983D01*
X2832Y985D01*
X2826Y985D01*
X2826Y987D01*
X2804Y987D01*
G37*
D02*
G36*
X2806Y983D02*
X2806Y981D01*
X3304Y981D01*
X3304Y983D01*
X2806Y983D01*
G37*
D02*
G36*
X2806Y983D02*
X2806Y981D01*
X3304Y981D01*
X3304Y983D01*
X2806Y983D01*
G37*
D02*
G36*
X2806Y983D02*
X2806Y981D01*
X3304Y981D01*
X3304Y983D01*
X2806Y983D01*
G37*
D02*
G36*
X2806Y983D02*
X2806Y981D01*
X3304Y981D01*
X3304Y983D01*
X2806Y983D01*
G37*
D02*
G36*
X2806Y981D02*
X2806Y979D01*
X2808Y979D01*
X2808Y975D01*
X2810Y975D01*
X2810Y969D01*
X2812Y969D01*
X2812Y965D01*
X2814Y965D01*
X2814Y959D01*
X2816Y959D01*
X2816Y955D01*
X2818Y955D01*
X2818Y949D01*
X2820Y949D01*
X2820Y945D01*
X2822Y945D01*
X2822Y939D01*
X2824Y939D01*
X2824Y935D01*
X3148Y935D01*
X3148Y933D01*
X3220Y933D01*
X3220Y935D01*
X3224Y935D01*
X3224Y937D01*
X3226Y937D01*
X3226Y939D01*
X3230Y939D01*
X3230Y941D01*
X3234Y941D01*
X3234Y943D01*
X3238Y943D01*
X3238Y945D01*
X3240Y945D01*
X3240Y947D01*
X3244Y947D01*
X3244Y949D01*
X3248Y949D01*
X3248Y951D01*
X3252Y951D01*
X3252Y953D01*
X3254Y953D01*
X3254Y955D01*
X3258Y955D01*
X3258Y957D01*
X3262Y957D01*
X3262Y959D01*
X3266Y959D01*
X3266Y961D01*
X3268Y961D01*
X3268Y963D01*
X3272Y963D01*
X3272Y965D01*
X3276Y965D01*
X3276Y967D01*
X3280Y967D01*
X3280Y969D01*
X3282Y969D01*
X3282Y971D01*
X3286Y971D01*
X3286Y973D01*
X3290Y973D01*
X3290Y975D01*
X3294Y975D01*
X3294Y977D01*
X3296Y977D01*
X3296Y979D01*
X3300Y979D01*
X3300Y981D01*
X2806Y981D01*
G37*
D02*
G36*
X1850Y1177D02*
X1850Y1175D01*
X1842Y1175D01*
X1842Y1155D01*
X1844Y1155D01*
X1844Y1153D01*
X1846Y1153D01*
X1846Y1149D01*
X1848Y1149D01*
X1848Y1141D01*
X1850Y1141D01*
X1850Y1119D01*
X1848Y1119D01*
X1848Y1113D01*
X1846Y1113D01*
X1846Y1109D01*
X1844Y1109D01*
X1844Y1105D01*
X1842Y1105D01*
X1842Y1103D01*
X1840Y1103D01*
X1840Y1101D01*
X1838Y1101D01*
X1838Y1097D01*
X1834Y1097D01*
X1834Y1095D01*
X1832Y1095D01*
X1832Y1093D01*
X1830Y1093D01*
X1830Y1091D01*
X1826Y1091D01*
X1826Y1089D01*
X1822Y1089D01*
X1822Y1087D01*
X1818Y1087D01*
X1818Y1085D01*
X1808Y1085D01*
X1808Y1083D01*
X2104Y1083D01*
X2104Y1097D01*
X2102Y1097D01*
X2102Y1099D01*
X2100Y1099D01*
X2100Y1101D01*
X2098Y1101D01*
X2098Y1105D01*
X2096Y1105D01*
X2096Y1107D01*
X2094Y1107D01*
X2094Y1111D01*
X2092Y1111D01*
X2092Y1115D01*
X2090Y1115D01*
X2090Y1119D01*
X2088Y1119D01*
X2088Y1123D01*
X2086Y1123D01*
X2086Y1125D01*
X2084Y1125D01*
X2084Y1129D01*
X2082Y1129D01*
X2082Y1133D01*
X2080Y1133D01*
X2080Y1137D01*
X2078Y1137D01*
X2078Y1141D01*
X2076Y1141D01*
X2076Y1145D01*
X2074Y1145D01*
X2074Y1149D01*
X2072Y1149D01*
X2072Y1153D01*
X2070Y1153D01*
X2070Y1157D01*
X2068Y1157D01*
X2068Y1161D01*
X2066Y1161D01*
X2066Y1163D01*
X2064Y1163D01*
X2064Y1167D01*
X2062Y1167D01*
X2062Y1171D01*
X2060Y1171D01*
X2060Y1175D01*
X2058Y1175D01*
X2058Y1177D01*
X1850Y1177D01*
G37*
D02*
G36*
X1544Y1107D02*
X1544Y1105D01*
X1542Y1105D01*
X1542Y1103D01*
X1540Y1103D01*
X1540Y1101D01*
X1538Y1101D01*
X1538Y1097D01*
X1534Y1097D01*
X1534Y1095D01*
X1532Y1095D01*
X1532Y1093D01*
X1530Y1093D01*
X1530Y1091D01*
X1526Y1091D01*
X1526Y1089D01*
X1522Y1089D01*
X1522Y1087D01*
X1518Y1087D01*
X1518Y1085D01*
X1508Y1085D01*
X1508Y1083D01*
X1598Y1083D01*
X1598Y1085D01*
X1590Y1085D01*
X1590Y1087D01*
X1584Y1087D01*
X1584Y1089D01*
X1580Y1089D01*
X1580Y1091D01*
X1578Y1091D01*
X1578Y1093D01*
X1574Y1093D01*
X1574Y1095D01*
X1572Y1095D01*
X1572Y1097D01*
X1570Y1097D01*
X1570Y1099D01*
X1568Y1099D01*
X1568Y1101D01*
X1566Y1101D01*
X1566Y1103D01*
X1564Y1103D01*
X1564Y1107D01*
X1544Y1107D01*
G37*
D02*
G36*
X1644Y1107D02*
X1644Y1105D01*
X1642Y1105D01*
X1642Y1103D01*
X1640Y1103D01*
X1640Y1101D01*
X1638Y1101D01*
X1638Y1097D01*
X1634Y1097D01*
X1634Y1095D01*
X1632Y1095D01*
X1632Y1093D01*
X1630Y1093D01*
X1630Y1091D01*
X1626Y1091D01*
X1626Y1089D01*
X1622Y1089D01*
X1622Y1087D01*
X1618Y1087D01*
X1618Y1085D01*
X1608Y1085D01*
X1608Y1083D01*
X1698Y1083D01*
X1698Y1085D01*
X1690Y1085D01*
X1690Y1087D01*
X1684Y1087D01*
X1684Y1089D01*
X1680Y1089D01*
X1680Y1091D01*
X1678Y1091D01*
X1678Y1093D01*
X1674Y1093D01*
X1674Y1095D01*
X1672Y1095D01*
X1672Y1097D01*
X1670Y1097D01*
X1670Y1099D01*
X1668Y1099D01*
X1668Y1101D01*
X1666Y1101D01*
X1666Y1103D01*
X1664Y1103D01*
X1664Y1107D01*
X1644Y1107D01*
G37*
D02*
G36*
X1744Y1107D02*
X1744Y1105D01*
X1742Y1105D01*
X1742Y1103D01*
X1740Y1103D01*
X1740Y1101D01*
X1738Y1101D01*
X1738Y1097D01*
X1734Y1097D01*
X1734Y1095D01*
X1732Y1095D01*
X1732Y1093D01*
X1730Y1093D01*
X1730Y1091D01*
X1726Y1091D01*
X1726Y1089D01*
X1722Y1089D01*
X1722Y1087D01*
X1718Y1087D01*
X1718Y1085D01*
X1708Y1085D01*
X1708Y1083D01*
X1798Y1083D01*
X1798Y1085D01*
X1790Y1085D01*
X1790Y1087D01*
X1784Y1087D01*
X1784Y1089D01*
X1780Y1089D01*
X1780Y1091D01*
X1778Y1091D01*
X1778Y1093D01*
X1774Y1093D01*
X1774Y1095D01*
X1772Y1095D01*
X1772Y1097D01*
X1770Y1097D01*
X1770Y1099D01*
X1768Y1099D01*
X1768Y1101D01*
X1766Y1101D01*
X1766Y1103D01*
X1764Y1103D01*
X1764Y1107D01*
X1744Y1107D01*
G37*
D02*
G36*
X1500Y1083D02*
X1500Y1081D01*
X2104Y1081D01*
X2104Y1083D01*
X1500Y1083D01*
G37*
D02*
G36*
X1500Y1083D02*
X1500Y1081D01*
X2104Y1081D01*
X2104Y1083D01*
X1500Y1083D01*
G37*
D02*
G36*
X1500Y1083D02*
X1500Y1081D01*
X2104Y1081D01*
X2104Y1083D01*
X1500Y1083D01*
G37*
D02*
G36*
X1500Y1083D02*
X1500Y1081D01*
X2104Y1081D01*
X2104Y1083D01*
X1500Y1083D01*
G37*
D02*
G36*
X1500Y1081D02*
X1500Y1077D01*
X1766Y1077D01*
X1766Y1075D01*
X1772Y1075D01*
X1772Y1073D01*
X1776Y1073D01*
X1776Y1071D01*
X1778Y1071D01*
X1778Y1069D01*
X1782Y1069D01*
X1782Y1067D01*
X1784Y1067D01*
X1784Y1065D01*
X1786Y1065D01*
X1786Y1063D01*
X1788Y1063D01*
X1788Y1061D01*
X1790Y1061D01*
X1790Y1059D01*
X1792Y1059D01*
X1792Y1055D01*
X1794Y1055D01*
X1794Y1053D01*
X1796Y1053D01*
X1796Y1049D01*
X1798Y1049D01*
X1798Y1041D01*
X1800Y1041D01*
X1800Y1019D01*
X1798Y1019D01*
X1798Y1013D01*
X1796Y1013D01*
X1796Y1009D01*
X1794Y1009D01*
X1794Y1005D01*
X1792Y1005D01*
X1792Y1003D01*
X1790Y1003D01*
X1790Y1001D01*
X1788Y1001D01*
X1788Y997D01*
X1784Y997D01*
X1784Y995D01*
X1782Y995D01*
X1782Y993D01*
X1780Y993D01*
X1780Y991D01*
X1776Y991D01*
X1776Y989D01*
X1772Y989D01*
X1772Y987D01*
X1768Y987D01*
X1768Y985D01*
X1758Y985D01*
X1758Y983D01*
X2054Y983D01*
X2054Y1031D01*
X2056Y1031D01*
X2056Y1033D01*
X2118Y1033D01*
X2118Y1053D01*
X2116Y1053D01*
X2116Y1057D01*
X2114Y1057D01*
X2114Y1059D01*
X2112Y1059D01*
X2112Y1063D01*
X2110Y1063D01*
X2110Y1065D01*
X2108Y1065D01*
X2108Y1071D01*
X2106Y1071D01*
X2106Y1081D01*
X1500Y1081D01*
G37*
D02*
G36*
X1500Y1077D02*
X1500Y1063D01*
X1520Y1063D01*
X1520Y1065D01*
X1522Y1065D01*
X1522Y1067D01*
X1526Y1067D01*
X1526Y1069D01*
X1528Y1069D01*
X1528Y1071D01*
X1532Y1071D01*
X1532Y1073D01*
X1536Y1073D01*
X1536Y1075D01*
X1542Y1075D01*
X1542Y1077D01*
X1500Y1077D01*
G37*
D02*
G36*
X1566Y1077D02*
X1566Y1075D01*
X1572Y1075D01*
X1572Y1073D01*
X1576Y1073D01*
X1576Y1071D01*
X1578Y1071D01*
X1578Y1069D01*
X1582Y1069D01*
X1582Y1067D01*
X1584Y1067D01*
X1584Y1065D01*
X1586Y1065D01*
X1586Y1063D01*
X1588Y1063D01*
X1588Y1061D01*
X1590Y1061D01*
X1590Y1059D01*
X1592Y1059D01*
X1592Y1055D01*
X1614Y1055D01*
X1614Y1057D01*
X1616Y1057D01*
X1616Y1059D01*
X1618Y1059D01*
X1618Y1063D01*
X1620Y1063D01*
X1620Y1065D01*
X1622Y1065D01*
X1622Y1067D01*
X1626Y1067D01*
X1626Y1069D01*
X1628Y1069D01*
X1628Y1071D01*
X1632Y1071D01*
X1632Y1073D01*
X1636Y1073D01*
X1636Y1075D01*
X1642Y1075D01*
X1642Y1077D01*
X1566Y1077D01*
G37*
D02*
G36*
X1666Y1077D02*
X1666Y1075D01*
X1672Y1075D01*
X1672Y1073D01*
X1676Y1073D01*
X1676Y1071D01*
X1678Y1071D01*
X1678Y1069D01*
X1682Y1069D01*
X1682Y1067D01*
X1684Y1067D01*
X1684Y1065D01*
X1686Y1065D01*
X1686Y1063D01*
X1688Y1063D01*
X1688Y1061D01*
X1690Y1061D01*
X1690Y1059D01*
X1692Y1059D01*
X1692Y1055D01*
X1714Y1055D01*
X1714Y1057D01*
X1716Y1057D01*
X1716Y1059D01*
X1718Y1059D01*
X1718Y1063D01*
X1720Y1063D01*
X1720Y1065D01*
X1722Y1065D01*
X1722Y1067D01*
X1726Y1067D01*
X1726Y1069D01*
X1728Y1069D01*
X1728Y1071D01*
X1732Y1071D01*
X1732Y1073D01*
X1736Y1073D01*
X1736Y1075D01*
X1742Y1075D01*
X1742Y1077D01*
X1666Y1077D01*
G37*
D02*
G36*
X1594Y1007D02*
X1594Y1005D01*
X1592Y1005D01*
X1592Y1003D01*
X1590Y1003D01*
X1590Y1001D01*
X1588Y1001D01*
X1588Y997D01*
X1584Y997D01*
X1584Y995D01*
X1582Y995D01*
X1582Y993D01*
X1580Y993D01*
X1580Y991D01*
X1576Y991D01*
X1576Y989D01*
X1572Y989D01*
X1572Y987D01*
X1568Y987D01*
X1568Y985D01*
X1558Y985D01*
X1558Y983D01*
X1648Y983D01*
X1648Y985D01*
X1640Y985D01*
X1640Y987D01*
X1634Y987D01*
X1634Y989D01*
X1630Y989D01*
X1630Y991D01*
X1628Y991D01*
X1628Y993D01*
X1624Y993D01*
X1624Y995D01*
X1622Y995D01*
X1622Y997D01*
X1620Y997D01*
X1620Y999D01*
X1618Y999D01*
X1618Y1001D01*
X1616Y1001D01*
X1616Y1003D01*
X1614Y1003D01*
X1614Y1007D01*
X1594Y1007D01*
G37*
D02*
G36*
X1694Y1007D02*
X1694Y1005D01*
X1692Y1005D01*
X1692Y1003D01*
X1690Y1003D01*
X1690Y1001D01*
X1688Y1001D01*
X1688Y997D01*
X1684Y997D01*
X1684Y995D01*
X1682Y995D01*
X1682Y993D01*
X1680Y993D01*
X1680Y991D01*
X1676Y991D01*
X1676Y989D01*
X1672Y989D01*
X1672Y987D01*
X1668Y987D01*
X1668Y985D01*
X1658Y985D01*
X1658Y983D01*
X1748Y983D01*
X1748Y985D01*
X1740Y985D01*
X1740Y987D01*
X1734Y987D01*
X1734Y989D01*
X1730Y989D01*
X1730Y991D01*
X1728Y991D01*
X1728Y993D01*
X1724Y993D01*
X1724Y995D01*
X1722Y995D01*
X1722Y997D01*
X1720Y997D01*
X1720Y999D01*
X1718Y999D01*
X1718Y1001D01*
X1716Y1001D01*
X1716Y1003D01*
X1714Y1003D01*
X1714Y1007D01*
X1694Y1007D01*
G37*
D02*
G36*
X1526Y985D02*
X1526Y983D01*
X1548Y983D01*
X1548Y985D01*
X1526Y985D01*
G37*
D02*
G36*
X1526Y983D02*
X1526Y981D01*
X2054Y981D01*
X2054Y983D01*
X1526Y983D01*
G37*
D02*
G36*
X1526Y983D02*
X1526Y981D01*
X2054Y981D01*
X2054Y983D01*
X1526Y983D01*
G37*
D02*
G36*
X1526Y983D02*
X1526Y981D01*
X2054Y981D01*
X2054Y983D01*
X1526Y983D01*
G37*
D02*
G36*
X1526Y983D02*
X1526Y981D01*
X2054Y981D01*
X2054Y983D01*
X1526Y983D01*
G37*
D02*
G36*
X1526Y981D02*
X1526Y971D01*
X1528Y971D01*
X1528Y967D01*
X1530Y967D01*
X1530Y963D01*
X1532Y963D01*
X1532Y959D01*
X1534Y959D01*
X1534Y955D01*
X1536Y955D01*
X1536Y951D01*
X1538Y951D01*
X1538Y947D01*
X1540Y947D01*
X1540Y943D01*
X1542Y943D01*
X1542Y939D01*
X1544Y939D01*
X1544Y935D01*
X1546Y935D01*
X1546Y929D01*
X1548Y929D01*
X1548Y927D01*
X1688Y927D01*
X1688Y929D01*
X1844Y929D01*
X1844Y931D01*
X2002Y931D01*
X2002Y933D01*
X2014Y933D01*
X2014Y935D01*
X2016Y935D01*
X2016Y939D01*
X2018Y939D01*
X2018Y941D01*
X2020Y941D01*
X2020Y943D01*
X2022Y943D01*
X2022Y947D01*
X2024Y947D01*
X2024Y949D01*
X2026Y949D01*
X2026Y951D01*
X2028Y951D01*
X2028Y955D01*
X2030Y955D01*
X2030Y957D01*
X2032Y957D01*
X2032Y959D01*
X2034Y959D01*
X2034Y963D01*
X2036Y963D01*
X2036Y965D01*
X2038Y965D01*
X2038Y967D01*
X2040Y967D01*
X2040Y971D01*
X2042Y971D01*
X2042Y973D01*
X2044Y973D01*
X2044Y975D01*
X2046Y975D01*
X2046Y977D01*
X2048Y977D01*
X2048Y979D01*
X2052Y979D01*
X2052Y981D01*
X1526Y981D01*
G37*
D02*
G36*
X110Y1261D02*
X110Y1259D01*
X100Y1259D01*
X100Y1257D01*
X94Y1257D01*
X94Y1255D01*
X90Y1255D01*
X90Y1253D01*
X86Y1253D01*
X86Y1251D01*
X82Y1251D01*
X82Y1249D01*
X80Y1249D01*
X80Y1247D01*
X76Y1247D01*
X76Y1245D01*
X74Y1245D01*
X74Y1243D01*
X72Y1243D01*
X72Y1241D01*
X70Y1241D01*
X70Y1239D01*
X68Y1239D01*
X68Y1237D01*
X66Y1237D01*
X66Y1233D01*
X64Y1233D01*
X64Y1231D01*
X62Y1231D01*
X62Y1227D01*
X60Y1227D01*
X60Y1225D01*
X58Y1225D01*
X58Y1221D01*
X56Y1221D01*
X56Y1215D01*
X54Y1215D01*
X54Y1211D01*
X52Y1211D01*
X52Y1205D01*
X50Y1205D01*
X50Y1195D01*
X48Y1195D01*
X48Y1183D01*
X46Y1183D01*
X46Y853D01*
X136Y853D01*
X136Y851D01*
X146Y851D01*
X146Y849D01*
X152Y849D01*
X152Y847D01*
X156Y847D01*
X156Y845D01*
X160Y845D01*
X160Y843D01*
X164Y843D01*
X164Y841D01*
X166Y841D01*
X166Y839D01*
X170Y839D01*
X170Y837D01*
X172Y837D01*
X172Y835D01*
X174Y835D01*
X174Y833D01*
X176Y833D01*
X176Y831D01*
X178Y831D01*
X178Y829D01*
X180Y829D01*
X180Y827D01*
X182Y827D01*
X182Y825D01*
X184Y825D01*
X184Y821D01*
X186Y821D01*
X186Y819D01*
X188Y819D01*
X188Y815D01*
X190Y815D01*
X190Y811D01*
X192Y811D01*
X192Y807D01*
X194Y807D01*
X194Y801D01*
X196Y801D01*
X196Y793D01*
X198Y793D01*
X198Y767D01*
X196Y767D01*
X196Y759D01*
X194Y759D01*
X194Y753D01*
X192Y753D01*
X192Y749D01*
X190Y749D01*
X190Y745D01*
X188Y745D01*
X188Y741D01*
X186Y741D01*
X186Y739D01*
X184Y739D01*
X184Y735D01*
X182Y735D01*
X182Y733D01*
X180Y733D01*
X180Y731D01*
X178Y731D01*
X178Y729D01*
X176Y729D01*
X176Y727D01*
X174Y727D01*
X174Y725D01*
X172Y725D01*
X172Y723D01*
X170Y723D01*
X170Y721D01*
X166Y721D01*
X166Y719D01*
X164Y719D01*
X164Y717D01*
X160Y717D01*
X160Y715D01*
X156Y715D01*
X156Y713D01*
X152Y713D01*
X152Y711D01*
X146Y711D01*
X146Y709D01*
X136Y709D01*
X136Y707D01*
X564Y707D01*
X564Y709D01*
X556Y709D01*
X556Y711D01*
X550Y711D01*
X550Y713D01*
X544Y713D01*
X544Y715D01*
X540Y715D01*
X540Y717D01*
X538Y717D01*
X538Y719D01*
X534Y719D01*
X534Y721D01*
X532Y721D01*
X532Y723D01*
X528Y723D01*
X528Y725D01*
X526Y725D01*
X526Y727D01*
X524Y727D01*
X524Y729D01*
X522Y729D01*
X522Y731D01*
X520Y731D01*
X520Y733D01*
X518Y733D01*
X518Y737D01*
X516Y737D01*
X516Y739D01*
X514Y739D01*
X514Y743D01*
X512Y743D01*
X512Y745D01*
X510Y745D01*
X510Y749D01*
X508Y749D01*
X508Y755D01*
X506Y755D01*
X506Y761D01*
X504Y761D01*
X504Y771D01*
X502Y771D01*
X502Y789D01*
X504Y789D01*
X504Y799D01*
X506Y799D01*
X506Y805D01*
X508Y805D01*
X508Y811D01*
X510Y811D01*
X510Y815D01*
X512Y815D01*
X512Y817D01*
X514Y817D01*
X514Y821D01*
X516Y821D01*
X516Y823D01*
X518Y823D01*
X518Y827D01*
X520Y827D01*
X520Y829D01*
X522Y829D01*
X522Y831D01*
X524Y831D01*
X524Y833D01*
X526Y833D01*
X526Y835D01*
X528Y835D01*
X528Y837D01*
X532Y837D01*
X532Y839D01*
X534Y839D01*
X534Y859D01*
X222Y859D01*
X222Y861D01*
X216Y861D01*
X216Y863D01*
X212Y863D01*
X212Y865D01*
X208Y865D01*
X208Y867D01*
X206Y867D01*
X206Y869D01*
X202Y869D01*
X202Y871D01*
X200Y871D01*
X200Y875D01*
X198Y875D01*
X198Y877D01*
X196Y877D01*
X196Y881D01*
X194Y881D01*
X194Y885D01*
X192Y885D01*
X192Y889D01*
X190Y889D01*
X190Y895D01*
X188Y895D01*
X188Y899D01*
X186Y899D01*
X186Y903D01*
X184Y903D01*
X184Y909D01*
X182Y909D01*
X182Y913D01*
X180Y913D01*
X180Y917D01*
X178Y917D01*
X178Y923D01*
X176Y923D01*
X176Y927D01*
X174Y927D01*
X174Y933D01*
X172Y933D01*
X172Y937D01*
X170Y937D01*
X170Y941D01*
X168Y941D01*
X168Y947D01*
X166Y947D01*
X166Y951D01*
X164Y951D01*
X164Y955D01*
X162Y955D01*
X162Y961D01*
X160Y961D01*
X160Y965D01*
X158Y965D01*
X158Y971D01*
X156Y971D01*
X156Y977D01*
X154Y977D01*
X154Y983D01*
X128Y983D01*
X128Y1077D01*
X192Y1077D01*
X192Y1097D01*
X190Y1097D01*
X190Y1101D01*
X188Y1101D01*
X188Y1103D01*
X186Y1103D01*
X186Y1107D01*
X184Y1107D01*
X184Y1109D01*
X182Y1109D01*
X182Y1115D01*
X180Y1115D01*
X180Y1123D01*
X178Y1123D01*
X178Y1137D01*
X180Y1137D01*
X180Y1145D01*
X182Y1145D01*
X182Y1151D01*
X184Y1151D01*
X184Y1153D01*
X186Y1153D01*
X186Y1157D01*
X188Y1157D01*
X188Y1159D01*
X190Y1159D01*
X190Y1163D01*
X192Y1163D01*
X192Y1165D01*
X196Y1165D01*
X196Y1167D01*
X198Y1167D01*
X198Y1169D01*
X200Y1169D01*
X200Y1171D01*
X204Y1171D01*
X204Y1173D01*
X210Y1173D01*
X210Y1179D01*
X212Y1179D01*
X212Y1185D01*
X214Y1185D01*
X214Y1189D01*
X216Y1189D01*
X216Y1193D01*
X218Y1193D01*
X218Y1197D01*
X220Y1197D01*
X220Y1199D01*
X222Y1199D01*
X222Y1203D01*
X224Y1203D01*
X224Y1207D01*
X226Y1207D01*
X226Y1209D01*
X228Y1209D01*
X228Y1213D01*
X230Y1213D01*
X230Y1215D01*
X232Y1215D01*
X232Y1219D01*
X234Y1219D01*
X234Y1223D01*
X236Y1223D01*
X236Y1225D01*
X238Y1225D01*
X238Y1229D01*
X240Y1229D01*
X240Y1233D01*
X242Y1233D01*
X242Y1235D01*
X244Y1235D01*
X244Y1239D01*
X246Y1239D01*
X246Y1241D01*
X248Y1241D01*
X248Y1261D01*
X110Y1261D01*
G37*
D02*
G36*
X46Y853D02*
X46Y821D01*
X66Y821D01*
X66Y823D01*
X68Y823D01*
X68Y827D01*
X70Y827D01*
X70Y829D01*
X72Y829D01*
X72Y831D01*
X74Y831D01*
X74Y833D01*
X76Y833D01*
X76Y835D01*
X78Y835D01*
X78Y837D01*
X82Y837D01*
X82Y839D01*
X84Y839D01*
X84Y841D01*
X88Y841D01*
X88Y843D01*
X90Y843D01*
X90Y845D01*
X94Y845D01*
X94Y847D01*
X100Y847D01*
X100Y849D01*
X106Y849D01*
X106Y851D01*
X114Y851D01*
X114Y853D01*
X46Y853D01*
G37*
D02*
G36*
X46Y739D02*
X46Y707D01*
X114Y707D01*
X114Y709D01*
X106Y709D01*
X106Y711D01*
X100Y711D01*
X100Y713D01*
X94Y713D01*
X94Y715D01*
X90Y715D01*
X90Y717D01*
X88Y717D01*
X88Y719D01*
X84Y719D01*
X84Y721D01*
X82Y721D01*
X82Y723D01*
X78Y723D01*
X78Y725D01*
X76Y725D01*
X76Y727D01*
X74Y727D01*
X74Y729D01*
X72Y729D01*
X72Y731D01*
X70Y731D01*
X70Y733D01*
X68Y733D01*
X68Y737D01*
X66Y737D01*
X66Y739D01*
X46Y739D01*
G37*
D02*
G36*
X626Y729D02*
X626Y727D01*
X624Y727D01*
X624Y725D01*
X622Y725D01*
X622Y723D01*
X620Y723D01*
X620Y721D01*
X616Y721D01*
X616Y719D01*
X614Y719D01*
X614Y717D01*
X610Y717D01*
X610Y715D01*
X606Y715D01*
X606Y713D01*
X602Y713D01*
X602Y711D01*
X596Y711D01*
X596Y709D01*
X586Y709D01*
X586Y707D01*
X646Y707D01*
X646Y729D01*
X626Y729D01*
G37*
D02*
G36*
X46Y707D02*
X46Y705D01*
X646Y705D01*
X646Y707D01*
X46Y707D01*
G37*
D02*
G36*
X46Y707D02*
X46Y705D01*
X646Y705D01*
X646Y707D01*
X46Y707D01*
G37*
D02*
G36*
X46Y707D02*
X46Y705D01*
X646Y705D01*
X646Y707D01*
X46Y707D01*
G37*
D02*
G36*
X46Y705D02*
X46Y583D01*
X624Y583D01*
X624Y581D01*
X632Y581D01*
X632Y579D01*
X638Y579D01*
X638Y577D01*
X642Y577D01*
X642Y575D01*
X646Y575D01*
X646Y573D01*
X648Y573D01*
X648Y571D01*
X650Y571D01*
X650Y569D01*
X652Y569D01*
X652Y567D01*
X654Y567D01*
X654Y565D01*
X674Y565D01*
X674Y573D01*
X672Y573D01*
X672Y577D01*
X670Y577D01*
X670Y581D01*
X668Y581D01*
X668Y585D01*
X666Y585D01*
X666Y589D01*
X664Y589D01*
X664Y593D01*
X662Y593D01*
X662Y597D01*
X660Y597D01*
X660Y601D01*
X658Y601D01*
X658Y605D01*
X656Y605D01*
X656Y609D01*
X654Y609D01*
X654Y613D01*
X652Y613D01*
X652Y617D01*
X650Y617D01*
X650Y621D01*
X648Y621D01*
X648Y627D01*
X646Y627D01*
X646Y705D01*
X46Y705D01*
G37*
D02*
G36*
X46Y583D02*
X46Y487D01*
X152Y487D01*
X152Y485D01*
X162Y485D01*
X162Y483D01*
X170Y483D01*
X170Y481D01*
X174Y481D01*
X174Y479D01*
X180Y479D01*
X180Y477D01*
X184Y477D01*
X184Y475D01*
X186Y475D01*
X186Y473D01*
X190Y473D01*
X190Y471D01*
X194Y471D01*
X194Y469D01*
X196Y469D01*
X196Y467D01*
X198Y467D01*
X198Y465D01*
X202Y465D01*
X202Y463D01*
X204Y463D01*
X204Y461D01*
X206Y461D01*
X206Y459D01*
X226Y459D01*
X226Y465D01*
X228Y465D01*
X228Y471D01*
X230Y471D01*
X230Y475D01*
X232Y475D01*
X232Y479D01*
X234Y479D01*
X234Y481D01*
X236Y481D01*
X236Y483D01*
X238Y483D01*
X238Y485D01*
X242Y485D01*
X242Y487D01*
X248Y487D01*
X248Y489D01*
X576Y489D01*
X576Y511D01*
X574Y511D01*
X574Y513D01*
X572Y513D01*
X572Y519D01*
X570Y519D01*
X570Y529D01*
X568Y529D01*
X568Y539D01*
X570Y539D01*
X570Y547D01*
X572Y547D01*
X572Y553D01*
X574Y553D01*
X574Y557D01*
X576Y557D01*
X576Y561D01*
X578Y561D01*
X578Y563D01*
X580Y563D01*
X580Y565D01*
X582Y565D01*
X582Y569D01*
X586Y569D01*
X586Y571D01*
X588Y571D01*
X588Y573D01*
X590Y573D01*
X590Y575D01*
X594Y575D01*
X594Y577D01*
X598Y577D01*
X598Y579D01*
X602Y579D01*
X602Y581D01*
X610Y581D01*
X610Y583D01*
X46Y583D01*
G37*
D02*
G36*
X46Y487D02*
X46Y449D01*
X66Y449D01*
X66Y451D01*
X68Y451D01*
X68Y453D01*
X70Y453D01*
X70Y455D01*
X72Y455D01*
X72Y457D01*
X74Y457D01*
X74Y459D01*
X76Y459D01*
X76Y461D01*
X78Y461D01*
X78Y463D01*
X80Y463D01*
X80Y465D01*
X82Y465D01*
X82Y467D01*
X84Y467D01*
X84Y469D01*
X88Y469D01*
X88Y471D01*
X90Y471D01*
X90Y473D01*
X94Y473D01*
X94Y475D01*
X98Y475D01*
X98Y477D01*
X102Y477D01*
X102Y479D01*
X106Y479D01*
X106Y481D01*
X112Y481D01*
X112Y483D01*
X120Y483D01*
X120Y485D01*
X130Y485D01*
X130Y487D01*
X46Y487D01*
G37*
D02*
G36*
X3410Y1261D02*
X3410Y1241D01*
X3412Y1241D01*
X3412Y1237D01*
X3414Y1237D01*
X3414Y1233D01*
X3416Y1233D01*
X3416Y1229D01*
X3418Y1229D01*
X3418Y1223D01*
X3420Y1223D01*
X3420Y1219D01*
X3422Y1219D01*
X3422Y1215D01*
X3424Y1215D01*
X3424Y1209D01*
X3426Y1209D01*
X3426Y1205D01*
X3428Y1205D01*
X3428Y1201D01*
X3430Y1201D01*
X3430Y1195D01*
X3432Y1195D01*
X3432Y1191D01*
X3434Y1191D01*
X3434Y1187D01*
X3436Y1187D01*
X3436Y1181D01*
X3438Y1181D01*
X3438Y1177D01*
X3440Y1177D01*
X3440Y1173D01*
X3442Y1173D01*
X3442Y1167D01*
X3444Y1167D01*
X3444Y1163D01*
X3446Y1163D01*
X3446Y1159D01*
X3448Y1159D01*
X3448Y1153D01*
X3450Y1153D01*
X3450Y1149D01*
X3452Y1149D01*
X3452Y1145D01*
X3454Y1145D01*
X3454Y1139D01*
X3456Y1139D01*
X3456Y1129D01*
X3748Y1129D01*
X3748Y1127D01*
X3754Y1127D01*
X3754Y1125D01*
X3758Y1125D01*
X3758Y1123D01*
X3762Y1123D01*
X3762Y1121D01*
X3764Y1121D01*
X3764Y1119D01*
X3766Y1119D01*
X3766Y1117D01*
X3768Y1117D01*
X3768Y1115D01*
X3770Y1115D01*
X3770Y1113D01*
X3772Y1113D01*
X3772Y1111D01*
X3774Y1111D01*
X3774Y1109D01*
X3776Y1109D01*
X3776Y1105D01*
X3778Y1105D01*
X3778Y1101D01*
X3780Y1101D01*
X3780Y1095D01*
X3782Y1095D01*
X3782Y1071D01*
X3780Y1071D01*
X3780Y1065D01*
X3778Y1065D01*
X3778Y1061D01*
X3776Y1061D01*
X3776Y1057D01*
X3774Y1057D01*
X3774Y1055D01*
X3772Y1055D01*
X3772Y1053D01*
X3770Y1053D01*
X3770Y1049D01*
X3766Y1049D01*
X3766Y1047D01*
X3764Y1047D01*
X3764Y1045D01*
X3762Y1045D01*
X3762Y1043D01*
X3758Y1043D01*
X3758Y1041D01*
X3754Y1041D01*
X3754Y1039D01*
X3748Y1039D01*
X3748Y1037D01*
X3738Y1037D01*
X3738Y1035D01*
X3876Y1035D01*
X3876Y1195D01*
X3874Y1195D01*
X3874Y1205D01*
X3872Y1205D01*
X3872Y1211D01*
X3870Y1211D01*
X3870Y1217D01*
X3868Y1217D01*
X3868Y1221D01*
X3866Y1221D01*
X3866Y1225D01*
X3864Y1225D01*
X3864Y1227D01*
X3862Y1227D01*
X3862Y1231D01*
X3860Y1231D01*
X3860Y1233D01*
X3858Y1233D01*
X3858Y1235D01*
X3856Y1235D01*
X3856Y1237D01*
X3854Y1237D01*
X3854Y1239D01*
X3852Y1239D01*
X3852Y1241D01*
X3850Y1241D01*
X3850Y1243D01*
X3848Y1243D01*
X3848Y1245D01*
X3844Y1245D01*
X3844Y1247D01*
X3842Y1247D01*
X3842Y1249D01*
X3838Y1249D01*
X3838Y1251D01*
X3834Y1251D01*
X3834Y1253D01*
X3830Y1253D01*
X3830Y1255D01*
X3826Y1255D01*
X3826Y1257D01*
X3818Y1257D01*
X3818Y1259D01*
X3810Y1259D01*
X3810Y1261D01*
X3410Y1261D01*
G37*
D02*
G36*
X3456Y1129D02*
X3456Y1125D01*
X3458Y1125D01*
X3458Y1123D01*
X3462Y1123D01*
X3462Y1121D01*
X3464Y1121D01*
X3464Y1119D01*
X3466Y1119D01*
X3466Y1117D01*
X3468Y1117D01*
X3468Y1115D01*
X3470Y1115D01*
X3470Y1113D01*
X3472Y1113D01*
X3472Y1111D01*
X3474Y1111D01*
X3474Y1109D01*
X3476Y1109D01*
X3476Y1105D01*
X3496Y1105D01*
X3496Y1109D01*
X3498Y1109D01*
X3498Y1111D01*
X3500Y1111D01*
X3500Y1115D01*
X3502Y1115D01*
X3502Y1117D01*
X3504Y1117D01*
X3504Y1119D01*
X3508Y1119D01*
X3508Y1121D01*
X3510Y1121D01*
X3510Y1123D01*
X3514Y1123D01*
X3514Y1125D01*
X3518Y1125D01*
X3518Y1127D01*
X3524Y1127D01*
X3524Y1129D01*
X3456Y1129D01*
G37*
D02*
G36*
X3548Y1129D02*
X3548Y1127D01*
X3554Y1127D01*
X3554Y1125D01*
X3558Y1125D01*
X3558Y1123D01*
X3562Y1123D01*
X3562Y1121D01*
X3564Y1121D01*
X3564Y1119D01*
X3566Y1119D01*
X3566Y1117D01*
X3568Y1117D01*
X3568Y1115D01*
X3570Y1115D01*
X3570Y1113D01*
X3572Y1113D01*
X3572Y1111D01*
X3574Y1111D01*
X3574Y1109D01*
X3576Y1109D01*
X3576Y1105D01*
X3596Y1105D01*
X3596Y1109D01*
X3598Y1109D01*
X3598Y1111D01*
X3600Y1111D01*
X3600Y1115D01*
X3602Y1115D01*
X3602Y1117D01*
X3604Y1117D01*
X3604Y1119D01*
X3608Y1119D01*
X3608Y1121D01*
X3610Y1121D01*
X3610Y1123D01*
X3614Y1123D01*
X3614Y1125D01*
X3618Y1125D01*
X3618Y1127D01*
X3624Y1127D01*
X3624Y1129D01*
X3548Y1129D01*
G37*
D02*
G36*
X3648Y1129D02*
X3648Y1127D01*
X3654Y1127D01*
X3654Y1125D01*
X3658Y1125D01*
X3658Y1123D01*
X3662Y1123D01*
X3662Y1121D01*
X3664Y1121D01*
X3664Y1119D01*
X3666Y1119D01*
X3666Y1117D01*
X3668Y1117D01*
X3668Y1115D01*
X3670Y1115D01*
X3670Y1113D01*
X3672Y1113D01*
X3672Y1111D01*
X3674Y1111D01*
X3674Y1109D01*
X3676Y1109D01*
X3676Y1105D01*
X3696Y1105D01*
X3696Y1109D01*
X3698Y1109D01*
X3698Y1111D01*
X3700Y1111D01*
X3700Y1115D01*
X3702Y1115D01*
X3702Y1117D01*
X3704Y1117D01*
X3704Y1119D01*
X3708Y1119D01*
X3708Y1121D01*
X3710Y1121D01*
X3710Y1123D01*
X3714Y1123D01*
X3714Y1125D01*
X3718Y1125D01*
X3718Y1127D01*
X3724Y1127D01*
X3724Y1129D01*
X3648Y1129D01*
G37*
D02*
G36*
X3476Y1059D02*
X3476Y1057D01*
X3474Y1057D01*
X3474Y1055D01*
X3472Y1055D01*
X3472Y1053D01*
X3470Y1053D01*
X3470Y1049D01*
X3466Y1049D01*
X3466Y1047D01*
X3464Y1047D01*
X3464Y1045D01*
X3462Y1045D01*
X3462Y1043D01*
X3458Y1043D01*
X3458Y1041D01*
X3454Y1041D01*
X3454Y1039D01*
X3448Y1039D01*
X3448Y1037D01*
X3438Y1037D01*
X3438Y1035D01*
X3534Y1035D01*
X3534Y1037D01*
X3522Y1037D01*
X3522Y1039D01*
X3516Y1039D01*
X3516Y1041D01*
X3514Y1041D01*
X3514Y1043D01*
X3510Y1043D01*
X3510Y1045D01*
X3506Y1045D01*
X3506Y1047D01*
X3504Y1047D01*
X3504Y1049D01*
X3502Y1049D01*
X3502Y1051D01*
X3500Y1051D01*
X3500Y1053D01*
X3498Y1053D01*
X3498Y1057D01*
X3496Y1057D01*
X3496Y1059D01*
X3476Y1059D01*
G37*
D02*
G36*
X3576Y1059D02*
X3576Y1057D01*
X3574Y1057D01*
X3574Y1055D01*
X3572Y1055D01*
X3572Y1053D01*
X3570Y1053D01*
X3570Y1049D01*
X3566Y1049D01*
X3566Y1047D01*
X3564Y1047D01*
X3564Y1045D01*
X3562Y1045D01*
X3562Y1043D01*
X3558Y1043D01*
X3558Y1041D01*
X3554Y1041D01*
X3554Y1039D01*
X3548Y1039D01*
X3548Y1037D01*
X3538Y1037D01*
X3538Y1035D01*
X3634Y1035D01*
X3634Y1037D01*
X3622Y1037D01*
X3622Y1039D01*
X3616Y1039D01*
X3616Y1041D01*
X3614Y1041D01*
X3614Y1043D01*
X3610Y1043D01*
X3610Y1045D01*
X3606Y1045D01*
X3606Y1047D01*
X3604Y1047D01*
X3604Y1049D01*
X3602Y1049D01*
X3602Y1051D01*
X3600Y1051D01*
X3600Y1053D01*
X3598Y1053D01*
X3598Y1057D01*
X3596Y1057D01*
X3596Y1059D01*
X3576Y1059D01*
G37*
D02*
G36*
X3676Y1059D02*
X3676Y1057D01*
X3674Y1057D01*
X3674Y1055D01*
X3672Y1055D01*
X3672Y1053D01*
X3670Y1053D01*
X3670Y1049D01*
X3666Y1049D01*
X3666Y1047D01*
X3664Y1047D01*
X3664Y1045D01*
X3662Y1045D01*
X3662Y1043D01*
X3658Y1043D01*
X3658Y1041D01*
X3654Y1041D01*
X3654Y1039D01*
X3648Y1039D01*
X3648Y1037D01*
X3638Y1037D01*
X3638Y1035D01*
X3734Y1035D01*
X3734Y1037D01*
X3722Y1037D01*
X3722Y1039D01*
X3716Y1039D01*
X3716Y1041D01*
X3714Y1041D01*
X3714Y1043D01*
X3710Y1043D01*
X3710Y1045D01*
X3706Y1045D01*
X3706Y1047D01*
X3704Y1047D01*
X3704Y1049D01*
X3702Y1049D01*
X3702Y1051D01*
X3700Y1051D01*
X3700Y1053D01*
X3698Y1053D01*
X3698Y1057D01*
X3696Y1057D01*
X3696Y1059D01*
X3676Y1059D01*
G37*
D02*
G36*
X3432Y1035D02*
X3432Y1033D01*
X3876Y1033D01*
X3876Y1035D01*
X3432Y1035D01*
G37*
D02*
G36*
X3432Y1035D02*
X3432Y1033D01*
X3876Y1033D01*
X3876Y1035D01*
X3432Y1035D01*
G37*
D02*
G36*
X3432Y1035D02*
X3432Y1033D01*
X3876Y1033D01*
X3876Y1035D01*
X3432Y1035D01*
G37*
D02*
G36*
X3432Y1035D02*
X3432Y1033D01*
X3876Y1033D01*
X3876Y1035D01*
X3432Y1035D01*
G37*
D02*
G36*
X3432Y1033D02*
X3432Y1029D01*
X3698Y1029D01*
X3698Y1027D01*
X3704Y1027D01*
X3704Y1025D01*
X3708Y1025D01*
X3708Y1023D01*
X3712Y1023D01*
X3712Y1021D01*
X3714Y1021D01*
X3714Y1019D01*
X3716Y1019D01*
X3716Y1017D01*
X3718Y1017D01*
X3718Y1015D01*
X3720Y1015D01*
X3720Y1013D01*
X3722Y1013D01*
X3722Y1011D01*
X3724Y1011D01*
X3724Y1009D01*
X3726Y1009D01*
X3726Y1005D01*
X3728Y1005D01*
X3728Y1001D01*
X3730Y1001D01*
X3730Y995D01*
X3732Y995D01*
X3732Y971D01*
X3730Y971D01*
X3730Y965D01*
X3728Y965D01*
X3728Y961D01*
X3726Y961D01*
X3726Y957D01*
X3724Y957D01*
X3724Y955D01*
X3722Y955D01*
X3722Y953D01*
X3720Y953D01*
X3720Y949D01*
X3716Y949D01*
X3716Y947D01*
X3714Y947D01*
X3714Y945D01*
X3712Y945D01*
X3712Y943D01*
X3708Y943D01*
X3708Y941D01*
X3704Y941D01*
X3704Y939D01*
X3698Y939D01*
X3698Y937D01*
X3688Y937D01*
X3688Y935D01*
X3876Y935D01*
X3876Y1033D01*
X3432Y1033D01*
G37*
D02*
G36*
X3432Y1029D02*
X3432Y1015D01*
X3452Y1015D01*
X3452Y1017D01*
X3454Y1017D01*
X3454Y1019D01*
X3458Y1019D01*
X3458Y1021D01*
X3460Y1021D01*
X3460Y1023D01*
X3464Y1023D01*
X3464Y1025D01*
X3468Y1025D01*
X3468Y1027D01*
X3474Y1027D01*
X3474Y1029D01*
X3432Y1029D01*
G37*
D02*
G36*
X3498Y1029D02*
X3498Y1027D01*
X3504Y1027D01*
X3504Y1025D01*
X3508Y1025D01*
X3508Y1023D01*
X3512Y1023D01*
X3512Y1021D01*
X3514Y1021D01*
X3514Y1019D01*
X3516Y1019D01*
X3516Y1017D01*
X3518Y1017D01*
X3518Y1015D01*
X3520Y1015D01*
X3520Y1013D01*
X3522Y1013D01*
X3522Y1011D01*
X3524Y1011D01*
X3524Y1009D01*
X3526Y1009D01*
X3526Y1005D01*
X3546Y1005D01*
X3546Y1009D01*
X3548Y1009D01*
X3548Y1011D01*
X3550Y1011D01*
X3550Y1015D01*
X3552Y1015D01*
X3552Y1017D01*
X3554Y1017D01*
X3554Y1019D01*
X3558Y1019D01*
X3558Y1021D01*
X3560Y1021D01*
X3560Y1023D01*
X3564Y1023D01*
X3564Y1025D01*
X3568Y1025D01*
X3568Y1027D01*
X3574Y1027D01*
X3574Y1029D01*
X3498Y1029D01*
G37*
D02*
G36*
X3598Y1029D02*
X3598Y1027D01*
X3604Y1027D01*
X3604Y1025D01*
X3608Y1025D01*
X3608Y1023D01*
X3612Y1023D01*
X3612Y1021D01*
X3614Y1021D01*
X3614Y1019D01*
X3616Y1019D01*
X3616Y1017D01*
X3618Y1017D01*
X3618Y1015D01*
X3620Y1015D01*
X3620Y1013D01*
X3622Y1013D01*
X3622Y1011D01*
X3624Y1011D01*
X3624Y1009D01*
X3626Y1009D01*
X3626Y1005D01*
X3646Y1005D01*
X3646Y1009D01*
X3648Y1009D01*
X3648Y1011D01*
X3650Y1011D01*
X3650Y1015D01*
X3652Y1015D01*
X3652Y1017D01*
X3654Y1017D01*
X3654Y1019D01*
X3658Y1019D01*
X3658Y1021D01*
X3660Y1021D01*
X3660Y1023D01*
X3664Y1023D01*
X3664Y1025D01*
X3668Y1025D01*
X3668Y1027D01*
X3674Y1027D01*
X3674Y1029D01*
X3598Y1029D01*
G37*
D02*
G36*
X3526Y959D02*
X3526Y957D01*
X3524Y957D01*
X3524Y955D01*
X3522Y955D01*
X3522Y953D01*
X3520Y953D01*
X3520Y949D01*
X3516Y949D01*
X3516Y947D01*
X3514Y947D01*
X3514Y945D01*
X3512Y945D01*
X3512Y943D01*
X3508Y943D01*
X3508Y941D01*
X3504Y941D01*
X3504Y939D01*
X3498Y939D01*
X3498Y937D01*
X3488Y937D01*
X3488Y935D01*
X3584Y935D01*
X3584Y937D01*
X3572Y937D01*
X3572Y939D01*
X3566Y939D01*
X3566Y941D01*
X3564Y941D01*
X3564Y943D01*
X3560Y943D01*
X3560Y945D01*
X3556Y945D01*
X3556Y947D01*
X3554Y947D01*
X3554Y949D01*
X3552Y949D01*
X3552Y951D01*
X3550Y951D01*
X3550Y953D01*
X3548Y953D01*
X3548Y957D01*
X3546Y957D01*
X3546Y959D01*
X3526Y959D01*
G37*
D02*
G36*
X3626Y959D02*
X3626Y957D01*
X3624Y957D01*
X3624Y955D01*
X3622Y955D01*
X3622Y953D01*
X3620Y953D01*
X3620Y949D01*
X3616Y949D01*
X3616Y947D01*
X3614Y947D01*
X3614Y945D01*
X3612Y945D01*
X3612Y943D01*
X3608Y943D01*
X3608Y941D01*
X3604Y941D01*
X3604Y939D01*
X3598Y939D01*
X3598Y937D01*
X3588Y937D01*
X3588Y935D01*
X3684Y935D01*
X3684Y937D01*
X3672Y937D01*
X3672Y939D01*
X3666Y939D01*
X3666Y941D01*
X3664Y941D01*
X3664Y943D01*
X3660Y943D01*
X3660Y945D01*
X3656Y945D01*
X3656Y947D01*
X3654Y947D01*
X3654Y949D01*
X3652Y949D01*
X3652Y951D01*
X3650Y951D01*
X3650Y953D01*
X3648Y953D01*
X3648Y957D01*
X3646Y957D01*
X3646Y959D01*
X3626Y959D01*
G37*
D02*
G36*
X3432Y951D02*
X3432Y935D01*
X3484Y935D01*
X3484Y937D01*
X3472Y937D01*
X3472Y939D01*
X3466Y939D01*
X3466Y941D01*
X3464Y941D01*
X3464Y943D01*
X3460Y943D01*
X3460Y945D01*
X3456Y945D01*
X3456Y947D01*
X3454Y947D01*
X3454Y949D01*
X3452Y949D01*
X3452Y951D01*
X3432Y951D01*
G37*
D02*
G36*
X3376Y935D02*
X3376Y933D01*
X3876Y933D01*
X3876Y935D01*
X3376Y935D01*
G37*
D02*
G36*
X3376Y935D02*
X3376Y933D01*
X3876Y933D01*
X3876Y935D01*
X3376Y935D01*
G37*
D02*
G36*
X3376Y935D02*
X3376Y933D01*
X3876Y933D01*
X3876Y935D01*
X3376Y935D01*
G37*
D02*
G36*
X3376Y935D02*
X3376Y933D01*
X3876Y933D01*
X3876Y935D01*
X3376Y935D01*
G37*
D02*
G36*
X3374Y933D02*
X3374Y931D01*
X3372Y931D01*
X3372Y929D01*
X3370Y929D01*
X3370Y927D01*
X3366Y927D01*
X3366Y925D01*
X3364Y925D01*
X3364Y923D01*
X3360Y923D01*
X3360Y921D01*
X3356Y921D01*
X3356Y919D01*
X3352Y919D01*
X3352Y917D01*
X3350Y917D01*
X3350Y915D01*
X3346Y915D01*
X3346Y913D01*
X3342Y913D01*
X3342Y911D01*
X3338Y911D01*
X3338Y909D01*
X3336Y909D01*
X3336Y907D01*
X3332Y907D01*
X3332Y905D01*
X3328Y905D01*
X3328Y903D01*
X3324Y903D01*
X3324Y901D01*
X3322Y901D01*
X3322Y899D01*
X3318Y899D01*
X3318Y897D01*
X3314Y897D01*
X3314Y895D01*
X3310Y895D01*
X3310Y893D01*
X3308Y893D01*
X3308Y891D01*
X3304Y891D01*
X3304Y889D01*
X3300Y889D01*
X3300Y887D01*
X3296Y887D01*
X3296Y885D01*
X3294Y885D01*
X3294Y883D01*
X3290Y883D01*
X3290Y881D01*
X3286Y881D01*
X3286Y879D01*
X3282Y879D01*
X3282Y877D01*
X3280Y877D01*
X3280Y875D01*
X3276Y875D01*
X3276Y873D01*
X3272Y873D01*
X3272Y871D01*
X3268Y871D01*
X3268Y869D01*
X3266Y869D01*
X3266Y867D01*
X3262Y867D01*
X3262Y865D01*
X3258Y865D01*
X3258Y863D01*
X3254Y863D01*
X3254Y861D01*
X3252Y861D01*
X3252Y829D01*
X3254Y829D01*
X3254Y805D01*
X3802Y805D01*
X3802Y803D01*
X3808Y803D01*
X3808Y801D01*
X3814Y801D01*
X3814Y799D01*
X3818Y799D01*
X3818Y797D01*
X3822Y797D01*
X3822Y795D01*
X3826Y795D01*
X3826Y793D01*
X3828Y793D01*
X3828Y791D01*
X3830Y791D01*
X3830Y789D01*
X3834Y789D01*
X3834Y787D01*
X3836Y787D01*
X3836Y785D01*
X3838Y785D01*
X3838Y783D01*
X3840Y783D01*
X3840Y781D01*
X3842Y781D01*
X3842Y777D01*
X3844Y777D01*
X3844Y775D01*
X3846Y775D01*
X3846Y773D01*
X3848Y773D01*
X3848Y769D01*
X3850Y769D01*
X3850Y765D01*
X3852Y765D01*
X3852Y761D01*
X3854Y761D01*
X3854Y755D01*
X3856Y755D01*
X3856Y747D01*
X3876Y747D01*
X3876Y933D01*
X3374Y933D01*
G37*
D02*
G36*
X3254Y805D02*
X3254Y769D01*
X3274Y769D01*
X3274Y773D01*
X3276Y773D01*
X3276Y777D01*
X3278Y777D01*
X3278Y779D01*
X3280Y779D01*
X3280Y781D01*
X3282Y781D01*
X3282Y783D01*
X3284Y783D01*
X3284Y785D01*
X3286Y785D01*
X3286Y787D01*
X3288Y787D01*
X3288Y789D01*
X3290Y789D01*
X3290Y791D01*
X3294Y791D01*
X3294Y793D01*
X3296Y793D01*
X3296Y795D01*
X3300Y795D01*
X3300Y797D01*
X3304Y797D01*
X3304Y799D01*
X3308Y799D01*
X3308Y801D01*
X3312Y801D01*
X3312Y803D01*
X3320Y803D01*
X3320Y805D01*
X3254Y805D01*
G37*
D02*
G36*
X3352Y805D02*
X3352Y803D01*
X3358Y803D01*
X3358Y801D01*
X3364Y801D01*
X3364Y799D01*
X3368Y799D01*
X3368Y797D01*
X3372Y797D01*
X3372Y795D01*
X3376Y795D01*
X3376Y793D01*
X3378Y793D01*
X3378Y791D01*
X3380Y791D01*
X3380Y789D01*
X3384Y789D01*
X3384Y787D01*
X3386Y787D01*
X3386Y785D01*
X3388Y785D01*
X3388Y783D01*
X3390Y783D01*
X3390Y781D01*
X3392Y781D01*
X3392Y777D01*
X3394Y777D01*
X3394Y775D01*
X3396Y775D01*
X3396Y773D01*
X3398Y773D01*
X3398Y769D01*
X3400Y769D01*
X3400Y765D01*
X3402Y765D01*
X3402Y761D01*
X3404Y761D01*
X3404Y755D01*
X3406Y755D01*
X3406Y747D01*
X3408Y747D01*
X3408Y719D01*
X3406Y719D01*
X3406Y711D01*
X3404Y711D01*
X3404Y705D01*
X3402Y705D01*
X3402Y701D01*
X3400Y701D01*
X3400Y697D01*
X3398Y697D01*
X3398Y693D01*
X3396Y693D01*
X3396Y691D01*
X3394Y691D01*
X3394Y687D01*
X3392Y687D01*
X3392Y685D01*
X3390Y685D01*
X3390Y683D01*
X3388Y683D01*
X3388Y681D01*
X3386Y681D01*
X3386Y679D01*
X3384Y679D01*
X3384Y677D01*
X3382Y677D01*
X3382Y675D01*
X3378Y675D01*
X3378Y673D01*
X3376Y673D01*
X3376Y671D01*
X3372Y671D01*
X3372Y669D01*
X3368Y669D01*
X3368Y667D01*
X3364Y667D01*
X3364Y665D01*
X3360Y665D01*
X3360Y663D01*
X3352Y663D01*
X3352Y661D01*
X3338Y661D01*
X3338Y659D01*
X3784Y659D01*
X3784Y661D01*
X3770Y661D01*
X3770Y663D01*
X3762Y663D01*
X3762Y665D01*
X3756Y665D01*
X3756Y667D01*
X3752Y667D01*
X3752Y669D01*
X3750Y669D01*
X3750Y671D01*
X3746Y671D01*
X3746Y673D01*
X3742Y673D01*
X3742Y675D01*
X3740Y675D01*
X3740Y677D01*
X3738Y677D01*
X3738Y679D01*
X3736Y679D01*
X3736Y681D01*
X3734Y681D01*
X3734Y683D01*
X3732Y683D01*
X3732Y685D01*
X3730Y685D01*
X3730Y687D01*
X3728Y687D01*
X3728Y689D01*
X3726Y689D01*
X3726Y693D01*
X3724Y693D01*
X3724Y695D01*
X3722Y695D01*
X3722Y699D01*
X3720Y699D01*
X3720Y703D01*
X3718Y703D01*
X3718Y709D01*
X3716Y709D01*
X3716Y715D01*
X3714Y715D01*
X3714Y727D01*
X3712Y727D01*
X3712Y739D01*
X3714Y739D01*
X3714Y751D01*
X3716Y751D01*
X3716Y757D01*
X3718Y757D01*
X3718Y763D01*
X3720Y763D01*
X3720Y767D01*
X3722Y767D01*
X3722Y769D01*
X3724Y769D01*
X3724Y773D01*
X3726Y773D01*
X3726Y777D01*
X3728Y777D01*
X3728Y779D01*
X3730Y779D01*
X3730Y781D01*
X3732Y781D01*
X3732Y783D01*
X3734Y783D01*
X3734Y785D01*
X3736Y785D01*
X3736Y787D01*
X3738Y787D01*
X3738Y789D01*
X3740Y789D01*
X3740Y791D01*
X3744Y791D01*
X3744Y793D01*
X3746Y793D01*
X3746Y795D01*
X3750Y795D01*
X3750Y797D01*
X3754Y797D01*
X3754Y799D01*
X3758Y799D01*
X3758Y801D01*
X3762Y801D01*
X3762Y803D01*
X3770Y803D01*
X3770Y805D01*
X3352Y805D01*
G37*
D02*
G36*
X3856Y719D02*
X3856Y711D01*
X3854Y711D01*
X3854Y705D01*
X3852Y705D01*
X3852Y701D01*
X3850Y701D01*
X3850Y697D01*
X3848Y697D01*
X3848Y693D01*
X3846Y693D01*
X3846Y691D01*
X3844Y691D01*
X3844Y687D01*
X3842Y687D01*
X3842Y685D01*
X3840Y685D01*
X3840Y683D01*
X3838Y683D01*
X3838Y681D01*
X3836Y681D01*
X3836Y679D01*
X3834Y679D01*
X3834Y677D01*
X3832Y677D01*
X3832Y675D01*
X3828Y675D01*
X3828Y673D01*
X3826Y673D01*
X3826Y671D01*
X3822Y671D01*
X3822Y669D01*
X3818Y669D01*
X3818Y667D01*
X3814Y667D01*
X3814Y665D01*
X3810Y665D01*
X3810Y663D01*
X3802Y663D01*
X3802Y661D01*
X3788Y661D01*
X3788Y659D01*
X3876Y659D01*
X3876Y719D01*
X3856Y719D01*
G37*
D02*
G36*
X3256Y693D02*
X3256Y659D01*
X3334Y659D01*
X3334Y661D01*
X3320Y661D01*
X3320Y663D01*
X3312Y663D01*
X3312Y665D01*
X3306Y665D01*
X3306Y667D01*
X3302Y667D01*
X3302Y669D01*
X3300Y669D01*
X3300Y671D01*
X3296Y671D01*
X3296Y673D01*
X3292Y673D01*
X3292Y675D01*
X3290Y675D01*
X3290Y677D01*
X3288Y677D01*
X3288Y679D01*
X3286Y679D01*
X3286Y681D01*
X3284Y681D01*
X3284Y683D01*
X3282Y683D01*
X3282Y685D01*
X3280Y685D01*
X3280Y687D01*
X3278Y687D01*
X3278Y689D01*
X3276Y689D01*
X3276Y693D01*
X3256Y693D01*
G37*
D02*
G36*
X3256Y659D02*
X3256Y657D01*
X3876Y657D01*
X3876Y659D01*
X3256Y659D01*
G37*
D02*
G36*
X3256Y659D02*
X3256Y657D01*
X3876Y657D01*
X3876Y659D01*
X3256Y659D01*
G37*
D02*
G36*
X3256Y659D02*
X3256Y657D01*
X3876Y657D01*
X3876Y659D01*
X3256Y659D01*
G37*
D02*
G36*
X3256Y657D02*
X3256Y639D01*
X3258Y639D01*
X3258Y627D01*
X3260Y627D01*
X3260Y623D01*
X3262Y623D01*
X3262Y621D01*
X3264Y621D01*
X3264Y617D01*
X3266Y617D01*
X3266Y615D01*
X3268Y615D01*
X3268Y611D01*
X3270Y611D01*
X3270Y609D01*
X3272Y609D01*
X3272Y607D01*
X3274Y607D01*
X3274Y603D01*
X3276Y603D01*
X3276Y601D01*
X3278Y601D01*
X3278Y597D01*
X3280Y597D01*
X3280Y595D01*
X3282Y595D01*
X3282Y591D01*
X3284Y591D01*
X3284Y589D01*
X3286Y589D01*
X3286Y585D01*
X3288Y585D01*
X3288Y583D01*
X3290Y583D01*
X3290Y579D01*
X3304Y579D01*
X3304Y577D01*
X3312Y577D01*
X3312Y575D01*
X3318Y575D01*
X3318Y573D01*
X3322Y573D01*
X3322Y571D01*
X3326Y571D01*
X3326Y569D01*
X3328Y569D01*
X3328Y567D01*
X3330Y567D01*
X3330Y565D01*
X3332Y565D01*
X3332Y563D01*
X3334Y563D01*
X3334Y561D01*
X3336Y561D01*
X3336Y559D01*
X3338Y559D01*
X3338Y555D01*
X3340Y555D01*
X3340Y553D01*
X3342Y553D01*
X3342Y549D01*
X3344Y549D01*
X3344Y543D01*
X3346Y543D01*
X3346Y517D01*
X3344Y517D01*
X3344Y511D01*
X3342Y511D01*
X3342Y489D01*
X3672Y489D01*
X3672Y487D01*
X3796Y487D01*
X3796Y485D01*
X3808Y485D01*
X3808Y483D01*
X3814Y483D01*
X3814Y481D01*
X3820Y481D01*
X3820Y479D01*
X3824Y479D01*
X3824Y477D01*
X3828Y477D01*
X3828Y475D01*
X3832Y475D01*
X3832Y473D01*
X3836Y473D01*
X3836Y471D01*
X3838Y471D01*
X3838Y469D01*
X3842Y469D01*
X3842Y467D01*
X3844Y467D01*
X3844Y465D01*
X3846Y465D01*
X3846Y463D01*
X3848Y463D01*
X3848Y461D01*
X3850Y461D01*
X3850Y459D01*
X3852Y459D01*
X3852Y457D01*
X3854Y457D01*
X3854Y455D01*
X3856Y455D01*
X3856Y453D01*
X3876Y453D01*
X3876Y657D01*
X3256Y657D01*
G37*
D02*
G36*
X3676Y487D02*
X3676Y485D01*
X3678Y485D01*
X3678Y483D01*
X3680Y483D01*
X3680Y481D01*
X3682Y481D01*
X3682Y479D01*
X3684Y479D01*
X3684Y477D01*
X3686Y477D01*
X3686Y473D01*
X3688Y473D01*
X3688Y465D01*
X3690Y465D01*
X3690Y445D01*
X3710Y445D01*
X3710Y449D01*
X3712Y449D01*
X3712Y451D01*
X3714Y451D01*
X3714Y453D01*
X3716Y453D01*
X3716Y455D01*
X3718Y455D01*
X3718Y459D01*
X3720Y459D01*
X3720Y461D01*
X3724Y461D01*
X3724Y463D01*
X3726Y463D01*
X3726Y465D01*
X3728Y465D01*
X3728Y467D01*
X3730Y467D01*
X3730Y469D01*
X3734Y469D01*
X3734Y471D01*
X3736Y471D01*
X3736Y473D01*
X3740Y473D01*
X3740Y475D01*
X3744Y475D01*
X3744Y477D01*
X3748Y477D01*
X3748Y479D01*
X3752Y479D01*
X3752Y481D01*
X3758Y481D01*
X3758Y483D01*
X3764Y483D01*
X3764Y485D01*
X3776Y485D01*
X3776Y487D01*
X3676Y487D01*
G37*
D02*
G36*
X834Y1261D02*
X834Y1239D01*
X836Y1239D01*
X836Y1237D01*
X838Y1237D01*
X838Y1233D01*
X840Y1233D01*
X840Y1231D01*
X842Y1231D01*
X842Y1225D01*
X844Y1225D01*
X844Y1221D01*
X846Y1221D01*
X846Y1217D01*
X848Y1217D01*
X848Y1213D01*
X850Y1213D01*
X850Y1209D01*
X852Y1209D01*
X852Y1205D01*
X854Y1205D01*
X854Y1199D01*
X856Y1199D01*
X856Y1195D01*
X858Y1195D01*
X858Y1191D01*
X860Y1191D01*
X860Y1187D01*
X862Y1187D01*
X862Y1183D01*
X864Y1183D01*
X864Y1179D01*
X866Y1179D01*
X866Y1175D01*
X868Y1175D01*
X868Y1169D01*
X870Y1169D01*
X870Y1165D01*
X872Y1165D01*
X872Y1161D01*
X874Y1161D01*
X874Y1157D01*
X876Y1157D01*
X876Y1153D01*
X878Y1153D01*
X878Y1149D01*
X880Y1149D01*
X880Y1145D01*
X882Y1145D01*
X882Y1139D01*
X884Y1139D01*
X884Y1129D01*
X1178Y1129D01*
X1178Y1127D01*
X1184Y1127D01*
X1184Y1125D01*
X1188Y1125D01*
X1188Y1123D01*
X1192Y1123D01*
X1192Y1121D01*
X1194Y1121D01*
X1194Y1119D01*
X1196Y1119D01*
X1196Y1117D01*
X1198Y1117D01*
X1198Y1115D01*
X1200Y1115D01*
X1200Y1113D01*
X1202Y1113D01*
X1202Y1111D01*
X1204Y1111D01*
X1204Y1107D01*
X1206Y1107D01*
X1206Y1105D01*
X1208Y1105D01*
X1208Y1099D01*
X1210Y1099D01*
X1210Y1093D01*
X1212Y1093D01*
X1212Y1073D01*
X1210Y1073D01*
X1210Y1065D01*
X1208Y1065D01*
X1208Y1061D01*
X1206Y1061D01*
X1206Y1059D01*
X1204Y1059D01*
X1204Y1055D01*
X1202Y1055D01*
X1202Y1053D01*
X1200Y1053D01*
X1200Y1051D01*
X1198Y1051D01*
X1198Y1049D01*
X1196Y1049D01*
X1196Y1047D01*
X1194Y1047D01*
X1194Y1045D01*
X1192Y1045D01*
X1192Y1043D01*
X1188Y1043D01*
X1188Y1041D01*
X1184Y1041D01*
X1184Y1039D01*
X1178Y1039D01*
X1178Y1037D01*
X1166Y1037D01*
X1166Y1035D01*
X1406Y1035D01*
X1406Y1077D01*
X1472Y1077D01*
X1472Y1097D01*
X1470Y1097D01*
X1470Y1099D01*
X1468Y1099D01*
X1468Y1101D01*
X1466Y1101D01*
X1466Y1103D01*
X1464Y1103D01*
X1464Y1107D01*
X1462Y1107D01*
X1462Y1111D01*
X1460Y1111D01*
X1460Y1117D01*
X1458Y1117D01*
X1458Y1125D01*
X1456Y1125D01*
X1456Y1137D01*
X1458Y1137D01*
X1458Y1145D01*
X1460Y1145D01*
X1460Y1151D01*
X1462Y1151D01*
X1462Y1155D01*
X1464Y1155D01*
X1464Y1157D01*
X1466Y1157D01*
X1466Y1159D01*
X1468Y1159D01*
X1468Y1163D01*
X1470Y1163D01*
X1470Y1165D01*
X1472Y1165D01*
X1472Y1167D01*
X1476Y1167D01*
X1476Y1169D01*
X1478Y1169D01*
X1478Y1171D01*
X1482Y1171D01*
X1482Y1173D01*
X1486Y1173D01*
X1486Y1175D01*
X1492Y1175D01*
X1492Y1179D01*
X1494Y1179D01*
X1494Y1185D01*
X1496Y1185D01*
X1496Y1189D01*
X1498Y1189D01*
X1498Y1193D01*
X1500Y1193D01*
X1500Y1195D01*
X1502Y1195D01*
X1502Y1199D01*
X1504Y1199D01*
X1504Y1201D01*
X1506Y1201D01*
X1506Y1203D01*
X1508Y1203D01*
X1508Y1207D01*
X1510Y1207D01*
X1510Y1209D01*
X1512Y1209D01*
X1512Y1211D01*
X1514Y1211D01*
X1514Y1215D01*
X1516Y1215D01*
X1516Y1217D01*
X1518Y1217D01*
X1518Y1221D01*
X1520Y1221D01*
X1520Y1223D01*
X1522Y1223D01*
X1522Y1225D01*
X1524Y1225D01*
X1524Y1229D01*
X1526Y1229D01*
X1526Y1231D01*
X1528Y1231D01*
X1528Y1233D01*
X1530Y1233D01*
X1530Y1237D01*
X1532Y1237D01*
X1532Y1239D01*
X1534Y1239D01*
X1534Y1241D01*
X1536Y1241D01*
X1536Y1261D01*
X834Y1261D01*
G37*
D02*
G36*
X2114Y1261D02*
X2114Y1239D01*
X2116Y1239D01*
X2116Y1237D01*
X2118Y1237D01*
X2118Y1233D01*
X2120Y1233D01*
X2120Y1229D01*
X2122Y1229D01*
X2122Y1225D01*
X2124Y1225D01*
X2124Y1221D01*
X2126Y1221D01*
X2126Y1217D01*
X2128Y1217D01*
X2128Y1215D01*
X2130Y1215D01*
X2130Y1211D01*
X2132Y1211D01*
X2132Y1207D01*
X2134Y1207D01*
X2134Y1203D01*
X2136Y1203D01*
X2136Y1199D01*
X2138Y1199D01*
X2138Y1195D01*
X2140Y1195D01*
X2140Y1191D01*
X2142Y1191D01*
X2142Y1187D01*
X2144Y1187D01*
X2144Y1183D01*
X2146Y1183D01*
X2146Y1179D01*
X2148Y1179D01*
X2148Y1177D01*
X2150Y1177D01*
X2150Y1173D01*
X2152Y1173D01*
X2152Y1169D01*
X2154Y1169D01*
X2154Y1165D01*
X2156Y1165D01*
X2156Y1161D01*
X2158Y1161D01*
X2158Y1157D01*
X2160Y1157D01*
X2160Y1153D01*
X2162Y1153D01*
X2162Y1149D01*
X2164Y1149D01*
X2164Y1145D01*
X2166Y1145D01*
X2166Y1141D01*
X2168Y1141D01*
X2168Y1133D01*
X2170Y1133D01*
X2170Y1131D01*
X2464Y1131D01*
X2464Y1129D01*
X2470Y1129D01*
X2470Y1127D01*
X2474Y1127D01*
X2474Y1125D01*
X2478Y1125D01*
X2478Y1123D01*
X2480Y1123D01*
X2480Y1121D01*
X2482Y1121D01*
X2482Y1119D01*
X2486Y1119D01*
X2486Y1115D01*
X2488Y1115D01*
X2488Y1113D01*
X2490Y1113D01*
X2490Y1111D01*
X2492Y1111D01*
X2492Y1107D01*
X2494Y1107D01*
X2494Y1103D01*
X2496Y1103D01*
X2496Y1097D01*
X2498Y1097D01*
X2498Y1073D01*
X2496Y1073D01*
X2496Y1067D01*
X2494Y1067D01*
X2494Y1063D01*
X2492Y1063D01*
X2492Y1059D01*
X2490Y1059D01*
X2490Y1057D01*
X2488Y1057D01*
X2488Y1055D01*
X2486Y1055D01*
X2486Y1051D01*
X2482Y1051D01*
X2482Y1049D01*
X2480Y1049D01*
X2480Y1047D01*
X2478Y1047D01*
X2478Y1045D01*
X2474Y1045D01*
X2474Y1043D01*
X2470Y1043D01*
X2470Y1041D01*
X2464Y1041D01*
X2464Y1039D01*
X2676Y1039D01*
X2676Y1041D01*
X2680Y1041D01*
X2680Y1043D01*
X2684Y1043D01*
X2684Y1045D01*
X2688Y1045D01*
X2688Y1047D01*
X2696Y1047D01*
X2696Y1077D01*
X2760Y1077D01*
X2760Y1097D01*
X2758Y1097D01*
X2758Y1099D01*
X2756Y1099D01*
X2756Y1103D01*
X2754Y1103D01*
X2754Y1105D01*
X2752Y1105D01*
X2752Y1109D01*
X2750Y1109D01*
X2750Y1115D01*
X2748Y1115D01*
X2748Y1123D01*
X2746Y1123D01*
X2746Y1137D01*
X2748Y1137D01*
X2748Y1145D01*
X2750Y1145D01*
X2750Y1149D01*
X2752Y1149D01*
X2752Y1153D01*
X2754Y1153D01*
X2754Y1157D01*
X2756Y1157D01*
X2756Y1159D01*
X2758Y1159D01*
X2758Y1161D01*
X2760Y1161D01*
X2760Y1163D01*
X2762Y1163D01*
X2762Y1165D01*
X2764Y1165D01*
X2764Y1167D01*
X2766Y1167D01*
X2766Y1169D01*
X2770Y1169D01*
X2770Y1171D01*
X2774Y1171D01*
X2774Y1173D01*
X2780Y1173D01*
X2780Y1177D01*
X2782Y1177D01*
X2782Y1185D01*
X2784Y1185D01*
X2784Y1187D01*
X2786Y1187D01*
X2786Y1191D01*
X2788Y1191D01*
X2788Y1195D01*
X2790Y1195D01*
X2790Y1197D01*
X2792Y1197D01*
X2792Y1201D01*
X2794Y1201D01*
X2794Y1203D01*
X2796Y1203D01*
X2796Y1207D01*
X2798Y1207D01*
X2798Y1209D01*
X2800Y1209D01*
X2800Y1213D01*
X2802Y1213D01*
X2802Y1215D01*
X2804Y1215D01*
X2804Y1219D01*
X2806Y1219D01*
X2806Y1221D01*
X2808Y1221D01*
X2808Y1225D01*
X2810Y1225D01*
X2810Y1227D01*
X2812Y1227D01*
X2812Y1231D01*
X2814Y1231D01*
X2814Y1233D01*
X2816Y1233D01*
X2816Y1237D01*
X2818Y1237D01*
X2818Y1239D01*
X2820Y1239D01*
X2820Y1241D01*
X2822Y1241D01*
X2822Y1261D01*
X2114Y1261D01*
G37*
D02*
G36*
X2170Y1131D02*
X2170Y1127D01*
X2174Y1127D01*
X2174Y1125D01*
X2178Y1125D01*
X2178Y1123D01*
X2180Y1123D01*
X2180Y1121D01*
X2182Y1121D01*
X2182Y1119D01*
X2186Y1119D01*
X2186Y1115D01*
X2188Y1115D01*
X2188Y1113D01*
X2190Y1113D01*
X2190Y1111D01*
X2192Y1111D01*
X2192Y1107D01*
X2212Y1107D01*
X2212Y1111D01*
X2214Y1111D01*
X2214Y1113D01*
X2216Y1113D01*
X2216Y1117D01*
X2218Y1117D01*
X2218Y1119D01*
X2220Y1119D01*
X2220Y1121D01*
X2224Y1121D01*
X2224Y1123D01*
X2226Y1123D01*
X2226Y1125D01*
X2230Y1125D01*
X2230Y1127D01*
X2232Y1127D01*
X2232Y1129D01*
X2240Y1129D01*
X2240Y1131D01*
X2170Y1131D01*
G37*
D02*
G36*
X2264Y1131D02*
X2264Y1129D01*
X2270Y1129D01*
X2270Y1127D01*
X2274Y1127D01*
X2274Y1125D01*
X2278Y1125D01*
X2278Y1123D01*
X2280Y1123D01*
X2280Y1121D01*
X2282Y1121D01*
X2282Y1119D01*
X2286Y1119D01*
X2286Y1115D01*
X2288Y1115D01*
X2288Y1113D01*
X2290Y1113D01*
X2290Y1111D01*
X2292Y1111D01*
X2292Y1107D01*
X2312Y1107D01*
X2312Y1111D01*
X2314Y1111D01*
X2314Y1113D01*
X2316Y1113D01*
X2316Y1117D01*
X2318Y1117D01*
X2318Y1119D01*
X2320Y1119D01*
X2320Y1121D01*
X2324Y1121D01*
X2324Y1123D01*
X2326Y1123D01*
X2326Y1125D01*
X2330Y1125D01*
X2330Y1127D01*
X2332Y1127D01*
X2332Y1129D01*
X2340Y1129D01*
X2340Y1131D01*
X2264Y1131D01*
G37*
D02*
G36*
X2364Y1131D02*
X2364Y1129D01*
X2370Y1129D01*
X2370Y1127D01*
X2374Y1127D01*
X2374Y1125D01*
X2378Y1125D01*
X2378Y1123D01*
X2380Y1123D01*
X2380Y1121D01*
X2382Y1121D01*
X2382Y1119D01*
X2386Y1119D01*
X2386Y1115D01*
X2388Y1115D01*
X2388Y1113D01*
X2390Y1113D01*
X2390Y1111D01*
X2392Y1111D01*
X2392Y1107D01*
X2412Y1107D01*
X2412Y1111D01*
X2414Y1111D01*
X2414Y1113D01*
X2416Y1113D01*
X2416Y1117D01*
X2418Y1117D01*
X2418Y1119D01*
X2420Y1119D01*
X2420Y1121D01*
X2424Y1121D01*
X2424Y1123D01*
X2426Y1123D01*
X2426Y1125D01*
X2430Y1125D01*
X2430Y1127D01*
X2432Y1127D01*
X2432Y1129D01*
X2440Y1129D01*
X2440Y1131D01*
X2364Y1131D01*
G37*
D02*
G36*
X886Y1129D02*
X886Y1125D01*
X888Y1125D01*
X888Y1123D01*
X892Y1123D01*
X892Y1121D01*
X894Y1121D01*
X894Y1119D01*
X896Y1119D01*
X896Y1117D01*
X898Y1117D01*
X898Y1115D01*
X900Y1115D01*
X900Y1113D01*
X902Y1113D01*
X902Y1111D01*
X904Y1111D01*
X904Y1107D01*
X926Y1107D01*
X926Y1109D01*
X928Y1109D01*
X928Y1113D01*
X930Y1113D01*
X930Y1115D01*
X932Y1115D01*
X932Y1117D01*
X934Y1117D01*
X934Y1119D01*
X936Y1119D01*
X936Y1121D01*
X940Y1121D01*
X940Y1123D01*
X944Y1123D01*
X944Y1125D01*
X946Y1125D01*
X946Y1127D01*
X954Y1127D01*
X954Y1129D01*
X886Y1129D01*
G37*
D02*
G36*
X978Y1129D02*
X978Y1127D01*
X984Y1127D01*
X984Y1125D01*
X988Y1125D01*
X988Y1123D01*
X992Y1123D01*
X992Y1121D01*
X994Y1121D01*
X994Y1119D01*
X996Y1119D01*
X996Y1117D01*
X998Y1117D01*
X998Y1115D01*
X1000Y1115D01*
X1000Y1113D01*
X1002Y1113D01*
X1002Y1111D01*
X1004Y1111D01*
X1004Y1107D01*
X1026Y1107D01*
X1026Y1109D01*
X1028Y1109D01*
X1028Y1113D01*
X1030Y1113D01*
X1030Y1115D01*
X1032Y1115D01*
X1032Y1117D01*
X1034Y1117D01*
X1034Y1119D01*
X1036Y1119D01*
X1036Y1121D01*
X1040Y1121D01*
X1040Y1123D01*
X1044Y1123D01*
X1044Y1125D01*
X1046Y1125D01*
X1046Y1127D01*
X1054Y1127D01*
X1054Y1129D01*
X978Y1129D01*
G37*
D02*
G36*
X1078Y1129D02*
X1078Y1127D01*
X1084Y1127D01*
X1084Y1125D01*
X1088Y1125D01*
X1088Y1123D01*
X1092Y1123D01*
X1092Y1121D01*
X1094Y1121D01*
X1094Y1119D01*
X1096Y1119D01*
X1096Y1117D01*
X1098Y1117D01*
X1098Y1115D01*
X1100Y1115D01*
X1100Y1113D01*
X1102Y1113D01*
X1102Y1111D01*
X1104Y1111D01*
X1104Y1107D01*
X1126Y1107D01*
X1126Y1109D01*
X1128Y1109D01*
X1128Y1113D01*
X1130Y1113D01*
X1130Y1115D01*
X1132Y1115D01*
X1132Y1117D01*
X1134Y1117D01*
X1134Y1119D01*
X1136Y1119D01*
X1136Y1121D01*
X1140Y1121D01*
X1140Y1123D01*
X1144Y1123D01*
X1144Y1125D01*
X1146Y1125D01*
X1146Y1127D01*
X1154Y1127D01*
X1154Y1129D01*
X1078Y1129D01*
G37*
D02*
G36*
X2192Y1063D02*
X2192Y1059D01*
X2190Y1059D01*
X2190Y1057D01*
X2188Y1057D01*
X2188Y1055D01*
X2186Y1055D01*
X2186Y1051D01*
X2182Y1051D01*
X2182Y1049D01*
X2180Y1049D01*
X2180Y1047D01*
X2178Y1047D01*
X2178Y1045D01*
X2174Y1045D01*
X2174Y1043D01*
X2170Y1043D01*
X2170Y1041D01*
X2164Y1041D01*
X2164Y1039D01*
X2240Y1039D01*
X2240Y1041D01*
X2234Y1041D01*
X2234Y1043D01*
X2230Y1043D01*
X2230Y1045D01*
X2226Y1045D01*
X2226Y1047D01*
X2224Y1047D01*
X2224Y1049D01*
X2220Y1049D01*
X2220Y1051D01*
X2218Y1051D01*
X2218Y1053D01*
X2216Y1053D01*
X2216Y1057D01*
X2214Y1057D01*
X2214Y1059D01*
X2212Y1059D01*
X2212Y1063D01*
X2192Y1063D01*
G37*
D02*
G36*
X2292Y1063D02*
X2292Y1059D01*
X2290Y1059D01*
X2290Y1057D01*
X2288Y1057D01*
X2288Y1055D01*
X2286Y1055D01*
X2286Y1051D01*
X2282Y1051D01*
X2282Y1049D01*
X2280Y1049D01*
X2280Y1047D01*
X2278Y1047D01*
X2278Y1045D01*
X2274Y1045D01*
X2274Y1043D01*
X2270Y1043D01*
X2270Y1041D01*
X2264Y1041D01*
X2264Y1039D01*
X2340Y1039D01*
X2340Y1041D01*
X2334Y1041D01*
X2334Y1043D01*
X2330Y1043D01*
X2330Y1045D01*
X2326Y1045D01*
X2326Y1047D01*
X2324Y1047D01*
X2324Y1049D01*
X2320Y1049D01*
X2320Y1051D01*
X2318Y1051D01*
X2318Y1053D01*
X2316Y1053D01*
X2316Y1057D01*
X2314Y1057D01*
X2314Y1059D01*
X2312Y1059D01*
X2312Y1063D01*
X2292Y1063D01*
G37*
D02*
G36*
X2392Y1063D02*
X2392Y1059D01*
X2390Y1059D01*
X2390Y1057D01*
X2388Y1057D01*
X2388Y1055D01*
X2386Y1055D01*
X2386Y1051D01*
X2382Y1051D01*
X2382Y1049D01*
X2380Y1049D01*
X2380Y1047D01*
X2378Y1047D01*
X2378Y1045D01*
X2374Y1045D01*
X2374Y1043D01*
X2370Y1043D01*
X2370Y1041D01*
X2364Y1041D01*
X2364Y1039D01*
X2440Y1039D01*
X2440Y1041D01*
X2434Y1041D01*
X2434Y1043D01*
X2430Y1043D01*
X2430Y1045D01*
X2426Y1045D01*
X2426Y1047D01*
X2424Y1047D01*
X2424Y1049D01*
X2420Y1049D01*
X2420Y1051D01*
X2418Y1051D01*
X2418Y1053D01*
X2416Y1053D01*
X2416Y1057D01*
X2414Y1057D01*
X2414Y1059D01*
X2412Y1059D01*
X2412Y1063D01*
X2392Y1063D01*
G37*
D02*
G36*
X904Y1059D02*
X904Y1055D01*
X902Y1055D01*
X902Y1053D01*
X900Y1053D01*
X900Y1051D01*
X898Y1051D01*
X898Y1049D01*
X896Y1049D01*
X896Y1047D01*
X894Y1047D01*
X894Y1045D01*
X892Y1045D01*
X892Y1043D01*
X888Y1043D01*
X888Y1041D01*
X884Y1041D01*
X884Y1039D01*
X878Y1039D01*
X878Y1037D01*
X866Y1037D01*
X866Y1035D01*
X964Y1035D01*
X964Y1037D01*
X952Y1037D01*
X952Y1039D01*
X946Y1039D01*
X946Y1041D01*
X942Y1041D01*
X942Y1043D01*
X940Y1043D01*
X940Y1045D01*
X936Y1045D01*
X936Y1047D01*
X934Y1047D01*
X934Y1049D01*
X932Y1049D01*
X932Y1051D01*
X930Y1051D01*
X930Y1053D01*
X928Y1053D01*
X928Y1055D01*
X926Y1055D01*
X926Y1059D01*
X904Y1059D01*
G37*
D02*
G36*
X1004Y1059D02*
X1004Y1055D01*
X1002Y1055D01*
X1002Y1053D01*
X1000Y1053D01*
X1000Y1051D01*
X998Y1051D01*
X998Y1049D01*
X996Y1049D01*
X996Y1047D01*
X994Y1047D01*
X994Y1045D01*
X992Y1045D01*
X992Y1043D01*
X988Y1043D01*
X988Y1041D01*
X984Y1041D01*
X984Y1039D01*
X978Y1039D01*
X978Y1037D01*
X966Y1037D01*
X966Y1035D01*
X1064Y1035D01*
X1064Y1037D01*
X1052Y1037D01*
X1052Y1039D01*
X1046Y1039D01*
X1046Y1041D01*
X1042Y1041D01*
X1042Y1043D01*
X1040Y1043D01*
X1040Y1045D01*
X1036Y1045D01*
X1036Y1047D01*
X1034Y1047D01*
X1034Y1049D01*
X1032Y1049D01*
X1032Y1051D01*
X1030Y1051D01*
X1030Y1053D01*
X1028Y1053D01*
X1028Y1055D01*
X1026Y1055D01*
X1026Y1059D01*
X1004Y1059D01*
G37*
D02*
G36*
X1104Y1059D02*
X1104Y1055D01*
X1102Y1055D01*
X1102Y1053D01*
X1100Y1053D01*
X1100Y1051D01*
X1098Y1051D01*
X1098Y1049D01*
X1096Y1049D01*
X1096Y1047D01*
X1094Y1047D01*
X1094Y1045D01*
X1092Y1045D01*
X1092Y1043D01*
X1088Y1043D01*
X1088Y1041D01*
X1084Y1041D01*
X1084Y1039D01*
X1078Y1039D01*
X1078Y1037D01*
X1066Y1037D01*
X1066Y1035D01*
X1164Y1035D01*
X1164Y1037D01*
X1152Y1037D01*
X1152Y1039D01*
X1146Y1039D01*
X1146Y1041D01*
X1142Y1041D01*
X1142Y1043D01*
X1140Y1043D01*
X1140Y1045D01*
X1136Y1045D01*
X1136Y1047D01*
X1134Y1047D01*
X1134Y1049D01*
X1132Y1049D01*
X1132Y1051D01*
X1130Y1051D01*
X1130Y1053D01*
X1128Y1053D01*
X1128Y1055D01*
X1126Y1055D01*
X1126Y1059D01*
X1104Y1059D01*
G37*
D02*
G36*
X2148Y1039D02*
X2148Y1037D01*
X2672Y1037D01*
X2672Y1039D01*
X2148Y1039D01*
G37*
D02*
G36*
X2148Y1039D02*
X2148Y1037D01*
X2672Y1037D01*
X2672Y1039D01*
X2148Y1039D01*
G37*
D02*
G36*
X2148Y1039D02*
X2148Y1037D01*
X2672Y1037D01*
X2672Y1039D01*
X2148Y1039D01*
G37*
D02*
G36*
X2148Y1039D02*
X2148Y1037D01*
X2672Y1037D01*
X2672Y1039D01*
X2148Y1039D01*
G37*
D02*
G36*
X2148Y1037D02*
X2148Y1031D01*
X2414Y1031D01*
X2414Y1029D01*
X2420Y1029D01*
X2420Y1027D01*
X2424Y1027D01*
X2424Y1025D01*
X2428Y1025D01*
X2428Y1023D01*
X2430Y1023D01*
X2430Y1021D01*
X2432Y1021D01*
X2432Y1019D01*
X2436Y1019D01*
X2436Y1015D01*
X2438Y1015D01*
X2438Y1013D01*
X2440Y1013D01*
X2440Y1011D01*
X2442Y1011D01*
X2442Y1007D01*
X2444Y1007D01*
X2444Y1003D01*
X2446Y1003D01*
X2446Y997D01*
X2448Y997D01*
X2448Y973D01*
X2446Y973D01*
X2446Y967D01*
X2444Y967D01*
X2444Y963D01*
X2442Y963D01*
X2442Y959D01*
X2440Y959D01*
X2440Y957D01*
X2438Y957D01*
X2438Y955D01*
X2436Y955D01*
X2436Y951D01*
X2432Y951D01*
X2432Y949D01*
X2430Y949D01*
X2430Y947D01*
X2428Y947D01*
X2428Y945D01*
X2424Y945D01*
X2424Y943D01*
X2420Y943D01*
X2420Y941D01*
X2414Y941D01*
X2414Y939D01*
X2478Y939D01*
X2478Y941D01*
X2482Y941D01*
X2482Y943D01*
X2486Y943D01*
X2486Y945D01*
X2490Y945D01*
X2490Y947D01*
X2494Y947D01*
X2494Y949D01*
X2498Y949D01*
X2498Y951D01*
X2502Y951D01*
X2502Y953D01*
X2506Y953D01*
X2506Y955D01*
X2510Y955D01*
X2510Y957D01*
X2514Y957D01*
X2514Y959D01*
X2518Y959D01*
X2518Y961D01*
X2522Y961D01*
X2522Y963D01*
X2526Y963D01*
X2526Y965D01*
X2530Y965D01*
X2530Y967D01*
X2534Y967D01*
X2534Y969D01*
X2538Y969D01*
X2538Y971D01*
X2542Y971D01*
X2542Y973D01*
X2546Y973D01*
X2546Y975D01*
X2550Y975D01*
X2550Y977D01*
X2554Y977D01*
X2554Y979D01*
X2556Y979D01*
X2556Y981D01*
X2560Y981D01*
X2560Y983D01*
X2564Y983D01*
X2564Y985D01*
X2568Y985D01*
X2568Y987D01*
X2572Y987D01*
X2572Y989D01*
X2576Y989D01*
X2576Y991D01*
X2580Y991D01*
X2580Y993D01*
X2584Y993D01*
X2584Y995D01*
X2588Y995D01*
X2588Y997D01*
X2592Y997D01*
X2592Y999D01*
X2596Y999D01*
X2596Y1001D01*
X2600Y1001D01*
X2600Y1003D01*
X2604Y1003D01*
X2604Y1005D01*
X2608Y1005D01*
X2608Y1007D01*
X2612Y1007D01*
X2612Y1009D01*
X2616Y1009D01*
X2616Y1011D01*
X2620Y1011D01*
X2620Y1013D01*
X2624Y1013D01*
X2624Y1015D01*
X2628Y1015D01*
X2628Y1017D01*
X2632Y1017D01*
X2632Y1019D01*
X2636Y1019D01*
X2636Y1021D01*
X2640Y1021D01*
X2640Y1023D01*
X2644Y1023D01*
X2644Y1025D01*
X2648Y1025D01*
X2648Y1027D01*
X2652Y1027D01*
X2652Y1029D01*
X2656Y1029D01*
X2656Y1031D01*
X2660Y1031D01*
X2660Y1033D01*
X2664Y1033D01*
X2664Y1035D01*
X2668Y1035D01*
X2668Y1037D01*
X2148Y1037D01*
G37*
D02*
G36*
X862Y1035D02*
X862Y1033D01*
X1406Y1033D01*
X1406Y1035D01*
X862Y1035D01*
G37*
D02*
G36*
X862Y1035D02*
X862Y1033D01*
X1406Y1033D01*
X1406Y1035D01*
X862Y1035D01*
G37*
D02*
G36*
X862Y1035D02*
X862Y1033D01*
X1406Y1033D01*
X1406Y1035D01*
X862Y1035D01*
G37*
D02*
G36*
X862Y1035D02*
X862Y1033D01*
X1406Y1033D01*
X1406Y1035D01*
X862Y1035D01*
G37*
D02*
G36*
X862Y1033D02*
X862Y1029D01*
X1128Y1029D01*
X1128Y1027D01*
X1134Y1027D01*
X1134Y1025D01*
X1138Y1025D01*
X1138Y1023D01*
X1142Y1023D01*
X1142Y1021D01*
X1144Y1021D01*
X1144Y1019D01*
X1146Y1019D01*
X1146Y1017D01*
X1148Y1017D01*
X1148Y1015D01*
X1150Y1015D01*
X1150Y1013D01*
X1152Y1013D01*
X1152Y1011D01*
X1154Y1011D01*
X1154Y1007D01*
X1156Y1007D01*
X1156Y1005D01*
X1158Y1005D01*
X1158Y999D01*
X1160Y999D01*
X1160Y993D01*
X1162Y993D01*
X1162Y973D01*
X1160Y973D01*
X1160Y965D01*
X1158Y965D01*
X1158Y961D01*
X1156Y961D01*
X1156Y959D01*
X1154Y959D01*
X1154Y955D01*
X1152Y955D01*
X1152Y953D01*
X1150Y953D01*
X1150Y951D01*
X1148Y951D01*
X1148Y949D01*
X1146Y949D01*
X1146Y947D01*
X1144Y947D01*
X1144Y945D01*
X1142Y945D01*
X1142Y943D01*
X1138Y943D01*
X1138Y941D01*
X1134Y941D01*
X1134Y939D01*
X1128Y939D01*
X1128Y937D01*
X1116Y937D01*
X1116Y935D01*
X1452Y935D01*
X1452Y937D01*
X1450Y937D01*
X1450Y941D01*
X1448Y941D01*
X1448Y947D01*
X1446Y947D01*
X1446Y951D01*
X1444Y951D01*
X1444Y955D01*
X1442Y955D01*
X1442Y959D01*
X1440Y959D01*
X1440Y965D01*
X1438Y965D01*
X1438Y969D01*
X1436Y969D01*
X1436Y975D01*
X1434Y975D01*
X1434Y983D01*
X1406Y983D01*
X1406Y1033D01*
X862Y1033D01*
G37*
D02*
G36*
X2148Y1031D02*
X2148Y1017D01*
X2168Y1017D01*
X2168Y1019D01*
X2170Y1019D01*
X2170Y1021D01*
X2174Y1021D01*
X2174Y1023D01*
X2176Y1023D01*
X2176Y1025D01*
X2180Y1025D01*
X2180Y1027D01*
X2182Y1027D01*
X2182Y1029D01*
X2190Y1029D01*
X2190Y1031D01*
X2148Y1031D01*
G37*
D02*
G36*
X2214Y1031D02*
X2214Y1029D01*
X2220Y1029D01*
X2220Y1027D01*
X2224Y1027D01*
X2224Y1025D01*
X2228Y1025D01*
X2228Y1023D01*
X2230Y1023D01*
X2230Y1021D01*
X2232Y1021D01*
X2232Y1019D01*
X2236Y1019D01*
X2236Y1015D01*
X2238Y1015D01*
X2238Y1013D01*
X2240Y1013D01*
X2240Y1011D01*
X2242Y1011D01*
X2242Y1007D01*
X2262Y1007D01*
X2262Y1011D01*
X2264Y1011D01*
X2264Y1013D01*
X2266Y1013D01*
X2266Y1017D01*
X2268Y1017D01*
X2268Y1019D01*
X2270Y1019D01*
X2270Y1021D01*
X2274Y1021D01*
X2274Y1023D01*
X2276Y1023D01*
X2276Y1025D01*
X2280Y1025D01*
X2280Y1027D01*
X2282Y1027D01*
X2282Y1029D01*
X2290Y1029D01*
X2290Y1031D01*
X2214Y1031D01*
G37*
D02*
G36*
X2314Y1031D02*
X2314Y1029D01*
X2320Y1029D01*
X2320Y1027D01*
X2324Y1027D01*
X2324Y1025D01*
X2328Y1025D01*
X2328Y1023D01*
X2330Y1023D01*
X2330Y1021D01*
X2332Y1021D01*
X2332Y1019D01*
X2336Y1019D01*
X2336Y1015D01*
X2338Y1015D01*
X2338Y1013D01*
X2340Y1013D01*
X2340Y1011D01*
X2342Y1011D01*
X2342Y1007D01*
X2362Y1007D01*
X2362Y1011D01*
X2364Y1011D01*
X2364Y1013D01*
X2366Y1013D01*
X2366Y1017D01*
X2368Y1017D01*
X2368Y1019D01*
X2370Y1019D01*
X2370Y1021D01*
X2374Y1021D01*
X2374Y1023D01*
X2376Y1023D01*
X2376Y1025D01*
X2380Y1025D01*
X2380Y1027D01*
X2382Y1027D01*
X2382Y1029D01*
X2390Y1029D01*
X2390Y1031D01*
X2314Y1031D01*
G37*
D02*
G36*
X862Y1029D02*
X862Y1015D01*
X882Y1015D01*
X882Y1017D01*
X884Y1017D01*
X884Y1019D01*
X886Y1019D01*
X886Y1021D01*
X890Y1021D01*
X890Y1023D01*
X894Y1023D01*
X894Y1025D01*
X896Y1025D01*
X896Y1027D01*
X904Y1027D01*
X904Y1029D01*
X862Y1029D01*
G37*
D02*
G36*
X928Y1029D02*
X928Y1027D01*
X934Y1027D01*
X934Y1025D01*
X938Y1025D01*
X938Y1023D01*
X942Y1023D01*
X942Y1021D01*
X944Y1021D01*
X944Y1019D01*
X946Y1019D01*
X946Y1017D01*
X948Y1017D01*
X948Y1015D01*
X950Y1015D01*
X950Y1013D01*
X952Y1013D01*
X952Y1011D01*
X954Y1011D01*
X954Y1007D01*
X976Y1007D01*
X976Y1009D01*
X978Y1009D01*
X978Y1013D01*
X980Y1013D01*
X980Y1015D01*
X982Y1015D01*
X982Y1017D01*
X984Y1017D01*
X984Y1019D01*
X986Y1019D01*
X986Y1021D01*
X990Y1021D01*
X990Y1023D01*
X994Y1023D01*
X994Y1025D01*
X996Y1025D01*
X996Y1027D01*
X1004Y1027D01*
X1004Y1029D01*
X928Y1029D01*
G37*
D02*
G36*
X1028Y1029D02*
X1028Y1027D01*
X1034Y1027D01*
X1034Y1025D01*
X1038Y1025D01*
X1038Y1023D01*
X1042Y1023D01*
X1042Y1021D01*
X1044Y1021D01*
X1044Y1019D01*
X1046Y1019D01*
X1046Y1017D01*
X1048Y1017D01*
X1048Y1015D01*
X1050Y1015D01*
X1050Y1013D01*
X1052Y1013D01*
X1052Y1011D01*
X1054Y1011D01*
X1054Y1007D01*
X1076Y1007D01*
X1076Y1009D01*
X1078Y1009D01*
X1078Y1013D01*
X1080Y1013D01*
X1080Y1015D01*
X1082Y1015D01*
X1082Y1017D01*
X1084Y1017D01*
X1084Y1019D01*
X1086Y1019D01*
X1086Y1021D01*
X1090Y1021D01*
X1090Y1023D01*
X1094Y1023D01*
X1094Y1025D01*
X1096Y1025D01*
X1096Y1027D01*
X1104Y1027D01*
X1104Y1029D01*
X1028Y1029D01*
G37*
D02*
G36*
X2706Y967D02*
X2706Y965D01*
X2702Y965D01*
X2702Y963D01*
X2698Y963D01*
X2698Y961D01*
X2694Y961D01*
X2694Y959D01*
X2690Y959D01*
X2690Y957D01*
X2686Y957D01*
X2686Y955D01*
X2682Y955D01*
X2682Y953D01*
X2678Y953D01*
X2678Y951D01*
X2674Y951D01*
X2674Y949D01*
X2670Y949D01*
X2670Y947D01*
X2666Y947D01*
X2666Y945D01*
X2664Y945D01*
X2664Y943D01*
X2660Y943D01*
X2660Y941D01*
X2656Y941D01*
X2656Y939D01*
X2652Y939D01*
X2652Y937D01*
X2648Y937D01*
X2648Y935D01*
X2644Y935D01*
X2644Y933D01*
X2640Y933D01*
X2640Y931D01*
X2636Y931D01*
X2636Y929D01*
X2632Y929D01*
X2632Y927D01*
X2628Y927D01*
X2628Y925D01*
X2624Y925D01*
X2624Y923D01*
X2620Y923D01*
X2620Y921D01*
X2616Y921D01*
X2616Y919D01*
X2612Y919D01*
X2612Y917D01*
X2608Y917D01*
X2608Y915D01*
X2604Y915D01*
X2604Y913D01*
X2600Y913D01*
X2600Y911D01*
X2596Y911D01*
X2596Y909D01*
X2592Y909D01*
X2592Y907D01*
X2588Y907D01*
X2588Y905D01*
X2584Y905D01*
X2584Y903D01*
X2580Y903D01*
X2580Y901D01*
X2576Y901D01*
X2576Y899D01*
X2572Y899D01*
X2572Y897D01*
X2568Y897D01*
X2568Y895D01*
X2564Y895D01*
X2564Y893D01*
X2560Y893D01*
X2560Y891D01*
X2556Y891D01*
X2556Y889D01*
X2552Y889D01*
X2552Y887D01*
X2548Y887D01*
X2548Y885D01*
X2544Y885D01*
X2544Y883D01*
X2540Y883D01*
X2540Y881D01*
X2536Y881D01*
X2536Y879D01*
X2532Y879D01*
X2532Y877D01*
X2528Y877D01*
X2528Y875D01*
X2524Y875D01*
X2524Y873D01*
X2520Y873D01*
X2520Y871D01*
X2516Y871D01*
X2516Y869D01*
X2512Y869D01*
X2512Y867D01*
X2508Y867D01*
X2508Y865D01*
X2504Y865D01*
X2504Y863D01*
X2500Y863D01*
X2500Y861D01*
X2498Y861D01*
X2498Y859D01*
X2494Y859D01*
X2494Y857D01*
X2490Y857D01*
X2490Y855D01*
X2486Y855D01*
X2486Y853D01*
X2700Y853D01*
X2700Y851D01*
X2712Y851D01*
X2712Y849D01*
X2718Y849D01*
X2718Y847D01*
X2722Y847D01*
X2722Y845D01*
X2726Y845D01*
X2726Y843D01*
X2730Y843D01*
X2730Y841D01*
X2734Y841D01*
X2734Y839D01*
X2736Y839D01*
X2736Y837D01*
X2740Y837D01*
X2740Y835D01*
X2742Y835D01*
X2742Y833D01*
X2744Y833D01*
X2744Y831D01*
X2746Y831D01*
X2746Y829D01*
X2748Y829D01*
X2748Y827D01*
X2750Y827D01*
X2750Y823D01*
X2752Y823D01*
X2752Y821D01*
X2754Y821D01*
X2754Y819D01*
X2756Y819D01*
X2756Y815D01*
X2758Y815D01*
X2758Y811D01*
X2760Y811D01*
X2760Y807D01*
X2762Y807D01*
X2762Y801D01*
X2764Y801D01*
X2764Y793D01*
X2766Y793D01*
X2766Y767D01*
X2764Y767D01*
X2764Y759D01*
X2762Y759D01*
X2762Y753D01*
X2760Y753D01*
X2760Y749D01*
X2758Y749D01*
X2758Y745D01*
X2756Y745D01*
X2756Y741D01*
X2754Y741D01*
X2754Y737D01*
X2752Y737D01*
X2752Y735D01*
X2750Y735D01*
X2750Y733D01*
X2748Y733D01*
X2748Y731D01*
X2746Y731D01*
X2746Y727D01*
X2742Y727D01*
X2742Y725D01*
X2740Y725D01*
X2740Y723D01*
X2738Y723D01*
X2738Y721D01*
X2736Y721D01*
X2736Y719D01*
X2732Y719D01*
X2732Y717D01*
X2730Y717D01*
X2730Y715D01*
X2726Y715D01*
X2726Y713D01*
X2720Y713D01*
X2720Y711D01*
X2716Y711D01*
X2716Y709D01*
X2708Y709D01*
X2708Y707D01*
X3128Y707D01*
X3128Y709D01*
X3122Y709D01*
X3122Y711D01*
X3116Y711D01*
X3116Y713D01*
X3112Y713D01*
X3112Y715D01*
X3108Y715D01*
X3108Y717D01*
X3104Y717D01*
X3104Y719D01*
X3102Y719D01*
X3102Y721D01*
X3098Y721D01*
X3098Y723D01*
X3096Y723D01*
X3096Y725D01*
X3094Y725D01*
X3094Y727D01*
X3092Y727D01*
X3092Y729D01*
X3090Y729D01*
X3090Y731D01*
X3088Y731D01*
X3088Y733D01*
X3086Y733D01*
X3086Y735D01*
X3084Y735D01*
X3084Y739D01*
X3082Y739D01*
X3082Y741D01*
X3080Y741D01*
X3080Y745D01*
X3078Y745D01*
X3078Y749D01*
X3076Y749D01*
X3076Y755D01*
X3074Y755D01*
X3074Y761D01*
X3072Y761D01*
X3072Y771D01*
X3070Y771D01*
X3070Y789D01*
X3072Y789D01*
X3072Y799D01*
X3074Y799D01*
X3074Y805D01*
X3076Y805D01*
X3076Y809D01*
X3078Y809D01*
X3078Y813D01*
X3080Y813D01*
X3080Y817D01*
X3082Y817D01*
X3082Y821D01*
X3084Y821D01*
X3084Y823D01*
X3086Y823D01*
X3086Y825D01*
X3088Y825D01*
X3088Y829D01*
X3090Y829D01*
X3090Y831D01*
X3092Y831D01*
X3092Y833D01*
X3094Y833D01*
X3094Y835D01*
X3098Y835D01*
X3098Y855D01*
X2794Y855D01*
X2794Y857D01*
X2784Y857D01*
X2784Y859D01*
X2780Y859D01*
X2780Y861D01*
X2776Y861D01*
X2776Y863D01*
X2774Y863D01*
X2774Y865D01*
X2772Y865D01*
X2772Y867D01*
X2768Y867D01*
X2768Y871D01*
X2766Y871D01*
X2766Y873D01*
X2764Y873D01*
X2764Y877D01*
X2762Y877D01*
X2762Y879D01*
X2760Y879D01*
X2760Y885D01*
X2758Y885D01*
X2758Y889D01*
X2756Y889D01*
X2756Y895D01*
X2754Y895D01*
X2754Y899D01*
X2752Y899D01*
X2752Y905D01*
X2750Y905D01*
X2750Y909D01*
X2748Y909D01*
X2748Y915D01*
X2746Y915D01*
X2746Y919D01*
X2744Y919D01*
X2744Y923D01*
X2742Y923D01*
X2742Y929D01*
X2740Y929D01*
X2740Y933D01*
X2738Y933D01*
X2738Y939D01*
X2736Y939D01*
X2736Y943D01*
X2734Y943D01*
X2734Y949D01*
X2732Y949D01*
X2732Y953D01*
X2730Y953D01*
X2730Y959D01*
X2728Y959D01*
X2728Y963D01*
X2726Y963D01*
X2726Y967D01*
X2706Y967D01*
G37*
D02*
G36*
X2242Y963D02*
X2242Y959D01*
X2240Y959D01*
X2240Y957D01*
X2238Y957D01*
X2238Y955D01*
X2236Y955D01*
X2236Y951D01*
X2232Y951D01*
X2232Y949D01*
X2230Y949D01*
X2230Y947D01*
X2228Y947D01*
X2228Y945D01*
X2224Y945D01*
X2224Y943D01*
X2220Y943D01*
X2220Y941D01*
X2214Y941D01*
X2214Y939D01*
X2290Y939D01*
X2290Y941D01*
X2284Y941D01*
X2284Y943D01*
X2280Y943D01*
X2280Y945D01*
X2276Y945D01*
X2276Y947D01*
X2274Y947D01*
X2274Y949D01*
X2270Y949D01*
X2270Y951D01*
X2268Y951D01*
X2268Y953D01*
X2266Y953D01*
X2266Y957D01*
X2264Y957D01*
X2264Y959D01*
X2262Y959D01*
X2262Y963D01*
X2242Y963D01*
G37*
D02*
G36*
X2342Y963D02*
X2342Y959D01*
X2340Y959D01*
X2340Y957D01*
X2338Y957D01*
X2338Y955D01*
X2336Y955D01*
X2336Y951D01*
X2332Y951D01*
X2332Y949D01*
X2330Y949D01*
X2330Y947D01*
X2328Y947D01*
X2328Y945D01*
X2324Y945D01*
X2324Y943D01*
X2320Y943D01*
X2320Y941D01*
X2314Y941D01*
X2314Y939D01*
X2390Y939D01*
X2390Y941D01*
X2384Y941D01*
X2384Y943D01*
X2380Y943D01*
X2380Y945D01*
X2376Y945D01*
X2376Y947D01*
X2374Y947D01*
X2374Y949D01*
X2370Y949D01*
X2370Y951D01*
X2368Y951D01*
X2368Y953D01*
X2366Y953D01*
X2366Y957D01*
X2364Y957D01*
X2364Y959D01*
X2362Y959D01*
X2362Y963D01*
X2342Y963D01*
G37*
D02*
G36*
X954Y959D02*
X954Y955D01*
X952Y955D01*
X952Y953D01*
X950Y953D01*
X950Y951D01*
X948Y951D01*
X948Y949D01*
X946Y949D01*
X946Y947D01*
X944Y947D01*
X944Y945D01*
X942Y945D01*
X942Y943D01*
X938Y943D01*
X938Y941D01*
X934Y941D01*
X934Y939D01*
X928Y939D01*
X928Y937D01*
X922Y937D01*
X922Y935D01*
X1014Y935D01*
X1014Y937D01*
X1002Y937D01*
X1002Y939D01*
X996Y939D01*
X996Y941D01*
X992Y941D01*
X992Y943D01*
X990Y943D01*
X990Y945D01*
X986Y945D01*
X986Y947D01*
X984Y947D01*
X984Y949D01*
X982Y949D01*
X982Y951D01*
X980Y951D01*
X980Y953D01*
X978Y953D01*
X978Y955D01*
X976Y955D01*
X976Y959D01*
X954Y959D01*
G37*
D02*
G36*
X1054Y959D02*
X1054Y955D01*
X1052Y955D01*
X1052Y953D01*
X1050Y953D01*
X1050Y951D01*
X1048Y951D01*
X1048Y949D01*
X1046Y949D01*
X1046Y947D01*
X1044Y947D01*
X1044Y945D01*
X1042Y945D01*
X1042Y943D01*
X1038Y943D01*
X1038Y941D01*
X1034Y941D01*
X1034Y939D01*
X1028Y939D01*
X1028Y937D01*
X1016Y937D01*
X1016Y935D01*
X1114Y935D01*
X1114Y937D01*
X1102Y937D01*
X1102Y939D01*
X1096Y939D01*
X1096Y941D01*
X1092Y941D01*
X1092Y943D01*
X1090Y943D01*
X1090Y945D01*
X1086Y945D01*
X1086Y947D01*
X1084Y947D01*
X1084Y949D01*
X1082Y949D01*
X1082Y951D01*
X1080Y951D01*
X1080Y953D01*
X1078Y953D01*
X1078Y955D01*
X1076Y955D01*
X1076Y959D01*
X1054Y959D01*
G37*
D02*
G36*
X2148Y953D02*
X2148Y939D01*
X2190Y939D01*
X2190Y941D01*
X2184Y941D01*
X2184Y943D01*
X2180Y943D01*
X2180Y945D01*
X2176Y945D01*
X2176Y947D01*
X2174Y947D01*
X2174Y949D01*
X2170Y949D01*
X2170Y951D01*
X2168Y951D01*
X2168Y953D01*
X2148Y953D01*
G37*
D02*
G36*
X2112Y939D02*
X2112Y937D01*
X2474Y937D01*
X2474Y939D01*
X2112Y939D01*
G37*
D02*
G36*
X2112Y939D02*
X2112Y937D01*
X2474Y937D01*
X2474Y939D01*
X2112Y939D01*
G37*
D02*
G36*
X2112Y939D02*
X2112Y937D01*
X2474Y937D01*
X2474Y939D01*
X2112Y939D01*
G37*
D02*
G36*
X2112Y939D02*
X2112Y937D01*
X2474Y937D01*
X2474Y939D01*
X2112Y939D01*
G37*
D02*
G36*
X2112Y937D02*
X2112Y933D01*
X2110Y933D01*
X2110Y929D01*
X2108Y929D01*
X2108Y925D01*
X2106Y925D01*
X2106Y923D01*
X2104Y923D01*
X2104Y919D01*
X2102Y919D01*
X2102Y917D01*
X2100Y917D01*
X2100Y915D01*
X2098Y915D01*
X2098Y911D01*
X2096Y911D01*
X2096Y909D01*
X2094Y909D01*
X2094Y907D01*
X2092Y907D01*
X2092Y903D01*
X2090Y903D01*
X2090Y901D01*
X2088Y901D01*
X2088Y899D01*
X2086Y899D01*
X2086Y895D01*
X2084Y895D01*
X2084Y893D01*
X2082Y893D01*
X2082Y891D01*
X2080Y891D01*
X2080Y887D01*
X2078Y887D01*
X2078Y885D01*
X2076Y885D01*
X2076Y883D01*
X2074Y883D01*
X2074Y879D01*
X2072Y879D01*
X2072Y877D01*
X2070Y877D01*
X2070Y875D01*
X2068Y875D01*
X2068Y871D01*
X2066Y871D01*
X2066Y869D01*
X2064Y869D01*
X2064Y867D01*
X2062Y867D01*
X2062Y865D01*
X2060Y865D01*
X2060Y863D01*
X2058Y863D01*
X2058Y861D01*
X2056Y861D01*
X2056Y859D01*
X2054Y859D01*
X2054Y857D01*
X2050Y857D01*
X2050Y855D01*
X2044Y855D01*
X2044Y853D01*
X2004Y853D01*
X2004Y851D01*
X1906Y851D01*
X1906Y831D01*
X1908Y831D01*
X1908Y827D01*
X1910Y827D01*
X1910Y825D01*
X1912Y825D01*
X1912Y823D01*
X1914Y823D01*
X1914Y819D01*
X1916Y819D01*
X1916Y817D01*
X1918Y817D01*
X1918Y813D01*
X1920Y813D01*
X1920Y807D01*
X2068Y807D01*
X2068Y805D01*
X2074Y805D01*
X2074Y803D01*
X2080Y803D01*
X2080Y801D01*
X2084Y801D01*
X2084Y799D01*
X2088Y799D01*
X2088Y797D01*
X2092Y797D01*
X2092Y795D01*
X2094Y795D01*
X2094Y793D01*
X2098Y793D01*
X2098Y791D01*
X2100Y791D01*
X2100Y789D01*
X2102Y789D01*
X2102Y787D01*
X2104Y787D01*
X2104Y785D01*
X2106Y785D01*
X2106Y783D01*
X2108Y783D01*
X2108Y781D01*
X2110Y781D01*
X2110Y777D01*
X2112Y777D01*
X2112Y775D01*
X2114Y775D01*
X2114Y771D01*
X2116Y771D01*
X2116Y767D01*
X2118Y767D01*
X2118Y763D01*
X2120Y763D01*
X2120Y757D01*
X2122Y757D01*
X2122Y751D01*
X2124Y751D01*
X2124Y719D01*
X2122Y719D01*
X2122Y713D01*
X2120Y713D01*
X2120Y707D01*
X2118Y707D01*
X2118Y703D01*
X2116Y703D01*
X2116Y699D01*
X2114Y699D01*
X2114Y695D01*
X2112Y695D01*
X2112Y693D01*
X2110Y693D01*
X2110Y689D01*
X2108Y689D01*
X2108Y669D01*
X2146Y669D01*
X2146Y689D01*
X2144Y689D01*
X2144Y889D01*
X2146Y889D01*
X2146Y895D01*
X2148Y895D01*
X2148Y899D01*
X2150Y899D01*
X2150Y903D01*
X2152Y903D01*
X2152Y905D01*
X2154Y905D01*
X2154Y907D01*
X2156Y907D01*
X2156Y909D01*
X2158Y909D01*
X2158Y911D01*
X2160Y911D01*
X2160Y913D01*
X2164Y913D01*
X2164Y915D01*
X2168Y915D01*
X2168Y917D01*
X2174Y917D01*
X2174Y919D01*
X2438Y919D01*
X2438Y921D01*
X2442Y921D01*
X2442Y923D01*
X2446Y923D01*
X2446Y925D01*
X2450Y925D01*
X2450Y927D01*
X2454Y927D01*
X2454Y929D01*
X2458Y929D01*
X2458Y931D01*
X2462Y931D01*
X2462Y933D01*
X2466Y933D01*
X2466Y935D01*
X2470Y935D01*
X2470Y937D01*
X2112Y937D01*
G37*
D02*
G36*
X922Y935D02*
X922Y933D01*
X1452Y933D01*
X1452Y935D01*
X922Y935D01*
G37*
D02*
G36*
X922Y935D02*
X922Y933D01*
X1452Y933D01*
X1452Y935D01*
X922Y935D01*
G37*
D02*
G36*
X922Y935D02*
X922Y933D01*
X1452Y933D01*
X1452Y935D01*
X922Y935D01*
G37*
D02*
G36*
X922Y933D02*
X922Y917D01*
X924Y917D01*
X924Y913D01*
X926Y913D01*
X926Y911D01*
X928Y911D01*
X928Y909D01*
X930Y909D01*
X930Y907D01*
X932Y907D01*
X932Y905D01*
X934Y905D01*
X934Y901D01*
X936Y901D01*
X936Y899D01*
X938Y899D01*
X938Y897D01*
X940Y897D01*
X940Y895D01*
X942Y895D01*
X942Y893D01*
X944Y893D01*
X944Y889D01*
X946Y889D01*
X946Y887D01*
X948Y887D01*
X948Y885D01*
X950Y885D01*
X950Y883D01*
X952Y883D01*
X952Y881D01*
X954Y881D01*
X954Y877D01*
X956Y877D01*
X956Y875D01*
X958Y875D01*
X958Y873D01*
X960Y873D01*
X960Y871D01*
X962Y871D01*
X962Y869D01*
X964Y869D01*
X964Y865D01*
X966Y865D01*
X966Y863D01*
X968Y863D01*
X968Y861D01*
X970Y861D01*
X970Y859D01*
X972Y859D01*
X972Y857D01*
X974Y857D01*
X974Y853D01*
X1418Y853D01*
X1418Y851D01*
X1426Y851D01*
X1426Y849D01*
X1432Y849D01*
X1432Y847D01*
X1436Y847D01*
X1436Y845D01*
X1440Y845D01*
X1440Y843D01*
X1442Y843D01*
X1442Y841D01*
X1446Y841D01*
X1446Y839D01*
X1448Y839D01*
X1448Y837D01*
X1450Y837D01*
X1450Y835D01*
X1454Y835D01*
X1454Y833D01*
X1456Y833D01*
X1456Y831D01*
X1458Y831D01*
X1458Y827D01*
X1460Y827D01*
X1460Y825D01*
X1462Y825D01*
X1462Y823D01*
X1464Y823D01*
X1464Y819D01*
X1484Y819D01*
X1484Y865D01*
X1482Y865D01*
X1482Y869D01*
X1480Y869D01*
X1480Y873D01*
X1478Y873D01*
X1478Y879D01*
X1476Y879D01*
X1476Y883D01*
X1474Y883D01*
X1474Y887D01*
X1472Y887D01*
X1472Y891D01*
X1470Y891D01*
X1470Y897D01*
X1468Y897D01*
X1468Y901D01*
X1466Y901D01*
X1466Y905D01*
X1464Y905D01*
X1464Y909D01*
X1462Y909D01*
X1462Y915D01*
X1460Y915D01*
X1460Y919D01*
X1458Y919D01*
X1458Y923D01*
X1456Y923D01*
X1456Y927D01*
X1454Y927D01*
X1454Y933D01*
X922Y933D01*
G37*
D02*
G36*
X792Y925D02*
X792Y923D01*
X788Y923D01*
X788Y921D01*
X786Y921D01*
X786Y919D01*
X782Y919D01*
X782Y917D01*
X778Y917D01*
X778Y915D01*
X774Y915D01*
X774Y913D01*
X772Y913D01*
X772Y911D01*
X768Y911D01*
X768Y909D01*
X764Y909D01*
X764Y907D01*
X760Y907D01*
X760Y905D01*
X758Y905D01*
X758Y903D01*
X754Y903D01*
X754Y901D01*
X750Y901D01*
X750Y899D01*
X746Y899D01*
X746Y897D01*
X744Y897D01*
X744Y895D01*
X740Y895D01*
X740Y893D01*
X736Y893D01*
X736Y891D01*
X732Y891D01*
X732Y889D01*
X728Y889D01*
X728Y887D01*
X726Y887D01*
X726Y885D01*
X722Y885D01*
X722Y883D01*
X718Y883D01*
X718Y881D01*
X714Y881D01*
X714Y879D01*
X712Y879D01*
X712Y877D01*
X708Y877D01*
X708Y875D01*
X704Y875D01*
X704Y873D01*
X700Y873D01*
X700Y871D01*
X698Y871D01*
X698Y869D01*
X694Y869D01*
X694Y867D01*
X690Y867D01*
X690Y805D01*
X782Y805D01*
X782Y803D01*
X788Y803D01*
X788Y801D01*
X794Y801D01*
X794Y799D01*
X798Y799D01*
X798Y797D01*
X802Y797D01*
X802Y795D01*
X804Y795D01*
X804Y793D01*
X808Y793D01*
X808Y791D01*
X810Y791D01*
X810Y789D01*
X814Y789D01*
X814Y787D01*
X816Y787D01*
X816Y785D01*
X818Y785D01*
X818Y783D01*
X820Y783D01*
X820Y781D01*
X822Y781D01*
X822Y777D01*
X824Y777D01*
X824Y775D01*
X826Y775D01*
X826Y771D01*
X828Y771D01*
X828Y769D01*
X830Y769D01*
X830Y765D01*
X832Y765D01*
X832Y759D01*
X834Y759D01*
X834Y755D01*
X836Y755D01*
X836Y747D01*
X838Y747D01*
X838Y719D01*
X836Y719D01*
X836Y711D01*
X834Y711D01*
X834Y707D01*
X832Y707D01*
X832Y701D01*
X830Y701D01*
X830Y697D01*
X828Y697D01*
X828Y695D01*
X826Y695D01*
X826Y691D01*
X824Y691D01*
X824Y689D01*
X822Y689D01*
X822Y685D01*
X820Y685D01*
X820Y683D01*
X818Y683D01*
X818Y681D01*
X816Y681D01*
X816Y679D01*
X814Y679D01*
X814Y677D01*
X810Y677D01*
X810Y675D01*
X808Y675D01*
X808Y673D01*
X806Y673D01*
X806Y671D01*
X802Y671D01*
X802Y669D01*
X798Y669D01*
X798Y667D01*
X794Y667D01*
X794Y665D01*
X788Y665D01*
X788Y663D01*
X782Y663D01*
X782Y661D01*
X768Y661D01*
X768Y659D01*
X1032Y659D01*
X1032Y661D01*
X1030Y661D01*
X1030Y665D01*
X1028Y665D01*
X1028Y667D01*
X1026Y667D01*
X1026Y669D01*
X1024Y669D01*
X1024Y671D01*
X1022Y671D01*
X1022Y673D01*
X1020Y673D01*
X1020Y677D01*
X1018Y677D01*
X1018Y679D01*
X1016Y679D01*
X1016Y681D01*
X1014Y681D01*
X1014Y683D01*
X1012Y683D01*
X1012Y685D01*
X1010Y685D01*
X1010Y689D01*
X1008Y689D01*
X1008Y691D01*
X1006Y691D01*
X1006Y693D01*
X1004Y693D01*
X1004Y695D01*
X1002Y695D01*
X1002Y697D01*
X1000Y697D01*
X1000Y701D01*
X998Y701D01*
X998Y703D01*
X996Y703D01*
X996Y705D01*
X994Y705D01*
X994Y707D01*
X992Y707D01*
X992Y709D01*
X990Y709D01*
X990Y713D01*
X988Y713D01*
X988Y715D01*
X986Y715D01*
X986Y717D01*
X984Y717D01*
X984Y719D01*
X982Y719D01*
X982Y721D01*
X980Y721D01*
X980Y725D01*
X978Y725D01*
X978Y727D01*
X976Y727D01*
X976Y729D01*
X974Y729D01*
X974Y731D01*
X972Y731D01*
X972Y733D01*
X970Y733D01*
X970Y737D01*
X968Y737D01*
X968Y739D01*
X966Y739D01*
X966Y741D01*
X964Y741D01*
X964Y743D01*
X962Y743D01*
X962Y745D01*
X960Y745D01*
X960Y749D01*
X958Y749D01*
X958Y751D01*
X956Y751D01*
X956Y753D01*
X954Y753D01*
X954Y755D01*
X952Y755D01*
X952Y757D01*
X950Y757D01*
X950Y761D01*
X948Y761D01*
X948Y763D01*
X946Y763D01*
X946Y765D01*
X944Y765D01*
X944Y767D01*
X942Y767D01*
X942Y769D01*
X940Y769D01*
X940Y773D01*
X938Y773D01*
X938Y775D01*
X936Y775D01*
X936Y777D01*
X934Y777D01*
X934Y779D01*
X932Y779D01*
X932Y781D01*
X930Y781D01*
X930Y785D01*
X928Y785D01*
X928Y787D01*
X926Y787D01*
X926Y789D01*
X924Y789D01*
X924Y791D01*
X922Y791D01*
X922Y793D01*
X920Y793D01*
X920Y797D01*
X918Y797D01*
X918Y799D01*
X916Y799D01*
X916Y801D01*
X914Y801D01*
X914Y803D01*
X912Y803D01*
X912Y805D01*
X910Y805D01*
X910Y809D01*
X908Y809D01*
X908Y811D01*
X906Y811D01*
X906Y813D01*
X904Y813D01*
X904Y815D01*
X902Y815D01*
X902Y817D01*
X900Y817D01*
X900Y821D01*
X898Y821D01*
X898Y823D01*
X896Y823D01*
X896Y825D01*
X894Y825D01*
X894Y827D01*
X892Y827D01*
X892Y829D01*
X890Y829D01*
X890Y833D01*
X888Y833D01*
X888Y835D01*
X886Y835D01*
X886Y837D01*
X884Y837D01*
X884Y839D01*
X882Y839D01*
X882Y841D01*
X880Y841D01*
X880Y845D01*
X878Y845D01*
X878Y847D01*
X876Y847D01*
X876Y849D01*
X874Y849D01*
X874Y851D01*
X872Y851D01*
X872Y853D01*
X870Y853D01*
X870Y857D01*
X868Y857D01*
X868Y859D01*
X866Y859D01*
X866Y861D01*
X864Y861D01*
X864Y863D01*
X862Y863D01*
X862Y865D01*
X860Y865D01*
X860Y869D01*
X858Y869D01*
X858Y871D01*
X856Y871D01*
X856Y873D01*
X854Y873D01*
X854Y875D01*
X852Y875D01*
X852Y877D01*
X850Y877D01*
X850Y881D01*
X848Y881D01*
X848Y883D01*
X846Y883D01*
X846Y885D01*
X844Y885D01*
X844Y887D01*
X842Y887D01*
X842Y889D01*
X840Y889D01*
X840Y893D01*
X838Y893D01*
X838Y895D01*
X836Y895D01*
X836Y897D01*
X834Y897D01*
X834Y899D01*
X832Y899D01*
X832Y901D01*
X830Y901D01*
X830Y905D01*
X828Y905D01*
X828Y907D01*
X826Y907D01*
X826Y909D01*
X824Y909D01*
X824Y911D01*
X822Y911D01*
X822Y913D01*
X820Y913D01*
X820Y917D01*
X818Y917D01*
X818Y919D01*
X816Y919D01*
X816Y921D01*
X814Y921D01*
X814Y923D01*
X812Y923D01*
X812Y925D01*
X792Y925D01*
G37*
D02*
G36*
X976Y853D02*
X976Y851D01*
X978Y851D01*
X978Y849D01*
X980Y849D01*
X980Y847D01*
X982Y847D01*
X982Y845D01*
X984Y845D01*
X984Y841D01*
X986Y841D01*
X986Y839D01*
X988Y839D01*
X988Y837D01*
X990Y837D01*
X990Y835D01*
X992Y835D01*
X992Y833D01*
X994Y833D01*
X994Y829D01*
X996Y829D01*
X996Y827D01*
X998Y827D01*
X998Y825D01*
X1000Y825D01*
X1000Y823D01*
X1002Y823D01*
X1002Y821D01*
X1004Y821D01*
X1004Y817D01*
X1006Y817D01*
X1006Y815D01*
X1008Y815D01*
X1008Y813D01*
X1010Y813D01*
X1010Y811D01*
X1012Y811D01*
X1012Y809D01*
X1014Y809D01*
X1014Y805D01*
X1232Y805D01*
X1232Y803D01*
X1238Y803D01*
X1238Y801D01*
X1244Y801D01*
X1244Y799D01*
X1248Y799D01*
X1248Y797D01*
X1252Y797D01*
X1252Y795D01*
X1254Y795D01*
X1254Y793D01*
X1258Y793D01*
X1258Y791D01*
X1260Y791D01*
X1260Y789D01*
X1264Y789D01*
X1264Y787D01*
X1266Y787D01*
X1266Y785D01*
X1268Y785D01*
X1268Y783D01*
X1270Y783D01*
X1270Y781D01*
X1272Y781D01*
X1272Y777D01*
X1274Y777D01*
X1274Y775D01*
X1276Y775D01*
X1276Y771D01*
X1278Y771D01*
X1278Y769D01*
X1280Y769D01*
X1280Y765D01*
X1282Y765D01*
X1282Y759D01*
X1284Y759D01*
X1284Y755D01*
X1286Y755D01*
X1286Y747D01*
X1288Y747D01*
X1288Y719D01*
X1286Y719D01*
X1286Y711D01*
X1284Y711D01*
X1284Y707D01*
X1398Y707D01*
X1398Y709D01*
X1386Y709D01*
X1386Y711D01*
X1380Y711D01*
X1380Y713D01*
X1374Y713D01*
X1374Y715D01*
X1370Y715D01*
X1370Y717D01*
X1366Y717D01*
X1366Y719D01*
X1364Y719D01*
X1364Y721D01*
X1360Y721D01*
X1360Y723D01*
X1358Y723D01*
X1358Y725D01*
X1356Y725D01*
X1356Y727D01*
X1354Y727D01*
X1354Y729D01*
X1352Y729D01*
X1352Y731D01*
X1350Y731D01*
X1350Y733D01*
X1348Y733D01*
X1348Y735D01*
X1346Y735D01*
X1346Y737D01*
X1344Y737D01*
X1344Y739D01*
X1342Y739D01*
X1342Y743D01*
X1340Y743D01*
X1340Y747D01*
X1338Y747D01*
X1338Y751D01*
X1336Y751D01*
X1336Y757D01*
X1334Y757D01*
X1334Y763D01*
X1332Y763D01*
X1332Y773D01*
X1330Y773D01*
X1330Y789D01*
X1332Y789D01*
X1332Y799D01*
X1334Y799D01*
X1334Y805D01*
X1336Y805D01*
X1336Y811D01*
X1338Y811D01*
X1338Y815D01*
X1340Y815D01*
X1340Y819D01*
X1342Y819D01*
X1342Y821D01*
X1344Y821D01*
X1344Y825D01*
X1346Y825D01*
X1346Y827D01*
X1348Y827D01*
X1348Y829D01*
X1350Y829D01*
X1350Y831D01*
X1352Y831D01*
X1352Y833D01*
X1354Y833D01*
X1354Y835D01*
X1356Y835D01*
X1356Y837D01*
X1358Y837D01*
X1358Y839D01*
X1362Y839D01*
X1362Y841D01*
X1364Y841D01*
X1364Y843D01*
X1368Y843D01*
X1368Y845D01*
X1372Y845D01*
X1372Y847D01*
X1376Y847D01*
X1376Y849D01*
X1382Y849D01*
X1382Y851D01*
X1388Y851D01*
X1388Y853D01*
X976Y853D01*
G37*
D02*
G36*
X2482Y853D02*
X2482Y851D01*
X2478Y851D01*
X2478Y849D01*
X2474Y849D01*
X2474Y847D01*
X2470Y847D01*
X2470Y845D01*
X2466Y845D01*
X2466Y843D01*
X2460Y843D01*
X2460Y841D01*
X2454Y841D01*
X2454Y839D01*
X2224Y839D01*
X2224Y807D01*
X2518Y807D01*
X2518Y805D01*
X2524Y805D01*
X2524Y803D01*
X2530Y803D01*
X2530Y801D01*
X2534Y801D01*
X2534Y799D01*
X2538Y799D01*
X2538Y797D01*
X2542Y797D01*
X2542Y795D01*
X2544Y795D01*
X2544Y793D01*
X2548Y793D01*
X2548Y791D01*
X2550Y791D01*
X2550Y789D01*
X2552Y789D01*
X2552Y787D01*
X2554Y787D01*
X2554Y785D01*
X2556Y785D01*
X2556Y783D01*
X2558Y783D01*
X2558Y781D01*
X2560Y781D01*
X2560Y777D01*
X2562Y777D01*
X2562Y775D01*
X2564Y775D01*
X2564Y771D01*
X2566Y771D01*
X2566Y767D01*
X2568Y767D01*
X2568Y763D01*
X2570Y763D01*
X2570Y757D01*
X2572Y757D01*
X2572Y751D01*
X2574Y751D01*
X2574Y719D01*
X2572Y719D01*
X2572Y713D01*
X2570Y713D01*
X2570Y707D01*
X2678Y707D01*
X2678Y709D01*
X2672Y709D01*
X2672Y711D01*
X2666Y711D01*
X2666Y713D01*
X2662Y713D01*
X2662Y715D01*
X2658Y715D01*
X2658Y717D01*
X2654Y717D01*
X2654Y719D01*
X2652Y719D01*
X2652Y721D01*
X2648Y721D01*
X2648Y723D01*
X2646Y723D01*
X2646Y725D01*
X2644Y725D01*
X2644Y727D01*
X2642Y727D01*
X2642Y729D01*
X2640Y729D01*
X2640Y731D01*
X2638Y731D01*
X2638Y733D01*
X2636Y733D01*
X2636Y735D01*
X2634Y735D01*
X2634Y739D01*
X2632Y739D01*
X2632Y741D01*
X2630Y741D01*
X2630Y745D01*
X2628Y745D01*
X2628Y749D01*
X2626Y749D01*
X2626Y755D01*
X2624Y755D01*
X2624Y761D01*
X2622Y761D01*
X2622Y771D01*
X2620Y771D01*
X2620Y789D01*
X2622Y789D01*
X2622Y799D01*
X2624Y799D01*
X2624Y805D01*
X2626Y805D01*
X2626Y809D01*
X2628Y809D01*
X2628Y813D01*
X2630Y813D01*
X2630Y817D01*
X2632Y817D01*
X2632Y821D01*
X2634Y821D01*
X2634Y823D01*
X2636Y823D01*
X2636Y825D01*
X2638Y825D01*
X2638Y829D01*
X2640Y829D01*
X2640Y831D01*
X2642Y831D01*
X2642Y833D01*
X2644Y833D01*
X2644Y835D01*
X2648Y835D01*
X2648Y837D01*
X2650Y837D01*
X2650Y839D01*
X2652Y839D01*
X2652Y841D01*
X2656Y841D01*
X2656Y843D01*
X2660Y843D01*
X2660Y845D01*
X2664Y845D01*
X2664Y847D01*
X2670Y847D01*
X2670Y849D01*
X2676Y849D01*
X2676Y851D01*
X2686Y851D01*
X2686Y853D01*
X2482Y853D01*
G37*
D02*
G36*
X1690Y849D02*
X1690Y847D01*
X1564Y847D01*
X1564Y707D01*
X1848Y707D01*
X1848Y709D01*
X1836Y709D01*
X1836Y711D01*
X1830Y711D01*
X1830Y713D01*
X1824Y713D01*
X1824Y715D01*
X1820Y715D01*
X1820Y717D01*
X1816Y717D01*
X1816Y719D01*
X1814Y719D01*
X1814Y721D01*
X1810Y721D01*
X1810Y723D01*
X1808Y723D01*
X1808Y725D01*
X1806Y725D01*
X1806Y727D01*
X1804Y727D01*
X1804Y729D01*
X1802Y729D01*
X1802Y731D01*
X1800Y731D01*
X1800Y733D01*
X1798Y733D01*
X1798Y735D01*
X1796Y735D01*
X1796Y737D01*
X1794Y737D01*
X1794Y739D01*
X1792Y739D01*
X1792Y743D01*
X1790Y743D01*
X1790Y747D01*
X1788Y747D01*
X1788Y751D01*
X1786Y751D01*
X1786Y757D01*
X1784Y757D01*
X1784Y763D01*
X1782Y763D01*
X1782Y773D01*
X1780Y773D01*
X1780Y789D01*
X1782Y789D01*
X1782Y799D01*
X1784Y799D01*
X1784Y805D01*
X1786Y805D01*
X1786Y811D01*
X1788Y811D01*
X1788Y815D01*
X1790Y815D01*
X1790Y819D01*
X1792Y819D01*
X1792Y821D01*
X1794Y821D01*
X1794Y825D01*
X1796Y825D01*
X1796Y827D01*
X1798Y827D01*
X1798Y829D01*
X1800Y829D01*
X1800Y849D01*
X1690Y849D01*
G37*
D02*
G36*
X1922Y807D02*
X1922Y803D01*
X1924Y803D01*
X1924Y795D01*
X1926Y795D01*
X1926Y767D01*
X1924Y767D01*
X1924Y759D01*
X1922Y759D01*
X1922Y753D01*
X1920Y753D01*
X1920Y749D01*
X1918Y749D01*
X1918Y745D01*
X1916Y745D01*
X1916Y741D01*
X1914Y741D01*
X1914Y739D01*
X1912Y739D01*
X1912Y737D01*
X1910Y737D01*
X1910Y733D01*
X1908Y733D01*
X1908Y731D01*
X1906Y731D01*
X1906Y729D01*
X1904Y729D01*
X1904Y727D01*
X1902Y727D01*
X1902Y725D01*
X1900Y725D01*
X1900Y723D01*
X1896Y723D01*
X1896Y721D01*
X1894Y721D01*
X1894Y719D01*
X1890Y719D01*
X1890Y717D01*
X1886Y717D01*
X1886Y715D01*
X1882Y715D01*
X1882Y713D01*
X1878Y713D01*
X1878Y711D01*
X1870Y711D01*
X1870Y709D01*
X1858Y709D01*
X1858Y707D01*
X1984Y707D01*
X1984Y711D01*
X1982Y711D01*
X1982Y719D01*
X1980Y719D01*
X1980Y731D01*
X1978Y731D01*
X1978Y739D01*
X1980Y739D01*
X1980Y753D01*
X1982Y753D01*
X1982Y759D01*
X1984Y759D01*
X1984Y763D01*
X1986Y763D01*
X1986Y769D01*
X1988Y769D01*
X1988Y771D01*
X1990Y771D01*
X1990Y775D01*
X1992Y775D01*
X1992Y779D01*
X1994Y779D01*
X1994Y781D01*
X1996Y781D01*
X1996Y783D01*
X1998Y783D01*
X1998Y785D01*
X2000Y785D01*
X2000Y787D01*
X2002Y787D01*
X2002Y789D01*
X2004Y789D01*
X2004Y791D01*
X2006Y791D01*
X2006Y793D01*
X2010Y793D01*
X2010Y795D01*
X2012Y795D01*
X2012Y797D01*
X2016Y797D01*
X2016Y799D01*
X2020Y799D01*
X2020Y801D01*
X2024Y801D01*
X2024Y803D01*
X2028Y803D01*
X2028Y805D01*
X2036Y805D01*
X2036Y807D01*
X1922Y807D01*
G37*
D02*
G36*
X2224Y807D02*
X2224Y687D01*
X2226Y687D01*
X2226Y663D01*
X2486Y663D01*
X2486Y665D01*
X2478Y665D01*
X2478Y667D01*
X2474Y667D01*
X2474Y669D01*
X2470Y669D01*
X2470Y671D01*
X2466Y671D01*
X2466Y673D01*
X2462Y673D01*
X2462Y675D01*
X2460Y675D01*
X2460Y677D01*
X2456Y677D01*
X2456Y679D01*
X2454Y679D01*
X2454Y681D01*
X2452Y681D01*
X2452Y683D01*
X2450Y683D01*
X2450Y685D01*
X2448Y685D01*
X2448Y687D01*
X2446Y687D01*
X2446Y689D01*
X2444Y689D01*
X2444Y693D01*
X2442Y693D01*
X2442Y695D01*
X2440Y695D01*
X2440Y699D01*
X2438Y699D01*
X2438Y701D01*
X2436Y701D01*
X2436Y707D01*
X2434Y707D01*
X2434Y711D01*
X2432Y711D01*
X2432Y719D01*
X2430Y719D01*
X2430Y731D01*
X2428Y731D01*
X2428Y739D01*
X2430Y739D01*
X2430Y753D01*
X2432Y753D01*
X2432Y759D01*
X2434Y759D01*
X2434Y763D01*
X2436Y763D01*
X2436Y769D01*
X2438Y769D01*
X2438Y771D01*
X2440Y771D01*
X2440Y775D01*
X2442Y775D01*
X2442Y779D01*
X2444Y779D01*
X2444Y781D01*
X2446Y781D01*
X2446Y783D01*
X2448Y783D01*
X2448Y785D01*
X2450Y785D01*
X2450Y787D01*
X2452Y787D01*
X2452Y789D01*
X2454Y789D01*
X2454Y791D01*
X2456Y791D01*
X2456Y793D01*
X2460Y793D01*
X2460Y795D01*
X2462Y795D01*
X2462Y797D01*
X2466Y797D01*
X2466Y799D01*
X2470Y799D01*
X2470Y801D01*
X2474Y801D01*
X2474Y803D01*
X2478Y803D01*
X2478Y805D01*
X2486Y805D01*
X2486Y807D01*
X2224Y807D01*
G37*
D02*
G36*
X690Y805D02*
X690Y779D01*
X710Y779D01*
X710Y781D01*
X712Y781D01*
X712Y783D01*
X714Y783D01*
X714Y785D01*
X716Y785D01*
X716Y787D01*
X718Y787D01*
X718Y789D01*
X720Y789D01*
X720Y791D01*
X722Y791D01*
X722Y793D01*
X726Y793D01*
X726Y795D01*
X730Y795D01*
X730Y797D01*
X732Y797D01*
X732Y799D01*
X738Y799D01*
X738Y801D01*
X742Y801D01*
X742Y803D01*
X750Y803D01*
X750Y805D01*
X690Y805D01*
G37*
D02*
G36*
X1016Y805D02*
X1016Y803D01*
X1018Y803D01*
X1018Y801D01*
X1020Y801D01*
X1020Y799D01*
X1022Y799D01*
X1022Y797D01*
X1024Y797D01*
X1024Y793D01*
X1026Y793D01*
X1026Y791D01*
X1028Y791D01*
X1028Y789D01*
X1030Y789D01*
X1030Y787D01*
X1032Y787D01*
X1032Y785D01*
X1034Y785D01*
X1034Y781D01*
X1036Y781D01*
X1036Y779D01*
X1038Y779D01*
X1038Y777D01*
X1040Y777D01*
X1040Y775D01*
X1042Y775D01*
X1042Y773D01*
X1044Y773D01*
X1044Y769D01*
X1046Y769D01*
X1046Y767D01*
X1048Y767D01*
X1048Y765D01*
X1050Y765D01*
X1050Y763D01*
X1052Y763D01*
X1052Y761D01*
X1054Y761D01*
X1054Y757D01*
X1056Y757D01*
X1056Y755D01*
X1058Y755D01*
X1058Y753D01*
X1060Y753D01*
X1060Y751D01*
X1062Y751D01*
X1062Y749D01*
X1064Y749D01*
X1064Y745D01*
X1066Y745D01*
X1066Y743D01*
X1068Y743D01*
X1068Y741D01*
X1070Y741D01*
X1070Y739D01*
X1072Y739D01*
X1072Y737D01*
X1074Y737D01*
X1074Y733D01*
X1076Y733D01*
X1076Y731D01*
X1078Y731D01*
X1078Y729D01*
X1080Y729D01*
X1080Y727D01*
X1082Y727D01*
X1082Y725D01*
X1084Y725D01*
X1084Y721D01*
X1086Y721D01*
X1086Y719D01*
X1088Y719D01*
X1088Y717D01*
X1090Y717D01*
X1090Y715D01*
X1092Y715D01*
X1092Y713D01*
X1094Y713D01*
X1094Y709D01*
X1096Y709D01*
X1096Y707D01*
X1098Y707D01*
X1098Y705D01*
X1100Y705D01*
X1100Y703D01*
X1102Y703D01*
X1102Y701D01*
X1104Y701D01*
X1104Y697D01*
X1106Y697D01*
X1106Y695D01*
X1108Y695D01*
X1108Y693D01*
X1110Y693D01*
X1110Y691D01*
X1112Y691D01*
X1112Y689D01*
X1114Y689D01*
X1114Y685D01*
X1116Y685D01*
X1116Y683D01*
X1118Y683D01*
X1118Y681D01*
X1120Y681D01*
X1120Y679D01*
X1122Y679D01*
X1122Y677D01*
X1124Y677D01*
X1124Y673D01*
X1126Y673D01*
X1126Y671D01*
X1128Y671D01*
X1128Y669D01*
X1130Y669D01*
X1130Y667D01*
X1132Y667D01*
X1132Y665D01*
X1134Y665D01*
X1134Y661D01*
X1136Y661D01*
X1136Y659D01*
X1214Y659D01*
X1214Y661D01*
X1198Y661D01*
X1198Y663D01*
X1192Y663D01*
X1192Y665D01*
X1186Y665D01*
X1186Y667D01*
X1182Y667D01*
X1182Y669D01*
X1178Y669D01*
X1178Y671D01*
X1176Y671D01*
X1176Y673D01*
X1172Y673D01*
X1172Y675D01*
X1170Y675D01*
X1170Y677D01*
X1168Y677D01*
X1168Y679D01*
X1166Y679D01*
X1166Y681D01*
X1164Y681D01*
X1164Y683D01*
X1162Y683D01*
X1162Y685D01*
X1160Y685D01*
X1160Y687D01*
X1158Y687D01*
X1158Y689D01*
X1156Y689D01*
X1156Y693D01*
X1154Y693D01*
X1154Y695D01*
X1152Y695D01*
X1152Y699D01*
X1150Y699D01*
X1150Y703D01*
X1148Y703D01*
X1148Y707D01*
X1146Y707D01*
X1146Y715D01*
X1144Y715D01*
X1144Y723D01*
X1142Y723D01*
X1142Y741D01*
X1144Y741D01*
X1144Y751D01*
X1146Y751D01*
X1146Y757D01*
X1148Y757D01*
X1148Y763D01*
X1150Y763D01*
X1150Y767D01*
X1152Y767D01*
X1152Y771D01*
X1154Y771D01*
X1154Y773D01*
X1156Y773D01*
X1156Y777D01*
X1158Y777D01*
X1158Y779D01*
X1160Y779D01*
X1160Y781D01*
X1162Y781D01*
X1162Y783D01*
X1164Y783D01*
X1164Y785D01*
X1166Y785D01*
X1166Y787D01*
X1168Y787D01*
X1168Y789D01*
X1170Y789D01*
X1170Y791D01*
X1172Y791D01*
X1172Y793D01*
X1176Y793D01*
X1176Y795D01*
X1180Y795D01*
X1180Y797D01*
X1182Y797D01*
X1182Y799D01*
X1188Y799D01*
X1188Y801D01*
X1192Y801D01*
X1192Y803D01*
X1200Y803D01*
X1200Y805D01*
X1016Y805D01*
G37*
D02*
G36*
X1464Y741D02*
X1464Y739D01*
X1462Y739D01*
X1462Y737D01*
X1460Y737D01*
X1460Y733D01*
X1458Y733D01*
X1458Y731D01*
X1456Y731D01*
X1456Y729D01*
X1454Y729D01*
X1454Y727D01*
X1452Y727D01*
X1452Y725D01*
X1450Y725D01*
X1450Y723D01*
X1446Y723D01*
X1446Y721D01*
X1444Y721D01*
X1444Y719D01*
X1440Y719D01*
X1440Y717D01*
X1436Y717D01*
X1436Y715D01*
X1432Y715D01*
X1432Y713D01*
X1428Y713D01*
X1428Y711D01*
X1420Y711D01*
X1420Y709D01*
X1408Y709D01*
X1408Y707D01*
X1484Y707D01*
X1484Y741D01*
X1464Y741D01*
G37*
D02*
G36*
X3192Y727D02*
X3192Y725D01*
X3190Y725D01*
X3190Y723D01*
X3188Y723D01*
X3188Y721D01*
X3186Y721D01*
X3186Y719D01*
X3182Y719D01*
X3182Y717D01*
X3180Y717D01*
X3180Y715D01*
X3176Y715D01*
X3176Y713D01*
X3170Y713D01*
X3170Y711D01*
X3166Y711D01*
X3166Y709D01*
X3158Y709D01*
X3158Y707D01*
X3212Y707D01*
X3212Y727D01*
X3192Y727D01*
G37*
D02*
G36*
X1282Y707D02*
X1282Y705D01*
X1484Y705D01*
X1484Y707D01*
X1282Y707D01*
G37*
D02*
G36*
X1282Y707D02*
X1282Y705D01*
X1484Y705D01*
X1484Y707D01*
X1282Y707D01*
G37*
D02*
G36*
X1564Y707D02*
X1564Y705D01*
X1986Y705D01*
X1986Y707D01*
X1564Y707D01*
G37*
D02*
G36*
X1564Y707D02*
X1564Y705D01*
X1986Y705D01*
X1986Y707D01*
X1564Y707D01*
G37*
D02*
G36*
X2568Y707D02*
X2568Y705D01*
X3212Y705D01*
X3212Y707D01*
X2568Y707D01*
G37*
D02*
G36*
X2568Y707D02*
X2568Y705D01*
X3212Y705D01*
X3212Y707D01*
X2568Y707D01*
G37*
D02*
G36*
X2568Y707D02*
X2568Y705D01*
X3212Y705D01*
X3212Y707D01*
X2568Y707D01*
G37*
D02*
G36*
X1282Y705D02*
X1282Y701D01*
X1280Y701D01*
X1280Y697D01*
X1278Y697D01*
X1278Y695D01*
X1276Y695D01*
X1276Y691D01*
X1274Y691D01*
X1274Y689D01*
X1272Y689D01*
X1272Y685D01*
X1270Y685D01*
X1270Y683D01*
X1268Y683D01*
X1268Y681D01*
X1266Y681D01*
X1266Y679D01*
X1264Y679D01*
X1264Y677D01*
X1260Y677D01*
X1260Y675D01*
X1258Y675D01*
X1258Y673D01*
X1256Y673D01*
X1256Y671D01*
X1252Y671D01*
X1252Y669D01*
X1248Y669D01*
X1248Y667D01*
X1244Y667D01*
X1244Y665D01*
X1238Y665D01*
X1238Y663D01*
X1232Y663D01*
X1232Y661D01*
X1218Y661D01*
X1218Y659D01*
X1460Y659D01*
X1460Y661D01*
X1462Y661D01*
X1462Y663D01*
X1464Y663D01*
X1464Y665D01*
X1466Y665D01*
X1466Y669D01*
X1468Y669D01*
X1468Y671D01*
X1470Y671D01*
X1470Y675D01*
X1472Y675D01*
X1472Y677D01*
X1474Y677D01*
X1474Y681D01*
X1476Y681D01*
X1476Y683D01*
X1478Y683D01*
X1478Y685D01*
X1480Y685D01*
X1480Y689D01*
X1482Y689D01*
X1482Y699D01*
X1484Y699D01*
X1484Y705D01*
X1282Y705D01*
G37*
D02*
G36*
X1564Y705D02*
X1564Y697D01*
X1562Y697D01*
X1562Y667D01*
X1560Y667D01*
X1560Y661D01*
X1558Y661D01*
X1558Y657D01*
X1556Y657D01*
X1556Y655D01*
X1554Y655D01*
X1554Y651D01*
X1552Y651D01*
X1552Y649D01*
X1550Y649D01*
X1550Y647D01*
X1548Y647D01*
X1548Y643D01*
X1546Y643D01*
X1546Y641D01*
X1544Y641D01*
X1544Y637D01*
X1542Y637D01*
X1542Y635D01*
X1540Y635D01*
X1540Y631D01*
X1538Y631D01*
X1538Y629D01*
X1536Y629D01*
X1536Y627D01*
X1534Y627D01*
X1534Y623D01*
X1532Y623D01*
X1532Y621D01*
X1530Y621D01*
X1530Y617D01*
X1528Y617D01*
X1528Y615D01*
X1526Y615D01*
X1526Y545D01*
X1524Y545D01*
X1524Y347D01*
X1526Y347D01*
X1526Y343D01*
X1528Y343D01*
X1528Y341D01*
X1530Y341D01*
X1530Y335D01*
X1532Y335D01*
X1532Y325D01*
X1534Y325D01*
X1534Y313D01*
X1532Y313D01*
X1532Y305D01*
X1530Y305D01*
X1530Y299D01*
X1528Y299D01*
X1528Y295D01*
X1526Y295D01*
X1526Y293D01*
X1524Y293D01*
X1524Y289D01*
X1522Y289D01*
X1522Y287D01*
X1520Y287D01*
X1520Y285D01*
X1518Y285D01*
X1518Y283D01*
X1516Y283D01*
X1516Y281D01*
X1514Y281D01*
X1514Y279D01*
X1510Y279D01*
X1510Y277D01*
X1508Y277D01*
X1508Y275D01*
X1504Y275D01*
X1504Y273D01*
X1498Y273D01*
X1498Y271D01*
X1486Y271D01*
X1486Y269D01*
X1634Y269D01*
X1634Y369D01*
X1642Y369D01*
X1642Y515D01*
X1640Y515D01*
X1640Y639D01*
X1642Y639D01*
X1642Y645D01*
X1644Y645D01*
X1644Y649D01*
X1646Y649D01*
X1646Y653D01*
X1648Y653D01*
X1648Y655D01*
X1650Y655D01*
X1650Y657D01*
X1652Y657D01*
X1652Y659D01*
X1654Y659D01*
X1654Y661D01*
X1656Y661D01*
X1656Y663D01*
X1660Y663D01*
X1660Y665D01*
X1662Y665D01*
X1662Y667D01*
X1668Y667D01*
X1668Y669D01*
X1996Y669D01*
X1996Y689D01*
X1994Y689D01*
X1994Y693D01*
X1992Y693D01*
X1992Y695D01*
X1990Y695D01*
X1990Y699D01*
X1988Y699D01*
X1988Y701D01*
X1986Y701D01*
X1986Y705D01*
X1564Y705D01*
G37*
D02*
G36*
X2568Y705D02*
X2568Y703D01*
X2566Y703D01*
X2566Y699D01*
X2564Y699D01*
X2564Y695D01*
X2562Y695D01*
X2562Y693D01*
X2560Y693D01*
X2560Y689D01*
X2558Y689D01*
X2558Y687D01*
X2556Y687D01*
X2556Y685D01*
X2554Y685D01*
X2554Y683D01*
X2552Y683D01*
X2552Y681D01*
X2550Y681D01*
X2550Y679D01*
X2548Y679D01*
X2548Y677D01*
X2544Y677D01*
X2544Y675D01*
X2542Y675D01*
X2542Y673D01*
X2538Y673D01*
X2538Y671D01*
X2534Y671D01*
X2534Y669D01*
X2530Y669D01*
X2530Y667D01*
X2524Y667D01*
X2524Y665D01*
X2518Y665D01*
X2518Y663D01*
X3212Y663D01*
X3212Y705D01*
X2568Y705D01*
G37*
D02*
G36*
X690Y687D02*
X690Y659D01*
X764Y659D01*
X764Y661D01*
X748Y661D01*
X748Y663D01*
X742Y663D01*
X742Y665D01*
X736Y665D01*
X736Y667D01*
X732Y667D01*
X732Y669D01*
X728Y669D01*
X728Y671D01*
X726Y671D01*
X726Y673D01*
X722Y673D01*
X722Y675D01*
X720Y675D01*
X720Y677D01*
X718Y677D01*
X718Y679D01*
X716Y679D01*
X716Y681D01*
X714Y681D01*
X714Y683D01*
X712Y683D01*
X712Y685D01*
X710Y685D01*
X710Y687D01*
X690Y687D01*
G37*
D02*
G36*
X2226Y663D02*
X2226Y661D01*
X3212Y661D01*
X3212Y663D01*
X2226Y663D01*
G37*
D02*
G36*
X2226Y663D02*
X2226Y661D01*
X3212Y661D01*
X3212Y663D01*
X2226Y663D01*
G37*
D02*
G36*
X2226Y661D02*
X2226Y625D01*
X2224Y625D01*
X2224Y617D01*
X2222Y617D01*
X2222Y611D01*
X2220Y611D01*
X2220Y609D01*
X2218Y609D01*
X2218Y605D01*
X2216Y605D01*
X2216Y603D01*
X2214Y603D01*
X2214Y601D01*
X2212Y601D01*
X2212Y599D01*
X2210Y599D01*
X2210Y597D01*
X2206Y597D01*
X2206Y595D01*
X2204Y595D01*
X2204Y593D01*
X2198Y593D01*
X2198Y591D01*
X2188Y591D01*
X2188Y589D01*
X2048Y589D01*
X2048Y579D01*
X3204Y579D01*
X3204Y577D01*
X3212Y577D01*
X3212Y575D01*
X3218Y575D01*
X3218Y573D01*
X3222Y573D01*
X3222Y571D01*
X3242Y571D01*
X3242Y575D01*
X3240Y575D01*
X3240Y577D01*
X3238Y577D01*
X3238Y581D01*
X3236Y581D01*
X3236Y583D01*
X3234Y583D01*
X3234Y587D01*
X3232Y587D01*
X3232Y589D01*
X3230Y589D01*
X3230Y593D01*
X3228Y593D01*
X3228Y595D01*
X3226Y595D01*
X3226Y599D01*
X3224Y599D01*
X3224Y601D01*
X3222Y601D01*
X3222Y605D01*
X3220Y605D01*
X3220Y607D01*
X3218Y607D01*
X3218Y611D01*
X3216Y611D01*
X3216Y615D01*
X3214Y615D01*
X3214Y639D01*
X3212Y639D01*
X3212Y661D01*
X2226Y661D01*
G37*
D02*
G36*
X690Y659D02*
X690Y657D01*
X1034Y657D01*
X1034Y659D01*
X690Y659D01*
G37*
D02*
G36*
X690Y659D02*
X690Y657D01*
X1034Y657D01*
X1034Y659D01*
X690Y659D01*
G37*
D02*
G36*
X1138Y659D02*
X1138Y657D01*
X1460Y657D01*
X1460Y659D01*
X1138Y659D01*
G37*
D02*
G36*
X1138Y659D02*
X1138Y657D01*
X1460Y657D01*
X1460Y659D01*
X1138Y659D01*
G37*
D02*
G36*
X690Y657D02*
X690Y635D01*
X692Y635D01*
X692Y631D01*
X694Y631D01*
X694Y627D01*
X696Y627D01*
X696Y623D01*
X698Y623D01*
X698Y619D01*
X700Y619D01*
X700Y615D01*
X702Y615D01*
X702Y611D01*
X704Y611D01*
X704Y607D01*
X706Y607D01*
X706Y603D01*
X708Y603D01*
X708Y599D01*
X710Y599D01*
X710Y595D01*
X712Y595D01*
X712Y591D01*
X714Y591D01*
X714Y587D01*
X716Y587D01*
X716Y583D01*
X724Y583D01*
X724Y581D01*
X732Y581D01*
X732Y579D01*
X738Y579D01*
X738Y577D01*
X742Y577D01*
X742Y575D01*
X746Y575D01*
X746Y573D01*
X748Y573D01*
X748Y571D01*
X750Y571D01*
X750Y569D01*
X752Y569D01*
X752Y567D01*
X754Y567D01*
X754Y565D01*
X756Y565D01*
X756Y563D01*
X758Y563D01*
X758Y559D01*
X760Y559D01*
X760Y557D01*
X762Y557D01*
X762Y553D01*
X764Y553D01*
X764Y545D01*
X766Y545D01*
X766Y543D01*
X1140Y543D01*
X1140Y545D01*
X1134Y545D01*
X1134Y547D01*
X1130Y547D01*
X1130Y549D01*
X1126Y549D01*
X1126Y551D01*
X1124Y551D01*
X1124Y553D01*
X1122Y553D01*
X1122Y555D01*
X1120Y555D01*
X1120Y557D01*
X1118Y557D01*
X1118Y559D01*
X1116Y559D01*
X1116Y561D01*
X1114Y561D01*
X1114Y563D01*
X1112Y563D01*
X1112Y565D01*
X1110Y565D01*
X1110Y569D01*
X1108Y569D01*
X1108Y571D01*
X1106Y571D01*
X1106Y573D01*
X1104Y573D01*
X1104Y575D01*
X1102Y575D01*
X1102Y577D01*
X1100Y577D01*
X1100Y581D01*
X1098Y581D01*
X1098Y583D01*
X1096Y583D01*
X1096Y585D01*
X1094Y585D01*
X1094Y587D01*
X1092Y587D01*
X1092Y589D01*
X1090Y589D01*
X1090Y593D01*
X1088Y593D01*
X1088Y595D01*
X1086Y595D01*
X1086Y597D01*
X1084Y597D01*
X1084Y599D01*
X1082Y599D01*
X1082Y601D01*
X1080Y601D01*
X1080Y605D01*
X1078Y605D01*
X1078Y607D01*
X1076Y607D01*
X1076Y609D01*
X1074Y609D01*
X1074Y611D01*
X1072Y611D01*
X1072Y613D01*
X1070Y613D01*
X1070Y617D01*
X1068Y617D01*
X1068Y619D01*
X1066Y619D01*
X1066Y621D01*
X1064Y621D01*
X1064Y623D01*
X1062Y623D01*
X1062Y625D01*
X1060Y625D01*
X1060Y629D01*
X1058Y629D01*
X1058Y631D01*
X1056Y631D01*
X1056Y633D01*
X1054Y633D01*
X1054Y635D01*
X1052Y635D01*
X1052Y637D01*
X1050Y637D01*
X1050Y641D01*
X1048Y641D01*
X1048Y643D01*
X1046Y643D01*
X1046Y645D01*
X1044Y645D01*
X1044Y647D01*
X1042Y647D01*
X1042Y649D01*
X1040Y649D01*
X1040Y653D01*
X1038Y653D01*
X1038Y655D01*
X1036Y655D01*
X1036Y657D01*
X690Y657D01*
G37*
D02*
G36*
X1140Y657D02*
X1140Y655D01*
X1142Y655D01*
X1142Y653D01*
X1144Y653D01*
X1144Y649D01*
X1146Y649D01*
X1146Y647D01*
X1148Y647D01*
X1148Y645D01*
X1150Y645D01*
X1150Y643D01*
X1152Y643D01*
X1152Y641D01*
X1154Y641D01*
X1154Y637D01*
X1156Y637D01*
X1156Y635D01*
X1158Y635D01*
X1158Y633D01*
X1160Y633D01*
X1160Y631D01*
X1162Y631D01*
X1162Y629D01*
X1164Y629D01*
X1164Y625D01*
X1290Y625D01*
X1290Y623D01*
X1294Y623D01*
X1294Y621D01*
X1298Y621D01*
X1298Y619D01*
X1302Y619D01*
X1302Y617D01*
X1304Y617D01*
X1304Y615D01*
X1306Y615D01*
X1306Y613D01*
X1308Y613D01*
X1308Y611D01*
X1310Y611D01*
X1310Y609D01*
X1312Y609D01*
X1312Y605D01*
X1314Y605D01*
X1314Y601D01*
X1316Y601D01*
X1316Y595D01*
X1318Y595D01*
X1318Y539D01*
X1320Y539D01*
X1320Y441D01*
X1322Y441D01*
X1322Y351D01*
X1324Y351D01*
X1324Y347D01*
X1326Y347D01*
X1326Y343D01*
X1328Y343D01*
X1328Y341D01*
X1330Y341D01*
X1330Y335D01*
X1332Y335D01*
X1332Y325D01*
X1334Y325D01*
X1334Y313D01*
X1332Y313D01*
X1332Y305D01*
X1330Y305D01*
X1330Y299D01*
X1328Y299D01*
X1328Y295D01*
X1326Y295D01*
X1326Y293D01*
X1324Y293D01*
X1324Y289D01*
X1322Y289D01*
X1322Y287D01*
X1320Y287D01*
X1320Y285D01*
X1318Y285D01*
X1318Y283D01*
X1316Y283D01*
X1316Y281D01*
X1314Y281D01*
X1314Y279D01*
X1310Y279D01*
X1310Y277D01*
X1308Y277D01*
X1308Y275D01*
X1304Y275D01*
X1304Y273D01*
X1298Y273D01*
X1298Y271D01*
X1286Y271D01*
X1286Y269D01*
X1480Y269D01*
X1480Y271D01*
X1470Y271D01*
X1470Y273D01*
X1464Y273D01*
X1464Y275D01*
X1460Y275D01*
X1460Y277D01*
X1456Y277D01*
X1456Y279D01*
X1454Y279D01*
X1454Y281D01*
X1452Y281D01*
X1452Y283D01*
X1448Y283D01*
X1448Y285D01*
X1446Y285D01*
X1446Y289D01*
X1444Y289D01*
X1444Y291D01*
X1442Y291D01*
X1442Y293D01*
X1440Y293D01*
X1440Y297D01*
X1438Y297D01*
X1438Y301D01*
X1436Y301D01*
X1436Y309D01*
X1434Y309D01*
X1434Y331D01*
X1436Y331D01*
X1436Y339D01*
X1438Y339D01*
X1438Y343D01*
X1440Y343D01*
X1440Y345D01*
X1442Y345D01*
X1442Y349D01*
X1444Y349D01*
X1444Y547D01*
X1446Y547D01*
X1446Y635D01*
X1448Y635D01*
X1448Y641D01*
X1450Y641D01*
X1450Y645D01*
X1452Y645D01*
X1452Y649D01*
X1454Y649D01*
X1454Y651D01*
X1456Y651D01*
X1456Y655D01*
X1458Y655D01*
X1458Y657D01*
X1140Y657D01*
G37*
D02*
G36*
X1166Y625D02*
X1166Y623D01*
X1194Y623D01*
X1194Y625D01*
X1166Y625D01*
G37*
D02*
G36*
X1720Y589D02*
X1720Y515D01*
X1722Y515D01*
X1722Y369D01*
X2210Y369D01*
X2210Y367D01*
X2216Y367D01*
X2216Y365D01*
X2220Y365D01*
X2220Y363D01*
X2224Y363D01*
X2224Y361D01*
X2228Y361D01*
X2228Y359D01*
X2230Y359D01*
X2230Y357D01*
X2232Y357D01*
X2232Y355D01*
X2234Y355D01*
X2234Y353D01*
X2236Y353D01*
X2236Y351D01*
X2238Y351D01*
X2238Y347D01*
X2240Y347D01*
X2240Y345D01*
X2242Y345D01*
X2242Y341D01*
X2244Y341D01*
X2244Y335D01*
X2246Y335D01*
X2246Y327D01*
X2248Y327D01*
X2248Y313D01*
X2246Y313D01*
X2246Y303D01*
X2244Y303D01*
X2244Y299D01*
X2242Y299D01*
X2242Y295D01*
X2240Y295D01*
X2240Y291D01*
X2238Y291D01*
X2238Y289D01*
X2236Y289D01*
X2236Y287D01*
X2234Y287D01*
X2234Y285D01*
X2232Y285D01*
X2232Y283D01*
X2230Y283D01*
X2230Y281D01*
X2228Y281D01*
X2228Y279D01*
X2224Y279D01*
X2224Y277D01*
X2222Y277D01*
X2222Y275D01*
X2218Y275D01*
X2218Y273D01*
X2212Y273D01*
X2212Y271D01*
X2200Y271D01*
X2200Y269D01*
X2394Y269D01*
X2394Y271D01*
X2384Y271D01*
X2384Y273D01*
X2378Y273D01*
X2378Y275D01*
X2374Y275D01*
X2374Y277D01*
X2370Y277D01*
X2370Y279D01*
X2368Y279D01*
X2368Y281D01*
X2366Y281D01*
X2366Y283D01*
X2362Y283D01*
X2362Y287D01*
X2360Y287D01*
X2360Y289D01*
X2358Y289D01*
X2358Y291D01*
X2356Y291D01*
X2356Y295D01*
X2354Y295D01*
X2354Y297D01*
X2352Y297D01*
X2352Y303D01*
X2350Y303D01*
X2350Y309D01*
X2348Y309D01*
X2348Y331D01*
X2350Y331D01*
X2350Y337D01*
X2352Y337D01*
X2352Y341D01*
X2354Y341D01*
X2354Y345D01*
X2356Y345D01*
X2356Y349D01*
X2358Y349D01*
X2358Y351D01*
X2360Y351D01*
X2360Y353D01*
X2362Y353D01*
X2362Y355D01*
X2364Y355D01*
X2364Y357D01*
X2366Y357D01*
X2366Y359D01*
X2368Y359D01*
X2368Y361D01*
X2372Y361D01*
X2372Y363D01*
X2374Y363D01*
X2374Y365D01*
X2376Y365D01*
X2376Y415D01*
X1906Y415D01*
X1906Y417D01*
X1896Y417D01*
X1896Y419D01*
X1894Y419D01*
X1894Y421D01*
X1890Y421D01*
X1890Y425D01*
X1888Y425D01*
X1888Y427D01*
X1886Y427D01*
X1886Y431D01*
X1884Y431D01*
X1884Y501D01*
X1880Y501D01*
X1880Y503D01*
X1878Y503D01*
X1878Y505D01*
X1876Y505D01*
X1876Y507D01*
X1872Y507D01*
X1872Y509D01*
X1870Y509D01*
X1870Y511D01*
X1868Y511D01*
X1868Y515D01*
X1866Y515D01*
X1866Y517D01*
X1864Y517D01*
X1864Y521D01*
X1862Y521D01*
X1862Y525D01*
X1860Y525D01*
X1860Y531D01*
X1858Y531D01*
X1858Y539D01*
X1856Y539D01*
X1856Y549D01*
X1858Y549D01*
X1858Y557D01*
X1860Y557D01*
X1860Y563D01*
X1862Y563D01*
X1862Y567D01*
X1864Y567D01*
X1864Y589D01*
X1720Y589D01*
G37*
D02*
G36*
X2048Y579D02*
X2048Y567D01*
X2050Y567D01*
X2050Y563D01*
X2052Y563D01*
X2052Y555D01*
X2054Y555D01*
X2054Y533D01*
X2052Y533D01*
X2052Y525D01*
X2050Y525D01*
X2050Y521D01*
X2048Y521D01*
X2048Y517D01*
X2046Y517D01*
X2046Y515D01*
X2044Y515D01*
X2044Y513D01*
X2042Y513D01*
X2042Y511D01*
X2040Y511D01*
X2040Y509D01*
X2038Y509D01*
X2038Y507D01*
X2036Y507D01*
X2036Y505D01*
X2034Y505D01*
X2034Y503D01*
X2030Y503D01*
X2030Y501D01*
X2026Y501D01*
X2026Y499D01*
X2022Y499D01*
X2022Y497D01*
X2016Y497D01*
X2016Y495D01*
X3154Y495D01*
X3154Y511D01*
X3152Y511D01*
X3152Y517D01*
X3150Y517D01*
X3150Y529D01*
X3148Y529D01*
X3148Y531D01*
X3150Y531D01*
X3150Y543D01*
X3152Y543D01*
X3152Y549D01*
X3154Y549D01*
X3154Y553D01*
X3156Y553D01*
X3156Y557D01*
X3158Y557D01*
X3158Y559D01*
X3160Y559D01*
X3160Y561D01*
X3162Y561D01*
X3162Y563D01*
X3164Y563D01*
X3164Y565D01*
X3166Y565D01*
X3166Y567D01*
X3168Y567D01*
X3168Y569D01*
X3170Y569D01*
X3170Y571D01*
X3174Y571D01*
X3174Y573D01*
X3178Y573D01*
X3178Y575D01*
X3184Y575D01*
X3184Y577D01*
X3192Y577D01*
X3192Y579D01*
X2048Y579D01*
G37*
D02*
G36*
X1196Y545D02*
X1196Y543D01*
X1238Y543D01*
X1238Y545D01*
X1196Y545D01*
G37*
D02*
G36*
X766Y543D02*
X766Y541D01*
X1238Y541D01*
X1238Y543D01*
X766Y543D01*
G37*
D02*
G36*
X766Y543D02*
X766Y541D01*
X1238Y541D01*
X1238Y543D01*
X766Y543D01*
G37*
D02*
G36*
X766Y541D02*
X766Y521D01*
X764Y521D01*
X764Y515D01*
X762Y515D01*
X762Y511D01*
X760Y511D01*
X760Y489D01*
X1022Y489D01*
X1022Y269D01*
X1280Y269D01*
X1280Y271D01*
X1270Y271D01*
X1270Y273D01*
X1264Y273D01*
X1264Y275D01*
X1260Y275D01*
X1260Y277D01*
X1256Y277D01*
X1256Y279D01*
X1254Y279D01*
X1254Y281D01*
X1252Y281D01*
X1252Y283D01*
X1248Y283D01*
X1248Y285D01*
X1246Y285D01*
X1246Y289D01*
X1244Y289D01*
X1244Y291D01*
X1242Y291D01*
X1242Y293D01*
X1240Y293D01*
X1240Y297D01*
X1238Y297D01*
X1238Y301D01*
X1236Y301D01*
X1236Y309D01*
X1234Y309D01*
X1234Y331D01*
X1236Y331D01*
X1236Y339D01*
X1238Y339D01*
X1238Y343D01*
X1240Y343D01*
X1240Y345D01*
X1242Y345D01*
X1242Y441D01*
X1240Y441D01*
X1240Y537D01*
X1238Y537D01*
X1238Y541D01*
X766Y541D01*
G37*
D02*
G36*
X1946Y517D02*
X1946Y515D01*
X1944Y515D01*
X1944Y513D01*
X1942Y513D01*
X1942Y511D01*
X1940Y511D01*
X1940Y509D01*
X1938Y509D01*
X1938Y507D01*
X1936Y507D01*
X1936Y505D01*
X1934Y505D01*
X1934Y503D01*
X1930Y503D01*
X1930Y501D01*
X1928Y501D01*
X1928Y495D01*
X1996Y495D01*
X1996Y497D01*
X1990Y497D01*
X1990Y499D01*
X1984Y499D01*
X1984Y501D01*
X1980Y501D01*
X1980Y503D01*
X1978Y503D01*
X1978Y505D01*
X1976Y505D01*
X1976Y507D01*
X1972Y507D01*
X1972Y509D01*
X1970Y509D01*
X1970Y511D01*
X1968Y511D01*
X1968Y515D01*
X1966Y515D01*
X1966Y517D01*
X1946Y517D01*
G37*
D02*
G36*
X1928Y495D02*
X1928Y493D01*
X3154Y493D01*
X3154Y495D01*
X1928Y495D01*
G37*
D02*
G36*
X1928Y495D02*
X1928Y493D01*
X3154Y493D01*
X3154Y495D01*
X1928Y495D01*
G37*
D02*
G36*
X1928Y493D02*
X1928Y459D01*
X2392Y459D01*
X2392Y457D01*
X2406Y457D01*
X2406Y455D01*
X2410Y455D01*
X2410Y453D01*
X2412Y453D01*
X2412Y451D01*
X2414Y451D01*
X2414Y449D01*
X2416Y449D01*
X2416Y447D01*
X2418Y447D01*
X2418Y441D01*
X2420Y441D01*
X2420Y369D01*
X2648Y369D01*
X2648Y269D01*
X2894Y269D01*
X2894Y489D01*
X3154Y489D01*
X3154Y493D01*
X1928Y493D01*
G37*
D02*
G36*
X1734Y369D02*
X1734Y271D01*
X1732Y271D01*
X1732Y269D01*
X2194Y269D01*
X2194Y271D01*
X2184Y271D01*
X2184Y273D01*
X2178Y273D01*
X2178Y275D01*
X2174Y275D01*
X2174Y277D01*
X2170Y277D01*
X2170Y279D01*
X2168Y279D01*
X2168Y281D01*
X2166Y281D01*
X2166Y283D01*
X2162Y283D01*
X2162Y287D01*
X2160Y287D01*
X2160Y289D01*
X2158Y289D01*
X2158Y291D01*
X2156Y291D01*
X2156Y295D01*
X2154Y295D01*
X2154Y297D01*
X2152Y297D01*
X2152Y303D01*
X2150Y303D01*
X2150Y309D01*
X2148Y309D01*
X2148Y331D01*
X2150Y331D01*
X2150Y337D01*
X2152Y337D01*
X2152Y341D01*
X2154Y341D01*
X2154Y345D01*
X2156Y345D01*
X2156Y349D01*
X2158Y349D01*
X2158Y351D01*
X2160Y351D01*
X2160Y353D01*
X2162Y353D01*
X2162Y355D01*
X2164Y355D01*
X2164Y357D01*
X2166Y357D01*
X2166Y359D01*
X2168Y359D01*
X2168Y361D01*
X2172Y361D01*
X2172Y363D01*
X2174Y363D01*
X2174Y365D01*
X2178Y365D01*
X2178Y367D01*
X2184Y367D01*
X2184Y369D01*
X1734Y369D01*
G37*
D02*
G36*
X2420Y369D02*
X2420Y363D01*
X2424Y363D01*
X2424Y361D01*
X2428Y361D01*
X2428Y359D01*
X2430Y359D01*
X2430Y357D01*
X2432Y357D01*
X2432Y355D01*
X2434Y355D01*
X2434Y353D01*
X2436Y353D01*
X2436Y351D01*
X2438Y351D01*
X2438Y347D01*
X2440Y347D01*
X2440Y345D01*
X2442Y345D01*
X2442Y341D01*
X2444Y341D01*
X2444Y335D01*
X2446Y335D01*
X2446Y327D01*
X2448Y327D01*
X2448Y313D01*
X2446Y313D01*
X2446Y303D01*
X2444Y303D01*
X2444Y299D01*
X2442Y299D01*
X2442Y295D01*
X2440Y295D01*
X2440Y291D01*
X2438Y291D01*
X2438Y289D01*
X2436Y289D01*
X2436Y287D01*
X2434Y287D01*
X2434Y285D01*
X2432Y285D01*
X2432Y283D01*
X2430Y283D01*
X2430Y281D01*
X2428Y281D01*
X2428Y279D01*
X2424Y279D01*
X2424Y277D01*
X2422Y277D01*
X2422Y275D01*
X2418Y275D01*
X2418Y273D01*
X2412Y273D01*
X2412Y271D01*
X2400Y271D01*
X2400Y269D01*
X2548Y269D01*
X2548Y369D01*
X2420Y369D01*
G37*
D02*
G36*
X1022Y269D02*
X1022Y267D01*
X2894Y267D01*
X2894Y269D01*
X1022Y269D01*
G37*
D02*
G36*
X1022Y269D02*
X1022Y267D01*
X2894Y267D01*
X2894Y269D01*
X1022Y269D01*
G37*
D02*
G36*
X1022Y269D02*
X1022Y267D01*
X2894Y267D01*
X2894Y269D01*
X1022Y269D01*
G37*
D02*
G36*
X1022Y269D02*
X1022Y267D01*
X2894Y267D01*
X2894Y269D01*
X1022Y269D01*
G37*
D02*
G36*
X1022Y269D02*
X1022Y267D01*
X2894Y267D01*
X2894Y269D01*
X1022Y269D01*
G37*
D02*
G36*
X1022Y269D02*
X1022Y267D01*
X2894Y267D01*
X2894Y269D01*
X1022Y269D01*
G37*
D02*
G36*
X1022Y269D02*
X1022Y267D01*
X2894Y267D01*
X2894Y269D01*
X1022Y269D01*
G37*
D02*
G36*
X1022Y267D02*
X1022Y107D01*
X1024Y107D01*
X1024Y95D01*
X1026Y95D01*
X1026Y89D01*
X1028Y89D01*
X1028Y83D01*
X1030Y83D01*
X1030Y79D01*
X1032Y79D01*
X1032Y75D01*
X1034Y75D01*
X1034Y73D01*
X1036Y73D01*
X1036Y69D01*
X1038Y69D01*
X1038Y67D01*
X1040Y67D01*
X1040Y65D01*
X1042Y65D01*
X1042Y63D01*
X1044Y63D01*
X1044Y61D01*
X1046Y61D01*
X1046Y59D01*
X1048Y59D01*
X1048Y57D01*
X1052Y57D01*
X1052Y55D01*
X1054Y55D01*
X1054Y53D01*
X1058Y53D01*
X1058Y51D01*
X1062Y51D01*
X1062Y49D01*
X1066Y49D01*
X1066Y47D01*
X1070Y47D01*
X1070Y45D01*
X1076Y45D01*
X1076Y43D01*
X1086Y43D01*
X1086Y41D01*
X2842Y41D01*
X2842Y43D01*
X2850Y43D01*
X2850Y45D01*
X2854Y45D01*
X2854Y47D01*
X2860Y47D01*
X2860Y49D01*
X2862Y49D01*
X2862Y51D01*
X2866Y51D01*
X2866Y53D01*
X2868Y53D01*
X2868Y55D01*
X2872Y55D01*
X2872Y57D01*
X2874Y57D01*
X2874Y59D01*
X2876Y59D01*
X2876Y63D01*
X2878Y63D01*
X2878Y65D01*
X2880Y65D01*
X2880Y67D01*
X2882Y67D01*
X2882Y71D01*
X2884Y71D01*
X2884Y73D01*
X2886Y73D01*
X2886Y77D01*
X2888Y77D01*
X2888Y83D01*
X2890Y83D01*
X2890Y89D01*
X2892Y89D01*
X2892Y101D01*
X2894Y101D01*
X2894Y267D01*
X1022Y267D01*
G37*
D02*
G54D17*
X1416Y1068D02*
X1489Y1068D01*
X138Y1067D02*
X211Y1067D01*
X1416Y1067D02*
X1489Y1067D01*
X2706Y1067D02*
X2779Y1067D01*
X138Y1066D02*
X211Y1066D01*
X1416Y1066D02*
X1489Y1066D01*
X2706Y1066D02*
X2779Y1066D01*
X138Y1065D02*
X211Y1065D01*
X1416Y1065D02*
X1489Y1065D01*
X2706Y1065D02*
X2779Y1065D01*
X138Y1064D02*
X211Y1064D01*
X1416Y1064D02*
X1489Y1064D01*
X2706Y1064D02*
X2779Y1064D01*
X138Y1063D02*
X211Y1063D01*
X1416Y1063D02*
X1489Y1063D01*
X2706Y1063D02*
X2779Y1063D01*
X138Y1062D02*
X211Y1062D01*
X1416Y1062D02*
X1489Y1062D01*
X2706Y1062D02*
X2779Y1062D01*
X138Y1061D02*
X211Y1061D01*
X1416Y1061D02*
X1489Y1061D01*
X2706Y1061D02*
X2779Y1061D01*
X138Y1060D02*
X211Y1060D01*
X1416Y1060D02*
X1489Y1060D01*
X2706Y1060D02*
X2779Y1060D01*
X138Y1059D02*
X211Y1059D01*
X1416Y1059D02*
X1489Y1059D01*
X2706Y1059D02*
X2779Y1059D01*
X138Y1058D02*
X211Y1058D01*
X1416Y1058D02*
X1489Y1058D01*
X2706Y1058D02*
X2779Y1058D01*
X138Y1057D02*
X211Y1057D01*
X1416Y1057D02*
X1489Y1057D01*
X2706Y1057D02*
X2779Y1057D01*
X138Y1056D02*
X211Y1056D01*
X1416Y1056D02*
X1489Y1056D01*
X2706Y1056D02*
X2779Y1056D01*
X138Y1055D02*
X211Y1055D01*
X1416Y1055D02*
X1489Y1055D01*
X2706Y1055D02*
X2779Y1055D01*
X138Y1054D02*
X211Y1054D01*
X1416Y1054D02*
X1489Y1054D01*
X2706Y1054D02*
X2779Y1054D01*
X138Y1053D02*
X211Y1053D01*
X1416Y1053D02*
X1489Y1053D01*
X2706Y1053D02*
X2779Y1053D01*
X138Y1052D02*
X211Y1052D01*
X1416Y1052D02*
X1489Y1052D01*
X2706Y1052D02*
X2779Y1052D01*
X138Y1051D02*
X211Y1051D01*
X1416Y1051D02*
X1451Y1051D01*
X1455Y1051D02*
X1489Y1051D01*
X2706Y1051D02*
X2779Y1051D01*
X138Y1050D02*
X170Y1050D01*
X179Y1050D02*
X211Y1050D01*
X1416Y1050D02*
X1446Y1050D01*
X1460Y1050D02*
X1489Y1050D01*
X2706Y1050D02*
X2779Y1050D01*
X138Y1049D02*
X167Y1049D01*
X183Y1049D02*
X211Y1049D01*
X1416Y1049D02*
X1443Y1049D01*
X1462Y1049D02*
X1489Y1049D01*
X2706Y1049D02*
X2736Y1049D01*
X2749Y1049D02*
X2779Y1049D01*
X138Y1048D02*
X165Y1048D01*
X185Y1048D02*
X211Y1048D01*
X1416Y1048D02*
X1442Y1048D01*
X1464Y1048D02*
X1489Y1048D01*
X2706Y1048D02*
X2734Y1048D01*
X2751Y1048D02*
X2779Y1048D01*
X138Y1047D02*
X163Y1047D01*
X186Y1047D02*
X211Y1047D01*
X1416Y1047D02*
X1440Y1047D01*
X1465Y1047D02*
X1489Y1047D01*
X2706Y1047D02*
X2732Y1047D01*
X2753Y1047D02*
X2779Y1047D01*
X138Y1046D02*
X162Y1046D01*
X188Y1046D02*
X211Y1046D01*
X1416Y1046D02*
X1439Y1046D01*
X1466Y1046D02*
X1489Y1046D01*
X2706Y1046D02*
X2730Y1046D01*
X2755Y1046D02*
X2779Y1046D01*
X138Y1045D02*
X161Y1045D01*
X189Y1045D02*
X211Y1045D01*
X1416Y1045D02*
X1438Y1045D01*
X1468Y1045D02*
X1489Y1045D01*
X2706Y1045D02*
X2729Y1045D01*
X2756Y1045D02*
X2779Y1045D01*
X138Y1044D02*
X160Y1044D01*
X190Y1044D02*
X211Y1044D01*
X1416Y1044D02*
X1437Y1044D01*
X1468Y1044D02*
X1489Y1044D01*
X2706Y1044D02*
X2728Y1044D01*
X2757Y1044D02*
X2779Y1044D01*
X138Y1043D02*
X159Y1043D01*
X191Y1043D02*
X211Y1043D01*
X1416Y1043D02*
X1436Y1043D01*
X1469Y1043D02*
X1489Y1043D01*
X2706Y1043D02*
X2727Y1043D01*
X2758Y1043D02*
X2779Y1043D01*
X138Y1042D02*
X158Y1042D01*
X191Y1042D02*
X211Y1042D01*
X1416Y1042D02*
X1436Y1042D01*
X1470Y1042D02*
X1489Y1042D01*
X2706Y1042D02*
X2726Y1042D01*
X2759Y1042D02*
X2779Y1042D01*
X138Y1041D02*
X157Y1041D01*
X192Y1041D02*
X211Y1041D01*
X1416Y1041D02*
X1435Y1041D01*
X1470Y1041D02*
X1489Y1041D01*
X2706Y1041D02*
X2726Y1041D01*
X2759Y1041D02*
X2779Y1041D01*
X138Y1040D02*
X157Y1040D01*
X192Y1040D02*
X211Y1040D01*
X1416Y1040D02*
X1435Y1040D01*
X1471Y1040D02*
X1489Y1040D01*
X2706Y1040D02*
X2725Y1040D01*
X2760Y1040D02*
X2779Y1040D01*
X138Y1039D02*
X156Y1039D01*
X193Y1039D02*
X211Y1039D01*
X1416Y1039D02*
X1434Y1039D01*
X1471Y1039D02*
X1489Y1039D01*
X2706Y1039D02*
X2724Y1039D01*
X2761Y1039D02*
X2779Y1039D01*
X138Y1038D02*
X156Y1038D01*
X193Y1038D02*
X211Y1038D01*
X1416Y1038D02*
X1434Y1038D01*
X1472Y1038D02*
X1489Y1038D01*
X2706Y1038D02*
X2724Y1038D01*
X2761Y1038D02*
X2779Y1038D01*
X138Y1037D02*
X156Y1037D01*
X194Y1037D02*
X211Y1037D01*
X1416Y1037D02*
X1433Y1037D01*
X1472Y1037D02*
X1489Y1037D01*
X2706Y1037D02*
X2724Y1037D01*
X2761Y1037D02*
X2779Y1037D01*
X138Y1036D02*
X155Y1036D01*
X194Y1036D02*
X211Y1036D01*
X1416Y1036D02*
X1433Y1036D01*
X1472Y1036D02*
X1489Y1036D01*
X2706Y1036D02*
X2723Y1036D01*
X2762Y1036D02*
X2779Y1036D01*
X138Y1035D02*
X155Y1035D01*
X194Y1035D02*
X211Y1035D01*
X1416Y1035D02*
X1433Y1035D01*
X1473Y1035D02*
X1489Y1035D01*
X2706Y1035D02*
X2723Y1035D01*
X2762Y1035D02*
X2779Y1035D01*
X138Y1034D02*
X155Y1034D01*
X195Y1034D02*
X211Y1034D01*
X1416Y1034D02*
X1433Y1034D01*
X1473Y1034D02*
X1489Y1034D01*
X2706Y1034D02*
X2723Y1034D01*
X2762Y1034D02*
X2779Y1034D01*
X138Y1033D02*
X155Y1033D01*
X195Y1033D02*
X211Y1033D01*
X1416Y1033D02*
X1433Y1033D01*
X1473Y1033D02*
X1489Y1033D01*
X2706Y1033D02*
X2723Y1033D01*
X2762Y1033D02*
X2779Y1033D01*
X138Y1032D02*
X155Y1032D01*
X195Y1032D02*
X211Y1032D01*
X1416Y1032D02*
X1433Y1032D01*
X1473Y1032D02*
X1489Y1032D01*
X2706Y1032D02*
X2722Y1032D01*
X2762Y1032D02*
X2779Y1032D01*
X138Y1031D02*
X155Y1031D01*
X195Y1031D02*
X211Y1031D01*
X1416Y1031D02*
X1433Y1031D01*
X1473Y1031D02*
X1489Y1031D01*
X2706Y1031D02*
X2722Y1031D01*
X2763Y1031D02*
X2779Y1031D01*
X138Y1030D02*
X155Y1030D01*
X195Y1030D02*
X211Y1030D01*
X1416Y1030D02*
X1433Y1030D01*
X1473Y1030D02*
X1489Y1030D01*
X2706Y1030D02*
X2722Y1030D01*
X2763Y1030D02*
X2779Y1030D01*
X138Y1029D02*
X155Y1029D01*
X195Y1029D02*
X211Y1029D01*
X1416Y1029D02*
X1433Y1029D01*
X1473Y1029D02*
X1489Y1029D01*
X2706Y1029D02*
X2722Y1029D01*
X2763Y1029D02*
X2779Y1029D01*
X138Y1028D02*
X155Y1028D01*
X195Y1028D02*
X211Y1028D01*
X1416Y1028D02*
X1433Y1028D01*
X1473Y1028D02*
X1489Y1028D01*
X2706Y1028D02*
X2723Y1028D01*
X2762Y1028D02*
X2779Y1028D01*
X138Y1027D02*
X155Y1027D01*
X194Y1027D02*
X211Y1027D01*
X1416Y1027D02*
X1433Y1027D01*
X1472Y1027D02*
X1489Y1027D01*
X2706Y1027D02*
X2723Y1027D01*
X2762Y1027D02*
X2779Y1027D01*
X138Y1026D02*
X155Y1026D01*
X194Y1026D02*
X211Y1026D01*
X1416Y1026D02*
X1433Y1026D01*
X1472Y1026D02*
X1489Y1026D01*
X2706Y1026D02*
X2723Y1026D01*
X2762Y1026D02*
X2779Y1026D01*
X138Y1025D02*
X155Y1025D01*
X194Y1025D02*
X211Y1025D01*
X1416Y1025D02*
X1434Y1025D01*
X1472Y1025D02*
X1489Y1025D01*
X2706Y1025D02*
X2723Y1025D01*
X2762Y1025D02*
X2779Y1025D01*
X138Y1024D02*
X156Y1024D01*
X194Y1024D02*
X211Y1024D01*
X1416Y1024D02*
X1434Y1024D01*
X1471Y1024D02*
X1489Y1024D01*
X2706Y1024D02*
X2723Y1024D01*
X2762Y1024D02*
X2779Y1024D01*
X138Y1023D02*
X156Y1023D01*
X193Y1023D02*
X211Y1023D01*
X1416Y1023D02*
X1435Y1023D01*
X1471Y1023D02*
X1489Y1023D01*
X2706Y1023D02*
X2724Y1023D01*
X2761Y1023D02*
X2779Y1023D01*
X138Y1022D02*
X157Y1022D01*
X193Y1022D02*
X211Y1022D01*
X1416Y1022D02*
X1435Y1022D01*
X1470Y1022D02*
X1489Y1022D01*
X2065Y1022D02*
X2138Y1022D01*
X2706Y1022D02*
X2724Y1022D01*
X2761Y1022D02*
X2779Y1022D01*
X138Y1021D02*
X157Y1021D01*
X192Y1021D02*
X211Y1021D01*
X1416Y1021D02*
X1436Y1021D01*
X1470Y1021D02*
X1489Y1021D01*
X2065Y1021D02*
X2138Y1021D01*
X2706Y1021D02*
X2725Y1021D01*
X2760Y1021D02*
X2779Y1021D01*
X138Y1020D02*
X158Y1020D01*
X192Y1020D02*
X211Y1020D01*
X778Y1020D02*
X851Y1020D01*
X1416Y1020D02*
X1436Y1020D01*
X1469Y1020D02*
X1489Y1020D01*
X2065Y1020D02*
X2138Y1020D01*
X2706Y1020D02*
X2725Y1020D01*
X2760Y1020D02*
X2779Y1020D01*
X3348Y1020D02*
X3421Y1020D01*
X138Y1019D02*
X159Y1019D01*
X191Y1019D02*
X211Y1019D01*
X778Y1019D02*
X851Y1019D01*
X1416Y1019D02*
X1437Y1019D01*
X1468Y1019D02*
X1489Y1019D01*
X2065Y1019D02*
X2138Y1019D01*
X2706Y1019D02*
X2726Y1019D01*
X2759Y1019D02*
X2779Y1019D01*
X3348Y1019D02*
X3421Y1019D01*
X138Y1018D02*
X159Y1018D01*
X190Y1018D02*
X211Y1018D01*
X778Y1018D02*
X851Y1018D01*
X1416Y1018D02*
X1438Y1018D01*
X1468Y1018D02*
X1489Y1018D01*
X2065Y1018D02*
X2138Y1018D01*
X2706Y1018D02*
X2727Y1018D01*
X2758Y1018D02*
X2779Y1018D01*
X3348Y1018D02*
X3421Y1018D01*
X138Y1017D02*
X160Y1017D01*
X189Y1017D02*
X211Y1017D01*
X778Y1017D02*
X851Y1017D01*
X1416Y1017D02*
X1439Y1017D01*
X1466Y1017D02*
X1489Y1017D01*
X2065Y1017D02*
X2138Y1017D01*
X2706Y1017D02*
X2727Y1017D01*
X2757Y1017D02*
X2779Y1017D01*
X3348Y1017D02*
X3421Y1017D01*
X138Y1016D02*
X161Y1016D01*
X188Y1016D02*
X211Y1016D01*
X778Y1016D02*
X851Y1016D01*
X1416Y1016D02*
X1440Y1016D01*
X1465Y1016D02*
X1489Y1016D01*
X2065Y1016D02*
X2138Y1016D01*
X2706Y1016D02*
X2728Y1016D01*
X2757Y1016D02*
X2779Y1016D01*
X3348Y1016D02*
X3421Y1016D01*
X138Y1015D02*
X163Y1015D01*
X187Y1015D02*
X211Y1015D01*
X778Y1015D02*
X851Y1015D01*
X1416Y1015D02*
X1442Y1015D01*
X1464Y1015D02*
X1489Y1015D01*
X2065Y1015D02*
X2138Y1015D01*
X2706Y1015D02*
X2730Y1015D01*
X2755Y1015D02*
X2779Y1015D01*
X3348Y1015D02*
X3421Y1015D01*
X138Y1014D02*
X164Y1014D01*
X185Y1014D02*
X211Y1014D01*
X778Y1014D02*
X851Y1014D01*
X1416Y1014D02*
X1443Y1014D01*
X1462Y1014D02*
X1489Y1014D01*
X2065Y1014D02*
X2138Y1014D01*
X2706Y1014D02*
X2731Y1014D01*
X2754Y1014D02*
X2779Y1014D01*
X3348Y1014D02*
X3421Y1014D01*
X138Y1013D02*
X166Y1013D01*
X183Y1013D02*
X211Y1013D01*
X778Y1013D02*
X851Y1013D01*
X1416Y1013D02*
X1446Y1013D01*
X1460Y1013D02*
X1489Y1013D01*
X2065Y1013D02*
X2138Y1013D01*
X2706Y1013D02*
X2733Y1013D01*
X2752Y1013D02*
X2779Y1013D01*
X3348Y1013D02*
X3421Y1013D01*
X138Y1012D02*
X169Y1012D01*
X181Y1012D02*
X211Y1012D01*
X778Y1012D02*
X851Y1012D01*
X1416Y1012D02*
X1451Y1012D01*
X1455Y1012D02*
X1489Y1012D01*
X2065Y1012D02*
X2138Y1012D01*
X2706Y1012D02*
X2735Y1012D01*
X2750Y1012D02*
X2779Y1012D01*
X3348Y1012D02*
X3421Y1012D01*
X138Y1011D02*
X211Y1011D01*
X778Y1011D02*
X851Y1011D01*
X1416Y1011D02*
X1489Y1011D01*
X2065Y1011D02*
X2138Y1011D01*
X2706Y1011D02*
X2738Y1011D01*
X2747Y1011D02*
X2779Y1011D01*
X3348Y1011D02*
X3421Y1011D01*
X138Y1010D02*
X211Y1010D01*
X778Y1010D02*
X851Y1010D01*
X1416Y1010D02*
X1489Y1010D01*
X2065Y1010D02*
X2138Y1010D01*
X2706Y1010D02*
X2779Y1010D01*
X3348Y1010D02*
X3421Y1010D01*
X138Y1009D02*
X211Y1009D01*
X778Y1009D02*
X851Y1009D01*
X1416Y1009D02*
X1489Y1009D01*
X2065Y1009D02*
X2138Y1009D01*
X2706Y1009D02*
X2779Y1009D01*
X3348Y1009D02*
X3421Y1009D01*
X138Y1008D02*
X211Y1008D01*
X778Y1008D02*
X851Y1008D01*
X1416Y1008D02*
X1489Y1008D01*
X2065Y1008D02*
X2138Y1008D01*
X2706Y1008D02*
X2779Y1008D01*
X3348Y1008D02*
X3421Y1008D01*
X138Y1007D02*
X211Y1007D01*
X778Y1007D02*
X851Y1007D01*
X1416Y1007D02*
X1489Y1007D01*
X2065Y1007D02*
X2138Y1007D01*
X2706Y1007D02*
X2779Y1007D01*
X3348Y1007D02*
X3421Y1007D01*
X138Y1006D02*
X211Y1006D01*
X778Y1006D02*
X851Y1006D01*
X1416Y1006D02*
X1489Y1006D01*
X2065Y1006D02*
X2138Y1006D01*
X2706Y1006D02*
X2779Y1006D01*
X3348Y1006D02*
X3421Y1006D01*
X138Y1005D02*
X211Y1005D01*
X778Y1005D02*
X851Y1005D01*
X1416Y1005D02*
X1489Y1005D01*
X2065Y1005D02*
X2096Y1005D01*
X2106Y1005D02*
X2138Y1005D01*
X2706Y1005D02*
X2779Y1005D01*
X3348Y1005D02*
X3421Y1005D01*
X138Y1004D02*
X211Y1004D01*
X778Y1004D02*
X851Y1004D01*
X1416Y1004D02*
X1489Y1004D01*
X2065Y1004D02*
X2093Y1004D01*
X2109Y1004D02*
X2138Y1004D01*
X2706Y1004D02*
X2779Y1004D01*
X3348Y1004D02*
X3421Y1004D01*
X138Y1003D02*
X211Y1003D01*
X778Y1003D02*
X810Y1003D01*
X819Y1003D02*
X851Y1003D01*
X1416Y1003D02*
X1489Y1003D01*
X2065Y1003D02*
X2091Y1003D01*
X2111Y1003D02*
X2138Y1003D01*
X2706Y1003D02*
X2779Y1003D01*
X3348Y1003D02*
X3380Y1003D01*
X3389Y1003D02*
X3421Y1003D01*
X138Y1002D02*
X211Y1002D01*
X778Y1002D02*
X807Y1002D01*
X822Y1002D02*
X851Y1002D01*
X1416Y1002D02*
X1489Y1002D01*
X2065Y1002D02*
X2089Y1002D01*
X2113Y1002D02*
X2138Y1002D01*
X2706Y1002D02*
X2779Y1002D01*
X3348Y1002D02*
X3377Y1002D01*
X3392Y1002D02*
X3421Y1002D01*
X138Y1001D02*
X211Y1001D01*
X778Y1001D02*
X805Y1001D01*
X824Y1001D02*
X851Y1001D01*
X1416Y1001D02*
X1489Y1001D01*
X2065Y1001D02*
X2088Y1001D01*
X2114Y1001D02*
X2138Y1001D01*
X2706Y1001D02*
X2779Y1001D01*
X3348Y1001D02*
X3375Y1001D01*
X3394Y1001D02*
X3421Y1001D01*
X138Y1000D02*
X211Y1000D01*
X778Y1000D02*
X803Y1000D01*
X826Y1000D02*
X851Y1000D01*
X1416Y1000D02*
X1489Y1000D01*
X2065Y1000D02*
X2087Y1000D01*
X2115Y1000D02*
X2138Y1000D01*
X2706Y1000D02*
X2779Y1000D01*
X3348Y1000D02*
X3373Y1000D01*
X3396Y1000D02*
X3421Y1000D01*
X138Y999D02*
X211Y999D01*
X778Y999D02*
X802Y999D01*
X827Y999D02*
X851Y999D01*
X1416Y999D02*
X1489Y999D01*
X2065Y999D02*
X2086Y999D01*
X2116Y999D02*
X2138Y999D01*
X2706Y999D02*
X2779Y999D01*
X3348Y999D02*
X3372Y999D01*
X3398Y999D02*
X3421Y999D01*
X138Y998D02*
X211Y998D01*
X778Y998D02*
X801Y998D01*
X829Y998D02*
X851Y998D01*
X1416Y998D02*
X1489Y998D01*
X2065Y998D02*
X2085Y998D01*
X2117Y998D02*
X2138Y998D01*
X2706Y998D02*
X2779Y998D01*
X3348Y998D02*
X3371Y998D01*
X3399Y998D02*
X3421Y998D01*
X138Y997D02*
X211Y997D01*
X778Y997D02*
X800Y997D01*
X830Y997D02*
X851Y997D01*
X1416Y997D02*
X1489Y997D01*
X2065Y997D02*
X2084Y997D01*
X2118Y997D02*
X2138Y997D01*
X2706Y997D02*
X2779Y997D01*
X3348Y997D02*
X3370Y997D01*
X3400Y997D02*
X3421Y997D01*
X138Y996D02*
X211Y996D01*
X778Y996D02*
X799Y996D01*
X830Y996D02*
X851Y996D01*
X1416Y996D02*
X1489Y996D01*
X2065Y996D02*
X2084Y996D01*
X2118Y996D02*
X2138Y996D01*
X2706Y996D02*
X2779Y996D01*
X3348Y996D02*
X3369Y996D01*
X3401Y996D02*
X3421Y996D01*
X138Y995D02*
X211Y995D01*
X778Y995D02*
X798Y995D01*
X831Y995D02*
X851Y995D01*
X1416Y995D02*
X1489Y995D01*
X2065Y995D02*
X2083Y995D01*
X2119Y995D02*
X2138Y995D01*
X2706Y995D02*
X2779Y995D01*
X3348Y995D02*
X3368Y995D01*
X3401Y995D02*
X3421Y995D01*
X138Y994D02*
X211Y994D01*
X778Y994D02*
X798Y994D01*
X832Y994D02*
X851Y994D01*
X2065Y994D02*
X2083Y994D01*
X2119Y994D02*
X2138Y994D01*
X2706Y994D02*
X2779Y994D01*
X3348Y994D02*
X3368Y994D01*
X3402Y994D02*
X3421Y994D01*
X778Y993D02*
X797Y993D01*
X832Y993D02*
X851Y993D01*
X2065Y993D02*
X2082Y993D01*
X2120Y993D02*
X2138Y993D01*
X3348Y993D02*
X3367Y993D01*
X3403Y993D02*
X3421Y993D01*
X778Y992D02*
X796Y992D01*
X833Y992D02*
X851Y992D01*
X2065Y992D02*
X2082Y992D01*
X2120Y992D02*
X2138Y992D01*
X3348Y992D02*
X3366Y992D01*
X3403Y992D02*
X3421Y992D01*
X778Y991D02*
X796Y991D01*
X833Y991D02*
X851Y991D01*
X2065Y991D02*
X2082Y991D01*
X2120Y991D02*
X2138Y991D01*
X3348Y991D02*
X3366Y991D01*
X3404Y991D02*
X3421Y991D01*
X778Y990D02*
X796Y990D01*
X834Y990D02*
X851Y990D01*
X2065Y990D02*
X2081Y990D01*
X2121Y990D02*
X2138Y990D01*
X3348Y990D02*
X3366Y990D01*
X3404Y990D02*
X3421Y990D01*
X778Y989D02*
X795Y989D01*
X834Y989D02*
X851Y989D01*
X2065Y989D02*
X2081Y989D01*
X2121Y989D02*
X2138Y989D01*
X3348Y989D02*
X3365Y989D01*
X3404Y989D02*
X3421Y989D01*
X778Y988D02*
X795Y988D01*
X834Y988D02*
X851Y988D01*
X2065Y988D02*
X2081Y988D01*
X2121Y988D02*
X2138Y988D01*
X3348Y988D02*
X3365Y988D01*
X3404Y988D02*
X3421Y988D01*
X778Y987D02*
X795Y987D01*
X835Y987D02*
X851Y987D01*
X2065Y987D02*
X2081Y987D01*
X2121Y987D02*
X2138Y987D01*
X3348Y987D02*
X3365Y987D01*
X3405Y987D02*
X3421Y987D01*
X778Y986D02*
X795Y986D01*
X835Y986D02*
X851Y986D01*
X2065Y986D02*
X2081Y986D01*
X2121Y986D02*
X2138Y986D01*
X3348Y986D02*
X3365Y986D01*
X3405Y986D02*
X3421Y986D01*
X778Y985D02*
X795Y985D01*
X835Y985D02*
X851Y985D01*
X2065Y985D02*
X2081Y985D01*
X2121Y985D02*
X2138Y985D01*
X3348Y985D02*
X3365Y985D01*
X3405Y985D02*
X3421Y985D01*
X778Y984D02*
X795Y984D01*
X835Y984D02*
X851Y984D01*
X2065Y984D02*
X2081Y984D01*
X2121Y984D02*
X2138Y984D01*
X3348Y984D02*
X3365Y984D01*
X3405Y984D02*
X3421Y984D01*
X778Y983D02*
X795Y983D01*
X835Y983D02*
X851Y983D01*
X2065Y983D02*
X2081Y983D01*
X2121Y983D02*
X2138Y983D01*
X3348Y983D02*
X3365Y983D01*
X3405Y983D02*
X3421Y983D01*
X778Y982D02*
X795Y982D01*
X835Y982D02*
X851Y982D01*
X2065Y982D02*
X2081Y982D01*
X2121Y982D02*
X2138Y982D01*
X3348Y982D02*
X3365Y982D01*
X3405Y982D02*
X3421Y982D01*
X778Y981D02*
X795Y981D01*
X835Y981D02*
X851Y981D01*
X2065Y981D02*
X2082Y981D01*
X2121Y981D02*
X2138Y981D01*
X3348Y981D02*
X3365Y981D01*
X3405Y981D02*
X3421Y981D01*
X778Y980D02*
X795Y980D01*
X835Y980D02*
X851Y980D01*
X2065Y980D02*
X2082Y980D01*
X2120Y980D02*
X2138Y980D01*
X3348Y980D02*
X3365Y980D01*
X3405Y980D02*
X3421Y980D01*
X778Y979D02*
X795Y979D01*
X834Y979D02*
X851Y979D01*
X2065Y979D02*
X2082Y979D01*
X2120Y979D02*
X2138Y979D01*
X3348Y979D02*
X3365Y979D01*
X3404Y979D02*
X3421Y979D01*
X778Y978D02*
X796Y978D01*
X834Y978D02*
X851Y978D01*
X2065Y978D02*
X2083Y978D01*
X2120Y978D02*
X2138Y978D01*
X3348Y978D02*
X3366Y978D01*
X3404Y978D02*
X3421Y978D01*
X778Y977D02*
X796Y977D01*
X834Y977D02*
X851Y977D01*
X2065Y977D02*
X2083Y977D01*
X2119Y977D02*
X2138Y977D01*
X3348Y977D02*
X3366Y977D01*
X3404Y977D02*
X3421Y977D01*
X778Y976D02*
X796Y976D01*
X833Y976D02*
X851Y976D01*
X2065Y976D02*
X2084Y976D01*
X2118Y976D02*
X2138Y976D01*
X3348Y976D02*
X3366Y976D01*
X3403Y976D02*
X3421Y976D01*
X778Y975D02*
X797Y975D01*
X833Y975D02*
X851Y975D01*
X2065Y975D02*
X2084Y975D01*
X2118Y975D02*
X2138Y975D01*
X3348Y975D02*
X3367Y975D01*
X3403Y975D02*
X3421Y975D01*
X778Y974D02*
X797Y974D01*
X832Y974D02*
X851Y974D01*
X2065Y974D02*
X2085Y974D01*
X2117Y974D02*
X2138Y974D01*
X3348Y974D02*
X3367Y974D01*
X3402Y974D02*
X3421Y974D01*
X778Y973D02*
X798Y973D01*
X832Y973D02*
X851Y973D01*
X2065Y973D02*
X2086Y973D01*
X2116Y973D02*
X2138Y973D01*
X3348Y973D02*
X3368Y973D01*
X3402Y973D02*
X3421Y973D01*
X778Y972D02*
X799Y972D01*
X831Y972D02*
X851Y972D01*
X2065Y972D02*
X2087Y972D01*
X2115Y972D02*
X2138Y972D01*
X3348Y972D02*
X3369Y972D01*
X3401Y972D02*
X3421Y972D01*
X778Y971D02*
X799Y971D01*
X830Y971D02*
X851Y971D01*
X2065Y971D02*
X2088Y971D01*
X2114Y971D02*
X2138Y971D01*
X3348Y971D02*
X3369Y971D01*
X3400Y971D02*
X3421Y971D01*
X778Y970D02*
X800Y970D01*
X829Y970D02*
X851Y970D01*
X2065Y970D02*
X2089Y970D01*
X2113Y970D02*
X2138Y970D01*
X3348Y970D02*
X3370Y970D01*
X3399Y970D02*
X3421Y970D01*
X778Y969D02*
X801Y969D01*
X828Y969D02*
X851Y969D01*
X2065Y969D02*
X2091Y969D01*
X2112Y969D02*
X2138Y969D01*
X3348Y969D02*
X3371Y969D01*
X3398Y969D02*
X3421Y969D01*
X778Y968D02*
X803Y968D01*
X827Y968D02*
X851Y968D01*
X2065Y968D02*
X2092Y968D01*
X2110Y968D02*
X2138Y968D01*
X3348Y968D02*
X3373Y968D01*
X3397Y968D02*
X3421Y968D01*
X778Y967D02*
X804Y967D01*
X825Y967D02*
X851Y967D01*
X2065Y967D02*
X2095Y967D01*
X2107Y967D02*
X2138Y967D01*
X3348Y967D02*
X3374Y967D01*
X3396Y967D02*
X3421Y967D01*
X778Y966D02*
X806Y966D01*
X824Y966D02*
X851Y966D01*
X2065Y966D02*
X2138Y966D01*
X3348Y966D02*
X3376Y966D01*
X3394Y966D02*
X3421Y966D01*
X778Y965D02*
X808Y965D01*
X821Y965D02*
X851Y965D01*
X2065Y965D02*
X2138Y965D01*
X3348Y965D02*
X3379Y965D01*
X3391Y965D02*
X3421Y965D01*
X778Y964D02*
X851Y964D01*
X2065Y964D02*
X2138Y964D01*
X3348Y964D02*
X3421Y964D01*
X778Y963D02*
X851Y963D01*
X2065Y963D02*
X2138Y963D01*
X3348Y963D02*
X3421Y963D01*
X778Y962D02*
X851Y962D01*
X2065Y962D02*
X2138Y962D01*
X3348Y962D02*
X3421Y962D01*
X778Y961D02*
X851Y961D01*
X2065Y961D02*
X2138Y961D01*
X3348Y961D02*
X3421Y961D01*
X778Y960D02*
X851Y960D01*
X2065Y960D02*
X2138Y960D01*
X3348Y960D02*
X3421Y960D01*
X778Y959D02*
X851Y959D01*
X2065Y959D02*
X2138Y959D01*
X3348Y959D02*
X3421Y959D01*
X778Y958D02*
X851Y958D01*
X2065Y958D02*
X2138Y958D01*
X3348Y958D02*
X3421Y958D01*
X778Y957D02*
X851Y957D01*
X2065Y957D02*
X2138Y957D01*
X3348Y957D02*
X3421Y957D01*
X778Y956D02*
X851Y956D01*
X2065Y956D02*
X2138Y956D01*
X3348Y956D02*
X3421Y956D01*
X778Y955D02*
X851Y955D01*
X2065Y955D02*
X2138Y955D01*
X3348Y955D02*
X3421Y955D01*
X778Y954D02*
X851Y954D01*
X2065Y954D02*
X2138Y954D01*
X3348Y954D02*
X3421Y954D01*
X778Y953D02*
X851Y953D01*
X2065Y953D02*
X2138Y953D01*
X3348Y953D02*
X3421Y953D01*
X778Y952D02*
X851Y952D01*
X2065Y952D02*
X2138Y952D01*
X3348Y952D02*
X3421Y952D01*
X778Y951D02*
X851Y951D01*
X2065Y951D02*
X2138Y951D01*
X3348Y951D02*
X3421Y951D01*
X778Y950D02*
X851Y950D01*
X2065Y950D02*
X2138Y950D01*
X3348Y950D02*
X3421Y950D01*
X778Y949D02*
X851Y949D01*
X2065Y949D02*
X2137Y949D01*
X3348Y949D02*
X3421Y949D01*
X778Y948D02*
X851Y948D01*
X3348Y948D02*
X3421Y948D01*
X778Y947D02*
X851Y947D01*
X3348Y947D02*
X3421Y947D01*
D02*
G04 End of Copper1*
M02*