; NON-PLATED HOLES START AT T1
; THROUGH (PLATED) HOLES START AT T100
M48
INCH
T1C0.125984
T2C0.165354
T100C0.038000
T101C0.039370
T102C0.040000
%
T1
X012153Y010165
X025017Y010187
X014034Y010643
X020517Y010187
X005751Y010636
X007653Y010165
X033356Y010165
X031433Y010630
X037856Y010165
X026933Y010630
X018534Y010643
X001251Y010636
T2
X037859Y004063
X001405Y004063
X019615Y014142
T100
X019057Y005022
X031979Y005292
X020057Y005022
X032979Y005292
X007176Y005335
X006176Y005335
T101
X003751Y007136
X027933Y008130
X016534Y007143
X021017Y006687
X028933Y008130
X017534Y007143
X029933Y008130
X028433Y007130
X024517Y007687
X035856Y006665
X004751Y007136
X008153Y006665
X029433Y007130
X023517Y007687
X001751Y007136
X010653Y007665
X009153Y006665
X015034Y008143
X005251Y008136
X014534Y007143
X004251Y008136
X018034Y008143
X009653Y007665
X024017Y006687
X034356Y007665
X027433Y007130
X036356Y007665
X010153Y006665
X021517Y007687
X002751Y007136
X030933Y008130
X011653Y007665
X016034Y008143
X002251Y008136
X008653Y007665
X036856Y006665
X003251Y008136
X011153Y006665
X022017Y006687
X037356Y007665
X034856Y006665
X022517Y007687
X015534Y007143
X017034Y008143
X023017Y006687
X035356Y007665
X033856Y006665
X030433Y007130
T102
X025977Y003196
X023977Y003196
X016835Y003196
X014835Y003196
X021977Y003196
X012835Y003196
T00
M30
