G04 MADE WITH FRITZING*
G04 WWW.FRITZING.ORG*
G04 DOUBLE SIDED*
G04 HOLES PLATED*
G04 CONTOUR ON CENTER OF CONTOUR VECTOR*
%ASAXBY*%
%FSLAX23Y23*%
%MOIN*%
%OFA0B0*%
%SFA1.0B1.0*%
%ADD10C,0.084000*%
%ADD11C,0.135984*%
%ADD12C,0.090000*%
%ADD13C,0.175354*%
%ADD14C,0.088000*%
%ADD15R,0.090000X0.090000*%
%ADD16R,0.001000X0.001000*%
%LNMASK0*%
G90*
G70*
G54D10*
X3736Y1083D03*
X3686Y983D03*
X3636Y1083D03*
X3536Y1083D03*
X3436Y1083D03*
X3586Y983D03*
X3486Y983D03*
X3386Y983D03*
G54D11*
X3336Y733D03*
X3786Y733D03*
G54D10*
X3093Y1129D03*
X3043Y1029D03*
X2993Y1129D03*
X2893Y1129D03*
X2793Y1129D03*
X2943Y1029D03*
X2843Y1029D03*
X2743Y1029D03*
G54D11*
X2693Y779D03*
X3143Y779D03*
G54D10*
X2452Y1085D03*
X2402Y985D03*
X2352Y1085D03*
X2252Y1085D03*
X2152Y1085D03*
X2302Y985D03*
X2202Y985D03*
X2102Y985D03*
G54D11*
X2052Y735D03*
X2502Y735D03*
G54D10*
X1803Y1131D03*
X1753Y1031D03*
X1703Y1131D03*
X1603Y1131D03*
X1503Y1131D03*
X1653Y1031D03*
X1553Y1031D03*
X1453Y1031D03*
G54D11*
X1403Y781D03*
X1853Y781D03*
G54D10*
X1165Y1083D03*
X1115Y983D03*
X1065Y1083D03*
X965Y1083D03*
X865Y1083D03*
X1015Y983D03*
X915Y983D03*
X815Y983D03*
G54D11*
X765Y733D03*
X1215Y733D03*
G54D10*
X525Y1130D03*
X475Y1030D03*
X425Y1130D03*
X325Y1130D03*
X225Y1130D03*
X375Y1030D03*
X275Y1030D03*
X175Y1030D03*
G54D11*
X125Y780D03*
X575Y780D03*
G54D12*
X2398Y320D03*
X2198Y320D03*
X2598Y320D03*
X1484Y320D03*
X1284Y320D03*
X1684Y320D03*
G54D13*
X1962Y1414D03*
X3786Y394D03*
X141Y394D03*
G54D14*
X3198Y529D03*
X3298Y529D03*
X618Y534D03*
X718Y534D03*
X1906Y544D03*
X2006Y544D03*
G54D15*
X2598Y320D03*
X1684Y320D03*
G54D16*
X1411Y1073D02*
X1494Y1073D01*
X133Y1072D02*
X216Y1072D01*
X1411Y1072D02*
X1494Y1072D01*
X2701Y1072D02*
X2784Y1072D01*
X133Y1071D02*
X216Y1071D01*
X1411Y1071D02*
X1494Y1071D01*
X2701Y1071D02*
X2784Y1071D01*
X133Y1070D02*
X216Y1070D01*
X1411Y1070D02*
X1494Y1070D01*
X2701Y1070D02*
X2784Y1070D01*
X133Y1069D02*
X216Y1069D01*
X1411Y1069D02*
X1494Y1069D01*
X2701Y1069D02*
X2784Y1069D01*
X133Y1068D02*
X216Y1068D01*
X1411Y1068D02*
X1494Y1068D01*
X2701Y1068D02*
X2784Y1068D01*
X133Y1067D02*
X216Y1067D01*
X1411Y1067D02*
X1494Y1067D01*
X2701Y1067D02*
X2784Y1067D01*
X133Y1066D02*
X216Y1066D01*
X1411Y1066D02*
X1494Y1066D01*
X2701Y1066D02*
X2784Y1066D01*
X133Y1065D02*
X216Y1065D01*
X1411Y1065D02*
X1494Y1065D01*
X2701Y1065D02*
X2784Y1065D01*
X133Y1064D02*
X216Y1064D01*
X1411Y1064D02*
X1494Y1064D01*
X2701Y1064D02*
X2784Y1064D01*
X133Y1063D02*
X216Y1063D01*
X1411Y1063D02*
X1494Y1063D01*
X2701Y1063D02*
X2784Y1063D01*
X133Y1062D02*
X216Y1062D01*
X1411Y1062D02*
X1494Y1062D01*
X2701Y1062D02*
X2784Y1062D01*
X133Y1061D02*
X216Y1061D01*
X1411Y1061D02*
X1494Y1061D01*
X2701Y1061D02*
X2784Y1061D01*
X133Y1060D02*
X216Y1060D01*
X1411Y1060D02*
X1494Y1060D01*
X2701Y1060D02*
X2784Y1060D01*
X133Y1059D02*
X216Y1059D01*
X1411Y1059D02*
X1494Y1059D01*
X2701Y1059D02*
X2784Y1059D01*
X133Y1058D02*
X216Y1058D01*
X1411Y1058D02*
X1494Y1058D01*
X2701Y1058D02*
X2784Y1058D01*
X133Y1057D02*
X216Y1057D01*
X1411Y1057D02*
X1494Y1057D01*
X2701Y1057D02*
X2784Y1057D01*
X133Y1056D02*
X216Y1056D01*
X1411Y1056D02*
X1494Y1056D01*
X2701Y1056D02*
X2784Y1056D01*
X133Y1055D02*
X216Y1055D01*
X1411Y1055D02*
X1494Y1055D01*
X2701Y1055D02*
X2784Y1055D01*
X133Y1054D02*
X216Y1054D01*
X1411Y1054D02*
X1494Y1054D01*
X2701Y1054D02*
X2784Y1054D01*
X133Y1053D02*
X216Y1053D01*
X1411Y1053D02*
X1494Y1053D01*
X2701Y1053D02*
X2784Y1053D01*
X133Y1052D02*
X216Y1052D01*
X1411Y1052D02*
X1494Y1052D01*
X2701Y1052D02*
X2784Y1052D01*
X133Y1051D02*
X216Y1051D01*
X1411Y1051D02*
X1494Y1051D01*
X2701Y1051D02*
X2784Y1051D01*
X133Y1050D02*
X216Y1050D01*
X1411Y1050D02*
X1494Y1050D01*
X2701Y1050D02*
X2784Y1050D01*
X133Y1049D02*
X216Y1049D01*
X1411Y1049D02*
X1494Y1049D01*
X2701Y1049D02*
X2784Y1049D01*
X133Y1048D02*
X216Y1048D01*
X1411Y1048D02*
X1494Y1048D01*
X2701Y1048D02*
X2784Y1048D01*
X133Y1047D02*
X216Y1047D01*
X1411Y1047D02*
X1494Y1047D01*
X2701Y1047D02*
X2784Y1047D01*
X133Y1046D02*
X216Y1046D01*
X1411Y1046D02*
X1450Y1046D01*
X1455Y1046D02*
X1494Y1046D01*
X2701Y1046D02*
X2784Y1046D01*
X133Y1045D02*
X170Y1045D01*
X179Y1045D02*
X216Y1045D01*
X1411Y1045D02*
X1446Y1045D01*
X1459Y1045D02*
X1494Y1045D01*
X2701Y1045D02*
X2784Y1045D01*
X133Y1044D02*
X168Y1044D01*
X182Y1044D02*
X216Y1044D01*
X1411Y1044D02*
X1445Y1044D01*
X1461Y1044D02*
X1494Y1044D01*
X2701Y1044D02*
X2737Y1044D01*
X2748Y1044D02*
X2784Y1044D01*
X133Y1043D02*
X166Y1043D01*
X183Y1043D02*
X216Y1043D01*
X1411Y1043D02*
X1443Y1043D01*
X1462Y1043D02*
X1494Y1043D01*
X2701Y1043D02*
X2735Y1043D01*
X2750Y1043D02*
X2784Y1043D01*
X133Y1042D02*
X165Y1042D01*
X185Y1042D02*
X216Y1042D01*
X1411Y1042D02*
X1442Y1042D01*
X1463Y1042D02*
X1494Y1042D01*
X2701Y1042D02*
X2733Y1042D01*
X2752Y1042D02*
X2784Y1042D01*
X133Y1041D02*
X164Y1041D01*
X186Y1041D02*
X216Y1041D01*
X1411Y1041D02*
X1441Y1041D01*
X1464Y1041D02*
X1494Y1041D01*
X2701Y1041D02*
X2732Y1041D01*
X2753Y1041D02*
X2784Y1041D01*
X133Y1040D02*
X163Y1040D01*
X187Y1040D02*
X216Y1040D01*
X1411Y1040D02*
X1440Y1040D01*
X1465Y1040D02*
X1494Y1040D01*
X2701Y1040D02*
X2731Y1040D01*
X2754Y1040D02*
X2784Y1040D01*
X133Y1039D02*
X162Y1039D01*
X187Y1039D02*
X216Y1039D01*
X1411Y1039D02*
X1440Y1039D01*
X1466Y1039D02*
X1494Y1039D01*
X2701Y1039D02*
X2730Y1039D01*
X2755Y1039D02*
X2784Y1039D01*
X133Y1038D02*
X161Y1038D01*
X188Y1038D02*
X216Y1038D01*
X1411Y1038D02*
X1439Y1038D01*
X1466Y1038D02*
X1494Y1038D01*
X2701Y1038D02*
X2730Y1038D01*
X2755Y1038D02*
X2784Y1038D01*
X133Y1037D02*
X161Y1037D01*
X189Y1037D02*
X216Y1037D01*
X1411Y1037D02*
X1439Y1037D01*
X1467Y1037D02*
X1494Y1037D01*
X2701Y1037D02*
X2729Y1037D01*
X2756Y1037D02*
X2784Y1037D01*
X133Y1036D02*
X160Y1036D01*
X189Y1036D02*
X216Y1036D01*
X1411Y1036D02*
X1438Y1036D01*
X1467Y1036D02*
X1494Y1036D01*
X2701Y1036D02*
X2728Y1036D01*
X2757Y1036D02*
X2784Y1036D01*
X133Y1035D02*
X160Y1035D01*
X189Y1035D02*
X216Y1035D01*
X1411Y1035D02*
X1438Y1035D01*
X1468Y1035D02*
X1494Y1035D01*
X2701Y1035D02*
X2728Y1035D01*
X2757Y1035D02*
X2784Y1035D01*
X133Y1034D02*
X160Y1034D01*
X190Y1034D02*
X216Y1034D01*
X1411Y1034D02*
X1438Y1034D01*
X1468Y1034D02*
X1494Y1034D01*
X2701Y1034D02*
X2728Y1034D01*
X2757Y1034D02*
X2784Y1034D01*
X133Y1033D02*
X160Y1033D01*
X190Y1033D02*
X216Y1033D01*
X1411Y1033D02*
X1438Y1033D01*
X1468Y1033D02*
X1494Y1033D01*
X2701Y1033D02*
X2728Y1033D01*
X2757Y1033D02*
X2784Y1033D01*
X133Y1032D02*
X160Y1032D01*
X190Y1032D02*
X216Y1032D01*
X1411Y1032D02*
X1438Y1032D01*
X1468Y1032D02*
X1494Y1032D01*
X2701Y1032D02*
X2727Y1032D01*
X2758Y1032D02*
X2784Y1032D01*
X133Y1031D02*
X160Y1031D01*
X190Y1031D02*
X216Y1031D01*
X1411Y1031D02*
X1438Y1031D01*
X1468Y1031D02*
X1494Y1031D01*
X2701Y1031D02*
X2727Y1031D01*
X2758Y1031D02*
X2784Y1031D01*
X133Y1030D02*
X160Y1030D01*
X190Y1030D02*
X216Y1030D01*
X1411Y1030D02*
X1438Y1030D01*
X1468Y1030D02*
X1494Y1030D01*
X2701Y1030D02*
X2727Y1030D01*
X2758Y1030D02*
X2784Y1030D01*
X133Y1029D02*
X160Y1029D01*
X190Y1029D02*
X216Y1029D01*
X1411Y1029D02*
X1438Y1029D01*
X1468Y1029D02*
X1494Y1029D01*
X2701Y1029D02*
X2727Y1029D01*
X2758Y1029D02*
X2784Y1029D01*
X133Y1028D02*
X160Y1028D01*
X190Y1028D02*
X216Y1028D01*
X1411Y1028D02*
X1438Y1028D01*
X1468Y1028D02*
X1494Y1028D01*
X2701Y1028D02*
X2727Y1028D01*
X2757Y1028D02*
X2784Y1028D01*
X133Y1027D02*
X160Y1027D01*
X189Y1027D02*
X216Y1027D01*
X1411Y1027D02*
X1438Y1027D01*
X1467Y1027D02*
X1494Y1027D01*
X2060Y1027D02*
X2143Y1027D01*
X2701Y1027D02*
X2728Y1027D01*
X2757Y1027D02*
X2784Y1027D01*
X133Y1026D02*
X160Y1026D01*
X189Y1026D02*
X216Y1026D01*
X1411Y1026D02*
X1439Y1026D01*
X1467Y1026D02*
X1494Y1026D01*
X2060Y1026D02*
X2143Y1026D01*
X2701Y1026D02*
X2728Y1026D01*
X2757Y1026D02*
X2784Y1026D01*
X133Y1025D02*
X161Y1025D01*
X189Y1025D02*
X216Y1025D01*
X773Y1025D02*
X856Y1025D01*
X1411Y1025D02*
X1439Y1025D01*
X1466Y1025D02*
X1494Y1025D01*
X2060Y1025D02*
X2143Y1025D01*
X2701Y1025D02*
X2728Y1025D01*
X2757Y1025D02*
X2784Y1025D01*
X3343Y1025D02*
X3426Y1025D01*
X133Y1024D02*
X161Y1024D01*
X188Y1024D02*
X216Y1024D01*
X773Y1024D02*
X856Y1024D01*
X1411Y1024D02*
X1440Y1024D01*
X1466Y1024D02*
X1494Y1024D01*
X2060Y1024D02*
X2143Y1024D01*
X2701Y1024D02*
X2729Y1024D01*
X2756Y1024D02*
X2784Y1024D01*
X3343Y1024D02*
X3426Y1024D01*
X133Y1023D02*
X162Y1023D01*
X188Y1023D02*
X216Y1023D01*
X773Y1023D02*
X856Y1023D01*
X1411Y1023D02*
X1440Y1023D01*
X1465Y1023D02*
X1494Y1023D01*
X2060Y1023D02*
X2143Y1023D01*
X2701Y1023D02*
X2729Y1023D01*
X2756Y1023D02*
X2784Y1023D01*
X3343Y1023D02*
X3426Y1023D01*
X133Y1022D02*
X162Y1022D01*
X187Y1022D02*
X216Y1022D01*
X773Y1022D02*
X856Y1022D01*
X1411Y1022D02*
X1441Y1022D01*
X1464Y1022D02*
X1494Y1022D01*
X2060Y1022D02*
X2143Y1022D01*
X2701Y1022D02*
X2730Y1022D01*
X2755Y1022D02*
X2784Y1022D01*
X3343Y1022D02*
X3426Y1022D01*
X133Y1021D02*
X163Y1021D01*
X186Y1021D02*
X216Y1021D01*
X773Y1021D02*
X856Y1021D01*
X1411Y1021D02*
X1442Y1021D01*
X1463Y1021D02*
X1494Y1021D01*
X2060Y1021D02*
X2143Y1021D01*
X2701Y1021D02*
X2731Y1021D01*
X2754Y1021D02*
X2784Y1021D01*
X3343Y1021D02*
X3426Y1021D01*
X133Y1020D02*
X164Y1020D01*
X185Y1020D02*
X216Y1020D01*
X773Y1020D02*
X856Y1020D01*
X1411Y1020D02*
X1443Y1020D01*
X1462Y1020D02*
X1494Y1020D01*
X2060Y1020D02*
X2143Y1020D01*
X2701Y1020D02*
X2731Y1020D01*
X2753Y1020D02*
X2784Y1020D01*
X3343Y1020D02*
X3426Y1020D01*
X133Y1019D02*
X165Y1019D01*
X184Y1019D02*
X216Y1019D01*
X773Y1019D02*
X856Y1019D01*
X1411Y1019D02*
X1445Y1019D01*
X1461Y1019D02*
X1494Y1019D01*
X2060Y1019D02*
X2143Y1019D01*
X2701Y1019D02*
X2733Y1019D01*
X2752Y1019D02*
X2784Y1019D01*
X3343Y1019D02*
X3426Y1019D01*
X133Y1018D02*
X167Y1018D01*
X182Y1018D02*
X216Y1018D01*
X773Y1018D02*
X856Y1018D01*
X1411Y1018D02*
X1446Y1018D01*
X1459Y1018D02*
X1494Y1018D01*
X2060Y1018D02*
X2143Y1018D01*
X2701Y1018D02*
X2734Y1018D01*
X2751Y1018D02*
X2784Y1018D01*
X3343Y1018D02*
X3426Y1018D01*
X133Y1017D02*
X169Y1017D01*
X180Y1017D02*
X216Y1017D01*
X773Y1017D02*
X856Y1017D01*
X1411Y1017D02*
X1450Y1017D01*
X1455Y1017D02*
X1494Y1017D01*
X2060Y1017D02*
X2143Y1017D01*
X2701Y1017D02*
X2736Y1017D01*
X2749Y1017D02*
X2784Y1017D01*
X3343Y1017D02*
X3426Y1017D01*
X133Y1016D02*
X216Y1016D01*
X773Y1016D02*
X856Y1016D01*
X1411Y1016D02*
X1494Y1016D01*
X2060Y1016D02*
X2143Y1016D01*
X2701Y1016D02*
X2738Y1016D01*
X2747Y1016D02*
X2784Y1016D01*
X3343Y1016D02*
X3426Y1016D01*
X133Y1015D02*
X216Y1015D01*
X773Y1015D02*
X856Y1015D01*
X1411Y1015D02*
X1494Y1015D01*
X2060Y1015D02*
X2143Y1015D01*
X2701Y1015D02*
X2784Y1015D01*
X3343Y1015D02*
X3426Y1015D01*
X133Y1014D02*
X216Y1014D01*
X773Y1014D02*
X856Y1014D01*
X1411Y1014D02*
X1494Y1014D01*
X2060Y1014D02*
X2143Y1014D01*
X2701Y1014D02*
X2784Y1014D01*
X3343Y1014D02*
X3426Y1014D01*
X133Y1013D02*
X216Y1013D01*
X773Y1013D02*
X856Y1013D01*
X1411Y1013D02*
X1494Y1013D01*
X2060Y1013D02*
X2143Y1013D01*
X2701Y1013D02*
X2784Y1013D01*
X3343Y1013D02*
X3426Y1013D01*
X133Y1012D02*
X216Y1012D01*
X773Y1012D02*
X856Y1012D01*
X1411Y1012D02*
X1494Y1012D01*
X2060Y1012D02*
X2143Y1012D01*
X2701Y1012D02*
X2784Y1012D01*
X3343Y1012D02*
X3426Y1012D01*
X133Y1011D02*
X216Y1011D01*
X773Y1011D02*
X856Y1011D01*
X1411Y1011D02*
X1494Y1011D01*
X2060Y1011D02*
X2143Y1011D01*
X2701Y1011D02*
X2784Y1011D01*
X3343Y1011D02*
X3426Y1011D01*
X133Y1010D02*
X216Y1010D01*
X773Y1010D02*
X856Y1010D01*
X1411Y1010D02*
X1494Y1010D01*
X2060Y1010D02*
X2143Y1010D01*
X2701Y1010D02*
X2784Y1010D01*
X3343Y1010D02*
X3426Y1010D01*
X133Y1009D02*
X216Y1009D01*
X773Y1009D02*
X856Y1009D01*
X1411Y1009D02*
X1494Y1009D01*
X2060Y1009D02*
X2143Y1009D01*
X2701Y1009D02*
X2784Y1009D01*
X3343Y1009D02*
X3426Y1009D01*
X133Y1008D02*
X216Y1008D01*
X773Y1008D02*
X856Y1008D01*
X1411Y1008D02*
X1494Y1008D01*
X2060Y1008D02*
X2143Y1008D01*
X2701Y1008D02*
X2784Y1008D01*
X3343Y1008D02*
X3426Y1008D01*
X133Y1007D02*
X216Y1007D01*
X773Y1007D02*
X856Y1007D01*
X1411Y1007D02*
X1494Y1007D01*
X2060Y1007D02*
X2143Y1007D01*
X2701Y1007D02*
X2784Y1007D01*
X3343Y1007D02*
X3426Y1007D01*
X133Y1006D02*
X216Y1006D01*
X773Y1006D02*
X856Y1006D01*
X1411Y1006D02*
X1494Y1006D01*
X2060Y1006D02*
X2143Y1006D01*
X2701Y1006D02*
X2784Y1006D01*
X3343Y1006D02*
X3426Y1006D01*
X133Y1005D02*
X216Y1005D01*
X773Y1005D02*
X856Y1005D01*
X1411Y1005D02*
X1494Y1005D01*
X2060Y1005D02*
X2143Y1005D01*
X2701Y1005D02*
X2784Y1005D01*
X3343Y1005D02*
X3426Y1005D01*
X133Y1004D02*
X216Y1004D01*
X773Y1004D02*
X856Y1004D01*
X1411Y1004D02*
X1494Y1004D01*
X2060Y1004D02*
X2143Y1004D01*
X2701Y1004D02*
X2784Y1004D01*
X3343Y1004D02*
X3426Y1004D01*
X133Y1003D02*
X216Y1003D01*
X773Y1003D02*
X856Y1003D01*
X1411Y1003D02*
X1494Y1003D01*
X2060Y1003D02*
X2143Y1003D01*
X2701Y1003D02*
X2784Y1003D01*
X3343Y1003D02*
X3426Y1003D01*
X133Y1002D02*
X216Y1002D01*
X773Y1002D02*
X856Y1002D01*
X1411Y1002D02*
X1494Y1002D01*
X2060Y1002D02*
X2143Y1002D01*
X2701Y1002D02*
X2784Y1002D01*
X3343Y1002D02*
X3426Y1002D01*
X133Y1001D02*
X216Y1001D01*
X773Y1001D02*
X856Y1001D01*
X1411Y1001D02*
X1494Y1001D01*
X2060Y1001D02*
X2143Y1001D01*
X2701Y1001D02*
X2784Y1001D01*
X3343Y1001D02*
X3426Y1001D01*
X133Y1000D02*
X216Y1000D01*
X773Y1000D02*
X856Y1000D01*
X1411Y1000D02*
X1494Y1000D01*
X2060Y1000D02*
X2097Y1000D01*
X2105Y1000D02*
X2143Y1000D01*
X2701Y1000D02*
X2784Y1000D01*
X3343Y1000D02*
X3426Y1000D01*
X133Y999D02*
X216Y999D01*
X773Y999D02*
X856Y999D01*
X1411Y999D02*
X1494Y999D01*
X2060Y999D02*
X2094Y999D01*
X2108Y999D02*
X2143Y999D01*
X2701Y999D02*
X2784Y999D01*
X3343Y999D02*
X3426Y999D01*
X133Y998D02*
X216Y998D01*
X773Y998D02*
X811Y998D01*
X819Y998D02*
X856Y998D01*
X1411Y998D02*
X1494Y998D01*
X2060Y998D02*
X2092Y998D01*
X2110Y998D02*
X2143Y998D01*
X2701Y998D02*
X2784Y998D01*
X3343Y998D02*
X3381Y998D01*
X3389Y998D02*
X3426Y998D01*
X133Y997D02*
X216Y997D01*
X773Y997D02*
X808Y997D01*
X822Y997D02*
X856Y997D01*
X1411Y997D02*
X1494Y997D01*
X2060Y997D02*
X2091Y997D01*
X2111Y997D02*
X2143Y997D01*
X2701Y997D02*
X2784Y997D01*
X3343Y997D02*
X3378Y997D01*
X3392Y997D02*
X3426Y997D01*
X133Y996D02*
X216Y996D01*
X773Y996D02*
X806Y996D01*
X823Y996D02*
X856Y996D01*
X1411Y996D02*
X1494Y996D01*
X2060Y996D02*
X2090Y996D01*
X2112Y996D02*
X2143Y996D01*
X2701Y996D02*
X2784Y996D01*
X3343Y996D02*
X3376Y996D01*
X3393Y996D02*
X3426Y996D01*
X133Y995D02*
X216Y995D01*
X773Y995D02*
X805Y995D01*
X825Y995D02*
X856Y995D01*
X1411Y995D02*
X1494Y995D01*
X2060Y995D02*
X2089Y995D01*
X2113Y995D02*
X2143Y995D01*
X2701Y995D02*
X2784Y995D01*
X3343Y995D02*
X3375Y995D01*
X3395Y995D02*
X3426Y995D01*
X133Y994D02*
X216Y994D01*
X773Y994D02*
X804Y994D01*
X826Y994D02*
X856Y994D01*
X1411Y994D02*
X1494Y994D01*
X2060Y994D02*
X2088Y994D01*
X2114Y994D02*
X2143Y994D01*
X2701Y994D02*
X2784Y994D01*
X3343Y994D02*
X3374Y994D01*
X3396Y994D02*
X3426Y994D01*
X133Y993D02*
X216Y993D01*
X773Y993D02*
X803Y993D01*
X827Y993D02*
X856Y993D01*
X1411Y993D02*
X1494Y993D01*
X2060Y993D02*
X2088Y993D01*
X2114Y993D02*
X2143Y993D01*
X2701Y993D02*
X2784Y993D01*
X3343Y993D02*
X3373Y993D01*
X3397Y993D02*
X3426Y993D01*
X133Y992D02*
X216Y992D01*
X773Y992D02*
X802Y992D01*
X827Y992D02*
X856Y992D01*
X1411Y992D02*
X1494Y992D01*
X2060Y992D02*
X2087Y992D01*
X2115Y992D02*
X2143Y992D01*
X2701Y992D02*
X2784Y992D01*
X3343Y992D02*
X3372Y992D01*
X3397Y992D02*
X3426Y992D01*
X133Y991D02*
X216Y991D01*
X773Y991D02*
X801Y991D01*
X828Y991D02*
X856Y991D01*
X1411Y991D02*
X1494Y991D01*
X2060Y991D02*
X2087Y991D01*
X2115Y991D02*
X2143Y991D01*
X2701Y991D02*
X2784Y991D01*
X3343Y991D02*
X3372Y991D01*
X3398Y991D02*
X3426Y991D01*
X133Y990D02*
X216Y990D01*
X773Y990D02*
X801Y990D01*
X829Y990D02*
X856Y990D01*
X1411Y990D02*
X1494Y990D01*
X2060Y990D02*
X2086Y990D01*
X2116Y990D02*
X2143Y990D01*
X2701Y990D02*
X2784Y990D01*
X3343Y990D02*
X3371Y990D01*
X3399Y990D02*
X3426Y990D01*
X133Y989D02*
X216Y989D01*
X773Y989D02*
X800Y989D01*
X829Y989D02*
X856Y989D01*
X2060Y989D02*
X2086Y989D01*
X2116Y989D02*
X2143Y989D01*
X2701Y989D02*
X2784Y989D01*
X3343Y989D02*
X3371Y989D01*
X3399Y989D02*
X3426Y989D01*
X773Y988D02*
X800Y988D01*
X829Y988D02*
X856Y988D01*
X2060Y988D02*
X2086Y988D01*
X2116Y988D02*
X2143Y988D01*
X3343Y988D02*
X3370Y988D01*
X3399Y988D02*
X3426Y988D01*
X773Y987D02*
X800Y987D01*
X830Y987D02*
X856Y987D01*
X2060Y987D02*
X2086Y987D01*
X2116Y987D02*
X2143Y987D01*
X3343Y987D02*
X3370Y987D01*
X3400Y987D02*
X3426Y987D01*
X773Y986D02*
X800Y986D01*
X830Y986D02*
X856Y986D01*
X2060Y986D02*
X2086Y986D01*
X2116Y986D02*
X2143Y986D01*
X3343Y986D02*
X3370Y986D01*
X3400Y986D02*
X3426Y986D01*
X773Y985D02*
X800Y985D01*
X830Y985D02*
X856Y985D01*
X2060Y985D02*
X2086Y985D01*
X2116Y985D02*
X2143Y985D01*
X3343Y985D02*
X3370Y985D01*
X3400Y985D02*
X3426Y985D01*
X773Y984D02*
X800Y984D01*
X830Y984D02*
X856Y984D01*
X2060Y984D02*
X2086Y984D01*
X2116Y984D02*
X2143Y984D01*
X3343Y984D02*
X3370Y984D01*
X3400Y984D02*
X3426Y984D01*
X773Y983D02*
X800Y983D01*
X830Y983D02*
X856Y983D01*
X2060Y983D02*
X2086Y983D01*
X2116Y983D02*
X2143Y983D01*
X3343Y983D02*
X3370Y983D01*
X3400Y983D02*
X3426Y983D01*
X773Y982D02*
X800Y982D01*
X830Y982D02*
X856Y982D01*
X2060Y982D02*
X2086Y982D01*
X2116Y982D02*
X2143Y982D01*
X3343Y982D02*
X3370Y982D01*
X3400Y982D02*
X3426Y982D01*
X773Y981D02*
X800Y981D01*
X830Y981D02*
X856Y981D01*
X2060Y981D02*
X2087Y981D01*
X2115Y981D02*
X2143Y981D01*
X3343Y981D02*
X3370Y981D01*
X3400Y981D02*
X3426Y981D01*
X773Y980D02*
X800Y980D01*
X829Y980D02*
X856Y980D01*
X2060Y980D02*
X2087Y980D01*
X2115Y980D02*
X2143Y980D01*
X3343Y980D02*
X3370Y980D01*
X3399Y980D02*
X3426Y980D01*
X773Y979D02*
X800Y979D01*
X829Y979D02*
X856Y979D01*
X2060Y979D02*
X2088Y979D01*
X2115Y979D02*
X2143Y979D01*
X3343Y979D02*
X3370Y979D01*
X3399Y979D02*
X3426Y979D01*
X773Y978D02*
X801Y978D01*
X829Y978D02*
X856Y978D01*
X2060Y978D02*
X2088Y978D01*
X2114Y978D02*
X2143Y978D01*
X3343Y978D02*
X3371Y978D01*
X3399Y978D02*
X3426Y978D01*
X773Y977D02*
X801Y977D01*
X828Y977D02*
X856Y977D01*
X2060Y977D02*
X2089Y977D01*
X2113Y977D02*
X2143Y977D01*
X3343Y977D02*
X3371Y977D01*
X3398Y977D02*
X3426Y977D01*
X773Y976D02*
X802Y976D01*
X828Y976D02*
X856Y976D01*
X2060Y976D02*
X2090Y976D01*
X2112Y976D02*
X2143Y976D01*
X3343Y976D02*
X3372Y976D01*
X3398Y976D02*
X3426Y976D01*
X773Y975D02*
X802Y975D01*
X827Y975D02*
X856Y975D01*
X2060Y975D02*
X2091Y975D01*
X2111Y975D02*
X2143Y975D01*
X3343Y975D02*
X3372Y975D01*
X3397Y975D02*
X3426Y975D01*
X773Y974D02*
X803Y974D01*
X826Y974D02*
X856Y974D01*
X2060Y974D02*
X2092Y974D01*
X2110Y974D02*
X2143Y974D01*
X3343Y974D02*
X3373Y974D01*
X3396Y974D02*
X3426Y974D01*
X773Y973D02*
X804Y973D01*
X825Y973D02*
X856Y973D01*
X2060Y973D02*
X2093Y973D01*
X2109Y973D02*
X2143Y973D01*
X3343Y973D02*
X3374Y973D01*
X3395Y973D02*
X3426Y973D01*
X773Y972D02*
X805Y972D01*
X824Y972D02*
X856Y972D01*
X2060Y972D02*
X2096Y972D01*
X2107Y972D02*
X2143Y972D01*
X3343Y972D02*
X3375Y972D01*
X3394Y972D02*
X3426Y972D01*
X773Y971D02*
X807Y971D01*
X823Y971D02*
X856Y971D01*
X2060Y971D02*
X2143Y971D01*
X3343Y971D02*
X3377Y971D01*
X3393Y971D02*
X3426Y971D01*
X773Y970D02*
X809Y970D01*
X821Y970D02*
X856Y970D01*
X2060Y970D02*
X2143Y970D01*
X3343Y970D02*
X3379Y970D01*
X3391Y970D02*
X3426Y970D01*
X773Y969D02*
X856Y969D01*
X2060Y969D02*
X2143Y969D01*
X3343Y969D02*
X3426Y969D01*
X773Y968D02*
X856Y968D01*
X2060Y968D02*
X2143Y968D01*
X3343Y968D02*
X3426Y968D01*
X773Y967D02*
X856Y967D01*
X2060Y967D02*
X2143Y967D01*
X3343Y967D02*
X3426Y967D01*
X773Y966D02*
X856Y966D01*
X2060Y966D02*
X2143Y966D01*
X3343Y966D02*
X3426Y966D01*
X773Y965D02*
X856Y965D01*
X2060Y965D02*
X2143Y965D01*
X3343Y965D02*
X3426Y965D01*
X773Y964D02*
X856Y964D01*
X2060Y964D02*
X2143Y964D01*
X3343Y964D02*
X3426Y964D01*
X773Y963D02*
X856Y963D01*
X2060Y963D02*
X2143Y963D01*
X3343Y963D02*
X3426Y963D01*
X773Y962D02*
X856Y962D01*
X2060Y962D02*
X2143Y962D01*
X3343Y962D02*
X3426Y962D01*
X773Y961D02*
X856Y961D01*
X2060Y961D02*
X2143Y961D01*
X3343Y961D02*
X3426Y961D01*
X773Y960D02*
X856Y960D01*
X2060Y960D02*
X2143Y960D01*
X3343Y960D02*
X3426Y960D01*
X773Y959D02*
X856Y959D01*
X2060Y959D02*
X2143Y959D01*
X3343Y959D02*
X3426Y959D01*
X773Y958D02*
X856Y958D01*
X2060Y958D02*
X2143Y958D01*
X3343Y958D02*
X3426Y958D01*
X773Y957D02*
X856Y957D01*
X2060Y957D02*
X2143Y957D01*
X3343Y957D02*
X3426Y957D01*
X773Y956D02*
X856Y956D01*
X2060Y956D02*
X2143Y956D01*
X3343Y956D02*
X3426Y956D01*
X773Y955D02*
X856Y955D01*
X2060Y955D02*
X2143Y955D01*
X3343Y955D02*
X3426Y955D01*
X773Y954D02*
X856Y954D01*
X2060Y954D02*
X2143Y954D01*
X3343Y954D02*
X3426Y954D01*
X773Y953D02*
X856Y953D01*
X2060Y953D02*
X2143Y953D01*
X3343Y953D02*
X3426Y953D01*
X773Y952D02*
X856Y952D01*
X2060Y952D02*
X2143Y952D01*
X3343Y952D02*
X3426Y952D01*
X773Y951D02*
X856Y951D01*
X2060Y951D02*
X2143Y951D01*
X3343Y951D02*
X3426Y951D01*
X773Y950D02*
X856Y950D01*
X2060Y950D02*
X2143Y950D01*
X3343Y950D02*
X3426Y950D01*
X773Y949D02*
X856Y949D01*
X2060Y949D02*
X2143Y949D01*
X3343Y949D02*
X3426Y949D01*
X773Y948D02*
X856Y948D01*
X2060Y948D02*
X2143Y948D01*
X3343Y948D02*
X3426Y948D01*
X773Y947D02*
X856Y947D01*
X2060Y947D02*
X2143Y947D01*
X3343Y947D02*
X3426Y947D01*
X773Y946D02*
X856Y946D01*
X2060Y946D02*
X2143Y946D01*
X3343Y946D02*
X3426Y946D01*
X773Y945D02*
X856Y945D01*
X2060Y945D02*
X2143Y945D01*
X3343Y945D02*
X3426Y945D01*
X773Y944D02*
X856Y944D01*
X2060Y944D02*
X2142Y944D01*
X3343Y944D02*
X3426Y944D01*
X773Y943D02*
X856Y943D01*
X3343Y943D02*
X3426Y943D01*
X773Y942D02*
X856Y942D01*
X3343Y942D02*
X3426Y942D01*
D02*
G04 End of Mask0*
M02*