G04 MADE WITH FRITZING*
G04 WWW.FRITZING.ORG*
G04 DOUBLE SIDED*
G04 HOLES PLATED*
G04 CONTOUR ON CENTER OF CONTOUR VECTOR*
%ASAXBY*%
%FSLAX23Y23*%
%MOIN*%
%OFA0B0*%
%SFA1.0B1.0*%
%ADD10C,0.008000*%
%ADD11R,0.001000X0.001000*%
%LNSILK1*%
G90*
G70*
G54D10*
X3861Y1135D02*
X3861Y623D01*
D02*
X3861Y1135D02*
X3261Y1135D01*
D02*
X3261Y623D02*
X3261Y1135D01*
D02*
X3218Y1181D02*
X3218Y669D01*
D02*
X3218Y1181D02*
X2618Y1181D01*
D02*
X2618Y669D02*
X2618Y1181D01*
D02*
X2577Y1137D02*
X2577Y625D01*
D02*
X2577Y1137D02*
X1977Y1137D01*
D02*
X1977Y625D02*
X1977Y1137D01*
D02*
X1928Y1182D02*
X1928Y671D01*
D02*
X1928Y1182D02*
X1328Y1182D01*
D02*
X1328Y671D02*
X1328Y1182D01*
D02*
X1290Y1135D02*
X1290Y623D01*
D02*
X1290Y1135D02*
X690Y1135D01*
D02*
X690Y623D02*
X690Y1135D01*
D02*
X650Y1182D02*
X650Y670D01*
D02*
X650Y1182D02*
X50Y1182D01*
D02*
X50Y670D02*
X50Y1182D01*
G54D11*
X1950Y1552D02*
X1965Y1552D01*
X1937Y1551D02*
X1978Y1551D01*
X1930Y1550D02*
X1985Y1550D01*
X1924Y1549D02*
X1991Y1549D01*
X1919Y1548D02*
X1996Y1548D01*
X1915Y1547D02*
X2000Y1547D01*
X1912Y1546D02*
X2003Y1546D01*
X1909Y1545D02*
X1941Y1545D01*
X1974Y1545D02*
X2006Y1545D01*
X1905Y1544D02*
X1932Y1544D01*
X1983Y1544D02*
X2010Y1544D01*
X1903Y1543D02*
X1926Y1543D01*
X1989Y1543D02*
X2012Y1543D01*
X1900Y1542D02*
X1921Y1542D01*
X1994Y1542D02*
X2015Y1542D01*
X1898Y1541D02*
X1917Y1541D01*
X1998Y1541D02*
X2017Y1541D01*
X1895Y1540D02*
X1913Y1540D01*
X2002Y1540D02*
X2020Y1540D01*
X1893Y1539D02*
X1910Y1539D01*
X2005Y1539D02*
X2022Y1539D01*
X1891Y1538D02*
X1906Y1538D01*
X2009Y1538D02*
X2024Y1538D01*
X1889Y1537D02*
X1904Y1537D01*
X2011Y1537D02*
X2026Y1537D01*
X1887Y1536D02*
X1901Y1536D01*
X2014Y1536D02*
X2028Y1536D01*
X1886Y1535D02*
X1899Y1535D01*
X2016Y1535D02*
X2029Y1535D01*
X1884Y1534D02*
X1897Y1534D01*
X2018Y1534D02*
X2031Y1534D01*
X1882Y1533D02*
X1894Y1533D01*
X2021Y1533D02*
X2033Y1533D01*
X1881Y1532D02*
X1892Y1532D01*
X2023Y1532D02*
X2034Y1532D01*
X1879Y1531D02*
X1890Y1531D01*
X2025Y1531D02*
X2036Y1531D01*
X1878Y1530D02*
X1889Y1530D01*
X2026Y1530D02*
X2037Y1530D01*
X1876Y1529D02*
X1887Y1529D01*
X2028Y1529D02*
X2039Y1529D01*
X1875Y1528D02*
X1885Y1528D01*
X2030Y1528D02*
X2040Y1528D01*
X1873Y1527D02*
X1883Y1527D01*
X2032Y1527D02*
X2042Y1527D01*
X1872Y1526D02*
X1882Y1526D01*
X2033Y1526D02*
X2043Y1526D01*
X1871Y1525D02*
X1880Y1525D01*
X2035Y1525D02*
X2044Y1525D01*
X1870Y1524D02*
X1879Y1524D01*
X2036Y1524D02*
X2045Y1524D01*
X1868Y1523D02*
X1878Y1523D01*
X2037Y1523D02*
X2047Y1523D01*
X1867Y1522D02*
X1876Y1522D01*
X2039Y1522D02*
X2048Y1522D01*
X1866Y1521D02*
X1875Y1521D01*
X2040Y1521D02*
X2049Y1521D01*
X1865Y1520D02*
X1874Y1520D01*
X2041Y1520D02*
X2050Y1520D01*
X1864Y1519D02*
X1873Y1519D01*
X2042Y1519D02*
X2051Y1519D01*
X1863Y1518D02*
X1871Y1518D01*
X2044Y1518D02*
X2052Y1518D01*
X1862Y1517D02*
X1870Y1517D01*
X2045Y1517D02*
X2053Y1517D01*
X1861Y1516D02*
X1869Y1516D01*
X2046Y1516D02*
X2054Y1516D01*
X1860Y1515D02*
X1868Y1515D01*
X2047Y1515D02*
X2055Y1515D01*
X1859Y1514D02*
X1867Y1514D01*
X2048Y1514D02*
X2056Y1514D01*
X1858Y1513D02*
X1866Y1513D01*
X2049Y1513D02*
X2057Y1513D01*
X1857Y1512D02*
X1865Y1512D01*
X2050Y1512D02*
X2058Y1512D01*
X1856Y1511D02*
X1864Y1511D01*
X2051Y1511D02*
X2059Y1511D01*
X1856Y1510D02*
X1863Y1510D01*
X2052Y1510D02*
X2059Y1510D01*
X1855Y1509D02*
X1862Y1509D01*
X2053Y1509D02*
X2060Y1509D01*
X1854Y1508D02*
X1861Y1508D01*
X2054Y1508D02*
X2061Y1508D01*
X1853Y1507D02*
X1860Y1507D01*
X2055Y1507D02*
X2062Y1507D01*
X1852Y1506D02*
X1860Y1506D01*
X2055Y1506D02*
X2063Y1506D01*
X1852Y1505D02*
X1859Y1505D01*
X2056Y1505D02*
X2063Y1505D01*
X1851Y1504D02*
X1858Y1504D01*
X2057Y1504D02*
X2064Y1504D01*
X1850Y1503D02*
X1857Y1503D01*
X2058Y1503D02*
X2065Y1503D01*
X1849Y1502D02*
X1856Y1502D01*
X2059Y1502D02*
X2066Y1502D01*
X1849Y1501D02*
X1856Y1501D01*
X2059Y1501D02*
X2066Y1501D01*
X1848Y1500D02*
X1855Y1500D01*
X2060Y1500D02*
X2067Y1500D01*
X1847Y1499D02*
X1854Y1499D01*
X2061Y1499D02*
X2068Y1499D01*
X1847Y1498D02*
X1853Y1498D01*
X2062Y1498D02*
X2068Y1498D01*
X1846Y1497D02*
X1853Y1497D01*
X2062Y1497D02*
X2069Y1497D01*
X1845Y1496D02*
X1852Y1496D01*
X2063Y1496D02*
X2070Y1496D01*
X1845Y1495D02*
X1852Y1495D01*
X2064Y1495D02*
X2070Y1495D01*
X1844Y1494D02*
X1851Y1494D01*
X2064Y1494D02*
X2071Y1494D01*
X1844Y1493D02*
X1850Y1493D01*
X2065Y1493D02*
X2071Y1493D01*
X1843Y1492D02*
X1850Y1492D01*
X2065Y1492D02*
X2072Y1492D01*
X1843Y1491D02*
X1849Y1491D01*
X2066Y1491D02*
X2072Y1491D01*
X1842Y1490D02*
X1848Y1490D01*
X2067Y1490D02*
X2073Y1490D01*
X1841Y1489D02*
X1848Y1489D01*
X2067Y1489D02*
X2074Y1489D01*
X1841Y1488D02*
X1847Y1488D01*
X2068Y1488D02*
X2074Y1488D01*
X1840Y1487D02*
X1847Y1487D01*
X2068Y1487D02*
X2075Y1487D01*
X1840Y1486D02*
X1846Y1486D01*
X2069Y1486D02*
X2075Y1486D01*
X1839Y1485D02*
X1846Y1485D01*
X2069Y1485D02*
X2076Y1485D01*
X1839Y1484D02*
X1845Y1484D01*
X2070Y1484D02*
X2076Y1484D01*
X1838Y1483D02*
X1845Y1483D01*
X2070Y1483D02*
X2077Y1483D01*
X1838Y1482D02*
X1844Y1482D01*
X2071Y1482D02*
X2077Y1482D01*
X1838Y1481D02*
X1844Y1481D01*
X2071Y1481D02*
X2077Y1481D01*
X1837Y1480D02*
X1843Y1480D01*
X2072Y1480D02*
X2078Y1480D01*
X1837Y1479D02*
X1843Y1479D01*
X2072Y1479D02*
X2078Y1479D01*
X1836Y1478D02*
X1842Y1478D01*
X2073Y1478D02*
X2079Y1478D01*
X1836Y1477D02*
X1842Y1477D01*
X2073Y1477D02*
X2079Y1477D01*
X1835Y1476D02*
X1841Y1476D01*
X2074Y1476D02*
X2080Y1476D01*
X1835Y1475D02*
X1841Y1475D01*
X2074Y1475D02*
X2080Y1475D01*
X1835Y1474D02*
X1841Y1474D01*
X2074Y1474D02*
X2080Y1474D01*
X1834Y1473D02*
X1840Y1473D01*
X2075Y1473D02*
X2081Y1473D01*
X1834Y1472D02*
X1840Y1472D01*
X2075Y1472D02*
X2081Y1472D01*
X1834Y1471D02*
X1840Y1471D01*
X2075Y1471D02*
X2081Y1471D01*
X1833Y1470D02*
X1839Y1470D01*
X2076Y1470D02*
X2082Y1470D01*
X1833Y1469D02*
X1839Y1469D01*
X2076Y1469D02*
X2082Y1469D01*
X1833Y1468D02*
X1838Y1468D01*
X2077Y1468D02*
X2083Y1468D01*
X1832Y1467D02*
X1838Y1467D01*
X2077Y1467D02*
X2083Y1467D01*
X1832Y1466D02*
X1838Y1466D01*
X2077Y1466D02*
X2083Y1466D01*
X1832Y1465D02*
X1837Y1465D01*
X2078Y1465D02*
X2083Y1465D01*
X1831Y1464D02*
X1837Y1464D01*
X2078Y1464D02*
X2084Y1464D01*
X1831Y1463D02*
X1837Y1463D01*
X2078Y1463D02*
X2084Y1463D01*
X1831Y1462D02*
X1836Y1462D01*
X2079Y1462D02*
X2084Y1462D01*
X1830Y1461D02*
X1836Y1461D01*
X2079Y1461D02*
X2085Y1461D01*
X1830Y1460D02*
X1836Y1460D01*
X2079Y1460D02*
X2085Y1460D01*
X1830Y1459D02*
X1836Y1459D01*
X2079Y1459D02*
X2085Y1459D01*
X1830Y1458D02*
X1835Y1458D01*
X2080Y1458D02*
X2085Y1458D01*
X1829Y1457D02*
X1835Y1457D01*
X2080Y1457D02*
X2086Y1457D01*
X1829Y1456D02*
X1835Y1456D01*
X2080Y1456D02*
X2086Y1456D01*
X1829Y1455D02*
X1834Y1455D01*
X2081Y1455D02*
X2086Y1455D01*
X1829Y1454D02*
X1834Y1454D01*
X2081Y1454D02*
X2086Y1454D01*
X1828Y1453D02*
X1834Y1453D01*
X2081Y1453D02*
X2087Y1453D01*
X1828Y1452D02*
X1834Y1452D01*
X2081Y1452D02*
X2087Y1452D01*
X1828Y1451D02*
X1834Y1451D01*
X2081Y1451D02*
X2087Y1451D01*
X1828Y1450D02*
X1833Y1450D01*
X2082Y1450D02*
X2087Y1450D01*
X1828Y1449D02*
X1833Y1449D01*
X2082Y1449D02*
X2088Y1449D01*
X1827Y1448D02*
X1833Y1448D01*
X2082Y1448D02*
X2088Y1448D01*
X1827Y1447D02*
X1833Y1447D01*
X2082Y1447D02*
X2088Y1447D01*
X1827Y1446D02*
X1833Y1446D01*
X2082Y1446D02*
X2088Y1446D01*
X1827Y1445D02*
X1832Y1445D01*
X2083Y1445D02*
X2088Y1445D01*
X1827Y1444D02*
X1832Y1444D01*
X2083Y1444D02*
X2088Y1444D01*
X1826Y1443D02*
X1832Y1443D01*
X2083Y1443D02*
X2089Y1443D01*
X1826Y1442D02*
X1832Y1442D01*
X2083Y1442D02*
X2089Y1442D01*
X1826Y1441D02*
X1832Y1441D01*
X2083Y1441D02*
X2089Y1441D01*
X1826Y1440D02*
X1832Y1440D01*
X2083Y1440D02*
X2089Y1440D01*
X1826Y1439D02*
X1831Y1439D01*
X2084Y1439D02*
X2089Y1439D01*
X1826Y1438D02*
X1831Y1438D01*
X2084Y1438D02*
X2089Y1438D01*
X1826Y1437D02*
X1831Y1437D01*
X2084Y1437D02*
X2089Y1437D01*
X1825Y1436D02*
X1831Y1436D01*
X2084Y1436D02*
X2090Y1436D01*
X1825Y1435D02*
X1831Y1435D01*
X2084Y1435D02*
X2090Y1435D01*
X1825Y1434D02*
X1831Y1434D01*
X2084Y1434D02*
X2090Y1434D01*
X1825Y1433D02*
X1831Y1433D01*
X2084Y1433D02*
X2090Y1433D01*
X1825Y1432D02*
X1831Y1432D01*
X2084Y1432D02*
X2090Y1432D01*
X1825Y1431D02*
X1830Y1431D01*
X2085Y1431D02*
X2090Y1431D01*
X1825Y1430D02*
X1830Y1430D01*
X2085Y1430D02*
X2090Y1430D01*
X1825Y1429D02*
X1830Y1429D01*
X2085Y1429D02*
X2090Y1429D01*
X1825Y1428D02*
X1830Y1428D01*
X2085Y1428D02*
X2090Y1428D01*
X1825Y1427D02*
X1830Y1427D01*
X2085Y1427D02*
X2090Y1427D01*
X1825Y1426D02*
X1830Y1426D01*
X2085Y1426D02*
X2090Y1426D01*
X1825Y1425D02*
X1830Y1425D01*
X2085Y1425D02*
X2090Y1425D01*
X1825Y1424D02*
X1830Y1424D01*
X2085Y1424D02*
X2090Y1424D01*
X1825Y1423D02*
X1830Y1423D01*
X2085Y1423D02*
X2090Y1423D01*
X1825Y1422D02*
X1830Y1422D01*
X2085Y1422D02*
X2090Y1422D01*
X1825Y1421D02*
X1830Y1421D01*
X2085Y1421D02*
X2090Y1421D01*
X1825Y1420D02*
X1830Y1420D01*
X2085Y1420D02*
X2090Y1420D01*
X1825Y1419D02*
X1830Y1419D01*
X2085Y1419D02*
X2090Y1419D01*
X1825Y1418D02*
X1830Y1418D01*
X2085Y1418D02*
X2090Y1418D01*
X1825Y1417D02*
X1830Y1417D01*
X2085Y1417D02*
X2090Y1417D01*
X1825Y1416D02*
X1830Y1416D01*
X2085Y1416D02*
X2090Y1416D01*
X1825Y1415D02*
X1830Y1415D01*
X2085Y1415D02*
X2090Y1415D01*
X1825Y1414D02*
X1830Y1414D01*
X2085Y1414D02*
X2090Y1414D01*
X1825Y1413D02*
X1830Y1413D01*
X2085Y1413D02*
X2090Y1413D01*
X1825Y1412D02*
X1830Y1412D01*
X2085Y1412D02*
X2090Y1412D01*
X1825Y1411D02*
X1830Y1411D01*
X2085Y1411D02*
X2090Y1411D01*
X1825Y1410D02*
X1830Y1410D01*
X2085Y1410D02*
X2090Y1410D01*
X1825Y1409D02*
X1830Y1409D01*
X2085Y1409D02*
X2090Y1409D01*
X1825Y1408D02*
X1830Y1408D01*
X2085Y1408D02*
X2090Y1408D01*
X1825Y1407D02*
X1830Y1407D01*
X2085Y1407D02*
X2090Y1407D01*
X1825Y1406D02*
X1830Y1406D01*
X2085Y1406D02*
X2090Y1406D01*
X1825Y1405D02*
X1830Y1405D01*
X2085Y1405D02*
X2090Y1405D01*
X1825Y1404D02*
X1830Y1404D01*
X2085Y1404D02*
X2090Y1404D01*
X1825Y1403D02*
X1830Y1403D01*
X2085Y1403D02*
X2090Y1403D01*
X1825Y1402D02*
X1830Y1402D01*
X2085Y1402D02*
X2090Y1402D01*
X1825Y1401D02*
X1830Y1401D01*
X2085Y1401D02*
X2090Y1401D01*
X1825Y1400D02*
X1830Y1400D01*
X2085Y1400D02*
X2090Y1400D01*
X1825Y1399D02*
X1830Y1399D01*
X2085Y1399D02*
X2090Y1399D01*
X1825Y1398D02*
X1830Y1398D01*
X2085Y1398D02*
X2090Y1398D01*
X1825Y1397D02*
X1830Y1397D01*
X2085Y1397D02*
X2090Y1397D01*
X1825Y1396D02*
X1830Y1396D01*
X2085Y1396D02*
X2090Y1396D01*
X1825Y1395D02*
X1830Y1395D01*
X2085Y1395D02*
X2090Y1395D01*
X1825Y1394D02*
X1830Y1394D01*
X2085Y1394D02*
X2090Y1394D01*
X1825Y1393D02*
X1830Y1393D01*
X2085Y1393D02*
X2090Y1393D01*
X1825Y1392D02*
X1830Y1392D01*
X2085Y1392D02*
X2090Y1392D01*
X1825Y1391D02*
X1830Y1391D01*
X2085Y1391D02*
X2090Y1391D01*
X1825Y1390D02*
X1830Y1390D01*
X2085Y1390D02*
X2090Y1390D01*
X1825Y1389D02*
X1830Y1389D01*
X2085Y1389D02*
X2090Y1389D01*
X1825Y1388D02*
X1830Y1388D01*
X2085Y1388D02*
X2090Y1388D01*
X1825Y1387D02*
X1830Y1387D01*
X2085Y1387D02*
X2090Y1387D01*
X1825Y1386D02*
X1830Y1386D01*
X2085Y1386D02*
X2090Y1386D01*
X1825Y1385D02*
X1830Y1385D01*
X2085Y1385D02*
X2090Y1385D01*
X1825Y1384D02*
X1830Y1384D01*
X2085Y1384D02*
X2090Y1384D01*
X1825Y1383D02*
X1830Y1383D01*
X2085Y1383D02*
X2090Y1383D01*
X1825Y1382D02*
X1830Y1382D01*
X2085Y1382D02*
X2090Y1382D01*
X1825Y1381D02*
X1830Y1381D01*
X2085Y1381D02*
X2090Y1381D01*
X1825Y1380D02*
X1830Y1380D01*
X2085Y1380D02*
X2090Y1380D01*
X1825Y1379D02*
X1830Y1379D01*
X2085Y1379D02*
X2090Y1379D01*
X1825Y1378D02*
X1830Y1378D01*
X2085Y1378D02*
X2090Y1378D01*
X1825Y1377D02*
X1830Y1377D01*
X2085Y1377D02*
X2090Y1377D01*
X1825Y1376D02*
X1830Y1376D01*
X2085Y1376D02*
X2090Y1376D01*
X1825Y1375D02*
X1830Y1375D01*
X2085Y1375D02*
X2090Y1375D01*
X1825Y1374D02*
X1830Y1374D01*
X2085Y1374D02*
X2090Y1374D01*
X1825Y1373D02*
X1830Y1373D01*
X2085Y1373D02*
X2090Y1373D01*
X1825Y1372D02*
X1830Y1372D01*
X2085Y1372D02*
X2090Y1372D01*
X1825Y1371D02*
X1830Y1371D01*
X2085Y1371D02*
X2090Y1371D01*
X1825Y1370D02*
X1830Y1370D01*
X2085Y1370D02*
X2090Y1370D01*
X1825Y1369D02*
X1830Y1369D01*
X2085Y1369D02*
X2090Y1369D01*
X1825Y1368D02*
X1830Y1368D01*
X2085Y1368D02*
X2090Y1368D01*
X1825Y1367D02*
X1830Y1367D01*
X2085Y1367D02*
X2090Y1367D01*
X1825Y1366D02*
X1830Y1366D01*
X2085Y1366D02*
X2090Y1366D01*
X1825Y1365D02*
X1830Y1365D01*
X2085Y1365D02*
X2090Y1365D01*
X1825Y1364D02*
X1830Y1364D01*
X2085Y1364D02*
X2090Y1364D01*
X1825Y1363D02*
X1830Y1363D01*
X2085Y1363D02*
X2090Y1363D01*
X1825Y1362D02*
X1830Y1362D01*
X2085Y1362D02*
X2090Y1362D01*
X1825Y1361D02*
X1830Y1361D01*
X2085Y1361D02*
X2090Y1361D01*
X1825Y1360D02*
X1830Y1360D01*
X2085Y1360D02*
X2090Y1360D01*
X1825Y1359D02*
X1830Y1359D01*
X2085Y1359D02*
X2090Y1359D01*
X1825Y1358D02*
X1830Y1358D01*
X2085Y1358D02*
X2090Y1358D01*
X1825Y1357D02*
X1830Y1357D01*
X2085Y1357D02*
X2090Y1357D01*
X1825Y1356D02*
X1830Y1356D01*
X2085Y1356D02*
X2090Y1356D01*
X1825Y1355D02*
X1830Y1355D01*
X2085Y1355D02*
X2090Y1355D01*
X1825Y1354D02*
X1830Y1354D01*
X2085Y1354D02*
X2090Y1354D01*
X1825Y1353D02*
X1830Y1353D01*
X2085Y1353D02*
X2090Y1353D01*
X1825Y1352D02*
X1830Y1352D01*
X2085Y1352D02*
X2090Y1352D01*
X1825Y1351D02*
X1830Y1351D01*
X2085Y1351D02*
X2090Y1351D01*
X1825Y1350D02*
X1830Y1350D01*
X2085Y1350D02*
X2090Y1350D01*
X1825Y1349D02*
X1830Y1349D01*
X2085Y1349D02*
X2090Y1349D01*
X1825Y1348D02*
X1830Y1348D01*
X2085Y1348D02*
X2090Y1348D01*
X1825Y1347D02*
X1830Y1347D01*
X2085Y1347D02*
X2090Y1347D01*
X1825Y1346D02*
X1830Y1346D01*
X2085Y1346D02*
X2090Y1346D01*
X1824Y1345D02*
X1830Y1345D01*
X2085Y1345D02*
X2090Y1345D01*
X1824Y1344D02*
X1830Y1344D01*
X2085Y1344D02*
X2091Y1344D01*
X1824Y1343D02*
X1830Y1343D01*
X2085Y1343D02*
X2091Y1343D01*
X1824Y1342D02*
X1830Y1342D01*
X2085Y1342D02*
X2091Y1342D01*
X1824Y1341D02*
X1830Y1341D01*
X2085Y1341D02*
X2091Y1341D01*
X1824Y1340D02*
X1830Y1340D01*
X2085Y1340D02*
X2091Y1340D01*
X1824Y1339D02*
X1829Y1339D01*
X2085Y1339D02*
X2091Y1339D01*
X1824Y1338D02*
X1829Y1338D01*
X2086Y1338D02*
X2091Y1338D01*
X1823Y1337D02*
X1829Y1337D01*
X2086Y1337D02*
X2091Y1337D01*
X1823Y1336D02*
X1829Y1336D01*
X2086Y1336D02*
X2092Y1336D01*
X1823Y1335D02*
X1829Y1335D01*
X2086Y1335D02*
X2092Y1335D01*
X1823Y1334D02*
X1828Y1334D01*
X2086Y1334D02*
X2092Y1334D01*
X1822Y1333D02*
X1828Y1333D01*
X2087Y1333D02*
X2092Y1333D01*
X1822Y1332D02*
X1828Y1332D01*
X2087Y1332D02*
X2093Y1332D01*
X1822Y1331D02*
X1828Y1331D01*
X2087Y1331D02*
X2093Y1331D01*
X1822Y1330D02*
X1827Y1330D01*
X2087Y1330D02*
X2093Y1330D01*
X1821Y1329D02*
X1827Y1329D01*
X2088Y1329D02*
X2094Y1329D01*
X1821Y1328D02*
X1827Y1328D01*
X2088Y1328D02*
X2094Y1328D01*
X1820Y1327D02*
X1826Y1327D01*
X2088Y1327D02*
X2094Y1327D01*
X1820Y1326D02*
X1826Y1326D01*
X2089Y1326D02*
X2095Y1326D01*
X1820Y1325D02*
X1826Y1325D01*
X2089Y1325D02*
X2095Y1325D01*
X1819Y1324D02*
X1825Y1324D01*
X2089Y1324D02*
X2096Y1324D01*
X1819Y1323D02*
X1825Y1323D01*
X2090Y1323D02*
X2096Y1323D01*
X1818Y1322D02*
X1824Y1322D01*
X2090Y1322D02*
X2097Y1322D01*
X1818Y1321D02*
X1824Y1321D01*
X2091Y1321D02*
X2097Y1321D01*
X1817Y1320D02*
X1823Y1320D01*
X2091Y1320D02*
X2098Y1320D01*
X1816Y1319D02*
X1823Y1319D01*
X2092Y1319D02*
X2098Y1319D01*
X1816Y1318D02*
X1822Y1318D01*
X2092Y1318D02*
X2099Y1318D01*
X1815Y1317D02*
X1822Y1317D01*
X2093Y1317D02*
X2100Y1317D01*
X1814Y1316D02*
X1821Y1316D01*
X2094Y1316D02*
X2101Y1316D01*
X1813Y1315D02*
X1820Y1315D01*
X2094Y1315D02*
X2102Y1315D01*
X1812Y1314D02*
X1820Y1314D01*
X2095Y1314D02*
X2102Y1314D01*
X1811Y1313D02*
X1819Y1313D01*
X2096Y1313D02*
X2104Y1313D01*
X1810Y1312D02*
X1818Y1312D01*
X2097Y1312D02*
X2105Y1312D01*
X1809Y1311D02*
X1817Y1311D01*
X2098Y1311D02*
X2106Y1311D01*
X1807Y1310D02*
X1816Y1310D01*
X2099Y1310D02*
X2108Y1310D01*
X1806Y1309D02*
X1815Y1309D01*
X2100Y1309D02*
X2109Y1309D01*
X1803Y1308D02*
X1814Y1308D01*
X2101Y1308D02*
X2111Y1308D01*
X1801Y1307D02*
X1813Y1307D01*
X2102Y1307D02*
X2114Y1307D01*
X1797Y1306D02*
X1812Y1306D01*
X2103Y1306D02*
X2118Y1306D01*
X80Y1305D02*
X1810Y1305D01*
X2105Y1305D02*
X3840Y1305D01*
X69Y1304D02*
X1808Y1304D01*
X2106Y1304D02*
X3848Y1304D01*
X64Y1303D02*
X1807Y1303D01*
X2108Y1303D02*
X3853Y1303D01*
X60Y1302D02*
X1805Y1302D01*
X2110Y1302D02*
X3858Y1302D01*
X57Y1301D02*
X1802Y1301D01*
X2113Y1301D02*
X3861Y1301D01*
X54Y1300D02*
X1799Y1300D01*
X2116Y1300D02*
X3864Y1300D01*
X51Y1299D02*
X1793Y1299D01*
X2122Y1299D02*
X3867Y1299D01*
X49Y1298D02*
X72Y1298D01*
X3846Y1298D02*
X3870Y1298D01*
X47Y1297D02*
X66Y1297D01*
X3851Y1297D02*
X3872Y1297D01*
X45Y1296D02*
X62Y1296D01*
X3856Y1296D02*
X3874Y1296D01*
X43Y1295D02*
X58Y1295D01*
X3859Y1295D02*
X3876Y1295D01*
X42Y1294D02*
X55Y1294D01*
X3863Y1294D02*
X3878Y1294D01*
X40Y1293D02*
X53Y1293D01*
X3865Y1293D02*
X3879Y1293D01*
X39Y1292D02*
X50Y1292D01*
X3868Y1292D02*
X3881Y1292D01*
X37Y1291D02*
X48Y1291D01*
X3870Y1291D02*
X3883Y1291D01*
X36Y1290D02*
X46Y1290D01*
X3872Y1290D02*
X3884Y1290D01*
X35Y1289D02*
X45Y1289D01*
X3874Y1289D02*
X3886Y1289D01*
X33Y1288D02*
X43Y1288D01*
X3876Y1288D02*
X3887Y1288D01*
X32Y1287D02*
X42Y1287D01*
X3878Y1287D02*
X3888Y1287D01*
X31Y1286D02*
X40Y1286D01*
X3879Y1286D02*
X3890Y1286D01*
X30Y1285D02*
X39Y1285D01*
X3881Y1285D02*
X3891Y1285D01*
X29Y1284D02*
X38Y1284D01*
X3883Y1284D02*
X3892Y1284D01*
X28Y1283D02*
X36Y1283D01*
X3884Y1283D02*
X3893Y1283D01*
X27Y1282D02*
X35Y1282D01*
X3885Y1282D02*
X3894Y1282D01*
X26Y1281D02*
X34Y1281D01*
X3887Y1281D02*
X3895Y1281D01*
X25Y1280D02*
X33Y1280D01*
X3888Y1280D02*
X3896Y1280D01*
X25Y1279D02*
X32Y1279D01*
X3889Y1279D02*
X3897Y1279D01*
X24Y1278D02*
X31Y1278D01*
X3890Y1278D02*
X3898Y1278D01*
X23Y1277D02*
X30Y1277D01*
X3891Y1277D02*
X3899Y1277D01*
X22Y1276D02*
X29Y1276D01*
X3892Y1276D02*
X3900Y1276D01*
X21Y1275D02*
X29Y1275D01*
X3893Y1275D02*
X3900Y1275D01*
X21Y1274D02*
X28Y1274D01*
X3894Y1274D02*
X3901Y1274D01*
X20Y1273D02*
X27Y1273D01*
X3895Y1273D02*
X3902Y1273D01*
X19Y1272D02*
X26Y1272D01*
X3896Y1272D02*
X3903Y1272D01*
X19Y1271D02*
X26Y1271D01*
X3897Y1271D02*
X3903Y1271D01*
X18Y1270D02*
X25Y1270D01*
X3897Y1270D02*
X3904Y1270D01*
X18Y1269D02*
X24Y1269D01*
X3898Y1269D02*
X3905Y1269D01*
X17Y1268D02*
X24Y1268D01*
X3899Y1268D02*
X3905Y1268D01*
X16Y1267D02*
X23Y1267D01*
X3900Y1267D02*
X3906Y1267D01*
X16Y1266D02*
X22Y1266D01*
X3900Y1266D02*
X3907Y1266D01*
X15Y1265D02*
X22Y1265D01*
X3901Y1265D02*
X3907Y1265D01*
X15Y1264D02*
X21Y1264D01*
X3901Y1264D02*
X3908Y1264D01*
X14Y1263D02*
X21Y1263D01*
X3902Y1263D02*
X3908Y1263D01*
X14Y1262D02*
X20Y1262D01*
X3903Y1262D02*
X3909Y1262D01*
X13Y1261D02*
X20Y1261D01*
X3903Y1261D02*
X3909Y1261D01*
X13Y1260D02*
X19Y1260D01*
X3904Y1260D02*
X3910Y1260D01*
X12Y1259D02*
X19Y1259D01*
X3904Y1259D02*
X3910Y1259D01*
X12Y1258D02*
X18Y1258D01*
X3905Y1258D02*
X3911Y1258D01*
X12Y1257D02*
X18Y1257D01*
X3905Y1257D02*
X3911Y1257D01*
X11Y1256D02*
X17Y1256D01*
X3906Y1256D02*
X3911Y1256D01*
X11Y1255D02*
X17Y1255D01*
X3906Y1255D02*
X3912Y1255D01*
X10Y1254D02*
X16Y1254D01*
X3906Y1254D02*
X3912Y1254D01*
X10Y1253D02*
X16Y1253D01*
X3907Y1253D02*
X3913Y1253D01*
X10Y1252D02*
X16Y1252D01*
X3907Y1252D02*
X3913Y1252D01*
X9Y1251D02*
X15Y1251D01*
X3908Y1251D02*
X3913Y1251D01*
X9Y1250D02*
X15Y1250D01*
X3908Y1250D02*
X3914Y1250D01*
X9Y1249D02*
X15Y1249D01*
X3908Y1249D02*
X3914Y1249D01*
X8Y1248D02*
X14Y1248D01*
X3909Y1248D02*
X3914Y1248D01*
X8Y1247D02*
X14Y1247D01*
X3909Y1247D02*
X3914Y1247D01*
X8Y1246D02*
X14Y1246D01*
X3909Y1246D02*
X3915Y1246D01*
X7Y1245D02*
X13Y1245D01*
X3909Y1245D02*
X3915Y1245D01*
X7Y1244D02*
X13Y1244D01*
X3910Y1244D02*
X3915Y1244D01*
X7Y1243D02*
X13Y1243D01*
X3910Y1243D02*
X3915Y1243D01*
X7Y1242D02*
X12Y1242D01*
X3910Y1242D02*
X3916Y1242D01*
X7Y1241D02*
X12Y1241D01*
X3910Y1241D02*
X3916Y1241D01*
X6Y1240D02*
X12Y1240D01*
X3911Y1240D02*
X3916Y1240D01*
X6Y1239D02*
X12Y1239D01*
X3911Y1239D02*
X3916Y1239D01*
X6Y1238D02*
X11Y1238D01*
X3911Y1238D02*
X3916Y1238D01*
X6Y1237D02*
X11Y1237D01*
X5Y1236D02*
X11Y1236D01*
X5Y1235D02*
X11Y1235D01*
X5Y1234D02*
X11Y1234D01*
X5Y1233D02*
X10Y1233D01*
X5Y1232D02*
X10Y1232D01*
X5Y1231D02*
X10Y1231D01*
X4Y1230D02*
X10Y1230D01*
X4Y1229D02*
X10Y1229D01*
X4Y1228D02*
X10Y1228D01*
X4Y1227D02*
X10Y1227D01*
X4Y1226D02*
X9Y1226D01*
X4Y1225D02*
X9Y1225D01*
X4Y1224D02*
X9Y1224D01*
X4Y1223D02*
X9Y1223D01*
X3Y1222D02*
X9Y1222D01*
X3Y1221D02*
X9Y1221D01*
X3Y1220D02*
X9Y1220D01*
X3Y1219D02*
X9Y1219D01*
X3Y1218D02*
X9Y1218D01*
X3Y1217D02*
X9Y1217D01*
X3Y1216D02*
X9Y1216D01*
X3Y1215D02*
X9Y1215D01*
X3Y1214D02*
X9Y1214D01*
X3Y1213D02*
X9Y1213D01*
X3Y1212D02*
X9Y1212D01*
X3Y1211D02*
X9Y1211D01*
X3Y1210D02*
X9Y1210D01*
X3Y1209D02*
X9Y1209D01*
X3Y1208D02*
X9Y1208D01*
X3Y1207D02*
X9Y1207D01*
X3Y1206D02*
X9Y1206D01*
X3Y1205D02*
X9Y1205D01*
X3Y1204D02*
X9Y1204D01*
X3Y1203D02*
X9Y1203D01*
X3Y1202D02*
X9Y1202D01*
X3Y1201D02*
X9Y1201D01*
X3Y1200D02*
X9Y1200D01*
X3Y1199D02*
X9Y1199D01*
X3Y1198D02*
X9Y1198D01*
X3Y1197D02*
X9Y1197D01*
X3Y1196D02*
X9Y1196D01*
X3Y1195D02*
X9Y1195D01*
X3Y1194D02*
X9Y1194D01*
X3Y1193D02*
X9Y1193D01*
X3Y1192D02*
X9Y1192D01*
X3Y1191D02*
X9Y1191D01*
X3Y1190D02*
X9Y1190D01*
X3Y1189D02*
X9Y1189D01*
X3Y1188D02*
X9Y1188D01*
X3Y1187D02*
X9Y1187D01*
X3Y1186D02*
X9Y1186D01*
X3Y1185D02*
X9Y1185D01*
X3Y1184D02*
X9Y1184D01*
X3Y1183D02*
X9Y1183D01*
X3Y1182D02*
X9Y1182D01*
X3Y1181D02*
X9Y1181D01*
X3Y1180D02*
X9Y1180D01*
X3Y1179D02*
X9Y1179D01*
X3Y1178D02*
X9Y1178D01*
X3Y1177D02*
X9Y1177D01*
X3Y1176D02*
X9Y1176D01*
X3Y1175D02*
X9Y1175D01*
X3Y1174D02*
X9Y1174D01*
X3Y1173D02*
X9Y1173D01*
X3Y1172D02*
X9Y1172D01*
X3Y1171D02*
X9Y1171D01*
X3Y1170D02*
X9Y1170D01*
X3Y1169D02*
X9Y1169D01*
X3Y1168D02*
X9Y1168D01*
X3Y1167D02*
X9Y1167D01*
X3Y1166D02*
X9Y1166D01*
X3Y1165D02*
X9Y1165D01*
X3Y1164D02*
X9Y1164D01*
X3Y1163D02*
X9Y1163D01*
X3Y1162D02*
X9Y1162D01*
X3Y1161D02*
X9Y1161D01*
X3Y1160D02*
X9Y1160D01*
X3Y1159D02*
X9Y1159D01*
X3Y1158D02*
X9Y1158D01*
X3Y1157D02*
X9Y1157D01*
X3Y1156D02*
X9Y1156D01*
X3Y1155D02*
X9Y1155D01*
X3Y1154D02*
X9Y1154D01*
X3Y1153D02*
X9Y1153D01*
X3Y1152D02*
X9Y1152D01*
X3Y1151D02*
X9Y1151D01*
X3Y1150D02*
X9Y1150D01*
X3Y1149D02*
X9Y1149D01*
X3Y1148D02*
X9Y1148D01*
X3Y1147D02*
X9Y1147D01*
X3Y1146D02*
X9Y1146D01*
X3Y1145D02*
X9Y1145D01*
X3Y1144D02*
X9Y1144D01*
X3Y1143D02*
X9Y1143D01*
X3Y1142D02*
X9Y1142D01*
X3Y1141D02*
X9Y1141D01*
X3Y1140D02*
X9Y1140D01*
X3Y1139D02*
X9Y1139D01*
X3Y1138D02*
X9Y1138D01*
X3Y1137D02*
X9Y1137D01*
X3Y1136D02*
X9Y1136D01*
X3Y1135D02*
X9Y1135D01*
X3Y1134D02*
X9Y1134D01*
X3Y1133D02*
X9Y1133D01*
X3Y1132D02*
X9Y1132D01*
X3Y1131D02*
X9Y1131D01*
X3Y1130D02*
X9Y1130D01*
X3Y1129D02*
X9Y1129D01*
X3Y1128D02*
X9Y1128D01*
X3Y1127D02*
X9Y1127D01*
X3Y1126D02*
X9Y1126D01*
X3Y1125D02*
X9Y1125D01*
X3Y1124D02*
X9Y1124D01*
X3Y1123D02*
X9Y1123D01*
X3Y1122D02*
X9Y1122D01*
X3Y1121D02*
X9Y1121D01*
X3Y1120D02*
X9Y1120D01*
X3Y1119D02*
X9Y1119D01*
X3Y1118D02*
X9Y1118D01*
X3Y1117D02*
X9Y1117D01*
X3Y1116D02*
X9Y1116D01*
X3Y1115D02*
X9Y1115D01*
X3Y1114D02*
X9Y1114D01*
X3Y1113D02*
X9Y1113D01*
X3Y1112D02*
X9Y1112D01*
X3Y1111D02*
X9Y1111D01*
X3Y1110D02*
X9Y1110D01*
X3Y1109D02*
X9Y1109D01*
X3Y1108D02*
X9Y1108D01*
X3Y1107D02*
X9Y1107D01*
X3Y1106D02*
X9Y1106D01*
X3Y1105D02*
X9Y1105D01*
X3Y1104D02*
X9Y1104D01*
X3Y1103D02*
X9Y1103D01*
X3Y1102D02*
X9Y1102D01*
X3Y1101D02*
X9Y1101D01*
X3Y1100D02*
X9Y1100D01*
X3Y1099D02*
X9Y1099D01*
X3Y1098D02*
X9Y1098D01*
X3Y1097D02*
X9Y1097D01*
X3Y1096D02*
X9Y1096D01*
X3Y1095D02*
X9Y1095D01*
X3Y1094D02*
X9Y1094D01*
X3Y1093D02*
X9Y1093D01*
X3Y1092D02*
X9Y1092D01*
X3Y1091D02*
X9Y1091D01*
X3Y1090D02*
X9Y1090D01*
X3Y1089D02*
X9Y1089D01*
X3Y1088D02*
X9Y1088D01*
X3Y1087D02*
X9Y1087D01*
X3Y1086D02*
X9Y1086D01*
X3Y1085D02*
X9Y1085D01*
X3Y1084D02*
X9Y1084D01*
X3Y1083D02*
X9Y1083D01*
X3Y1082D02*
X9Y1082D01*
X3Y1081D02*
X9Y1081D01*
X3Y1080D02*
X9Y1080D01*
X3Y1079D02*
X9Y1079D01*
X3Y1078D02*
X9Y1078D01*
X3Y1077D02*
X9Y1077D01*
X3Y1076D02*
X9Y1076D01*
X3Y1075D02*
X9Y1075D01*
X3Y1074D02*
X9Y1074D01*
X3Y1073D02*
X9Y1073D01*
X3Y1072D02*
X9Y1072D01*
X3Y1071D02*
X9Y1071D01*
X3Y1070D02*
X9Y1070D01*
X3Y1069D02*
X9Y1069D01*
X3Y1068D02*
X9Y1068D01*
X3Y1067D02*
X9Y1067D01*
X3Y1066D02*
X9Y1066D01*
X3Y1065D02*
X9Y1065D01*
X3Y1064D02*
X9Y1064D01*
X3Y1063D02*
X9Y1063D01*
X3Y1062D02*
X9Y1062D01*
X3Y1061D02*
X9Y1061D01*
X3Y1060D02*
X9Y1060D01*
X3Y1059D02*
X9Y1059D01*
X3Y1058D02*
X9Y1058D01*
X3Y1057D02*
X9Y1057D01*
X3Y1056D02*
X9Y1056D01*
X3Y1055D02*
X9Y1055D01*
X3Y1054D02*
X9Y1054D01*
X3Y1053D02*
X9Y1053D01*
X3Y1052D02*
X9Y1052D01*
X3Y1051D02*
X9Y1051D01*
X3Y1050D02*
X9Y1050D01*
X3Y1049D02*
X9Y1049D01*
X3Y1048D02*
X9Y1048D01*
X3Y1047D02*
X9Y1047D01*
X3Y1046D02*
X9Y1046D01*
X3Y1045D02*
X9Y1045D01*
X3Y1044D02*
X9Y1044D01*
X3Y1043D02*
X9Y1043D01*
X3Y1042D02*
X9Y1042D01*
X3Y1041D02*
X9Y1041D01*
X3Y1040D02*
X9Y1040D01*
X3Y1039D02*
X9Y1039D01*
X3Y1038D02*
X9Y1038D01*
X3Y1037D02*
X9Y1037D01*
X3Y1036D02*
X9Y1036D01*
X3Y1035D02*
X9Y1035D01*
X3Y1034D02*
X9Y1034D01*
X3Y1033D02*
X9Y1033D01*
X3Y1032D02*
X9Y1032D01*
X3Y1031D02*
X9Y1031D01*
X3Y1030D02*
X9Y1030D01*
X3Y1029D02*
X9Y1029D01*
X3Y1028D02*
X9Y1028D01*
X3Y1027D02*
X9Y1027D01*
X3Y1026D02*
X9Y1026D01*
X3Y1025D02*
X9Y1025D01*
X3Y1024D02*
X9Y1024D01*
X3Y1023D02*
X9Y1023D01*
X3Y1022D02*
X9Y1022D01*
X3Y1021D02*
X9Y1021D01*
X3Y1020D02*
X9Y1020D01*
X3Y1019D02*
X9Y1019D01*
X3Y1018D02*
X9Y1018D01*
X3Y1017D02*
X9Y1017D01*
X3Y1016D02*
X9Y1016D01*
X3Y1015D02*
X9Y1015D01*
X3Y1014D02*
X9Y1014D01*
X3Y1013D02*
X9Y1013D01*
X3Y1012D02*
X9Y1012D01*
X3Y1011D02*
X9Y1011D01*
X3Y1010D02*
X9Y1010D01*
X3Y1009D02*
X9Y1009D01*
X3Y1008D02*
X9Y1008D01*
X3Y1007D02*
X9Y1007D01*
X3Y1006D02*
X9Y1006D01*
X3Y1005D02*
X9Y1005D01*
X3Y1004D02*
X9Y1004D01*
X3Y1003D02*
X9Y1003D01*
X3Y1002D02*
X9Y1002D01*
X3Y1001D02*
X9Y1001D01*
X3Y1000D02*
X9Y1000D01*
X3Y999D02*
X9Y999D01*
X3Y998D02*
X9Y998D01*
X3Y997D02*
X9Y997D01*
X3Y996D02*
X9Y996D01*
X3Y995D02*
X9Y995D01*
X3Y994D02*
X9Y994D01*
X3Y993D02*
X9Y993D01*
X3Y992D02*
X9Y992D01*
X3Y991D02*
X9Y991D01*
X3Y990D02*
X9Y990D01*
X3Y989D02*
X9Y989D01*
X3Y988D02*
X9Y988D01*
X3Y987D02*
X9Y987D01*
X3Y986D02*
X9Y986D01*
X3Y985D02*
X9Y985D01*
X3Y984D02*
X9Y984D01*
X3Y983D02*
X9Y983D01*
X3Y982D02*
X9Y982D01*
X3Y981D02*
X9Y981D01*
X3Y980D02*
X9Y980D01*
X3Y979D02*
X9Y979D01*
X3Y978D02*
X9Y978D01*
X3Y977D02*
X9Y977D01*
X3Y976D02*
X9Y976D01*
X3Y975D02*
X9Y975D01*
X3Y974D02*
X9Y974D01*
X3Y973D02*
X9Y973D01*
X3Y972D02*
X9Y972D01*
X3Y971D02*
X9Y971D01*
X3Y970D02*
X9Y970D01*
X3Y969D02*
X9Y969D01*
X3Y968D02*
X9Y968D01*
X3Y967D02*
X9Y967D01*
X3Y966D02*
X9Y966D01*
X3Y965D02*
X9Y965D01*
X3Y964D02*
X9Y964D01*
X3Y963D02*
X9Y963D01*
X3Y962D02*
X9Y962D01*
X3Y961D02*
X9Y961D01*
X3Y960D02*
X9Y960D01*
X3Y959D02*
X9Y959D01*
X3Y958D02*
X9Y958D01*
X3Y957D02*
X9Y957D01*
X3Y956D02*
X9Y956D01*
X3Y955D02*
X9Y955D01*
X3Y954D02*
X9Y954D01*
X3Y953D02*
X9Y953D01*
X3Y952D02*
X9Y952D01*
X3Y951D02*
X9Y951D01*
X3Y950D02*
X9Y950D01*
X3Y949D02*
X9Y949D01*
X3Y948D02*
X9Y948D01*
X3Y947D02*
X9Y947D01*
X3Y946D02*
X9Y946D01*
X3Y945D02*
X9Y945D01*
X3Y944D02*
X9Y944D01*
X3Y943D02*
X9Y943D01*
X3Y942D02*
X9Y942D01*
X3Y941D02*
X9Y941D01*
X3Y940D02*
X9Y940D01*
X3Y939D02*
X9Y939D01*
X3Y938D02*
X9Y938D01*
X3Y937D02*
X9Y937D01*
X3Y936D02*
X9Y936D01*
X3Y935D02*
X9Y935D01*
X3Y934D02*
X9Y934D01*
X3Y933D02*
X9Y933D01*
X3Y932D02*
X9Y932D01*
X3Y931D02*
X9Y931D01*
X3Y930D02*
X9Y930D01*
X3Y929D02*
X9Y929D01*
X3Y928D02*
X9Y928D01*
X3Y927D02*
X9Y927D01*
X3Y926D02*
X9Y926D01*
X3Y925D02*
X9Y925D01*
X3Y924D02*
X9Y924D01*
X3Y923D02*
X9Y923D01*
X3Y922D02*
X9Y922D01*
X3Y921D02*
X9Y921D01*
X3Y920D02*
X9Y920D01*
X3Y919D02*
X9Y919D01*
X3Y918D02*
X9Y918D01*
X3Y917D02*
X9Y917D01*
X3Y916D02*
X9Y916D01*
X3Y915D02*
X9Y915D01*
X3Y914D02*
X9Y914D01*
X3Y913D02*
X9Y913D01*
X3Y912D02*
X9Y912D01*
X3Y911D02*
X9Y911D01*
X3Y910D02*
X9Y910D01*
X3Y909D02*
X9Y909D01*
X3Y908D02*
X9Y908D01*
X3Y907D02*
X9Y907D01*
X3Y906D02*
X9Y906D01*
X3Y905D02*
X9Y905D01*
X3Y904D02*
X9Y904D01*
X3Y903D02*
X9Y903D01*
X3Y902D02*
X9Y902D01*
X3Y901D02*
X9Y901D01*
X3Y900D02*
X9Y900D01*
X3Y899D02*
X9Y899D01*
X3Y898D02*
X9Y898D01*
X3Y897D02*
X9Y897D01*
X3Y896D02*
X9Y896D01*
X3Y895D02*
X9Y895D01*
X3Y894D02*
X9Y894D01*
X3Y893D02*
X9Y893D01*
X3Y892D02*
X9Y892D01*
X3Y891D02*
X9Y891D01*
X3Y890D02*
X9Y890D01*
X3Y889D02*
X9Y889D01*
X3Y888D02*
X9Y888D01*
X3Y887D02*
X9Y887D01*
X3Y886D02*
X9Y886D01*
X3Y885D02*
X9Y885D01*
X3Y884D02*
X9Y884D01*
X3Y883D02*
X9Y883D01*
X3Y882D02*
X9Y882D01*
X3Y881D02*
X9Y881D01*
X3Y880D02*
X9Y880D01*
X3Y879D02*
X9Y879D01*
X3Y878D02*
X9Y878D01*
X3Y877D02*
X9Y877D01*
X3Y876D02*
X9Y876D01*
X3Y875D02*
X9Y875D01*
X3Y874D02*
X9Y874D01*
X3Y873D02*
X9Y873D01*
X3Y872D02*
X9Y872D01*
X3Y871D02*
X9Y871D01*
X3Y870D02*
X9Y870D01*
X3Y869D02*
X9Y869D01*
X3Y868D02*
X9Y868D01*
X3Y867D02*
X9Y867D01*
X3Y866D02*
X9Y866D01*
X3Y865D02*
X9Y865D01*
X3Y864D02*
X9Y864D01*
X3Y863D02*
X9Y863D01*
X3Y862D02*
X9Y862D01*
X3Y861D02*
X9Y861D01*
X3Y860D02*
X9Y860D01*
X3Y859D02*
X9Y859D01*
X3Y858D02*
X9Y858D01*
X3Y857D02*
X9Y857D01*
X3Y856D02*
X9Y856D01*
X3Y855D02*
X9Y855D01*
X3Y854D02*
X9Y854D01*
X3Y853D02*
X9Y853D01*
X3Y852D02*
X9Y852D01*
X3Y851D02*
X9Y851D01*
X3Y850D02*
X9Y850D01*
X3Y849D02*
X9Y849D01*
X3Y848D02*
X9Y848D01*
X3Y847D02*
X9Y847D01*
X3Y846D02*
X9Y846D01*
X3Y845D02*
X9Y845D01*
X3Y844D02*
X9Y844D01*
X3Y843D02*
X9Y843D01*
X3Y842D02*
X9Y842D01*
X3Y841D02*
X9Y841D01*
X3Y840D02*
X9Y840D01*
X3Y839D02*
X9Y839D01*
X3Y838D02*
X9Y838D01*
X3Y837D02*
X9Y837D01*
X3Y836D02*
X9Y836D01*
X3Y835D02*
X9Y835D01*
X3Y834D02*
X9Y834D01*
X3Y833D02*
X9Y833D01*
X3Y832D02*
X9Y832D01*
X3Y831D02*
X9Y831D01*
X3Y830D02*
X9Y830D01*
X3Y829D02*
X9Y829D01*
X3Y828D02*
X9Y828D01*
X3Y827D02*
X9Y827D01*
X3Y826D02*
X9Y826D01*
X3Y825D02*
X9Y825D01*
X3Y824D02*
X9Y824D01*
X3Y823D02*
X9Y823D01*
X3Y822D02*
X9Y822D01*
X3Y821D02*
X9Y821D01*
X3Y820D02*
X9Y820D01*
X3Y819D02*
X9Y819D01*
X3Y818D02*
X9Y818D01*
X3Y817D02*
X9Y817D01*
X3Y816D02*
X9Y816D01*
X3Y815D02*
X9Y815D01*
X3Y814D02*
X9Y814D01*
X3Y813D02*
X9Y813D01*
X3Y812D02*
X9Y812D01*
X3Y811D02*
X9Y811D01*
X3Y810D02*
X9Y810D01*
X3Y809D02*
X9Y809D01*
X3Y808D02*
X9Y808D01*
X3Y807D02*
X9Y807D01*
X3Y806D02*
X9Y806D01*
X3Y805D02*
X9Y805D01*
X3Y804D02*
X9Y804D01*
X3Y803D02*
X9Y803D01*
X3Y802D02*
X9Y802D01*
X3Y801D02*
X9Y801D01*
X3Y800D02*
X9Y800D01*
X3Y799D02*
X9Y799D01*
X3Y798D02*
X9Y798D01*
X3Y797D02*
X9Y797D01*
X3Y796D02*
X9Y796D01*
X3Y795D02*
X9Y795D01*
X3Y794D02*
X9Y794D01*
X3Y793D02*
X9Y793D01*
X3Y792D02*
X9Y792D01*
X3Y791D02*
X9Y791D01*
X3Y790D02*
X9Y790D01*
X3Y789D02*
X9Y789D01*
X3Y788D02*
X9Y788D01*
X3Y787D02*
X9Y787D01*
X3Y786D02*
X9Y786D01*
X3Y785D02*
X9Y785D01*
X3Y784D02*
X9Y784D01*
X3Y783D02*
X9Y783D01*
X3Y782D02*
X9Y782D01*
X3Y781D02*
X9Y781D01*
X3Y780D02*
X9Y780D01*
X3Y779D02*
X9Y779D01*
X3Y778D02*
X9Y778D01*
X3Y777D02*
X9Y777D01*
X3Y776D02*
X9Y776D01*
X3Y775D02*
X9Y775D01*
X3Y774D02*
X9Y774D01*
X3Y773D02*
X9Y773D01*
X3Y772D02*
X9Y772D01*
X3Y771D02*
X9Y771D01*
X3Y770D02*
X9Y770D01*
X3Y769D02*
X9Y769D01*
X3Y768D02*
X9Y768D01*
X3Y767D02*
X9Y767D01*
X3Y766D02*
X9Y766D01*
X3Y765D02*
X9Y765D01*
X3Y764D02*
X9Y764D01*
X3Y763D02*
X9Y763D01*
X3Y762D02*
X9Y762D01*
X3Y761D02*
X9Y761D01*
X3Y760D02*
X9Y760D01*
X3Y759D02*
X9Y759D01*
X3Y758D02*
X9Y758D01*
X3Y757D02*
X9Y757D01*
X3Y756D02*
X9Y756D01*
X3Y755D02*
X9Y755D01*
X3Y754D02*
X9Y754D01*
X3Y753D02*
X9Y753D01*
X3Y752D02*
X9Y752D01*
X3Y751D02*
X9Y751D01*
X3Y750D02*
X9Y750D01*
X3Y749D02*
X9Y749D01*
X3Y748D02*
X9Y748D01*
X3Y747D02*
X9Y747D01*
X3Y746D02*
X9Y746D01*
X3Y745D02*
X9Y745D01*
X3Y744D02*
X9Y744D01*
X3Y743D02*
X9Y743D01*
X3Y742D02*
X9Y742D01*
X3Y741D02*
X9Y741D01*
X3Y740D02*
X9Y740D01*
X3Y739D02*
X9Y739D01*
X3Y738D02*
X9Y738D01*
X3Y737D02*
X9Y737D01*
X3Y736D02*
X9Y736D01*
X3Y735D02*
X9Y735D01*
X3Y734D02*
X9Y734D01*
X3Y733D02*
X9Y733D01*
X3Y732D02*
X9Y732D01*
X3Y731D02*
X9Y731D01*
X3Y730D02*
X9Y730D01*
X3Y729D02*
X9Y729D01*
X3Y728D02*
X9Y728D01*
X3Y727D02*
X9Y727D01*
X3Y726D02*
X9Y726D01*
X3Y725D02*
X9Y725D01*
X3Y724D02*
X9Y724D01*
X3Y723D02*
X9Y723D01*
X3Y722D02*
X9Y722D01*
X3Y721D02*
X9Y721D01*
X3Y720D02*
X9Y720D01*
X3Y719D02*
X9Y719D01*
X3Y718D02*
X9Y718D01*
X3Y717D02*
X9Y717D01*
X3Y716D02*
X9Y716D01*
X3Y715D02*
X9Y715D01*
X3Y714D02*
X9Y714D01*
X3Y713D02*
X9Y713D01*
X3Y712D02*
X9Y712D01*
X3Y711D02*
X9Y711D01*
X3Y710D02*
X9Y710D01*
X3Y709D02*
X9Y709D01*
X3Y708D02*
X9Y708D01*
X3Y707D02*
X9Y707D01*
X3Y706D02*
X9Y706D01*
X3Y705D02*
X9Y705D01*
X3Y704D02*
X9Y704D01*
X3Y703D02*
X9Y703D01*
X3Y702D02*
X9Y702D01*
X3Y701D02*
X9Y701D01*
X3Y700D02*
X9Y700D01*
X3Y699D02*
X9Y699D01*
X3Y698D02*
X9Y698D01*
X3Y697D02*
X9Y697D01*
X3Y696D02*
X9Y696D01*
X3Y695D02*
X9Y695D01*
X3Y694D02*
X9Y694D01*
X3Y693D02*
X9Y693D01*
X3Y692D02*
X9Y692D01*
X3Y691D02*
X9Y691D01*
X3Y690D02*
X9Y690D01*
X3Y689D02*
X9Y689D01*
X3Y688D02*
X9Y688D01*
X3Y687D02*
X9Y687D01*
X3Y686D02*
X9Y686D01*
X3Y685D02*
X9Y685D01*
X3Y684D02*
X9Y684D01*
X3Y683D02*
X9Y683D01*
X3Y682D02*
X9Y682D01*
X3Y681D02*
X9Y681D01*
X3Y680D02*
X9Y680D01*
X3Y679D02*
X9Y679D01*
X3Y678D02*
X9Y678D01*
X3Y677D02*
X9Y677D01*
X3Y676D02*
X9Y676D01*
X3Y675D02*
X9Y675D01*
X50Y675D02*
X161Y675D01*
X188Y675D02*
X261Y675D01*
X288Y675D02*
X361Y675D01*
X388Y675D02*
X461Y675D01*
X488Y675D02*
X650Y675D01*
X1326Y675D02*
X1442Y675D01*
X1464Y675D02*
X1542Y675D01*
X1564Y675D02*
X1642Y675D01*
X1664Y675D02*
X1742Y675D01*
X1764Y675D02*
X1930Y675D01*
X3Y674D02*
X9Y674D01*
X47Y674D02*
X165Y674D01*
X185Y674D02*
X265Y674D01*
X285Y674D02*
X365Y674D01*
X385Y674D02*
X465Y674D01*
X485Y674D02*
X652Y674D01*
X1325Y674D02*
X1447Y674D01*
X1459Y674D02*
X1547Y674D01*
X1559Y674D02*
X1647Y674D01*
X1659Y674D02*
X1747Y674D01*
X1759Y674D02*
X1930Y674D01*
X2616Y674D02*
X2730Y674D01*
X2755Y674D02*
X2830Y674D01*
X2855Y674D02*
X2930Y674D01*
X2955Y674D02*
X3030Y674D01*
X3055Y674D02*
X3219Y674D01*
X3Y673D02*
X9Y673D01*
X47Y673D02*
X171Y673D01*
X178Y673D02*
X271Y673D01*
X278Y673D02*
X371Y673D01*
X378Y673D02*
X471Y673D01*
X478Y673D02*
X653Y673D01*
X1325Y673D02*
X1931Y673D01*
X2615Y673D02*
X2734Y673D01*
X2751Y673D02*
X2834Y673D01*
X2851Y673D02*
X2934Y673D01*
X2951Y673D02*
X3034Y673D01*
X3051Y673D02*
X3220Y673D01*
X3Y672D02*
X9Y672D01*
X46Y672D02*
X653Y672D01*
X1324Y672D02*
X1931Y672D01*
X2614Y672D02*
X3221Y672D01*
X3Y671D02*
X9Y671D01*
X46Y671D02*
X653Y671D01*
X1324Y671D02*
X1931Y671D01*
X2614Y671D02*
X3221Y671D01*
X3Y670D02*
X9Y670D01*
X46Y670D02*
X653Y670D01*
X1325Y670D02*
X1931Y670D01*
X2614Y670D02*
X3221Y670D01*
X3Y669D02*
X9Y669D01*
X47Y669D02*
X652Y669D01*
X1326Y669D02*
X1930Y669D01*
X2614Y669D02*
X3221Y669D01*
X3Y668D02*
X9Y668D01*
X48Y668D02*
X652Y668D01*
X1327Y668D02*
X1928Y668D01*
X2615Y668D02*
X3220Y668D01*
X3Y667D02*
X9Y667D01*
X2616Y667D02*
X3219Y667D01*
X3Y666D02*
X9Y666D01*
X3Y665D02*
X9Y665D01*
X3Y664D02*
X9Y664D01*
X3Y663D02*
X9Y663D01*
X3Y662D02*
X9Y662D01*
X3Y661D02*
X9Y661D01*
X3Y660D02*
X9Y660D01*
X3Y659D02*
X9Y659D01*
X3Y658D02*
X9Y658D01*
X3Y657D02*
X9Y657D01*
X3Y656D02*
X9Y656D01*
X3Y655D02*
X9Y655D01*
X3Y654D02*
X9Y654D01*
X3Y653D02*
X9Y653D01*
X3Y652D02*
X9Y652D01*
X3Y651D02*
X9Y651D01*
X3Y650D02*
X9Y650D01*
X3Y649D02*
X9Y649D01*
X3Y648D02*
X9Y648D01*
X3Y647D02*
X9Y647D01*
X3Y646D02*
X9Y646D01*
X3Y645D02*
X9Y645D01*
X3Y644D02*
X9Y644D01*
X3Y643D02*
X9Y643D01*
X3Y642D02*
X9Y642D01*
X610Y642D02*
X610Y642D01*
X638Y642D02*
X638Y642D01*
X3Y641D02*
X9Y641D01*
X608Y641D02*
X612Y641D01*
X636Y641D02*
X640Y641D01*
X1890Y641D02*
X1908Y641D01*
X3Y640D02*
X9Y640D01*
X607Y640D02*
X613Y640D01*
X635Y640D02*
X640Y640D01*
X1889Y640D02*
X1910Y640D01*
X3Y639D02*
X9Y639D01*
X607Y639D02*
X613Y639D01*
X635Y639D02*
X641Y639D01*
X1889Y639D02*
X1911Y639D01*
X3Y638D02*
X9Y638D01*
X607Y638D02*
X613Y638D01*
X634Y638D02*
X641Y638D01*
X1888Y638D02*
X1912Y638D01*
X3Y637D02*
X9Y637D01*
X607Y637D02*
X614Y637D01*
X634Y637D02*
X640Y637D01*
X1889Y637D02*
X1912Y637D01*
X3Y636D02*
X9Y636D01*
X608Y636D02*
X614Y636D01*
X634Y636D02*
X640Y636D01*
X1889Y636D02*
X1913Y636D01*
X3174Y636D02*
X3206Y636D01*
X3Y635D02*
X9Y635D01*
X608Y635D02*
X614Y635D01*
X633Y635D02*
X640Y635D01*
X1891Y635D02*
X1914Y635D01*
X3173Y635D02*
X3206Y635D01*
X3Y634D02*
X9Y634D01*
X608Y634D02*
X615Y634D01*
X633Y634D02*
X640Y634D01*
X1907Y634D02*
X1914Y634D01*
X3173Y634D02*
X3206Y634D01*
X3Y633D02*
X9Y633D01*
X609Y633D02*
X615Y633D01*
X633Y633D02*
X639Y633D01*
X1908Y633D02*
X1915Y633D01*
X3173Y633D02*
X3206Y633D01*
X3Y632D02*
X9Y632D01*
X609Y632D02*
X615Y632D01*
X633Y632D02*
X639Y632D01*
X1908Y632D02*
X1915Y632D01*
X3173Y632D02*
X3206Y632D01*
X3Y631D02*
X9Y631D01*
X609Y631D02*
X615Y631D01*
X632Y631D02*
X639Y631D01*
X1909Y631D02*
X1916Y631D01*
X3173Y631D02*
X3206Y631D01*
X3Y630D02*
X9Y630D01*
X609Y630D02*
X638Y630D01*
X1909Y630D02*
X1916Y630D01*
X1976Y630D02*
X2087Y630D01*
X2115Y630D02*
X2187Y630D01*
X2215Y630D02*
X2287Y630D01*
X2315Y630D02*
X2387Y630D01*
X2415Y630D02*
X2576Y630D01*
X3175Y630D02*
X3206Y630D01*
X3Y629D02*
X9Y629D01*
X610Y629D02*
X638Y629D01*
X1910Y629D02*
X1917Y629D01*
X1974Y629D02*
X2091Y629D01*
X2111Y629D02*
X2191Y629D01*
X2211Y629D02*
X2291Y629D01*
X2311Y629D02*
X2391Y629D01*
X2411Y629D02*
X2578Y629D01*
X3200Y629D02*
X3206Y629D01*
X3Y628D02*
X9Y628D01*
X610Y628D02*
X638Y628D01*
X690Y628D02*
X801Y628D01*
X829Y628D02*
X901Y628D01*
X929Y628D02*
X1001Y628D01*
X1029Y628D02*
X1101Y628D01*
X1129Y628D02*
X1289Y628D01*
X1910Y628D02*
X1917Y628D01*
X1973Y628D02*
X2098Y628D01*
X2104Y628D02*
X2198Y628D01*
X2204Y628D02*
X2298Y628D01*
X2304Y628D02*
X2398Y628D01*
X2404Y628D02*
X2579Y628D01*
X3200Y628D02*
X3206Y628D01*
X3260Y628D02*
X3371Y628D01*
X3399Y628D02*
X3471Y628D01*
X3499Y628D02*
X3571Y628D01*
X3599Y628D02*
X3671Y628D01*
X3699Y628D02*
X3859Y628D01*
X3Y627D02*
X9Y627D01*
X610Y627D02*
X637Y627D01*
X688Y627D02*
X804Y627D01*
X825Y627D02*
X904Y627D01*
X925Y627D02*
X1004Y627D01*
X1025Y627D02*
X1104Y627D01*
X1125Y627D02*
X1292Y627D01*
X1911Y627D02*
X1918Y627D01*
X1973Y627D02*
X2579Y627D01*
X3200Y627D02*
X3206Y627D01*
X3258Y627D02*
X3374Y627D01*
X3395Y627D02*
X3474Y627D01*
X3495Y627D02*
X3574Y627D01*
X3595Y627D02*
X3674Y627D01*
X3695Y627D02*
X3862Y627D01*
X3Y626D02*
X9Y626D01*
X611Y626D02*
X637Y626D01*
X687Y626D02*
X810Y626D01*
X820Y626D02*
X910Y626D01*
X920Y626D02*
X1010Y626D01*
X1020Y626D02*
X1110Y626D01*
X1120Y626D02*
X1293Y626D01*
X1911Y626D02*
X1918Y626D01*
X1973Y626D02*
X2579Y626D01*
X3200Y626D02*
X3206Y626D01*
X3257Y626D02*
X3380Y626D01*
X3390Y626D02*
X3480Y626D01*
X3490Y626D02*
X3580Y626D01*
X3590Y626D02*
X3680Y626D01*
X3690Y626D02*
X3863Y626D01*
X3Y625D02*
X9Y625D01*
X611Y625D02*
X637Y625D01*
X686Y625D02*
X1293Y625D01*
X1912Y625D02*
X1919Y625D01*
X1973Y625D02*
X2579Y625D01*
X3200Y625D02*
X3206Y625D01*
X3256Y625D02*
X3863Y625D01*
X3Y624D02*
X9Y624D01*
X611Y624D02*
X637Y624D01*
X686Y624D02*
X1293Y624D01*
X1912Y624D02*
X1919Y624D01*
X1973Y624D02*
X2579Y624D01*
X3200Y624D02*
X3206Y624D01*
X3256Y624D02*
X3863Y624D01*
X3Y623D02*
X9Y623D01*
X612Y623D02*
X618Y623D01*
X630Y623D02*
X636Y623D01*
X686Y623D02*
X1293Y623D01*
X1913Y623D02*
X1920Y623D01*
X1974Y623D02*
X2578Y623D01*
X3200Y623D02*
X3206Y623D01*
X3256Y623D02*
X3863Y623D01*
X3Y622D02*
X9Y622D01*
X612Y622D02*
X618Y622D01*
X630Y622D02*
X636Y622D01*
X687Y622D02*
X1293Y622D01*
X1913Y622D02*
X1920Y622D01*
X3200Y622D02*
X3206Y622D01*
X3257Y622D02*
X3863Y622D01*
X3Y621D02*
X9Y621D01*
X612Y621D02*
X618Y621D01*
X629Y621D02*
X636Y621D01*
X688Y621D02*
X1292Y621D01*
X1914Y621D02*
X1921Y621D01*
X3200Y621D02*
X3206Y621D01*
X3258Y621D02*
X3862Y621D01*
X3Y620D02*
X9Y620D01*
X612Y620D02*
X619Y620D01*
X629Y620D02*
X635Y620D01*
X1914Y620D02*
X1921Y620D01*
X3200Y620D02*
X3206Y620D01*
X3Y619D02*
X9Y619D01*
X613Y619D02*
X619Y619D01*
X629Y619D02*
X635Y619D01*
X1915Y619D02*
X1921Y619D01*
X3200Y619D02*
X3206Y619D01*
X3Y618D02*
X9Y618D01*
X613Y618D02*
X619Y618D01*
X628Y618D02*
X635Y618D01*
X1915Y618D02*
X1922Y618D01*
X3200Y618D02*
X3206Y618D01*
X3Y617D02*
X9Y617D01*
X613Y617D02*
X620Y617D01*
X628Y617D02*
X635Y617D01*
X1916Y617D02*
X1922Y617D01*
X3200Y617D02*
X3206Y617D01*
X3Y616D02*
X9Y616D01*
X614Y616D02*
X620Y616D01*
X628Y616D02*
X634Y616D01*
X1916Y616D02*
X1922Y616D01*
X3200Y616D02*
X3206Y616D01*
X3Y615D02*
X9Y615D01*
X614Y615D02*
X620Y615D01*
X628Y615D02*
X634Y615D01*
X1916Y615D02*
X1922Y615D01*
X3200Y615D02*
X3206Y615D01*
X3Y614D02*
X9Y614D01*
X614Y614D02*
X620Y614D01*
X627Y614D02*
X634Y614D01*
X1916Y614D02*
X1922Y614D01*
X3200Y614D02*
X3206Y614D01*
X3Y613D02*
X9Y613D01*
X614Y613D02*
X621Y613D01*
X627Y613D02*
X633Y613D01*
X1916Y613D02*
X1922Y613D01*
X3189Y613D02*
X3206Y613D01*
X3Y612D02*
X9Y612D01*
X615Y612D02*
X621Y612D01*
X627Y612D02*
X633Y612D01*
X1915Y612D02*
X1922Y612D01*
X3187Y612D02*
X3206Y612D01*
X3Y611D02*
X9Y611D01*
X615Y611D02*
X621Y611D01*
X626Y611D02*
X633Y611D01*
X1915Y611D02*
X1922Y611D01*
X3187Y611D02*
X3206Y611D01*
X3Y610D02*
X9Y610D01*
X615Y610D02*
X622Y610D01*
X626Y610D02*
X632Y610D01*
X1915Y610D02*
X1921Y610D01*
X3186Y610D02*
X3206Y610D01*
X3Y609D02*
X9Y609D01*
X616Y609D02*
X622Y609D01*
X626Y609D02*
X632Y609D01*
X1914Y609D02*
X1921Y609D01*
X3187Y609D02*
X3206Y609D01*
X3Y608D02*
X9Y608D01*
X616Y608D02*
X622Y608D01*
X626Y608D02*
X632Y608D01*
X1914Y608D02*
X1920Y608D01*
X3187Y608D02*
X3206Y608D01*
X3Y607D02*
X9Y607D01*
X616Y607D02*
X623Y607D01*
X625Y607D02*
X632Y607D01*
X1913Y607D02*
X1920Y607D01*
X3188Y607D02*
X3206Y607D01*
X3Y606D02*
X9Y606D01*
X616Y606D02*
X623Y606D01*
X625Y606D02*
X631Y606D01*
X1913Y606D02*
X1920Y606D01*
X3200Y606D02*
X3206Y606D01*
X3Y605D02*
X9Y605D01*
X617Y605D02*
X623Y605D01*
X625Y605D02*
X631Y605D01*
X1912Y605D02*
X1919Y605D01*
X3200Y605D02*
X3206Y605D01*
X3Y604D02*
X9Y604D01*
X617Y604D02*
X631Y604D01*
X1912Y604D02*
X1919Y604D01*
X3200Y604D02*
X3206Y604D01*
X3Y603D02*
X9Y603D01*
X617Y603D02*
X630Y603D01*
X1911Y603D02*
X1918Y603D01*
X3200Y603D02*
X3206Y603D01*
X3Y602D02*
X9Y602D01*
X618Y602D02*
X630Y602D01*
X1911Y602D02*
X1918Y602D01*
X3200Y602D02*
X3206Y602D01*
X3Y601D02*
X9Y601D01*
X618Y601D02*
X630Y601D01*
X1910Y601D02*
X1917Y601D01*
X3200Y601D02*
X3206Y601D01*
X3Y600D02*
X9Y600D01*
X618Y600D02*
X630Y600D01*
X1910Y600D02*
X1917Y600D01*
X3200Y600D02*
X3206Y600D01*
X3Y599D02*
X9Y599D01*
X619Y599D02*
X629Y599D01*
X1909Y599D02*
X1916Y599D01*
X3200Y599D02*
X3206Y599D01*
X3Y598D02*
X9Y598D01*
X619Y598D02*
X629Y598D01*
X1909Y598D02*
X1916Y598D01*
X3200Y598D02*
X3206Y598D01*
X3Y597D02*
X9Y597D01*
X619Y597D02*
X629Y597D01*
X1908Y597D02*
X1915Y597D01*
X3200Y597D02*
X3206Y597D01*
X3Y596D02*
X9Y596D01*
X619Y596D02*
X628Y596D01*
X1908Y596D02*
X1915Y596D01*
X3200Y596D02*
X3206Y596D01*
X3Y595D02*
X9Y595D01*
X620Y595D02*
X628Y595D01*
X1906Y595D02*
X1914Y595D01*
X3200Y595D02*
X3206Y595D01*
X3Y594D02*
X9Y594D01*
X620Y594D02*
X628Y594D01*
X1263Y594D02*
X1288Y594D01*
X1890Y594D02*
X1914Y594D01*
X3200Y594D02*
X3206Y594D01*
X3Y593D02*
X9Y593D01*
X620Y593D02*
X627Y593D01*
X1261Y593D02*
X1288Y593D01*
X1889Y593D02*
X1913Y593D01*
X3200Y593D02*
X3206Y593D01*
X3Y592D02*
X9Y592D01*
X621Y592D02*
X627Y592D01*
X1260Y592D02*
X1288Y592D01*
X1889Y592D02*
X1912Y592D01*
X3200Y592D02*
X3206Y592D01*
X3Y591D02*
X9Y591D01*
X621Y591D02*
X627Y591D01*
X1259Y591D02*
X1288Y591D01*
X1888Y591D02*
X1912Y591D01*
X2549Y591D02*
X2567Y591D01*
X3200Y591D02*
X3206Y591D01*
X3Y590D02*
X9Y590D01*
X621Y590D02*
X627Y590D01*
X1258Y590D02*
X1288Y590D01*
X1889Y590D02*
X1910Y590D01*
X2547Y590D02*
X2568Y590D01*
X3200Y590D02*
X3206Y590D01*
X3847Y590D02*
X3848Y590D01*
X3Y589D02*
X9Y589D01*
X622Y589D02*
X626Y589D01*
X1257Y589D02*
X1288Y589D01*
X1889Y589D02*
X1909Y589D01*
X2546Y589D02*
X2568Y589D01*
X3174Y589D02*
X3206Y589D01*
X3845Y589D02*
X3849Y589D01*
X3Y588D02*
X9Y588D01*
X1256Y588D02*
X1288Y588D01*
X1890Y588D02*
X1906Y588D01*
X2545Y588D02*
X2568Y588D01*
X3173Y588D02*
X3206Y588D01*
X3845Y588D02*
X3850Y588D01*
X3Y587D02*
X9Y587D01*
X1256Y587D02*
X1264Y587D01*
X1282Y587D02*
X1288Y587D01*
X2544Y587D02*
X2568Y587D01*
X3173Y587D02*
X3206Y587D01*
X3844Y587D02*
X3850Y587D01*
X3Y586D02*
X9Y586D01*
X1255Y586D02*
X1263Y586D01*
X1282Y586D02*
X1288Y586D01*
X2543Y586D02*
X2567Y586D01*
X3173Y586D02*
X3206Y586D01*
X3844Y586D02*
X3850Y586D01*
X3Y585D02*
X9Y585D01*
X1255Y585D02*
X1262Y585D01*
X1282Y585D02*
X1288Y585D01*
X2543Y585D02*
X2566Y585D01*
X3173Y585D02*
X3206Y585D01*
X3844Y585D02*
X3850Y585D01*
X3Y584D02*
X9Y584D01*
X1255Y584D02*
X1261Y584D01*
X1282Y584D02*
X1288Y584D01*
X2542Y584D02*
X2550Y584D01*
X2555Y584D02*
X2561Y584D01*
X3173Y584D02*
X3206Y584D01*
X3844Y584D02*
X3850Y584D01*
X3Y583D02*
X9Y583D01*
X1254Y583D02*
X1261Y583D01*
X1282Y583D02*
X1288Y583D01*
X2542Y583D02*
X2549Y583D01*
X2555Y583D02*
X2561Y583D01*
X3175Y583D02*
X3206Y583D01*
X3844Y583D02*
X3850Y583D01*
X3Y582D02*
X9Y582D01*
X1254Y582D02*
X1260Y582D01*
X1282Y582D02*
X1288Y582D01*
X2541Y582D02*
X2548Y582D01*
X2555Y582D02*
X2561Y582D01*
X3844Y582D02*
X3850Y582D01*
X3Y581D02*
X9Y581D01*
X1254Y581D02*
X1260Y581D01*
X1282Y581D02*
X1288Y581D01*
X2541Y581D02*
X2548Y581D01*
X2555Y581D02*
X2561Y581D01*
X3844Y581D02*
X3850Y581D01*
X3Y580D02*
X9Y580D01*
X1254Y580D02*
X1260Y580D01*
X1282Y580D02*
X1288Y580D01*
X2540Y580D02*
X2547Y580D01*
X2555Y580D02*
X2561Y580D01*
X3844Y580D02*
X3850Y580D01*
X3Y579D02*
X9Y579D01*
X1254Y579D02*
X1260Y579D01*
X1282Y579D02*
X1288Y579D01*
X2540Y579D02*
X2547Y579D01*
X2555Y579D02*
X2561Y579D01*
X3844Y579D02*
X3850Y579D01*
X3Y578D02*
X9Y578D01*
X1254Y578D02*
X1260Y578D01*
X1282Y578D02*
X1288Y578D01*
X2539Y578D02*
X2546Y578D01*
X2555Y578D02*
X2561Y578D01*
X3844Y578D02*
X3850Y578D01*
X3Y577D02*
X9Y577D01*
X1254Y577D02*
X1260Y577D01*
X1282Y577D02*
X1288Y577D01*
X2539Y577D02*
X2546Y577D01*
X2555Y577D02*
X2561Y577D01*
X3844Y577D02*
X3850Y577D01*
X3Y576D02*
X9Y576D01*
X1254Y576D02*
X1261Y576D01*
X1282Y576D02*
X1288Y576D01*
X2538Y576D02*
X2545Y576D01*
X2555Y576D02*
X2561Y576D01*
X3844Y576D02*
X3850Y576D01*
X3Y575D02*
X9Y575D01*
X1255Y575D02*
X1261Y575D01*
X1282Y575D02*
X1288Y575D01*
X2538Y575D02*
X2545Y575D01*
X2555Y575D02*
X2561Y575D01*
X3844Y575D02*
X3850Y575D01*
X3Y574D02*
X9Y574D01*
X1255Y574D02*
X1262Y574D01*
X1282Y574D02*
X1288Y574D01*
X2537Y574D02*
X2544Y574D01*
X2555Y574D02*
X2561Y574D01*
X3844Y574D02*
X3850Y574D01*
X3Y573D02*
X9Y573D01*
X1255Y573D02*
X1263Y573D01*
X1282Y573D02*
X1288Y573D01*
X2537Y573D02*
X2544Y573D01*
X2555Y573D02*
X2561Y573D01*
X3844Y573D02*
X3850Y573D01*
X3Y572D02*
X9Y572D01*
X1256Y572D02*
X1264Y572D01*
X1282Y572D02*
X1288Y572D01*
X2536Y572D02*
X2543Y572D01*
X2555Y572D02*
X2561Y572D01*
X3844Y572D02*
X3850Y572D01*
X3Y571D02*
X9Y571D01*
X1256Y571D02*
X1288Y571D01*
X2536Y571D02*
X2543Y571D01*
X2555Y571D02*
X2561Y571D01*
X3844Y571D02*
X3850Y571D01*
X3Y570D02*
X9Y570D01*
X1257Y570D02*
X1288Y570D01*
X2536Y570D02*
X2542Y570D01*
X2555Y570D02*
X2561Y570D01*
X3844Y570D02*
X3850Y570D01*
X3Y569D02*
X9Y569D01*
X1258Y569D02*
X1288Y569D01*
X2535Y569D02*
X2542Y569D01*
X2555Y569D02*
X2561Y569D01*
X3844Y569D02*
X3850Y569D01*
X3Y568D02*
X9Y568D01*
X1259Y568D02*
X1288Y568D01*
X2535Y568D02*
X2541Y568D01*
X2555Y568D02*
X2561Y568D01*
X3844Y568D02*
X3850Y568D01*
X3Y567D02*
X9Y567D01*
X1258Y567D02*
X1288Y567D01*
X2535Y567D02*
X2541Y567D01*
X2555Y567D02*
X2561Y567D01*
X3844Y567D02*
X3850Y567D01*
X3Y566D02*
X9Y566D01*
X1257Y566D02*
X1288Y566D01*
X2535Y566D02*
X2541Y566D01*
X2555Y566D02*
X2561Y566D01*
X3844Y566D02*
X3850Y566D01*
X3Y565D02*
X9Y565D01*
X1257Y565D02*
X1288Y565D01*
X2535Y565D02*
X2541Y565D01*
X2555Y565D02*
X2561Y565D01*
X3844Y565D02*
X3850Y565D01*
X3Y564D02*
X9Y564D01*
X1256Y564D02*
X1265Y564D01*
X1282Y564D02*
X1288Y564D01*
X2535Y564D02*
X2541Y564D01*
X2555Y564D02*
X2561Y564D01*
X3844Y564D02*
X3850Y564D01*
X3Y563D02*
X9Y563D01*
X1255Y563D02*
X1263Y563D01*
X1282Y563D02*
X1288Y563D01*
X2535Y563D02*
X2541Y563D01*
X2555Y563D02*
X2561Y563D01*
X3844Y563D02*
X3850Y563D01*
X3Y562D02*
X9Y562D01*
X1255Y562D02*
X1262Y562D01*
X1282Y562D02*
X1288Y562D01*
X2535Y562D02*
X2541Y562D01*
X2555Y562D02*
X2561Y562D01*
X3844Y562D02*
X3850Y562D01*
X3Y561D02*
X9Y561D01*
X1255Y561D02*
X1261Y561D01*
X1282Y561D02*
X1288Y561D01*
X2535Y561D02*
X2541Y561D01*
X2555Y561D02*
X2561Y561D01*
X3844Y561D02*
X3850Y561D01*
X3Y560D02*
X9Y560D01*
X1254Y560D02*
X1261Y560D01*
X1282Y560D02*
X1288Y560D01*
X2535Y560D02*
X2542Y560D01*
X2555Y560D02*
X2561Y560D01*
X3825Y560D02*
X3850Y560D01*
X3Y559D02*
X9Y559D01*
X1254Y559D02*
X1260Y559D01*
X1282Y559D02*
X1288Y559D01*
X2536Y559D02*
X2542Y559D01*
X2555Y559D02*
X2561Y559D01*
X3824Y559D02*
X3850Y559D01*
X3Y558D02*
X9Y558D01*
X1254Y558D02*
X1260Y558D01*
X1282Y558D02*
X1288Y558D01*
X2536Y558D02*
X2543Y558D01*
X2555Y558D02*
X2561Y558D01*
X3824Y558D02*
X3850Y558D01*
X3Y557D02*
X9Y557D01*
X1254Y557D02*
X1260Y557D01*
X1282Y557D02*
X1288Y557D01*
X2537Y557D02*
X2543Y557D01*
X2555Y557D02*
X2561Y557D01*
X3824Y557D02*
X3850Y557D01*
X3Y556D02*
X9Y556D01*
X1254Y556D02*
X1260Y556D01*
X1282Y556D02*
X1288Y556D01*
X2537Y556D02*
X2544Y556D01*
X2555Y556D02*
X2561Y556D01*
X3824Y556D02*
X3850Y556D01*
X3Y555D02*
X9Y555D01*
X1254Y555D02*
X1260Y555D01*
X1282Y555D02*
X1288Y555D01*
X2538Y555D02*
X2544Y555D01*
X2555Y555D02*
X2561Y555D01*
X3824Y555D02*
X3850Y555D01*
X3Y554D02*
X9Y554D01*
X1254Y554D02*
X1260Y554D01*
X1282Y554D02*
X1288Y554D01*
X2538Y554D02*
X2545Y554D01*
X2555Y554D02*
X2561Y554D01*
X3826Y554D02*
X3850Y554D01*
X3Y553D02*
X9Y553D01*
X1254Y553D02*
X1260Y553D01*
X1282Y553D02*
X1288Y553D01*
X2539Y553D02*
X2546Y553D01*
X2555Y553D02*
X2561Y553D01*
X3844Y553D02*
X3850Y553D01*
X3Y552D02*
X9Y552D01*
X812Y552D02*
X814Y552D01*
X1254Y552D02*
X1261Y552D01*
X1282Y552D02*
X1288Y552D01*
X2539Y552D02*
X2546Y552D01*
X2555Y552D02*
X2561Y552D01*
X3391Y552D02*
X3393Y552D01*
X3844Y552D02*
X3850Y552D01*
X3Y551D02*
X9Y551D01*
X811Y551D02*
X815Y551D01*
X1255Y551D02*
X1261Y551D01*
X1282Y551D02*
X1288Y551D01*
X2540Y551D02*
X2547Y551D01*
X2555Y551D02*
X2561Y551D01*
X3390Y551D02*
X3394Y551D01*
X3844Y551D02*
X3850Y551D01*
X3Y550D02*
X9Y550D01*
X810Y550D02*
X816Y550D01*
X1255Y550D02*
X1262Y550D01*
X1282Y550D02*
X1288Y550D01*
X2540Y550D02*
X2547Y550D01*
X2555Y550D02*
X2561Y550D01*
X3389Y550D02*
X3395Y550D01*
X3844Y550D02*
X3850Y550D01*
X3Y549D02*
X9Y549D01*
X810Y549D02*
X816Y549D01*
X1255Y549D02*
X1263Y549D01*
X1282Y549D02*
X1288Y549D01*
X2541Y549D02*
X2548Y549D01*
X2555Y549D02*
X2561Y549D01*
X3389Y549D02*
X3395Y549D01*
X3844Y549D02*
X3850Y549D01*
X3Y548D02*
X9Y548D01*
X810Y548D02*
X816Y548D01*
X1256Y548D02*
X1265Y548D01*
X1282Y548D02*
X1288Y548D01*
X2541Y548D02*
X2548Y548D01*
X2555Y548D02*
X2561Y548D01*
X3389Y548D02*
X3395Y548D01*
X3844Y548D02*
X3850Y548D01*
X3Y547D02*
X9Y547D01*
X810Y547D02*
X816Y547D01*
X1257Y547D02*
X1288Y547D01*
X2542Y547D02*
X2549Y547D01*
X2555Y547D02*
X2561Y547D01*
X3389Y547D02*
X3395Y547D01*
X3844Y547D02*
X3850Y547D01*
X3Y546D02*
X9Y546D01*
X810Y546D02*
X816Y546D01*
X1257Y546D02*
X1288Y546D01*
X2542Y546D02*
X2549Y546D01*
X2555Y546D02*
X2561Y546D01*
X3389Y546D02*
X3395Y546D01*
X3844Y546D02*
X3850Y546D01*
X3Y545D02*
X9Y545D01*
X810Y545D02*
X816Y545D01*
X1258Y545D02*
X1288Y545D01*
X2543Y545D02*
X2550Y545D01*
X2555Y545D02*
X2561Y545D01*
X3389Y545D02*
X3395Y545D01*
X3844Y545D02*
X3850Y545D01*
X3Y544D02*
X9Y544D01*
X810Y544D02*
X816Y544D01*
X1259Y544D02*
X1288Y544D01*
X2543Y544D02*
X2567Y544D01*
X3389Y544D02*
X3395Y544D01*
X3844Y544D02*
X3850Y544D01*
X3Y543D02*
X9Y543D01*
X810Y543D02*
X816Y543D01*
X1261Y543D02*
X1288Y543D01*
X2544Y543D02*
X2568Y543D01*
X3389Y543D02*
X3395Y543D01*
X3820Y543D02*
X3850Y543D01*
X3Y542D02*
X9Y542D01*
X810Y542D02*
X816Y542D01*
X1262Y542D02*
X1288Y542D01*
X2544Y542D02*
X2568Y542D01*
X3389Y542D02*
X3395Y542D01*
X3818Y542D02*
X3850Y542D01*
X3Y541D02*
X9Y541D01*
X810Y541D02*
X816Y541D01*
X1266Y541D02*
X1288Y541D01*
X2545Y541D02*
X2568Y541D01*
X3389Y541D02*
X3395Y541D01*
X3817Y541D02*
X3850Y541D01*
X3Y540D02*
X9Y540D01*
X810Y540D02*
X816Y540D01*
X2546Y540D02*
X2568Y540D01*
X3389Y540D02*
X3395Y540D01*
X3817Y540D02*
X3850Y540D01*
X3Y539D02*
X9Y539D01*
X810Y539D02*
X816Y539D01*
X2548Y539D02*
X2567Y539D01*
X3389Y539D02*
X3395Y539D01*
X3817Y539D02*
X3850Y539D01*
X3Y538D02*
X9Y538D01*
X798Y538D02*
X828Y538D01*
X2550Y538D02*
X2566Y538D01*
X3377Y538D02*
X3407Y538D01*
X3817Y538D02*
X3850Y538D01*
X3Y537D02*
X9Y537D01*
X797Y537D02*
X829Y537D01*
X3376Y537D02*
X3408Y537D01*
X3818Y537D02*
X3850Y537D01*
X3Y536D02*
X9Y536D01*
X797Y536D02*
X830Y536D01*
X3375Y536D02*
X3409Y536D01*
X3Y535D02*
X9Y535D01*
X796Y535D02*
X830Y535D01*
X3375Y535D02*
X3409Y535D01*
X3Y534D02*
X9Y534D01*
X797Y534D02*
X830Y534D01*
X3376Y534D02*
X3409Y534D01*
X3Y533D02*
X9Y533D01*
X797Y533D02*
X829Y533D01*
X3376Y533D02*
X3408Y533D01*
X3Y532D02*
X9Y532D01*
X798Y532D02*
X828Y532D01*
X3378Y532D02*
X3406Y532D01*
X3Y531D02*
X9Y531D01*
X810Y531D02*
X816Y531D01*
X3389Y531D02*
X3395Y531D01*
X3Y530D02*
X9Y530D01*
X810Y530D02*
X816Y530D01*
X3389Y530D02*
X3395Y530D01*
X3Y529D02*
X9Y529D01*
X810Y529D02*
X816Y529D01*
X3389Y529D02*
X3395Y529D01*
X3Y528D02*
X9Y528D01*
X810Y528D02*
X816Y528D01*
X3389Y528D02*
X3395Y528D01*
X3Y527D02*
X9Y527D01*
X810Y527D02*
X816Y527D01*
X3389Y527D02*
X3395Y527D01*
X3Y526D02*
X9Y526D01*
X810Y526D02*
X816Y526D01*
X3389Y526D02*
X3395Y526D01*
X3Y525D02*
X9Y525D01*
X810Y525D02*
X816Y525D01*
X3389Y525D02*
X3395Y525D01*
X3Y524D02*
X9Y524D01*
X810Y524D02*
X816Y524D01*
X3389Y524D02*
X3395Y524D01*
X3Y523D02*
X9Y523D01*
X810Y523D02*
X816Y523D01*
X3389Y523D02*
X3395Y523D01*
X3Y522D02*
X9Y522D01*
X810Y522D02*
X816Y522D01*
X2099Y522D02*
X2101Y522D01*
X3389Y522D02*
X3395Y522D01*
X3Y521D02*
X9Y521D01*
X810Y521D02*
X816Y521D01*
X2098Y521D02*
X2102Y521D01*
X3389Y521D02*
X3395Y521D01*
X3Y520D02*
X9Y520D01*
X810Y520D02*
X816Y520D01*
X2097Y520D02*
X2103Y520D01*
X3389Y520D02*
X3395Y520D01*
X3Y519D02*
X9Y519D01*
X811Y519D02*
X815Y519D01*
X2097Y519D02*
X2103Y519D01*
X3390Y519D02*
X3394Y519D01*
X3Y518D02*
X9Y518D01*
X812Y518D02*
X814Y518D01*
X2097Y518D02*
X2103Y518D01*
X3Y517D02*
X9Y517D01*
X2097Y517D02*
X2103Y517D01*
X3Y516D02*
X9Y516D01*
X2097Y516D02*
X2103Y516D01*
X3Y515D02*
X9Y515D01*
X2097Y515D02*
X2103Y515D01*
X3Y514D02*
X9Y514D01*
X2097Y514D02*
X2103Y514D01*
X3Y513D02*
X9Y513D01*
X2097Y513D02*
X2103Y513D01*
X3Y512D02*
X9Y512D01*
X2097Y512D02*
X2103Y512D01*
X3Y511D02*
X9Y511D01*
X2097Y511D02*
X2103Y511D01*
X3Y510D02*
X9Y510D01*
X2097Y510D02*
X2103Y510D01*
X3Y509D02*
X9Y509D01*
X2097Y509D02*
X2103Y509D01*
X3Y508D02*
X9Y508D01*
X2085Y508D02*
X2115Y508D01*
X3Y507D02*
X9Y507D01*
X2084Y507D02*
X2116Y507D01*
X3Y506D02*
X9Y506D01*
X2083Y506D02*
X2117Y506D01*
X3Y505D02*
X9Y505D01*
X2083Y505D02*
X2117Y505D01*
X3Y504D02*
X9Y504D01*
X2083Y504D02*
X2117Y504D01*
X3Y503D02*
X9Y503D01*
X2084Y503D02*
X2116Y503D01*
X3Y502D02*
X9Y502D01*
X2085Y502D02*
X2115Y502D01*
X3Y501D02*
X9Y501D01*
X2097Y501D02*
X2103Y501D01*
X3Y500D02*
X9Y500D01*
X2097Y500D02*
X2103Y500D01*
X3Y499D02*
X9Y499D01*
X2097Y499D02*
X2103Y499D01*
X3Y498D02*
X9Y498D01*
X2097Y498D02*
X2103Y498D01*
X3Y497D02*
X9Y497D01*
X2097Y497D02*
X2103Y497D01*
X3Y496D02*
X9Y496D01*
X2097Y496D02*
X2103Y496D01*
X3Y495D02*
X9Y495D01*
X2097Y495D02*
X2103Y495D01*
X3Y494D02*
X9Y494D01*
X2097Y494D02*
X2103Y494D01*
X3Y493D02*
X9Y493D01*
X2097Y493D02*
X2103Y493D01*
X3Y492D02*
X9Y492D01*
X2097Y492D02*
X2103Y492D01*
X3Y491D02*
X9Y491D01*
X2097Y491D02*
X2103Y491D01*
X3Y490D02*
X9Y490D01*
X2097Y490D02*
X2103Y490D01*
X3Y489D02*
X9Y489D01*
X2098Y489D02*
X2102Y489D01*
X3Y488D02*
X9Y488D01*
X2099Y488D02*
X2101Y488D01*
X3Y487D02*
X9Y487D01*
X3Y486D02*
X9Y486D01*
X3Y485D02*
X9Y485D01*
X3Y484D02*
X9Y484D01*
X3Y483D02*
X9Y483D01*
X3Y482D02*
X9Y482D01*
X3Y481D02*
X9Y481D01*
X3Y480D02*
X9Y480D01*
X3Y479D02*
X9Y479D01*
X3Y478D02*
X9Y478D01*
X3Y477D02*
X9Y477D01*
X3Y476D02*
X9Y476D01*
X3Y475D02*
X9Y475D01*
X3Y474D02*
X9Y474D01*
X3Y473D02*
X9Y473D01*
X3Y472D02*
X9Y472D01*
X3Y471D02*
X9Y471D01*
X3Y470D02*
X9Y470D01*
X3Y469D02*
X9Y469D01*
X3Y468D02*
X9Y468D01*
X3Y467D02*
X9Y467D01*
X3Y466D02*
X9Y466D01*
X3Y465D02*
X9Y465D01*
X3Y464D02*
X9Y464D01*
X3Y463D02*
X9Y463D01*
X3Y462D02*
X9Y462D01*
X3Y461D02*
X9Y461D01*
X3Y460D02*
X9Y460D01*
X3Y459D02*
X9Y459D01*
X3Y458D02*
X9Y458D01*
X3Y457D02*
X9Y457D01*
X3Y456D02*
X9Y456D01*
X3Y455D02*
X9Y455D01*
X3Y454D02*
X9Y454D01*
X3Y453D02*
X9Y453D01*
X291Y453D02*
X984Y453D01*
X2931Y453D02*
X3627Y453D01*
X3Y452D02*
X9Y452D01*
X286Y452D02*
X985Y452D01*
X2930Y452D02*
X3631Y452D01*
X3Y451D02*
X9Y451D01*
X283Y451D02*
X985Y451D01*
X2930Y451D02*
X3634Y451D01*
X3Y450D02*
X9Y450D01*
X281Y450D02*
X985Y450D01*
X2930Y450D02*
X3636Y450D01*
X3Y449D02*
X9Y449D01*
X279Y449D02*
X985Y449D01*
X2930Y449D02*
X3638Y449D01*
X3Y448D02*
X9Y448D01*
X278Y448D02*
X985Y448D01*
X2930Y448D02*
X3639Y448D01*
X3Y447D02*
X9Y447D01*
X276Y447D02*
X305Y447D01*
X907Y447D02*
X985Y447D01*
X2930Y447D02*
X3640Y447D01*
X3Y446D02*
X9Y446D01*
X275Y446D02*
X288Y446D01*
X979Y446D02*
X985Y446D01*
X2930Y446D02*
X2936Y446D01*
X3630Y446D02*
X3641Y446D01*
X3Y445D02*
X9Y445D01*
X274Y445D02*
X284Y445D01*
X979Y445D02*
X985Y445D01*
X2930Y445D02*
X2936Y445D01*
X3633Y445D02*
X3642Y445D01*
X3Y444D02*
X9Y444D01*
X273Y444D02*
X282Y444D01*
X979Y444D02*
X985Y444D01*
X2930Y444D02*
X2936Y444D01*
X3635Y444D02*
X3643Y444D01*
X3Y443D02*
X9Y443D01*
X272Y443D02*
X280Y443D01*
X979Y443D02*
X985Y443D01*
X2930Y443D02*
X2936Y443D01*
X3636Y443D02*
X3644Y443D01*
X3Y442D02*
X9Y442D01*
X271Y442D02*
X279Y442D01*
X979Y442D02*
X985Y442D01*
X2930Y442D02*
X2936Y442D01*
X3637Y442D02*
X3645Y442D01*
X3Y441D02*
X9Y441D01*
X270Y441D02*
X278Y441D01*
X979Y441D02*
X985Y441D01*
X2930Y441D02*
X2936Y441D01*
X3638Y441D02*
X3645Y441D01*
X3Y440D02*
X9Y440D01*
X269Y440D02*
X277Y440D01*
X979Y440D02*
X985Y440D01*
X2930Y440D02*
X2936Y440D01*
X3639Y440D02*
X3646Y440D01*
X3Y439D02*
X9Y439D01*
X269Y439D02*
X276Y439D01*
X979Y439D02*
X985Y439D01*
X2930Y439D02*
X2936Y439D01*
X3640Y439D02*
X3647Y439D01*
X3Y438D02*
X9Y438D01*
X268Y438D02*
X275Y438D01*
X979Y438D02*
X985Y438D01*
X2930Y438D02*
X2936Y438D01*
X3641Y438D02*
X3647Y438D01*
X3Y437D02*
X9Y437D01*
X268Y437D02*
X274Y437D01*
X979Y437D02*
X985Y437D01*
X2930Y437D02*
X2936Y437D01*
X3641Y437D02*
X3648Y437D01*
X3Y436D02*
X9Y436D01*
X267Y436D02*
X274Y436D01*
X979Y436D02*
X985Y436D01*
X2930Y436D02*
X2936Y436D01*
X3642Y436D02*
X3648Y436D01*
X3Y435D02*
X9Y435D01*
X267Y435D02*
X273Y435D01*
X979Y435D02*
X985Y435D01*
X2930Y435D02*
X2936Y435D01*
X3642Y435D02*
X3648Y435D01*
X3Y434D02*
X9Y434D01*
X266Y434D02*
X272Y434D01*
X979Y434D02*
X985Y434D01*
X2930Y434D02*
X2936Y434D01*
X3643Y434D02*
X3649Y434D01*
X3Y433D02*
X9Y433D01*
X266Y433D02*
X272Y433D01*
X979Y433D02*
X985Y433D01*
X2930Y433D02*
X2936Y433D01*
X3643Y433D02*
X3649Y433D01*
X3Y432D02*
X9Y432D01*
X265Y432D02*
X271Y432D01*
X979Y432D02*
X985Y432D01*
X2930Y432D02*
X2936Y432D01*
X3644Y432D02*
X3650Y432D01*
X3Y431D02*
X9Y431D01*
X265Y431D02*
X271Y431D01*
X979Y431D02*
X985Y431D01*
X2930Y431D02*
X2936Y431D01*
X3644Y431D02*
X3650Y431D01*
X3Y430D02*
X9Y430D01*
X265Y430D02*
X271Y430D01*
X979Y430D02*
X985Y430D01*
X2930Y430D02*
X2936Y430D01*
X3644Y430D02*
X3650Y430D01*
X3Y429D02*
X9Y429D01*
X264Y429D02*
X270Y429D01*
X979Y429D02*
X985Y429D01*
X2930Y429D02*
X2936Y429D01*
X3645Y429D02*
X3650Y429D01*
X3Y428D02*
X9Y428D01*
X264Y428D02*
X270Y428D01*
X979Y428D02*
X985Y428D01*
X2930Y428D02*
X2936Y428D01*
X3645Y428D02*
X3650Y428D01*
X3Y427D02*
X9Y427D01*
X264Y427D02*
X270Y427D01*
X979Y427D02*
X985Y427D01*
X2930Y427D02*
X2936Y427D01*
X3645Y427D02*
X3651Y427D01*
X3Y426D02*
X9Y426D01*
X264Y426D02*
X269Y426D01*
X979Y426D02*
X985Y426D01*
X2930Y426D02*
X2936Y426D01*
X3645Y426D02*
X3651Y426D01*
X3Y425D02*
X9Y425D01*
X263Y425D02*
X269Y425D01*
X979Y425D02*
X985Y425D01*
X2930Y425D02*
X2936Y425D01*
X3645Y425D02*
X3651Y425D01*
X3Y424D02*
X9Y424D01*
X263Y424D02*
X269Y424D01*
X979Y424D02*
X985Y424D01*
X2930Y424D02*
X2936Y424D01*
X3646Y424D02*
X3651Y424D01*
X3Y423D02*
X9Y423D01*
X263Y423D02*
X269Y423D01*
X979Y423D02*
X985Y423D01*
X2930Y423D02*
X2936Y423D01*
X3646Y423D02*
X3651Y423D01*
X3Y422D02*
X9Y422D01*
X263Y422D02*
X269Y422D01*
X979Y422D02*
X985Y422D01*
X2930Y422D02*
X2936Y422D01*
X3646Y422D02*
X3651Y422D01*
X3Y421D02*
X9Y421D01*
X263Y421D02*
X268Y421D01*
X979Y421D02*
X985Y421D01*
X2930Y421D02*
X2936Y421D01*
X3646Y421D02*
X3651Y421D01*
X3Y420D02*
X9Y420D01*
X263Y420D02*
X268Y420D01*
X979Y420D02*
X985Y420D01*
X2930Y420D02*
X2936Y420D01*
X3646Y420D02*
X3652Y420D01*
X3Y419D02*
X9Y419D01*
X263Y419D02*
X268Y419D01*
X979Y419D02*
X985Y419D01*
X2930Y419D02*
X2936Y419D01*
X3646Y419D02*
X3652Y419D01*
X3Y418D02*
X9Y418D01*
X263Y418D02*
X268Y418D01*
X979Y418D02*
X985Y418D01*
X2930Y418D02*
X2936Y418D01*
X3646Y418D02*
X3652Y418D01*
X3Y417D02*
X9Y417D01*
X263Y417D02*
X268Y417D01*
X979Y417D02*
X985Y417D01*
X2930Y417D02*
X2936Y417D01*
X3646Y417D02*
X3652Y417D01*
X3Y416D02*
X9Y416D01*
X263Y416D02*
X268Y416D01*
X979Y416D02*
X985Y416D01*
X2930Y416D02*
X2936Y416D01*
X3646Y416D02*
X3652Y416D01*
X3Y415D02*
X9Y415D01*
X263Y415D02*
X268Y415D01*
X979Y415D02*
X985Y415D01*
X2930Y415D02*
X2936Y415D01*
X3646Y415D02*
X3652Y415D01*
X3Y414D02*
X9Y414D01*
X263Y414D02*
X268Y414D01*
X979Y414D02*
X985Y414D01*
X2930Y414D02*
X2936Y414D01*
X3646Y414D02*
X3652Y414D01*
X3Y413D02*
X9Y413D01*
X263Y413D02*
X268Y413D01*
X979Y413D02*
X985Y413D01*
X2930Y413D02*
X2936Y413D01*
X3646Y413D02*
X3652Y413D01*
X4Y412D02*
X9Y412D01*
X262Y412D02*
X268Y412D01*
X979Y412D02*
X985Y412D01*
X2930Y412D02*
X2936Y412D01*
X3646Y412D02*
X3652Y412D01*
X4Y411D02*
X9Y411D01*
X262Y411D02*
X268Y411D01*
X979Y411D02*
X985Y411D01*
X2930Y411D02*
X2936Y411D01*
X3646Y411D02*
X3652Y411D01*
X4Y410D02*
X9Y410D01*
X262Y410D02*
X268Y410D01*
X979Y410D02*
X985Y410D01*
X2930Y410D02*
X2936Y410D01*
X3647Y410D02*
X3652Y410D01*
X4Y409D02*
X9Y409D01*
X262Y409D02*
X268Y409D01*
X979Y409D02*
X985Y409D01*
X2930Y409D02*
X2936Y409D01*
X3647Y409D02*
X3652Y409D01*
X4Y408D02*
X9Y408D01*
X262Y408D02*
X268Y408D01*
X979Y408D02*
X985Y408D01*
X2930Y408D02*
X2936Y408D01*
X3647Y408D02*
X3652Y408D01*
X4Y407D02*
X9Y407D01*
X262Y407D02*
X268Y407D01*
X979Y407D02*
X985Y407D01*
X2930Y407D02*
X2936Y407D01*
X3647Y407D02*
X3652Y407D01*
X4Y406D02*
X10Y406D01*
X262Y406D02*
X267Y406D01*
X979Y406D02*
X985Y406D01*
X2930Y406D02*
X2936Y406D01*
X3647Y406D02*
X3652Y406D01*
X4Y405D02*
X10Y405D01*
X262Y405D02*
X267Y405D01*
X979Y405D02*
X985Y405D01*
X2930Y405D02*
X2936Y405D01*
X3647Y405D02*
X3652Y405D01*
X4Y404D02*
X10Y404D01*
X262Y404D02*
X267Y404D01*
X979Y404D02*
X985Y404D01*
X2930Y404D02*
X2936Y404D01*
X3647Y404D02*
X3653Y404D01*
X4Y403D02*
X10Y403D01*
X262Y403D02*
X267Y403D01*
X979Y403D02*
X985Y403D01*
X2930Y403D02*
X2936Y403D01*
X3647Y403D02*
X3653Y403D01*
X4Y402D02*
X10Y402D01*
X261Y402D02*
X267Y402D01*
X979Y402D02*
X985Y402D01*
X2930Y402D02*
X2936Y402D01*
X3647Y402D02*
X3653Y402D01*
X5Y401D02*
X10Y401D01*
X261Y401D02*
X267Y401D01*
X979Y401D02*
X985Y401D01*
X2930Y401D02*
X2936Y401D01*
X3647Y401D02*
X3653Y401D01*
X5Y400D02*
X10Y400D01*
X261Y400D02*
X267Y400D01*
X979Y400D02*
X985Y400D01*
X2930Y400D02*
X2936Y400D01*
X3648Y400D02*
X3653Y400D01*
X5Y399D02*
X10Y399D01*
X261Y399D02*
X267Y399D01*
X979Y399D02*
X985Y399D01*
X2930Y399D02*
X2936Y399D01*
X3648Y399D02*
X3653Y399D01*
X5Y398D02*
X10Y398D01*
X261Y398D02*
X267Y398D01*
X979Y398D02*
X985Y398D01*
X2930Y398D02*
X2936Y398D01*
X3648Y398D02*
X3653Y398D01*
X5Y397D02*
X11Y397D01*
X261Y397D02*
X266Y397D01*
X979Y397D02*
X985Y397D01*
X2930Y397D02*
X2936Y397D01*
X3648Y397D02*
X3653Y397D01*
X5Y396D02*
X11Y396D01*
X261Y396D02*
X266Y396D01*
X979Y396D02*
X985Y396D01*
X2930Y396D02*
X2936Y396D01*
X3648Y396D02*
X3654Y396D01*
X3911Y396D02*
X3916Y396D01*
X5Y395D02*
X11Y395D01*
X261Y395D02*
X266Y395D01*
X979Y395D02*
X985Y395D01*
X2930Y395D02*
X2936Y395D01*
X3648Y395D02*
X3654Y395D01*
X3911Y395D02*
X3916Y395D01*
X5Y394D02*
X11Y394D01*
X260Y394D02*
X266Y394D01*
X979Y394D02*
X985Y394D01*
X2930Y394D02*
X2936Y394D01*
X3648Y394D02*
X3654Y394D01*
X3911Y394D02*
X3916Y394D01*
X6Y393D02*
X11Y393D01*
X260Y393D02*
X266Y393D01*
X979Y393D02*
X985Y393D01*
X2930Y393D02*
X2936Y393D01*
X3648Y393D02*
X3654Y393D01*
X3910Y393D02*
X3916Y393D01*
X6Y392D02*
X11Y392D01*
X260Y392D02*
X266Y392D01*
X979Y392D02*
X985Y392D01*
X2930Y392D02*
X2936Y392D01*
X3649Y392D02*
X3654Y392D01*
X3910Y392D02*
X3916Y392D01*
X6Y391D02*
X12Y391D01*
X260Y391D02*
X265Y391D01*
X979Y391D02*
X985Y391D01*
X2930Y391D02*
X2936Y391D01*
X3649Y391D02*
X3654Y391D01*
X3910Y391D02*
X3916Y391D01*
X6Y390D02*
X12Y390D01*
X260Y390D02*
X265Y390D01*
X979Y390D02*
X985Y390D01*
X2930Y390D02*
X2936Y390D01*
X3649Y390D02*
X3655Y390D01*
X3910Y390D02*
X3916Y390D01*
X6Y389D02*
X12Y389D01*
X260Y389D02*
X265Y389D01*
X979Y389D02*
X985Y389D01*
X2930Y389D02*
X2936Y389D01*
X3649Y389D02*
X3655Y389D01*
X3910Y389D02*
X3915Y389D01*
X6Y388D02*
X12Y388D01*
X259Y388D02*
X265Y388D01*
X979Y388D02*
X985Y388D01*
X2930Y388D02*
X2936Y388D01*
X3649Y388D02*
X3655Y388D01*
X3910Y388D02*
X3915Y388D01*
X7Y387D02*
X12Y387D01*
X259Y387D02*
X265Y387D01*
X979Y387D02*
X985Y387D01*
X2930Y387D02*
X2936Y387D01*
X3650Y387D02*
X3655Y387D01*
X3909Y387D02*
X3915Y387D01*
X7Y386D02*
X12Y386D01*
X259Y386D02*
X265Y386D01*
X979Y386D02*
X985Y386D01*
X2930Y386D02*
X2936Y386D01*
X3650Y386D02*
X3655Y386D01*
X3909Y386D02*
X3915Y386D01*
X7Y385D02*
X13Y385D01*
X259Y385D02*
X264Y385D01*
X979Y385D02*
X985Y385D01*
X2930Y385D02*
X2936Y385D01*
X3650Y385D02*
X3655Y385D01*
X3909Y385D02*
X3915Y385D01*
X7Y384D02*
X13Y384D01*
X259Y384D02*
X264Y384D01*
X979Y384D02*
X985Y384D01*
X2930Y384D02*
X2936Y384D01*
X3650Y384D02*
X3656Y384D01*
X3909Y384D02*
X3915Y384D01*
X7Y383D02*
X13Y383D01*
X258Y383D02*
X264Y383D01*
X979Y383D02*
X985Y383D01*
X2930Y383D02*
X2936Y383D01*
X3650Y383D02*
X3656Y383D01*
X3909Y383D02*
X3914Y383D01*
X8Y382D02*
X13Y382D01*
X258Y382D02*
X264Y382D01*
X979Y382D02*
X985Y382D01*
X2930Y382D02*
X2936Y382D01*
X3650Y382D02*
X3656Y382D01*
X3908Y382D02*
X3914Y382D01*
X8Y381D02*
X13Y381D01*
X258Y381D02*
X264Y381D01*
X979Y381D02*
X985Y381D01*
X2930Y381D02*
X2936Y381D01*
X3651Y381D02*
X3656Y381D01*
X3908Y381D02*
X3914Y381D01*
X8Y380D02*
X14Y380D01*
X258Y380D02*
X263Y380D01*
X979Y380D02*
X985Y380D01*
X2930Y380D02*
X2936Y380D01*
X3651Y380D02*
X3657Y380D01*
X3908Y380D02*
X3914Y380D01*
X8Y379D02*
X14Y379D01*
X258Y379D02*
X263Y379D01*
X979Y379D02*
X985Y379D01*
X2930Y379D02*
X2936Y379D01*
X3651Y379D02*
X3657Y379D01*
X3908Y379D02*
X3913Y379D01*
X8Y378D02*
X14Y378D01*
X257Y378D02*
X263Y378D01*
X979Y378D02*
X985Y378D01*
X2930Y378D02*
X2936Y378D01*
X3651Y378D02*
X3657Y378D01*
X3908Y378D02*
X3913Y378D01*
X9Y377D02*
X14Y377D01*
X257Y377D02*
X263Y377D01*
X979Y377D02*
X985Y377D01*
X2930Y377D02*
X2936Y377D01*
X3652Y377D02*
X3657Y377D01*
X3907Y377D02*
X3913Y377D01*
X9Y376D02*
X15Y376D01*
X257Y376D02*
X262Y376D01*
X979Y376D02*
X985Y376D01*
X2930Y376D02*
X2936Y376D01*
X3652Y376D02*
X3658Y376D01*
X3907Y376D02*
X3913Y376D01*
X9Y375D02*
X15Y375D01*
X257Y375D02*
X262Y375D01*
X979Y375D02*
X985Y375D01*
X2930Y375D02*
X2936Y375D01*
X3652Y375D02*
X3658Y375D01*
X3907Y375D02*
X3913Y375D01*
X9Y374D02*
X15Y374D01*
X256Y374D02*
X262Y374D01*
X979Y374D02*
X985Y374D01*
X2930Y374D02*
X2936Y374D01*
X3652Y374D02*
X3658Y374D01*
X3907Y374D02*
X3912Y374D01*
X10Y373D02*
X15Y373D01*
X256Y373D02*
X262Y373D01*
X979Y373D02*
X985Y373D01*
X2930Y373D02*
X2936Y373D01*
X3653Y373D02*
X3658Y373D01*
X3906Y373D02*
X3912Y373D01*
X10Y372D02*
X15Y372D01*
X256Y372D02*
X262Y372D01*
X979Y372D02*
X985Y372D01*
X2930Y372D02*
X2936Y372D01*
X3653Y372D02*
X3658Y372D01*
X3906Y372D02*
X3912Y372D01*
X10Y371D02*
X16Y371D01*
X256Y371D02*
X261Y371D01*
X979Y371D02*
X985Y371D01*
X2930Y371D02*
X2936Y371D01*
X3653Y371D02*
X3659Y371D01*
X3906Y371D02*
X3912Y371D01*
X10Y370D02*
X16Y370D01*
X255Y370D02*
X261Y370D01*
X979Y370D02*
X985Y370D01*
X2930Y370D02*
X2936Y370D01*
X3653Y370D02*
X3659Y370D01*
X3906Y370D02*
X3911Y370D01*
X11Y369D02*
X16Y369D01*
X255Y369D02*
X261Y369D01*
X979Y369D02*
X985Y369D01*
X2930Y369D02*
X2936Y369D01*
X3654Y369D02*
X3659Y369D01*
X3905Y369D02*
X3911Y369D01*
X11Y368D02*
X17Y368D01*
X255Y368D02*
X261Y368D01*
X979Y368D02*
X985Y368D01*
X2930Y368D02*
X2936Y368D01*
X3654Y368D02*
X3660Y368D01*
X3905Y368D02*
X3911Y368D01*
X11Y367D02*
X17Y367D01*
X255Y367D02*
X260Y367D01*
X979Y367D02*
X985Y367D01*
X2930Y367D02*
X2936Y367D01*
X3654Y367D02*
X3660Y367D01*
X3905Y367D02*
X3911Y367D01*
X11Y366D02*
X17Y366D01*
X254Y366D02*
X260Y366D01*
X979Y366D02*
X985Y366D01*
X2930Y366D02*
X2936Y366D01*
X3654Y366D02*
X3660Y366D01*
X3905Y366D02*
X3910Y366D01*
X12Y365D02*
X17Y365D01*
X254Y365D02*
X260Y365D01*
X979Y365D02*
X985Y365D01*
X2930Y365D02*
X2936Y365D01*
X3655Y365D02*
X3660Y365D01*
X3904Y365D02*
X3910Y365D01*
X12Y364D02*
X18Y364D01*
X254Y364D02*
X259Y364D01*
X979Y364D02*
X985Y364D01*
X2930Y364D02*
X2936Y364D01*
X3655Y364D02*
X3661Y364D01*
X3904Y364D02*
X3910Y364D01*
X12Y363D02*
X18Y363D01*
X253Y363D02*
X259Y363D01*
X979Y363D02*
X985Y363D01*
X2930Y363D02*
X2936Y363D01*
X3655Y363D02*
X3661Y363D01*
X3904Y363D02*
X3909Y363D01*
X12Y362D02*
X18Y362D01*
X253Y362D02*
X259Y362D01*
X979Y362D02*
X985Y362D01*
X2930Y362D02*
X2936Y362D01*
X3656Y362D02*
X3661Y362D01*
X3903Y362D02*
X3909Y362D01*
X13Y361D02*
X19Y361D01*
X253Y361D02*
X259Y361D01*
X979Y361D02*
X985Y361D01*
X2930Y361D02*
X2936Y361D01*
X3656Y361D02*
X3662Y361D01*
X3903Y361D02*
X3909Y361D01*
X13Y360D02*
X19Y360D01*
X252Y360D02*
X258Y360D01*
X979Y360D02*
X985Y360D01*
X2930Y360D02*
X2936Y360D01*
X3656Y360D02*
X3662Y360D01*
X3903Y360D02*
X3909Y360D01*
X13Y359D02*
X19Y359D01*
X252Y359D02*
X258Y359D01*
X979Y359D02*
X985Y359D01*
X2930Y359D02*
X2936Y359D01*
X3657Y359D02*
X3662Y359D01*
X3902Y359D02*
X3908Y359D01*
X14Y358D02*
X20Y358D01*
X252Y358D02*
X258Y358D01*
X979Y358D02*
X985Y358D01*
X2930Y358D02*
X2936Y358D01*
X3657Y358D02*
X3663Y358D01*
X3902Y358D02*
X3908Y358D01*
X14Y357D02*
X20Y357D01*
X251Y357D02*
X257Y357D01*
X979Y357D02*
X985Y357D01*
X2930Y357D02*
X2936Y357D01*
X3657Y357D02*
X3663Y357D01*
X3902Y357D02*
X3908Y357D01*
X14Y356D02*
X20Y356D01*
X251Y356D02*
X257Y356D01*
X979Y356D02*
X985Y356D01*
X2930Y356D02*
X2936Y356D01*
X3658Y356D02*
X3663Y356D01*
X3901Y356D02*
X3907Y356D01*
X15Y355D02*
X21Y355D01*
X251Y355D02*
X257Y355D01*
X979Y355D02*
X985Y355D01*
X2930Y355D02*
X2936Y355D01*
X3658Y355D02*
X3664Y355D01*
X3901Y355D02*
X3907Y355D01*
X15Y354D02*
X21Y354D01*
X250Y354D02*
X256Y354D01*
X979Y354D02*
X985Y354D01*
X2930Y354D02*
X2936Y354D01*
X3658Y354D02*
X3664Y354D01*
X3901Y354D02*
X3907Y354D01*
X15Y353D02*
X21Y353D01*
X250Y353D02*
X256Y353D01*
X979Y353D02*
X985Y353D01*
X2930Y353D02*
X2936Y353D01*
X3659Y353D02*
X3665Y353D01*
X3900Y353D02*
X3906Y353D01*
X16Y352D02*
X22Y352D01*
X250Y352D02*
X255Y352D01*
X979Y352D02*
X985Y352D01*
X2930Y352D02*
X2936Y352D01*
X3659Y352D02*
X3665Y352D01*
X3900Y352D02*
X3906Y352D01*
X16Y351D02*
X22Y351D01*
X249Y351D02*
X255Y351D01*
X979Y351D02*
X985Y351D01*
X2930Y351D02*
X2936Y351D01*
X3659Y351D02*
X3665Y351D01*
X3900Y351D02*
X3905Y351D01*
X16Y350D02*
X22Y350D01*
X249Y350D02*
X255Y350D01*
X979Y350D02*
X985Y350D01*
X2930Y350D02*
X2936Y350D01*
X3660Y350D02*
X3666Y350D01*
X3899Y350D02*
X3905Y350D01*
X17Y349D02*
X23Y349D01*
X248Y349D02*
X254Y349D01*
X979Y349D02*
X985Y349D01*
X2930Y349D02*
X2936Y349D01*
X3660Y349D02*
X3666Y349D01*
X3899Y349D02*
X3905Y349D01*
X17Y348D02*
X23Y348D01*
X248Y348D02*
X254Y348D01*
X979Y348D02*
X985Y348D01*
X2930Y348D02*
X2936Y348D01*
X3661Y348D02*
X3667Y348D01*
X3898Y348D02*
X3904Y348D01*
X18Y347D02*
X24Y347D01*
X248Y347D02*
X254Y347D01*
X979Y347D02*
X985Y347D01*
X2930Y347D02*
X2936Y347D01*
X3661Y347D02*
X3667Y347D01*
X3898Y347D02*
X3904Y347D01*
X18Y346D02*
X24Y346D01*
X247Y346D02*
X253Y346D01*
X979Y346D02*
X985Y346D01*
X2930Y346D02*
X2936Y346D01*
X3661Y346D02*
X3667Y346D01*
X3898Y346D02*
X3904Y346D01*
X18Y345D02*
X24Y345D01*
X247Y345D02*
X253Y345D01*
X979Y345D02*
X985Y345D01*
X2930Y345D02*
X2936Y345D01*
X3662Y345D02*
X3668Y345D01*
X3897Y345D02*
X3903Y345D01*
X19Y344D02*
X25Y344D01*
X246Y344D02*
X252Y344D01*
X979Y344D02*
X985Y344D01*
X2930Y344D02*
X2936Y344D01*
X3662Y344D02*
X3668Y344D01*
X3897Y344D02*
X3903Y344D01*
X19Y343D02*
X25Y343D01*
X246Y343D02*
X252Y343D01*
X979Y343D02*
X985Y343D01*
X2930Y343D02*
X2936Y343D01*
X3663Y343D02*
X3669Y343D01*
X3896Y343D02*
X3902Y343D01*
X20Y342D02*
X26Y342D01*
X245Y342D02*
X252Y342D01*
X979Y342D02*
X985Y342D01*
X2930Y342D02*
X2936Y342D01*
X3663Y342D02*
X3669Y342D01*
X3896Y342D02*
X3902Y342D01*
X20Y341D02*
X26Y341D01*
X245Y341D02*
X251Y341D01*
X979Y341D02*
X985Y341D01*
X2930Y341D02*
X2936Y341D01*
X3664Y341D02*
X3670Y341D01*
X3895Y341D02*
X3901Y341D01*
X21Y340D02*
X27Y340D01*
X244Y340D02*
X251Y340D01*
X979Y340D02*
X985Y340D01*
X2930Y340D02*
X2936Y340D01*
X3664Y340D02*
X3670Y340D01*
X3895Y340D02*
X3901Y340D01*
X21Y339D02*
X27Y339D01*
X244Y339D02*
X250Y339D01*
X979Y339D02*
X985Y339D01*
X2930Y339D02*
X2936Y339D01*
X3664Y339D02*
X3671Y339D01*
X3894Y339D02*
X3900Y339D01*
X22Y338D02*
X28Y338D01*
X244Y338D02*
X250Y338D01*
X979Y338D02*
X985Y338D01*
X2930Y338D02*
X2936Y338D01*
X3665Y338D02*
X3671Y338D01*
X3894Y338D02*
X3900Y338D01*
X22Y337D02*
X28Y337D01*
X243Y337D02*
X249Y337D01*
X979Y337D02*
X985Y337D01*
X2930Y337D02*
X2936Y337D01*
X3665Y337D02*
X3672Y337D01*
X3893Y337D02*
X3900Y337D01*
X22Y336D02*
X29Y336D01*
X243Y336D02*
X249Y336D01*
X979Y336D02*
X985Y336D01*
X2930Y336D02*
X2936Y336D01*
X3666Y336D02*
X3672Y336D01*
X3893Y336D02*
X3899Y336D01*
X23Y335D02*
X29Y335D01*
X242Y335D02*
X248Y335D01*
X979Y335D02*
X985Y335D01*
X2930Y335D02*
X2936Y335D01*
X3666Y335D02*
X3673Y335D01*
X3892Y335D02*
X3899Y335D01*
X23Y334D02*
X30Y334D01*
X241Y334D02*
X248Y334D01*
X979Y334D02*
X985Y334D01*
X2930Y334D02*
X2936Y334D01*
X3667Y334D02*
X3673Y334D01*
X3892Y334D02*
X3898Y334D01*
X24Y333D02*
X30Y333D01*
X241Y333D02*
X247Y333D01*
X979Y333D02*
X985Y333D01*
X2930Y333D02*
X2936Y333D01*
X3667Y333D02*
X3674Y333D01*
X3891Y333D02*
X3898Y333D01*
X24Y332D02*
X31Y332D01*
X240Y332D02*
X247Y332D01*
X979Y332D02*
X985Y332D01*
X2930Y332D02*
X2936Y332D01*
X3668Y332D02*
X3674Y332D01*
X3891Y332D02*
X3897Y332D01*
X25Y331D02*
X31Y331D01*
X240Y331D02*
X246Y331D01*
X979Y331D02*
X985Y331D01*
X2930Y331D02*
X2936Y331D01*
X3669Y331D02*
X3675Y331D01*
X3890Y331D02*
X3897Y331D01*
X25Y330D02*
X32Y330D01*
X239Y330D02*
X246Y330D01*
X979Y330D02*
X985Y330D01*
X2930Y330D02*
X2936Y330D01*
X3669Y330D02*
X3675Y330D01*
X3890Y330D02*
X3896Y330D01*
X26Y329D02*
X32Y329D01*
X239Y329D02*
X245Y329D01*
X979Y329D02*
X985Y329D01*
X2930Y329D02*
X2936Y329D01*
X3670Y329D02*
X3676Y329D01*
X3889Y329D02*
X3895Y329D01*
X27Y328D02*
X33Y328D01*
X238Y328D02*
X245Y328D01*
X979Y328D02*
X985Y328D01*
X2930Y328D02*
X2936Y328D01*
X3670Y328D02*
X3677Y328D01*
X3888Y328D02*
X3895Y328D01*
X27Y327D02*
X34Y327D01*
X238Y327D02*
X244Y327D01*
X979Y327D02*
X985Y327D01*
X2930Y327D02*
X2936Y327D01*
X3671Y327D02*
X3677Y327D01*
X3888Y327D02*
X3894Y327D01*
X28Y326D02*
X34Y326D01*
X237Y326D02*
X243Y326D01*
X979Y326D02*
X985Y326D01*
X2930Y326D02*
X2936Y326D01*
X3671Y326D02*
X3678Y326D01*
X3887Y326D02*
X3894Y326D01*
X28Y325D02*
X35Y325D01*
X236Y325D02*
X243Y325D01*
X979Y325D02*
X985Y325D01*
X2930Y325D02*
X2936Y325D01*
X3672Y325D02*
X3678Y325D01*
X3887Y325D02*
X3893Y325D01*
X29Y324D02*
X35Y324D01*
X236Y324D02*
X242Y324D01*
X979Y324D02*
X985Y324D01*
X2930Y324D02*
X2936Y324D01*
X3673Y324D02*
X3679Y324D01*
X3886Y324D02*
X3893Y324D01*
X29Y323D02*
X36Y323D01*
X235Y323D02*
X242Y323D01*
X979Y323D02*
X985Y323D01*
X2930Y323D02*
X2936Y323D01*
X3673Y323D02*
X3680Y323D01*
X3885Y323D02*
X3892Y323D01*
X30Y322D02*
X37Y322D01*
X234Y322D02*
X241Y322D01*
X979Y322D02*
X985Y322D01*
X2930Y322D02*
X2936Y322D01*
X3674Y322D02*
X3680Y322D01*
X3885Y322D02*
X3891Y322D01*
X31Y321D02*
X37Y321D01*
X234Y321D02*
X240Y321D01*
X979Y321D02*
X985Y321D01*
X2930Y321D02*
X2936Y321D01*
X3674Y321D02*
X3681Y321D01*
X3884Y321D02*
X3891Y321D01*
X31Y320D02*
X38Y320D01*
X233Y320D02*
X240Y320D01*
X979Y320D02*
X985Y320D01*
X2930Y320D02*
X2936Y320D01*
X3675Y320D02*
X3682Y320D01*
X3883Y320D02*
X3890Y320D01*
X32Y319D02*
X39Y319D01*
X232Y319D02*
X239Y319D01*
X979Y319D02*
X985Y319D01*
X2930Y319D02*
X2936Y319D01*
X3676Y319D02*
X3683Y319D01*
X3883Y319D02*
X3889Y319D01*
X33Y318D02*
X39Y318D01*
X232Y318D02*
X238Y318D01*
X979Y318D02*
X985Y318D01*
X2930Y318D02*
X2936Y318D01*
X3676Y318D02*
X3683Y318D01*
X3882Y318D02*
X3889Y318D01*
X33Y317D02*
X40Y317D01*
X231Y317D02*
X238Y317D01*
X979Y317D02*
X985Y317D01*
X2930Y317D02*
X2936Y317D01*
X3677Y317D02*
X3684Y317D01*
X3881Y317D02*
X3888Y317D01*
X34Y316D02*
X41Y316D01*
X230Y316D02*
X237Y316D01*
X979Y316D02*
X985Y316D01*
X2930Y316D02*
X2936Y316D01*
X3678Y316D02*
X3685Y316D01*
X3880Y316D02*
X3887Y316D01*
X35Y315D02*
X42Y315D01*
X229Y315D02*
X236Y315D01*
X979Y315D02*
X985Y315D01*
X2930Y315D02*
X2936Y315D01*
X3679Y315D02*
X3686Y315D01*
X3880Y315D02*
X3887Y315D01*
X35Y314D02*
X42Y314D01*
X229Y314D02*
X236Y314D01*
X979Y314D02*
X985Y314D01*
X2930Y314D02*
X2936Y314D01*
X3679Y314D02*
X3686Y314D01*
X3879Y314D02*
X3886Y314D01*
X36Y313D02*
X43Y313D01*
X228Y313D02*
X235Y313D01*
X979Y313D02*
X985Y313D01*
X2930Y313D02*
X2936Y313D01*
X3680Y313D02*
X3687Y313D01*
X3878Y313D02*
X3885Y313D01*
X37Y312D02*
X44Y312D01*
X227Y312D02*
X234Y312D01*
X979Y312D02*
X985Y312D01*
X2930Y312D02*
X2936Y312D01*
X3681Y312D02*
X3688Y312D01*
X3877Y312D02*
X3884Y312D01*
X38Y311D02*
X45Y311D01*
X226Y311D02*
X233Y311D01*
X979Y311D02*
X985Y311D01*
X2930Y311D02*
X2936Y311D01*
X3682Y311D02*
X3689Y311D01*
X3876Y311D02*
X3884Y311D01*
X38Y310D02*
X46Y310D01*
X226Y310D02*
X233Y310D01*
X979Y310D02*
X985Y310D01*
X2930Y310D02*
X2936Y310D01*
X3682Y310D02*
X3690Y310D01*
X3876Y310D02*
X3883Y310D01*
X39Y309D02*
X46Y309D01*
X225Y309D02*
X232Y309D01*
X979Y309D02*
X985Y309D01*
X2930Y309D02*
X2936Y309D01*
X3683Y309D02*
X3691Y309D01*
X3875Y309D02*
X3882Y309D01*
X40Y308D02*
X47Y308D01*
X224Y308D02*
X231Y308D01*
X979Y308D02*
X985Y308D01*
X2930Y308D02*
X2936Y308D01*
X3684Y308D02*
X3691Y308D01*
X3874Y308D02*
X3881Y308D01*
X41Y307D02*
X48Y307D01*
X223Y307D02*
X230Y307D01*
X979Y307D02*
X985Y307D01*
X2930Y307D02*
X2936Y307D01*
X3685Y307D02*
X3692Y307D01*
X3873Y307D02*
X3880Y307D01*
X42Y306D02*
X49Y306D01*
X222Y306D02*
X229Y306D01*
X979Y306D02*
X985Y306D01*
X2930Y306D02*
X2936Y306D01*
X3686Y306D02*
X3693Y306D01*
X3872Y306D02*
X3879Y306D01*
X43Y305D02*
X50Y305D01*
X221Y305D02*
X229Y305D01*
X979Y305D02*
X985Y305D01*
X2930Y305D02*
X2936Y305D01*
X3687Y305D02*
X3694Y305D01*
X3871Y305D02*
X3879Y305D01*
X43Y304D02*
X51Y304D01*
X220Y304D02*
X228Y304D01*
X979Y304D02*
X985Y304D01*
X2930Y304D02*
X2936Y304D01*
X3688Y304D02*
X3695Y304D01*
X3870Y304D02*
X3878Y304D01*
X44Y303D02*
X52Y303D01*
X219Y303D02*
X227Y303D01*
X979Y303D02*
X985Y303D01*
X2930Y303D02*
X2936Y303D01*
X3688Y303D02*
X3696Y303D01*
X3869Y303D02*
X3877Y303D01*
X45Y302D02*
X53Y302D01*
X218Y302D02*
X226Y302D01*
X979Y302D02*
X985Y302D01*
X2930Y302D02*
X2936Y302D01*
X3689Y302D02*
X3697Y302D01*
X3868Y302D02*
X3876Y302D01*
X46Y301D02*
X54Y301D01*
X217Y301D02*
X225Y301D01*
X979Y301D02*
X985Y301D01*
X2930Y301D02*
X2936Y301D01*
X3690Y301D02*
X3698Y301D01*
X3867Y301D02*
X3875Y301D01*
X47Y300D02*
X55Y300D01*
X216Y300D02*
X224Y300D01*
X979Y300D02*
X985Y300D01*
X2930Y300D02*
X2936Y300D01*
X3691Y300D02*
X3700Y300D01*
X3866Y300D02*
X3874Y300D01*
X48Y299D02*
X56Y299D01*
X215Y299D02*
X223Y299D01*
X979Y299D02*
X985Y299D01*
X2930Y299D02*
X2936Y299D01*
X3692Y299D02*
X3701Y299D01*
X3865Y299D02*
X3873Y299D01*
X49Y298D02*
X57Y298D01*
X214Y298D02*
X222Y298D01*
X979Y298D02*
X985Y298D01*
X2930Y298D02*
X2936Y298D01*
X3693Y298D02*
X3702Y298D01*
X3863Y298D02*
X3872Y298D01*
X50Y297D02*
X59Y297D01*
X212Y297D02*
X221Y297D01*
X979Y297D02*
X985Y297D01*
X2930Y297D02*
X2936Y297D01*
X3695Y297D02*
X3703Y297D01*
X3862Y297D02*
X3871Y297D01*
X51Y296D02*
X60Y296D01*
X211Y296D02*
X220Y296D01*
X979Y296D02*
X985Y296D01*
X2930Y296D02*
X2936Y296D01*
X3696Y296D02*
X3704Y296D01*
X3861Y296D02*
X3870Y296D01*
X52Y295D02*
X61Y295D01*
X210Y295D02*
X219Y295D01*
X979Y295D02*
X985Y295D01*
X2930Y295D02*
X2936Y295D01*
X3697Y295D02*
X3706Y295D01*
X3860Y295D02*
X3869Y295D01*
X53Y294D02*
X62Y294D01*
X209Y294D02*
X218Y294D01*
X979Y294D02*
X985Y294D01*
X2930Y294D02*
X2936Y294D01*
X3698Y294D02*
X3707Y294D01*
X3859Y294D02*
X3868Y294D01*
X55Y293D02*
X64Y293D01*
X207Y293D02*
X217Y293D01*
X979Y293D02*
X985Y293D01*
X2930Y293D02*
X2936Y293D01*
X3699Y293D02*
X3708Y293D01*
X3857Y293D02*
X3866Y293D01*
X56Y292D02*
X65Y292D01*
X206Y292D02*
X215Y292D01*
X979Y292D02*
X985Y292D01*
X2930Y292D02*
X2936Y292D01*
X3700Y292D02*
X3710Y292D01*
X3856Y292D02*
X3865Y292D01*
X57Y291D02*
X66Y291D01*
X205Y291D02*
X214Y291D01*
X979Y291D02*
X985Y291D01*
X2930Y291D02*
X2936Y291D01*
X3702Y291D02*
X3711Y291D01*
X3854Y291D02*
X3864Y291D01*
X58Y290D02*
X68Y290D01*
X203Y290D02*
X213Y290D01*
X979Y290D02*
X985Y290D01*
X2930Y290D02*
X2936Y290D01*
X3703Y290D02*
X3713Y290D01*
X3853Y290D02*
X3863Y290D01*
X59Y289D02*
X69Y289D01*
X202Y289D02*
X212Y289D01*
X979Y289D02*
X985Y289D01*
X2930Y289D02*
X2936Y289D01*
X3704Y289D02*
X3714Y289D01*
X3851Y289D02*
X3861Y289D01*
X61Y288D02*
X71Y288D01*
X200Y288D02*
X210Y288D01*
X979Y288D02*
X985Y288D01*
X2930Y288D02*
X2936Y288D01*
X3705Y288D02*
X3716Y288D01*
X3850Y288D02*
X3860Y288D01*
X62Y287D02*
X73Y287D01*
X198Y287D02*
X209Y287D01*
X979Y287D02*
X985Y287D01*
X2930Y287D02*
X2936Y287D01*
X3707Y287D02*
X3718Y287D01*
X3848Y287D02*
X3858Y287D01*
X63Y286D02*
X74Y286D01*
X197Y286D02*
X207Y286D01*
X979Y286D02*
X985Y286D01*
X2930Y286D02*
X2936Y286D01*
X3708Y286D02*
X3719Y286D01*
X3846Y286D02*
X3857Y286D01*
X65Y285D02*
X76Y285D01*
X195Y285D02*
X206Y285D01*
X979Y285D02*
X985Y285D01*
X2930Y285D02*
X2936Y285D01*
X3710Y285D02*
X3721Y285D01*
X3844Y285D02*
X3856Y285D01*
X66Y284D02*
X78Y284D01*
X193Y284D02*
X205Y284D01*
X979Y284D02*
X985Y284D01*
X2930Y284D02*
X2936Y284D01*
X3711Y284D02*
X3723Y284D01*
X3842Y284D02*
X3854Y284D01*
X68Y283D02*
X80Y283D01*
X191Y283D02*
X203Y283D01*
X979Y283D02*
X985Y283D01*
X2930Y283D02*
X2936Y283D01*
X3713Y283D02*
X3725Y283D01*
X3840Y283D02*
X3852Y283D01*
X70Y282D02*
X82Y282D01*
X189Y282D02*
X201Y282D01*
X979Y282D02*
X985Y282D01*
X2930Y282D02*
X2936Y282D01*
X3715Y282D02*
X3728Y282D01*
X3838Y282D02*
X3851Y282D01*
X71Y281D02*
X84Y281D01*
X187Y281D02*
X200Y281D01*
X979Y281D02*
X985Y281D01*
X2930Y281D02*
X2936Y281D01*
X3716Y281D02*
X3730Y281D01*
X3836Y281D02*
X3849Y281D01*
X73Y280D02*
X87Y280D01*
X184Y280D02*
X198Y280D01*
X979Y280D02*
X985Y280D01*
X2930Y280D02*
X2936Y280D01*
X3718Y280D02*
X3732Y280D01*
X3833Y280D02*
X3847Y280D01*
X75Y279D02*
X89Y279D01*
X182Y279D02*
X196Y279D01*
X979Y279D02*
X985Y279D01*
X2930Y279D02*
X2936Y279D01*
X3720Y279D02*
X3735Y279D01*
X3830Y279D02*
X3845Y279D01*
X77Y278D02*
X92Y278D01*
X179Y278D02*
X194Y278D01*
X979Y278D02*
X985Y278D01*
X2930Y278D02*
X2936Y278D01*
X3722Y278D02*
X3738Y278D01*
X3828Y278D02*
X3843Y278D01*
X79Y277D02*
X95Y277D01*
X176Y277D02*
X192Y277D01*
X979Y277D02*
X985Y277D01*
X2930Y277D02*
X2936Y277D01*
X3724Y277D02*
X3741Y277D01*
X3824Y277D02*
X3841Y277D01*
X81Y276D02*
X99Y276D01*
X172Y276D02*
X190Y276D01*
X979Y276D02*
X985Y276D01*
X2930Y276D02*
X2936Y276D01*
X3726Y276D02*
X3745Y276D01*
X3821Y276D02*
X3839Y276D01*
X83Y275D02*
X102Y275D01*
X169Y275D02*
X188Y275D01*
X979Y275D02*
X985Y275D01*
X2930Y275D02*
X2936Y275D01*
X3729Y275D02*
X3748Y275D01*
X3817Y275D02*
X3837Y275D01*
X86Y274D02*
X107Y274D01*
X164Y274D02*
X185Y274D01*
X979Y274D02*
X985Y274D01*
X2930Y274D02*
X2936Y274D01*
X3731Y274D02*
X3754Y274D01*
X3812Y274D02*
X3834Y274D01*
X88Y273D02*
X112Y273D01*
X158Y273D02*
X183Y273D01*
X979Y273D02*
X985Y273D01*
X2930Y273D02*
X2936Y273D01*
X3734Y273D02*
X3759Y273D01*
X3807Y273D02*
X3832Y273D01*
X91Y272D02*
X121Y272D01*
X150Y272D02*
X180Y272D01*
X979Y272D02*
X985Y272D01*
X2930Y272D02*
X2936Y272D01*
X3737Y272D02*
X3768Y272D01*
X3798Y272D02*
X3829Y272D01*
X94Y271D02*
X177Y271D01*
X979Y271D02*
X985Y271D01*
X2930Y271D02*
X2936Y271D01*
X3740Y271D02*
X3826Y271D01*
X97Y270D02*
X173Y270D01*
X979Y270D02*
X985Y270D01*
X2930Y270D02*
X2936Y270D01*
X3743Y270D02*
X3822Y270D01*
X101Y269D02*
X170Y269D01*
X979Y269D02*
X985Y269D01*
X2930Y269D02*
X2936Y269D01*
X3747Y269D02*
X3818Y269D01*
X105Y268D02*
X166Y268D01*
X979Y268D02*
X985Y268D01*
X2930Y268D02*
X2936Y268D01*
X3751Y268D02*
X3814Y268D01*
X110Y267D02*
X161Y267D01*
X979Y267D02*
X985Y267D01*
X2930Y267D02*
X2936Y267D01*
X3757Y267D02*
X3809Y267D01*
X117Y266D02*
X154Y266D01*
X979Y266D02*
X985Y266D01*
X2930Y266D02*
X2936Y266D01*
X3764Y266D02*
X3802Y266D01*
X129Y265D02*
X142Y265D01*
X979Y265D02*
X985Y265D01*
X2930Y265D02*
X2936Y265D01*
X3776Y265D02*
X3790Y265D01*
X979Y264D02*
X985Y264D01*
X2930Y264D02*
X2936Y264D01*
X979Y263D02*
X985Y263D01*
X2930Y263D02*
X2936Y263D01*
X979Y262D02*
X985Y262D01*
X2930Y262D02*
X2936Y262D01*
X979Y261D02*
X985Y261D01*
X2930Y261D02*
X2936Y261D01*
X979Y260D02*
X985Y260D01*
X2930Y260D02*
X2936Y260D01*
X979Y259D02*
X985Y259D01*
X2930Y259D02*
X2936Y259D01*
X979Y258D02*
X985Y258D01*
X2930Y258D02*
X2936Y258D01*
X979Y257D02*
X985Y257D01*
X2930Y257D02*
X2936Y257D01*
X979Y256D02*
X985Y256D01*
X2930Y256D02*
X2936Y256D01*
X979Y255D02*
X985Y255D01*
X2930Y255D02*
X2936Y255D01*
X979Y254D02*
X985Y254D01*
X2930Y254D02*
X2936Y254D01*
X979Y253D02*
X985Y253D01*
X2930Y253D02*
X2936Y253D01*
X979Y252D02*
X985Y252D01*
X2930Y252D02*
X2936Y252D01*
X979Y251D02*
X985Y251D01*
X2930Y251D02*
X2936Y251D01*
X979Y250D02*
X985Y250D01*
X2930Y250D02*
X2936Y250D01*
X979Y249D02*
X985Y249D01*
X2930Y249D02*
X2936Y249D01*
X979Y248D02*
X985Y248D01*
X2930Y248D02*
X2936Y248D01*
X979Y247D02*
X985Y247D01*
X2930Y247D02*
X2936Y247D01*
X979Y246D02*
X985Y246D01*
X1081Y246D02*
X1101Y246D01*
X2930Y246D02*
X2936Y246D01*
X979Y245D02*
X985Y245D01*
X1078Y245D02*
X1102Y245D01*
X2930Y245D02*
X2936Y245D01*
X979Y244D02*
X985Y244D01*
X1076Y244D02*
X1103Y244D01*
X2807Y244D02*
X2840Y244D01*
X2930Y244D02*
X2936Y244D01*
X979Y243D02*
X985Y243D01*
X1073Y243D02*
X1103Y243D01*
X2805Y243D02*
X2844Y243D01*
X2930Y243D02*
X2936Y243D01*
X979Y242D02*
X985Y242D01*
X1070Y242D02*
X1104Y242D01*
X2803Y242D02*
X2846Y242D01*
X2930Y242D02*
X2936Y242D01*
X979Y241D02*
X985Y241D01*
X1068Y241D02*
X1103Y241D01*
X2802Y241D02*
X2847Y241D01*
X2930Y241D02*
X2936Y241D01*
X979Y240D02*
X985Y240D01*
X1065Y240D02*
X1103Y240D01*
X2800Y240D02*
X2849Y240D01*
X2930Y240D02*
X2936Y240D01*
X979Y239D02*
X985Y239D01*
X1063Y239D02*
X1103Y239D01*
X2800Y239D02*
X2850Y239D01*
X2930Y239D02*
X2936Y239D01*
X979Y238D02*
X985Y238D01*
X1060Y238D02*
X1102Y238D01*
X2799Y238D02*
X2851Y238D01*
X2930Y238D02*
X2936Y238D01*
X979Y237D02*
X985Y237D01*
X1058Y237D02*
X1100Y237D01*
X2798Y237D02*
X2853Y237D01*
X2930Y237D02*
X2936Y237D01*
X979Y236D02*
X985Y236D01*
X1055Y236D02*
X1081Y236D01*
X2798Y236D02*
X2854Y236D01*
X2930Y236D02*
X2936Y236D01*
X979Y235D02*
X985Y235D01*
X1052Y235D02*
X1079Y235D01*
X2797Y235D02*
X2855Y235D01*
X2930Y235D02*
X2936Y235D01*
X979Y234D02*
X985Y234D01*
X1050Y234D02*
X1076Y234D01*
X2797Y234D02*
X2808Y234D01*
X2841Y234D02*
X2856Y234D01*
X2930Y234D02*
X2936Y234D01*
X979Y233D02*
X985Y233D01*
X1047Y233D02*
X1073Y233D01*
X2797Y233D02*
X2806Y233D01*
X2843Y233D02*
X2858Y233D01*
X2930Y233D02*
X2936Y233D01*
X979Y232D02*
X985Y232D01*
X1045Y232D02*
X1071Y232D01*
X2796Y232D02*
X2806Y232D01*
X2844Y232D02*
X2859Y232D01*
X2930Y232D02*
X2936Y232D01*
X979Y231D02*
X985Y231D01*
X1042Y231D02*
X1068Y231D01*
X2796Y231D02*
X2805Y231D01*
X2845Y231D02*
X2860Y231D01*
X2930Y231D02*
X2936Y231D01*
X979Y230D02*
X985Y230D01*
X1040Y230D02*
X1066Y230D01*
X2796Y230D02*
X2805Y230D01*
X2847Y230D02*
X2862Y230D01*
X2930Y230D02*
X2936Y230D01*
X979Y229D02*
X985Y229D01*
X1037Y229D02*
X1063Y229D01*
X2796Y229D02*
X2805Y229D01*
X2848Y229D02*
X2863Y229D01*
X2930Y229D02*
X2936Y229D01*
X979Y228D02*
X985Y228D01*
X1034Y228D02*
X1061Y228D01*
X2796Y228D02*
X2805Y228D01*
X2849Y228D02*
X2864Y228D01*
X2930Y228D02*
X2936Y228D01*
X979Y227D02*
X985Y227D01*
X1032Y227D02*
X1058Y227D01*
X2796Y227D02*
X2805Y227D01*
X2850Y227D02*
X2865Y227D01*
X2930Y227D02*
X2936Y227D01*
X979Y226D02*
X985Y226D01*
X1030Y226D02*
X1056Y226D01*
X2796Y226D02*
X2805Y226D01*
X2852Y226D02*
X2867Y226D01*
X2930Y226D02*
X2936Y226D01*
X979Y225D02*
X985Y225D01*
X1029Y225D02*
X1053Y225D01*
X2796Y225D02*
X2805Y225D01*
X2853Y225D02*
X2868Y225D01*
X2930Y225D02*
X2936Y225D01*
X979Y224D02*
X985Y224D01*
X1029Y224D02*
X1050Y224D01*
X2796Y224D02*
X2805Y224D01*
X2854Y224D02*
X2868Y224D01*
X2930Y224D02*
X2936Y224D01*
X979Y223D02*
X985Y223D01*
X1029Y223D02*
X1048Y223D01*
X2796Y223D02*
X2805Y223D01*
X2856Y223D02*
X2869Y223D01*
X2930Y223D02*
X2936Y223D01*
X979Y222D02*
X985Y222D01*
X1029Y222D02*
X1047Y222D01*
X2796Y222D02*
X2805Y222D01*
X2857Y222D02*
X2870Y222D01*
X2930Y222D02*
X2936Y222D01*
X979Y221D02*
X985Y221D01*
X1029Y221D02*
X1050Y221D01*
X2796Y221D02*
X2805Y221D01*
X2858Y221D02*
X2870Y221D01*
X2930Y221D02*
X2936Y221D01*
X979Y220D02*
X985Y220D01*
X1029Y220D02*
X1052Y220D01*
X2796Y220D02*
X2805Y220D01*
X2824Y220D02*
X2827Y220D01*
X2859Y220D02*
X2870Y220D01*
X2930Y220D02*
X2936Y220D01*
X979Y219D02*
X985Y219D01*
X1030Y219D02*
X1055Y219D01*
X2796Y219D02*
X2805Y219D01*
X2823Y219D02*
X2828Y219D01*
X2861Y219D02*
X2871Y219D01*
X2930Y219D02*
X2936Y219D01*
X979Y218D02*
X985Y218D01*
X1032Y218D02*
X1058Y218D01*
X2796Y218D02*
X2805Y218D01*
X2822Y218D02*
X2829Y218D01*
X2861Y218D02*
X2871Y218D01*
X2930Y218D02*
X2936Y218D01*
X979Y217D02*
X985Y217D01*
X1034Y217D02*
X1060Y217D01*
X2796Y217D02*
X2805Y217D01*
X2821Y217D02*
X2830Y217D01*
X2862Y217D02*
X2871Y217D01*
X2930Y217D02*
X2936Y217D01*
X979Y216D02*
X985Y216D01*
X1037Y216D02*
X1063Y216D01*
X2796Y216D02*
X2805Y216D01*
X2821Y216D02*
X2830Y216D01*
X2862Y216D02*
X2871Y216D01*
X2930Y216D02*
X2936Y216D01*
X979Y215D02*
X985Y215D01*
X1039Y215D02*
X1065Y215D01*
X2796Y215D02*
X2805Y215D01*
X2821Y215D02*
X2830Y215D01*
X2862Y215D02*
X2871Y215D01*
X2930Y215D02*
X2936Y215D01*
X979Y214D02*
X985Y214D01*
X1042Y214D02*
X1068Y214D01*
X2796Y214D02*
X2805Y214D01*
X2821Y214D02*
X2830Y214D01*
X2862Y214D02*
X2871Y214D01*
X2930Y214D02*
X2936Y214D01*
X979Y213D02*
X985Y213D01*
X1044Y213D02*
X1070Y213D01*
X2796Y213D02*
X2805Y213D01*
X2821Y213D02*
X2830Y213D01*
X2862Y213D02*
X2871Y213D01*
X2930Y213D02*
X2936Y213D01*
X979Y212D02*
X985Y212D01*
X1047Y212D02*
X1073Y212D01*
X2796Y212D02*
X2805Y212D01*
X2821Y212D02*
X2830Y212D01*
X2862Y212D02*
X2871Y212D01*
X2930Y212D02*
X2936Y212D01*
X979Y211D02*
X985Y211D01*
X1049Y211D02*
X1075Y211D01*
X2796Y211D02*
X2805Y211D01*
X2821Y211D02*
X2830Y211D01*
X2862Y211D02*
X2871Y211D01*
X2930Y211D02*
X2936Y211D01*
X979Y210D02*
X985Y210D01*
X1052Y210D02*
X1078Y210D01*
X2796Y210D02*
X2805Y210D01*
X2821Y210D02*
X2830Y210D01*
X2862Y210D02*
X2871Y210D01*
X2930Y210D02*
X2936Y210D01*
X979Y209D02*
X985Y209D01*
X1054Y209D02*
X1080Y209D01*
X2796Y209D02*
X2805Y209D01*
X2821Y209D02*
X2830Y209D01*
X2862Y209D02*
X2871Y209D01*
X2930Y209D02*
X2936Y209D01*
X979Y208D02*
X985Y208D01*
X1057Y208D02*
X1083Y208D01*
X2796Y208D02*
X2806Y208D01*
X2821Y208D02*
X2830Y208D01*
X2862Y208D02*
X2871Y208D01*
X2930Y208D02*
X2936Y208D01*
X979Y207D02*
X985Y207D01*
X1060Y207D02*
X1102Y207D01*
X2797Y207D02*
X2807Y207D01*
X2821Y207D02*
X2830Y207D01*
X2862Y207D02*
X2871Y207D01*
X2930Y207D02*
X2936Y207D01*
X979Y206D02*
X985Y206D01*
X1062Y206D02*
X1103Y206D01*
X2797Y206D02*
X2809Y206D01*
X2821Y206D02*
X2830Y206D01*
X2862Y206D02*
X2871Y206D01*
X2930Y206D02*
X2936Y206D01*
X979Y205D02*
X985Y205D01*
X1065Y205D02*
X1103Y205D01*
X2797Y205D02*
X2830Y205D01*
X2862Y205D02*
X2871Y205D01*
X2930Y205D02*
X2936Y205D01*
X979Y204D02*
X985Y204D01*
X1067Y204D02*
X1103Y204D01*
X2798Y204D02*
X2830Y204D01*
X2862Y204D02*
X2871Y204D01*
X2930Y204D02*
X2936Y204D01*
X979Y203D02*
X985Y203D01*
X1070Y203D02*
X1104Y203D01*
X2798Y203D02*
X2830Y203D01*
X2862Y203D02*
X2871Y203D01*
X2930Y203D02*
X2936Y203D01*
X979Y202D02*
X985Y202D01*
X1072Y202D02*
X1103Y202D01*
X2799Y202D02*
X2830Y202D01*
X2862Y202D02*
X2871Y202D01*
X2930Y202D02*
X2936Y202D01*
X979Y201D02*
X985Y201D01*
X1075Y201D02*
X1103Y201D01*
X2800Y201D02*
X2830Y201D01*
X2862Y201D02*
X2871Y201D01*
X2930Y201D02*
X2936Y201D01*
X979Y200D02*
X985Y200D01*
X1078Y200D02*
X1102Y200D01*
X2801Y200D02*
X2830Y200D01*
X2862Y200D02*
X2871Y200D01*
X2930Y200D02*
X2936Y200D01*
X979Y199D02*
X985Y199D01*
X1080Y199D02*
X1101Y199D01*
X2802Y199D02*
X2830Y199D01*
X2863Y199D02*
X2871Y199D01*
X2930Y199D02*
X2936Y199D01*
X979Y198D02*
X985Y198D01*
X2804Y198D02*
X2830Y198D01*
X2863Y198D02*
X2870Y198D01*
X2930Y198D02*
X2936Y198D01*
X979Y197D02*
X985Y197D01*
X2806Y197D02*
X2830Y197D01*
X2864Y197D02*
X2869Y197D01*
X2930Y197D02*
X2936Y197D01*
X979Y196D02*
X985Y196D01*
X2930Y196D02*
X2936Y196D01*
X979Y195D02*
X985Y195D01*
X2930Y195D02*
X2936Y195D01*
X979Y194D02*
X985Y194D01*
X2930Y194D02*
X2936Y194D01*
X979Y193D02*
X985Y193D01*
X2930Y193D02*
X2936Y193D01*
X979Y192D02*
X985Y192D01*
X2930Y192D02*
X2936Y192D01*
X979Y191D02*
X985Y191D01*
X2930Y191D02*
X2936Y191D01*
X979Y190D02*
X985Y190D01*
X2930Y190D02*
X2936Y190D01*
X979Y189D02*
X985Y189D01*
X2930Y189D02*
X2936Y189D01*
X979Y188D02*
X985Y188D01*
X2930Y188D02*
X2936Y188D01*
X979Y187D02*
X985Y187D01*
X2930Y187D02*
X2936Y187D01*
X979Y186D02*
X985Y186D01*
X2930Y186D02*
X2936Y186D01*
X979Y185D02*
X985Y185D01*
X2930Y185D02*
X2936Y185D01*
X979Y184D02*
X985Y184D01*
X2930Y184D02*
X2936Y184D01*
X979Y183D02*
X985Y183D01*
X2930Y183D02*
X2936Y183D01*
X979Y182D02*
X985Y182D01*
X2930Y182D02*
X2936Y182D01*
X979Y181D02*
X985Y181D01*
X2930Y181D02*
X2936Y181D01*
X979Y180D02*
X985Y180D01*
X2930Y180D02*
X2936Y180D01*
X979Y179D02*
X985Y179D01*
X2930Y179D02*
X2936Y179D01*
X979Y178D02*
X985Y178D01*
X2930Y178D02*
X2936Y178D01*
X979Y177D02*
X985Y177D01*
X2930Y177D02*
X2936Y177D01*
X979Y176D02*
X985Y176D01*
X1062Y176D02*
X1071Y176D01*
X2930Y176D02*
X2936Y176D01*
X979Y175D02*
X985Y175D01*
X1058Y175D02*
X1074Y175D01*
X2930Y175D02*
X2936Y175D01*
X979Y174D02*
X985Y174D01*
X1056Y174D02*
X1076Y174D01*
X2799Y174D02*
X2871Y174D01*
X2930Y174D02*
X2936Y174D01*
X979Y173D02*
X985Y173D01*
X1054Y173D02*
X1078Y173D01*
X2798Y173D02*
X2871Y173D01*
X2930Y173D02*
X2936Y173D01*
X979Y172D02*
X985Y172D01*
X1052Y172D02*
X1080Y172D01*
X2797Y172D02*
X2871Y172D01*
X2930Y172D02*
X2936Y172D01*
X979Y171D02*
X985Y171D01*
X1050Y171D02*
X1082Y171D01*
X2796Y171D02*
X2871Y171D01*
X2930Y171D02*
X2936Y171D01*
X979Y170D02*
X985Y170D01*
X1048Y170D02*
X1084Y170D01*
X2796Y170D02*
X2871Y170D01*
X2930Y170D02*
X2936Y170D01*
X979Y169D02*
X985Y169D01*
X1046Y169D02*
X1086Y169D01*
X2796Y169D02*
X2871Y169D01*
X2930Y169D02*
X2936Y169D01*
X979Y168D02*
X985Y168D01*
X1044Y168D02*
X1088Y168D01*
X2797Y168D02*
X2871Y168D01*
X2930Y168D02*
X2936Y168D01*
X979Y167D02*
X985Y167D01*
X1042Y167D02*
X1090Y167D01*
X2797Y167D02*
X2871Y167D01*
X2930Y167D02*
X2936Y167D01*
X979Y166D02*
X985Y166D01*
X1040Y166D02*
X1061Y166D01*
X1071Y166D02*
X1092Y166D01*
X2798Y166D02*
X2871Y166D01*
X2930Y166D02*
X2936Y166D01*
X979Y165D02*
X985Y165D01*
X1038Y165D02*
X1059Y165D01*
X1073Y165D02*
X1094Y165D01*
X2799Y165D02*
X2871Y165D01*
X2930Y165D02*
X2936Y165D01*
X979Y164D02*
X985Y164D01*
X1036Y164D02*
X1057Y164D01*
X1075Y164D02*
X1096Y164D01*
X2853Y164D02*
X2871Y164D01*
X2930Y164D02*
X2936Y164D01*
X979Y163D02*
X985Y163D01*
X1035Y163D02*
X1055Y163D01*
X1077Y163D02*
X1098Y163D01*
X2851Y163D02*
X2871Y163D01*
X2930Y163D02*
X2936Y163D01*
X979Y162D02*
X985Y162D01*
X1034Y162D02*
X1053Y162D01*
X1079Y162D02*
X1099Y162D01*
X2848Y162D02*
X2871Y162D01*
X2930Y162D02*
X2936Y162D01*
X979Y161D02*
X985Y161D01*
X1033Y161D02*
X1051Y161D01*
X1081Y161D02*
X1100Y161D01*
X2846Y161D02*
X2870Y161D01*
X2930Y161D02*
X2936Y161D01*
X979Y160D02*
X985Y160D01*
X1032Y160D02*
X1049Y160D01*
X1083Y160D02*
X1101Y160D01*
X2844Y160D02*
X2867Y160D01*
X2930Y160D02*
X2936Y160D01*
X979Y159D02*
X985Y159D01*
X1031Y159D02*
X1047Y159D01*
X1085Y159D02*
X1101Y159D01*
X2842Y159D02*
X2865Y159D01*
X2930Y159D02*
X2936Y159D01*
X979Y158D02*
X985Y158D01*
X1031Y158D02*
X1045Y158D01*
X1087Y158D02*
X1102Y158D01*
X2839Y158D02*
X2863Y158D01*
X2930Y158D02*
X2936Y158D01*
X979Y157D02*
X985Y157D01*
X1030Y157D02*
X1043Y157D01*
X1089Y157D02*
X1102Y157D01*
X2837Y157D02*
X2861Y157D01*
X2930Y157D02*
X2936Y157D01*
X979Y156D02*
X985Y156D01*
X1030Y156D02*
X1041Y156D01*
X1091Y156D02*
X1103Y156D01*
X2835Y156D02*
X2858Y156D01*
X2930Y156D02*
X2936Y156D01*
X979Y155D02*
X985Y155D01*
X1029Y155D02*
X1039Y155D01*
X1093Y155D02*
X1103Y155D01*
X2832Y155D02*
X2856Y155D01*
X2930Y155D02*
X2936Y155D01*
X979Y154D02*
X985Y154D01*
X1029Y154D02*
X1038Y154D01*
X1094Y154D02*
X1103Y154D01*
X2830Y154D02*
X2854Y154D01*
X2930Y154D02*
X2936Y154D01*
X979Y153D02*
X985Y153D01*
X1029Y153D02*
X1038Y153D01*
X1094Y153D02*
X1103Y153D01*
X2828Y153D02*
X2852Y153D01*
X2930Y153D02*
X2936Y153D01*
X979Y152D02*
X985Y152D01*
X1029Y152D02*
X1038Y152D01*
X1095Y152D02*
X1104Y152D01*
X2826Y152D02*
X2849Y152D01*
X2930Y152D02*
X2936Y152D01*
X979Y151D02*
X985Y151D01*
X1029Y151D02*
X1038Y151D01*
X1095Y151D02*
X1104Y151D01*
X2823Y151D02*
X2847Y151D01*
X2930Y151D02*
X2936Y151D01*
X979Y150D02*
X985Y150D01*
X1029Y150D02*
X1038Y150D01*
X1095Y150D02*
X1104Y150D01*
X2821Y150D02*
X2845Y150D01*
X2930Y150D02*
X2936Y150D01*
X979Y149D02*
X985Y149D01*
X1029Y149D02*
X1038Y149D01*
X1095Y149D02*
X1104Y149D01*
X2819Y149D02*
X2842Y149D01*
X2930Y149D02*
X2936Y149D01*
X979Y148D02*
X985Y148D01*
X1029Y148D02*
X1038Y148D01*
X1095Y148D02*
X1104Y148D01*
X2816Y148D02*
X2840Y148D01*
X2930Y148D02*
X2936Y148D01*
X979Y147D02*
X985Y147D01*
X1029Y147D02*
X1038Y147D01*
X1095Y147D02*
X1104Y147D01*
X2814Y147D02*
X2838Y147D01*
X2930Y147D02*
X2936Y147D01*
X979Y146D02*
X985Y146D01*
X1029Y146D02*
X1038Y146D01*
X1095Y146D02*
X1104Y146D01*
X2812Y146D02*
X2836Y146D01*
X2930Y146D02*
X2936Y146D01*
X979Y145D02*
X985Y145D01*
X1029Y145D02*
X1038Y145D01*
X1095Y145D02*
X1104Y145D01*
X2810Y145D02*
X2833Y145D01*
X2930Y145D02*
X2936Y145D01*
X979Y144D02*
X985Y144D01*
X1029Y144D02*
X1038Y144D01*
X1095Y144D02*
X1104Y144D01*
X2807Y144D02*
X2831Y144D01*
X2930Y144D02*
X2936Y144D01*
X979Y143D02*
X985Y143D01*
X1029Y143D02*
X1038Y143D01*
X1095Y143D02*
X1104Y143D01*
X2805Y143D02*
X2829Y143D01*
X2930Y143D02*
X2936Y143D01*
X979Y142D02*
X985Y142D01*
X1029Y142D02*
X1038Y142D01*
X1095Y142D02*
X1104Y142D01*
X2803Y142D02*
X2826Y142D01*
X2930Y142D02*
X2936Y142D01*
X979Y141D02*
X985Y141D01*
X1029Y141D02*
X1038Y141D01*
X1095Y141D02*
X1104Y141D01*
X2801Y141D02*
X2824Y141D01*
X2930Y141D02*
X2936Y141D01*
X979Y140D02*
X985Y140D01*
X1029Y140D02*
X1038Y140D01*
X1095Y140D02*
X1104Y140D01*
X2798Y140D02*
X2822Y140D01*
X2930Y140D02*
X2936Y140D01*
X979Y139D02*
X985Y139D01*
X1029Y139D02*
X1038Y139D01*
X1095Y139D02*
X1104Y139D01*
X2796Y139D02*
X2820Y139D01*
X2930Y139D02*
X2936Y139D01*
X979Y138D02*
X985Y138D01*
X1029Y138D02*
X1038Y138D01*
X1095Y138D02*
X1104Y138D01*
X2796Y138D02*
X2817Y138D01*
X2930Y138D02*
X2936Y138D01*
X979Y137D02*
X985Y137D01*
X1029Y137D02*
X1038Y137D01*
X1095Y137D02*
X1104Y137D01*
X2796Y137D02*
X2815Y137D01*
X2930Y137D02*
X2936Y137D01*
X979Y136D02*
X985Y136D01*
X1029Y136D02*
X1038Y136D01*
X1095Y136D02*
X1104Y136D01*
X2796Y136D02*
X2814Y136D01*
X2930Y136D02*
X2936Y136D01*
X979Y135D02*
X985Y135D01*
X1029Y135D02*
X1038Y135D01*
X1095Y135D02*
X1104Y135D01*
X2796Y135D02*
X2869Y135D01*
X2930Y135D02*
X2936Y135D01*
X979Y134D02*
X985Y134D01*
X1029Y134D02*
X1038Y134D01*
X1095Y134D02*
X1104Y134D01*
X2796Y134D02*
X2870Y134D01*
X2930Y134D02*
X2936Y134D01*
X979Y133D02*
X985Y133D01*
X1029Y133D02*
X1038Y133D01*
X1095Y133D02*
X1104Y133D01*
X2796Y133D02*
X2871Y133D01*
X2930Y133D02*
X2936Y133D01*
X979Y132D02*
X985Y132D01*
X1029Y132D02*
X1037Y132D01*
X1095Y132D02*
X1103Y132D01*
X2796Y132D02*
X2871Y132D01*
X2930Y132D02*
X2936Y132D01*
X979Y131D02*
X985Y131D01*
X1029Y131D02*
X1037Y131D01*
X1095Y131D02*
X1103Y131D01*
X2796Y131D02*
X2871Y131D01*
X2930Y131D02*
X2936Y131D01*
X979Y130D02*
X985Y130D01*
X1030Y130D02*
X1036Y130D01*
X1096Y130D02*
X1102Y130D01*
X2796Y130D02*
X2871Y130D01*
X2930Y130D02*
X2936Y130D01*
X979Y129D02*
X985Y129D01*
X1031Y129D02*
X1035Y129D01*
X1097Y129D02*
X1101Y129D01*
X2796Y129D02*
X2871Y129D01*
X2930Y129D02*
X2936Y129D01*
X979Y128D02*
X985Y128D01*
X2796Y128D02*
X2870Y128D01*
X2930Y128D02*
X2936Y128D01*
X979Y127D02*
X985Y127D01*
X2796Y127D02*
X2869Y127D01*
X2930Y127D02*
X2936Y127D01*
X979Y126D02*
X985Y126D01*
X2930Y126D02*
X2936Y126D01*
X979Y125D02*
X985Y125D01*
X2930Y125D02*
X2936Y125D01*
X979Y124D02*
X985Y124D01*
X2930Y124D02*
X2936Y124D01*
X979Y123D02*
X985Y123D01*
X2930Y123D02*
X2936Y123D01*
X979Y122D02*
X985Y122D01*
X2930Y122D02*
X2936Y122D01*
X979Y121D02*
X985Y121D01*
X2930Y121D02*
X2936Y121D01*
X979Y120D02*
X985Y120D01*
X2930Y120D02*
X2936Y120D01*
X979Y119D02*
X985Y119D01*
X2930Y119D02*
X2936Y119D01*
X979Y118D02*
X985Y118D01*
X2930Y118D02*
X2936Y118D01*
X979Y117D02*
X985Y117D01*
X2930Y117D02*
X2936Y117D01*
X979Y116D02*
X985Y116D01*
X2930Y116D02*
X2936Y116D01*
X979Y115D02*
X985Y115D01*
X2930Y115D02*
X2936Y115D01*
X979Y114D02*
X985Y114D01*
X2930Y114D02*
X2936Y114D01*
X979Y113D02*
X985Y113D01*
X2930Y113D02*
X2936Y113D01*
X979Y112D02*
X985Y112D01*
X2930Y112D02*
X2936Y112D01*
X979Y111D02*
X985Y111D01*
X2930Y111D02*
X2936Y111D01*
X979Y110D02*
X985Y110D01*
X2930Y110D02*
X2936Y110D01*
X979Y109D02*
X985Y109D01*
X2930Y109D02*
X2936Y109D01*
X979Y108D02*
X985Y108D01*
X2930Y108D02*
X2936Y108D01*
X979Y107D02*
X985Y107D01*
X2930Y107D02*
X2936Y107D01*
X979Y106D02*
X985Y106D01*
X1061Y106D02*
X1071Y106D01*
X2930Y106D02*
X2936Y106D01*
X979Y105D02*
X985Y105D01*
X1058Y105D02*
X1074Y105D01*
X2930Y105D02*
X2936Y105D01*
X979Y104D02*
X985Y104D01*
X1056Y104D02*
X1076Y104D01*
X2799Y104D02*
X2802Y104D01*
X2865Y104D02*
X2868Y104D01*
X2930Y104D02*
X2936Y104D01*
X979Y103D02*
X985Y103D01*
X1054Y103D02*
X1078Y103D01*
X2798Y103D02*
X2804Y103D01*
X2864Y103D02*
X2870Y103D01*
X2930Y103D02*
X2936Y103D01*
X979Y102D02*
X985Y102D01*
X1052Y102D02*
X1080Y102D01*
X2797Y102D02*
X2804Y102D01*
X2863Y102D02*
X2870Y102D01*
X2930Y102D02*
X2936Y102D01*
X979Y101D02*
X985Y101D01*
X1050Y101D02*
X1082Y101D01*
X2796Y101D02*
X2805Y101D01*
X2862Y101D02*
X2871Y101D01*
X2930Y101D02*
X2936Y101D01*
X979Y100D02*
X985Y100D01*
X1048Y100D02*
X1084Y100D01*
X2796Y100D02*
X2805Y100D01*
X2862Y100D02*
X2871Y100D01*
X2930Y100D02*
X2936Y100D01*
X979Y99D02*
X985Y99D01*
X1046Y99D02*
X1086Y99D01*
X2796Y99D02*
X2805Y99D01*
X2862Y99D02*
X2871Y99D01*
X2930Y99D02*
X2936Y99D01*
X979Y98D02*
X985Y98D01*
X1044Y98D02*
X1088Y98D01*
X2796Y98D02*
X2805Y98D01*
X2862Y98D02*
X2871Y98D01*
X2930Y98D02*
X2936Y98D01*
X979Y97D02*
X985Y97D01*
X1042Y97D02*
X1090Y97D01*
X2796Y97D02*
X2805Y97D01*
X2862Y97D02*
X2871Y97D01*
X2930Y97D02*
X2936Y97D01*
X979Y96D02*
X985Y96D01*
X1040Y96D02*
X1061Y96D01*
X1071Y96D02*
X1093Y96D01*
X2796Y96D02*
X2805Y96D01*
X2862Y96D02*
X2871Y96D01*
X2930Y96D02*
X2936Y96D01*
X979Y95D02*
X985Y95D01*
X1038Y95D02*
X1059Y95D01*
X1073Y95D02*
X1095Y95D01*
X2796Y95D02*
X2805Y95D01*
X2862Y95D02*
X2871Y95D01*
X2930Y95D02*
X2936Y95D01*
X979Y94D02*
X985Y94D01*
X1036Y94D02*
X1057Y94D01*
X1075Y94D02*
X1096Y94D01*
X2796Y94D02*
X2871Y94D01*
X2930Y94D02*
X2936Y94D01*
X979Y93D02*
X985Y93D01*
X1035Y93D02*
X1055Y93D01*
X1077Y93D02*
X1098Y93D01*
X2796Y93D02*
X2871Y93D01*
X2930Y93D02*
X2936Y93D01*
X979Y92D02*
X985Y92D01*
X1034Y92D02*
X1053Y92D01*
X1079Y92D02*
X1099Y92D01*
X2796Y92D02*
X2871Y92D01*
X2930Y92D02*
X2936Y92D01*
X979Y91D02*
X985Y91D01*
X1033Y91D02*
X1051Y91D01*
X1081Y91D02*
X1100Y91D01*
X2796Y91D02*
X2871Y91D01*
X2930Y91D02*
X2936Y91D01*
X979Y90D02*
X985Y90D01*
X1032Y90D02*
X1049Y90D01*
X1083Y90D02*
X1101Y90D01*
X2796Y90D02*
X2871Y90D01*
X2930Y90D02*
X2936Y90D01*
X979Y89D02*
X985Y89D01*
X1031Y89D02*
X1047Y89D01*
X1085Y89D02*
X1101Y89D01*
X2796Y89D02*
X2871Y89D01*
X2930Y89D02*
X2936Y89D01*
X979Y88D02*
X985Y88D01*
X1030Y88D02*
X1045Y88D01*
X1087Y88D02*
X1102Y88D01*
X2796Y88D02*
X2871Y88D01*
X2930Y88D02*
X2936Y88D01*
X979Y87D02*
X985Y87D01*
X1030Y87D02*
X1043Y87D01*
X1089Y87D02*
X1102Y87D01*
X2796Y87D02*
X2871Y87D01*
X2930Y87D02*
X2936Y87D01*
X979Y86D02*
X985Y86D01*
X1030Y86D02*
X1041Y86D01*
X1091Y86D02*
X1103Y86D01*
X2796Y86D02*
X2871Y86D01*
X2930Y86D02*
X2936Y86D01*
X979Y85D02*
X985Y85D01*
X1029Y85D02*
X1039Y85D01*
X1093Y85D02*
X1103Y85D01*
X2796Y85D02*
X2805Y85D01*
X2862Y85D02*
X2871Y85D01*
X2930Y85D02*
X2936Y85D01*
X979Y84D02*
X985Y84D01*
X1029Y84D02*
X1038Y84D01*
X1094Y84D02*
X1103Y84D01*
X2796Y84D02*
X2805Y84D01*
X2862Y84D02*
X2871Y84D01*
X2930Y84D02*
X2936Y84D01*
X979Y83D02*
X985Y83D01*
X1029Y83D02*
X1038Y83D01*
X1094Y83D02*
X1103Y83D01*
X2796Y83D02*
X2805Y83D01*
X2862Y83D02*
X2871Y83D01*
X2930Y83D02*
X2936Y83D01*
X979Y82D02*
X985Y82D01*
X1029Y82D02*
X1038Y82D01*
X1095Y82D02*
X1104Y82D01*
X2796Y82D02*
X2805Y82D01*
X2862Y82D02*
X2871Y82D01*
X2930Y82D02*
X2936Y82D01*
X979Y81D02*
X985Y81D01*
X1029Y81D02*
X1038Y81D01*
X1095Y81D02*
X1104Y81D01*
X2796Y81D02*
X2805Y81D01*
X2862Y81D02*
X2871Y81D01*
X2930Y81D02*
X2936Y81D01*
X979Y80D02*
X985Y80D01*
X1029Y80D02*
X1038Y80D01*
X1095Y80D02*
X1104Y80D01*
X2796Y80D02*
X2805Y80D01*
X2862Y80D02*
X2871Y80D01*
X2930Y80D02*
X2936Y80D01*
X979Y79D02*
X985Y79D01*
X1029Y79D02*
X1038Y79D01*
X1095Y79D02*
X1104Y79D01*
X2796Y79D02*
X2806Y79D01*
X2861Y79D02*
X2871Y79D01*
X2931Y79D02*
X2936Y79D01*
X979Y78D02*
X985Y78D01*
X1029Y78D02*
X1038Y78D01*
X1095Y78D02*
X1104Y78D01*
X2797Y78D02*
X2807Y78D01*
X2861Y78D02*
X2871Y78D01*
X2931Y78D02*
X2936Y78D01*
X979Y77D02*
X985Y77D01*
X1029Y77D02*
X1038Y77D01*
X1095Y77D02*
X1104Y77D01*
X2797Y77D02*
X2808Y77D01*
X2859Y77D02*
X2870Y77D01*
X2931Y77D02*
X2936Y77D01*
X979Y76D02*
X985Y76D01*
X1029Y76D02*
X1038Y76D01*
X1095Y76D02*
X1104Y76D01*
X2797Y76D02*
X2810Y76D01*
X2857Y76D02*
X2870Y76D01*
X2931Y76D02*
X2936Y76D01*
X979Y75D02*
X985Y75D01*
X1029Y75D02*
X1038Y75D01*
X1095Y75D02*
X1104Y75D01*
X2798Y75D02*
X2812Y75D01*
X2855Y75D02*
X2869Y75D01*
X2931Y75D02*
X2936Y75D01*
X979Y74D02*
X985Y74D01*
X1029Y74D02*
X1038Y74D01*
X1095Y74D02*
X1104Y74D01*
X2798Y74D02*
X2814Y74D01*
X2853Y74D02*
X2869Y74D01*
X2931Y74D02*
X2936Y74D01*
X979Y73D02*
X985Y73D01*
X1029Y73D02*
X1038Y73D01*
X1095Y73D02*
X1104Y73D01*
X2799Y73D02*
X2816Y73D01*
X2851Y73D02*
X2868Y73D01*
X2931Y73D02*
X2936Y73D01*
X979Y72D02*
X985Y72D01*
X1029Y72D02*
X1038Y72D01*
X1095Y72D02*
X1104Y72D01*
X2800Y72D02*
X2818Y72D01*
X2849Y72D02*
X2867Y72D01*
X2931Y72D02*
X2936Y72D01*
X979Y71D02*
X985Y71D01*
X1029Y71D02*
X1038Y71D01*
X1095Y71D02*
X1104Y71D01*
X2801Y71D02*
X2820Y71D01*
X2847Y71D02*
X2866Y71D01*
X2930Y71D02*
X2936Y71D01*
X979Y70D02*
X985Y70D01*
X1029Y70D02*
X1038Y70D01*
X1095Y70D02*
X1104Y70D01*
X2802Y70D02*
X2822Y70D01*
X2845Y70D02*
X2865Y70D01*
X2930Y70D02*
X2936Y70D01*
X980Y69D02*
X985Y69D01*
X1029Y69D02*
X1038Y69D01*
X1095Y69D02*
X1104Y69D01*
X2803Y69D02*
X2824Y69D01*
X2843Y69D02*
X2864Y69D01*
X2930Y69D02*
X2936Y69D01*
X980Y68D02*
X985Y68D01*
X1029Y68D02*
X1038Y68D01*
X1095Y68D02*
X1104Y68D01*
X2805Y68D02*
X2826Y68D01*
X2841Y68D02*
X2862Y68D01*
X2930Y68D02*
X2936Y68D01*
X980Y67D02*
X985Y67D01*
X1029Y67D02*
X1038Y67D01*
X1095Y67D02*
X1104Y67D01*
X2807Y67D02*
X2828Y67D01*
X2839Y67D02*
X2860Y67D01*
X2930Y67D02*
X2936Y67D01*
X980Y66D02*
X985Y66D01*
X1029Y66D02*
X1038Y66D01*
X1095Y66D02*
X1104Y66D01*
X2809Y66D02*
X2833Y66D01*
X2835Y66D02*
X2858Y66D01*
X2930Y66D02*
X2936Y66D01*
X980Y65D02*
X986Y65D01*
X1029Y65D02*
X1038Y65D01*
X1095Y65D02*
X1104Y65D01*
X2811Y65D02*
X2856Y65D01*
X2930Y65D02*
X2936Y65D01*
X980Y64D02*
X986Y64D01*
X1029Y64D02*
X1038Y64D01*
X1095Y64D02*
X1104Y64D01*
X2813Y64D02*
X2854Y64D01*
X2930Y64D02*
X2935Y64D01*
X980Y63D02*
X986Y63D01*
X1029Y63D02*
X1038Y63D01*
X1095Y63D02*
X1104Y63D01*
X2815Y63D02*
X2852Y63D01*
X2930Y63D02*
X2935Y63D01*
X980Y62D02*
X986Y62D01*
X1029Y62D02*
X1037Y62D01*
X1095Y62D02*
X1103Y62D01*
X2817Y62D02*
X2850Y62D01*
X2930Y62D02*
X2935Y62D01*
X981Y61D02*
X986Y61D01*
X1029Y61D02*
X1037Y61D01*
X1095Y61D02*
X1103Y61D01*
X2819Y61D02*
X2848Y61D01*
X2929Y61D02*
X2935Y61D01*
X981Y60D02*
X986Y60D01*
X1030Y60D02*
X1036Y60D01*
X1096Y60D02*
X1102Y60D01*
X2821Y60D02*
X2846Y60D01*
X2929Y60D02*
X2935Y60D01*
X981Y59D02*
X987Y59D01*
X1031Y59D02*
X1035Y59D01*
X1097Y59D02*
X1101Y59D01*
X2823Y59D02*
X2844Y59D01*
X2929Y59D02*
X2935Y59D01*
X981Y58D02*
X987Y58D01*
X2825Y58D02*
X2842Y58D01*
X2929Y58D02*
X2935Y58D01*
X982Y57D02*
X987Y57D01*
X2828Y57D02*
X2839Y57D01*
X2929Y57D02*
X2934Y57D01*
X982Y56D02*
X987Y56D01*
X2929Y56D02*
X2934Y56D01*
X982Y55D02*
X988Y55D01*
X2928Y55D02*
X2934Y55D01*
X982Y54D02*
X988Y54D01*
X2928Y54D02*
X2934Y54D01*
X983Y53D02*
X988Y53D01*
X2928Y53D02*
X2934Y53D01*
X983Y52D02*
X989Y52D01*
X2928Y52D02*
X2933Y52D01*
X983Y51D02*
X989Y51D01*
X2927Y51D02*
X2933Y51D01*
X983Y50D02*
X989Y50D01*
X2927Y50D02*
X2933Y50D01*
X984Y49D02*
X990Y49D01*
X2927Y49D02*
X2933Y49D01*
X984Y48D02*
X990Y48D01*
X2926Y48D02*
X2932Y48D01*
X984Y47D02*
X990Y47D01*
X2926Y47D02*
X2932Y47D01*
X985Y46D02*
X991Y46D01*
X2926Y46D02*
X2932Y46D01*
X985Y45D02*
X991Y45D01*
X2925Y45D02*
X2931Y45D01*
X986Y44D02*
X992Y44D01*
X2925Y44D02*
X2931Y44D01*
X986Y43D02*
X992Y43D01*
X2925Y43D02*
X2931Y43D01*
X987Y42D02*
X993Y42D01*
X2924Y42D02*
X2930Y42D01*
X987Y41D02*
X993Y41D01*
X2924Y41D02*
X2930Y41D01*
X988Y40D02*
X994Y40D01*
X2923Y40D02*
X2929Y40D01*
X988Y39D02*
X994Y39D01*
X2923Y39D02*
X2929Y39D01*
X989Y38D02*
X995Y38D01*
X2922Y38D02*
X2929Y38D01*
X989Y37D02*
X996Y37D01*
X2922Y37D02*
X2928Y37D01*
X990Y36D02*
X996Y36D01*
X2921Y36D02*
X2928Y36D01*
X990Y35D02*
X997Y35D01*
X2921Y35D02*
X2927Y35D01*
X991Y34D02*
X998Y34D01*
X2920Y34D02*
X2927Y34D01*
X992Y33D02*
X998Y33D01*
X2920Y33D02*
X2926Y33D01*
X992Y32D02*
X999Y32D01*
X2919Y32D02*
X2926Y32D01*
X993Y31D02*
X1000Y31D01*
X2919Y31D02*
X2925Y31D01*
X994Y30D02*
X1001Y30D01*
X2918Y30D02*
X2925Y30D01*
X994Y29D02*
X1002Y29D01*
X2917Y29D02*
X2924Y29D01*
X995Y28D02*
X1003Y28D01*
X2916Y28D02*
X2923Y28D01*
X996Y27D02*
X1004Y27D01*
X2916Y27D02*
X2923Y27D01*
X997Y26D02*
X1005Y26D01*
X2915Y26D02*
X2922Y26D01*
X998Y25D02*
X1006Y25D01*
X2914Y25D02*
X2921Y25D01*
X999Y24D02*
X1007Y24D01*
X2913Y24D02*
X2920Y24D01*
X1000Y23D02*
X1008Y23D01*
X2912Y23D02*
X2920Y23D01*
X1001Y22D02*
X1009Y22D01*
X2911Y22D02*
X2919Y22D01*
X1002Y21D02*
X1011Y21D01*
X2910Y21D02*
X2918Y21D01*
X1003Y20D02*
X1012Y20D01*
X2909Y20D02*
X2917Y20D01*
X1004Y19D02*
X1014Y19D01*
X2908Y19D02*
X2916Y19D01*
X1005Y18D02*
X1015Y18D01*
X2907Y18D02*
X2915Y18D01*
X1006Y17D02*
X1017Y17D01*
X2905Y17D02*
X2914Y17D01*
X1008Y16D02*
X1018Y16D01*
X2904Y16D02*
X2913Y16D01*
X1009Y15D02*
X1020Y15D01*
X2903Y15D02*
X2912Y15D01*
X1010Y14D02*
X1022Y14D01*
X2901Y14D02*
X2911Y14D01*
X1012Y13D02*
X1024Y13D01*
X2899Y13D02*
X2910Y13D01*
X1013Y12D02*
X1027Y12D01*
X2897Y12D02*
X2908Y12D01*
X1015Y11D02*
X1029Y11D01*
X2895Y11D02*
X2907Y11D01*
X1017Y10D02*
X1032Y10D01*
X2893Y10D02*
X2905Y10D01*
X1019Y9D02*
X1035Y9D01*
X2890Y9D02*
X2904Y9D01*
X1021Y8D02*
X1038Y8D01*
X2887Y8D02*
X2902Y8D01*
X1023Y7D02*
X1042Y7D01*
X2883Y7D02*
X2900Y7D01*
X1025Y6D02*
X1047Y6D01*
X2878Y6D02*
X2898Y6D01*
X1027Y5D02*
X1055Y5D01*
X2869Y5D02*
X2896Y5D01*
X1030Y4D02*
X2894Y4D01*
X1033Y3D02*
X2891Y3D01*
X1037Y2D02*
X2888Y2D01*
X1040Y1D02*
X2884Y1D01*
X1045Y0D02*
X2880Y0D01*
D02*
G04 End of Silk1*
M02*