; NON-PLATED HOLES START AT T1
; THROUGH (PLATED) HOLES START AT T100
M48
INCH
T1C0.125984
T2C0.165354
T100C0.038000
T101C0.040000
T102C0.039370
%
T1
X001251Y007798
X012153Y007327
X007653Y007327
X018534Y007805
X020517Y007348
X031433Y007792
X033356Y007327
X026933Y007792
X037856Y007327
X005751Y007798
X025017Y007348
X014034Y007805
T2
X019615Y014142
X037859Y003939
X001405Y003939
T100
X020057Y005438
X019057Y005438
X031979Y005292
X007176Y005335
X032979Y005292
X006176Y005335
T101
X021977Y003196
X012835Y003196
X014835Y003196
X016835Y003196
X025977Y003196
X023977Y003196
T102
X003751Y010298
X029433Y010292
X015034Y011305
X022017Y009848
X028933Y011292
X027433Y010292
X009653Y010827
X010153Y009827
X001751Y010298
X011653Y010827
X004251Y011298
X005251Y011298
X002751Y010298
X029933Y011292
X037356Y010827
X003251Y011298
X022517Y010848
X021017Y009848
X008653Y010827
X004751Y010298
X027933Y011292
X002251Y011298
X016034Y011305
X010653Y010827
X011153Y009827
X023017Y009848
X024517Y010848
X036356Y010827
X009153Y009827
X035856Y009827
X034356Y010827
X023517Y010848
X028433Y010292
X034856Y009827
X035356Y010827
X016534Y010305
X024017Y009848
X030433Y010292
X014534Y010305
X015534Y010305
X021517Y010848
X033856Y009827
X008153Y009827
X017034Y011305
X018034Y011305
X036856Y009827
X017534Y010305
X030933Y011292
T00
M30
